<svg xmlns="http://www.w3.org/2000/svg" xmlns:xlink="http://www.w3.org/1999/xlink" viewBox="0 0 540.16662 281.33678">
  <g id="BACKGROUND">
    <g id="Livello_1.751" data-name="Livello 1.751">
      <rect x="-1318.70021" y="-31.84019" width="1920" height="1000" fill="#224"/>
    </g>
  </g>
  <g id="Etichette">
    <g id="Box-dark">
      <g id="BOX-DARK-2" data-name="BOX-DARK">
        <g id="RETT-DARK">
          <path d="M452.92418,43.742v60.75h-27v78.3H296.154V43.742H452.92418m3-3H293.154v145.05H428.92418v-78.3h27V40.742Z" fill="#c22eff"/>
        </g>
        <g id="LABEL-DARK">
          <rect x="293.15404" y="15.07126" width="82.52002" height="28.35" fill="#c22eff"/>
          <g>
            <path d="M301.69335,24.93959h-1.47461l-.4209,1.94288h-1.25293l.42187-1.94288h-1.20605V23.734h1.46289l.39844-1.896h-1.35743V20.633h1.61524l.4209-1.94287h1.252l-.4209,1.94287h1.47461l.40918-1.94287h1.25293l-.41016,1.94287h1.19434V21.838h-1.45117l-.39844,1.896h1.3457v1.20556H302.9453l-.40918,1.94288h-1.25195Zm.65527-3.10156H300.874l-.39746,1.896h1.47461Z" fill="#224"/>
            <path d="M305.99706,23.95668c0-1.73242,1.00683-3.043,2.61035-3.043a2.0565,2.0565,0,0,1,1.74414.90136v-3.125h1.3457v8.19239h-1.3457v-.78418a2.14808,2.14808,0,0,1-1.791.90136C306.957,26.99965,305.99706,25.68862,305.99706,23.95668Zm4.35449,0c0-1.24072-.71387-1.94287-1.47461-1.94287h-.09375c-.81934,0-1.43945.70215-1.43945,1.93116,0,1.24072.62011,1.95459,1.43945,1.95459h.09375C309.63768,25.89956,310.35155,25.19692,310.35155,23.95668Z" fill="#224"/>
            <path d="M314.87792,26.99965a1.77539,1.77539,0,0,1-1.91993-1.7207c0-1.29883,1.06543-1.80225,2.13086-1.88428l1.53321-.12842v-.16406a1.00819,1.00819,0,0,0-1.06543-1.08838h-.07032a.97448.97448,0,0,0-1.06543.78418h-1.3457a2.21263,2.21263,0,0,1,2.44629-1.88427,2.152,2.152,0,0,1,2.42285,2.15332v2.52783a9.909,9.909,0,0,0,.0586,1.2876h-1.26465a7.057,7.057,0,0,1-.07032-.80762A2.05247,2.05247,0,0,1,314.87792,26.99965Zm.31543-1.10009a1.40225,1.40225,0,0,0,1.42871-1.2876V24.2726l-1.34668.11719c-.51465.04688-.99414.3042-.99414.80713a.74828.74828,0,0,0,.831.70264Z" fill="#224"/>
            <path d="M319.53417,21.0309h1.32226v1.2168a1.69431,1.69431,0,0,1,1.69727-1.27539h.39746V22.236h-.50293a1.44064,1.44064,0,0,0-1.56836,1.63867v3.00782h-1.3457Z" fill="#224"/>
            <path d="M326.0869,24.30776l-.7373.7373v1.83741h-1.34571V18.69008h1.34571v4.68116L327.667,21.0309h1.69726l-2.3291,2.32862,2.44629,3.523H327.8662Z" fill="#224"/>
            <path d="M333.84471,26.88247h-1.45117a1.27752,1.27752,0,0,1-1.416-1.416V22.14272h-1.24023V21.0309h1.24023v-1.896h1.34571v1.896h1.3457v1.11182h-1.3457v3.00781c0,.45606.11719.57324.57422.57324h.94726Z" fill="#224"/>
            <path d="M334.58006,23.95668a2.87825,2.87825,0,1,1,5.74707,0,2.87825,2.87825,0,1,1-5.74707,0Zm4.38965,0c0-1.229-.59765-1.94287-1.46386-1.94287h-.1045c-.86621,0-1.47461.71387-1.47461,1.94287s.6084,1.94288,1.47461,1.94288h.1045C338.37206,25.89956,338.96971,25.18569,338.96971,23.95668Z" fill="#224"/>
            <path d="M346.65624,26.88247h-1.34571V25.923a1.99444,1.99444,0,0,1-3.75683-1.10009v-3.792h1.3457v3.59278c0,.84277.35156,1.27588.99512,1.27588H344a1.49468,1.49468,0,0,0,1.31054-1.65039V21.0309h1.34571Z" fill="#224"/>
            <path d="M348.293,21.0309h1.32227v1.2168a1.69431,1.69431,0,0,1,1.69727-1.27539H351.71V22.236H351.207a1.44064,1.44064,0,0,0-1.56836,1.63867v3.00782H348.293Z" fill="#224"/>
            <path d="M352.71581,18.69008h1.46289v1.45117h-1.46289Zm.04687,2.34082h1.3457v5.85157h-1.3457Z" fill="#224"/>
            <path d="M355.31249,24.99819h1.35839a1.01212,1.01212,0,0,0,1.123.93652h.09375c.52637,0,.91309-.25781.91309-.65576,0-.33936-.19922-.5498-.69043-.65527l-.7959-.17578c-1.11231-.25733-1.76758-.76026-1.76758-1.73194,0-1.1001.96-1.80224,2.29395-1.80224,1.5332,0,2.36425.78418,2.36425,2.00146h-1.3457a.94623.94623,0,0,0-.99512-.93652h-.10547c-.50292,0-.86621.28076-.86621.65527,0,.32764.2461.53857.77246.65576l.84278.19873c1.03027.23389,1.63867.749,1.63867,1.73194,0,1.01855-.87793,1.77929-2.36426,1.77929C356.21385,26.99965,355.33592,26.21547,355.31249,24.99819Z" fill="#224"/>
            <path d="M362.84764,26.88247h-1.3457V21.0309h1.3457v.83057a2.03635,2.03635,0,0,1,1.75586-.94775,1.92849,1.92849,0,0,1,1.84863,1.0415,2.17229,2.17229,0,0,1,1.93164-1.0415,1.94751,1.94751,0,0,1,2.09473,2.17675v3.792h-1.3457V23.30141c0-.7959-.30469-1.25244-1.03028-1.25244h-.082a1.44647,1.44647,0,0,0-1.35742,1.56836v3.26514h-1.3457V23.30141c0-.7959-.30469-1.25244-1.03027-1.25244h-.082a1.44647,1.44647,0,0,0-1.35742,1.56836Z" fill="#224"/>
            <path d="M312.04979,38.58266V36.90883h-3.456v-.73242l3.34668-4.52588h.75293V36.2853H313.832v.62353h-1.13867v1.67383Zm0-6.13965-2.82227,3.84229h2.82227Z" fill="#224"/>
            <path d="M314.73143,35.11684c0-2.32764.9707-3.56543,2.625-3.56543,1.65332,0,2.624,1.23779,2.624,3.56543,0,2.32715-.9707,3.56494-2.624,3.56494C315.70213,38.68178,314.73143,37.444,314.73143,35.11684Zm2.67383,2.92139c.832,0,1.90137-.624,1.90137-2.92139,0-2.29785-1.06934-2.92139-1.90137-2.92139h-.09863c-.832,0-1.90137.62354-1.90137,2.92139,0,2.29736,1.06934,2.92139,1.90137,2.92139Z" fill="#224"/>
            <path d="M320.69139,39.72133v-.396h.29688a.52552.52552,0,0,0,.59472-.59424v-.14844h-.54492v-.99023h.99024V38.7809a.85518.85518,0,0,1-.94043.94043Z" fill="#224"/>
            <path d="M323.10643,36.8h.67383a1.49112,1.49112,0,0,0,1.624,1.23828h.09961a1.56289,1.56289,0,0,0,1.60352-1.63428,1.43984,1.43984,0,0,0-1.49512-1.51514h-.09863a1.82528,1.82528,0,0,0-1.48535.79248h-.66407l.832-4.03076h3.51563v.66358H324.751l-.53515,2.47558a2.13959,2.13959,0,0,1,3.56543,1.56494,2.26425,2.26425,0,0,1-2.32715,2.32715A2.1233,2.1233,0,0,1,323.10643,36.8Z" fill="#224"/>
            <path d="M330.77049,36.0475l-1.001.95069v1.58447H329.126V31.65053h.64356v4.54541l2.63476-2.56494h.88086l-2.05957,1.9707,2.15918,2.981H332.582Z" fill="#224"/>
            <path d="M341.29393,36.10708a2.27756,2.27756,0,0,1-2.208,2.5747,1.94968,1.94968,0,0,1-1.65429-.89111v2.77246h-.64356V33.631h.64356v.79248a1.94855,1.94855,0,0,1,1.65429-.89111A2.27757,2.27757,0,0,1,341.29393,36.10708Zm-3.8623,0c0,1.06933.51562,2.02978,1.585,2.02978h.0498c1.05957,0,1.57422-.96045,1.57422-2.02978,0-1.06983-.51465-2.03028-1.57422-2.03028h-.0498C337.94725,34.0768,337.43163,35.03725,337.43163,36.10708Z" fill="#224"/>
            <path d="M342.27245,36.10708a2.29495,2.29495,0,1,1,4.55566,0,2.29494,2.29494,0,1,1-4.55566,0Zm3.90136,0c0-1.26758-.68261-2.03028-1.57421-2.03028H344.501c-.8916,0-1.57519.7627-1.57519,2.03028s.68359,2.02978,1.57519,2.02978h.09864C345.4912,38.13686,346.17381,37.37465,346.17381,36.10708Z" fill="#224"/>
            <path d="M347.71776,37.09731h.64355a1.15708,1.15708,0,0,0,1.27735,1.03955h.09863c.69336,0,1.11914-.34619,1.11914-.89111,0-.38623-.208-.624-.87109-.7627l-.72266-.14844c-.75293-.1582-1.34668-.50488-1.34668-1.34668,0-.94091.83106-1.45556,1.77246-1.45556a1.66393,1.66393,0,0,1,1.86133,1.58447h-.64355a1.15208,1.15208,0,0,0-1.169-1.04h-.09863a.95218.95218,0,0,0-1.0791.90137c0,.35644.26757.604.90136.74267l.77149.16846c.70312.14844,1.25781.46533,1.26758,1.30713.01074.94043-.72266,1.48535-1.81153,1.48535C348.41112,38.68178,347.76659,38.00844,347.71776,37.09731Z" fill="#224"/>
            <path d="M354.292,38.03823h.99023v.54443h-1.08886c-.64356,0-.94141-.24756-.94141-.89111V34.17592h-1.13867V33.631h1.13867V32.027h.64355v1.604h1.23828v.54492h-1.23828v3.46582C353.89549,37.93911,353.9951,38.03823,354.292,38.03823Z" fill="#224"/>
            <path d="M355.89549,37.09731h.64356a1.15707,1.15707,0,0,0,1.27734,1.03955h.09863c.69336,0,1.11915-.34619,1.11915-.89111,0-.38623-.208-.624-.8711-.7627l-.72265-.14844c-.75293-.1582-1.34668-.50488-1.34668-1.34668,0-.94091.831-1.45556,1.77246-1.45556a1.66393,1.66393,0,0,1,1.86132,1.58447H359.084a1.15208,1.15208,0,0,0-1.16895-1.04h-.09863a.95218.95218,0,0,0-1.0791.90137c0,.35644.26758.604.90137.74267l.77148.16846c.70313.14844,1.25781.46533,1.26758,1.30713.01074.94043-.72266,1.48535-1.81152,1.48535C356.58885,38.68178,355.94432,38.00844,355.89549,37.09731Z" fill="#224"/>
          </g>
        </g>
      </g>
      <g id="BOX-ATOMIC">
        <g id="RETT-ATOMIC">
          <path id="RETT-ATOMIC-2" data-name="RETT-ATOMIC" d="M326.758,221.51079V255.242H296.438v-33.7312H326.758m3-3H293.438V258.242H329.758v-39.7312Z" fill="#c22eff"/>
        </g>
        <g id="LABEL-ATOMIC">
          <rect x="293.43797" y="192.84006" width="91.23618" height="28.35" fill="#c22eff"/>
          <g>
            <path d="M300.65624,203.60854h-1.47461l-.4209,1.94287H297.5078l.42187-1.94287h-1.20605V202.403h1.46289l.39844-1.896h-1.35743V199.3019h1.61524l.4209-1.94287h1.25195l-.4209,1.94287h1.47461l.40918-1.94287h1.25293l-.41016,1.94287h1.19434V200.507h-1.45117l-.39844,1.896h1.3457v1.20557h-1.60351l-.40918,1.94287h-1.252Zm.65527-3.10156H299.8369l-.39746,1.896H300.914Z" fill="#224"/>
            <path d="M306.72752,205.6686a1.77539,1.77539,0,0,1-1.91992-1.7207c0-1.29883,1.06543-1.80225,2.13086-1.88428l1.53321-.12842v-.16406a1.00818,1.00818,0,0,0-1.06543-1.08838h-.07032a.97447.97447,0,0,0-1.06543.78418h-1.3457a2.21264,2.21264,0,0,1,2.44629-1.88428,2.152,2.152,0,0,1,2.42285,2.15332v2.52783a9.91059,9.91059,0,0,0,.05859,1.2876h-1.26464a7.05678,7.05678,0,0,1-.07032-.80762A2.05248,2.05248,0,0,1,306.72752,205.6686Zm.31543-1.1001a1.40225,1.40225,0,0,0,1.42872-1.2876v-.33935l-1.34668.11719c-.51465.04687-.99414.30419-.99414.80712a.74828.74828,0,0,0,.83105.70264Z" fill="#224"/>
            <path d="M314.6953,205.55141h-1.45117a1.27752,1.27752,0,0,1-1.416-1.416v-3.32373h-1.24023v-1.11182h1.24023v-1.896h1.3457v1.896h1.34571v1.11182h-1.34571v3.00781c0,.45605.11719.57324.57422.57324h.94727Z" fill="#224"/>
            <path d="M315.31444,202.62563a2.87825,2.87825,0,1,1,2.86816,3.043A2.84667,2.84667,0,0,1,315.31444,202.62563Zm4.38965,0c0-1.229-.59766-1.94287-1.46387-1.94287h-.10449c-.86621,0-1.47461.71387-1.47461,1.94287s.6084,1.94287,1.47461,1.94287h.10449C319.10643,204.5685,319.70409,203.85463,319.70409,202.62563Z" fill="#224"/>
            <path d="M323.57518,205.55141h-1.3457v-5.85156h1.3457v.83057a2.03635,2.03635,0,0,1,1.75586-.94776,1.9285,1.9285,0,0,1,1.84863,1.04151,2.17227,2.17227,0,0,1,1.93164-1.04151,1.94752,1.94752,0,0,1,2.09473,2.17676v3.792h-1.3457v-3.58105c0-.7959-.30469-1.25244-1.03028-1.25244h-.082a1.44647,1.44647,0,0,0-1.35742,1.56835v3.26514h-1.3457v-3.58105c0-.7959-.30469-1.25244-1.03028-1.25244h-.082a1.44647,1.44647,0,0,0-1.35742,1.56835Z" fill="#224"/>
            <path d="M332.61913,197.359H334.082v1.45117h-1.46289Zm.04687,2.34082h1.3457v5.85156H332.666Z" fill="#224"/>
            <path d="M340.52928,203.55a2.25674,2.25674,0,0,1-2.52734,2.11865,3.05266,3.05266,0,0,1,0-6.08594,2.25668,2.25668,0,0,1,2.52734,2.11817h-1.3457a1.10184,1.10184,0,0,0-1.14648-1.01807h-.082c-.98339,0-1.416.90137-1.416,1.94287s.43262,1.94287,1.416,1.94287h.082a1.10189,1.10189,0,0,0,1.14648-1.01855Z" fill="#224"/>
            <path d="M345.15038,205.55141H343.6992a1.27751,1.27751,0,0,1-1.416-1.416v-3.32373H341.043v-1.11182h1.24024v-1.896h1.3457v1.896h1.34571v1.11182h-1.34571v3.00781c0,.45605.11719.57324.57422.57324h.94727Z" fill="#224"/>
            <path d="M345.77049,202.62563a2.87825,2.87825,0,1,1,2.86817,3.043A2.84667,2.84667,0,0,1,345.77049,202.62563Zm4.38965,0c0-1.229-.59765-1.94287-1.46387-1.94287h-.10449c-.86621,0-1.47461.71387-1.47461,1.94287s.6084,1.94287,1.47461,1.94287h.10449C349.56249,204.5685,350.16014,203.85463,350.16014,202.62563Z" fill="#224"/>
            <path d="M357.72948,205.55141h-1.34571v-.95947a1.99444,1.99444,0,0,1-3.75683-1.1001v-3.792h1.3457v3.59277c0,.84278.35156,1.27588.99512,1.27588h.10547a1.49467,1.49467,0,0,0,1.31054-1.65039v-3.21826h1.34571Z" fill="#224"/>
            <path d="M359.249,199.69985h1.32226v1.2168a1.69432,1.69432,0,0,1,1.69727-1.2754h.39746v1.26368h-.50293a1.44064,1.44064,0,0,0-1.56836,1.63867v3.00781H359.249Z" fill="#224"/>
            <path d="M363.55467,197.359h1.46289v1.45117h-1.46289Zm.04688,2.34082h1.3457v5.85156h-1.3457Z" fill="#224"/>
            <path d="M366.03417,203.66713h1.35839a1.01212,1.01212,0,0,0,1.123.93653h.09375c.52637,0,.91309-.25782.91309-.65576,0-.33936-.19922-.54981-.69043-.65528l-.7959-.17578c-1.11231-.25732-1.76758-.76025-1.76758-1.73193,0-1.1001.96-1.80225,2.294-1.80225,1.5332,0,2.36425.78418,2.36425,2.00147H369.581a.94623.94623,0,0,0-.99512-.93653h-.10547c-.50293,0-.86621.28076-.86621.65528,0,.32763.2461.53857.77246.65576l.84278.19873c1.03027.23388,1.63867.749,1.63867,1.73193,0,1.01856-.87793,1.7793-2.36426,1.7793C366.93553,205.6686,366.0576,204.88442,366.03417,203.66713Z" fill="#224"/>
            <path d="M373.45213,205.55141h-1.3457v-5.85156h1.3457v.83057a2.03636,2.03636,0,0,1,1.75586-.94776,1.92852,1.92852,0,0,1,1.84864,1.04151,2.17225,2.17225,0,0,1,1.93164-1.04151,1.94752,1.94752,0,0,1,2.09472,2.17676v3.792h-1.3457v-3.58105c0-.7959-.30469-1.25244-1.03027-1.25244h-.082a1.44647,1.44647,0,0,0-1.35743,1.56835v3.26514h-1.3457v-3.58105c0-.7959-.30469-1.25244-1.03027-1.25244h-.082a1.44647,1.44647,0,0,0-1.35743,1.56835Z" fill="#224"/>
            <path d="M318.86815,216.35122v-1.67383H315.4121V213.945l3.34667-4.52588h.75293v4.63476h1.13868v.62354H319.5117v1.67383Zm0-6.13965-2.82227,3.84228h2.82227Z" fill="#224"/>
            <path d="M321.54979,212.8854c0-2.32764.9707-3.56543,2.625-3.56543,1.65332,0,2.624,1.23779,2.624,3.56543,0,2.32714-.9707,3.56494-2.624,3.56494C322.52049,216.45034,321.54979,215.21254,321.54979,212.8854Zm2.67383,2.92138c.832,0,1.90137-.624,1.90137-2.92138,0-2.29786-1.06934-2.92139-1.90137-2.92139H324.125c-.832,0-1.90137.62353-1.90137,2.92139,0,2.29736,1.06933,2.92138,1.90137,2.92138Z" fill="#224"/>
            <path d="M327.96483,212.8854c0-2.32764.9707-3.56543,2.625-3.56543,1.65332,0,2.624,1.23779,2.624,3.56543,0,2.32714-.9707,3.56494-2.624,3.56494C328.93553,216.45034,327.96483,215.21254,327.96483,212.8854Zm2.67383,2.92138c.832,0,1.90136-.624,1.90136-2.92138,0-2.29786-1.06933-2.92139-1.90136-2.92139H330.54c-.832,0-1.90136.62353-1.90136,2.92139,0,2.29736,1.06933,2.92138,1.90136,2.92138Z" fill="#224"/>
            <path d="M344.043,213.87563a2.27757,2.27757,0,0,1-2.208,2.57471,1.94967,1.94967,0,0,1-1.6543-.89112v2.77246h-.64355v-6.93212h.64355v.79248a1.94854,1.94854,0,0,1,1.6543-.89112A2.27757,2.27757,0,0,1,344.043,213.87563Zm-3.8623,0c0,1.06934.51562,2.02979,1.585,2.02979h.04981c1.05957,0,1.57421-.96045,1.57421-2.02979,0-1.06982-.51464-2.03027-1.57421-2.03027h-.04981C340.69627,211.84536,340.18065,212.80581,340.18065,213.87563Z" fill="#224"/>
            <path d="M345.02147,213.87563a2.29495,2.29495,0,1,1,2.27734,2.57471A2.3594,2.3594,0,0,1,345.02147,213.87563Zm3.90137,0c0-1.26758-.68262-2.03027-1.57422-2.03027H347.25c-.89161,0-1.5752.76269-1.5752,2.03027s.68359,2.02979,1.5752,2.02979h.09863C348.24022,215.90542,348.92284,215.14321,348.92284,213.87563Z" fill="#224"/>
            <path d="M350.46678,214.86586h.64356a1.15708,1.15708,0,0,0,1.27734,1.03956h.09863c.69336,0,1.11914-.3462,1.11914-.89112,0-.38623-.208-.624-.87109-.76269l-.72266-.14844c-.75293-.1582-1.34668-.50488-1.34668-1.34668,0-.94092.83106-1.45557,1.77247-1.45557a1.66393,1.66393,0,0,1,1.86132,1.58448h-.64355a1.15207,1.15207,0,0,0-1.16895-1.04h-.09863a.95217.95217,0,0,0-1.0791.90136c0,.35645.26758.604.90137.74268l.77148.16846c.70313.14843,1.25781.46533,1.26758,1.30713.01074.94043-.72266,1.48535-1.81152,1.48535C351.16014,216.45034,350.51561,215.777,350.46678,214.86586Z" fill="#224"/>
            <path d="M357.041,215.80678h.99024v.54444h-1.08887c-.64453,0-.94141-.24756-.94141-.89112v-3.51562h-1.13867v-.54492H356.001v-1.604h.64356v1.604h1.23828v.54492h-1.23828v3.46582C356.64452,215.70766,356.74413,215.80678,357.041,215.80678Z" fill="#224"/>
            <path d="M358.64452,214.86586h.64355a1.15709,1.15709,0,0,0,1.27735,1.03956h.09863c.69336,0,1.11914-.3462,1.11914-.89112,0-.38623-.208-.624-.87109-.76269l-.72266-.14844c-.75293-.1582-1.34668-.50488-1.34668-1.34668,0-.94092.83105-1.45557,1.77246-1.45557a1.66394,1.66394,0,0,1,1.86133,1.58448H361.833a1.15206,1.15206,0,0,0-1.16894-1.04h-.09863a.95218.95218,0,0,0-1.07911.90136c0,.35645.26758.604.90137.74268l.77149.16846c.70312.14843,1.25781.46533,1.26757,1.30713.01075.94043-.72265,1.48535-1.81152,1.48535C359.33788,216.45034,358.69335,215.777,358.64452,214.86586Z" fill="#224"/>
          </g>
        </g>
      </g>
      <g id="BOX-DISASTER">
        <g id="RETT-DISASTER">
          <path d="M424.858,221.51079V255.242H394.538v-33.7312H424.858m3-3H391.538V258.242H427.858v-39.7312Z" fill="#c22eff"/>
        </g>
        <g id="BOX-DISASTER-2" data-name="BOX-DISASTER">
          <rect x="391.53795" y="192.84006" width="96.63618" height="28.35" fill="#c22eff"/>
          <g>
            <path d="M398.73729,203.60854h-1.47461l-.4209,1.94287h-1.25293l.42188-1.94287h-1.20606V202.403h1.46289l.39844-1.896h-1.35742V199.3019h1.61523l.4209-1.94287h1.252l-.4209,1.94287h1.47461l.40918-1.94287h1.25293l-.41016,1.94287h1.19434V200.507h-1.45118l-.39843,1.896h1.3457v1.20557h-1.60352l-.40918,1.94287h-1.252Zm.65527-3.10156H397.918l-.39746,1.896h1.47461Z" fill="#224"/>
            <path d="M402.92381,202.62563c0-1.73242,1.00684-3.043,2.61036-3.043a2.05652,2.05652,0,0,1,1.74414.90137v-3.125h1.3457v8.19238h-1.3457v-.78418a2.1481,2.1481,0,0,1-1.791.90137C403.88377,205.6686,402.92381,204.35756,402.92381,202.62563Zm4.3545,0c0-1.24072-.71485-1.94287-1.47461-1.94287H405.71c-.81934,0-1.43946.70215-1.43946,1.93115,0,1.24072.62012,1.95459,1.43946,1.95459h.09375C406.56346,204.5685,407.27831,203.86586,407.27831,202.62563Z" fill="#224"/>
            <path d="M410.09569,197.359h1.46289v1.45117h-1.46289Zm.04687,2.34082h1.34571v5.85156h-1.34571Z" fill="#224"/>
            <path d="M412.57616,203.66713h1.3584a1.01211,1.01211,0,0,0,1.123.93653h.09375c.52637,0,.91309-.25782.91309-.65576,0-.33936-.19922-.54981-.69043-.65528l-.7959-.17578c-1.1123-.25732-1.76758-.76025-1.76758-1.73193,0-1.1001.96-1.80225,2.29395-1.80225,1.5332,0,2.36426.78418,2.36426,2.00147H416.123a.94623.94623,0,0,0-.99511-.93653h-.10547c-.50293,0-.86621.28076-.86621.65528,0,.32763.24609.53857.77246.65576l.84277.19873c1.03027.23388,1.63867.749,1.63867,1.73193,0,1.01856-.87793,1.7793-2.36426,1.7793C413.47752,205.6686,412.5996,204.88442,412.57616,203.66713Z" fill="#224"/>
            <path d="M420.19335,205.6686a1.77539,1.77539,0,0,1-1.91993-1.7207c0-1.29883,1.06543-1.80225,2.13086-1.88428l1.53321-.12842v-.16406a1.00818,1.00818,0,0,0-1.06543-1.08838h-.07032a.97447.97447,0,0,0-1.06543.78418h-1.3457a2.21264,2.21264,0,0,1,2.44629-1.88428,2.152,2.152,0,0,1,2.42285,2.15332v2.52783a9.90892,9.90892,0,0,0,.0586,1.2876H422.0537a7.05678,7.05678,0,0,1-.07032-.80762A2.05247,2.05247,0,0,1,420.19335,205.6686Zm.31542-1.1001a1.40225,1.40225,0,0,0,1.42872-1.2876v-.33935l-1.34668.11719c-.51465.04687-.99414.30419-.99414.80712a.74828.74828,0,0,0,.83105.70264Z" fill="#224"/>
            <path d="M424.29881,203.66713h1.3584a1.01212,1.01212,0,0,0,1.123.93653h.09375c.52637,0,.91309-.25782.91309-.65576,0-.33936-.19922-.54981-.69043-.65528l-.7959-.17578c-1.11231-.25732-1.76758-.76025-1.76758-1.73193,0-1.1001.96-1.80225,2.29394-1.80225,1.53321,0,2.36426.78418,2.36426,2.00147h-1.3457a.94623.94623,0,0,0-.99512-.93653h-.10547c-.50293,0-.86621.28076-.86621.65528,0,.32763.2461.53857.77246.65576l.84278.19873c1.03027.23388,1.63867.749,1.63867,1.73193,0,1.01856-.87793,1.7793-2.36426,1.7793C425.20018,205.6686,424.32225,204.88442,424.29881,203.66713Z" fill="#224"/>
            <path d="M433.85838,205.55141h-1.45117a1.27751,1.27751,0,0,1-1.416-1.416v-3.32373H429.751v-1.11182h1.24024v-1.896h1.3457v1.896h1.3457v1.11182h-1.3457v3.00781c0,.45605.11719.57324.57422.57324h.94726Z" fill="#224"/>
            <path d="M437.26268,205.6686a2.78246,2.78246,0,0,1-2.77441-3.043,2.75362,2.75362,0,0,1,2.751-3.043,2.53114,2.53114,0,0,1,2.59766,2.79688c0,.10546-.01172.4917-.02344.59716h-4.01367a1.57032,1.57032,0,0,0,1.47461,1.5918h.07031a1.09535,1.09535,0,0,0,1.13477-.81933h1.334A2.4155,2.4155,0,0,1,437.26268,205.6686Zm1.252-3.7334a1.21685,1.21685,0,0,0-1.26367-1.25244h-.082a1.31327,1.31327,0,0,0-1.334,1.25244Z" fill="#224"/>
            <path d="M440.9951,199.69985h1.32227v1.2168a1.6943,1.6943,0,0,1,1.69726-1.2754h.39747v1.26368h-.50293a1.44064,1.44064,0,0,0-1.56836,1.63867v3.00781H440.9951Z" fill="#224"/>
            <path d="M448.835,205.55141h-1.45118a1.27751,1.27751,0,0,1-1.416-1.416v-3.32373h-1.24024v-1.11182h1.24024v-1.896h1.3457v1.896h1.34571v1.11182h-1.34571v3.00781c0,.45605.11719.57324.57422.57324h.94727Z" fill="#224"/>
            <path d="M449.45311,202.62563a2.87825,2.87825,0,1,1,2.86816,3.043A2.84667,2.84667,0,0,1,449.45311,202.62563Zm4.38965,0c0-1.229-.59766-1.94287-1.46387-1.94287h-.10449c-.86621,0-1.47461.71387-1.47461,1.94287s.6084,1.94287,1.47461,1.94287h.10449C453.2451,204.5685,453.84276,203.85463,453.84276,202.62563Z" fill="#224"/>
            <path d="M461.4121,205.55141h-1.34571v-.95947a1.99444,1.99444,0,0,1-3.75683-1.1001v-3.792h1.3457v3.59277c0,.84278.35156,1.27588.99512,1.27588h.10547a1.49468,1.49468,0,0,0,1.31054-1.65039v-3.21826h1.34571Z" fill="#224"/>
            <path d="M462.93163,199.69985h1.32226v1.2168a1.69432,1.69432,0,0,1,1.69727-1.2754h.39746v1.26368h-.50293a1.44064,1.44064,0,0,0-1.56836,1.63867v3.00781h-1.3457Z" fill="#224"/>
            <path d="M467.23729,197.359h1.46289v1.45117h-1.46289Zm.04688,2.34082h1.3457v5.85156h-1.3457Z" fill="#224"/>
            <path d="M469.71776,203.66713h1.3584a1.01211,1.01211,0,0,0,1.123.93653h.09375c.52637,0,.91309-.25782.91309-.65576,0-.33936-.19922-.54981-.69043-.65528l-.7959-.17578c-1.1123-.25732-1.76758-.76025-1.76758-1.73193,0-1.1001.96-1.80225,2.29395-1.80225,1.5332,0,2.36426.78418,2.36426,2.00147h-1.34571a.94622.94622,0,0,0-.99511-.93653h-.10547c-.50293,0-.86621.28076-.86621.65528,0,.32763.24609.53857.77246.65576l.84277.19873c1.03028.23388,1.63867.749,1.63867,1.73193,0,1.01856-.87793,1.7793-2.36425,1.7793C470.61913,205.6686,469.7412,204.88442,469.71776,203.66713Z" fill="#224"/>
            <path d="M477.13573,205.55141H475.79v-5.85156h1.34571v.83057a2.03635,2.03635,0,0,1,1.75586-.94776,1.92851,1.92851,0,0,1,1.84863,1.04151,2.17225,2.17225,0,0,1,1.93164-1.04151,1.94753,1.94753,0,0,1,2.09473,2.17676v3.792h-1.34571v-3.58105c0-.7959-.30468-1.25244-1.03027-1.25244h-.082a1.44646,1.44646,0,0,0-1.35742,1.56835v3.26514h-1.34571v-3.58105c0-.7959-.30468-1.25244-1.03027-1.25244h-.082a1.44646,1.44646,0,0,0-1.35742,1.56835Z" fill="#224"/>
            <path d="M419.10155,216.35122v-.28711c0-3.00049,1.08008-5.06055,2.66406-5.98145H417.834v-.66357h4.60547v.79248c-1.74317,1.09912-2.66406,2.92138-2.66406,5.9414v.19825Z" fill="#224"/>
            <path d="M423.32811,212.8854c0-2.32764.9707-3.56543,2.625-3.56543,1.65332,0,2.624,1.23779,2.624,3.56543,0,2.32714-.9707,3.56494-2.624,3.56494C424.29881,216.45034,423.32811,215.21254,423.32811,212.8854Zm2.67383,2.92138c.832,0,1.90137-.624,1.90137-2.92138,0-2.29786-1.06934-2.92139-1.90137-2.92139h-.09863c-.832,0-1.90137.62353-1.90137,2.92139,0,2.29736,1.06933,2.92138,1.90137,2.92138Z" fill="#224"/>
            <path d="M429.74315,212.8854c0-2.32764.9707-3.56543,2.625-3.56543,1.65332,0,2.624,1.23779,2.624,3.56543,0,2.32714-.9707,3.56494-2.624,3.56494C430.71385,216.45034,429.74315,215.21254,429.74315,212.8854Zm2.67383,2.92138c.832,0,1.90137-.624,1.90137-2.92138,0-2.29786-1.06934-2.92139-1.90137-2.92139h-.09863c-.832,0-1.90137.62353-1.90137,2.92139,0,2.29736,1.06933,2.92138,1.90137,2.92138Z" fill="#224"/>
            <path d="M443.34667,213.87563a2.27757,2.27757,0,0,1-2.208,2.57471,1.94967,1.94967,0,0,1-1.6543-.89112v2.77246h-.64355v-6.93212h.64355v.79248a1.94854,1.94854,0,0,1,1.6543-.89112A2.27757,2.27757,0,0,1,443.34667,213.87563Zm-3.86231,0c0,1.06934.51563,2.02979,1.585,2.02979h.04981c1.05957,0,1.57422-.96045,1.57422-2.02979,0-1.06982-.51465-2.03027-1.57422-2.03027h-.04981C440,211.84536,439.48436,212.80581,439.48436,213.87563Z" fill="#224"/>
            <path d="M444.32518,213.87563a2.295,2.295,0,1,1,2.27734,2.57471A2.3594,2.3594,0,0,1,444.32518,213.87563Zm3.90137,0c0-1.26758-.68262-2.03027-1.57422-2.03027h-.09863c-.8916,0-1.5752.76269-1.5752,2.03027s.6836,2.02979,1.5752,2.02979h.09863C447.54393,215.90542,448.22655,215.14321,448.22655,213.87563Z" fill="#224"/>
            <path d="M449.77049,214.86586h.64356a1.15708,1.15708,0,0,0,1.27734,1.03956H451.79c.69336,0,1.11915-.3462,1.11915-.89112,0-.38623-.208-.624-.8711-.76269l-.72265-.14844c-.75293-.1582-1.34668-.50488-1.34668-1.34668,0-.94092.831-1.45557,1.77246-1.45557a1.66393,1.66393,0,0,1,1.86132,1.58448H452.959a1.15207,1.15207,0,0,0-1.16895-1.04h-.09863a.95217.95217,0,0,0-1.0791.90136c0,.35645.26758.604.90137.74268l.77148.16846c.70313.14843,1.25781.46533,1.26758,1.30713.01074.94043-.72266,1.48535-1.81152,1.48535C450.46385,216.45034,449.81932,215.777,449.77049,214.86586Z" fill="#224"/>
            <path d="M456.34471,215.80678h.99024v.54444h-1.08887c-.64356,0-.94141-.24756-.94141-.89112v-3.51562H454.166v-.54492h1.13867v-1.604h.64356v1.604h1.23828v.54492h-1.23828v3.46582C455.94823,215.70766,456.04784,215.80678,456.34471,215.80678Z" fill="#224"/>
            <path d="M457.94823,214.86586h.64355a1.15709,1.15709,0,0,0,1.27735,1.03956h.09863c.69336,0,1.11914-.3462,1.11914-.89112,0-.38623-.208-.624-.87109-.76269l-.72266-.14844c-.75293-.1582-1.34668-.50488-1.34668-1.34668,0-.94092.83105-1.45557,1.77246-1.45557a1.66394,1.66394,0,0,1,1.86133,1.58448h-.64356a1.15206,1.15206,0,0,0-1.16894-1.04h-.09863a.95218.95218,0,0,0-1.07911.90136c0,.35645.26758.604.90137.74268l.77149.16846c.70312.14843,1.25781.46533,1.26757,1.30713.01075.94043-.72265,1.48535-1.81152,1.48535C458.64159,216.45034,457.99706,215.777,457.94823,214.86586Z" fill="#224"/>
          </g>
        </g>
      </g>
      <g id="BOX-WAR">
        <g id="RETT-WAR">
          <path d="M468.058,148.6108V182.342h-30.32V148.6108h30.32m3-3h-36.32V185.342h36.32V145.6108Z" fill="#c22eff"/>
        </g>
        <g id="LABEL-WAR">
          <rect x="434.73802" y="119.94006" width="74.13618" height="28.35" fill="#c22eff"/>
          <g>
            <path d="M442.49706,130.70864h-1.47461l-.4209,1.94287h-1.25293l.42187-1.94287h-1.20605v-1.20557h1.46289l.39844-1.896h-1.35742V126.402h1.61523l.4209-1.94287h1.25195l-.4209,1.94287h1.47461l.40918-1.94287h1.25293l-.41015,1.94287h1.19433v1.20508h-1.45117l-.39844,1.896h1.3457v1.20557H443.749l-.40918,1.94287h-1.252Zm.65527-3.10156h-1.47461l-.39746,1.896h1.47461Z" fill="#224"/>
            <path d="M450.8037,128.3561l-1.11231,4.29541h-1.50976l-1.79-5.85156h1.36914l1.21679,4.48242L450.07811,126.8h1.42774l1.1582,4.459,1.1709-4.459h1.334l-1.73242,5.85156h-1.498Z" fill="#224"/>
            <path d="M457.4951,132.7687a1.77539,1.77539,0,0,1-1.91992-1.72071c0-1.29882,1.06543-1.80224,2.13086-1.88427l1.5332-.12842v-.16406a1.00818,1.00818,0,0,0-1.06543-1.08838h-.07031a.97447.97447,0,0,0-1.06543.78418h-1.3457a2.21264,2.21264,0,0,1,2.44629-1.88428,2.152,2.152,0,0,1,2.42285,2.15332v2.52783a9.90693,9.90693,0,0,0,.05859,1.2876h-1.26465a7.05909,7.05909,0,0,1-.07031-.80762A2.05248,2.05248,0,0,1,457.4951,132.7687Zm.31543-1.1001a1.40224,1.40224,0,0,0,1.42871-1.2876v-.33935l-1.34668.11718c-.51464.04688-.99414.3042-.99414.80762a.74823.74823,0,0,0,.83106.70215Z" fill="#224"/>
            <path d="M462.03514,126.8h1.32227v1.21679a1.6943,1.6943,0,0,1,1.69726-1.27539h.39746V128.005h-.50293a1.44064,1.44064,0,0,0-1.56835,1.63868v3.00781h-1.34571Z" fill="#224"/>
            <path d="M469.875,132.65151h-1.45118a1.27752,1.27752,0,0,1-1.416-1.416v-3.32373h-1.24024V126.8h1.24024v-1.896h1.3457V126.8h1.3457v1.11181h-1.3457v3.00782c0,.45605.11719.57324.57422.57324h.94727Z" fill="#224"/>
            <path d="M470.49413,129.72573a2.87825,2.87825,0,1,1,2.86816,3.043A2.84667,2.84667,0,0,1,470.49413,129.72573Zm4.38964,0c0-1.229-.59765-1.94287-1.46386-1.94287h-.10449c-.86622,0-1.47461.71386-1.47461,1.94287s.60839,1.94287,1.47461,1.94287h.10449C474.28612,131.6686,474.88377,130.95473,474.88377,129.72573Z" fill="#224"/>
            <path d="M482.45311,132.65151h-1.3457V131.692a1.99448,1.99448,0,0,1-3.75684-1.10059V126.8h1.3457v3.59277c0,.84277.35157,1.27588.99512,1.27588h.10547a1.49468,1.49468,0,0,0,1.31055-1.65039V126.8h1.3457Z" fill="#224"/>
            <path d="M483.97264,126.8h1.32227v1.21679a1.6943,1.6943,0,0,1,1.69726-1.27539h.39746V128.005h-.50293a1.44064,1.44064,0,0,0-1.56835,1.63868v3.00781h-1.34571Z" fill="#224"/>
            <path d="M488.27928,124.45913h1.46289v1.45117h-1.46289Zm.04688,2.34082h1.3457v5.85156h-1.3457Z" fill="#224"/>
            <path d="M490.75877,130.76723h1.3584a1.01212,1.01212,0,0,0,1.12305.93652h.09375c.52637,0,.91309-.25781.91309-.65576,0-.33935-.19922-.5498-.69043-.65527l-.7959-.17529c-1.11231-.25782-1.76758-.76075-1.76758-1.73243,0-1.10009.96-1.80224,2.29395-1.80224,1.5332,0,2.36425.78418,2.36425,2.00146h-1.3457a.94623.94623,0,0,0-.99512-.93652h-.10547c-.50293,0-.86621.28076-.86621.65527,0,.32764.2461.53858.77246.65577l.84278.19873c1.03027.23388,1.63867.749,1.63867,1.73193,0,1.01855-.87793,1.7793-2.36426,1.7793C491.66014,132.7687,490.78221,131.98452,490.75877,130.76723Z" fill="#224"/>
            <path d="M498.17674,132.65151H496.831V126.8h1.3457v.83056a2.03635,2.03635,0,0,1,1.75586-.94775,1.92851,1.92851,0,0,1,1.84864,1.0415,2.17226,2.17226,0,0,1,1.93164-1.0415,1.94752,1.94752,0,0,1,2.09472,2.17676v3.792h-1.3457v-3.58106c0-.79589-.30469-1.25244-1.03027-1.25244h-.082a1.44648,1.44648,0,0,0-1.35743,1.56836v3.26514h-1.3457v-3.58106c0-.79589-.30469-1.25244-1.03027-1.25244h-.082a1.44648,1.44648,0,0,0-1.35743,1.56836Z" fill="#224"/>
            <path d="M452.666,143.55043c-1.60449,0-2.52539-1.29736-2.52539-3.38671,0-2.2085,1.13867-3.74366,2.74316-3.74366a2.05432,2.05432,0,0,1,2.16895,1.7334h-.67383a1.45948,1.45948,0,0,0-1.44531-1.08935H452.834c-1.1582,0-2.00977,1.24756-2.09961,3.07959a2.05538,2.05538,0,0,1,1.98145-1.24756,2.15246,2.15246,0,0,1,2.2373,2.23779A2.251,2.251,0,0,1,452.666,143.55043Zm-.05957-.64355h.09863a1.58814,1.58814,0,0,0,1.5752-1.68359,1.55906,1.55906,0,0,0-1.5752-1.6836h-.09863a1.68408,1.68408,0,0,0,0,3.36719Z" fill="#224"/>
            <path d="M456.1494,139.98549c0-2.32763.9707-3.56543,2.625-3.56543,1.65332,0,2.624,1.2378,2.624,3.56543,0,2.32715-.9707,3.56494-2.624,3.56494C457.1201,143.55043,456.1494,142.31264,456.1494,139.98549Zm2.67383,2.92139c.832,0,1.90137-.624,1.90137-2.92139,0-2.29785-1.06934-2.92138-1.90137-2.92138h-.09863c-.832,0-1.90137.62353-1.90137,2.92138,0,2.29737,1.06933,2.92139,1.90137,2.92139Z" fill="#224"/>
            <path d="M462.56444,139.98549c0-2.32763.9707-3.56543,2.625-3.56543,1.65332,0,2.624,1.2378,2.624,3.56543,0,2.32715-.9707,3.56494-2.624,3.56494C463.53514,143.55043,462.56444,142.31264,462.56444,139.98549Zm2.67383,2.92139c.832,0,1.90136-.624,1.90136-2.92139,0-2.29785-1.06933-2.92138-1.90136-2.92138h-.09864c-.832,0-1.90136.62353-1.90136,2.92138,0,2.29737,1.06933,2.92139,1.90136,2.92139Z" fill="#224"/>
            <path d="M476.168,140.97573a2.27756,2.27756,0,0,1-2.208,2.5747,1.949,1.949,0,0,1-1.6543-.8916v2.773h-.64355v-6.93213h.64355v.79248a1.94855,1.94855,0,0,1,1.6543-.89111A2.27756,2.27756,0,0,1,476.168,140.97573Zm-3.8623,0c0,1.06933.51562,2.02978,1.585,2.02978h.04981c1.05957,0,1.57421-.96045,1.57421-2.02978,0-1.06983-.51464-2.03028-1.57421-2.03028h-.04981C472.82127,138.94545,472.30565,139.9059,472.30565,140.97573Z" fill="#224"/>
            <path d="M477.14647,140.97573a2.29494,2.29494,0,1,1,2.27734,2.5747A2.3594,2.3594,0,0,1,477.14647,140.97573Zm3.90137,0c0-1.26758-.68262-2.03028-1.57422-2.03028H479.375c-.89161,0-1.5752.7627-1.5752,2.03028s.68359,2.02978,1.5752,2.02978h.09863C480.36522,143.00551,481.04784,142.24331,481.04784,140.97573Z" fill="#224"/>
            <path d="M482.59178,141.966h.64356a1.15707,1.15707,0,0,0,1.27734,1.03955h.09863c.69336,0,1.11914-.34668,1.11914-.89111,0-.38623-.208-.624-.87109-.7627l-.72266-.14843c-.75293-.15821-1.34668-.50489-1.34668-1.34668,0-.94092.83106-1.45557,1.77247-1.45557a1.6642,1.6642,0,0,1,1.86132,1.58447h-.64355a1.15208,1.15208,0,0,0-1.16895-1.04h-.09863a.95218.95218,0,0,0-1.0791.90137c0,.35645.26758.604.90137.74268l.77148.168c.70313.14892,1.25781.46582,1.26758,1.30761.01074.94043-.72266,1.48535-1.81152,1.48535C483.28514,143.55043,482.64061,142.87709,482.59178,141.966Z" fill="#224"/>
            <path d="M489.166,142.90688h.99024v.54443h-1.08887c-.64453,0-.94141-.24756-.94141-.89111v-3.51562h-1.13867v-.54493H488.126v-1.604h.64356v1.604h1.23828v.54493h-1.23828v3.46582C488.76952,142.80776,488.86913,142.90688,489.166,142.90688Z" fill="#224"/>
            <path d="M490.76952,141.966h.64355a1.15708,1.15708,0,0,0,1.27735,1.03955h.09863c.69336,0,1.11914-.34668,1.11914-.89111,0-.38623-.208-.624-.87109-.7627l-.72266-.14843c-.75293-.15821-1.34668-.50489-1.34668-1.34668,0-.94092.83105-1.45557,1.77246-1.45557a1.66421,1.66421,0,0,1,1.86133,1.58447H493.958a1.15207,1.15207,0,0,0-1.16894-1.04h-.09863a.95219.95219,0,0,0-1.07911.90137c0,.35645.26758.604.90137.74268l.77149.168c.70312.14892,1.25781.46582,1.26757,1.30761.01075.94043-.72265,1.48535-1.81152,1.48535C491.46288,143.55043,490.81835,142.87709,490.76952,141.966Z" fill="#224"/>
          </g>
        </g>
      </g>
    </g>
    <g id="Box-cultural">
      <g id="BOX-CULTURAL-2" data-name="BOX-CULTURAL">
        <g id="RETT-CULTURAL">
          <path d="M269.87413,43.742v85.95H143.42418v26.1H13.15135V43.742H269.87413m3-3H10.15135v118.05H146.42418v-26.1H272.87413V40.742Z" fill="#967df4"/>
        </g>
        <g id="LABEL-CULTURAL">
          <rect id="RETT-CULTURAL-2" data-name="RETT-CULTURAL" x="10.15135" y="15.07126" width="99.49266" height="28.35" fill="#967df4"/>
          <g>
            <path d="M19.2578,24.88H17.78319l-.4209,1.94288H16.10936L16.53124,24.88H15.32518V23.67446h1.46289l.39844-1.896H15.82909V20.57338h1.61523l.4209-1.94287h1.252l-.4209,1.94287h1.47461l.40918-1.94287H21.833l-.41015,1.94287h1.19433v1.20508H21.166l-.39844,1.896h1.34571V24.88H20.50975l-.40918,1.94288h-1.252Zm.65527-3.10156H18.43846l-.39746,1.896h1.47461Z" fill="#224"/>
            <path d="M28.89842,24.82143a2.25673,2.25673,0,0,1-2.52734,2.11865,2.78313,2.78313,0,0,1-2.80957-3.043,2.78313,2.78313,0,0,1,2.80957-3.043,2.25668,2.25668,0,0,1,2.52734,2.11816h-1.3457a1.10184,1.10184,0,0,0-1.14648-1.01807h-.082c-.98339,0-1.416.90137-1.416,1.94287S25.34081,25.84,26.3242,25.84h.082a1.10189,1.10189,0,0,0,1.14648-1.01856Z" fill="#224"/>
            <path d="M35.19335,26.8229H33.84764v-.95948a1.99444,1.99444,0,0,1-3.75683-1.10009v-3.792h1.3457v3.59278c0,.84277.35156,1.27588.99512,1.27588h.10547a1.49468,1.49468,0,0,0,1.31054-1.6504V20.97133h1.34571Z" fill="#224"/>
            <path d="M36.83006,18.63051h1.34571V26.8229H36.83006Z" fill="#224"/>
            <path d="M43.30077,26.8229H41.8496a1.27752,1.27752,0,0,1-1.416-1.416V22.08315H39.19335V20.97133h1.24023v-1.896h1.3457v1.896H43.125v1.11182H41.77928V25.091c0,.45606.11719.57324.57422.57324h.94727Z" fill="#224"/>
            <path d="M49.49022,26.8229h-1.3457v-.95948a1.99445,1.99445,0,0,1-3.75684-1.10009v-3.792h1.3457v3.59278c0,.84277.35157,1.27588.99512,1.27588H46.834a1.49468,1.49468,0,0,0,1.31055-1.6504V20.97133h1.3457Z" fill="#224"/>
            <path d="M51.12694,20.97133H52.4492v1.2168a1.69431,1.69431,0,0,1,1.69727-1.27539h.39746v1.26367H54.041a1.44064,1.44064,0,0,0-1.56836,1.63867V26.8229h-1.3457Z" fill="#224"/>
            <path d="M57.03612,26.94008a1.77539,1.77539,0,0,1-1.91992-1.7207c0-1.29883,1.06543-1.80225,2.13086-1.88428l1.5332-.12842v-.16406a1.00819,1.00819,0,0,0-1.06543-1.08838h-.07031a.97447.97447,0,0,0-1.06543.78418H55.23338a2.21264,2.21264,0,0,1,2.44629-1.88427,2.152,2.152,0,0,1,2.42285,2.15332V25.5353a9.909,9.909,0,0,0,.0586,1.2876H58.89647a7.05909,7.05909,0,0,1-.07031-.80762A2.05249,2.05249,0,0,1,57.03612,26.94008ZM57.35155,25.84a1.40225,1.40225,0,0,0,1.42871-1.2876V24.213l-1.34668.11719c-.51465.04687-.99414.3042-.99414.80713a.74828.74828,0,0,0,.83105.70264Z" fill="#224"/>
            <path d="M61.69237,18.63051h1.3457V26.8229h-1.3457Z" fill="#224"/>
            <path d="M68.16307,26.8229H66.7119a1.27752,1.27752,0,0,1-1.416-1.416V22.08315H64.05565V20.97133h1.24023v-1.896h1.34571v1.896h1.3457v1.11182h-1.3457V25.091c0,.45606.11718.57324.57422.57324h.94726Z" fill="#224"/>
            <path d="M68.8994,23.89711a2.87825,2.87825,0,1,1,5.74707,0,2.87825,2.87825,0,1,1-5.74707,0Zm4.38965,0c0-1.229-.59766-1.94287-1.46387-1.94287h-.10449c-.86621,0-1.47461.71387-1.47461,1.94287S70.85448,25.84,71.72069,25.84h.10449C72.69139,25.84,73.28905,25.12612,73.28905,23.89711Z" fill="#224"/>
            <path d="M80.97557,26.8229h-1.3457v-.95948A1.99445,1.99445,0,0,1,75.873,24.76333v-3.792h1.34571v3.59278c0,.84277.35156,1.27588.99511,1.27588h.10547a1.49468,1.49468,0,0,0,1.31055-1.6504V20.97133h1.3457Z" fill="#224"/>
            <path d="M82.61229,20.97133h1.32227v1.2168a1.6943,1.6943,0,0,1,1.69726-1.27539h.39746v1.26367h-.50293A1.44064,1.44064,0,0,0,83.958,23.81508V26.8229h-1.3457Z" fill="#224"/>
            <path d="M87.03514,18.63051H88.498v1.45117H87.03514Zm.04688,2.34082h1.3457V26.8229H87.082Z" fill="#224"/>
            <path d="M89.63182,24.93862h1.3584a1.01212,1.01212,0,0,0,1.12305.93652H92.207c.52636,0,.91308-.25781.91308-.65576,0-.33936-.19922-.5498-.69043-.65527l-.7959-.17578c-1.1123-.25733-1.76757-.76026-1.76757-1.73194,0-1.1001.96-1.80224,2.29394-1.80224,1.53321,0,2.36426.78418,2.36426,2.00146H93.1787a.94623.94623,0,0,0-.99512-.93652h-.10547c-.50293,0-.86621.28076-.86621.65527,0,.32764.24609.53857.77246.65576l.84277.19873c1.03028.23389,1.63868.749,1.63868,1.73194,0,1.01855-.87793,1.77929-2.36426,1.77929C90.53319,26.94008,89.65526,26.1559,89.63182,24.93862Z" fill="#224"/>
            <path d="M97.167,26.8229H95.82127V20.97133H97.167v.83057a2.03634,2.03634,0,0,1,1.75586-.94775,1.92851,1.92851,0,0,1,1.84863,1.0415,2.17226,2.17226,0,0,1,1.93164-1.0415,1.94752,1.94752,0,0,1,2.09473,2.17675v3.792h-1.34571V23.24184c0-.7959-.30468-1.25244-1.03027-1.25244h-.082a1.44647,1.44647,0,0,0-1.35742,1.56836V26.8229H99.6367V23.24184c0-.7959-.30468-1.25244-1.03027-1.25244h-.082A1.44647,1.44647,0,0,0,97.167,23.55776Z" fill="#224"/>
            <path d="M37.67284,36.74038h.67383a1.49111,1.49111,0,0,0,1.624,1.23828h.09961a1.56289,1.56289,0,0,0,1.60351-1.63428,1.43984,1.43984,0,0,0-1.49511-1.51514h-.09864a1.82531,1.82531,0,0,0-1.48535.79248h-.66406l.832-4.03076h3.51563v.66358H39.31737l-.53516,2.47558a2.13959,2.13959,0,0,1,3.56543,1.56494,2.26425,2.26425,0,0,1-2.32715,2.32715A2.1233,2.1233,0,0,1,37.67284,36.74038Z" fill="#224"/>
            <path d="M43.40526,38.52309v-.69336l2.7832-2.82226c.78223-.792.93067-1.06934.93067-1.604a1.32807,1.32807,0,0,0-1.39649-1.26758H45.624a1.39764,1.39764,0,0,0-1.47559,1.4751H43.4746a2.05963,2.05963,0,0,1,2.17871-2.11914A1.95078,1.95078,0,0,1,47.792,33.40346a2.61451,2.61451,0,0,1-1.01953,1.9209L44.2871,37.85952h3.60449v.66357Z" fill="#224"/>
            <path d="M48.7617,39.66176v-.396h.29688a.52553.52553,0,0,0,.59473-.59424v-.14844h-.54493v-.99023h.99024v1.18847a.85518.85518,0,0,1-.94043.94043Z" fill="#224"/>
            <path d="M51.17674,36.74038h.67383a1.49113,1.49113,0,0,0,1.624,1.23828h.0996a1.56289,1.56289,0,0,0,1.60352-1.63428,1.43984,1.43984,0,0,0-1.49512-1.51514H53.584a1.82531,1.82531,0,0,0-1.48535.79248h-.66406l.832-4.03076h3.51562v.66358H52.82127l-.53515,2.47558a2.13959,2.13959,0,0,1,3.56543,1.56494,2.26425,2.26425,0,0,1-2.32715,2.32715A2.12331,2.12331,0,0,1,51.17674,36.74038Z" fill="#224"/>
            <path d="M64.17674,36.0475a2.27756,2.27756,0,0,1-2.208,2.57471,1.94969,1.94969,0,0,1-1.6543-.89111v2.77246h-.64356V33.57143h.64356v.79248a1.94855,1.94855,0,0,1,1.6543-.89111A2.27756,2.27756,0,0,1,64.17674,36.0475Zm-3.8623,0c0,1.06934.51562,2.02979,1.585,2.02979h.0498c1.05957,0,1.57422-.96045,1.57422-2.02979,0-1.06982-.51465-2.03027-1.57422-2.03027h-.0498C60.83006,34.01723,60.31444,34.97768,60.31444,36.0475Z" fill="#224"/>
            <path d="M65.15526,36.0475a2.29494,2.29494,0,1,1,4.55566,0,2.29495,2.29495,0,1,1-4.55566,0Zm3.90137,0c0-1.26757-.68262-2.03027-1.57422-2.03027h-.09864c-.8916,0-1.57519.7627-1.57519,2.03027s.68359,2.02979,1.57519,2.02979h.09864C68.374,38.07729,69.05663,37.31508,69.05663,36.0475Z" fill="#224"/>
            <path d="M70.60057,37.03774h.64356a1.15708,1.15708,0,0,0,1.27734,1.03955h.09863c.69336,0,1.11914-.34619,1.11914-.89111,0-.38623-.208-.624-.87109-.7627l-.72266-.14844c-.75293-.1582-1.34668-.50488-1.34668-1.34668,0-.94091.83106-1.45556,1.77246-1.45556a1.66393,1.66393,0,0,1,1.86133,1.58447h-.64355a1.15208,1.15208,0,0,0-1.169-1.04h-.09863a.95218.95218,0,0,0-1.0791.90137c0,.35644.26758.604.90137.74267l.77148.16846c.70313.14844,1.25781.46533,1.26758,1.30713.01074.94043-.72266,1.48535-1.81153,1.48535C71.29393,38.62221,70.6494,37.94887,70.60057,37.03774Z" fill="#224"/>
            <path d="M77.17479,37.97866H78.165v.54443H77.07616c-.64356,0-.94141-.24756-.94141-.89111V34.11635H74.99608v-.54492h1.13867v-1.604h.64356v1.604h1.23828v.54492H76.77831v3.46582C76.77831,37.87954,76.87792,37.97866,77.17479,37.97866Z" fill="#224"/>
            <path d="M78.77831,37.03774h.64355a1.15708,1.15708,0,0,0,1.27734,1.03955h.09864c.69336,0,1.11914-.34619,1.11914-.89111,0-.38623-.208-.624-.8711-.7627l-.72265-.14844c-.75293-.1582-1.34668-.50488-1.34668-1.34668,0-.94091.831-1.45556,1.77246-1.45556a1.66394,1.66394,0,0,1,1.86133,1.58447h-.64356a1.15207,1.15207,0,0,0-1.16894-1.04H80.6992a.95218.95218,0,0,0-1.0791.90137c0,.35644.26758.604.90137.74267l.77148.16846c.70313.14844,1.25782.46533,1.26758,1.30713.01074.94043-.72265,1.48535-1.81152,1.48535C79.47167,38.62221,78.82713,37.94887,78.77831,37.03774Z" fill="#224"/>
          </g>
        </g>
      </g>
      <g id="BOX-LITERARY">
        <g id="LABEL-LITERARY">
          <rect x="86.42406" y="277.44006" width="100.62001" height="28.35" fill="#967df4"/>
        </g>
      </g>
      <g id="BOX-MUSIC">
        <g id="RETT-MUSIC">
          <path d="M215.1162,233.50762v34.63119H134.29613V233.50762H215.1162m3-3H131.29613v40.63119H218.1162V230.50762Z" fill="#967df4"/>
        </g>
        <g id="LABEL-MUSIC">
          <rect x="131.29613" y="204.83689" width="88.02001" height="28.35" fill="#967df4"/>
          <g>
            <path d="M139.41112,215.60512h-1.47461l-.4209,1.94287h-1.25293l.42188-1.94287H135.4785v-1.20556h1.46289l.39844-1.896h-1.35742v-1.20508h1.61523l.4209-1.94287h1.25195l-.42089,1.94287h1.4746l.40918-1.94287h1.25293l-.41015,1.94287h1.19433v1.20508h-1.45117l-.39844,1.896h1.34571v1.20556h-1.60352l-.40918,1.94287h-1.252Zm.65527-3.10156h-1.47461l-.39746,1.896h1.47461Z" fill="#224"/>
            <path d="M145.28319,217.548h-1.3457v-5.85156h1.3457v.83057a2.03635,2.03635,0,0,1,1.75586-.94776,1.92851,1.92851,0,0,1,1.84863,1.04151,2.17226,2.17226,0,0,1,1.93164-1.04151,1.94753,1.94753,0,0,1,2.09473,2.17676v3.792h-1.3457v-3.58105c0-.7959-.30469-1.25244-1.03028-1.25244h-.082a1.44646,1.44646,0,0,0-1.35742,1.56836V217.548h-1.3457v-3.58105c0-.7959-.30469-1.25244-1.03028-1.25244h-.082a1.44646,1.44646,0,0,0-1.35742,1.56836Z" fill="#224"/>
            <path d="M159.418,217.548h-1.3457v-.95947a1.99447,1.99447,0,0,1-3.75683-1.10059v-3.7915h1.3457v3.59277c0,.84278.35156,1.27588.99512,1.27588h.10546a1.49467,1.49467,0,0,0,1.31055-1.65039v-3.21826h1.3457Z" fill="#224"/>
            <path d="M160.50487,215.66372h1.3584a1.01211,1.01211,0,0,0,1.123.93652h.09375c.52637,0,.91309-.25781.91309-.65576,0-.33936-.19922-.54981-.69043-.65528l-.7959-.17529c-1.1123-.25781-1.76758-.76074-1.76758-1.73242,0-1.1001.96-1.80225,2.29395-1.80225,1.5332,0,2.36426.78418,2.36426,2.00147h-1.34571a.94623.94623,0,0,0-.99511-.93653h-.10547c-.50293,0-.86621.28077-.86621.65528,0,.32763.24609.53857.77246.65576l.84277.19873c1.03027.23389,1.63867.749,1.63867,1.73193,0,1.01856-.87793,1.7793-2.36425,1.7793C161.40624,217.66518,160.52831,216.881,160.50487,215.66372Z" fill="#224"/>
            <path d="M166.53026,209.35561h1.46289v1.45117h-1.46289Zm.04687,2.34082h1.34571V217.548h-1.34571Z" fill="#224"/>
            <path d="M174.44042,215.54653a2.25675,2.25675,0,0,1-2.52735,2.11865,3.05266,3.05266,0,0,1,0-6.08594,2.2567,2.2567,0,0,1,2.52735,2.11817h-1.34571a1.10184,1.10184,0,0,0-1.14648-1.01807h-.082c-.9834,0-1.416.90137-1.416,1.94287s.43262,1.94287,1.416,1.94287h.082a1.10188,1.10188,0,0,0,1.14648-1.01855Z" fill="#224"/>
            <path d="M179.06151,217.548h-1.45117a1.27751,1.27751,0,0,1-1.416-1.416v-3.32373h-1.24023v-1.11182h1.24023v-1.896H177.54v1.896h1.34571v1.11182H177.54v3.00781c0,.45605.11719.57324.57422.57324h.94727Z" fill="#224"/>
            <path d="M179.67967,214.62221a2.87825,2.87825,0,1,1,2.86817,3.043A2.84667,2.84667,0,0,1,179.67967,214.62221Zm4.38965,0c0-1.229-.59765-1.94287-1.46387-1.94287H182.501c-.86621,0-1.47461.71387-1.47461,1.94287s.6084,1.94287,1.47461,1.94287h.10449C183.47167,216.56508,184.06932,215.85122,184.06932,214.62221Z" fill="#224"/>
            <path d="M191.63963,217.548h-1.3457v-.95947a1.99447,1.99447,0,0,1-3.75683-1.10059v-3.7915h1.3457v3.59277c0,.84278.35156,1.27588.99512,1.27588h.10546a1.49467,1.49467,0,0,0,1.31055-1.65039v-3.21826h1.3457Z" fill="#224"/>
            <path d="M193.15917,211.69643h1.32226v1.2168a1.69431,1.69431,0,0,1,1.69727-1.27539h.39746v1.26367h-.50293a1.44064,1.44064,0,0,0-1.56836,1.63867V217.548h-1.3457Z" fill="#224"/>
            <path d="M197.46483,209.35561h1.46289v1.45117h-1.46289Zm.04687,2.34082h1.34571V217.548H197.5117Z" fill="#224"/>
            <path d="M199.94432,215.66372h1.3584a1.01212,1.01212,0,0,0,1.12305.93652h.09375c.52636,0,.91308-.25781.91308-.65576,0-.33936-.19922-.54981-.69043-.65528l-.7959-.17529c-1.1123-.25781-1.76757-.76074-1.76757-1.73242,0-1.1001.96-1.80225,2.29394-1.80225,1.53321,0,2.36426.78418,2.36426,2.00147h-1.3457a.94624.94624,0,0,0-.99512-.93653h-.10547c-.50293,0-.86621.28077-.86621.65528,0,.32763.24609.53857.77246.65576l.84277.19873c1.03028.23389,1.63868.749,1.63868,1.73193,0,1.01856-.87793,1.7793-2.36426,1.7793C200.84569,217.66518,199.96776,216.881,199.94432,215.66372Z" fill="#224"/>
            <path d="M207.36229,217.548h-1.3457v-5.85156h1.3457v.83057a2.03635,2.03635,0,0,1,1.75586-.94776,1.92851,1.92851,0,0,1,1.84863,1.04151,2.17227,2.17227,0,0,1,1.93164-1.04151,1.94752,1.94752,0,0,1,2.09473,2.17676v3.792h-1.3457v-3.58105c0-.7959-.30469-1.25244-1.03028-1.25244h-.082a1.44646,1.44646,0,0,0-1.35742,1.56836V217.548H209.832v-3.58105c0-.7959-.30469-1.25244-1.03028-1.25244h-.082a1.44647,1.44647,0,0,0-1.35742,1.56836Z" fill="#224"/>
            <path d="M156.26561,228.3478V226.674h-3.45605v-.73242l3.34668-4.52588h.75293v4.63476h1.13867v.62354h-1.13867v1.67383Zm0-6.13965-2.82226,3.84228h2.82226Z" fill="#224"/>
            <path d="M158.71,229.48647v-.396h.29687a.52551.52551,0,0,0,.59473-.59423v-.14844h-.54492v-.99024h.99023V228.546a.855.855,0,0,1-.94043.94043Z" fill="#224"/>
            <path d="M161.125,226.56508h.67382a1.49113,1.49113,0,0,0,1.624,1.23828h.09961a1.56288,1.56288,0,0,0,1.60351-1.63427,1.43983,1.43983,0,0,0-1.49511-1.51514h-.09864a1.82531,1.82531,0,0,0-1.48535.79248h-.66406l.832-4.03076h3.51562v.66357h-2.96093l-.53516,2.47559a2.13959,2.13959,0,0,1,3.56543,1.56494,2.26425,2.26425,0,0,1-2.32715,2.32715A2.12331,2.12331,0,0,1,161.125,226.56508Z" fill="#224"/>
            <path d="M168.78905,225.81264l-1.001.95069v1.58447h-.64355v-6.93213h.64355v4.54541l2.63477-2.56494h.88086l-2.05957,1.9707,2.15918,2.981h-.80274Z" fill="#224"/>
            <path d="M179.31249,225.87221a2.27757,2.27757,0,0,1-2.208,2.57471,1.949,1.949,0,0,1-1.6543-.8916v2.773h-.64355v-6.93213h.64355v.79248a1.94856,1.94856,0,0,1,1.6543-.89112A2.27757,2.27757,0,0,1,179.31249,225.87221Zm-3.86231,0c0,1.06934.51563,2.02979,1.585,2.02979h.04981c1.05957,0,1.57422-.96045,1.57422-2.02979,0-1.06982-.51465-2.03027-1.57422-2.03027h-.04981C175.96581,223.84194,175.45018,224.80239,175.45018,225.87221Z" fill="#224"/>
            <path d="M180.291,225.87221a2.295,2.295,0,1,1,2.27735,2.57471A2.35941,2.35941,0,0,1,180.291,225.87221Zm3.90137,0c0-1.26758-.68262-2.03027-1.57422-2.03027h-.09863c-.8916,0-1.5752.76269-1.5752,2.03027s.6836,2.02979,1.5752,2.02979h.09863C183.50975,227.902,184.19237,227.13979,184.19237,225.87221Z" fill="#224"/>
            <path d="M185.73631,226.86245h.64356a1.15708,1.15708,0,0,0,1.27734,1.03955h.09864c.69335,0,1.11914-.34668,1.11914-.89112,0-.38623-.208-.624-.8711-.76269l-.72265-.14844c-.75293-.1582-1.34668-.50488-1.34668-1.34668,0-.94092.83105-1.45557,1.77246-1.45557a1.66422,1.66422,0,0,1,1.86133,1.58448h-.64356a1.15208,1.15208,0,0,0-1.16894-1.04h-.09864a.95217.95217,0,0,0-1.0791.90137c0,.35644.26758.604.90137.74267l.77148.168c.70313.14893,1.25781.46582,1.26758,1.30762.01074.94043-.72266,1.48535-1.81152,1.48535C186.42967,228.44692,185.78514,227.77358,185.73631,226.86245Z" fill="#224"/>
            <path d="M192.31053,227.80336h.99024v.54444H192.2119c-.64453,0-.94141-.24756-.94141-.89112v-3.51562h-1.13867v-.54492h1.13867v-1.604h.64356v1.604h1.23828v.54492h-1.23828v3.46582C191.91405,227.70424,192.01366,227.80336,192.31053,227.80336Z" fill="#224"/>
            <path d="M193.91405,226.86245h.64355A1.15709,1.15709,0,0,0,195.835,227.902h.09863c.69336,0,1.11914-.34668,1.11914-.89112,0-.38623-.208-.624-.87109-.76269l-.72266-.14844c-.75293-.1582-1.34668-.50488-1.34668-1.34668,0-.94092.83106-1.45557,1.77246-1.45557a1.66422,1.66422,0,0,1,1.86133,1.58448h-.64356a1.15207,1.15207,0,0,0-1.16894-1.04H195.835a.95217.95217,0,0,0-1.0791.90137c0,.35644.26757.604.90136.74267l.77149.168c.70312.14893,1.25781.46582,1.26757,1.30762.01075.94043-.72265,1.48535-1.81152,1.48535C194.60741,228.44692,193.96288,227.77358,193.91405,226.86245Z" fill="#224"/>
          </g>
        </g>
      </g>
      <g id="BOX-BOOKSTORE">
        <g id="RETT-BOOKSTORE">
          <path d="M120.02416,197.21079V231.842H89.42406V197.21079h30.6001m3-3H86.42406V234.842h36.6001V194.21079Z" fill="#967df4"/>
        </g>
        <g id="LABEL-BOOKSTORE">
          <rect x="86.42406" y="168.54006" width="108.72001" height="28.35" fill="#967df4"/>
          <g>
            <path d="M94.23631,179.30825H92.7617l-.42089,1.94287H91.08788l.42187-1.94287h-1.206v-1.20557h1.46289l.39843-1.896H90.8076v-1.20507h1.61524l.4209-1.94287h1.252l-.4209,1.94287H95.1494l.40918-1.94287h1.25293l-.41016,1.94287h1.19434v1.20507H96.14452l-.39844,1.896h1.3457v1.20557H95.48827l-.40918,1.94287h-1.252Zm.65528-3.10157H93.417l-.39746,1.896h1.47461Z" fill="#224"/>
            <path d="M101.8994,181.36831a2.1481,2.1481,0,0,1-1.791-.90137v.78418h-1.3457v-8.19238h1.3457v3.125a2.0565,2.0565,0,0,1,1.74414-.90137c1.60352,0,2.60938,1.31055,2.60938,3.043C104.4619,180.05727,103.50292,181.36831,101.8994,181.36831Zm-.31641-1.1001h.09375c.81934,0,1.43946-.71387,1.43946-1.95459,0-1.229-.62012-1.93115-1.43946-1.93115H101.583c-.76074,0-1.47461.70214-1.47461,1.94287S100.82225,180.26821,101.583,180.26821Z" fill="#224"/>
            <path d="M105.29,178.32534a2.87826,2.87826,0,1,1,2.86817,3.043A2.84667,2.84667,0,0,1,105.29,178.32534Zm4.38965,0c0-1.229-.59765-1.94287-1.46386-1.94287h-.1045c-.86621,0-1.47461.71386-1.47461,1.94287s.6084,1.94287,1.47461,1.94287h.1045C109.082,180.26821,109.67967,179.55434,109.67967,178.32534Z" fill="#224"/>
            <path d="M111.85448,178.32534a2.87825,2.87825,0,1,1,2.86816,3.043A2.84667,2.84667,0,0,1,111.85448,178.32534Zm4.38965,0c0-1.229-.59766-1.94287-1.46387-1.94287h-.10449c-.86621,0-1.47461.71386-1.47461,1.94287s.6084,1.94287,1.47461,1.94287h.10449C115.64647,180.26821,116.24413,179.55434,116.24413,178.32534Z" fill="#224"/>
            <path d="M120.85252,178.67641l-.7373.73731v1.8374h-1.3457v-8.19238h1.3457v4.68115l2.31738-2.34033h1.69727l-2.3291,2.32861,2.44629,3.52295h-1.61524Z" fill="#224"/>
            <path d="M124.3496,179.36684H125.708a1.01212,1.01212,0,0,0,1.12305.93652h.09375c.52637,0,.91309-.25781.91309-.65576,0-.33935-.19922-.5498-.69043-.65527l-.7959-.17529c-1.11231-.25782-1.76758-.76075-1.76758-1.73243,0-1.10009.96-1.80224,2.294-1.80224,1.5332,0,2.36425.78418,2.36425,2.00146h-1.3457a.94623.94623,0,0,0-.99512-.93652h-.10547c-.50293,0-.86621.28076-.86621.65527,0,.32764.2461.53858.77246.65576l.84278.19874c1.03027.23388,1.63867.749,1.63867,1.73193,0,1.01855-.87793,1.7793-2.36426,1.7793C125.251,181.36831,124.373,180.58413,124.3496,179.36684Z" fill="#224"/>
            <path d="M133.90917,181.25112H132.458a1.27752,1.27752,0,0,1-1.416-1.416v-3.32373h-1.24024v-1.11181H131.042v-1.896h1.3457v1.896h1.3457v1.11181h-1.3457v3.00781c0,.45606.11719.57325.57422.57325h.94727Z" fill="#224"/>
            <path d="M134.52831,178.32534a2.87825,2.87825,0,1,1,2.86816,3.043A2.84667,2.84667,0,0,1,134.52831,178.32534Zm4.38964,0c0-1.229-.59765-1.94287-1.46386-1.94287h-.10449c-.86622,0-1.47461.71386-1.47461,1.94287s.60839,1.94287,1.47461,1.94287h.10449C138.3203,180.26821,138.918,179.55434,138.918,178.32534Z" fill="#224"/>
            <path d="M141.44432,175.39956h1.32227v1.21679a1.6943,1.6943,0,0,1,1.69726-1.27539h.39746v1.26367h-.50293a1.44064,1.44064,0,0,0-1.56836,1.63868v3.00781h-1.3457Z" fill="#224"/>
            <path d="M148.06737,181.36831a2.78247,2.78247,0,0,1-2.77442-3.043,2.75362,2.75362,0,0,1,2.751-3.043,2.53114,2.53114,0,0,1,2.59766,2.79687c0,.10547-.01172.4917-.02344.59717h-4.01367a1.57032,1.57032,0,0,0,1.47461,1.5918h.07031a1.09583,1.09583,0,0,0,1.13477-.81934h1.334A2.41551,2.41551,0,0,1,148.06737,181.36831Zm1.25195-3.7334a1.21684,1.21684,0,0,0-1.26367-1.25244h-.082a1.31328,1.31328,0,0,0-1.334,1.25244Z" fill="#224"/>
            <path d="M155.19237,181.25112H153.7412a1.27752,1.27752,0,0,1-1.416-1.416v-3.32373H151.085v-1.11181h1.24023v-1.896h1.3457v1.896h1.34571v1.11181h-1.34571v3.00781c0,.45606.11719.57325.57422.57325h.94727Z" fill="#224"/>
            <path d="M155.81053,178.32534a2.87825,2.87825,0,1,1,2.86817,3.043A2.84667,2.84667,0,0,1,155.81053,178.32534Zm4.38965,0c0-1.229-.59766-1.94287-1.46387-1.94287h-.10449c-.86621,0-1.47461.71386-1.47461,1.94287s.6084,1.94287,1.47461,1.94287h.10449C159.60252,180.26821,160.20018,179.55434,160.20018,178.32534Z" fill="#224"/>
            <path d="M167.76952,181.25112h-1.34571v-.95947a1.99447,1.99447,0,0,1-3.75683-1.10059v-3.7915h1.3457v3.59277c0,.84277.35156,1.27588.99512,1.27588h.10547a1.49467,1.49467,0,0,0,1.31054-1.65039v-3.21826h1.34571Z" fill="#224"/>
            <path d="M169.28905,175.39956h1.32226v1.21679a1.69431,1.69431,0,0,1,1.69727-1.27539h.39746v1.26367h-.50293a1.44064,1.44064,0,0,0-1.56836,1.63868v3.00781h-1.3457Z" fill="#224"/>
            <path d="M173.59569,173.05874h1.46289v1.45117h-1.46289Zm.04687,2.34082h1.34571v5.85156h-1.34571Z" fill="#224"/>
            <path d="M176.07518,179.36684h1.3584a1.01212,1.01212,0,0,0,1.12305.93652h.09375c.52636,0,.91308-.25781.91308-.65576,0-.33935-.19922-.5498-.69043-.65527l-.7959-.17529c-1.1123-.25782-1.76757-.76075-1.76757-1.73243,0-1.10009.96-1.80224,2.29394-1.80224,1.5332,0,2.36426.78418,2.36426,2.00146h-1.3457a.94623.94623,0,0,0-.99512-.93652h-.10547c-.50293,0-.86621.28076-.86621.65527,0,.32764.24609.53858.77246.65576l.84277.19874c1.03028.23388,1.63868.749,1.63868,1.73193,0,1.01855-.87793,1.7793-2.36426,1.7793C176.97655,181.36831,176.09862,180.58413,176.07518,179.36684Z" fill="#224"/>
            <path d="M183.49315,181.25112h-1.3457v-5.85156h1.3457v.83056a2.03634,2.03634,0,0,1,1.75586-.94775,1.9285,1.9285,0,0,1,1.84863,1.0415,2.17227,2.17227,0,0,1,1.93164-1.0415,1.94752,1.94752,0,0,1,2.09473,2.17676v3.792h-1.3457v-3.58106c0-.79589-.30469-1.25244-1.03028-1.25244h-.082a1.44647,1.44647,0,0,0-1.35742,1.56836v3.26514h-1.3457v-3.58106c0-.79589-.30469-1.25244-1.03028-1.25244h-.082a1.44647,1.44647,0,0,0-1.35742,1.56836Z" fill="#224"/>
            <path d="M121.10936,192.05092V186.109l-1.67383,1.58447v-.812l1.8125-1.7627h.50489v6.93213Z" fill="#224"/>
            <path d="M123.06932,193.18959v-.396h.29688a.52551.52551,0,0,0,.59472-.59424v-.14844H123.416v-.99023h.99024v1.18848a.855.855,0,0,1-.94043.94042Z" fill="#224"/>
            <path d="M125.48436,190.26821h.67383a1.49112,1.49112,0,0,0,1.624,1.23828h.09961a1.56289,1.56289,0,0,0,1.60352-1.63428,1.43983,1.43983,0,0,0-1.49512-1.51513h-.09863a1.82526,1.82526,0,0,0-1.48535.79248h-.66407l.832-4.03077h3.51563v.66358h-2.96094l-.53515,2.47558a2.13959,2.13959,0,0,1,3.56543,1.565A2.26425,2.26425,0,0,1,127.832,192.15,2.1233,2.1233,0,0,1,125.48436,190.26821Z" fill="#224"/>
            <path d="M133.14842,189.51577l-1.001.95068v1.58447h-.64356v-6.93213h.64356v4.54541l2.63476-2.56494h.88086L133.6035,189.07l2.15918,2.98095H134.96Z" fill="#224"/>
            <path d="M143.67186,189.57534a2.27756,2.27756,0,0,1-2.208,2.5747,1.949,1.949,0,0,1-1.65429-.8916v2.77295H139.166v-6.93213h.64356v.79248a1.94855,1.94855,0,0,1,1.65429-.89111A2.27757,2.27757,0,0,1,143.67186,189.57534Zm-3.8623,0c0,1.06933.51562,2.02978,1.585,2.02978h.0498c1.05957,0,1.57422-.96045,1.57422-2.02978,0-1.06983-.51465-2.03028-1.57422-2.03028h-.0498C140.32518,187.54506,139.80956,188.50551,139.80956,189.57534Z" fill="#224"/>
            <path d="M144.65038,189.57534a2.29494,2.29494,0,1,1,2.27734,2.5747A2.3594,2.3594,0,0,1,144.65038,189.57534Zm3.90136,0c0-1.26758-.68261-2.03028-1.57422-2.03028h-.09863c-.8916,0-1.57519.7627-1.57519,2.03028s.68359,2.02978,1.57519,2.02978h.09863C147.86913,191.60512,148.55174,190.84292,148.55174,189.57534Z" fill="#224"/>
            <path d="M150.09569,190.56557h.64355a1.15708,1.15708,0,0,0,1.27735,1.03955h.09863c.69336,0,1.11914-.34668,1.11914-.89111,0-.38623-.208-.624-.87109-.7627l-.72266-.14843c-.75293-.15821-1.34668-.50489-1.34668-1.34668,0-.94092.83106-1.45557,1.77246-1.45557a1.66421,1.66421,0,0,1,1.86133,1.58447h-.64355a1.15208,1.15208,0,0,0-1.16895-1.04h-.09863a.95218.95218,0,0,0-1.0791.90137c0,.35645.26757.604.90136.74268l.77149.168c.70312.14892,1.25781.46582,1.26758,1.30761.01074.94043-.72266,1.48535-1.81153,1.48535C150.78905,192.15,150.14452,191.4767,150.09569,190.56557Z" fill="#224"/>
            <path d="M156.66991,191.50649h.99023v.54443h-1.08887c-.64453,0-.9414-.24756-.9414-.89111v-3.51563H154.4912v-.54492h1.13867v-1.604h.64355v1.604h1.23828v.54492h-1.23828V191.11C156.27342,191.40737,156.373,191.50649,156.66991,191.50649Z" fill="#224"/>
            <path d="M158.27342,190.56557h.64356a1.15707,1.15707,0,0,0,1.27734,1.03955h.09863c.69336,0,1.11915-.34668,1.11915-.89111,0-.38623-.208-.624-.8711-.7627l-.72265-.14843c-.75293-.15821-1.34668-.50489-1.34668-1.34668,0-.94092.83105-1.45557,1.77246-1.45557a1.6642,1.6642,0,0,1,1.86132,1.58447h-.64355a1.15208,1.15208,0,0,0-1.169-1.04h-.09863a.95218.95218,0,0,0-1.0791.90137c0,.35645.26758.604.90137.74268l.77148.168c.70313.14892,1.25781.46582,1.26758,1.30761.01074.94043-.72266,1.48535-1.81152,1.48535C158.96678,192.15,158.32225,191.4767,158.27342,190.56557Z" fill="#224"/>
          </g>
        </g>
      </g>
    </g>
  </g>
  <g id="SEZIONI">
    <g id="Finding03">
      <image width="1739" height="872" transform="translate(-1236.70021 49.15981)" xlink:href="SVG/palette%20giusta%3f/finding/Asset%202logo.png"/>
      <g opacity="0.8">
        <polygon points="605.3 992.16 -1332.7 992.16 -1332.7 -38.84 284.3 -38.84 284.3 265.962 605.3 270.1 605.3 992.16" fill="#224"/>
      </g>
    </g>
  </g>
</svg>
