<svg xmlns="http://www.w3.org/2000/svg" viewBox="0 0 913.75 1263"><defs><style>.cls-1,.cls-10,.cls-11,.cls-3,.cls-5,.cls-56,.cls-6,.cls-7,.cls-9{fill:none;}.cls-1{stroke:#224;}.cls-1,.cls-10,.cls-11,.cls-13,.cls-15,.cls-3,.cls-5,.cls-56,.cls-6,.cls-66,.cls-7,.cls-70,.cls-9,.cls-96{stroke-miterlimit:10;}.cls-2,.cls-28,.cls-53,.cls-61,.cls-65,.cls-71,.cls-90,.cls-97{fill:#224;}.cls-3{stroke:#383838;}.cls-4{fill:#383838;}.cls-5,.cls-6,.cls-7{stroke:#3829ff;}.cls-6{stroke-dasharray:12.4 12.4 12.4 12.4;}.cls-7{stroke-dasharray:12.4 12.4 12.4 12.4 12.4 12.4;}.cls-13,.cls-41,.cls-8{fill:#3829ff;}.cls-10,.cls-11,.cls-9{stroke:#2b2b2b;}.cls-10{stroke-dasharray:11.49 11.49 11.49 11.49;}.cls-11{stroke-dasharray:11.49 11.49 11.49 11.49 11.49 11.49;}.cls-12{fill:#2b2b2b;}.cls-13,.cls-15,.cls-66{stroke:#fff;}.cls-13,.cls-15{stroke-width:2px;}.cls-14{fill:#ef8532;}.cls-15,.cls-69{fill:#95e52e;}.cls-16,.cls-66{fill:#e21e6e;}.cls-17,.cls-61{font-size:24px;}.cls-17,.cls-70,.cls-96{fill:#fff;}.cls-17,.cls-28{font-family:Favorit-Medium, Favorit;font-weight:500;}.cls-18{letter-spacing:-0.09em;}.cls-19{letter-spacing:-0.01em;}.cls-20{letter-spacing:-0.02em;}.cls-21{letter-spacing:-0.03em;}.cls-22{letter-spacing:-0.12em;}.cls-23{letter-spacing:-0.01em;}.cls-24{letter-spacing:0em;}.cls-25{letter-spacing:-0.04em;}.cls-26{letter-spacing:-0.01em;}.cls-27{letter-spacing:0em;}.cls-28,.cls-41,.cls-53,.cls-57{font-size:15px;}.cls-29{letter-spacing:-0.01em;}.cls-30{letter-spacing:-0.02em;}.cls-31{letter-spacing:-0.03em;}.cls-32{letter-spacing:-0.12em;}.cls-33{letter-spacing:0em;}.cls-34{letter-spacing:-0.01em;}.cls-35{letter-spacing:-0.01em;}.cls-36{letter-spacing:-0.02em;}.cls-37{letter-spacing:-0.01em;}.cls-38{letter-spacing:-0.01em;}.cls-39{letter-spacing:0em;}.cls-40{letter-spacing:0em;}.cls-41,.cls-53{font-family:Favorit-RegularItalic, Favorit;font-style:italic;}.cls-42{letter-spacing:-0.02em;}.cls-43{letter-spacing:0em;}.cls-44{letter-spacing:-0.01em;}.cls-45{letter-spacing:-0.02em;}.cls-46{letter-spacing:-0.02em;}.cls-47{letter-spacing:-0.02em;}.cls-48{letter-spacing:-0.01em;}.cls-49{letter-spacing:-0.01em;}.cls-50{letter-spacing:-0.01em;}.cls-51{letter-spacing:-0.01em;}.cls-52{letter-spacing:0em;}.cls-54{letter-spacing:-0.01em;}.cls-55{letter-spacing:-0.02em;}.cls-56{stroke:#587ef9;}.cls-57{fill:#587ef9;}.cls-57,.cls-61{font-family:Favorit-Bold, Favorit;font-weight:700;}.cls-58{letter-spacing:-0.01em;}.cls-59{letter-spacing:0em;}.cls-60{letter-spacing:-0.02em;}.cls-62{letter-spacing:-0.01em;}.cls-63{letter-spacing:-0.02em;}.cls-64{letter-spacing:-0.01em;}.cls-65{font-size:17px;}.cls-65,.cls-71,.cls-90,.cls-97{font-family:Favorit-Regular, Favorit;}.cls-67{letter-spacing:-0.01em;}.cls-68{letter-spacing:-0.12em;}.cls-70{stroke:#e21e6e;}.cls-71,.cls-90{font-size:10px;}.cls-72{letter-spacing:-0.01em;}.cls-73{letter-spacing:-0.01em;}.cls-74{letter-spacing:-0.02em;}.cls-75{letter-spacing:-0.01em;}.cls-76{letter-spacing:-0.01em;}.cls-77{letter-spacing:-0.03em;}.cls-78{letter-spacing:-0.02em;}.cls-79{letter-spacing:-0.02em;}.cls-80{letter-spacing:0em;}.cls-81{letter-spacing:-0.02em;}.cls-82{letter-spacing:-0.02em;}.cls-83{letter-spacing:-0.01em;}.cls-84{letter-spacing:-0.03em;}.cls-85{letter-spacing:-0.01em;}.cls-86{letter-spacing:-0.01em;}.cls-87{letter-spacing:0em;}.cls-88{letter-spacing:-0.01em;}.cls-89{letter-spacing:-0.02em;}.cls-90{letter-spacing:-0.12em;}.cls-91{letter-spacing:-0.06em;}.cls-92{letter-spacing:-0.12em;}.cls-93{letter-spacing:-0.02em;}.cls-94{letter-spacing:-0.02em;}.cls-95{letter-spacing:-0.03em;}.cls-96{stroke:#95e52e;}.cls-97{font-size:14.39px;}.cls-98{letter-spacing:-0.02em;}.cls-99{letter-spacing:-0.09em;}.cls-100{letter-spacing:-0.01em;}.cls-101{letter-spacing:-0.02em;}.cls-102{letter-spacing:-0.02em;}.cls-103{letter-spacing:-0.01em;}.cls-104{letter-spacing:-0.02em;}.cls-105{letter-spacing:-0.01em;}.cls-106{letter-spacing:-0.02em;}.cls-107{letter-spacing:0em;}.cls-108{letter-spacing:-0.01em;}</style></defs><g id="Layer_2" data-name="Layer 2"><g id="P1_TypeOfTourism"><line class="cls-1" x1="432.84" y1="58.75" x2="432.84" y2="94.67"/><polygon class="cls-2" points="428.75 91.35 429.48 90.67 432.84 94.28 436.19 90.67 436.93 91.35 432.84 95.75 428.75 91.35"/><line class="cls-3" x1="432.84" y1="586.75" x2="432.84" y2="622.67"/><polygon class="cls-4" points="428.75 619.35 429.48 618.67 432.84 622.28 436.19 618.67 436.93 619.35 432.84 623.75 428.75 619.35"/><line class="cls-5" x1="508.84" y1="557" x2="513.84" y2="557"/><line class="cls-6" x1="526.24" y1="557" x2="569.64" y2="557"/><line class="cls-7" x1="575.84" y1="557" x2="644.05" y2="557"/><line class="cls-5" x1="650.25" y1="557" x2="655.25" y2="557"/><polygon class="cls-8" points="651.94 561.09 651.26 560.36 654.87 557 651.26 553.64 651.94 552.91 656.34 557 651.94 561.09"/><line class="cls-1" x1="432.84" y1="204.72" x2="432.84" y2="240.64"/><polygon class="cls-2" points="428.75 237.32 429.48 236.64 432.84 240.25 436.19 236.64 436.93 237.32 432.84 241.72 428.75 237.32"/><line class="cls-1" x1="432.84" y1="402.74" x2="432.84" y2="523.66"/><polygon class="cls-2" points="428.75 520.34 429.48 519.66 432.84 523.27 436.19 519.66 436.93 520.34 432.84 524.74 428.75 520.34"/><line class="cls-9" x1="518.84" y1="654" x2="523.84" y2="654"/><line class="cls-10" x1="535.33" y1="654" x2="575.55" y2="654"/><line class="cls-11" x1="581.3" y1="654" x2="644.51" y2="654"/><line class="cls-9" x1="650.25" y1="654" x2="655.25" y2="654"/><polygon class="cls-12" points="651.94 658.09 651.26 657.36 654.87 654 651.26 650.64 651.94 649.91 656.34 654 651.94 658.09"/><line class="cls-1" x1="432.84" y1="1060.25" x2="432.84" y2="1096.17"/><polygon class="cls-2" points="428.75 1092.85 429.48 1092.17 432.84 1095.78 436.19 1092.17 436.93 1092.85 432.84 1097.25 428.75 1092.85"/><line class="cls-1" x1="432.84" y1="1155.75" x2="432.84" y2="1191.67"/><polygon class="cls-2" points="428.75 1188.35 429.48 1187.67 432.84 1191.28 436.19 1187.67 436.93 1188.35 432.84 1192.75 428.75 1188.35"/><line class="cls-1" x1="432.84" y1="915" x2="432.84" y2="997.92"/><polygon class="cls-2" points="428.75 994.6 429.48 993.92 432.84 997.53 436.19 993.92 436.93 994.6 432.84 999 428.75 994.6"/><line class="cls-1" x1="432.84" y1="683.25" x2="432.84" y2="785.17"/><polygon class="cls-2" points="428.75 781.85 429.48 781.17 432.84 784.78 436.19 781.17 436.93 781.85 432.84 786.25 428.75 781.85"/><rect class="cls-13" x="355.75" y="537.4" width="153.83" height="38.7"/><rect class="cls-14" x="345" y="634.4" width="175.33" height="38.7"/><rect class="cls-14" x="345" y="1011.4" width="175.33" height="38.7"/><rect class="cls-14" x="345" y="1107.4" width="175.33" height="38.7"/><rect class="cls-15" x="345" y="1202.4" width="175.33" height="38.7"/><rect class="cls-15" x="378.09" y="796.4" width="109.17" height="38.7"/><rect class="cls-16" x="314.67" y="10.4" width="236.33" height="38.7"/><text class="cls-17" transform="translate(339.07 38.09)"><tspan class="cls-18">T</tspan><tspan x="13.42" y="0">ypes </tspan><tspan class="cls-19" x="71.54" y="0">o</tspan><tspan class="cls-20" x="85.01" y="0">f</tspan><tspan class="cls-21" x="93.79" y="0"> </tspan><tspan class="cls-22" x="98.81" y="0">T</tspan><tspan x="111.38" y="0">ourism</tspan></text><text class="cls-17" transform="translate(376.43 565.09)">Instag<tspan class="cls-23" x="69.17" y="0">r</tspan><tspan class="cls-24" x="78.12" y="0">am</tspan></text><rect class="cls-8" x="326" y="105.4" width="213.33" height="38.7"/><text class="cls-17" transform="translate(336.48 133.09)">en<tspan class="cls-25" x="26.86" y="0">.</tspan><tspan class="cls-24" x="32.09" y="0">Wikipe</tspan><tspan class="cls-26" x="107.28" y="0">r</tspan><tspan class="cls-24" x="116.16" y="0">dia.o</tspan><tspan class="cls-26" x="169.34" y="0">r</tspan><tspan class="cls-27" x="178.22" y="0">g</tspan></text><text class="cls-28" transform="translate(415.21 167.25)">Title:<tspan x="-45.6" y="18">Outline </tspan><tspan class="cls-29" x="8.35" y="18">o</tspan><tspan class="cls-30" x="16.77" y="18">f</tspan><tspan class="cls-31" x="22.26" y="18"> </tspan><tspan class="cls-32" x="25.39" y="18">T</tspan><tspan x="33.25" y="18">ourism</tspan></text><text class="cls-28" transform="translate(277.6 269.46)">Ide<tspan class="cls-33" x="21.4" y="0">n</tspan><tspan x="30.07" y="0">tific</tspan><tspan class="cls-34" x="57.54" y="0">a</tspan><tspan x="65.41" y="0">tion </tspan><tspan class="cls-35" x="96.04" y="0">o</tspan><tspan class="cls-36" x="104.46" y="0">f</tspan><tspan x="109.95" y="0" xml:space="preserve"> 58 dif</tspan><tspan class="cls-37" x="147.45" y="0">f</tspan><tspan x="158.05" y="0">e</tspan><tspan class="cls-38" x="166.11" y="0">r</tspan><tspan x="171.63" y="0">e</tspan><tspan class="cls-39" x="179.68" y="0">n</tspan><tspan x="188.35" y="0">t</tspan><tspan class="cls-30" x="194.29" y="0"> </tspan><tspan x="197.56" y="0">types </tspan><tspan class="cls-35" x="239.83" y="0">o</tspan><tspan class="cls-36" x="248.25" y="0">f </tspan><tspan class="cls-40" x="257.01" y="0">t</tspan><tspan x="262.87" y="0">ourism</tspan></text><text class="cls-41" transform="translate(668.18 543.24)"><tspan class="cls-38">E</tspan><tspan x="9.57" y="0">ach quer</tspan><tspan class="cls-42" x="70.3" y="0">y</tspan><tspan x="78.06" y="0" xml:space="preserve"> as a has</tspan><tspan class="cls-35" x="139.12" y="0">h</tspan><tspan class="cls-40" x="147.51" y="0">t</tspan><tspan class="cls-43" x="153.37" y="0">ag </tspan><tspan class="cls-44" x="0" y="18">t</tspan><tspan x="5.85" y="18">o</tspan><tspan class="cls-45" x="14.48" y="18"> </tspan><tspan x="17.83" y="18">find</tspan><tspan class="cls-46" x="45.03" y="18"> </tspan><tspan x="48.39" y="18">the numbe</tspan><tspan class="cls-42" x="122.52" y="18">r</tspan><tspan x="127.78" y="18"> </tspan><tspan class="cls-47" x="131.47" y="18">o</tspan><tspan class="cls-30" x="139.81" y="18">f</tspan><tspan x="144.9" y="18" xml:space="preserve"> po</tspan><tspan class="cls-35" x="166.33" y="18">s</tspan><tspan x="173.41" y="18">ts </tspan><tspan class="cls-48" x="0" y="36">r</tspan><tspan class="cls-43" x="5.45" y="36">ela</tspan><tspan class="cls-44" x="26.31" y="36">t</tspan><tspan x="32.16" y="36">ed</tspan><tspan class="cls-46" x="49.47" y="36"> </tspan><tspan class="cls-49" x="52.83" y="36">t</tspan><tspan x="58.68" y="36">o each has</tspan><tspan class="cls-29" x="133.41" y="36">h</tspan><tspan class="cls-34" x="141.79" y="36">t</tspan><tspan x="147.66" y="36">ag.</tspan></text><text class="cls-17" transform="translate(370.94 662.09)">Instaloade<tspan class="cls-42" x="114.79" y="0">r</tspan></text><text class="cls-17" transform="translate(376.81 1039.09)">R<tspan class="cls-50" x="16.39" y="0">a</tspan><tspan class="cls-51" x="28.97" y="0">w</tspan><tspan class="cls-27" x="47.57" y="0">g</tspan><tspan class="cls-51" x="61.73" y="0">r</tspan><tspan x="70.68" y="0">aph</tspan></text><text class="cls-17" transform="translate(378.89 1135.09)">Illust<tspan class="cls-51" x="54.26" y="0">r</tspan><tspan class="cls-52" x="63.21" y="0">at</tspan><tspan x="85.2" y="0">o</tspan><tspan class="cls-42" x="98.9" y="0">r</tspan></text><text class="cls-17" transform="translate(361.88 1230.09)">Visualiz<tspan class="cls-52" x="85.68" y="0">a</tspan><tspan x="98.28" y="0">tion</tspan></text><text class="cls-53" transform="translate(668.18 649.24)">Colle<tspan class="cls-48" x="34.84" y="0">c</tspan><tspan x="42.94" y="0">tion </tspan><tspan class="cls-47" x="73.42" y="0">o</tspan><tspan class="cls-30" x="81.76" y="0">f</tspan><tspan class="cls-45" x="86.85" y="0"> </tspan><tspan x="90.21" y="0">the mo</tspan><tspan class="cls-35" x="138.69" y="0">s</tspan><tspan x="145.77" y="0">t </tspan><tspan class="cls-48" x="155.4" y="0">r</tspan><tspan x="160.84" y="0">ece</tspan><tspan class="cls-35" x="185.46" y="0">n</tspan><tspan x="193.86" y="0">t</tspan><tspan x="0" y="18">po</tspan><tspan class="cls-35" x="17.74" y="18">s</tspan><tspan x="24.82" y="18">ts pe</tspan><tspan class="cls-42" x="58.99" y="18">r</tspan><tspan class="cls-43" x="64.26" y="18" xml:space="preserve"> has</tspan><tspan class="cls-35" x="92.71" y="18">h</tspan><tspan class="cls-40" x="101.1" y="18">t</tspan><tspan x="106.96" y="18">ag.</tspan></text><text class="cls-17" transform="translate(388.36 824.09)">.xl<tspan class="cls-54" x="24.89" y="0">s</tspan><tspan class="cls-27" x="36.38" y="0">x</tspan><tspan class="cls-55" x="48.86" y="0"> </tspan><tspan x="54.12" y="0">file</tspan></text><polyline class="cls-56" points="121.38 719.5 102.84 719.5 102.84 466.5 121.38 466.5"/><polyline class="cls-56" points="121.38 447.5 102.84 447.5 102.84 0.5 121.38 0.5"/><polyline class="cls-56" points="121.38 970.5 102.84 970.5 102.84 739.5 121.38 739.5"/><polyline class="cls-56" points="121.38 1262.5 102.84 1262.5 102.84 992 121.38 992"/><text class="cls-57" transform="translate(0 589.05)">D<tspan class="cls-39" x="10.81" y="0">a</tspan><tspan x="18.76" y="0">ta </tspan><tspan x="0" y="16">collection</tspan></text><text class="cls-57" transform="translate(0 851.05)">D<tspan class="cls-39" x="10.81" y="0">a</tspan><tspan x="18.76" y="0">tas</tspan><tspan class="cls-58" x="40.33" y="0">e</tspan><tspan x="48.33" y="0">t </tspan><tspan x="0" y="16">building</tspan></text><text class="cls-57" transform="translate(0 1123.3)">D<tspan class="cls-39" x="10.81" y="0">a</tspan><tspan x="18.76" y="0">ta </tspan><tspan x="0" y="16">visualiz</tspan><tspan class="cls-39" x="51.99" y="16">a</tspan><tspan x="59.94" y="16">tion</tspan></text><text class="cls-28" transform="translate(389.75 864.24)">D<tspan class="cls-40" x="10.78" y="0">a</tspan><tspan x="18.66" y="0">ta Clus</tspan><tspan class="cls-40" x="66.51" y="0">t</tspan><tspan class="cls-59" x="72.37" y="0">e</tspan><tspan class="cls-60" x="80.43" y="0">r</tspan></text><text class="cls-61" transform="translate(780.58 29.2)"><tspan class="cls-52">H</tspan><tspan class="cls-62" x="17.62" y="0">o</tspan><tspan class="cls-63" x="31.18" y="0">w</tspan><tspan class="cls-55" x="49.73" y="0"> </tspan><tspan class="cls-64" x="54.89" y="0">t</tspan><tspan x="64.54" y="0">o </tspan><tspan class="cls-54" x="83.98" y="0">r</tspan><tspan class="cls-24" x="92.95" y="0">ead</tspan></text><text class="cls-65" transform="translate(806.75 65.52)">Quer<tspan class="cls-46" x="38.06" y="0">y</tspan></text><rect class="cls-66" x="871.34" y="48.48" width="41.68" height="24.48"/><text class="cls-65" transform="translate(804.59 100.85)">D<tspan class="cls-67" x="12.15" y="0">e</tspan><tspan x="21.06" y="0">vice</tspan></text><rect class="cls-8" x="871.34" y="83.81" width="41.68" height="24.48"/><text class="cls-65" transform="translate(824.53 136.19)"><tspan class="cls-68">T</tspan><tspan x="8.74" y="0">ool</tspan></text><rect class="cls-14" x="871.34" y="119.14" width="41.68" height="24.48"/><text class="cls-65" transform="translate(801.27 171.52)">Output</text><rect class="cls-69" x="871.34" y="154.48" width="41.68" height="24.48"/><rect class="cls-70" x="153.34" y="279" width="59" height="18.5"/><text class="cls-71" transform="translate(158.93 291.95)"><tspan class="cls-72">A</tspan><tspan x="6.89" y="0">ccessible</tspan></text><rect class="cls-70" x="212.34" y="279" width="58" height="18.5"/><text class="cls-71" transform="translate(217.98 291.95)"><tspan class="cls-72">A</tspan><tspan x="6.89" y="0">d</tspan><tspan class="cls-73" x="12.84" y="0">v</tspan><tspan x="17.89" y="0">e</tspan><tspan class="cls-39" x="23.24" y="0">n</tspan><tspan x="29" y="0">tu</tspan><tspan class="cls-74" x="38.55" y="0">r</tspan><tspan x="42.14" y="0">e</tspan></text><rect class="cls-70" x="270.34" y="279" width="63" height="18.5"/><text class="cls-71" transform="translate(275.22 291.95)"><tspan class="cls-72">A</tspan><tspan x="6.89" y="0">gri</tspan><tspan class="cls-40" x="18.98" y="0">t</tspan><tspan x="22.78" y="0">ourism</tspan></text><rect class="cls-70" x="333.34" y="279" width="60" height="18.5"/><text class="cls-71" transform="translate(338.83 291.95)">Al<tspan class="cls-40" x="9.4" y="0">t</tspan><tspan x="13.2" y="0">ern</tspan><tspan class="cls-75" x="28.11" y="0">a</tspan><tspan x="33.31" y="0">ti</tspan><tspan class="cls-76" x="39.61" y="0">v</tspan><tspan x="44.66" y="0">e</tspan></text><rect class="cls-70" x="393.34" y="279" width="77" height="18.5"/><text class="cls-71" transform="translate(398.11 291.95)">A<tspan class="cls-74" x="6.95" y="0">r</tspan><tspan x="10.54" y="0">chaeological</tspan></text><rect class="cls-70" x="470.34" y="279" width="45" height="18.5"/><text class="cls-71" transform="translate(477.25 291.95)"><tspan class="cls-77">A</tspan><tspan class="cls-40" x="6.69" y="0">t</tspan><tspan x="10.49" y="0">omic</tspan></text><rect class="cls-70" x="515.34" y="279" width="33" height="18.5"/><text class="cls-71" transform="translate(520.98 291.95)">Birth</text><rect class="cls-70" x="548.34" y="279" width="58" height="18.5"/><text class="cls-71" transform="translate(554.01 291.95)">Boo<tspan class="cls-78" x="17.99" y="0">k</tspan><tspan x="23.13" y="0">s</tspan><tspan class="cls-40" x="28" y="0">t</tspan><tspan x="31.8" y="0">o</tspan><tspan class="cls-74" x="37.48" y="0">r</tspan><tspan x="41.07" y="0">e</tspan></text><rect class="cls-70" x="606.34" y="279" width="53" height="18.5"/><text class="cls-71" transform="translate(612.45 291.95)">Business</text><rect class="cls-70" x="659.34" y="279" width="53" height="18.5"/><text class="cls-71" transform="translate(665.06 291.95)">Child s<tspan class="cls-79" x="31" y="0">e</tspan><tspan class="cls-80" x="36.19" y="0">x</tspan></text><rect class="cls-70" x="169.68" y="297.52" width="51.31" height="18.5"/><text class="cls-71" transform="translate(174.19 310.47)">Christian</text><rect class="cls-70" x="220.68" y="297.52" width="50.31" height="18.5"/><text class="cls-71" transform="translate(226.42 310.47)">Culinar<tspan class="cls-46" x="32.47" y="0">y</tspan></text><rect class="cls-70" x="270.68" y="297.52" width="45.31" height="18.5"/><text class="cls-71" transform="translate(275.27 310.47)">Cultu<tspan class="cls-48" x="24.74" y="0">r</tspan><tspan x="28.41" y="0">al</tspan></text><rect class="cls-70" x="315.68" y="297.52" width="31.31" height="18.5"/><text class="cls-71" transform="translate(320.58 310.47)">Dark</text><rect class="cls-70" x="346.68" y="297.52" width="37.31" height="18.5"/><text class="cls-71" transform="translate(350.42 310.47)">De<tspan class="cls-39" x="12.5" y="0">n</tspan><tspan x="18.26" y="0">tal</tspan></text><rect class="cls-70" x="382.68" y="297.52" width="51.31" height="18.5"/><text class="cls-71" transform="translate(389.57 310.47)">Disas<tspan class="cls-40" x="24.61" y="0">t</tspan><tspan x="28.41" y="0">e</tspan><tspan class="cls-81" x="33.76" y="0">r</tspan></text><rect class="cls-70" x="432.68" y="297.52" width="54.31" height="18.5"/><text class="cls-71" transform="translate(438.39 310.47)">Domestic</text><rect class="cls-70" x="486.68" y="297.52" width="33.31" height="18.5"/><text class="cls-71" transform="translate(491.98 310.47)">Drug</text><rect class="cls-70" x="519.68" y="297.52" width="64.31" height="18.5"/><text class="cls-71" transform="translate(525.42 310.47)"><tspan class="cls-48">E</tspan><tspan x="6.43" y="0">c</tspan><tspan class="cls-48" x="11.75" y="0">o</tspan><tspan class="cls-40" x="17.34" y="0">t</tspan><tspan x="21.14" y="0">ourism</tspan></text><rect class="cls-70" x="583.68" y="297.52" width="62.31" height="18.5"/><text class="cls-71" transform="translate(588.14 310.47)">En<tspan class="cls-48" x="12.32" y="0">o</tspan><tspan class="cls-40" x="17.91" y="0">t</tspan><tspan x="21.71" y="0">ourism</tspan></text><rect class="cls-70" x="645.68" y="297.52" width="50.31" height="18.5"/><text class="cls-71" transform="translate(651.32 310.47)">Ext<tspan class="cls-74" x="15.51" y="0">r</tspan><tspan x="19.1" y="0">eme</tspan></text><rect class="cls-70" x="180.58" y="316.03" width="67.31" height="18.5"/><text class="cls-71" transform="translate(186.24 328.99)"><tspan class="cls-78">F</tspan><tspan x="5.87" y="0">a</tspan><tspan class="cls-39" x="11.14" y="0">c</tspan><tspan class="cls-40" x="16.42" y="0">t</tspan><tspan x="20.22" y="0">or</tspan><tspan class="cls-46" x="29.66" y="0">y</tspan><tspan class="cls-82" x="34.8" y="0"> </tspan><tspan class="cls-40" x="37.04" y="0">t</tspan><tspan x="40.84" y="0">ou</tspan><tspan class="cls-46" x="52.22" y="0">r</tspan></text><rect class="cls-70" x="247.94" y="316.03" width="63.16" height="18.5"/><text class="cls-71" transform="translate(253.91 328.99)"><tspan class="cls-83">F</tspan><tspan x="5.92" y="0">emale s</tspan><tspan class="cls-79" x="40.65" y="0">e</tspan><tspan x="45.84" y="0">x</tspan></text><rect class="cls-70" x="310.94" y="316.03" width="44.16" height="18.5"/><text class="cls-71" transform="translate(316.22 328.99)">Ga<tspan class="cls-83" x="12.65" y="0">r</tspan><tspan x="16.27" y="0">den</tspan></text><rect class="cls-70" x="354.94" y="316.03" width="59.16" height="18.5"/><text class="cls-71" transform="translate(360.25 328.99)">Genealog<tspan class="cls-46" x="43.16" y="0">y</tspan></text><rect class="cls-70" x="413.94" y="316.03" width="65.16" height="18.5"/><text class="cls-71" transform="translate(419.61 328.99)">Ge<tspan class="cls-48" x="12.73" y="0">o</tspan><tspan class="cls-40" x="18.32" y="0">t</tspan><tspan x="22.12" y="0">ourism</tspan></text><rect class="cls-70" x="478.94" y="316.03" width="34.16" height="18.5"/><text class="cls-71" transform="translate(484.51 328.99)">Halal</text><rect class="cls-70" x="512.94" y="316.03" width="50.16" height="18.5"/><text class="cls-71" transform="translate(518.77 328.99)">Heritage</text><rect class="cls-70" x="562.94" y="316.03" width="56.16" height="18.5"/><text class="cls-71" transform="translate(567.94 328.99)">Holocaust</text><rect class="cls-70" x="618.94" y="316.03" width="66.16" height="18.5"/><text class="cls-71" transform="translate(623.92 328.99)">Hon<tspan class="cls-62" x="18.83" y="0">e</tspan><tspan x="24.07" y="0">ymoon</tspan></text><rect class="cls-70" x="215.59" y="334.55" width="36.16" height="18.5"/><text class="cls-71" transform="translate(220.86 347.5)">Jihadi</text><rect class="cls-70" x="251.59" y="334.55" width="39.16" height="18.5"/><text class="cls-71" transform="translate(256.73 347.5)">Jungle</text><rect class="cls-70" x="290.59" y="334.55" width="42.58" height="18.5"/><text class="cls-71" transform="translate(295.76 347.5)">Justice</text><rect class="cls-70" x="332.99" y="334.55" width="42.58" height="18.5"/><text class="cls-71" transform="translate(338.13 347.5)"><tspan class="cls-84">K</tspan><tspan x="6.43" y="0">oshe</tspan><tspan class="cls-46" x="28.13" y="0">r</tspan></text><rect class="cls-70" x="374.99" y="334.55" width="32.79" height="18.5"/><text class="cls-71" transform="translate(380.19 347.5)">Lg<tspan class="cls-85" x="12.05" y="0">b</tspan><tspan x="17.92" y="0">t</tspan></text><rect class="cls-70" x="406.99" y="334.55" width="46.79" height="18.5"/><text class="cls-71" transform="translate(412.27 347.5)">Li<tspan class="cls-40" x="8.62" y="0">t</tspan><tspan x="12.42" y="0">e</tspan><tspan class="cls-48" x="17.77" y="0">r</tspan><tspan x="21.44" y="0">ar</tspan><tspan class="cls-81" x="30.47" y="0">y</tspan></text><rect class="cls-70" x="453.99" y="334.55" width="46.79" height="18.5"/><text class="cls-71" transform="translate(459.06 347.5)">Medical</text><rect class="cls-70" x="500.99" y="334.55" width="38.79" height="18.5"/><text class="cls-71" transform="translate(506.28 347.5)">Music</text><rect class="cls-70" x="539.99" y="334.55" width="48.79" height="18.5"/><text class="cls-71" transform="translate(545.2 347.5)">Nautical</text><rect class="cls-70" x="588.29" y="334.55" width="61.79" height="18.5"/><text class="cls-71" transform="translate(593.22 347.78)"><tspan class="cls-86">P</tspan><tspan x="6.28" y="0">op cultu</tspan><tspan class="cls-74" x="43.37" y="0">r</tspan><tspan x="46.96" y="0">e</tspan></text><rect class="cls-70" x="398.94" y="353.06" width="38.79" height="18.5"/><text class="cls-71" transform="translate(404.32 366.02)">Shark</text><rect class="cls-70" x="437.94" y="353.06" width="33.79" height="18.5"/><text class="cls-71" transform="translate(442.83 366.02)">Slum</text><rect class="cls-70" x="471.94" y="353.06" width="37.79" height="18.5"/><text class="cls-71" transform="translate(476.95 366.02)">Space</text><rect class="cls-70" x="509.94" y="353.06" width="37.79" height="18.5"/><text class="cls-71" transform="translate(516.28 366.02)">Sport</text><rect class="cls-70" x="547.94" y="353.06" width="58.79" height="18.5"/><text class="cls-71" transform="translate(553.5 366.02)">Stag part<tspan class="cls-46" x="42.53" y="0">y</tspan></text><rect class="cls-70" x="606.94" y="353.06" width="44.79" height="18.5"/><text class="cls-71" transform="translate(612.44 366.02)">Suicide</text><rect class="cls-70" x="213.94" y="353.06" width="51.79" height="18.5"/><rect class="cls-70" x="265.94" y="353.06" width="34.79" height="18.5"/><text class="cls-71" transform="translate(271.58 366.02)">Ru<tspan class="cls-48" x="12.5" y="0">r</tspan><tspan x="16.17" y="0">al</tspan></text><text class="cls-71" transform="translate(219.71 366.02)">Religious</text><rect class="cls-70" x="300.94" y="353.06" width="69.79" height="18.5"/><text class="cls-71" transform="translate(306.27 366.02)">Sac<tspan class="cls-74" x="16.85" y="0">r</tspan><tspan x="20.44" y="0">ed</tspan><tspan class="cls-82" x="31.74" y="0"> </tspan><tspan class="cls-87" x="33.98" y="0">t</tspan><tspan class="cls-88" x="37.83" y="0">r</tspan><tspan class="cls-29" x="41.5" y="0">a</tspan><tspan class="cls-76" x="46.67" y="0">v</tspan><tspan x="51.72" y="0">el</tspan></text><rect class="cls-70" x="370.94" y="353.06" width="27.79" height="18.5"/><text class="cls-71" transform="translate(376.23 366.02)">S<tspan class="cls-89" x="6.26" y="0">e</tspan><tspan class="cls-87" x="11.45" y="0">x</tspan></text><rect class="cls-70" x="203.04" y="371.58" width="64.79" height="18.5"/><text class="cls-71" transform="translate(208.67 384.54)">Sustainable</text><rect class="cls-70" x="268.04" y="371.58" width="43.79" height="18.5"/><text class="cls-90" transform="translate(273.68 384.54)">T<tspan class="cls-80" x="5.14" y="0">olkien</tspan></text><rect class="cls-70" x="418.74" y="371.58" width="81.79" height="18.5"/><text class="cls-71" transform="translate(423.06 384.81)"><tspan class="cls-91">V</tspan><tspan x="6.43" y="0">olu</tspan><tspan class="cls-39" x="20.26" y="0">n</tspan><tspan class="cls-40" x="26.02" y="0">t</tspan><tspan x="29.82" y="0">ee</tspan><tspan class="cls-46" x="40.52" y="0">r</tspan><tspan class="cls-82" x="44.06" y="0"> </tspan><tspan x="46.3" y="0">t</tspan><tspan class="cls-48" x="50.15" y="0">r</tspan><tspan class="cls-29" x="53.82" y="0">a</tspan><tspan class="cls-76" x="58.99" y="0">v</tspan><tspan x="64.04" y="0">el</tspan></text><rect class="cls-70" x="311.24" y="371.58" width="107.79" height="18.5"/><text class="cls-71" transform="translate(316.67 384.81)"><tspan class="cls-92">T</tspan><tspan x="5.14" y="0">ourism on</tspan><tspan class="cls-93" x="50.52" y="0"> </tspan><tspan x="52.76" y="0">the Moon</tspan></text><rect class="cls-70" x="500.46" y="371.58" width="29.17" height="18.5"/><text class="cls-71" transform="translate(505.92 384.54)"><tspan class="cls-94">W</tspan><tspan x="9.13" y="0">a</tspan><tspan class="cls-46" x="14.4" y="0">r</tspan></text><rect class="cls-70" x="529.46" y="371.58" width="38.17" height="18.5"/><text class="cls-71" transform="translate(534.88 384.54)"><tspan class="cls-94">W</tspan><tspan class="cls-75" x="9.13" y="0">a</tspan><tspan class="cls-40" x="14.33" y="0">t</tspan><tspan x="18.13" y="0">e</tspan><tspan class="cls-81" x="23.48" y="0">r</tspan></text><rect class="cls-70" x="567.46" y="371.58" width="51.17" height="18.5"/><text class="cls-71" transform="translate(572.79 384.54)"><tspan class="cls-95">W</tspan><tspan x="9.08" y="0">ellness</tspan></text><rect class="cls-70" x="618.46" y="371.58" width="44.17" height="18.5"/><text class="cls-71" transform="translate(623.85 384.54)">Wildli<tspan class="cls-86" x="25.11" y="0">f</tspan><tspan x="28.73" y="0">e</tspan></text><rect class="cls-96" x="268.67" y="876.88" width="84.79" height="26.62"/><text class="cls-97" transform="translate(295.84 895.52)">A<tspan class="cls-98" x="10" y="0">r</tspan><tspan x="15.17" y="0">ea</tspan></text><rect class="cls-96" x="353.58" y="876.88" width="122.21" height="26.62"/><text class="cls-97" transform="translate(363.46 895.52)"><tspan class="cls-99">T</tspan><tspan x="7.86" y="0">ype </tspan><tspan class="cls-100" x="35.34" y="0">o</tspan><tspan class="cls-101" x="43.36" y="0">f</tspan><tspan class="cls-102" x="48.48" y="0"> </tspan><tspan class="cls-103" x="51.71" y="0">t</tspan><tspan x="57.18" y="0">ourism</tspan></text><rect class="cls-96" x="474.48" y="876.88" width="122.21" height="26.62"/><text class="cls-97" transform="translate(487.01 895.52)">n. posts<tspan class="cls-104" x="51.78" y="0"> </tspan><tspan x="55.02" y="0">with #</tspan></text><text class="cls-57" transform="translate(0 220.05)">P<tspan class="cls-105" x="9.78" y="0">r</tspan><tspan x="15.39" y="0">eliminar</tspan><tspan class="cls-106" x="71.52" y="0">y</tspan><tspan class="cls-107" x="79.75" y="0"> </tspan><tspan class="cls-105" x="0" y="16">r</tspan><tspan x="5.61" y="16">esea</tspan><tspan class="cls-108" x="37.3" y="16">r</tspan><tspan x="42.91" y="16">ch</tspan></text></g></g></svg>