<svg xmlns="http://www.w3.org/2000/svg" viewBox="0 0 871.9014 968.5">
  <defs>
    <style>
      .cls-1, .cls-2, .cls-4, .cls-8 {
        fill: none;
      }

      .cls-1 {
        stroke: #587ef9;
      }

      .cls-1, .cls-12, .cls-2, .cls-4, .cls-8 {
        stroke-miterlimit: 10;
      }

      .cls-2 {
        stroke: #224;
      }

      .cls-3 {
        fill: #224;
      }

      .cls-4 {
        stroke: #ef8532;
        stroke-dasharray: 10 10 10 10 10 10;
      }

      .cls-5 {
        fill: #ef8532;
      }

      .cls-12, .cls-6 {
        fill: #e21e6e;
      }

      .cls-7 {
        fill: #8acc2b;
      }

      .cls-8 {
        stroke: #8acc2b;
      }

      .cls-9 {
        fill: #3829ff;
      }

      .cls-10 {
        fill: #587ef9;
      }

      .cls-11 {
        fill: #fff;
      }

      .cls-12 {
        stroke: #fff;
      }
    </style>
  </defs>
  <g id="Layer_2" data-name="Layer 2">
    <g id="P1_TypeOfTourism">
      <polyline class="cls-1" points="117.78 335 99.24 335 99.24 0.5 117.78 0.5"/>
      <polyline class="cls-1" points="117.78 619 99.24 619 99.24 343.5 117.78 343.5"/>
      <polyline class="cls-1" points="117.78 968 99.24 968 99.24 628.5 117.78 628.5"/>
    </g>
    <g id="P3_DarkTourism">
      <g>
        <line class="cls-2" x1="408.7407" y1="59.0774" x2="408.7407" y2="94.9929"/>
        <polygon class="cls-3" points="404.651 91.679 405.383 90.997 408.74 94.609 412.097 90.997 412.83 91.679 408.74 96.077 404.651 91.679"/>
      </g>
      <g>
        <line class="cls-4" x1="486.2402" y1="215" x2="597.6558" y2="215"/>
        <polygon class="cls-5" points="594.342 219.09 593.66 218.357 597.272 215.001 593.66 211.644 594.342 210.911 598.74 215.001 594.342 219.09"/>
      </g>
      <g>
        <line class="cls-2" x1="408.7407" y1="446.75" x2="408.7407" y2="482.6655"/>
        <polygon class="cls-3" points="404.651 479.352 405.383 478.67 408.74 482.282 412.097 478.67 412.83 479.352 408.74 483.75 404.651 479.352"/>
      </g>
      <g>
        <line class="cls-2" x1="408.7407" y1="288.067" x2="408.7407" y2="389.9825"/>
        <polygon class="cls-3" points="404.651 386.669 405.383 385.987 408.74 389.599 412.097 385.987 412.83 386.669 408.74 391.067 404.651 386.669"/>
      </g>
      <g>
        <line class="cls-2" x1="345.2407" y1="565.4999" x2="345.2407" y2="590.4999"/>
        <line class="cls-2" x1="473.7402" y1="589.9999" x2="345.7402" y2="589.9999"/>
        <line class="cls-2" x1="473.2407" y1="565.4999" x2="473.2407" y2="590.4999"/>
        <g>
          <line class="cls-2" x1="408.7407" y1="589.5" x2="408.7407" y2="691.4155"/>
          <polygon class="cls-3" points="404.651 688.102 405.383 687.42 408.74 691.032 412.097 687.42 412.83 688.102 408.74 692.5 404.651 688.102"/>
        </g>
      </g>
      <g>
        <line class="cls-2" x1="408.7407" y1="752.25" x2="408.7407" y2="788.1655"/>
        <polygon class="cls-3" points="404.651 784.852 405.383 784.17 408.74 787.782 412.097 784.17 412.83 784.852 408.74 789.25 404.651 784.852"/>
      </g>
      <g>
        <line class="cls-2" x1="408.7407" y1="847.75" x2="408.7407" y2="883.6655"/>
        <polygon class="cls-3" points="404.651 880.352 405.383 879.67 408.74 883.282 412.097 879.67 412.83 880.352 408.74 884.75 404.651 880.352"/>
      </g>
      <g>
        <line class="cls-2" x1="408.5969" y1="149.5774" x2="408.5969" y2="185.4929"/>
        <polygon class="cls-3" points="404.507 182.179 405.24 181.497 408.596 185.109 411.953 181.497 412.686 182.179 408.596 186.577 404.507 182.179"/>
      </g>
      <rect class="cls-6" x="290.5741" y="12.4011" width="236.3333" height="38.6978"/>
      <rect class="cls-5" x="331.824" y="193.4011" width="153.8334" height="38.6978"/>
      <rect class="cls-5" x="323.699" y="401.4011" width="170.0835" height="38.6978"/>
      <rect class="cls-5" x="321.0741" y="703.4011" width="175.3333" height="38.6978"/>
      <rect class="cls-7" x="354.1575" y="490.4011" width="109.1665" height="38.6978"/>
      <rect class="cls-8" x="280.7408" y="538" width="127.9998" height="28"/>
      <rect class="cls-8" x="408.7408" y="538" width="127.9998" height="28"/>
      <rect class="cls-5" x="321.0741" y="799.4011" width="175.3333" height="38.6978"/>
      <rect class="cls-7" x="321.0741" y="894.4011" width="175.3333" height="38.6978"/>
      <rect class="cls-9" x="331.5135" y="104.0558" width="153.8334" height="38.6978"/>
      <g>
        <path class="cls-10" d="M1.23,153.3008h3.6c3.15,0,5.3252,1.8,5.3252,5.249s-2.1,5.25-5.25,5.25H1.23ZM4.68,162c2.0249,0,3.45-.8252,3.45-3.45s-1.4253-3.4492-3.45-3.4492H3.2549V162Z" transform="translate(-0.1797)"/>
        <path class="cls-10" d="M16.0347,162.8848a2.6416,2.6416,0,0,1-2.22,1.0654,2.2651,2.2651,0,0,1-2.46-2.2051c0-1.62,1.26-2.3544,2.7446-2.4746l1.89-.165v-.1807a1.1528,1.1528,0,0,0-1.2148-1.1992h-.09a1.1345,1.1345,0,0,0-1.2295.8994h-1.95c.15-1.41,1.35-2.4746,3.2251-2.4746s3.15.9453,3.15,2.7v3.3a12.756,12.756,0,0,0,.0747,1.6494h-1.83A6.7372,6.7372,0,0,1,16.0347,162.8848Zm-1.74-.51A1.6422,1.6422,0,0,0,15.99,160.74v-.21l-1.62.165c-.4946.045-1.0947.3-1.0947.9151,0,.4648.4048.7646.9448.7646Z" transform="translate(-0.1797)"/>
        <path class="cls-10" d="M24.4194,163.8H22.5146a1.7438,1.7438,0,0,1-1.95-1.9492V157.875H19.02v-1.5742h1.545V153.87h1.95v2.4307h1.68v1.5742h-1.68v3.45c0,.6748.15.8252.8248.8252h1.08Z" transform="translate(-0.1797)"/>
        <path class="cls-10" d="M30.0894,162.8848a2.6419,2.6419,0,0,1-2.22,1.0654,2.2651,2.2651,0,0,1-2.46-2.2051c0-1.62,1.26-2.3544,2.7446-2.4746l1.89-.165v-.1807a1.1528,1.1528,0,0,0-1.2148-1.1992h-.09a1.1345,1.1345,0,0,0-1.23.8994H25.56c.15-1.41,1.35-2.4746,3.2251-2.4746s3.15.9453,3.15,2.7v3.3a12.756,12.756,0,0,0,.0747,1.6494h-1.83A6.7372,6.7372,0,0,1,30.0894,162.8848Zm-1.74-.51a1.6422,1.6422,0,0,0,1.6948-1.6347v-.21l-1.62.165c-.4946.045-1.0947.3-1.0947.9151,0,.4648.4048.7646.9448.7646Z" transform="translate(-0.1797)"/>
        <path class="cls-10" d="M7.56,177.1748c-.15,1.875-1.4248,2.7754-3.3745,2.7754a3.9124,3.9124,0,0,1,0-7.8c1.95,0,3.2246.9,3.3745,2.7744H5.61a1.2864,1.2864,0,0,0-1.38-1.1992H4.14c-1.125,0-1.6049,1.05-1.6049,2.3242s.48,2.3252,1.6049,2.3252h.09a1.2864,1.2864,0,0,0,1.38-1.2Z" transform="translate(-0.1797)"/>
        <path class="cls-10" d="M8.6548,176.05a3.6629,3.6629,0,0,1,3.75-3.8994,3.9029,3.9029,0,0,1,0,7.8A3.6638,3.6638,0,0,1,8.6548,176.05Zm5.5351,0c0-1.47-.6753-2.3242-1.7251-2.3242h-.12c-1.05,0-1.7251.8545-1.7251,2.3242s.6753,2.3252,1.7251,2.3252h.12C13.5146,178.375,14.19,177.5205,14.19,176.05Z" transform="translate(-0.1797)"/>
        <path class="cls-10" d="M17.73,169.3008h1.95V179.8H17.73Z" transform="translate(-0.1797)"/>
        <path class="cls-10" d="M21.69,169.3008h1.95V179.8H21.69Z" transform="translate(-0.1797)"/>
        <path class="cls-10" d="M28.7993,179.95a3.61,3.61,0,0,1-3.57-3.9c0-2.25,1.32-3.8994,3.57-3.8994s3.42,1.6348,3.42,3.81c0,.2256-.0151.4648-.03.7051H27.12a1.7762,1.7762,0,0,0,1.71,1.71h.09a1.292,1.292,0,0,0,1.335-.9453H32.19A3.2376,3.2376,0,0,1,28.7993,179.95Zm-1.68-4.7851h3.21a1.4849,1.4849,0,0,0-1.56-1.44h-.09A1.485,1.485,0,0,0,27.12,175.1651Z" transform="translate(-0.1797)"/>
        <path class="cls-10" d="M40.3188,177.1748c-.15,1.875-1.4248,2.7754-3.3745,2.7754a3.9124,3.9124,0,0,1,0-7.8c1.95,0,3.2246.9,3.3745,2.7744h-1.95a1.2862,1.2862,0,0,0-1.38-1.1992h-.09c-1.125,0-1.605,1.05-1.605,2.3242s.48,2.3252,1.605,2.3252h.09a1.2863,1.2863,0,0,0,1.38-1.2Z" transform="translate(-0.1797)"/>
        <path class="cls-10" d="M46.4985,179.8H44.5938a1.7438,1.7438,0,0,1-1.95-1.9492V173.875h-1.545v-1.5742h1.545V169.87h1.95v2.4307h1.68v1.5742h-1.68v3.45c0,.6748.15.8252.8247.8252h1.08Z" transform="translate(-0.1797)"/>
        <path class="cls-10" d="M47.8789,169.3008h2.1v2.0244h-2.1Zm.0747,3h1.95V179.8h-1.95Z" transform="translate(-0.1797)"/>
        <path class="cls-10" d="M51.4785,176.05a3.7529,3.7529,0,1,1,3.75,3.9A3.6629,3.6629,0,0,1,51.4785,176.05Zm5.5352,0c0-1.47-.6753-2.3242-1.7251-2.3242h-.12c-1.05,0-1.7251.8545-1.7251,2.3242s.6753,2.3252,1.7251,2.3252h.12C56.3384,178.375,57.0137,177.5205,57.0137,176.05Z" transform="translate(-0.1797)"/>
        <path class="cls-10" d="M62.5039,179.8h-1.95v-7.499h1.95v1.0947a2.6146,2.6146,0,0,1,2.2647-1.2451c1.8,0,2.61,1.2,2.61,2.85v4.8h-1.95v-4.5742c0-.9756-.435-1.5-1.185-1.5h-.12a1.7769,1.7769,0,0,0-1.62,1.9043Z" transform="translate(-0.1797)"/>
      </g>
      <g>
        <path class="cls-10" d="M1.23,466.8h3.6c3.15,0,5.3252,1.8008,5.3252,5.25s-2.1,5.25-5.25,5.25H1.23Zm3.45,8.7c2.0249,0,3.45-.8252,3.45-3.45s-1.4253-3.4492-3.45-3.4492H3.2549V475.5Z" transform="translate(-0.1797)"/>
        <path class="cls-10" d="M16.0347,476.3848a2.6416,2.6416,0,0,1-2.22,1.0654,2.2651,2.2651,0,0,1-2.46-2.2051c0-1.62,1.26-2.3554,2.7446-2.4755l1.89-.1641v-.1807a1.1536,1.1536,0,0,0-1.2148-1.2h-.09a1.1352,1.1352,0,0,0-1.2295.9h-1.95c.15-1.41,1.35-2.4746,3.2251-2.4746s3.15.9444,3.15,2.6992v3.3a12.7711,12.7711,0,0,0,.0747,1.65h-1.83A6.7541,6.7541,0,0,1,16.0347,476.3848Zm-1.74-.51A1.6422,1.6422,0,0,0,15.99,474.24v-.21l-1.62.165c-.4946.045-1.0947.3-1.0947.9151,0,.4648.4048.7646.9448.7646Z" transform="translate(-0.1797)"/>
        <path class="cls-10" d="M24.4194,477.3H22.5146a1.7441,1.7441,0,0,1-1.95-1.95V471.375H19.02V469.8h1.545v-2.43h1.95v2.43h1.68v1.5752h-1.68v3.45c0,.6748.15.8242.8248.8242h1.08Z" transform="translate(-0.1797)"/>
        <path class="cls-10" d="M30.0894,476.3848a2.6419,2.6419,0,0,1-2.22,1.0654,2.2651,2.2651,0,0,1-2.46-2.2051c0-1.62,1.26-2.3554,2.7446-2.4755l1.89-.1641v-.1807a1.1536,1.1536,0,0,0-1.2148-1.2h-.09a1.1352,1.1352,0,0,0-1.23.9H25.56c.15-1.41,1.35-2.4746,3.2251-2.4746s3.15.9444,3.15,2.6992v3.3a12.7711,12.7711,0,0,0,.0747,1.65h-1.83A6.7541,6.7541,0,0,1,30.0894,476.3848Zm-1.74-.51a1.6422,1.6422,0,0,0,1.6948-1.6347v-.21l-1.62.165c-.4946.045-1.0947.3-1.0947.9151,0,.4648.4048.7646.9448.7646Z" transform="translate(-0.1797)"/>
        <path class="cls-10" d="M33.36,474.8252H35.355a1.1346,1.1346,0,0,0,1.26,1.125h.12c.6,0,.99-.2851.99-.7353,0-.39-.2251-.6153-.7646-.75l-.9751-.24c-1.5752-.39-2.3252-1.05-2.3252-2.2646,0-1.35,1.1552-2.31,3.03-2.31,1.95,0,3.06.9746,3.06,2.625H37.8c-.0752-.7207-.45-1.125-1.125-1.125h-.12c-.5249,0-.9448.2842-.9448.7344,0,.4053.3447.6152.96.7656l1.0049.2549c1.44.3594,2.1,1.05,2.1,2.2344,0,1.2754-1.05,2.31-3.0752,2.31S33.36,476.4746,33.36,474.8252Z" transform="translate(-0.1797)"/>
        <path class="cls-10" d="M44.4893,477.45a3.611,3.611,0,0,1-3.57-3.9c0-2.25,1.32-3.8994,3.57-3.8994s3.42,1.6348,3.42,3.81c0,.2246-.0152.4648-.03.7051H42.81a1.7761,1.7761,0,0,0,1.71,1.71h.09a1.2928,1.2928,0,0,0,1.3349-.9453h1.9351A3.2384,3.2384,0,0,1,44.4893,477.45Zm-1.68-4.7851H46.019a1.485,1.485,0,0,0-1.5595-1.44h-.09A1.485,1.485,0,0,0,42.81,472.6651Z" transform="translate(-0.1797)"/>
        <path class="cls-10" d="M53.9844,477.3H52.08a1.7441,1.7441,0,0,1-1.95-1.95V471.375H48.5845V469.8h1.5449v-2.43h1.95v2.43h1.68v1.5752H52.08v3.45c0,.6748.15.8242.8247.8242h1.08Z" transform="translate(-0.1797)"/>
        <path class="cls-10" d="M5.1147,493.45a2.5512,2.5512,0,0,1-2.16-1.125V493.3h-1.95V482.8h1.95v3.9756a2.5488,2.5488,0,0,1,2.16-1.125c2.1749,0,3.33,1.875,3.33,3.8994S7.29,493.45,5.1147,493.45Zm-.33-1.5752c.9751,0,1.71-.915,1.71-2.34s-.7348-2.3106-1.71-2.3106h-.12c-.9,0-1.71.9-1.71,2.3252s.81,2.3252,1.71,2.3252Z" transform="translate(-0.1797)"/>
        <path class="cls-10" d="M14.6851,485.8h1.95v7.5h-1.95v-1.0947a2.5273,2.5273,0,0,1-2.19,1.2451c-1.7549,0-2.5351-1.2-2.5351-2.8506v-4.8h1.95v4.5752c0,.9746.4047,1.5,1.11,1.5h.12a1.754,1.754,0,0,0,1.545-1.9052Z" transform="translate(-0.1797)"/>
        <path class="cls-10" d="M18.57,482.8h2.1v2.0254h-2.1Zm.0747,3h1.95v7.5h-1.95Z" transform="translate(-0.1797)"/>
        <path class="cls-10" d="M22.6045,482.8h1.95v10.5h-1.95Z" transform="translate(-0.1797)"/>
        <path class="cls-10" d="M26.1294,489.55c0-2.0244,1.1553-3.8994,3.33-3.8994a2.5488,2.5488,0,0,1,2.16,1.125V482.8h1.95v10.5h-1.95v-.9746a2.5512,2.5512,0,0,1-2.16,1.125C27.2847,493.45,26.1294,491.5752,26.1294,489.55Zm3.78,2.3252c.9,0,1.71-.9,1.71-2.3252s-.8095-2.3252-1.71-2.3252h-.12c-.9751,0-1.71.8858-1.71,2.3106s.7349,2.34,1.71,2.34Z" transform="translate(-0.1797)"/>
        <path class="cls-10" d="M35.5049,482.8h2.1v2.0254h-2.1Zm.0747,3h1.95v7.5H35.58Z" transform="translate(-0.1797)"/>
        <path class="cls-10" d="M41.49,493.3H39.54v-7.5h1.95v1.0957a2.6147,2.6147,0,0,1,2.2647-1.2451c1.8,0,2.61,1.1992,2.61,2.85v4.8h-1.95v-4.5752c0-.9746-.4351-1.5-1.1851-1.5h-.12a1.7779,1.7779,0,0,0-1.62,1.9053Z" transform="translate(-0.1797)"/>
        <path class="cls-10" d="M47.7593,494.125h1.95c.09.51.66.8848,1.68.8848h.09a1.6453,1.6453,0,0,0,1.7549-1.7852V492.25a2.374,2.374,0,0,1-2.1153,1.05c-1.7246,0-3.24-1.35-3.24-3.8252s1.5151-3.8242,3.24-3.8242a2.374,2.374,0,0,1,2.1153,1.05v-.9h1.95v7.6651c0,1.5752-1.29,3.12-3.8848,3.12C49.3042,496.585,47.8345,495.58,47.7593,494.125Zm3.87-2.4c.9,0,1.605-.8252,1.605-2.25s-.7051-2.25-1.605-2.25h-.12c-.9448,0-1.68.8252-1.68,2.25s.7354,2.25,1.68,2.25Z" transform="translate(-0.1797)"/>
      </g>
      <g>
        <path class="cls-10" d="M1.23,783.8h3.6c3.15,0,5.3252,1.8008,5.3252,5.25s-2.1,5.25-5.25,5.25H1.23Zm3.45,8.7c2.0244,0,3.45-.8252,3.45-3.45s-1.4258-3.4492-3.45-3.4492H3.2549V792.5Z" transform="translate(-0.1797)"/>
        <path class="cls-10" d="M16.0342,793.3848a2.6409,2.6409,0,0,1-2.22,1.0654,2.2654,2.2654,0,0,1-2.46-2.2051c0-1.62,1.26-2.3554,2.7451-2.4755l1.89-.1641v-.1807a1.1537,1.1537,0,0,0-1.2149-1.2h-.09a1.1352,1.1352,0,0,0-1.2295.9h-1.95c.1494-1.41,1.35-2.4746,3.2246-2.4746s3.15.9444,3.15,2.6992v3.3a12.8564,12.8564,0,0,0,.0742,1.65h-1.83A6.8361,6.8361,0,0,1,16.0342,793.3848Zm-1.7393-.51a1.6421,1.6421,0,0,0,1.6944-1.6347v-.21l-1.62.165c-.4941.045-1.0947.3-1.0947.9151,0,.4648.4053.7646.9453.7646Z" transform="translate(-0.1797)"/>
        <path class="cls-10" d="M24.4189,794.3H22.5146a1.7439,1.7439,0,0,1-1.95-1.95V788.375H19.02V786.8h1.545v-2.43h1.95v2.43h1.68v1.5752h-1.68v3.45c0,.6748.1495.8242.8243.8242h1.08Z" transform="translate(-0.1797)"/>
        <path class="cls-10" d="M30.0889,793.3848a2.6411,2.6411,0,0,1-2.22,1.0654,2.2654,2.2654,0,0,1-2.46-2.2051c0-1.62,1.26-2.3554,2.7451-2.4755l1.89-.1641v-.1807a1.1536,1.1536,0,0,0-1.2148-1.2h-.09a1.1352,1.1352,0,0,0-1.23.9H25.56c.1494-1.41,1.35-2.4746,3.2246-2.4746s3.15.9444,3.15,2.6992v3.3a12.8564,12.8564,0,0,0,.0742,1.65h-1.83A6.8361,6.8361,0,0,1,30.0889,793.3848Zm-1.7393-.51a1.6421,1.6421,0,0,0,1.6943-1.6347v-.21l-1.62.165c-.4941.045-1.0947.3-1.0947.9151,0,.4648.4053.7646.9453.7646Z" transform="translate(-0.1797)"/>
        <path class="cls-10" d="M2.7744,810.3.18,802.8H2.25L4.23,808.86,6.1943,802.8h2.01l-2.5947,7.5Z" transform="translate(-0.1797)"/>
        <path class="cls-10" d="M9.3145,799.8h2.1v2.0254h-2.1Zm.0751,3h1.95v7.5H9.39Z" transform="translate(-0.1797)"/>
        <path class="cls-10" d="M12.8242,807.8252h1.9951a1.1347,1.1347,0,0,0,1.26,1.125h.12c.6,0,.99-.2851.99-.7353,0-.39-.2256-.6153-.7647-.75l-.9756-.24c-1.5752-.39-2.3252-1.05-2.3252-2.2646,0-1.35,1.1553-2.31,3.03-2.31,1.95,0,3.06.9746,3.06,2.625H17.2646c-.0751-.7207-.45-1.125-1.125-1.125h-.12c-.5254,0-.9453.2842-.9453.7344,0,.4053.3447.6152.96.7656l1.0049.2549c1.44.3594,2.1005,1.05,2.1005,2.2344,0,1.2754-1.0507,2.3105-3.0751,2.3105S12.8242,809.4746,12.8242,807.8252Z" transform="translate(-0.1797)"/>
        <path class="cls-10" d="M25.47,802.8h1.9492v7.5H25.47v-1.0947a2.5273,2.5273,0,0,1-2.19,1.2451c-1.7549,0-2.5352-1.2-2.5352-2.8506v-4.8h1.95v4.5752c0,.9746.4053,1.5,1.11,1.5h.12A1.7543,1.7543,0,0,0,25.47,806.97Z" transform="translate(-0.1797)"/>
        <path class="cls-10" d="M33.6445,809.3848a2.6422,2.6422,0,0,1-2.22,1.0654,2.2649,2.2649,0,0,1-2.46-2.2051c0-1.62,1.26-2.3554,2.7442-2.4755l1.8906-.1641v-.1807a1.1536,1.1536,0,0,0-1.2148-1.2h-.0909a1.1358,1.1358,0,0,0-1.2294.9h-1.95c.15-1.41,1.3505-2.4746,3.2255-2.4746s3.15.9444,3.15,2.6992v3.3a12.6868,12.6868,0,0,0,.0752,1.65h-1.83A6.6881,6.6881,0,0,1,33.6445,809.3848Zm-1.74-.51A1.6423,1.6423,0,0,0,33.6,807.24v-.21l-1.62.165c-.4951.045-1.0947.3-1.0947.9151,0,.4648.4043.7646.9443.7646Z" transform="translate(-0.1797)"/>
        <path class="cls-10" d="M37.44,799.8h1.95v10.5H37.44Z" transform="translate(-0.1797)"/>
        <path class="cls-10" d="M41.3242,799.8h2.1v2.0254h-2.1Zm.0752,3h1.95v7.5h-1.95Z" transform="translate(-0.1797)"/>
        <path class="cls-10" d="M44.94,810.3v-1.5l3.8691-4.2744h-3.794V802.8h6.2247v1.5l-3.87,4.2754h4.0948V810.3Z" transform="translate(-0.1797)"/>
        <path class="cls-10" d="M57.209,809.3848a2.6422,2.6422,0,0,1-2.22,1.0654,2.2649,2.2649,0,0,1-2.46-2.2051c0-1.62,1.26-2.3554,2.7441-2.4755l1.8907-.1641v-.1807a1.1537,1.1537,0,0,0-1.2149-1.2h-.0908a1.1359,1.1359,0,0,0-1.23.9h-1.95c.15-1.41,1.3506-2.4746,3.2256-2.4746s3.1494.9444,3.1494,2.6992v3.3a12.6868,12.6868,0,0,0,.0752,1.65h-1.83A6.6741,6.6741,0,0,1,57.209,809.3848Zm-1.74-.51a1.6424,1.6424,0,0,0,1.6953-1.6347v-.21l-1.62.165c-.4951.045-1.0947.3-1.0947.9151,0,.4648.4043.7646.9444.7646Z" transform="translate(-0.1797)"/>
        <path class="cls-10" d="M65.5938,810.3H63.6885a1.7444,1.7444,0,0,1-1.95-1.95V804.375H60.1934V802.8h1.5449v-2.43h1.95v2.43h1.68v1.5752h-1.68v3.45c0,.6748.15.8242.8252.8242h1.08Z" transform="translate(-0.1797)"/>
        <path class="cls-10" d="M66.9736,799.8h2.1v2.0254h-2.1Zm.0752,3h1.95v7.5h-1.95Z" transform="translate(-0.1797)"/>
        <path class="cls-10" d="M70.5732,806.55a3.7529,3.7529,0,1,1,3.75,3.9A3.6629,3.6629,0,0,1,70.5732,806.55Zm5.5352,0c0-1.47-.6748-2.3252-1.7246-2.3252h-.12c-1.05,0-1.7256.8555-1.7256,2.3252s.6758,2.3252,1.7256,2.3252h.12C75.4336,808.875,76.1084,808.02,76.1084,806.55Z" transform="translate(-0.1797)"/>
        <path class="cls-10" d="M81.5986,810.3h-1.95v-7.5h1.95v1.0957a2.6135,2.6135,0,0,1,2.2647-1.2451c1.8,0,2.6094,1.1992,2.6094,2.85v4.8H84.5234v-4.5752c0-.9746-.4355-1.5-1.1855-1.5h-.12a1.7779,1.7779,0,0,0-1.6192,1.9053Z" transform="translate(-0.1797)"/>
      </g>
      <g>
        <path class="cls-11" d="M342.106,36.11h-3.0245l-.8637,3.9844h-2.5684l.8643-3.9844H334.041V33.6382h3l.8159-3.8882h-2.7842V27.2779h3.3125l.8638-3.9844h2.5684l-.8643,3.9844h3.0244l.84-3.9844h2.5678l-.84,3.9844h2.4482V29.75h-2.976l-.816,3.8882h2.76V36.11h-3.2886l-.84,3.9844h-2.5684Zm1.3442-6.36h-3.0244l-.8164,3.8882h3.0244Z" transform="translate(-0.1797)"/>
        <path class="cls-11" d="M350.9365,34.0943c0-3.5523,2.0645-6.2408,5.3526-6.2408a4.2152,4.2152,0,0,1,3.5761,1.8482V23.2935h2.7608V40.0948h-2.7608v-1.608a4.4026,4.4026,0,0,1-3.6718,1.8482C352.9048,40.335,350.9365,37.6465,350.9365,34.0943Zm8.9287,0c0-2.5445-1.4638-3.9844-3.0239-3.9844h-.1919c-1.6806,0-2.9521,1.44-2.9521,3.96,0,2.544,1.2715,4.0083,2.9521,4.0083h.1919C358.4014,38.0786,359.8652,36.6387,359.8652,34.0943Z" transform="translate(-0.1797)"/>
        <path class="cls-11" d="M369.1533,40.335a3.6407,3.6407,0,0,1-3.9365-3.5283c0-2.6646,2.1841-3.6963,4.3682-3.8648l3.1445-.2637v-.3359a2.0669,2.0669,0,0,0-2.1846-2.2324h-.1435a1.9978,1.9978,0,0,0-2.1846,1.6079h-2.76c.1919-2.2319,2.1358-3.8643,5.0161-3.8643,3.0723,0,4.9683,1.7764,4.9683,4.4165v5.1846a20.3245,20.3245,0,0,0,.12,2.64H372.97a14.558,14.558,0,0,1-.1445-1.6563A4.2131,4.2131,0,0,1,369.1533,40.335Zm.648-2.2564a2.8735,2.8735,0,0,0,2.9282-2.64v-.6963l-2.76.24c-1.0561.0958-2.0405.6241-2.0405,1.6563a1.5349,1.5349,0,0,0,1.7041,1.44Z" transform="translate(-0.1797)"/>
        <path class="cls-11" d="M378.7046,28.0938h2.7124V30.59a3.4724,3.4724,0,0,1,3.48-2.6162h.8159v2.5922h-1.0317c-2.0884,0-3.2164,1.1763-3.2164,3.36v6.1685h-2.76Z" transform="translate(-0.1797)"/>
        <path class="cls-11" d="M392.145,34.8145l-1.5122,1.5117v3.7686h-2.76V23.2935h2.76v9.6006l4.7525-4.8h3.48L394.0889,32.87l5.0166,7.2247H395.793Z" transform="translate(-0.1797)"/>
        <path class="cls-11" d="M408.0566,40.0948h-2.976a2.62,2.62,0,0,1-2.9043-2.9043V30.374h-2.5445v-2.28h2.5445V24.2056h2.76v3.8882h2.76v2.28h-2.76v6.1685c0,.936.24,1.1763,1.1763,1.1763h1.9438Z" transform="translate(-0.1797)"/>
        <path class="cls-11" d="M409.5684,34.0943c0-3.6485,2.4482-6.2408,5.8808-6.2408,3.4561,0,5.9043,2.5923,5.9043,6.2408s-2.4482,6.2407-5.9043,6.2407C412.0166,40.335,409.5684,37.7427,409.5684,34.0943Zm9.0009,0c0-2.52-1.2241-3.9844-3-3.9844h-.2163c-1.7759,0-3.0244,1.4643-3.0244,3.9844s1.2485,3.9843,3.0244,3.9843h.2163C417.3452,38.0786,418.5693,36.6143,418.5693,34.0943Z" transform="translate(-0.1797)"/>
        <path class="cls-11" d="M434.3379,40.0948h-2.7608V38.1265a3.9174,3.9174,0,0,1-3.6484,2.2085c-2.7358,0-4.0561-1.8726-4.0561-4.4649V28.0938h2.76v7.3686c0,1.7281.72,2.6162,2.04,2.6162h.2163c1.44,0,2.6879-1.416,2.6879-3.3842V28.0938h2.7608Z" transform="translate(-0.1797)"/>
        <path class="cls-11" d="M437.6963,28.0938h2.7124V30.59a3.4734,3.4734,0,0,1,3.4805-2.6162h.8159v2.5922h-1.0322c-2.0879,0-3.2159,1.1763-3.2159,3.36v6.1685h-2.7607Z" transform="translate(-0.1797)"/>
        <path class="cls-11" d="M446.7686,23.2935h3V26.27h-3Zm.0957,4.8h2.76v12.001h-2.76Z" transform="translate(-0.1797)"/>
        <path class="cls-11" d="M452.0957,36.2305H454.88a2.0759,2.0759,0,0,0,2.3047,1.92h.1914c1.08,0,1.872-.5278,1.872-1.3437,0-.6963-.4077-1.1285-1.416-1.3443l-1.6318-.36c-2.28-.5284-3.624-1.5606-3.624-3.5528,0-2.2558,1.9677-3.6963,4.7041-3.6963,3.1445,0,4.8486,1.6084,4.8486,4.1045h-2.7607a1.94,1.94,0,0,0-2.04-1.92h-.2158c-1.0322,0-1.7764.5757-1.7764,1.3438,0,.6723.5039,1.104,1.584,1.3442l1.7285.4082c2.1123.48,3.36,1.5361,3.36,3.5522,0,2.0879-1.8,3.6485-4.8486,3.6485C453.9438,40.335,452.1436,38.7266,452.0957,36.2305Z" transform="translate(-0.1797)"/>
        <path class="cls-11" d="M467.5518,40.0948h-2.76V28.0938h2.76v1.7041a4.1737,4.1737,0,0,1,3.6005-1.9444,3.9574,3.9574,0,0,1,3.792,2.1363,4.4529,4.4529,0,0,1,3.961-2.1363c2.9756,0,4.2959,1.8965,4.2959,4.4644v7.7769h-2.76V32.75c0-1.6318-.6245-2.5683-2.1123-2.5683h-.168a2.9668,2.9668,0,0,0-2.7841,3.2163v6.6968h-2.7608V32.75c0-1.6318-.624-2.5683-2.1123-2.5683h-.168a2.9671,2.9671,0,0,0-2.7841,3.2163Z" transform="translate(-0.1797)"/>
      </g>
      <g>
        <path class="cls-11" d="M349.2456,204.2935h2.88v16.8013h-2.88Z" transform="translate(-0.1797)"/>
        <path class="cls-11" d="M358.63,221.0948h-2.7608v-12.001H358.63v1.728a4.2578,4.2578,0,0,1,3.72-1.9683c2.8325,0,4.249,1.8243,4.249,4.4165v7.8248h-2.7607v-7.4166c0-1.6084-.72-2.5683-2.1123-2.5683H361.51a3.06,3.06,0,0,0-2.88,3.2881Z" transform="translate(-0.1797)"/>
        <path class="cls-11" d="M368.9487,217.2305h2.7847a2.075,2.075,0,0,0,2.3037,1.92h.1924c1.08,0,1.8721-.5278,1.8721-1.3437,0-.6963-.4082-1.1285-1.4161-1.3443l-1.6323-.36c-2.28-.5284-3.6245-1.5606-3.6245-3.5528,0-2.2558,1.9683-3.6963,4.7046-3.6963,3.144,0,4.8481,1.6084,4.8481,4.1045h-2.76a1.94,1.94,0,0,0-2.0405-1.92h-.2159c-1.0322,0-1.7763.5757-1.7763,1.3438,0,.6723.5044,1.104,1.5844,1.3442l1.7281.4082c2.1118.48,3.36,1.5361,3.36,3.5522,0,2.0879-1.8,3.6485-4.8481,3.6485C370.7969,221.335,368.9971,219.7266,368.9487,217.2305Z" transform="translate(-0.1797)"/>
        <path class="cls-11" d="M388.7974,221.0948h-2.9761a2.62,2.62,0,0,1-2.9043-2.9043V211.374h-2.5444v-2.28h2.5444v-3.8882h2.76v3.8882h2.7607v2.28h-2.7607v6.1685c0,.936.24,1.1763,1.1767,1.1763h1.9439Z" transform="translate(-0.1797)"/>
        <path class="cls-11" d="M394.3169,221.335a3.64,3.64,0,0,1-3.936-3.5283c0-2.6646,2.1836-3.6963,4.3681-3.8648l3.1446-.2637v-.3359a2.0672,2.0672,0,0,0-2.1846-2.2324h-.1441a1.9971,1.9971,0,0,0-2.184,1.6079h-2.76c.1919-2.2319,2.1362-3.8643,5.0161-3.8643,3.0723,0,4.9688,1.7764,4.9688,4.4165v5.1846a20.3245,20.3245,0,0,0,.12,2.64h-2.5923a14.4367,14.4367,0,0,1-.144-1.6563A4.2141,4.2141,0,0,1,394.3169,221.335Zm.6479-2.2564a2.8737,2.8737,0,0,0,2.9288-2.64v-.6963l-2.7608.24c-1.0557.0958-2.04.6241-2.04,1.6563a1.5346,1.5346,0,0,0,1.7041,1.44Z" transform="translate(-0.1797)"/>
        <path class="cls-11" d="M403.8687,204.2935h2.76v16.8013h-2.76Z" transform="translate(-0.1797)"/>
        <path class="cls-11" d="M409.2681,215.0943c0-3.6485,2.4482-6.2408,5.88-6.2408,3.4566,0,5.9048,2.5923,5.9048,6.2408s-2.4482,6.2407-5.9048,6.2407C411.7163,221.335,409.2681,218.7427,409.2681,215.0943Zm9.0009,0c0-2.52-1.2241-3.9844-3-3.9844h-.2159c-1.7763,0-3.0244,1.4643-3.0244,3.9844s1.2481,3.9843,3.0244,3.9843h.2159C417.0449,219.0786,418.269,217.6143,418.269,215.0943Z" transform="translate(-0.1797)"/>
        <path class="cls-11" d="M426.86,221.335a3.6405,3.6405,0,0,1-3.9361-3.5283c0-2.6646,2.1841-3.6963,4.3687-3.8648l3.144-.2637v-.3359a2.067,2.067,0,0,0-2.1841-2.2324h-.1445a1.997,1.997,0,0,0-2.1836,1.6079h-2.7607c.1923-2.2319,2.1367-3.8643,5.0166-3.8643,3.0722,0,4.9687,1.7764,4.9687,4.4165v5.1846a20.3245,20.3245,0,0,0,.12,2.64h-2.5927a14.4306,14.4306,0,0,1-.1436-1.6563A4.2147,4.2147,0,0,1,426.86,221.335Zm.6484-2.2564a2.8735,2.8735,0,0,0,2.9282-2.64v-.6963l-2.76.24c-1.0562.0958-2.04.6241-2.04,1.6563a1.5344,1.5344,0,0,0,1.7041,1.44Z" transform="translate(-0.1797)"/>
        <path class="cls-11" d="M435.7163,215.0943c0-3.5523,2.064-6.2408,5.3525-6.2408a4.216,4.216,0,0,1,3.5762,1.8482v-6.4082h2.76v16.8013h-2.76v-1.608a4.4036,4.4036,0,0,1-3.6723,1.8482C437.6846,221.335,435.7163,218.6465,435.7163,215.0943Zm8.9287,0c0-2.5445-1.4643-3.9844-3.0239-3.9844h-.1924c-1.68,0-2.9521,1.44-2.9521,3.96,0,2.544,1.2719,4.0083,2.9521,4.0083h.1924C443.1807,219.0786,444.645,217.6387,444.645,215.0943Z" transform="translate(-0.1797)"/>
        <path class="cls-11" d="M455.7568,221.335c-3,0-5.6884-2.1846-5.6884-6.2407,0-3.84,2.3759-6.2408,5.64-6.2408,3.4087,0,5.3286,2.4244,5.3286,5.7369,0,.2158-.0244,1.0078-.0478,1.2241h-8.233a3.22,3.22,0,0,0,3.024,3.2641h.1445a2.2473,2.2473,0,0,0,2.3281-1.68h2.7364A4.9561,4.9561,0,0,1,455.7568,221.335Zm2.5679-7.6568a2.4956,2.4956,0,0,0-2.5923-2.5683h-.1679a2.6948,2.6948,0,0,0-2.7364,2.5683Z" transform="translate(-0.1797)"/>
        <path class="cls-11" d="M463.6519,209.0938h2.7124V211.59a3.4724,3.4724,0,0,1,3.48-2.6162h.816v2.5922h-1.0318c-2.0884,0-3.2163,1.1763-3.2163,3.36v6.1685h-2.76Z" transform="translate(-0.1797)"/>
      </g>
      <g>
        <path class="cls-3" d="M341.0234,244.7486h2.1748l4.08,10.4995h-1.89l-.99-2.565h-4.665l-.99,2.565h-1.8741Zm1.0352,1.875-1.71,4.4394h3.42Z" transform="translate(-0.1797)"/>
        <path class="cls-3" d="M354.8232,255.2481h-1.7246v-1.23a2.4485,2.4485,0,0,1-2.28,1.38c-1.71,0-2.5342-1.17-2.5342-2.79v-4.86h1.7246v4.6045c0,1.08.45,1.6352,1.2744,1.6352h.1357a1.9157,1.9157,0,0,0,1.68-2.1152v-4.1245h1.7246Z" transform="translate(-0.1797)"/>
        <path class="cls-3" d="M361.3936,255.2481h-1.86a1.6371,1.6371,0,0,1-1.8144-1.815v-4.26h-1.59v-1.4248h1.59v-2.43h1.7246v2.43h1.7255v1.4248h-1.7255v3.8549c0,.585.15.7349.7353.7349h1.2149Z" transform="translate(-0.1797)"/>
        <path class="cls-3" d="M362.3389,251.4981a3.6887,3.6887,0,1,1,3.6748,3.9A3.6478,3.6478,0,0,1,362.3389,251.4981Zm5.625,0c0-1.5747-.7647-2.49-1.875-2.49h-.1348c-1.11,0-1.8906.9151-1.8906,2.49s.78,2.49,1.8906,2.49h.1348C367.1992,253.9883,367.9639,253.0733,367.9639,251.4981Z" transform="translate(-0.1797)"/>
        <path class="cls-3" d="M373.0791,255.2481h-1.7256v-7.4995h1.7256v1.0649a2.607,2.607,0,0,1,2.25-1.2153,2.4719,2.4719,0,0,1,2.3691,1.3349,2.7831,2.7831,0,0,1,2.4756-1.3349,2.4964,2.4964,0,0,1,2.6846,2.79v4.86h-1.7246v-4.59c0-1.02-.3906-1.605-1.32-1.605h-.1045a1.8541,1.8541,0,0,0-1.74,2.01v4.1851h-1.7247v-4.59c0-1.02-.3906-1.605-1.32-1.605h-.1054a1.8541,1.8541,0,0,0-1.7393,2.01Z" transform="translate(-0.1797)"/>
        <path class="cls-3" d="M386.8633,255.398a2.2751,2.2751,0,0,1-2.46-2.2046c0-1.6651,1.3653-2.31,2.7305-2.4151l1.9648-.165v-.21a1.292,1.292,0,0,0-1.3652-1.395h-.09a1.2492,1.2492,0,0,0-1.3653,1.0049h-1.7246c.12-1.395,1.335-2.415,3.1348-2.415,1.92,0,3.1054,1.11,3.1054,2.76v3.24a12.8317,12.8317,0,0,0,.0743,1.65h-1.62a9.3255,9.3255,0,0,1-.09-1.0352A2.6319,2.6319,0,0,1,386.8633,255.398Zm.4053-1.41a1.7957,1.7957,0,0,0,1.83-1.65v-.4351l-1.7246.15c-.66.06-1.2754.39-1.2754,1.0347a.9594.9594,0,0,0,1.0655.9Z" transform="translate(-0.1797)"/>
        <path class="cls-3" d="M397.2285,255.2481h-1.86a1.6372,1.6372,0,0,1-1.8145-1.815v-4.26h-1.59v-1.4248h1.59v-2.43h1.7246v2.43h1.7256v1.4248h-1.7256v3.8549c0,.585.15.7349.7354.7349h1.2148Z" transform="translate(-0.1797)"/>
        <path class="cls-3" d="M401.7441,255.398a3.5658,3.5658,0,0,1-3.5556-3.9c0-2.4,1.4853-3.9,3.5254-3.9,2.13,0,3.33,1.5151,3.33,3.5849,0,.1353-.0156.63-.03.7652h-5.1446a2.012,2.012,0,0,0,1.89,2.04h.09a1.4046,1.4046,0,0,0,1.4551-1.05h1.71A3.0975,3.0975,0,0,1,401.7441,255.398Zm1.6045-4.7847a1.56,1.56,0,0,0-1.62-1.605h-.1045a1.6832,1.6832,0,0,0-1.71,1.605Z" transform="translate(-0.1797)"/>
        <path class="cls-3" d="M406.2432,251.4981c0-2.22,1.29-3.9,3.3457-3.9a2.6335,2.6335,0,0,1,2.2343,1.1552v-4.0048h1.7256v10.4995h-1.7256v-1.0049a2.7514,2.7514,0,0,1-2.2949,1.1548C407.4736,255.398,406.2432,253.7183,406.2432,251.4981Zm5.58,0c0-1.59-.915-2.49-1.89-2.49h-.12c-1.05,0-1.8447.9-1.8447,2.4751,0,1.59.7949,2.5049,1.8447,2.5049h.12C410.9082,253.9883,411.8232,253.0879,411.8232,251.4981Z" transform="translate(-0.1797)"/>
        <path class="cls-3" d="M418.6641,252.833h1.7392a1.2974,1.2974,0,0,0,1.44,1.2h.12c.6748,0,1.17-.33,1.17-.84,0-.4351-.2549-.7051-.8848-.84l-1.0205-.2251c-1.4248-.33-2.2646-.9747-2.2646-2.22,0-1.41,1.2295-2.31,2.9394-2.31,1.9649,0,3.03,1.0053,3.03,2.5649H423.209a1.2124,1.2124,0,0,0-1.2754-1.2h-.1348c-.6455,0-1.11.36-1.11.84,0,.42.3154.69.99.84l1.08.2554c1.3193.3,2.1.96,2.1,2.22,0,1.3047-1.125,2.28-3.03,2.28C419.8184,255.398,418.6934,254.3931,418.6641,252.833Z" transform="translate(-0.1797)"/>
        <path class="cls-3" d="M433.0029,252.6831c-.1494,1.77-1.3945,2.7149-3.2392,2.7149a3.9123,3.9123,0,0,1,0-7.8c1.8447,0,3.09.9453,3.2392,2.7153h-1.7246a1.4124,1.4124,0,0,0-1.47-1.3052h-.1055c-1.26,0-1.8144,1.1548-1.8144,2.49s.5547,2.49,1.8144,2.49h.1055a1.4127,1.4127,0,0,0,1.47-1.3052Z" transform="translate(-0.1797)"/>
        <path class="cls-3" d="M434.6084,247.7486h1.6953v1.5595a2.17,2.17,0,0,1,2.1748-1.6347h.51v1.62h-.6455a1.8461,1.8461,0,0,0-2.01,2.1v3.855h-1.7246Z" transform="translate(-0.1797)"/>
        <path class="cls-3" d="M442.1826,255.398a2.275,2.275,0,0,1-2.46-2.2046c0-1.6651,1.3652-2.31,2.73-2.4151l1.9649-.165v-.21a1.292,1.292,0,0,0-1.3653-1.395h-.09a1.2491,1.2491,0,0,0-1.3652,1.0049H439.873c.12-1.395,1.335-2.415,3.1348-2.415,1.92,0,3.1055,1.11,3.1055,2.76v3.24a12.8488,12.8488,0,0,0,.0742,1.65h-1.62a9.3271,9.3271,0,0,1-.09-1.0352A2.6319,2.6319,0,0,1,442.1826,255.398Zm.4053-1.41a1.7957,1.7957,0,0,0,1.83-1.65v-.4351l-1.7246.15c-.66.06-1.2754.39-1.2754,1.0347a.9593.9593,0,0,0,1.0654.9Z" transform="translate(-0.1797)"/>
        <path class="cls-3" d="M455.458,251.4981c0,2.22-1.29,3.9-3.3447,3.9a2.6366,2.6366,0,0,1-2.2354-1.1548v4.0049h-1.7246v-10.5h1.7246v1.0048a2.7534,2.7534,0,0,1,2.295-1.1552C454.2275,247.5982,455.458,249.2783,455.458,251.4981Zm-5.58,0c0,1.59.9151,2.49,1.8907,2.49h.1191c1.0508,0,1.8457-.9,1.8457-2.4751,0-1.59-.7949-2.5049-1.8457-2.5049h-.1191C450.793,249.0083,449.8779,249.9082,449.8779,251.4981Z" transform="translate(-0.1797)"/>
        <path class="cls-3" d="M457.0625,244.7486h1.875v1.86h-1.875Zm.06,3h1.7247v7.4995H457.123Z" transform="translate(-0.1797)"/>
        <path class="cls-3" d="M462.6729,255.2481h-1.7247v-7.4995h1.7247v1.08a2.6618,2.6618,0,0,1,2.3251-1.23,2.4882,2.4882,0,0,1,2.6553,2.76v4.89h-1.7256v-4.6348c0-1.0049-.45-1.605-1.3193-1.605h-.1357a1.9121,1.9121,0,0,0-1.8,2.0547Z" transform="translate(-0.1797)"/>
        <path class="cls-3" d="M469.123,256.1328h1.7247c.12.6153.7949.99,1.8144.99h.1055a1.7863,1.7863,0,0,0,1.9345-1.98v-1.0049a2.4723,2.4723,0,0,1-2.1591,1.11c-1.7256,0-3.2852-1.29-3.2852-3.8247s1.53-3.8252,3.2852-3.8252a2.4364,2.4364,0,0,1,2.1591,1.11v-.96h1.7256v7.5893c0,1.71-1.3056,3.1948-3.7949,3.1948C470.5928,258.5327,469.2275,257.543,469.123,256.1328Zm3.795-2.2949c.9443,0,1.7841-.9,1.7841-2.4145s-.8095-2.4151-1.7548-2.4151h-.1348c-.99,0-1.83.7949-1.83,2.4151s.8106,2.4145,1.8,2.4145Z" transform="translate(-0.1797)"/>
        <path class="cls-3" d="M309.0527,269.4981a3.6882,3.6882,0,1,1,3.6748,3.9A3.6473,3.6473,0,0,1,309.0527,269.4981Zm5.6241,0c0-1.5747-.7647-2.49-1.875-2.49h-.1348c-1.1094,0-1.89.9151-1.89,2.49s.78,2.49,1.89,2.49h.1348C313.9121,271.9883,314.6768,271.0733,314.6768,269.4981Z" transform="translate(-0.1797)"/>
        <path class="cls-3" d="M318.7578,267.1734h-1.5752v-1.4248h1.5752v-1.2154a1.598,1.598,0,0,1,1.8-1.7846h2.1143v1.455h-1.4551c-.585,0-.7344.15-.7344.7349v.81h1.8145v1.4248h-1.8145v6.0747h-1.7246Z" transform="translate(-0.1797)"/>
        <path class="cls-3" d="M331.1475,273.2481h-1.86a1.6371,1.6371,0,0,1-1.8144-1.815v-4.26h-1.59v-1.4248h1.59v-2.43h1.7246v2.43h1.7256v1.4248h-1.7256v3.8549c0,.585.15.7349.7353.7349h1.2149Z" transform="translate(-0.1797)"/>
        <path class="cls-3" d="M334.3428,273.2481h-1.7256v-10.5h1.7256v4.08a2.6614,2.6614,0,0,1,2.3242-1.23,2.4878,2.4878,0,0,1,2.6553,2.76v4.89h-1.7246v-4.6348c0-1.0049-.45-1.605-1.32-1.605h-.1347a1.9121,1.9121,0,0,0-1.8,2.0547Z" transform="translate(-0.1797)"/>
        <path class="cls-3" d="M344.4668,273.398a3.5652,3.5652,0,0,1-3.5547-3.9c0-2.4,1.4854-3.9,3.5244-3.9,2.13,0,3.33,1.5151,3.33,3.5849,0,.1353-.0146.63-.0293.7652h-5.1455a2.0126,2.0126,0,0,0,1.8906,2.04h.09a1.4044,1.4044,0,0,0,1.455-1.05h1.71A3.0978,3.0978,0,0,1,344.4668,273.398Zm1.6055-4.7847a1.56,1.56,0,0,0-1.62-1.605h-.1054a1.6845,1.6845,0,0,0-1.71,1.605Z" transform="translate(-0.1797)"/>
        <path class="cls-3" d="M352.582,270.4131h1.77a1.6918,1.6918,0,0,0,1.8447,1.4551h.15a1.6388,1.6388,0,0,0,1.83-1.56c0-.9751-.78-1.5449-1.875-1.5449h-.795v-1.53h.75a1.6516,1.6516,0,0,0,1.8594-1.59,1.5681,1.5681,0,0,0-1.7246-1.5152h-.15a1.6491,1.6491,0,0,0-1.71,1.4849h-1.7548a3.2812,3.2812,0,0,1,3.57-3.0146c2.0849,0,3.54,1.3046,3.54,2.8647a2.51,2.51,0,0,1-1.83,2.49,2.5028,2.5028,0,0,1,1.9043,2.475c0,1.83-1.5595,2.97-3.6894,2.97S352.6719,272.2583,352.582,270.4131Z" transform="translate(-0.1797)"/>
        <path class="cls-3" d="M361.582,267.9981c0-3.36,1.545-5.3994,4.2-5.3994s4.2149,2.0395,4.2149,5.3994-1.5157,5.4-4.2149,5.4S361.582,271.3579,361.582,267.9981Zm4.2744,3.87c1.4258,0,2.37-1.2749,2.37-3.87s-.9444-3.87-2.37-3.87h-.1347c-1.4248,0-2.37,1.2749-2.37,3.87s.9453,3.87,2.37,3.87Z" transform="translate(-0.1797)"/>
        <path class="cls-3" d="M371.5713,267.9981c0-3.36,1.5449-5.3994,4.2-5.3994s4.2148,2.0395,4.2148,5.3994-1.5146,5.4-4.2148,5.4S371.5713,271.3579,371.5713,267.9981Zm4.2754,3.87c1.4248,0,2.37-1.2749,2.37-3.87s-.9453-3.87-2.37-3.87h-.1348c-1.4258,0-2.37,1.2749-2.37,3.87s.9443,3.87,2.37,3.87Z" transform="translate(-0.1797)"/>
        <path class="cls-3" d="M387.126,273.2481h-1.7246v-7.5h1.7246v1.0649a2.6082,2.6082,0,0,1,2.25-1.2153,2.4735,2.4735,0,0,1,2.37,1.3349,2.7824,2.7824,0,0,1,2.4746-1.3349,2.4966,2.4966,0,0,1,2.6855,2.79v4.86h-1.7255v-4.59c0-1.02-.39-1.605-1.3194-1.605h-.1054a1.8542,1.8542,0,0,0-1.74,2.01v4.1851H390.291v-4.59c0-1.02-.39-1.605-1.32-1.605h-.1045a1.8542,1.8542,0,0,0-1.74,2.01Z" transform="translate(-0.1797)"/>
        <path class="cls-3" d="M398.4814,269.4981a3.6882,3.6882,0,1,1,3.6748,3.9A3.6473,3.6473,0,0,1,398.4814,269.4981Zm5.6241,0c0-1.5747-.7647-2.49-1.875-2.49h-.1348c-1.1094,0-1.89.9151-1.89,2.49s.78,2.49,1.89,2.49h.1348C403.3408,271.9883,404.1055,271.0733,404.1055,269.4981Z" transform="translate(-0.1797)"/>
        <path class="cls-3" d="M406.9414,270.833h1.7393a1.2974,1.2974,0,0,0,1.44,1.2h.12c.6748,0,1.17-.33,1.17-.84,0-.4351-.2549-.7051-.8847-.84l-1.0205-.2251c-1.4248-.33-2.2647-.9747-2.2647-2.22,0-1.41,1.23-2.31,2.94-2.31,1.9648,0,3.03,1.0053,3.03,2.5649h-1.7246a1.2124,1.2124,0,0,0-1.2754-1.2h-.1347c-.6455,0-1.11.36-1.11.84,0,.42.3154.69.99.84l1.08.2554c1.3194.3,2.1.96,2.1,2.22,0,1.3047-1.125,2.28-3.03,2.28C408.0957,273.398,406.9707,272.3931,406.9414,270.833Z" transform="translate(-0.1797)"/>
        <path class="cls-3" d="M419.3457,273.2481h-1.86a1.6372,1.6372,0,0,1-1.8145-1.815v-4.26h-1.59v-1.4248h1.59v-2.43h1.7246v2.43h1.7256v1.4248h-1.7256v3.8549c0,.585.15.7349.7354.7349h1.2148Z" transform="translate(-0.1797)"/>
        <path class="cls-3" d="M424.3857,265.7486h1.6954v1.56a2.17,2.17,0,0,1,2.1748-1.6347h.51v1.62H428.12a1.846,1.846,0,0,0-2.01,2.1v3.855h-1.7247Z" transform="translate(-0.1797)"/>
        <path class="cls-3" d="M433.0254,273.398a3.5652,3.5652,0,0,1-3.5547-3.9c0-2.4,1.4854-3.9,3.5244-3.9,2.13,0,3.33,1.5151,3.33,3.5849,0,.1353-.0147.63-.0293.7652H431.15a2.0126,2.0126,0,0,0,1.8906,2.04h.09a1.4044,1.4044,0,0,0,1.455-1.05h1.71A3.0978,3.0978,0,0,1,433.0254,273.398Zm1.6055-4.7847a1.56,1.56,0,0,0-1.62-1.605h-.1054a1.6845,1.6845,0,0,0-1.71,1.605Z" transform="translate(-0.1797)"/>
        <path class="cls-3" d="M444.3652,270.6831c-.15,1.77-1.3955,2.7149-3.24,2.7149a3.9124,3.9124,0,0,1,0-7.8c1.8447,0,3.09.9453,3.24,2.7153h-1.7246a1.4132,1.4132,0,0,0-1.4707-1.3052h-.1045c-1.26,0-1.8154,1.1548-1.8154,2.49s.5557,2.49,1.8154,2.49h.1045a1.4136,1.4136,0,0,0,1.4707-1.3052Z" transform="translate(-0.1797)"/>
        <path class="cls-3" d="M449.0908,273.398a3.5658,3.5658,0,0,1-3.5556-3.9c0-2.4,1.4853-3.9,3.5253-3.9,2.13,0,3.33,1.5151,3.33,3.5849,0,.1353-.0156.63-.03.7652h-5.1446a2.012,2.012,0,0,0,1.89,2.04h.09a1.4046,1.4046,0,0,0,1.4551-1.05h1.71A3.0975,3.0975,0,0,1,449.0908,273.398Zm1.6045-4.7847a1.56,1.56,0,0,0-1.62-1.605h-.1045a1.6833,1.6833,0,0,0-1.71,1.605Z" transform="translate(-0.1797)"/>
        <path class="cls-3" d="M455.75,273.2481h-1.7246v-7.5H455.75v1.08a2.6621,2.6621,0,0,1,2.3252-1.23,2.4883,2.4883,0,0,1,2.6553,2.76v4.89h-1.7256v-4.6348c0-1.0049-.45-1.605-1.3194-1.605H457.55a1.9121,1.9121,0,0,0-1.8,2.0547Z" transform="translate(-0.1797)"/>
        <path class="cls-3" d="M467.165,273.2481h-1.86a1.6372,1.6372,0,0,1-1.8145-1.815v-4.26H461.9v-1.4248h1.59v-2.43h1.7246v2.43H466.94v1.4248h-1.7256v3.8549c0,.585.15.7349.7354.7349h1.2148Z" transform="translate(-0.1797)"/>
        <path class="cls-3" d="M479.51,269.4981c0,2.22-1.29,3.9-3.3448,3.9a2.6364,2.6364,0,0,1-2.2353-1.1548v4.0049h-1.7246v-10.5H473.93v1.0048a2.7533,2.7533,0,0,1,2.2949-1.1552C478.2793,265.5982,479.51,267.2783,479.51,269.4981Zm-5.58,0c0,1.59.915,2.49,1.8906,2.49h.1192c1.0507,0,1.8457-.9,1.8457-2.4751,0-1.59-.795-2.5049-1.8457-2.5049H475.82C474.8447,267.0083,473.93,267.9082,473.93,269.4981Z" transform="translate(-0.1797)"/>
        <path class="cls-3" d="M480.7246,269.4981a3.6887,3.6887,0,1,1,3.6748,3.9A3.6479,3.6479,0,0,1,480.7246,269.4981Zm5.625,0c0-1.5747-.7646-2.49-1.875-2.49H484.34c-1.11,0-1.8906.9151-1.8906,2.49s.78,2.49,1.8906,2.49h.1348C485.585,271.9883,486.35,271.0733,486.35,269.4981Z" transform="translate(-0.1797)"/>
        <path class="cls-3" d="M489.1846,270.833h1.74a1.2971,1.2971,0,0,0,1.44,1.2h.12c.6748,0,1.17-.33,1.17-.84,0-.4351-.2549-.7051-.8848-.84l-1.0195-.2251c-1.4258-.33-2.2656-.9747-2.2656-2.22,0-1.41,1.23-2.31,2.94-2.31,1.9648,0,3.0293,1.0053,3.0293,2.5649H493.73a1.2124,1.2124,0,0,0-1.2754-1.2h-.1348c-.6445,0-1.1093.36-1.1093.84,0,.42.3144.69.9892.84l1.08.2554c1.32.3,2.1006.96,2.1006,2.22,0,1.3047-1.125,2.28-3.03,2.28C490.34,273.398,489.2148,272.3931,489.1846,270.833Z" transform="translate(-0.1797)"/>
        <path class="cls-3" d="M501.59,273.2481h-1.86a1.6379,1.6379,0,0,1-1.8154-1.815v-4.26h-1.59v-1.4248h1.59v-2.43H499.64v2.43h1.7247v1.4248H499.64v3.8549c0,.585.15.7349.7344.7349H501.59Z" transform="translate(-0.1797)"/>
        <path class="cls-3" d="M502.5049,270.833h1.7392a1.2975,1.2975,0,0,0,1.44,1.2h.12c.6748,0,1.17-.33,1.17-.84,0-.4351-.2549-.7051-.8848-.84l-1.0205-.2251c-1.4248-.33-2.2646-.9747-2.2646-2.22,0-1.41,1.2295-2.31,2.9394-2.31,1.9649,0,3.03,1.0053,3.03,2.5649H507.05a1.2124,1.2124,0,0,0-1.2754-1.2H505.64c-.6455,0-1.11.36-1.11.84,0,.42.3154.69.99.84l1.08.2554c1.3193.3,2.1.96,2.1,2.22,0,1.3047-1.125,2.28-3.03,2.28C503.6592,273.398,502.5342,272.3931,502.5049,270.833Z" transform="translate(-0.1797)"/>
      </g>
      <g>
        <path class="cls-5" d="M611.2842,217.438h1.875l-.39,1.8h-1.875Z" transform="translate(-0.1797)"/>
        <path class="cls-5" d="M616.0391,220.6026a1.5849,1.5849,0,0,1-1.65,1.41h-2.355l.27-1.2749h1.77c.3,0,.54-.15.63-.5849l1.7847-8.4146h1.4253Zm.9746-11.8643h1.5752l-.3452,1.65h-1.5748Z" transform="translate(-0.1797)"/>
        <path class="cls-5" d="M621.5137,219.3877c-1.875,0-3.0449-.93-3.105-2.4746h1.4551c.06.9146.7949,1.2749,1.6948,1.2749.8252,0,1.4253-.4053,1.4253-1.0351,0-.4351-.33-.75-.855-.9151l-.855-.27c-1.125-.36-1.8452-.9746-1.8452-2.0249,0-1.29,1.125-2.355,2.8652-2.355a2.6058,2.6058,0,0,1,2.8946,2.4751h-1.44a1.3827,1.3827,0,0,0-1.5449-1.2749c-.81,0-1.38.42-1.38,1.05,0,.4351.3.75.8252.9151l.9.2851c.8848.2847,1.86.7949,1.86,2.085C624.4087,218.4727,623.1636,219.3877,621.5137,219.3877Z" transform="translate(-0.1797)"/>
        <path class="cls-5" d="M626.1338,215.9229a4.1462,4.1462,0,0,1,4.0351-4.335c2.1749,0,3.2847,1.44,3.2847,3.4649a4.1457,4.1457,0,0,1-4.0347,4.3349C627.2437,219.3877,626.1338,217.9478,626.1338,215.9229Zm3.9448-3.1348a2.81,2.81,0,0,0-2.52,3.06c0,1.35.6753,2.34,1.95,2.34a2.81,2.81,0,0,0,2.52-3.06C632.0288,213.7779,631.3535,212.7881,630.0786,212.7881Z" transform="translate(-0.1797)"/>
        <path class="cls-5" d="M635.854,219.2378h-1.4253l1.59-7.4995h1.4248l-.225,1.0947a2.8467,2.8467,0,0,1,2.37-1.2451,2.2364,2.2364,0,0,1,2.28,2.2949,4.3885,4.3885,0,0,1-.0752.75l-.9747,4.605h-1.4252l.96-4.4848a4.4317,4.4317,0,0,0,.06-.63,1.19,1.19,0,0,0-1.335-1.335c-1.0347,0-2.0249.7651-2.4,2.55Z" transform="translate(-0.1797)"/>
        <path class="cls-5" d="M653.5234,212.9683h-3.6l-1.3349,6.2695h-1.4248l1.3349-6.2695h-1.6352l.2554-1.23h1.6347l.3452-1.59a1.547,1.547,0,0,1,1.62-1.41h2.3549l-.27,1.2451h-1.74c-.39,0-.5552.21-.645.6148l-.24,1.14h5.0249l-1.59,7.4995h-1.4248Zm.795-4.23h1.5747l-.3448,1.65h-1.5752Z" transform="translate(-0.1797)"/>
        <path class="cls-5" d="M658.0981,208.7383h1.4253l-2.2348,10.4995h-1.4253Z" transform="translate(-0.1797)"/>
        <path class="cls-5" d="M663.1685,219.3877a3.1875,3.1875,0,0,1-3.3-3.4648,4.093,4.093,0,0,1,4.08-4.335,2.7774,2.7774,0,0,1,2.8648,3.0752,5.3316,5.3316,0,0,1-.1651,1.05h-5.43v.21a2.0489,2.0489,0,0,0,2.0249,2.2651,1.9043,1.9043,0,0,0,1.89-1.17h1.4253A3.2331,3.2331,0,0,1,663.1685,219.3877Zm-1.74-4.8h4.02a2.5878,2.5878,0,0,0,.0147-.3447,1.4845,1.4845,0,0,0-1.65-1.4551A2.44,2.44,0,0,0,661.4287,214.5879Z" transform="translate(-0.1797)"/>
        <path class="cls-5" d="M670.668,219.3877c-1.875,0-3.045-.93-3.105-2.4746h1.4551c.06.9146.7949,1.2749,1.6948,1.2749.8252,0,1.4253-.4053,1.4253-1.0351,0-.4351-.33-.75-.855-.9151l-.855-.27c-1.125-.36-1.8452-.9746-1.8452-2.0249,0-1.29,1.125-2.355,2.8652-2.355a2.6058,2.6058,0,0,1,2.8946,2.4751h-1.44a1.3827,1.3827,0,0,0-1.5449-1.2749c-.81,0-1.38.42-1.38,1.05,0,.4351.3.75.8252.9151l.9.2851c.8848.2847,1.86.7949,1.86,2.085C673.563,218.4727,672.3179,219.3877,670.668,219.3877Z" transform="translate(-0.1797)"/>
      </g>
      <g>
        <path class="cls-11" d="M341.71,420.6939c0-5.4,3.36-8.6407,8.0405-8.6407,4.7046,0,8.0649,3.24,8.0649,8.6407s-3.36,8.6411-8.0649,8.6411C345.07,429.335,341.71,426.0943,341.71,420.6939Zm8.1606,6.0727c3.0484,0,5.0645-2.2563,5.0645-6.0727s-2.0161-6.0723-5.0645-6.0723h-.24c-3.0484,0-5.0406,2.2559-5.0406,6.0723s1.9922,6.0727,5.0406,6.0727Z" transform="translate(-0.1797)"/>
        <path class="cls-11" d="M372.2861,423.0943c0,3.5522-2.0644,6.2407-5.3525,6.2407a4.2152,4.2152,0,0,1-3.5762-1.8482v6.4082h-2.76V417.0938h2.76v1.6079a4.4033,4.4033,0,0,1,3.6724-1.8482C370.3179,416.8535,372.2861,419.542,372.2861,423.0943Zm-8.9287,0c0,2.5444,1.4639,3.9843,3.0244,3.9843h.1919c1.68,0,2.9522-1.44,2.9522-3.96,0-2.544-1.272-4.0083-2.9522-4.0083h-.1919C364.8213,419.11,363.3574,420.55,363.3574,423.0943Z" transform="translate(-0.1797)"/>
        <path class="cls-11" d="M379.9414,429.335c-3,0-5.6885-2.1846-5.6885-6.2407,0-3.84,2.3765-6.2408,5.6407-6.2408,3.4082,0,5.3286,2.4244,5.3286,5.7369,0,.2158-.024,1.0078-.0484,1.2241h-8.2324a3.22,3.22,0,0,0,3.0244,3.2641h.1436a2.2469,2.2469,0,0,0,2.3281-1.68h2.7363A4.9557,4.9557,0,0,1,379.9414,429.335Zm2.5684-7.6568a2.4953,2.4953,0,0,0-2.5918-2.5683H379.75a2.694,2.694,0,0,0-2.7358,2.5683Z" transform="translate(-0.1797)"/>
        <path class="cls-11" d="M390.5972,429.0948h-2.76v-12.001h2.76v1.728a4.2593,4.2593,0,0,1,3.72-1.9683c2.832,0,4.2485,1.8243,4.2485,4.4165v7.8248h-2.76v-7.4166c0-1.6084-.72-2.5683-2.1123-2.5683h-.2159a3.06,3.06,0,0,0-2.88,3.2881Z" transform="translate(-0.1797)"/>
        <path class="cls-11" d="M407.9,412.2935h7.56c2.9761,0,5.208,1.92,5.208,4.56a4.0713,4.0713,0,0,1-2.7841,4.2486c1.8242,0,2.5444.792,2.5444,2.376v5.6167h-2.88v-4.8965c0-1.2481-.36-1.6079-1.6079-1.6079H410.78v6.5044H407.9Zm6.84,7.7524c1.9922,0,3.0484-1.08,3.0484-2.688,0-1.6562-1.0562-2.4965-3.0484-2.4965h-3.96v5.1845Z" transform="translate(-0.1797)"/>
        <path class="cls-11" d="M428.9,429.335c-3,0-5.6885-2.1846-5.6885-6.2407,0-3.84,2.3765-6.2408,5.6406-6.2408,3.4082,0,5.3287,2.4244,5.3287,5.7369,0,.2158-.024,1.0078-.0484,1.2241H425.9a3.22,3.22,0,0,0,3.0244,3.2641h.1436a2.247,2.247,0,0,0,2.3281-1.68h2.7363A4.9557,4.9557,0,0,1,428.9,429.335Zm2.5684-7.6568a2.4954,2.4954,0,0,0-2.5918-2.5683h-.1685a2.694,2.694,0,0,0-2.7358,2.5683Z" transform="translate(-0.1797)"/>
        <path class="cls-11" d="M437.9,429.0948V419.374h-2.52v-2.28h2.52v-1.9444a2.5576,2.5576,0,0,1,2.88-2.8559h3.3847v2.3281h-2.3281c-.9365,0-1.1767.24-1.1767,1.1758v1.2964h8.041v12.001h-2.76V419.374H440.66v9.7208Zm7.9443-16.8013h3V415.27h-3Z" transform="translate(-0.1797)"/>
        <path class="cls-11" d="M454.82,429.0948h-2.76v-12.001h2.76v1.728a4.2587,4.2587,0,0,1,3.72-1.9683c2.8325,0,4.2486,1.8243,4.2486,4.4165v7.8248h-2.76v-7.4166c0-1.6084-.72-2.5683-2.1123-2.5683H457.7a3.06,3.06,0,0,0-2.88,3.2881Z" transform="translate(-0.1797)"/>
        <path class="cls-11" d="M471.02,429.335c-3,0-5.6885-2.1846-5.6885-6.2407,0-3.84,2.3765-6.2408,5.64-6.2408,3.4087,0,5.3291,2.4244,5.3291,5.7369,0,.2158-.0244,1.0078-.0484,1.2241H468.02a3.2205,3.2205,0,0,0,3.0244,3.2641h.1441a2.2469,2.2469,0,0,0,2.3281-1.68h2.7363A4.956,4.956,0,0,1,471.02,429.335Zm2.5679-7.6568a2.4953,2.4953,0,0,0-2.5918-2.5683h-.168a2.6941,2.6941,0,0,0-2.7363,2.5683Z" transform="translate(-0.1797)"/>
      </g>
      <g>
        <path class="cls-11" d="M390.3345,729.1748c-.3843.7437-2.0161,2.16-4.8965,2.16-4.7525,0-7.9927-3.6724-7.9927-8.6411s3.1924-8.6646,8.2329-8.6646c4.32,0,6.7925,2.544,7.0327,5.9287h-2.88c-.24-2.0166-1.5845-3.3364-4.0327-3.3364h-.24c-3.2163,0-5.2324,2.3281-5.2324,6.0723s2.0161,6.0727,5.2324,6.0727h.24c2.4965,0,4.2724-1.4643,4.56-3.5761l-.0239-.1924h-4.6563V722.43h5.1123a1.8366,1.8366,0,0,1,2.0406,2.04v6.6246h-2.4966Z" transform="translate(-0.1797)"/>
        <path class="cls-11" d="M400.8457,731.335c-3,0-5.6885-2.1846-5.6885-6.2407,0-3.84,2.3765-6.2408,5.6407-6.2408,3.4082,0,5.3286,2.4244,5.3286,5.7369,0,.2158-.024,1.0078-.0484,1.2241h-8.2324a3.22,3.22,0,0,0,3.0244,3.2641h.1436a2.2469,2.2469,0,0,0,2.3281-1.68h2.7363A4.9557,4.9557,0,0,1,400.8457,731.335Zm2.5684-7.6568a2.4953,2.4953,0,0,0-2.5918-2.5683h-.1685a2.694,2.694,0,0,0-2.7358,2.5683Z" transform="translate(-0.1797)"/>
        <path class="cls-11" d="M420.43,725.0943c0,3.5522-2.064,6.2407-5.3526,6.2407a4.2157,4.2157,0,0,1-3.5761-1.8482v6.4082h-2.76V719.0938h2.76v1.6079a4.4038,4.4038,0,0,1,3.6723-1.8482C418.4619,718.8535,420.43,721.542,420.43,725.0943Zm-8.9287,0c0,2.5444,1.4643,3.9843,3.0239,3.9843h.1924c1.68,0,2.9521-1.44,2.9521-3.96,0-2.544-1.272-4.0083-2.9521-4.0083h-.1924C412.9658,721.11,411.5015,722.55,411.5015,725.0943Z" transform="translate(-0.1797)"/>
        <path class="cls-11" d="M425.853,731.0948h-2.76V714.2935h2.76v6.5283a4.2593,4.2593,0,0,1,3.72-1.9683c2.8321,0,4.2486,1.8243,4.2486,4.4165v7.8248h-2.76v-7.4166c0-1.6084-.72-2.5683-2.1123-2.5683h-.2158a3.06,3.06,0,0,0-2.88,3.2881Z" transform="translate(-0.1797)"/>
        <path class="cls-11" d="M436.9648,714.2935h3V717.27h-3Zm.0957,4.8h2.76v12.001h-2.76Z" transform="translate(-0.1797)"/>
      </g>
      <g>
        <path class="cls-11" d="M366.1411,514.8784h3.2163v3.2164h-3.2163Z" transform="translate(-0.1797)"/>
        <path class="cls-11" d="M377.1094,514.1582l-2.8565,3.9366h-3.0478l4.3921-6.0484-4.272-5.9526h3.12l2.7119,3.768,2.7364-3.768h3.0483l-4.2725,5.88,4.3921,6.1207h-3.12Z" transform="translate(-0.1797)"/>
        <path class="cls-11" d="M385.0527,501.2935h2.76v16.8013h-2.76Z" transform="translate(-0.1797)"/>
        <path class="cls-11" d="M390.2842,514.2305h2.7842a2.0759,2.0759,0,0,0,2.3046,1.92h.1915c1.08,0,1.872-.5278,1.872-1.3437,0-.6963-.4077-1.1285-1.416-1.3443l-1.6318-.36c-2.28-.5284-3.6241-1.5606-3.6241-3.5528,0-2.2558,1.9678-3.6963,4.7042-3.6963,3.1445,0,4.8486,1.6084,4.8486,4.1045h-2.7608a1.94,1.94,0,0,0-2.04-1.92h-.2158c-1.0322,0-1.7764.5757-1.7764,1.3438,0,.6723.5039,1.104,1.584,1.3442l1.7285.4082c2.1123.48,3.36,1.5361,3.36,3.5522,0,2.0879-1.8,3.6485-4.8487,3.6485C392.1323,518.335,390.332,516.7266,390.2842,514.2305Z" transform="translate(-0.1797)"/>
        <path class="cls-11" d="M407.2051,514.1582l-2.8565,3.9366H401.3l4.3921-6.0484-4.272-5.9526h3.12l2.7124,3.768,2.7364-3.768h3.0478l-4.2725,5.88,4.3926,6.1207h-3.12Z" transform="translate(-0.1797)"/>
        <path class="cls-11" d="M421.748,518.0948V508.374h-2.5195v-2.28h2.5195v-1.9444a2.5581,2.5581,0,0,1,2.8809-2.8559h3.3838v2.3281h-2.3281c-.9361,0-1.1758.24-1.1758,1.1758v1.2964h8.0405v12.001h-2.76V508.374h-5.28v9.7208Zm7.9454-16.8013h3V504.27h-3Z" transform="translate(-0.1797)"/>
        <path class="cls-11" d="M435.9082,501.2935h2.76v16.8013h-2.76Z" transform="translate(-0.1797)"/>
        <path class="cls-11" d="M447.0205,518.335c-3.0005,0-5.6885-2.1846-5.6885-6.2407,0-3.84,2.376-6.2408,5.64-6.2408,3.4087,0,5.3286,2.4244,5.3286,5.7369,0,.2158-.0244,1.0078-.0479,1.2241H444.02a3.22,3.22,0,0,0,3.0239,3.2641h.1446a2.2473,2.2473,0,0,0,2.3281-1.68h2.7363A4.956,4.956,0,0,1,447.0205,518.335Zm2.5679-7.6568a2.4957,2.4957,0,0,0-2.5923-2.5683h-.168a2.6947,2.6947,0,0,0-2.7363,2.5683Z" transform="translate(-0.1797)"/>
      </g>
      <g>
        <path class="cls-3" d="M441.5859,553.6729c-.15,1.77-1.395,2.7148-3.24,2.7148a3.9124,3.9124,0,0,1,0-7.8c1.8452,0,3.09.9453,3.24,2.7153h-1.7251a1.4121,1.4121,0,0,0-1.47-1.3051h-.1045c-1.26,0-1.8154,1.1548-1.8154,2.49s.5552,2.49,1.8154,2.49h.1045a1.4125,1.4125,0,0,0,1.47-1.3052Z" transform="translate(-0.1797)"/>
        <path class="cls-3" d="M442.7412,552.4878a3.6882,3.6882,0,1,1,3.6748,3.9A3.6476,3.6476,0,0,1,442.7412,552.4878Zm5.625,0c0-1.5747-.7656-2.49-1.875-2.49h-.1352c-1.11,0-1.89.915-1.89,2.49s.78,2.49,1.89,2.49h.1352C447.6006,554.9781,448.3662,554.063,448.3662,552.4878Z" transform="translate(-0.1797)"/>
        <path class="cls-3" d="M451.666,550.9732h4.2149v1.4546H451.666Z" transform="translate(-0.1797)"/>
        <path class="cls-3" d="M459.6162,556.2378h-1.7251v-10.5h1.7251v4.08a2.6614,2.6614,0,0,1,2.3247-1.23,2.4878,2.4878,0,0,1,2.6548,2.76v4.89h-1.7246v-4.6347c0-1.0049-.45-1.605-1.32-1.605h-.1348a1.9121,1.9121,0,0,0-1.8,2.0547Z" transform="translate(-0.1797)"/>
        <path class="cls-3" d="M468.6006,556.3877a2.2751,2.2751,0,0,1-2.46-2.2046c0-1.665,1.3653-2.31,2.73-2.415l1.9653-.165v-.21a1.2919,1.2919,0,0,0-1.3652-1.395h-.09a1.2485,1.2485,0,0,0-1.3653,1.0049H466.291c.12-1.3951,1.335-2.4151,3.1348-2.4151,1.92,0,3.1045,1.11,3.1045,2.76v3.24a12.6793,12.6793,0,0,0,.0752,1.65h-1.62a9.1812,9.1812,0,0,1-.09-1.0351A2.6327,2.6327,0,0,1,468.6006,556.3877Zm.4053-1.41a1.7963,1.7963,0,0,0,1.83-1.65v-.4351l-1.7255.15c-.66.06-1.2745.39-1.2745,1.0347a.9587.9587,0,0,0,1.0645.9Z" transform="translate(-0.1797)"/>
        <path class="cls-3" d="M474.0156,553.8228h1.74a1.297,1.297,0,0,0,1.4394,1.2h.12c.6748,0,1.17-.33,1.17-.84,0-.435-.2549-.705-.8848-.84l-1.02-.2251c-1.4248-.33-2.2652-.9746-2.2652-2.22,0-1.41,1.2305-2.31,2.94-2.31,1.9648,0,3.0293,1.0054,3.0293,2.565h-1.7247a1.2122,1.2122,0,0,0-1.2749-1.2H477.15c-.6445,0-1.11.36-1.11.84,0,.42.315.69.99.84l1.08.2554c1.32.3,2.1.96,2.1,2.22,0,1.3047-1.125,2.28-3.03,2.28C475.1709,556.3877,474.0459,555.3828,474.0156,553.8228Z" transform="translate(-0.1797)"/>
        <path class="cls-3" d="M483.6758,556.2378h-1.7251v-10.5h1.7251v4.08a2.6613,2.6613,0,0,1,2.3247-1.23,2.4878,2.4878,0,0,1,2.6548,2.76v4.89h-1.7246v-4.6347c0-1.0049-.45-1.605-1.32-1.605h-.1348a1.912,1.912,0,0,0-1.8,2.0547Z" transform="translate(-0.1797)"/>
        <path class="cls-3" d="M495.09,556.2378h-1.8593a1.6379,1.6379,0,0,1-1.8155-1.8149v-4.26h-1.59v-1.4248h1.59v-2.43H493.14v2.43h1.7251v1.4248H493.14v3.855c0,.585.15.7349.7349.7349H495.09Z" transform="translate(-0.1797)"/>
        <path class="cls-3" d="M498.54,556.3877a2.275,2.275,0,0,1-2.46-2.2046c0-1.665,1.3652-2.31,2.73-2.415l1.9653-.165v-.21a1.2919,1.2919,0,0,0-1.3652-1.395h-.09a1.2484,1.2484,0,0,0-1.3652,1.0049h-1.7246c.12-1.3951,1.3349-2.4151,3.1347-2.4151,1.92,0,3.1045,1.11,3.1045,2.76v3.24a12.6793,12.6793,0,0,0,.0752,1.65h-1.62a9.18,9.18,0,0,1-.09-1.0351A2.6328,2.6328,0,0,1,498.54,556.3877Zm.4053-1.41a1.7964,1.7964,0,0,0,1.83-1.65v-.4351l-1.7256.15c-.66.06-1.2744.39-1.2744,1.0347a.9587.9587,0,0,0,1.0644.9Z" transform="translate(-0.1797)"/>
        <path class="cls-3" d="M503.9551,557.1226h1.7256c.12.6152.7949.99,1.8144.99h.1055a1.7868,1.7868,0,0,0,1.9346-1.98V555.128a2.4743,2.4743,0,0,1-2.16,1.11c-1.7246,0-3.2847-1.29-3.2847-3.8247s1.53-3.8252,3.2847-3.8252a2.4372,2.4372,0,0,1,2.16,1.11v-.96H511.26v7.5894c0,1.71-1.3052,3.1948-3.795,3.1948C505.4253,559.5225,504.0605,558.5327,503.9551,557.1226Zm3.7949-2.2949c.9453,0,1.7852-.9,1.7852-2.4146s-.81-2.415-1.7549-2.415h-.1348c-.99,0-1.83.7949-1.83,2.415s.81,2.4146,1.8,2.4146Z" transform="translate(-0.1797)"/>
      </g>
      <g>
        <path class="cls-3" d="M314.5083,545.7383h4.605a3.257,3.257,0,1,1,0,6.51h-2.8052v3.9892h-1.8Zm4.3794,4.9043a1.5753,1.5753,0,0,0,1.8-1.6494c0-1.0352-.63-1.65-1.8-1.65h-2.58v3.3Z" transform="translate(-0.1797)"/>
        <path class="cls-3" d="M323.9434,545.7383h1.875v1.8594h-1.875Zm.06,3h1.7251v7.499h-1.7251Z" transform="translate(-0.1797)"/>
        <path class="cls-3" d="M334.2324,553.6729c-.15,1.7695-1.3945,2.7148-3.24,2.7148a3.9124,3.9124,0,0,1,0-7.8c1.8452,0,3.09.9453,3.24,2.7149h-1.7246a1.4121,1.4121,0,0,0-1.47-1.3047h-.105c-1.26,0-1.8149,1.1543-1.8149,2.4892s.5552,2.49,1.8149,2.49h.105a1.4128,1.4128,0,0,0,1.47-1.3047Z" transform="translate(-0.1797)"/>
        <path class="cls-3" d="M341.1328,556.2373h-1.7251v-7.499h1.7251v1.0791a2.661,2.661,0,0,1,2.3247-1.23,2.4874,2.4874,0,0,1,2.6548,2.76v4.89h-1.7246v-4.6347c0-1.0049-.45-1.6045-1.32-1.6045h-.1348a1.9121,1.9121,0,0,0-1.8,2.0547Z" transform="translate(-0.1797)"/>
        <path class="cls-3" d="M350.1172,556.3877a2.2754,2.2754,0,0,1-2.46-2.2051c0-1.665,1.3653-2.3095,2.73-2.415l1.9653-.165v-.21a1.2916,1.2916,0,0,0-1.3652-1.3945h-.09a1.2481,1.2481,0,0,0-1.3653,1.0049h-1.7246c.12-1.3956,1.335-2.4151,3.1348-2.4151,1.92,0,3.1045,1.11,3.1045,2.76v3.24a12.6719,12.6719,0,0,0,.0752,1.6494h-1.62a9.1714,9.1714,0,0,1-.09-1.0351A2.633,2.633,0,0,1,350.1172,556.3877Zm.4053-1.41a1.7963,1.7963,0,0,0,1.83-1.6494v-.4356l-1.7255.15c-.66.06-1.2745.39-1.2745,1.0342a.9587.9587,0,0,0,1.0645.9Z" transform="translate(-0.1797)"/>
        <path class="cls-3" d="M357.8125,556.2373h-1.7246v-7.499h1.7246v1.0645a2.6072,2.6072,0,0,1,2.25-1.2149,2.4732,2.4732,0,0,1,2.37,1.335,2.7813,2.7813,0,0,1,2.4746-1.335,2.496,2.496,0,0,1,2.6846,2.79v4.8593h-1.7246v-4.59c0-1.0195-.39-1.6045-1.32-1.6045h-.1045a1.8541,1.8541,0,0,0-1.74,2.01v4.1845h-1.7246v-4.59c0-1.0195-.39-1.6045-1.32-1.6045h-.1045a1.8541,1.8541,0,0,0-1.74,2.01Z" transform="translate(-0.1797)"/>
        <path class="cls-3" d="M372.7373,556.3877a3.5656,3.5656,0,0,1-3.5547-3.9c0-2.3994,1.4844-3.8994,3.5244-3.8994,2.13,0,3.33,1.5147,3.33,3.585,0,.1347-.0151.63-.03.7646h-5.1445a2.012,2.012,0,0,0,1.89,2.04h.09a1.4034,1.4034,0,0,0,1.4546-1.05h1.71A3.0962,3.0962,0,0,1,372.7373,556.3877Zm1.6045-4.7851a1.5585,1.5585,0,0,0-1.62-1.6045h-.105a1.6834,1.6834,0,0,0-1.71,1.6045Z" transform="translate(-0.1797)"/>
      </g>
      <g>
        <path class="cls-11" d="M357.19,810.2935h2.88v16.8013h-2.88Z" transform="translate(-0.1797)"/>
        <path class="cls-11" d="M363.813,810.2935h2.76v16.8013h-2.76Z" transform="translate(-0.1797)"/>
        <path class="cls-11" d="M369.9326,810.2935h2.76v16.8013h-2.76Z" transform="translate(-0.1797)"/>
        <path class="cls-11" d="M386.3975,827.0948h-2.76v-1.9683a3.9186,3.9186,0,0,1-3.6484,2.2085c-2.7364,0-4.0562-1.8726-4.0562-4.4649v-7.7763h2.76v7.3686c0,1.7281.7207,2.6162,2.04,2.6162h.2163c1.4395,0,2.688-1.416,2.688-3.3842v-6.6006h2.76Z" transform="translate(-0.1797)"/>
        <path class="cls-11" d="M388.8682,823.2305h2.7841a2.076,2.076,0,0,0,2.3047,1.92h.1914c1.08,0,1.8721-.5278,1.8721-1.3437,0-.6963-.4077-1.1285-1.416-1.3443l-1.6318-.36c-2.28-.5284-3.6241-1.5606-3.6241-3.5528,0-2.2558,1.9678-3.6963,4.7041-3.6963,3.1446,0,4.8487,1.6084,4.8487,4.1045h-2.7608a1.94,1.94,0,0,0-2.04-1.92h-.2158c-1.0323,0-1.7764.5757-1.7764,1.3438,0,.6723.5039,1.104,1.584,1.3442l1.7285.4082c2.1123.48,3.36,1.5361,3.36,3.5522,0,2.0879-1.8,3.6485-4.8486,3.6485C390.7163,827.335,388.916,825.7266,388.8682,823.2305Z" transform="translate(-0.1797)"/>
        <path class="cls-11" d="M408.7168,827.0948H405.74a2.62,2.62,0,0,1-2.9043-2.9043V817.374H400.292v-2.28h2.5439v-3.8882h2.7608v3.8882h2.76v2.28h-2.76v6.1685c0,.936.24,1.1763,1.1758,1.1763h1.9443Z" transform="translate(-0.1797)"/>
        <path class="cls-11" d="M411.0684,815.0938H413.78V817.59a3.4734,3.4734,0,0,1,3.48-2.6162h.816v2.5922h-1.0318c-2.0884,0-3.2168,1.1763-3.2168,3.36v6.1685h-2.76Z" transform="translate(-0.1797)"/>
        <path class="cls-11" d="M423.1885,827.335a3.6407,3.6407,0,0,1-3.9365-3.5283c0-2.6646,2.184-3.6963,4.3681-3.8648l3.1445-.2637v-.3359A2.0669,2.0669,0,0,0,424.58,817.11h-.1436a1.9976,1.9976,0,0,0-2.1845,1.6079h-2.76c.1919-2.2319,2.1357-3.8643,5.0161-3.8643,3.0723,0,4.9683,1.7764,4.9683,4.4165v5.1846a20.3245,20.3245,0,0,0,.12,2.64h-2.5918a14.558,14.558,0,0,1-.1445-1.6563A4.2132,4.2132,0,0,1,423.1885,827.335Zm.6479-2.2564a2.8735,2.8735,0,0,0,2.9282-2.64v-.6963l-2.76.24c-1.0562.0958-2.04.6241-2.04,1.6563a1.5349,1.5349,0,0,0,1.7041,1.44Z" transform="translate(-0.1797)"/>
        <path class="cls-11" d="M439.7729,827.0948h-2.976a2.62,2.62,0,0,1-2.9043-2.9043V817.374h-2.5445v-2.28h2.5445v-3.8882h2.76v3.8882h2.7608v2.28h-2.7608v6.1685c0,.936.24,1.1763,1.1768,1.1763h1.9438Z" transform="translate(-0.1797)"/>
        <path class="cls-11" d="M441.2842,821.0943c0-3.6485,2.4482-6.2408,5.8808-6.2408,3.4561,0,5.9043,2.5923,5.9043,6.2408s-2.4482,6.2407-5.9043,6.2407C443.7324,827.335,441.2842,824.7427,441.2842,821.0943Zm9.001,0c0-2.52-1.2242-3.9844-3-3.9844h-.2164c-1.7758,0-3.0244,1.4643-3.0244,3.9844s1.2486,3.9843,3.0244,3.9843h.2164C449.061,825.0786,450.2852,823.6143,450.2852,821.0943Z" transform="translate(-0.1797)"/>
        <path class="cls-11" d="M455.7085,815.0938h2.7124V817.59a3.4724,3.4724,0,0,1,3.48-2.6162h.8159v2.5922h-1.0317c-2.0884,0-3.2163,1.1763-3.2163,3.36v6.1685h-2.76Z" transform="translate(-0.1797)"/>
      </g>
      <g>
        <path class="cls-11" d="M344.8057,922.0948l-6.5528-16.8013h3.1685l5.3042,13.897,5.1367-13.897h3.0962L348.55,922.0948Z" transform="translate(-0.1797)"/>
        <path class="cls-11" d="M356.7334,905.2935h3V908.27h-3Zm.0957,4.8h2.76v12.001h-2.76Z" transform="translate(-0.1797)"/>
        <path class="cls-11" d="M362.0605,918.2305h2.7847a2.0755,2.0755,0,0,0,2.3042,1.92h.1919c1.08,0,1.8721-.5278,1.8721-1.3437,0-.6963-.4077-1.1285-1.416-1.3443l-1.6324-.36c-2.28-.5284-3.624-1.5606-3.624-3.5528,0-2.2558,1.9678-3.6963,4.7041-3.6963,3.1445,0,4.8487,1.6084,4.8487,4.1045h-2.76a1.94,1.94,0,0,0-2.0405-1.92h-.2159c-1.0322,0-1.7758.5757-1.7758,1.3438,0,.6723.5039,1.104,1.584,1.3442l1.728.4082c2.1123.48,3.36,1.5361,3.36,3.5522,0,2.0879-1.8,3.6485-4.8486,3.6485C363.9092,922.335,362.1089,920.7266,362.0605,918.2305Z" transform="translate(-0.1797)"/>
        <path class="cls-11" d="M385.1016,922.0948h-2.76v-1.9683a3.9191,3.9191,0,0,1-3.6484,2.2085c-2.7364,0-4.0567-1.8726-4.0567-4.4649v-7.7763h2.76v7.3686c0,1.7281.72,2.6162,2.0405,2.6162h.2158c1.44,0,2.6885-1.416,2.6885-3.3842v-6.6006h2.76Z" transform="translate(-0.1797)"/>
        <path class="cls-11" d="M391.6289,922.335a3.6409,3.6409,0,0,1-3.9365-3.5283c0-2.6646,2.1846-3.6963,4.3686-3.8648l3.1441-.2637v-.3359a2.0668,2.0668,0,0,0-2.1841-2.2324h-.144a1.9975,1.9975,0,0,0-2.1841,1.6079h-2.76c.1919-2.2319,2.1362-3.8643,5.0166-3.8643,3.0723,0,4.9683,1.7764,4.9683,4.4165v5.1846a20.3245,20.3245,0,0,0,.12,2.64h-2.5923a14.55,14.55,0,0,1-.144-1.6563A4.2141,4.2141,0,0,1,391.6289,922.335Zm.6484-2.2564a2.8734,2.8734,0,0,0,2.9278-2.64v-.6963l-2.76.24c-1.0566.0958-2.04.6241-2.04,1.6563a1.5346,1.5346,0,0,0,1.7041,1.44Z" transform="translate(-0.1797)"/>
        <path class="cls-11" d="M401.1807,905.2935h2.76v16.8013h-2.76Z" transform="translate(-0.1797)"/>
        <path class="cls-11" d="M407.2041,905.2935h3.0005V908.27h-3.0005Zm.0962,4.8h2.76v12.001H407.3Z" transform="translate(-0.1797)"/>
        <path class="cls-11" d="M412.7,922.0948v-2.2564l6.5044-7.32H412.82v-2.4243h9.7686V912.35l-6.5044,7.32h6.8647v2.4244Z" transform="translate(-0.1797)"/>
        <path class="cls-11" d="M428.66,922.335a3.641,3.641,0,0,1-3.9366-3.5283c0-2.6646,2.1846-3.6963,4.3687-3.8648l3.144-.2637v-.3359a2.0668,2.0668,0,0,0-2.1841-2.2324h-.144a1.9976,1.9976,0,0,0-2.1841,1.6079h-2.76c.1919-2.2319,2.1362-3.8643,5.0166-3.8643,3.0722,0,4.9682,1.7764,4.9682,4.4165v5.1846a20.3245,20.3245,0,0,0,.12,2.64h-2.5922a14.5518,14.5518,0,0,1-.1441-1.6563A4.2138,4.2138,0,0,1,428.66,922.335Zm.6484-2.2564a2.8734,2.8734,0,0,0,2.9277-2.64v-.6963l-2.76.24c-1.0567.0958-2.0406.6241-2.0406,1.6563a1.5346,1.5346,0,0,0,1.7041,1.44Z" transform="translate(-0.1797)"/>
        <path class="cls-11" d="M445.2451,922.0948h-2.9765a2.62,2.62,0,0,1-2.9043-2.9043V912.374H436.82v-2.28h2.544v-3.8882h2.76v3.8882h2.76v2.28h-2.76v6.1685c0,.936.24,1.1763,1.1763,1.1763h1.9443Z" transform="translate(-0.1797)"/>
        <path class="cls-11" d="M447.5,905.2935h3V908.27h-3Zm.0962,4.8h2.76v12.001h-2.76Z" transform="translate(-0.1797)"/>
        <path class="cls-11" d="M452.9956,916.0943c0-3.6485,2.4482-6.2408,5.88-6.2408,3.4565,0,5.9048,2.5923,5.9048,6.2408s-2.4483,6.2407-5.9048,6.2407C455.4438,922.335,452.9956,919.7427,452.9956,916.0943Zm9.001,0c0-2.52-1.2241-3.9844-3-3.9844H458.78c-1.7764,0-3.0244,1.4643-3.0244,3.9844s1.248,3.9843,3.0244,3.9843h.2158C460.7725,920.0786,461.9966,918.6143,461.9966,916.0943Z" transform="translate(-0.1797)"/>
        <path class="cls-11" d="M470.18,922.0948h-2.76v-12.001h2.76v1.728a4.2593,4.2593,0,0,1,3.72-1.9683c2.832,0,4.2485,1.8243,4.2485,4.4165v7.8248h-2.76v-7.4166c0-1.6084-.72-2.5683-2.1123-2.5683h-.2159a3.06,3.06,0,0,0-2.88,3.2881Z" transform="translate(-0.1797)"/>
      </g>
      <g>
        <path class="cls-11" d="M354.4307,114.9483h2.88V131.75h-2.88Z" transform="translate(-0.1797)"/>
        <path class="cls-11" d="M363.8149,131.75h-2.76V119.7486h2.76v1.728a4.26,4.26,0,0,1,3.72-1.9683c2.832,0,4.2485,1.8242,4.2485,4.4165V131.75h-2.76V124.333c0-1.6084-.72-2.5683-2.1123-2.5683h-.2158a3.06,3.06,0,0,0-2.88,3.2881Z" transform="translate(-0.1797)"/>
        <path class="cls-11" d="M374.1343,127.8853h2.7846a2.0751,2.0751,0,0,0,2.3038,1.92h.1923c1.08,0,1.8721-.5278,1.8721-1.3437,0-.6963-.4082-1.1285-1.416-1.3443l-1.6323-.36c-2.28-.5283-3.6245-1.5605-3.6245-3.5527,0-2.2558,1.9682-3.6963,4.7045-3.6963,3.1441,0,4.8482,1.6084,4.8482,4.1045h-2.76a1.94,1.94,0,0,0-2.0405-1.92h-.2158c-1.0322,0-1.7764.5757-1.7764,1.3437,0,.6724.5044,1.1041,1.5845,1.3443l1.728.4082c2.1118.48,3.36,1.5361,3.36,3.5522,0,2.0879-1.8,3.6485-4.8482,3.6485C375.9824,131.99,374.1826,130.3814,374.1343,127.8853Z" transform="translate(-0.1797)"/>
        <path class="cls-11" d="M393.9824,131.75h-2.9761a2.62,2.62,0,0,1-2.9042-2.9043v-6.8164h-2.5445v-2.28h2.5445V115.86h2.76v3.8882h2.76v2.28h-2.76v6.1685c0,.936.24,1.1763,1.1763,1.1763h1.9438Z" transform="translate(-0.1797)"/>
        <path class="cls-11" d="M399.502,131.99a3.6406,3.6406,0,0,1-3.9361-3.5283c0-2.6646,2.1841-3.6963,4.3687-3.8648l3.144-.2637v-.3359a2.067,2.067,0,0,0-2.1841-2.2324H400.75a1.997,1.997,0,0,0-2.1836,1.6079h-2.7607c.1923-2.2319,2.1367-3.8643,5.0166-3.8643,3.0722,0,4.9687,1.7764,4.9687,4.4165v5.1846a20.3222,20.3222,0,0,0,.12,2.64h-2.5927a14.429,14.429,0,0,1-.1436-1.6562A4.215,4.215,0,0,1,399.502,131.99Zm.6484-2.2564a2.8735,2.8735,0,0,0,2.9282-2.64v-.6963l-2.76.24c-1.0562.0957-2.04.6241-2.04,1.6563a1.5344,1.5344,0,0,0,1.7041,1.44Z" transform="translate(-0.1797)"/>
        <path class="cls-11" d="M408.166,133.1656h2.76c.1924.9843,1.2724,1.5844,2.9043,1.5844h.1679a2.8593,2.8593,0,0,0,3.0967-3.1684v-1.6084a3.9589,3.9589,0,0,1-3.456,1.7763c-2.7608,0-5.2569-2.0639-5.2569-6.1206s2.4483-6.1206,5.2569-6.1206a3.9006,3.9006,0,0,1,3.456,1.7764v-1.5361h2.76v12.145c0,2.7363-2.0884,5.1123-6.0728,5.1123C410.5181,137.0059,408.334,135.4219,408.166,133.1656Zm6.0723-3.6724c1.5122,0,2.8564-1.44,2.8564-3.8643s-1.2959-3.8642-2.8086-3.8642H414.07c-1.584,0-2.9282,1.2719-2.9282,3.8642s1.2964,3.8643,2.88,3.8643Z" transform="translate(-0.1797)"/>
        <path class="cls-11" d="M423.2139,119.7486h2.7119v2.4961a3.4741,3.4741,0,0,1,3.48-2.6163h.8165v2.5923H429.19c-2.0883,0-3.2163,1.1763-3.2163,3.36V131.75h-2.76Z" transform="translate(-0.1797)"/>
        <path class="cls-11" d="M435.334,131.99a3.6407,3.6407,0,0,1-3.9361-3.5283c0-2.6646,2.1841-3.6963,4.3687-3.8648l3.144-.2637v-.3359a2.067,2.067,0,0,0-2.184-2.2324h-.1446a1.997,1.997,0,0,0-2.1836,1.6079h-2.7607c.1924-2.2319,2.1367-3.8643,5.0166-3.8643,3.0723,0,4.9687,1.7764,4.9687,4.4165v5.1846a20.3054,20.3054,0,0,0,.12,2.64H439.15a14.4515,14.4515,0,0,1-.1436-1.6562A4.215,4.215,0,0,1,435.334,131.99Zm.6484-2.2564a2.8735,2.8735,0,0,0,2.9282-2.64v-.6963l-2.76.24c-1.0562.0957-2.04.6241-2.04,1.6563a1.5344,1.5344,0,0,0,1.7041,1.44Z" transform="translate(-0.1797)"/>
        <path class="cls-11" d="M447.646,131.75h-2.76V119.7486h2.76v1.7041a4.1729,4.1729,0,0,1,3.6-1.9444,3.9586,3.9586,0,0,1,3.7925,2.1363,4.4519,4.4519,0,0,1,3.96-2.1363c2.9761,0,4.2964,1.8965,4.2964,4.4644V131.75h-2.76v-7.3447c0-1.6318-.6241-2.5683-2.1123-2.5683h-.168a2.9671,2.9671,0,0,0-2.7842,3.2163V131.75h-2.76v-7.3447c0-1.6318-.624-2.5683-2.1123-2.5683H450.43a2.9668,2.9668,0,0,0-2.7842,3.2163Z" transform="translate(-0.1797)"/>
      </g>
      <g>
        <path class="cls-3" d="M741.1055,13.5362h3.24v6.96h7.32v-6.96h3.24V30.3374h-3.24v-6.96h-7.32v6.96h-3.24Z" transform="translate(-0.1797)"/>
        <path class="cls-3" d="M757.6655,24.3369c0-3.6,2.4-6.2407,6.0005-6.2407s6,2.6406,6,6.2407-2.4,6.2408-6,6.2408S757.6655,27.937,757.6655,24.3369Zm8.8565,0c0-2.352-1.08-3.72-2.76-3.72H763.57c-1.68,0-2.76,1.3682-2.76,3.72s1.08,3.72,2.76,3.72h.1919C765.4419,28.0572,766.522,26.689,766.522,24.3369Z" transform="translate(-0.1797)"/>
        <path class="cls-3" d="M779.8184,21.9365l-1.9922,8.4009h-3.5044l-3.6724-12.0009h3.1441l2.4,8.9047,1.9444-8.9047h3.3359l2.0884,8.8325,2.28-8.8325h3.0244l-3.4326,12.0009H781.93Z" transform="translate(-0.1797)"/>
        <path class="cls-3" d="M803.0742,30.3374h-3.0483a2.79,2.79,0,0,1-3.12-3.12V20.8565h-2.4727v-2.52h2.4727V14.4483h3.12v3.8882h2.688v2.52h-2.688v5.52c0,1.08.24,1.32,1.32,1.32h1.7285Z" transform="translate(-0.1797)"/>
        <path class="cls-3" d="M804.5854,24.3369c0-3.6,2.4-6.2407,6-6.2407s6,2.6406,6,6.2407-2.4,6.2408-6,6.2408S804.5854,27.937,804.5854,24.3369Zm8.8565,0c0-2.352-1.08-3.72-2.76-3.72H810.49c-1.68,0-2.76,1.3682-2.76,3.72s1.08,3.72,2.76,3.72h.1919C812.3618,28.0572,813.4419,26.689,813.4419,24.3369Z" transform="translate(-0.1797)"/>
        <path class="cls-3" d="M824.7212,18.3365h3.12v2.4a3.4,3.4,0,0,1,3.4805-2.52h.6v2.88h-1.08c-2.0405,0-3,.96-3,3v6.2407h-3.12Z" transform="translate(-0.1797)"/>
        <path class="cls-3" d="M838.7378,30.5777c-3,0-5.7124-2.28-5.7124-6.2408,0-3.6,2.1123-6.2407,5.7124-6.2407s5.4726,2.6162,5.4726,6.0967c0,.36-.0239.7441-.0483,1.1279H836.05a2.8426,2.8426,0,0,0,2.7358,2.7364h.1441a2.0673,2.0673,0,0,0,2.1362-1.5123h3.0962A5.18,5.18,0,0,1,838.7378,30.5777Zm-2.688-7.6568h5.1362a2.3761,2.3761,0,0,0-2.4961-2.3042h-.144A2.376,2.376,0,0,0,836.05,22.9209Z" transform="translate(-0.1797)"/>
        <path class="cls-3" d="M853.4253,28.8731a4.2294,4.2294,0,0,1-3.5523,1.7046c-2.16,0-3.9365-1.3682-3.9365-3.5284,0-2.5922,2.0166-3.7685,4.3926-3.96l3.0244-.2642v-.2881a1.8456,1.8456,0,0,0-1.9443-1.92h-.1441a1.8167,1.8167,0,0,0-1.9682,1.44h-3.12c.24-2.2564,2.16-3.96,5.1606-3.96s5.04,1.5122,5.04,4.32v5.2808a20.3054,20.3054,0,0,0,.12,2.64h-2.9283A10.7821,10.7821,0,0,1,853.4253,28.8731Zm-2.7842-.8159a2.6282,2.6282,0,0,0,2.7124-2.6163V25.105l-2.5923.2642c-.792.0717-1.7524.48-1.7524,1.4638,0,.7442.6484,1.2242,1.5122,1.2242Z" transform="translate(-0.1797)"/>
        <path class="cls-3" d="M858.8008,24.3369c0-3.24,1.8481-6.2407,5.3281-6.2407a4.082,4.082,0,0,1,3.4565,1.8v-6.36h3.12V30.3374h-3.12v-1.56a4.082,4.082,0,0,1-3.4565,1.8C860.6489,30.5777,858.8008,27.5772,858.8008,24.3369Zm6.0483,3.72c1.44,0,2.7363-1.44,2.7363-3.72s-1.2963-3.72-2.7363-3.72h-.1919c-1.56,0-2.7363,1.416-2.7363,3.6963s1.1763,3.7442,2.7363,3.7442Z" transform="translate(-0.1797)"/>
      </g>
      <g>
        <path class="cls-3" d="M772.1831,69.9912a1.7079,1.7079,0,0,1-1.9038-1.8867V66.7617c-2.8218-.3911-4.76-2.6005-4.76-6.0512,0-3.8247,2.38-6.12,5.6949-6.12,3.3315,0,5.7114,2.295,5.7114,6.12,0,3.4336-1.9209,5.6264-4.709,6.0512v.68c0,.646.17.8159.833.8159h2.4141v1.7339Zm-.8838-4.98c2.1587,0,3.5864-1.5977,3.5864-4.3S773.458,56.41,771.2993,56.41h-.17c-2.1587,0-3.5693,1.5976-3.5693,4.3008s1.4106,4.3,3.5693,4.3Z" transform="translate(-0.1797)"/>
        <path class="cls-3" d="M786.2246,66.66H784.27v-1.394a2.7749,2.7749,0,0,1-2.584,1.5639c-1.938,0-2.8725-1.3257-2.8725-3.1616V58.1607h1.9546v5.2182c0,1.2242.51,1.8531,1.4448,1.8531h.1533a2.171,2.171,0,0,0,1.9038-2.397V58.1607h1.9546Z" transform="translate(-0.1797)"/>
        <path class="cls-3" d="M792.1411,66.83c-2.125,0-4.0288-1.5469-4.0288-4.4194,0-2.72,1.6831-4.42,3.9946-4.42,2.4141,0,3.774,1.7168,3.774,4.0625,0,.1529-.0171.7139-.0342.8667h-5.8306a2.2808,2.2808,0,0,0,2.1421,2.3121h.1021a1.5912,1.5912,0,0,0,1.6484-1.19h1.938A3.51,3.51,0,0,1,792.1411,66.83Zm1.8189-5.4223a1.7673,1.7673,0,0,0-1.836-1.8189h-.1191a1.9079,1.9079,0,0,0-1.9375,1.8189Z" transform="translate(-0.1797)"/>
        <path class="cls-3" d="M797.7344,58.1607h1.9209v1.7675a2.46,2.46,0,0,1,2.4648-1.8525h.5777v1.8355h-.731a2.0925,2.0925,0,0,0-2.2778,2.38V66.66h-1.9546Z" transform="translate(-0.1797)"/>
        <path class="cls-3" d="M803.82,69.9741V68.2573h2.312c.6631,0,.833-.17.833-.8159V66.2349L803.31,58.1607h2.1587l2.4306,5.643,2.3628-5.643h2.125l-3.57,7.9892v1.7847a1.8112,1.8112,0,0,1-2.0225,2.04Z" transform="translate(-0.1797)"/>
      </g>
      <rect class="cls-12" x="829.7182" y="49.6175" width="41.6832" height="24.48"/>
      <g>
        <path class="cls-3" d="M763.8784,90.0943h4.1646c3.4507,0,5.8134,2.1079,5.8134,5.95s-2.312,5.9492-5.7626,5.9492h-4.2154Zm3.9946,10.08c2.3965,0,3.9434-1.19,3.9434-4.13s-1.5469-4.1309-3.9434-4.1309h-1.955v8.2612Z" transform="translate(-0.1797)"/>
        <path class="cls-3" d="M779.3652,102.1631c-2.125,0-4.0288-1.5469-4.0288-4.4194,0-2.72,1.6831-4.4195,3.9947-4.4195,2.414,0,3.7739,1.7168,3.7739,4.0625,0,.1529-.0171.7139-.0342.8667H777.24a2.2808,2.2808,0,0,0,2.1421,2.3121h.1021a1.5912,1.5912,0,0,0,1.6484-1.19h1.938A3.51,3.51,0,0,1,779.3652,102.1631Zm1.8189-5.4224a1.7673,1.7673,0,0,0-1.836-1.8188h-.1191a1.9082,1.9082,0,0,0-1.9375,1.8188Z" transform="translate(-0.1797)"/>
        <path class="cls-3" d="M786.8281,101.9932l-3.0259-8.499h2.0572l2.3286,6.8842,2.3286-6.8842h2.0059l-3.0254,8.499Z" transform="translate(-0.1797)"/>
        <path class="cls-3" d="M793.8833,90.0943h2.1245v2.1079h-2.1245Zm.0679,3.4h1.9546v8.499h-1.9546Z" transform="translate(-0.1797)"/>
        <path class="cls-3" d="M805.5439,99.0865c-.17,2.0058-1.581,3.0766-3.6718,3.0766-2.4478,0-4.08-1.8017-4.08-4.4194s1.6318-4.4195,4.08-4.4195c2.0908,0,3.5019,1.0708,3.6718,3.0767h-1.955a1.6,1.6,0,0,0-1.6656-1.479h-.1191c-1.4277,0-2.0566,1.3091-2.0566,2.8218s.6289,2.8218,2.0566,2.8218h.1191a1.6008,1.6008,0,0,0,1.6656-1.479Z" transform="translate(-0.1797)"/>
        <path class="cls-3" d="M810.8994,102.1631c-2.125,0-4.0288-1.5469-4.0288-4.4194,0-2.72,1.6831-4.4195,3.9946-4.4195,2.4141,0,3.774,1.7168,3.774,4.0625,0,.1529-.0171.7139-.0342.8667h-5.8306a2.2808,2.2808,0,0,0,2.1421,2.3121h.1021a1.5912,1.5912,0,0,0,1.6484-1.19h1.938A3.51,3.51,0,0,1,810.8994,102.1631Zm1.8189-5.4224a1.7673,1.7673,0,0,0-1.836-1.8188h-.1191a1.9082,1.9082,0,0,0-1.9375,1.8188Z" transform="translate(-0.1797)"/>
      </g>
      <rect class="cls-9" x="829.7182" y="84.9508" width="41.6832" height="24.48"/>
      <g>
        <path class="cls-3" d="M787.1,127.2461h-4.1645v-1.8188h10.3857v1.8188h-4.1816v10.08H787.1Z" transform="translate(-0.1797)"/>
        <path class="cls-3" d="M792.2344,133.0767a4.18,4.18,0,1,1,4.1645,4.4194A4.1331,4.1331,0,0,1,792.2344,133.0767Zm6.374,0c0-1.7847-.8667-2.8218-2.1245-2.8218h-.1533c-1.2578,0-2.1416,1.0371-2.1416,2.8218s.8838,2.8218,2.1416,2.8218h.1533C797.7417,135.8985,798.6084,134.8614,798.6084,133.0767Z" transform="translate(-0.1797)"/>
        <path class="cls-3" d="M801.9414,133.0767a4.18,4.18,0,1,1,4.1646,4.4194A4.1331,4.1331,0,0,1,801.9414,133.0767Zm6.374,0c0-1.7847-.8667-2.8218-2.1245-2.8218h-.1533c-1.2578,0-2.1416,1.0371-2.1416,2.8218s.8838,2.8218,2.1416,2.8218h.1533C807.4487,135.8985,808.3154,134.8614,808.3154,133.0767Z" transform="translate(-0.1797)"/>
        <path class="cls-3" d="M812.1577,125.4273h1.9546v11.8989h-1.9546Z" transform="translate(-0.1797)"/>
      </g>
      <rect class="cls-5" x="829.7182" y="120.2842" width="41.6832" height="24.48"/>
      <g>
        <path class="cls-3" d="M760.07,166.7105c0-3.8247,2.38-6.12,5.6948-6.12,3.3316,0,5.7115,2.295,5.7115,6.12s-2.38,6.1191-5.7115,6.1191C762.45,172.83,760.07,170.5347,760.07,166.7105Zm5.78,4.3c2.1587,0,3.5864-1.5977,3.5864-4.3s-1.4277-4.3008-3.5864-4.3008h-.17c-2.1592,0-3.57,1.5976-3.57,4.3008s1.4106,4.3,3.57,4.3Z" transform="translate(-0.1797)"/>
        <path class="cls-3" d="M780.7749,172.66H778.82v-1.394a2.7749,2.7749,0,0,1-2.584,1.5639c-1.9375,0-2.8725-1.3257-2.8725-3.1616v-5.5073h1.9546v5.2182c0,1.2242.51,1.8531,1.4448,1.8531h.1533a2.171,2.171,0,0,0,1.9038-2.397v-4.6743h1.9546Z" transform="translate(-0.1797)"/>
        <path class="cls-3" d="M788.2212,172.66h-2.1079a1.8556,1.8556,0,0,1-2.0567-2.0566v-4.8277h-1.8017v-1.6147h1.8017v-2.7539h1.9546v2.7539h1.9551v1.6147h-1.9551v4.3687c0,.6626.17.833.833.833h1.377Z" transform="translate(-0.1797)"/>
        <path class="cls-3" d="M798.166,168.41c0,2.5156-1.4619,4.4194-3.791,4.4194a2.9869,2.9869,0,0,1-2.5327-1.3086V176.06h-1.9546V164.1607h1.9546v1.1386a3.12,3.12,0,0,1,2.6011-1.3086C796.772,163.9907,798.166,165.8946,798.166,168.41Zm-6.3237,0c0,1.8017,1.0371,2.8218,2.1421,2.8218h.1357c1.19,0,2.0908-1.02,2.0908-2.8047,0-1.8018-.9008-2.8389-2.0908-2.8389h-.1357C792.8794,165.5884,791.8423,166.6084,791.8423,168.41Z" transform="translate(-0.1797)"/>
        <path class="cls-3" d="M807.38,172.66h-1.9546v-1.394a2.7749,2.7749,0,0,1-2.584,1.5639c-1.938,0-2.8725-1.3257-2.8725-3.1616v-5.5073h1.9545v5.2182c0,1.2242.51,1.8531,1.4449,1.8531h.1533a2.171,2.171,0,0,0,1.9038-2.397v-4.6743H807.38Z" transform="translate(-0.1797)"/>
        <path class="cls-3" d="M814.8262,172.66h-2.1079a1.8556,1.8556,0,0,1-2.0567-2.0566v-4.8277H808.86v-1.6147h1.8017v-2.7539h1.9546v2.7539h1.9551v1.6147h-1.9551v4.3687c0,.6626.17.833.833.833h1.377Z" transform="translate(-0.1797)"/>
      </g>
      <rect class="cls-7" x="829.7182" y="155.6175" width="41.6832" height="24.48"/>
    </g>
  </g>
</svg>
