<svg xmlns="http://www.w3.org/2000/svg" viewBox="0 0 872.31 968.5"><defs><style>.cls-1,.cls-2,.cls-4,.cls-8{fill:none;}.cls-1{stroke:#587ef9;}.cls-1,.cls-2,.cls-4,.cls-40,.cls-8{stroke-miterlimit:10;}.cls-2{stroke:#224;}.cls-16,.cls-29,.cls-3,.cls-30,.cls-34,.cls-38{fill:#224;}.cls-4{stroke:#ef8532;stroke-dasharray:10 10 10 10 10 10;}.cls-23,.cls-5{fill:#ef8532;}.cls-40,.cls-6{fill:#e21e6e;}.cls-7{fill:#95e52e;}.cls-8{stroke:#95e52e;}.cls-9{fill:#3829ff;}.cls-10,.cls-16,.cls-23,.cls-29,.cls-30{font-size:15px;}.cls-10{fill:#587ef9;}.cls-10,.cls-34{font-family:Favorit-Bold, Favorit;font-weight:700;}.cls-11{letter-spacing:0em;}.cls-12{letter-spacing:-0.01em;}.cls-13,.cls-34{font-size:24px;}.cls-13{fill:#fff;}.cls-13,.cls-16{font-family:Favorit-Medium, Favorit;font-weight:500;}.cls-14{letter-spacing:0em;}.cls-15{letter-spacing:-0.02em;}.cls-17{letter-spacing:0em;}.cls-18{letter-spacing:-0.01em;}.cls-19{letter-spacing:-0.01em;}.cls-20{letter-spacing:-0.01em;}.cls-21{letter-spacing:-0.02em;}.cls-22{letter-spacing:-0.01em;}.cls-23,.cls-29{font-family:Favorit-RegularItalic, Favorit;font-style:italic;}.cls-24{letter-spacing:-0.02em;}.cls-25{letter-spacing:-0.01em;}.cls-26{letter-spacing:-0.01em;}.cls-27{letter-spacing:0em;}.cls-28{letter-spacing:-0.02em;}.cls-30,.cls-38{font-family:Favorit-Regular, Favorit;}.cls-31{letter-spacing:-0.01em;}.cls-32{letter-spacing:-0.01em;}.cls-33{letter-spacing:0em;}.cls-35{letter-spacing:-0.01em;}.cls-36{letter-spacing:-0.02em;}.cls-37{letter-spacing:-0.01em;}.cls-38{font-size:17px;}.cls-39{letter-spacing:-0.02em;}.cls-40{stroke:#fff;}.cls-41{letter-spacing:-0.01em;}.cls-42{letter-spacing:-0.12em;}</style></defs><g id="Layer_2" data-name="Layer 2"><g id="P1_TypeOfTourism"><polyline class="cls-1" points="117.96 335 99.42 335 99.42 0.5 117.96 0.5"/><polyline class="cls-1" points="117.96 619 99.42 619 99.42 343.5 117.96 343.5"/><polyline class="cls-1" points="117.96 968 99.42 968 99.42 628.5 117.96 628.5"/></g><g id="P3_DarkTourism"><line class="cls-2" x1="408.92" y1="59.08" x2="408.92" y2="94.99"/><polygon class="cls-3" points="404.83 91.68 405.56 91 408.92 94.61 412.28 91 413.01 91.68 408.92 96.08 404.83 91.68"/><line class="cls-4" x1="486.42" y1="215" x2="597.84" y2="215"/><polygon class="cls-5" points="594.52 219.09 593.84 218.36 597.45 215 593.84 211.64 594.52 210.91 598.92 215 594.52 219.09"/><line class="cls-2" x1="408.92" y1="446.75" x2="408.92" y2="482.67"/><polygon class="cls-3" points="404.83 479.35 405.56 478.67 408.92 482.28 412.28 478.67 413.01 479.35 408.92 483.75 404.83 479.35"/><line class="cls-2" x1="408.92" y1="288.07" x2="408.92" y2="389.98"/><polygon class="cls-3" points="404.83 386.67 405.56 385.99 408.92 389.6 412.28 385.99 413.01 386.67 408.92 391.07 404.83 386.67"/><line class="cls-2" x1="345.42" y1="565.5" x2="345.42" y2="590.5"/><line class="cls-2" x1="473.92" y1="590" x2="345.92" y2="590"/><line class="cls-2" x1="473.42" y1="565.5" x2="473.42" y2="590.5"/><line class="cls-2" x1="408.92" y1="589.5" x2="408.92" y2="691.42"/><polygon class="cls-3" points="404.83 688.1 405.56 687.42 408.92 691.03 412.28 687.42 413.01 688.1 408.92 692.5 404.83 688.1"/><line class="cls-2" x1="408.92" y1="752.25" x2="408.92" y2="788.17"/><polygon class="cls-3" points="404.83 784.85 405.56 784.17 408.92 787.78 412.28 784.17 413.01 784.85 408.92 789.25 404.83 784.85"/><line class="cls-2" x1="408.92" y1="847.75" x2="408.92" y2="883.67"/><polygon class="cls-3" points="404.83 880.35 405.56 879.67 408.92 883.28 412.28 879.67 413.01 880.35 408.92 884.75 404.83 880.35"/><line class="cls-2" x1="408.78" y1="149.58" x2="408.78" y2="185.49"/><polygon class="cls-3" points="404.69 182.18 405.42 181.5 408.78 185.11 412.13 181.5 412.87 182.18 408.78 186.58 404.69 182.18"/><rect class="cls-6" x="290.75" y="12.4" width="236.33" height="38.7"/><rect class="cls-5" x="332" y="193.4" width="153.83" height="38.7"/><rect class="cls-5" x="323.88" y="401.4" width="170.08" height="38.7"/><rect class="cls-5" x="321.25" y="703.4" width="175.33" height="38.7"/><rect class="cls-7" x="354.34" y="490.4" width="109.17" height="38.7"/><rect class="cls-8" x="280.92" y="538" width="128" height="28"/><rect class="cls-8" x="408.92" y="538" width="128" height="28"/><rect class="cls-5" x="321.25" y="799.4" width="175.33" height="38.7"/><rect class="cls-7" x="321.25" y="894.4" width="175.33" height="38.7"/><rect class="cls-9" x="331.69" y="104.06" width="153.83" height="38.7"/><text class="cls-10" transform="translate(0 163.8)">D<tspan class="cls-11" x="10.81" y="0">a</tspan><tspan x="18.76" y="0">ta </tspan><tspan x="0" y="16">collection</tspan></text><text class="cls-10" transform="translate(0 477.3)">D<tspan class="cls-11" x="10.81" y="0">a</tspan><tspan x="18.76" y="0">tas</tspan><tspan class="cls-12" x="40.33" y="0">e</tspan><tspan x="48.33" y="0">t </tspan><tspan x="0" y="16">building</tspan></text><text class="cls-10" transform="translate(0 794.3)">D<tspan class="cls-11" x="10.81" y="0">a</tspan><tspan x="18.76" y="0">ta</tspan><tspan x="0" y="16">visualiz</tspan><tspan class="cls-11" x="51.99" y="16">a</tspan><tspan x="59.94" y="16">tion</tspan></text><text class="cls-13" transform="translate(333.08 40.09)">#dark<tspan class="cls-14" x="66.14" y="0">t</tspan><tspan x="75.53" y="0">ourism</tspan></text><text class="cls-13" transform="translate(347.18 221.09)">Instaloade<tspan class="cls-15" x="114.79" y="0">r</tspan></text><text class="cls-16" transform="translate(336.79 255.25)"><tspan class="cls-17">A</tspan><tspan x="10.52" y="0">u</tspan><tspan class="cls-17" x="19.08" y="0">t</tspan><tspan x="24.95" y="0">om</tspan><tspan class="cls-18" x="47.04" y="0">at</tspan><tspan x="60.78" y="0">ed sc</tspan><tspan class="cls-19" x="96.76" y="0">r</tspan><tspan x="102.36" y="0">aping </tspan><tspan class="cls-20" x="-28.31" y="18">o</tspan><tspan class="cls-21" x="-19.9" y="18">f </tspan><tspan x="-11.14" y="18">the 500 most </tspan><tspan class="cls-22" x="86.51" y="18">r</tspan><tspan x="92.03" y="18">ece</tspan><tspan class="cls-11" x="116.15" y="18">n</tspan><tspan x="124.82" y="18">t posts</tspan></text><text class="cls-23" transform="translate(610.76 219.24)">.json<tspan class="cls-24" x="32.02" y="0"> </tspan><tspan x="35.38" y="0">files</tspan></text><text class="cls-13" transform="translate(340.61 429.09)">Open R<tspan class="cls-25" x="81.62" y="0">e</tspan><tspan x="94.27" y="0">fine</tspan></text><text class="cls-13" transform="translate(376.34 731.09)">Gephi</text><text class="cls-13" transform="translate(364.6 518.09)">.xl<tspan class="cls-26" x="24.89" y="0">s</tspan><tspan class="cls-27" x="36.38" y="0">x</tspan><tspan class="cls-28" x="48.86" y="0"> </tspan><tspan x="54.12" y="0">file</tspan></text><text class="cls-29" transform="translate(436.01 556.24)">cohas<tspan class="cls-20" x="41.62" y="0">h</tspan><tspan class="cls-17" x="50.01" y="0">t</tspan><tspan x="55.87" y="0">ag</tspan></text><text class="cls-30" transform="translate(313.38 556.24)">Pic name</text><text class="cls-13" transform="translate(355.13 827.09)">Illust<tspan class="cls-31" x="54.26" y="0">r</tspan><tspan class="cls-14" x="63.21" y="0">at</tspan><tspan x="85.2" y="0">o</tspan><tspan class="cls-15" x="98.9" y="0">r</tspan></text><text class="cls-13" transform="translate(338.13 922.09)">Visualiz<tspan class="cls-14" x="85.68" y="0">a</tspan><tspan x="98.28" y="0">tion</tspan></text><text class="cls-13" transform="translate(352.37 131.75)">Instag<tspan class="cls-32" x="69.17" y="0">r</tspan><tspan class="cls-33" x="78.12" y="0">am</tspan></text><text class="cls-34" transform="translate(739.14 30.34)"><tspan class="cls-14">H</tspan><tspan class="cls-35" x="17.62" y="0">o</tspan><tspan class="cls-36" x="31.18" y="0">w</tspan><tspan class="cls-28" x="49.73" y="0"> </tspan><tspan class="cls-37" x="54.89" y="0">t</tspan><tspan x="64.54" y="0">o </tspan><tspan class="cls-26" x="83.98" y="0">r</tspan><tspan class="cls-33" x="92.95" y="0">ead</tspan></text><text class="cls-38" transform="translate(765.32 66.66)">Quer<tspan class="cls-39" x="38.06" y="0">y</tspan></text><rect class="cls-40" x="829.9" y="49.62" width="41.68" height="24.48"/><text class="cls-38" transform="translate(763.15 101.99)">D<tspan class="cls-41" x="12.15" y="0">e</tspan><tspan x="21.06" y="0">vice</tspan></text><rect class="cls-9" x="829.9" y="84.95" width="41.68" height="24.48"/><text class="cls-38" transform="translate(783.09 137.33)"><tspan class="cls-42">T</tspan><tspan x="8.74" y="0">ool</tspan></text><rect class="cls-5" x="829.9" y="120.28" width="41.68" height="24.48"/><text class="cls-38" transform="translate(759.83 172.66)">Output</text><rect class="cls-7" x="829.9" y="155.62" width="41.68" height="24.48"/></g></g></svg>