<svg xmlns="http://www.w3.org/2000/svg" viewBox="0 0 871.9 968.5">
  <defs>
    <style>
      .cls-1, .cls-2, .cls-4, .cls-8 {
        fill: none;
      }

      .cls-1 {
        stroke: #587ef9;
      }

      .cls-1, .cls-12, .cls-2, .cls-4, .cls-8 {
        stroke-miterlimit: 10;
      }

      .cls-2 {
        stroke: #224;
      }

      .cls-3 {
        fill: #224;
      }

      .cls-4 {
        stroke: #ef8532;
        stroke-dasharray: 10 10 10 10 10 10;
      }

      .cls-5 {
        fill: #ef8532;
      }

      .cls-12, .cls-6 {
        fill: #e21e6e;
      }

      .cls-7 {
        fill: #95e52e;
      }

      .cls-8 {
        stroke: #95e52e;
      }

      .cls-9 {
        fill: #3829ff;
      }

      .cls-10 {
        fill: #587ef9;
      }

      .cls-11 {
        fill: #fff;
      }

      .cls-12 {
        stroke: #fff;
      }
    </style>
  </defs>
  <g id="Layer_2" data-name="Layer 2">
    <g id="P1_TypeOfTourism">
      <polyline class="cls-1" points="117.78 335 99.24 335 99.24 0.5 117.78 0.5"/>
      <polyline class="cls-1" points="117.78 619 99.24 619 99.24 343.5 117.78 343.5"/>
      <polyline class="cls-1" points="117.78 968 99.24 968 99.24 628.5 117.78 628.5"/>
    </g>
    <g id="P3_DarkTourism">
      <g>
        <line class="cls-2" x1="408.74" y1="59.08" x2="408.74" y2="94.99"/>
        <polygon class="cls-3" points="404.65 91.68 405.38 91 408.74 94.61 412.1 91 412.83 91.68 408.74 96.08 404.65 91.68"/>
      </g>
      <g>
        <line class="cls-4" x1="486.24" y1="215" x2="597.66" y2="215"/>
        <polygon class="cls-5" points="594.34 219.09 593.66 218.36 597.27 215 593.66 211.64 594.34 210.91 598.74 215 594.34 219.09"/>
      </g>
      <g>
        <line class="cls-2" x1="408.74" y1="446.75" x2="408.74" y2="482.67"/>
        <polygon class="cls-3" points="404.65 479.35 405.38 478.67 408.74 482.28 412.1 478.67 412.83 479.35 408.74 483.75 404.65 479.35"/>
      </g>
      <g>
        <line class="cls-2" x1="408.74" y1="288.07" x2="408.74" y2="389.98"/>
        <polygon class="cls-3" points="404.65 386.67 405.38 385.99 408.74 389.6 412.1 385.99 412.83 386.67 408.74 391.07 404.65 386.67"/>
      </g>
      <g>
        <line class="cls-2" x1="345.24" y1="565.5" x2="345.24" y2="590.5"/>
        <line class="cls-2" x1="473.74" y1="590" x2="345.74" y2="590"/>
        <line class="cls-2" x1="473.24" y1="565.5" x2="473.24" y2="590.5"/>
        <g>
          <line class="cls-2" x1="408.74" y1="589.5" x2="408.74" y2="691.42"/>
          <polygon class="cls-3" points="404.65 688.1 405.38 687.42 408.74 691.03 412.1 687.42 412.83 688.1 408.74 692.5 404.65 688.1"/>
        </g>
      </g>
      <g>
        <line class="cls-2" x1="408.74" y1="752.25" x2="408.74" y2="788.17"/>
        <polygon class="cls-3" points="404.65 784.85 405.38 784.17 408.74 787.78 412.1 784.17 412.83 784.85 408.74 789.25 404.65 784.85"/>
      </g>
      <g>
        <line class="cls-2" x1="408.74" y1="847.75" x2="408.74" y2="883.67"/>
        <polygon class="cls-3" points="404.65 880.35 405.38 879.67 408.74 883.28 412.1 879.67 412.83 880.35 408.74 884.75 404.65 880.35"/>
      </g>
      <g>
        <line class="cls-2" x1="408.6" y1="149.58" x2="408.6" y2="185.49"/>
        <polygon class="cls-3" points="404.51 182.18 405.24 181.5 408.6 185.11 411.95 181.5 412.69 182.18 408.6 186.58 404.51 182.18"/>
      </g>
      <rect class="cls-6" x="290.57" y="12.4" width="236.33" height="38.7"/>
      <rect class="cls-5" x="331.82" y="193.4" width="153.83" height="38.7"/>
      <rect class="cls-5" x="323.7" y="401.4" width="170.08" height="38.7"/>
      <rect class="cls-5" x="321.07" y="703.4" width="175.33" height="38.7"/>
      <rect class="cls-7" x="354.16" y="490.4" width="109.17" height="38.7"/>
      <rect class="cls-8" x="280.74" y="538" width="128" height="28"/>
      <rect class="cls-8" x="408.74" y="538" width="128" height="28"/>
      <rect class="cls-5" x="321.07" y="799.4" width="175.33" height="38.7"/>
      <rect class="cls-7" x="321.07" y="894.4" width="175.33" height="38.7"/>
      <rect class="cls-9" x="331.51" y="104.06" width="153.83" height="38.7"/>
      <g>
        <path class="cls-10" d="M1.23,153.3h3.6c3.15,0,5.32,1.8,5.32,5.25s-2.1,5.25-5.25,5.25H1.23ZM4.68,162c2,0,3.45-.83,3.45-3.45S6.7,155.1,4.68,155.1H3.25V162Z" transform="translate(-0.18)"/>
        <path class="cls-10" d="M16,162.88A2.63,2.63,0,0,1,13.81,164a2.27,2.27,0,0,1-2.46-2.2c0-1.62,1.26-2.36,2.75-2.48l1.89-.16v-.19a1.15,1.15,0,0,0-1.22-1.19h-.09a1.12,1.12,0,0,0-1.22.9h-2c.15-1.42,1.35-2.48,3.23-2.48s3.15.95,3.15,2.7v3.3A13.57,13.57,0,0,0,18,163.8H16.12A8.66,8.66,0,0,1,16,162.88Zm-1.74-.5a1.65,1.65,0,0,0,1.7-1.64v-.21l-1.62.17c-.49,0-1.1.3-1.1.91s.41.77,1,.77Z" transform="translate(-0.18)"/>
        <path class="cls-10" d="M24.42,163.8H22.51a1.74,1.74,0,0,1-2-2v-4H19V156.3h1.54v-2.43h2v2.43h1.68v1.58H22.51v3.45c0,.67.15.82.83.82h1.08Z" transform="translate(-0.18)"/>
        <path class="cls-10" d="M30.09,162.88A2.64,2.64,0,0,1,27.87,164a2.27,2.27,0,0,1-2.46-2.2c0-1.62,1.26-2.36,2.74-2.48l1.89-.16v-.19a1.14,1.14,0,0,0-1.21-1.19h-.09a1.13,1.13,0,0,0-1.23.9h-2c.15-1.42,1.35-2.48,3.22-2.48s3.15.95,3.15,2.7v3.3A11.89,11.89,0,0,0,32,163.8H30.18A5.38,5.38,0,0,1,30.09,162.88Zm-1.74-.5A1.65,1.65,0,0,0,30,160.74v-.21l-1.62.17c-.49,0-1.09.3-1.09.91s.4.77.94.77Z" transform="translate(-0.18)"/>
        <path class="cls-10" d="M7.56,177.17C7.41,179.05,6.13,180,4.19,180a3.91,3.91,0,0,1,0-7.8c1.94,0,3.22.9,3.37,2.77H5.61a1.28,1.28,0,0,0-1.38-1.19H4.14c-1.13,0-1.61,1.05-1.61,2.32s.48,2.33,1.61,2.33h.09a1.29,1.29,0,0,0,1.38-1.21Z" transform="translate(-0.18)"/>
        <path class="cls-10" d="M8.65,176.05a3.66,3.66,0,0,1,3.75-3.9,3.9,3.9,0,0,1,0,7.8A3.66,3.66,0,0,1,8.65,176.05Zm5.54,0c0-1.47-.68-2.32-1.73-2.32h-.12c-1.05,0-1.72.85-1.72,2.32s.67,2.33,1.72,2.33h.12C13.51,178.38,14.19,177.52,14.19,176.05Z" transform="translate(-0.18)"/>
        <path class="cls-10" d="M17.73,169.3h1.95v10.5H17.73Z" transform="translate(-0.18)"/>
        <path class="cls-10" d="M21.69,169.3h1.95v10.5H21.69Z" transform="translate(-0.18)"/>
        <path class="cls-10" d="M28.8,180a3.6,3.6,0,0,1-3.57-3.9c0-2.25,1.32-3.9,3.57-3.9s3.42,1.64,3.42,3.81c0,.23,0,.46,0,.71H27.12a1.77,1.77,0,0,0,1.71,1.71h.09a1.29,1.29,0,0,0,1.33-.95h1.94A3.24,3.24,0,0,1,28.8,180Zm-1.68-4.78h3.21a1.49,1.49,0,0,0-1.56-1.44h-.09A1.48,1.48,0,0,0,27.12,175.17Z" transform="translate(-0.18)"/>
        <path class="cls-10" d="M40.32,177.17c-.15,1.88-1.43,2.78-3.38,2.78a3.91,3.91,0,0,1,0-7.8c2,0,3.23.9,3.38,2.77h-2A1.28,1.28,0,0,0,37,173.73H36.9c-1.13,0-1.61,1.05-1.61,2.32s.48,2.33,1.61,2.33H37a1.29,1.29,0,0,0,1.38-1.21Z" transform="translate(-0.18)"/>
        <path class="cls-10" d="M46.5,179.8H44.59a1.74,1.74,0,0,1-2-2v-4H41.1V172.3h1.54v-2.43h2v2.43h1.68v1.58H44.59v3.45c0,.67.15.82.83.82H46.5Z" transform="translate(-0.18)"/>
        <path class="cls-10" d="M47.88,169.3H50v2h-2.1Zm.07,3H49.9v7.5H48Z" transform="translate(-0.18)"/>
        <path class="cls-10" d="M51.48,176.05a3.75,3.75,0,1,1,3.75,3.9A3.66,3.66,0,0,1,51.48,176.05Zm5.53,0c0-1.47-.67-2.32-1.72-2.32h-.12c-1.05,0-1.73.85-1.73,2.32s.68,2.33,1.73,2.33h.12C56.34,178.38,57,177.52,57,176.05Z" transform="translate(-0.18)"/>
        <path class="cls-10" d="M62.5,179.8h-2v-7.5h2v1.1a2.62,2.62,0,0,1,2.27-1.25c1.8,0,2.61,1.2,2.61,2.85v4.8H65.43v-4.57c0-1-.44-1.5-1.19-1.5h-.12a1.77,1.77,0,0,0-1.62,1.9Z" transform="translate(-0.18)"/>
      </g>
      <g>
        <path class="cls-10" d="M1.23,466.8h3.6c3.15,0,5.32,1.8,5.32,5.25s-2.1,5.25-5.25,5.25H1.23Zm3.45,8.7c2,0,3.45-.83,3.45-3.45S6.7,468.6,4.68,468.6H3.25v6.9Z" transform="translate(-0.18)"/>
        <path class="cls-10" d="M16,476.38a2.63,2.63,0,0,1-2.22,1.07,2.27,2.27,0,0,1-2.46-2.2c0-1.62,1.26-2.36,2.75-2.48l1.89-.16v-.19a1.16,1.16,0,0,0-1.22-1.2h-.09a1.12,1.12,0,0,0-1.22.91h-2c.15-1.42,1.35-2.48,3.23-2.48s3.15.94,3.15,2.7v3.3A13.65,13.65,0,0,0,18,477.3H16.12A8.66,8.66,0,0,1,16,476.38Zm-1.74-.5a1.65,1.65,0,0,0,1.7-1.64V474l-1.62.17c-.49,0-1.1.3-1.1.91s.41.77,1,.77Z" transform="translate(-0.18)"/>
        <path class="cls-10" d="M24.42,477.3H22.51a1.74,1.74,0,0,1-2-1.95v-4H19V469.8h1.54v-2.43h2v2.43h1.68v1.58H22.51v3.45c0,.67.15.82.83.82h1.08Z" transform="translate(-0.18)"/>
        <path class="cls-10" d="M30.09,476.38a2.64,2.64,0,0,1-2.22,1.07,2.27,2.27,0,0,1-2.46-2.2c0-1.62,1.26-2.36,2.74-2.48l1.89-.16v-.19a1.15,1.15,0,0,0-1.21-1.2h-.09a1.13,1.13,0,0,0-1.23.91h-2c.15-1.42,1.35-2.48,3.22-2.48s3.15.94,3.15,2.7v3.3A12,12,0,0,0,32,477.3H30.18A5.38,5.38,0,0,1,30.09,476.38Zm-1.74-.5A1.65,1.65,0,0,0,30,474.24V474l-1.62.17c-.49,0-1.09.3-1.09.91s.4.77.94.77Z" transform="translate(-0.18)"/>
        <path class="cls-10" d="M33.36,474.83h2A1.13,1.13,0,0,0,36.61,476h.12c.6,0,1-.28,1-.74s-.22-.61-.76-.75l-1-.24c-1.57-.39-2.32-1.05-2.32-2.26s1.15-2.31,3-2.31,3.06,1,3.06,2.63h-2c-.08-.73-.45-1.13-1.13-1.13h-.12c-.52,0-.94.28-.94.73s.34.62,1,.77l1,.26c1.44.35,2.1,1,2.1,2.23s-1.05,2.31-3.07,2.31S33.36,476.47,33.36,474.83Z" transform="translate(-0.18)"/>
        <path class="cls-10" d="M44.49,477.45a3.61,3.61,0,0,1-3.57-3.9c0-2.25,1.32-3.9,3.57-3.9s3.42,1.64,3.42,3.81c0,.22,0,.46,0,.71H42.81a1.77,1.77,0,0,0,1.71,1.71h.09a1.29,1.29,0,0,0,1.33-.95h1.94A3.24,3.24,0,0,1,44.49,477.45Zm-1.68-4.78H46a1.49,1.49,0,0,0-1.56-1.45h-.09A1.48,1.48,0,0,0,42.81,472.67Z" transform="translate(-0.18)"/>
        <path class="cls-10" d="M54,477.3h-1.9a1.74,1.74,0,0,1-1.95-1.95v-4H48.58V469.8h1.55v-2.43h1.95v2.43h1.68v1.58H52.08v3.45c0,.67.15.82.82.82H54Z" transform="translate(-0.18)"/>
        <path class="cls-10" d="M5.11,493.45A2.53,2.53,0,0,1,3,492.33v1H1V482.8H3v4a2.51,2.51,0,0,1,2.15-1.13c2.18,0,3.33,1.88,3.33,3.9S7.29,493.45,5.11,493.45Zm-.33-1.57c1,0,1.71-.92,1.71-2.34s-.73-2.32-1.71-2.32H4.67c-.91,0-1.71.91-1.71,2.33s.8,2.33,1.71,2.33Z" transform="translate(-0.18)"/>
        <path class="cls-10" d="M14.69,485.8h1.94v7.5H14.69v-1.09a2.54,2.54,0,0,1-2.19,1.24c-1.76,0-2.54-1.2-2.54-2.85v-4.8h1.95v4.58c0,1,.4,1.5,1.11,1.5h.12A1.76,1.76,0,0,0,14.69,490Z" transform="translate(-0.18)"/>
        <path class="cls-10" d="M18.57,482.8h2.1v2h-2.1Zm.08,3h2v7.5h-2Z" transform="translate(-0.18)"/>
        <path class="cls-10" d="M22.6,482.8h1.95v10.5H22.6Z" transform="translate(-0.18)"/>
        <path class="cls-10" d="M26.13,489.55c0-2,1.15-3.9,3.33-3.9a2.54,2.54,0,0,1,2.16,1.13v-4h1.95v10.5H31.62v-1a2.56,2.56,0,0,1-2.16,1.12C27.28,493.45,26.13,491.58,26.13,489.55Zm3.78,2.33c.9,0,1.71-.91,1.71-2.33s-.81-2.33-1.71-2.33h-.12c-1,0-1.71.89-1.71,2.32s.73,2.34,1.71,2.34Z" transform="translate(-0.18)"/>
        <path class="cls-10" d="M35.5,482.8h2.1v2H35.5Zm.08,3h2v7.5h-2Z" transform="translate(-0.18)"/>
        <path class="cls-10" d="M41.49,493.3h-2v-7.5h2v1.1a2.62,2.62,0,0,1,2.26-1.25c1.8,0,2.61,1.2,2.61,2.85v4.8h-2v-4.58c0-1-.43-1.5-1.18-1.5h-.12a1.78,1.78,0,0,0-1.62,1.91Z" transform="translate(-0.18)"/>
        <path class="cls-10" d="M47.76,494.13h2c.09.5.66.88,1.68.88h.09a1.65,1.65,0,0,0,1.75-1.79v-1a2.37,2.37,0,0,1-2.11,1.05c-1.73,0-3.24-1.35-3.24-3.83s1.51-3.82,3.24-3.82a2.37,2.37,0,0,1,2.11,1.05v-.9h2v7.66c0,1.58-1.29,3.12-3.88,3.12C49.3,496.58,47.83,495.58,47.76,494.13Zm3.87-2.41c.9,0,1.6-.82,1.6-2.25s-.7-2.25-1.6-2.25h-.12c-.95,0-1.68.83-1.68,2.25s.73,2.25,1.68,2.25Z" transform="translate(-0.18)"/>
      </g>
      <g>
        <path class="cls-10" d="M1.23,783.8h3.6c3.15,0,5.32,1.8,5.32,5.25s-2.1,5.25-5.25,5.25H1.23Zm3.45,8.7c2,0,3.45-.83,3.45-3.45S6.7,785.6,4.68,785.6H3.25v6.9Z" transform="translate(-0.18)"/>
        <path class="cls-10" d="M16,793.38a2.63,2.63,0,0,1-2.22,1.07,2.27,2.27,0,0,1-2.46-2.2c0-1.62,1.26-2.36,2.75-2.48l1.89-.16v-.19a1.16,1.16,0,0,0-1.22-1.2h-.09a1.12,1.12,0,0,0-1.22.91h-2c.15-1.42,1.35-2.48,3.23-2.48s3.15.94,3.15,2.7v3.3A13.65,13.65,0,0,0,18,794.3H16.12A8.66,8.66,0,0,1,16,793.38Zm-1.74-.5a1.65,1.65,0,0,0,1.7-1.64V791l-1.62.17c-.49,0-1.1.3-1.1.91s.41.77,1,.77Z" transform="translate(-0.18)"/>
        <path class="cls-10" d="M24.42,794.3H22.51a1.74,1.74,0,0,1-2-1.95v-4H19V786.8h1.54v-2.43h2v2.43h1.68v1.58H22.51v3.45c0,.67.15.82.83.82h1.08Z" transform="translate(-0.18)"/>
        <path class="cls-10" d="M30.09,793.38a2.64,2.64,0,0,1-2.22,1.07,2.27,2.27,0,0,1-2.46-2.2c0-1.62,1.26-2.36,2.74-2.48l1.89-.16v-.19a1.15,1.15,0,0,0-1.21-1.2h-.09a1.13,1.13,0,0,0-1.23.91h-2c.15-1.42,1.35-2.48,3.22-2.48s3.15.94,3.15,2.7v3.3A12,12,0,0,0,32,794.3H30.18A5.38,5.38,0,0,1,30.09,793.38Zm-1.74-.5A1.65,1.65,0,0,0,30,791.24V791l-1.62.17c-.49,0-1.09.3-1.09.91s.4.77.94.77Z" transform="translate(-0.18)"/>
        <path class="cls-10" d="M2.77,810.3.18,802.8H2.25l2,6.06,2-6.06h2l-2.59,7.5Z" transform="translate(-0.18)"/>
        <path class="cls-10" d="M9.31,799.8h2.1v2H9.31Zm.08,3h1.95v7.5H9.39Z" transform="translate(-0.18)"/>
        <path class="cls-10" d="M12.82,807.83h2A1.13,1.13,0,0,0,16.08,809h.12c.6,0,1-.28,1-.74s-.23-.61-.77-.75l-1-.24c-1.58-.39-2.33-1.05-2.33-2.26s1.16-2.31,3-2.31,3.06,1,3.06,2.63H17.26c-.07-.73-.45-1.13-1.12-1.13H16c-.53,0-.95.28-.95.73s.35.62,1,.77l1,.26c1.44.35,2.1,1.05,2.1,2.23s-1.05,2.31-3.08,2.31S12.82,809.47,12.82,807.83Z" transform="translate(-0.18)"/>
        <path class="cls-10" d="M25.47,802.8h2v7.5h-2v-1.09a2.53,2.53,0,0,1-2.19,1.24c-1.76,0-2.54-1.2-2.54-2.85v-4.8h2v4.58c0,1,.41,1.5,1.11,1.5h.12A1.76,1.76,0,0,0,25.47,807Z" transform="translate(-0.18)"/>
        <path class="cls-10" d="M33.64,809.38a2.63,2.63,0,0,1-2.22,1.07,2.27,2.27,0,0,1-2.46-2.2c0-1.62,1.26-2.36,2.75-2.48l1.89-.16v-.19a1.16,1.16,0,0,0-1.22-1.2h-.09a1.14,1.14,0,0,0-1.23.91H29.11c.15-1.42,1.35-2.48,3.23-2.48s3.15.94,3.15,2.7v3.3a13.65,13.65,0,0,0,.07,1.65H33.73A8.66,8.66,0,0,1,33.64,809.38Zm-1.74-.5a1.65,1.65,0,0,0,1.7-1.64V807L32,807.2c-.5,0-1.1.3-1.1.91s.41.77.95.77Z" transform="translate(-0.18)"/>
        <path class="cls-10" d="M37.44,799.8h2v10.5h-2Z" transform="translate(-0.18)"/>
        <path class="cls-10" d="M41.32,799.8h2.1v2h-2.1Zm.08,3h2v7.5h-2Z" transform="translate(-0.18)"/>
        <path class="cls-10" d="M44.94,810.3v-1.5l3.87-4.27H45V802.8h6.23v1.5l-3.87,4.28h4.09v1.72Z" transform="translate(-0.18)"/>
        <path class="cls-10" d="M57.21,809.38A2.64,2.64,0,0,1,55,810.45a2.27,2.27,0,0,1-2.46-2.2c0-1.62,1.26-2.36,2.74-2.48l1.89-.16v-.19a1.15,1.15,0,0,0-1.21-1.2h-.09a1.13,1.13,0,0,0-1.23.91h-2c.15-1.42,1.35-2.48,3.22-2.48s3.15.94,3.15,2.7v3.3a12,12,0,0,0,.08,1.65H57.3A5.38,5.38,0,0,1,57.21,809.38Zm-1.74-.5a1.65,1.65,0,0,0,1.69-1.64V807l-1.62.17c-.49,0-1.09.3-1.09.91s.4.77.94.77Z" transform="translate(-0.18)"/>
        <path class="cls-10" d="M65.59,810.3h-1.9a1.74,1.74,0,0,1-1.95-1.95v-4H60.19V802.8h1.55v-2.43h1.95v2.43h1.68v1.58H63.69v3.45c0,.67.15.82.82.82h1.08Z" transform="translate(-0.18)"/>
        <path class="cls-10" d="M67,799.8h2.1v2H67Zm.08,3h2v7.5h-2Z" transform="translate(-0.18)"/>
        <path class="cls-10" d="M70.57,806.55a3.75,3.75,0,1,1,3.75,3.9A3.66,3.66,0,0,1,70.57,806.55Zm5.54,0c0-1.47-.68-2.33-1.73-2.33h-.12c-1.05,0-1.72.86-1.72,2.33s.67,2.33,1.72,2.33h.12C75.43,808.88,76.11,808,76.11,806.55Z" transform="translate(-0.18)"/>
        <path class="cls-10" d="M81.6,810.3H79.65v-7.5H81.6v1.1a2.62,2.62,0,0,1,2.26-1.25c1.8,0,2.61,1.2,2.61,2.85v4.8h-2v-4.58c0-1-.43-1.5-1.18-1.5h-.12a1.78,1.78,0,0,0-1.62,1.91Z" transform="translate(-0.18)"/>
      </g>
      <g>
        <path class="cls-11" d="M342.11,36.11h-3l-.86,4h-2.57l.86-4H334V33.64h3l.82-3.89h-2.79V27.28h3.32l.86-4h2.57l-.87,4h3l.84-4h2.57l-.84,4H349v2.47h-3l-.82,3.89H348v2.47h-3.29l-.84,4h-2.56Zm1.34-6.36h-3l-.82,3.89h3Z" transform="translate(-0.18)"/>
        <path class="cls-11" d="M350.94,34.09c0-3.55,2.06-6.24,5.35-6.24a4.25,4.25,0,0,1,3.58,1.85V23.29h2.76v16.8h-2.76v-1.6a4.44,4.44,0,0,1-3.68,1.84C352.9,40.33,350.94,37.65,350.94,34.09Zm8.93,0c0-2.54-1.47-4-3-4h-.19c-1.68,0-2.95,1.44-2.95,4s1.27,4,2.95,4h.19C358.4,38.08,359.87,36.64,359.87,34.09Z" transform="translate(-0.18)"/>
        <path class="cls-11" d="M369.15,40.33a3.63,3.63,0,0,1-3.93-3.52c0-2.67,2.18-3.7,4.36-3.87l3.15-.26v-.34a2.07,2.07,0,0,0-2.19-2.23h-.14a2,2,0,0,0-2.18,1.61h-2.76c.19-2.23,2.13-3.87,5-3.87,3.08,0,5,1.78,5,4.42v5.18a20.34,20.34,0,0,0,.12,2.64H373a12.67,12.67,0,0,1-.14-1.65A4.24,4.24,0,0,1,369.15,40.33Zm.65-2.25a2.88,2.88,0,0,0,2.93-2.64v-.7L370,35c-1.06.1-2,.63-2,1.66a1.53,1.53,0,0,0,1.7,1.44Z" transform="translate(-0.18)"/>
        <path class="cls-11" d="M378.7,28.09h2.72v2.5A3.47,3.47,0,0,1,384.9,28h.81v2.6h-1c-2.09,0-3.22,1.17-3.22,3.36v6.16H378.7Z" transform="translate(-0.18)"/>
        <path class="cls-11" d="M392.15,34.81l-1.52,1.52v3.76h-2.76V23.29h2.76v9.6l4.76-4.8h3.48l-4.78,4.78,5,7.22h-3.32Z" transform="translate(-0.18)"/>
        <path class="cls-11" d="M408.06,40.09h-3a2.62,2.62,0,0,1-2.9-2.9V30.37h-2.55V28.09h2.55V24.21h2.76v3.88h2.76v2.28h-2.76v6.17c0,.94.24,1.18,1.17,1.18h1.95Z" transform="translate(-0.18)"/>
        <path class="cls-11" d="M409.57,34.09c0-3.64,2.45-6.24,5.88-6.24s5.9,2.6,5.9,6.24-2.44,6.24-5.9,6.24S409.57,37.74,409.57,34.09Zm9,0c0-2.52-1.22-4-3-4h-.22c-1.77,0-3,1.46-3,4s1.25,4,3,4h.22C417.35,38.08,418.57,36.61,418.57,34.09Z" transform="translate(-0.18)"/>
        <path class="cls-11" d="M434.34,40.09h-2.76v-2a3.92,3.92,0,0,1-3.65,2.2c-2.74,0-4.06-1.87-4.06-4.46V28.09h2.76v7.37c0,1.73.72,2.62,2,2.62h.22c1.44,0,2.69-1.42,2.69-3.39v-6.6h2.76Z" transform="translate(-0.18)"/>
        <path class="cls-11" d="M437.7,28.09h2.71v2.5A3.47,3.47,0,0,1,443.89,28h.82v2.6h-1c-2.09,0-3.21,1.17-3.21,3.36v6.16H437.7Z" transform="translate(-0.18)"/>
        <path class="cls-11" d="M446.77,23.29h3v3h-3Zm.09,4.8h2.76v12h-2.76Z" transform="translate(-0.18)"/>
        <path class="cls-11" d="M452.1,36.23h2.78a2.07,2.07,0,0,0,2.3,1.92h.2c1.08,0,1.87-.53,1.87-1.34s-.41-1.13-1.42-1.35l-1.63-.36c-2.28-.53-3.62-1.56-3.62-3.55,0-2.26,2-3.7,4.7-3.7,3.14,0,4.85,1.61,4.85,4.11h-2.76a1.94,1.94,0,0,0-2-1.92h-.22c-1,0-1.77.57-1.77,1.34s.5,1.11,1.58,1.35l1.73.4c2.11.48,3.36,1.54,3.36,3.56s-1.8,3.64-4.85,3.64C453.94,40.33,452.14,38.73,452.1,36.23Z" transform="translate(-0.18)"/>
        <path class="cls-11" d="M467.55,40.09h-2.76v-12h2.76V29.8a4.17,4.17,0,0,1,3.6-1.95A4,4,0,0,1,474.94,30a4.47,4.47,0,0,1,4-2.14c3,0,4.29,1.9,4.29,4.47v7.77h-2.76V32.75c0-1.63-.62-2.57-2.11-2.57h-.17a3,3,0,0,0-2.78,3.22v6.69h-2.76V32.75c0-1.63-.63-2.57-2.12-2.57h-.16a3,3,0,0,0-2.79,3.22Z" transform="translate(-0.18)"/>
      </g>
      <g>
        <path class="cls-11" d="M349.25,204.29h2.88v16.8h-2.88Z" transform="translate(-0.18)"/>
        <path class="cls-11" d="M358.63,221.09h-2.76v-12h2.76v1.73a4.27,4.27,0,0,1,3.72-2c2.83,0,4.25,1.83,4.25,4.42v7.82h-2.76v-7.41c0-1.61-.72-2.57-2.11-2.57h-.22a3.06,3.06,0,0,0-2.88,3.29Z" transform="translate(-0.18)"/>
        <path class="cls-11" d="M369,217.23h2.78a2.08,2.08,0,0,0,2.31,1.92h.19c1.08,0,1.87-.53,1.87-1.34s-.41-1.13-1.41-1.35l-1.64-.36c-2.28-.53-3.62-1.56-3.62-3.55,0-2.26,2-3.7,4.7-3.7,3.15,0,4.85,1.61,4.85,4.11h-2.76a1.94,1.94,0,0,0-2-1.92H374c-1,0-1.78.57-1.78,1.34s.5,1.11,1.58,1.35l1.73.4c2.11.48,3.36,1.54,3.36,3.56s-1.8,3.64-4.85,3.64C370.8,221.33,369,219.73,369,217.23Z" transform="translate(-0.18)"/>
        <path class="cls-11" d="M388.8,221.09h-3a2.62,2.62,0,0,1-2.9-2.9v-6.82h-2.55v-2.28h2.55v-3.88h2.76v3.88h2.76v2.28h-2.76v6.17c0,.94.24,1.18,1.17,1.18h1.95Z" transform="translate(-0.18)"/>
        <path class="cls-11" d="M394.32,221.33a3.64,3.64,0,0,1-3.94-3.52c0-2.67,2.18-3.7,4.37-3.87l3.14-.26v-.34a2.07,2.07,0,0,0-2.18-2.23h-.15a2,2,0,0,0-2.18,1.61h-2.76c.19-2.23,2.14-3.87,5-3.87,3.07,0,5,1.78,5,4.42v5.18a20.34,20.34,0,0,0,.12,2.64h-2.6a14.69,14.69,0,0,1-.14-1.65A4.22,4.22,0,0,1,394.32,221.33Zm.64-2.25a2.87,2.87,0,0,0,2.93-2.64v-.7l-2.76.24c-1.05.1-2,.63-2,1.66a1.54,1.54,0,0,0,1.71,1.44Z" transform="translate(-0.18)"/>
        <path class="cls-11" d="M403.87,204.29h2.76v16.8h-2.76Z" transform="translate(-0.18)"/>
        <path class="cls-11" d="M409.27,215.09c0-3.64,2.45-6.24,5.88-6.24s5.9,2.6,5.9,6.24-2.45,6.24-5.9,6.24S409.27,218.74,409.27,215.09Zm9,0c0-2.52-1.23-4-3-4h-.22c-1.77,0-3,1.46-3,4s1.25,4,3,4h.22C417,219.08,418.27,217.61,418.27,215.09Z" transform="translate(-0.18)"/>
        <path class="cls-11" d="M426.86,221.33a3.64,3.64,0,0,1-3.94-3.52c0-2.67,2.19-3.7,4.37-3.87l3.15-.26v-.34a2.07,2.07,0,0,0-2.19-2.23h-.14a2,2,0,0,0-2.19,1.61h-2.76c.2-2.23,2.14-3.87,5-3.87,3.07,0,5,1.78,5,4.42v5.18a20.34,20.34,0,0,0,.12,2.64h-2.59a14.85,14.85,0,0,1-.15-1.65A4.22,4.22,0,0,1,426.86,221.33Zm.65-2.25a2.88,2.88,0,0,0,2.93-2.64v-.7l-2.76.24c-1.06.1-2,.63-2,1.66a1.53,1.53,0,0,0,1.7,1.44Z" transform="translate(-0.18)"/>
        <path class="cls-11" d="M435.72,215.09c0-3.55,2.06-6.24,5.35-6.24a4.25,4.25,0,0,1,3.58,1.85v-6.41h2.76v16.8h-2.76v-1.6a4.44,4.44,0,0,1-3.68,1.84C437.68,221.33,435.72,218.65,435.72,215.09Zm8.93,0c0-2.54-1.47-4-3-4h-.19c-1.68,0-2.95,1.44-2.95,4s1.27,4,2.95,4h.19C443.18,219.08,444.65,217.64,444.65,215.09Z" transform="translate(-0.18)"/>
        <path class="cls-11" d="M455.76,221.33c-3,0-5.69-2.18-5.69-6.24,0-3.84,2.37-6.24,5.64-6.24s5.33,2.43,5.33,5.74c0,.22,0,1-.05,1.22h-8.23a3.22,3.22,0,0,0,3,3.27h.14a2.25,2.25,0,0,0,2.33-1.68H461A5,5,0,0,1,455.76,221.33Zm2.56-7.65a2.49,2.49,0,0,0-2.59-2.57h-.17a2.69,2.69,0,0,0-2.73,2.57Z" transform="translate(-0.18)"/>
        <path class="cls-11" d="M463.65,209.09h2.71v2.5a3.47,3.47,0,0,1,3.48-2.62h.82v2.6h-1c-2.09,0-3.22,1.17-3.22,3.36v6.16h-2.76Z" transform="translate(-0.18)"/>
      </g>
      <g>
        <path class="cls-3" d="M341,244.75h2.18l4.08,10.5h-1.89l-1-2.57h-4.67l-1,2.57h-1.87Zm1,1.87-1.71,4.44h3.42Z" transform="translate(-0.18)"/>
        <path class="cls-3" d="M354.82,255.25H353.1V254a2.45,2.45,0,0,1-2.28,1.38c-1.71,0-2.54-1.17-2.54-2.79v-4.86H350v4.6c0,1.08.45,1.64,1.27,1.64h.14a1.92,1.92,0,0,0,1.68-2.12v-4.12h1.72Z" transform="translate(-0.18)"/>
        <path class="cls-3" d="M361.39,255.25h-1.86a1.64,1.64,0,0,1-1.81-1.82v-4.26h-1.59v-1.42h1.59v-2.43h1.72v2.43h1.73v1.42h-1.73V253c0,.58.15.73.74.73h1.21Z" transform="translate(-0.18)"/>
        <path class="cls-3" d="M362.34,251.5a3.69,3.69,0,1,1,3.67,3.9A3.65,3.65,0,0,1,362.34,251.5Zm5.62,0c0-1.58-.76-2.49-1.87-2.49H366c-1.11,0-1.89.91-1.89,2.49S364.84,254,366,254h.14C367.2,254,368,253.07,368,251.5Z" transform="translate(-0.18)"/>
        <path class="cls-3" d="M373.08,255.25h-1.73v-7.5h1.73v1.06a2.6,2.6,0,0,1,2.25-1.21,2.47,2.47,0,0,1,2.37,1.33,2.77,2.77,0,0,1,2.47-1.33,2.5,2.5,0,0,1,2.69,2.79v4.86h-1.73v-4.59c0-1-.39-1.61-1.32-1.61h-.1a1.85,1.85,0,0,0-1.74,2v4.19h-1.73v-4.59c0-1-.39-1.61-1.32-1.61h-.1a1.85,1.85,0,0,0-1.74,2Z" transform="translate(-0.18)"/>
        <path class="cls-3" d="M386.86,255.4a2.28,2.28,0,0,1-2.46-2.21c0-1.66,1.37-2.31,2.73-2.41l2-.17v-.21a1.29,1.29,0,0,0-1.37-1.39h-.09a1.24,1.24,0,0,0-1.36,1h-1.73c.12-1.39,1.34-2.41,3.14-2.41s3.1,1.11,3.1,2.76v3.24a12,12,0,0,0,.08,1.65h-1.62a8.13,8.13,0,0,1-.09-1A2.64,2.64,0,0,1,386.86,255.4Zm.41-1.41a1.8,1.8,0,0,0,1.83-1.65v-.44l-1.73.15c-.66.06-1.27.39-1.27,1a1,1,0,0,0,1.06.9Z" transform="translate(-0.18)"/>
        <path class="cls-3" d="M397.23,255.25h-1.86a1.64,1.64,0,0,1-1.82-1.82v-4.26H392v-1.42h1.59v-2.43h1.73v2.43H397v1.42h-1.72V253c0,.58.15.73.73.73h1.22Z" transform="translate(-0.18)"/>
        <path class="cls-3" d="M401.74,255.4a3.57,3.57,0,0,1-3.55-3.9c0-2.4,1.48-3.9,3.52-3.9s3.33,1.51,3.33,3.58c0,.14,0,.63,0,.77h-5.14a2,2,0,0,0,1.89,2h.09a1.4,1.4,0,0,0,1.45-1.05H405A3.09,3.09,0,0,1,401.74,255.4Zm1.61-4.79a1.56,1.56,0,0,0-1.62-1.6h-.11a1.69,1.69,0,0,0-1.71,1.6Z" transform="translate(-0.18)"/>
        <path class="cls-3" d="M406.24,251.5c0-2.22,1.29-3.9,3.35-3.9a2.63,2.63,0,0,1,2.23,1.15v-4h1.73v10.5h-1.73v-1a2.73,2.73,0,0,1-2.29,1.16C407.47,255.4,406.24,253.72,406.24,251.5Zm5.58,0c0-1.59-.91-2.49-1.89-2.49h-.12c-1.05,0-1.84.9-1.84,2.47s.79,2.51,1.84,2.51h.12C410.91,254,411.82,253.09,411.82,251.5Z" transform="translate(-0.18)"/>
        <path class="cls-3" d="M418.66,252.83h1.74a1.3,1.3,0,0,0,1.44,1.2H422c.68,0,1.17-.33,1.17-.84s-.25-.7-.88-.84l-1-.22c-1.43-.33-2.27-1-2.27-2.22,0-1.41,1.23-2.31,2.94-2.31,2,0,3,1,3,2.56h-1.72a1.22,1.22,0,0,0-1.28-1.2h-.13c-.65,0-1.11.36-1.11.84s.31.69,1,.84l1.08.26c1.32.3,2.1,1,2.1,2.22s-1.13,2.28-3,2.28S418.69,254.39,418.66,252.83Z" transform="translate(-0.18)"/>
        <path class="cls-3" d="M433,252.68c-.15,1.77-1.39,2.72-3.24,2.72a3.91,3.91,0,0,1,0-7.8c1.85,0,3.09.94,3.24,2.71h-1.72a1.41,1.41,0,0,0-1.47-1.3h-.11c-1.26,0-1.81,1.15-1.81,2.49s.55,2.49,1.81,2.49h.11a1.42,1.42,0,0,0,1.47-1.31Z" transform="translate(-0.18)"/>
        <path class="cls-3" d="M434.61,247.75h1.69v1.56a2.18,2.18,0,0,1,2.18-1.64H439v1.62h-.65a1.85,1.85,0,0,0-2,2.1v3.86h-1.72Z" transform="translate(-0.18)"/>
        <path class="cls-3" d="M442.18,255.4a2.28,2.28,0,0,1-2.46-2.21c0-1.66,1.37-2.31,2.73-2.41l2-.17v-.21a1.29,1.29,0,0,0-1.37-1.39H443a1.24,1.24,0,0,0-1.36,1h-1.73c.12-1.39,1.34-2.41,3.14-2.41s3.1,1.11,3.1,2.76v3.24a12,12,0,0,0,.08,1.65h-1.62a8.13,8.13,0,0,1-.09-1A2.64,2.64,0,0,1,442.18,255.4Zm.41-1.41a1.8,1.8,0,0,0,1.83-1.65v-.44l-1.73.15c-.66.06-1.27.39-1.27,1a1,1,0,0,0,1.06.9Z" transform="translate(-0.18)"/>
        <path class="cls-3" d="M455.46,251.5c0,2.22-1.29,3.9-3.35,3.9a2.61,2.61,0,0,1-2.23-1.16v4h-1.73v-10.5h1.73v1a2.74,2.74,0,0,1,2.29-1.15C454.23,247.6,455.46,249.28,455.46,251.5Zm-5.58,0c0,1.59.91,2.49,1.89,2.49h.12c1.05,0,1.84-.9,1.84-2.48s-.79-2.5-1.84-2.5h-.12C450.79,249,449.88,249.91,449.88,251.5Z" transform="translate(-0.18)"/>
        <path class="cls-3" d="M457.06,244.75h1.88v1.86h-1.88Zm.06,3h1.73v7.5h-1.73Z" transform="translate(-0.18)"/>
        <path class="cls-3" d="M462.67,255.25H461v-7.5h1.72v1.08A2.66,2.66,0,0,1,465,247.6a2.48,2.48,0,0,1,2.65,2.76v4.89h-1.72v-4.64c0-1-.45-1.6-1.32-1.6h-.14a1.91,1.91,0,0,0-1.8,2.05Z" transform="translate(-0.18)"/>
        <path class="cls-3" d="M469.12,256.13h1.73c.12.62.79,1,1.81,1h.11a1.78,1.78,0,0,0,1.93-2v-1a2.47,2.47,0,0,1-2.16,1.11c-1.72,0-3.28-1.29-3.28-3.83s1.53-3.82,3.28-3.82a2.42,2.42,0,0,1,2.16,1.11v-1h1.73v7.59c0,1.71-1.31,3.19-3.8,3.19C470.59,258.53,469.23,257.54,469.12,256.13Zm3.8-2.29c.94,0,1.78-.9,1.78-2.42S473.89,249,473,249h-.14c-1,0-1.83.79-1.83,2.41s.81,2.42,1.8,2.42Z" transform="translate(-0.18)"/>
        <path class="cls-3" d="M309.08,269.5a3.69,3.69,0,1,1,3.68,3.9A3.65,3.65,0,0,1,309.08,269.5Zm5.63,0c0-1.58-.77-2.49-1.88-2.49h-.13c-1.11,0-1.89.91-1.89,2.49s.78,2.49,1.89,2.49h.13C313.94,272,314.71,271.07,314.71,269.5Z" transform="translate(-0.18)"/>
        <path class="cls-3" d="M318.79,267.17h-1.58v-1.42h1.58v-1.22a1.59,1.59,0,0,1,1.8-1.78h2.11v1.45h-1.45c-.59,0-.74.15-.74.74v.81h1.82v1.42h-1.82v6.08h-1.72Z" transform="translate(-0.18)"/>
        <path class="cls-3" d="M331.18,273.25h-1.86a1.64,1.64,0,0,1-1.82-1.82v-4.26h-1.59v-1.42h1.59v-2.43h1.73v2.43H331v1.42h-1.72V271c0,.58.15.73.73.73h1.22Z" transform="translate(-0.18)"/>
        <path class="cls-3" d="M334.37,273.25h-1.72v-10.5h1.72v4.08a2.66,2.66,0,0,1,2.33-1.23,2.48,2.48,0,0,1,2.65,2.76v4.89h-1.72v-4.64c0-1-.45-1.6-1.32-1.6h-.14a1.91,1.91,0,0,0-1.8,2.05Z" transform="translate(-0.18)"/>
        <path class="cls-3" d="M344.5,273.4a3.57,3.57,0,0,1-3.56-3.9c0-2.4,1.49-3.9,3.53-3.9s3.33,1.51,3.33,3.58c0,.14,0,.63,0,.77h-5.15a2,2,0,0,0,1.89,2h.09a1.41,1.41,0,0,0,1.46-1.05h1.71A3.1,3.1,0,0,1,344.5,273.4Zm1.6-4.79a1.56,1.56,0,0,0-1.62-1.6h-.1a1.68,1.68,0,0,0-1.71,1.6Z" transform="translate(-0.18)"/>
        <path class="cls-3" d="M352.45,270.38h1.77a1.85,1.85,0,0,0,2,1.49h.11a1.8,1.8,0,0,0,1.9-1.89,1.73,1.73,0,0,0-1.86-1.77h-.12a2.29,2.29,0,0,0-1.77.85h-1.66l1.29-6.31h5.79v1.56h-4.47l-.65,3.09a2.94,2.94,0,0,1,1.94-.72A3.12,3.12,0,0,1,360,269.9a3.45,3.45,0,0,1-3.73,3.5C354.19,273.4,352.63,272.24,352.45,270.38Z" transform="translate(-0.18)"/>
        <path class="cls-3" d="M361.55,268c0-3.36,1.55-5.4,4.2-5.4s4.22,2,4.22,5.4-1.52,5.4-4.22,5.4S361.55,271.36,361.55,268Zm4.28,3.87c1.42,0,2.37-1.28,2.37-3.87s-.95-3.87-2.37-3.87h-.14c-1.42,0-2.37,1.27-2.37,3.87s.95,3.87,2.37,3.87Z" transform="translate(-0.18)"/>
        <path class="cls-3" d="M371.54,268c0-3.36,1.55-5.4,4.2-5.4s4.22,2,4.22,5.4-1.52,5.4-4.22,5.4S371.54,271.36,371.54,268Zm4.28,3.87c1.42,0,2.37-1.28,2.37-3.87s-.95-3.87-2.37-3.87h-.14c-1.42,0-2.37,1.27-2.37,3.87s.95,3.87,2.37,3.87Z" transform="translate(-0.18)"/>
        <path class="cls-3" d="M387.1,273.25h-1.73v-7.5h1.73v1.06a2.6,2.6,0,0,1,2.25-1.21,2.47,2.47,0,0,1,2.37,1.33,2.77,2.77,0,0,1,2.47-1.33,2.5,2.5,0,0,1,2.69,2.79v4.86h-1.73v-4.59c0-1-.39-1.61-1.32-1.61h-.1a1.85,1.85,0,0,0-1.74,2v4.19h-1.73v-4.59c0-1-.39-1.61-1.32-1.61h-.1a1.85,1.85,0,0,0-1.74,2Z" transform="translate(-0.18)"/>
        <path class="cls-3" d="M398.45,269.5a3.69,3.69,0,1,1,3.68,3.9A3.65,3.65,0,0,1,398.45,269.5Zm5.63,0c0-1.58-.77-2.49-1.88-2.49h-.13c-1.11,0-1.89.91-1.89,2.49S401,272,402.07,272h.13C403.31,272,404.08,271.07,404.08,269.5Z" transform="translate(-0.18)"/>
        <path class="cls-3" d="M406.91,270.83h1.74a1.3,1.3,0,0,0,1.44,1.2h.12c.68,0,1.17-.33,1.17-.84s-.25-.7-.88-.84l-1-.22c-1.43-.33-2.27-1-2.27-2.22,0-1.41,1.23-2.31,2.94-2.31,2,0,3,1,3,2.56h-1.72a1.22,1.22,0,0,0-1.28-1.2h-.13c-.65,0-1.11.36-1.11.84s.31.69,1,.84l1.08.26c1.32.3,2.1,1,2.1,2.22s-1.13,2.28-3,2.28S406.94,272.39,406.91,270.83Z" transform="translate(-0.18)"/>
        <path class="cls-3" d="M419.32,273.25h-1.86a1.64,1.64,0,0,1-1.82-1.82v-4.26h-1.59v-1.42h1.59v-2.43h1.73v2.43h1.72v1.42h-1.72V271c0,.58.15.73.73.73h1.22Z" transform="translate(-0.18)"/>
        <path class="cls-3" d="M424.36,265.75h1.69v1.56a2.17,2.17,0,0,1,2.18-1.64h.51v1.62h-.65a1.85,1.85,0,0,0-2,2.1v3.86h-1.72Z" transform="translate(-0.18)"/>
        <path class="cls-3" d="M433,273.4a3.57,3.57,0,0,1-3.56-3.9c0-2.4,1.49-3.9,3.52-3.9s3.33,1.51,3.33,3.58c0,.14,0,.63,0,.77h-5.15a2,2,0,0,0,1.89,2h.09a1.41,1.41,0,0,0,1.46-1.05h1.71A3.1,3.1,0,0,1,433,273.4Zm1.6-4.79A1.56,1.56,0,0,0,433,267h-.1a1.68,1.68,0,0,0-1.71,1.6Z" transform="translate(-0.18)"/>
        <path class="cls-3" d="M444.33,270.68c-.15,1.77-1.39,2.72-3.24,2.72-2.16,0-3.59-1.59-3.59-3.9s1.43-3.9,3.59-3.9c1.85,0,3.09.94,3.24,2.71h-1.72a1.41,1.41,0,0,0-1.47-1.3H441c-1.26,0-1.82,1.15-1.82,2.49S439.78,272,441,272h.1a1.42,1.42,0,0,0,1.47-1.31Z" transform="translate(-0.18)"/>
        <path class="cls-3" d="M449.06,273.4a3.57,3.57,0,0,1-3.56-3.9c0-2.4,1.49-3.9,3.53-3.9s3.33,1.51,3.33,3.58c0,.14,0,.63,0,.77h-5.14a2,2,0,0,0,1.89,2h.09a1.4,1.4,0,0,0,1.45-1.05h1.71A3.1,3.1,0,0,1,449.06,273.4Zm1.61-4.79A1.56,1.56,0,0,0,449,267h-.1a1.69,1.69,0,0,0-1.71,1.6Z" transform="translate(-0.18)"/>
        <path class="cls-3" d="M455.72,273.25H454v-7.5h1.72v1.08A2.66,2.66,0,0,1,458,265.6a2.49,2.49,0,0,1,2.66,2.76v4.89H459v-4.64c0-1-.45-1.6-1.31-1.6h-.14a1.91,1.91,0,0,0-1.8,2.05Z" transform="translate(-0.18)"/>
        <path class="cls-3" d="M467.13,273.25h-1.86a1.64,1.64,0,0,1-1.81-1.82v-4.26h-1.59v-1.42h1.59v-2.43h1.72v2.43h1.73v1.42h-1.73V271c0,.58.15.73.74.73h1.21Z" transform="translate(-0.18)"/>
        <path class="cls-3" d="M479.48,269.5c0,2.22-1.29,3.9-3.35,3.9a2.62,2.62,0,0,1-2.23-1.16v4h-1.73v-10.5h1.73v1a2.76,2.76,0,0,1,2.29-1.15C478.25,265.6,479.48,267.28,479.48,269.5Zm-5.58,0c0,1.59.91,2.49,1.89,2.49h.12c1,0,1.84-.9,1.84-2.48s-.79-2.5-1.84-2.5h-.12C474.81,267,473.9,267.91,473.9,269.5Z" transform="translate(-0.18)"/>
        <path class="cls-3" d="M480.69,269.5a3.69,3.69,0,1,1,3.68,3.9A3.65,3.65,0,0,1,480.69,269.5Zm5.63,0c0-1.58-.77-2.49-1.88-2.49h-.13c-1.11,0-1.89.91-1.89,2.49s.78,2.49,1.89,2.49h.13C485.55,272,486.32,271.07,486.32,269.5Z" transform="translate(-0.18)"/>
        <path class="cls-3" d="M489.15,270.83h1.74a1.3,1.3,0,0,0,1.44,1.2h.12c.68,0,1.17-.33,1.17-.84s-.25-.7-.88-.84l-1-.22c-1.43-.33-2.27-1-2.27-2.22,0-1.41,1.23-2.31,2.94-2.31,2,0,3,1,3,2.56H493.7a1.22,1.22,0,0,0-1.28-1.2h-.13c-.65,0-1.11.36-1.11.84s.31.69,1,.84l1.08.26c1.32.3,2.1,1,2.1,2.22s-1.13,2.28-3,2.28S489.18,272.39,489.15,270.83Z" transform="translate(-0.18)"/>
        <path class="cls-3" d="M501.56,273.25H499.7a1.64,1.64,0,0,1-1.82-1.82v-4.26h-1.59v-1.42h1.59v-2.43h1.73v2.43h1.72v1.42h-1.72V271c0,.58.15.73.73.73h1.22Z" transform="translate(-0.18)"/>
        <path class="cls-3" d="M502.47,270.83h1.74a1.3,1.3,0,0,0,1.44,1.2h.12c.68,0,1.17-.33,1.17-.84s-.25-.7-.88-.84l-1-.22c-1.43-.33-2.27-1-2.27-2.22,0-1.41,1.23-2.31,2.94-2.31,2,0,3,1,3,2.56H507a1.22,1.22,0,0,0-1.28-1.2h-.13c-.65,0-1.11.36-1.11.84s.31.69,1,.84l1.08.26c1.32.3,2.1,1,2.1,2.22s-1.13,2.28-3,2.28S502.5,272.39,502.47,270.83Z" transform="translate(-0.18)"/>
      </g>
      <g>
        <path class="cls-5" d="M611.28,217.44h1.88l-.39,1.8h-1.88Z" transform="translate(-0.18)"/>
        <path class="cls-5" d="M616,220.6a1.59,1.59,0,0,1-1.65,1.41H612l.27-1.27h1.77c.3,0,.54-.15.63-.59l1.79-8.41h1.42Zm1-11.86h1.58l-.35,1.65h-1.57Z" transform="translate(-0.18)"/>
        <path class="cls-5" d="M621.51,219.39c-1.87,0-3-.93-3.1-2.48h1.45c.06.92.8,1.28,1.7,1.28s1.42-.41,1.42-1c0-.43-.33-.75-.85-.91l-.86-.27c-1.12-.36-1.84-1-1.84-2,0-1.29,1.12-2.35,2.86-2.35a2.61,2.61,0,0,1,2.9,2.47h-1.44a1.38,1.38,0,0,0-1.55-1.27c-.81,0-1.38.42-1.38,1.05,0,.43.3.75.83.91l.9.29c.88.28,1.86.79,1.86,2.08S623.16,219.39,621.51,219.39Z" transform="translate(-0.18)"/>
        <path class="cls-5" d="M626.13,215.92a4.14,4.14,0,0,1,4-4.33c2.17,0,3.28,1.44,3.28,3.46a4.15,4.15,0,0,1-4,4.34C627.24,219.39,626.13,218,626.13,215.92Zm4-3.13a2.81,2.81,0,0,0-2.52,3.06c0,1.35.67,2.34,2,2.34a2.81,2.81,0,0,0,2.52-3.06C632,213.78,631.35,212.79,630.08,212.79Z" transform="translate(-0.18)"/>
        <path class="cls-5" d="M635.85,219.24h-1.42l1.59-7.5h1.42l-.22,1.09a2.84,2.84,0,0,1,2.37-1.24,2.24,2.24,0,0,1,2.28,2.29,3.91,3.91,0,0,1-.08.75l-1,4.61h-1.43l1-4.49a4.34,4.34,0,0,0,.06-.63,1.18,1.18,0,0,0-1.33-1.33c-1,0-2,.76-2.4,2.55Z" transform="translate(-0.18)"/>
        <path class="cls-5" d="M653.52,213h-3.6l-1.33,6.27h-1.43L648.5,213h-1.64l.26-1.23h1.63l.35-1.59a1.54,1.54,0,0,1,1.62-1.41h2.35L652.8,210h-1.74c-.39,0-.55.21-.64.62l-.24,1.14h5l-1.59,7.5h-1.42Zm.8-4.23h1.57l-.34,1.65H654Z" transform="translate(-0.18)"/>
        <path class="cls-5" d="M658.1,208.74h1.42l-2.23,10.5h-1.43Z" transform="translate(-0.18)"/>
        <path class="cls-5" d="M663.17,219.39a3.19,3.19,0,0,1-3.3-3.47,4.09,4.09,0,0,1,4.08-4.33,2.77,2.77,0,0,1,2.86,3.07,5.27,5.27,0,0,1-.16,1.05h-5.43v.21a2,2,0,0,0,2,2.27,1.9,1.9,0,0,0,1.89-1.17h1.43A3.25,3.25,0,0,1,663.17,219.39Zm-1.74-4.8h4c0-.09,0-.24,0-.35a1.48,1.48,0,0,0-1.65-1.45A2.43,2.43,0,0,0,661.43,214.59Z" transform="translate(-0.18)"/>
        <path class="cls-5" d="M670.67,219.39c-1.88,0-3-.93-3.11-2.48H669c.06.92.79,1.28,1.69,1.28s1.43-.41,1.43-1c0-.43-.33-.75-.86-.91l-.85-.27c-1.13-.36-1.85-1-1.85-2,0-1.29,1.13-2.35,2.87-2.35a2.6,2.6,0,0,1,2.89,2.47H672.9a1.37,1.37,0,0,0-1.54-1.27c-.81,0-1.38.42-1.38,1.05,0,.43.3.75.82.91l.9.29c.89.28,1.86.79,1.86,2.08S672.32,219.39,670.67,219.39Z" transform="translate(-0.18)"/>
      </g>
      <g>
        <path class="cls-11" d="M341.71,420.69c0-5.4,3.36-8.64,8-8.64s8.06,3.24,8.06,8.64-3.36,8.64-8.06,8.64S341.71,426.09,341.71,420.69Zm8.16,6.08c3.05,0,5.06-2.26,5.06-6.08s-2-6.07-5.06-6.07h-.24c-3.05,0-5,2.26-5,6.07s2,6.08,5,6.08Z" transform="translate(-0.18)"/>
        <path class="cls-11" d="M372.29,423.09c0,3.56-2.07,6.24-5.36,6.24a4.21,4.21,0,0,1-3.57-1.84v6.41H360.6V417.09h2.76v1.61a4.41,4.41,0,0,1,3.67-1.85C370.32,416.85,372.29,419.54,372.29,423.09Zm-8.93,0c0,2.55,1.46,4,3,4h.19c1.68,0,3-1.44,3-4s-1.28-4-3-4h-.19C364.82,419.11,363.36,420.55,363.36,423.09Z" transform="translate(-0.18)"/>
        <path class="cls-11" d="M379.94,429.33c-3,0-5.69-2.18-5.69-6.24,0-3.84,2.38-6.24,5.64-6.24,3.41,0,5.33,2.43,5.33,5.74,0,.22,0,1-.05,1.22h-8.23a3.22,3.22,0,0,0,3,3.27h.14a2.25,2.25,0,0,0,2.33-1.68h2.73A4.94,4.94,0,0,1,379.94,429.33Zm2.57-7.65a2.5,2.5,0,0,0-2.59-2.57h-.17a2.7,2.7,0,0,0-2.74,2.57Z" transform="translate(-0.18)"/>
        <path class="cls-11" d="M390.6,429.09h-2.76v-12h2.76v1.73a4.26,4.26,0,0,1,3.72-2c2.83,0,4.25,1.83,4.25,4.42v7.82h-2.76v-7.41c0-1.61-.72-2.57-2.12-2.57h-.21a3.06,3.06,0,0,0-2.88,3.29Z" transform="translate(-0.18)"/>
        <path class="cls-11" d="M407.9,412.29h7.56c3,0,5.21,1.92,5.21,4.56a4.07,4.07,0,0,1-2.79,4.25c1.83,0,2.55.79,2.55,2.38v5.61h-2.88V424.2c0-1.25-.36-1.61-1.61-1.61h-5.16v6.5H407.9Zm6.84,7.76c2,0,3.05-1.08,3.05-2.69s-1.06-2.5-3.05-2.5h-4v5.19Z" transform="translate(-0.18)"/>
        <path class="cls-11" d="M428.9,429.33c-3,0-5.69-2.18-5.69-6.24,0-3.84,2.38-6.24,5.64-6.24s5.33,2.43,5.33,5.74c0,.22,0,1-.05,1.22H425.9a3.22,3.22,0,0,0,3,3.27h.15a2.25,2.25,0,0,0,2.33-1.68h2.73A5,5,0,0,1,428.9,429.33Zm2.57-7.65a2.5,2.5,0,0,0-2.59-2.57h-.17a2.7,2.7,0,0,0-2.74,2.57Z" transform="translate(-0.18)"/>
        <path class="cls-11" d="M437.9,429.09v-9.72h-2.52v-2.28h2.52v-1.94a2.56,2.56,0,0,1,2.88-2.86h3.39v2.33h-2.33c-.94,0-1.18.24-1.18,1.18v1.29h8v12h-2.76v-9.72h-5.28v9.72Zm7.94-16.8h3v3h-3Z" transform="translate(-0.18)"/>
        <path class="cls-11" d="M454.82,429.09h-2.76v-12h2.76v1.73a4.27,4.27,0,0,1,3.72-2c2.83,0,4.25,1.83,4.25,4.42v7.82H460v-7.41c0-1.61-.72-2.57-2.11-2.57h-.22a3.06,3.06,0,0,0-2.88,3.29Z" transform="translate(-0.18)"/>
        <path class="cls-11" d="M471,429.33c-3,0-5.69-2.18-5.69-6.24,0-3.84,2.38-6.24,5.64-6.24s5.33,2.43,5.33,5.74c0,.22,0,1-.05,1.22H468a3.22,3.22,0,0,0,3,3.27h.15a2.25,2.25,0,0,0,2.33-1.68h2.73A5,5,0,0,1,471,429.33Zm2.57-7.65a2.5,2.5,0,0,0-2.59-2.57h-.17a2.7,2.7,0,0,0-2.74,2.57Z" transform="translate(-0.18)"/>
      </g>
      <g>
        <path class="cls-11" d="M390.33,729.17c-.38.75-2,2.16-4.89,2.16-4.75,0-8-3.67-8-8.64s3.19-8.66,8.23-8.66c4.32,0,6.79,2.54,7,5.93h-2.88c-.24-2-1.58-3.34-4-3.34h-.24c-3.22,0-5.23,2.33-5.23,6.07s2,6.08,5.23,6.08h.24a4.27,4.27,0,0,0,4.56-3.58l0-.19h-4.65v-2.57h5.11a1.84,1.84,0,0,1,2,2v6.62h-2.5Z" transform="translate(-0.18)"/>
        <path class="cls-11" d="M400.85,731.33c-3,0-5.69-2.18-5.69-6.24,0-3.84,2.37-6.24,5.64-6.24s5.33,2.43,5.33,5.74c0,.22,0,1-.05,1.22h-8.23a3.22,3.22,0,0,0,3,3.27H401a2.25,2.25,0,0,0,2.33-1.68h2.74A5,5,0,0,1,400.85,731.33Zm2.56-7.65a2.49,2.49,0,0,0-2.59-2.57h-.17a2.69,2.69,0,0,0-2.73,2.57Z" transform="translate(-0.18)"/>
        <path class="cls-11" d="M420.43,725.09c0,3.56-2.06,6.24-5.35,6.24a4.23,4.23,0,0,1-3.58-1.84v6.41h-2.76V719.09h2.76v1.61a4.41,4.41,0,0,1,3.67-1.85C418.46,718.85,420.43,721.54,420.43,725.09Zm-8.93,0c0,2.55,1.47,4,3,4h.19c1.68,0,2.95-1.44,2.95-4s-1.27-4-2.95-4h-.19C413,721.11,411.5,722.55,411.5,725.09Z" transform="translate(-0.18)"/>
        <path class="cls-11" d="M425.85,731.09h-2.76v-16.8h2.76v6.53a4.27,4.27,0,0,1,3.72-2c2.84,0,4.25,1.83,4.25,4.42v7.82h-2.76v-7.41c0-1.61-.72-2.57-2.11-2.57h-.22a3.06,3.06,0,0,0-2.88,3.29Z" transform="translate(-0.18)"/>
        <path class="cls-11" d="M437,714.29h3v3h-3Zm.1,4.8h2.76v12h-2.76Z" transform="translate(-0.18)"/>
      </g>
      <g>
        <path class="cls-11" d="M366.14,514.88h3.22v3.21h-3.22Z" transform="translate(-0.18)"/>
        <path class="cls-11" d="M377.11,514.16l-2.86,3.93h-3l4.39-6-4.27-6h3.12l2.71,3.77,2.73-3.77h3.05L378.67,512l4.39,6.12h-3.12Z" transform="translate(-0.18)"/>
        <path class="cls-11" d="M385.05,501.29h2.76v16.8h-2.76Z" transform="translate(-0.18)"/>
        <path class="cls-11" d="M390.28,514.23h2.79a2.07,2.07,0,0,0,2.3,1.92h.19c1.08,0,1.88-.53,1.88-1.34s-.41-1.13-1.42-1.35l-1.63-.36c-2.28-.53-3.63-1.56-3.63-3.55,0-2.26,2-3.7,4.71-3.7,3.14,0,4.85,1.61,4.85,4.11h-2.76a1.94,1.94,0,0,0-2-1.92h-.22c-1,0-1.78.57-1.78,1.34s.51,1.11,1.59,1.35l1.73.4c2.11.48,3.36,1.54,3.36,3.56s-1.8,3.64-4.85,3.64C392.13,518.33,390.33,516.73,390.28,514.23Z" transform="translate(-0.18)"/>
        <path class="cls-11" d="M407.21,514.16l-2.86,3.93H401.3l4.39-6-4.27-6h3.12l2.71,3.77,2.74-3.77H413L408.76,512l4.4,6.12H410Z" transform="translate(-0.18)"/>
        <path class="cls-11" d="M421.75,518.09v-9.72h-2.52v-2.28h2.52v-1.94a2.56,2.56,0,0,1,2.88-2.86H428v2.33h-2.33c-.93,0-1.17.24-1.17,1.18v1.29h8v12h-2.76v-9.72h-5.28v9.72Zm7.94-16.8h3v3h-3Z" transform="translate(-0.18)"/>
        <path class="cls-11" d="M435.91,501.29h2.76v16.8h-2.76Z" transform="translate(-0.18)"/>
        <path class="cls-11" d="M447,518.33c-3,0-5.69-2.18-5.69-6.24,0-3.84,2.38-6.24,5.64-6.24s5.33,2.43,5.33,5.74c0,.22,0,1-.05,1.22H444a3.22,3.22,0,0,0,3,3.27h.15a2.25,2.25,0,0,0,2.33-1.68h2.73A5,5,0,0,1,447,518.33Zm2.57-7.65a2.5,2.5,0,0,0-2.59-2.57h-.17a2.7,2.7,0,0,0-2.74,2.57Z" transform="translate(-0.18)"/>
      </g>
      <g>
        <path class="cls-3" d="M443.63,551.21h-1.42c0-1-.69-1.42-1.65-1.42-1.47,0-2.6,1.36-2.6,3.22a2,2,0,0,0,4,.75h1.43a3.36,3.36,0,0,1-3.44,2.63,3.11,3.11,0,0,1-3.37-3.3c0-2.79,1.87-4.5,4.11-4.5A2.68,2.68,0,0,1,443.63,551.21Z" transform="translate(-0.18)"/>
        <path class="cls-3" d="M444.77,552.92a4.14,4.14,0,0,1,4-4.33c2.17,0,3.28,1.44,3.28,3.46a4.15,4.15,0,0,1-4,4.34C445.88,556.39,444.77,555,444.77,552.92Zm4-3.13a2.81,2.81,0,0,0-2.52,3.06c0,1.35.67,2.34,1.95,2.34a2.81,2.81,0,0,0,2.52-3.06C450.67,550.78,450,549.79,448.72,549.79Z" transform="translate(-0.18)"/>
        <path class="cls-3" d="M454.49,556.24h-1.42l2.23-10.5h1.43l-.87,4.08a2.86,2.86,0,0,1,2.37-1.23,2.22,2.22,0,0,1,2.26,2.29,4.87,4.87,0,0,1-.07.75l-1,4.61H458l1-4.49a4.34,4.34,0,0,0,.07-.63,1.18,1.18,0,0,0-1.33-1.33c-1,0-2,.76-2.4,2.55Z" transform="translate(-0.18)"/>
        <path class="cls-3" d="M468.22,550.09l.3-1.35h1.42l-1.59,7.5h-1.41l.21-1a2.85,2.85,0,0,1-2.29,1.11,2.92,2.92,0,0,1-2.93-3.2c0-2.79,1.68-4.6,3.75-4.6A2.71,2.71,0,0,1,468.22,550.09Zm-3.06,5.1c1.62,0,2.61-1.59,2.61-3.35a1.9,1.9,0,0,0-1.94-2.05c-1.21,0-2.47,1.17-2.47,3.3A1.86,1.86,0,0,0,465.16,555.19Z" transform="translate(-0.18)"/>
        <path class="cls-3" d="M473.54,556.39c-1.87,0-3-.93-3.1-2.48h1.45c.06.92.8,1.28,1.7,1.28s1.42-.41,1.42-1c0-.43-.33-.75-.85-.91l-.86-.27c-1.12-.36-1.84-1-1.84-2,0-1.29,1.12-2.35,2.86-2.35a2.61,2.61,0,0,1,2.9,2.47h-1.44a1.38,1.38,0,0,0-1.55-1.27c-.81,0-1.38.42-1.38,1.05,0,.43.3.75.83.91l.9.29c.88.28,1.86.79,1.86,2.08S475.19,556.39,473.54,556.39Z" transform="translate(-0.18)"/>
        <path class="cls-3" d="M479.26,556.24h-1.43l2.24-10.5h1.42l-.87,4.08a2.89,2.89,0,0,1,2.37-1.23,2.22,2.22,0,0,1,2.27,2.29,3.91,3.91,0,0,1-.08.75l-1,4.61h-1.43l1-4.49a4.34,4.34,0,0,0,.08-.63,1.19,1.19,0,0,0-1.34-1.33c-1,0-2,.76-2.4,2.55Z" transform="translate(-0.18)"/>
        <path class="cls-3" d="M487.36,555a1.72,1.72,0,0,1,0-.39l1-4.6h-1.71l.26-1.23h1.74l.52-2.43h1.38l-.52,2.43h1.87l-.25,1.23h-1.89l-.92,4.35a1.66,1.66,0,0,0,0,.22c0,.29.27.42.56.42H491l-.27,1.28h-1.87C487.88,556.24,487.36,555.74,487.36,555Z" transform="translate(-0.18)"/>
        <path class="cls-3" d="M498.7,550.09l.3-1.35h1.42l-1.59,7.5h-1.41l.21-1a2.85,2.85,0,0,1-2.29,1.11,2.92,2.92,0,0,1-2.93-3.2c0-2.79,1.68-4.6,3.75-4.6A2.71,2.71,0,0,1,498.7,550.09Zm-3.06,5.1c1.62,0,2.61-1.59,2.61-3.35a1.9,1.9,0,0,0-1.94-2.05c-1.21,0-2.47,1.17-2.47,3.3A1.86,1.86,0,0,0,495.64,555.19Z" transform="translate(-0.18)"/>
        <path class="cls-3" d="M500.65,557.21h1.42c.12.74.83,1.11,1.89,1.11a2.38,2.38,0,0,0,2.42-2.17l.21-.9a3,3,0,0,1-5.15-2.28c0-2.72,1.76-4.38,3.68-4.38a2.61,2.61,0,0,1,2.55,1.53h0l.28-1.39h1.43l-1.65,7.72a3.61,3.61,0,0,1-3.93,3C502.18,559.51,500.8,558.8,500.65,557.21Zm2.22-4.3a1.86,1.86,0,0,0,1.86,2.13c1.54,0,2.47-1.47,2.47-3a2,2,0,0,0-2-2.2C504,549.79,502.87,551,502.87,552.91Z" transform="translate(-0.18)"/>
      </g>
      <g>
        <path class="cls-3" d="M314.73,545.74h4.42a3.19,3.19,0,1,1,0,6.36h-2.92v4.14h-1.5Zm4.2,5c1.35,0,2.1-.63,2.1-1.83s-.75-1.83-2.1-1.83h-2.7v3.66Z" transform="translate(-0.18)"/>
        <path class="cls-3" d="M324.07,545.74h1.58v1.65h-1.58Zm.08,3h1.42v7.5h-1.42Z" transform="translate(-0.18)"/>
        <path class="cls-3" d="M327.37,552.49c0-2.21,1.29-3.9,3.6-3.9a2.83,2.83,0,0,1,3.07,2.62h-1.42a1.58,1.58,0,0,0-1.57-1.42h-.15c-1.43,0-2.1,1.27-2.1,2.7s.67,2.7,2.1,2.7h.15a1.58,1.58,0,0,0,1.57-1.43H334a2.84,2.84,0,0,1-3.07,2.63C328.66,556.39,327.37,554.69,327.37,552.49Z" transform="translate(-0.18)"/>
        <path class="cls-3" d="M340.88,556.24h-1.42v-7.5h1.42v1a2.7,2.7,0,0,1,2.41-1.2,2.46,2.46,0,0,1,2.69,2.62v5h-1.42v-4.73c0-1-.45-1.72-1.5-1.72h-.15a2.08,2.08,0,0,0-2,2.25Z" transform="translate(-0.18)"/>
        <path class="cls-3" d="M352.62,556.24a7.84,7.84,0,0,1-.08-1.2,2.63,2.63,0,0,1-2.4,1.35,2.29,2.29,0,0,1-2.47-2.22c0-1.71,1.51-2.22,2.73-2.33l2.06-.16v-.24a1.47,1.47,0,0,0-1.57-1.65h-.08c-.81,0-1.48.37-1.57,1.12h-1.42c.09-1.38,1.33-2.32,3-2.32a2.8,2.8,0,0,1,3.05,2.85v3.15a13.65,13.65,0,0,0,.07,1.65Zm-2-3.32c-.87.08-1.5.5-1.5,1.19a1.12,1.12,0,0,0,1.2,1.08h.15c.9,0,2-.75,2-1.65v-.77Z" transform="translate(-0.18)"/>
        <path class="cls-3" d="M357.49,556.24h-1.43v-7.5h1.43v1a2.61,2.61,0,0,1,2.25-1.2,2.57,2.57,0,0,1,2.47,1.39,2.73,2.73,0,0,1,2.48-1.39,2.46,2.46,0,0,1,2.7,2.62v5H366v-4.73c0-1-.45-1.72-1.5-1.72h-.15a2.05,2.05,0,0,0-1.87,2.25v4.2H361v-4.73c0-1-.45-1.72-1.5-1.72h-.15a2.05,2.05,0,0,0-1.87,2.25Z" transform="translate(-0.18)"/>
        <path class="cls-3" d="M372.65,556.39c-1.86,0-3.53-1.29-3.53-3.92a3.53,3.53,0,0,1,3.49-3.88,3.06,3.06,0,0,1,3.18,3.3v.82h-5.25c.09,1.71,1.18,2.48,2.11,2.48h.1a1.51,1.51,0,0,0,1.6-1.17h1.42A2.91,2.91,0,0,1,372.65,556.39Zm-2-4.8h3.73a1.64,1.64,0,0,0-1.68-1.8h-.15A2,2,0,0,0,370.63,551.59Z" transform="translate(-0.18)"/>
      </g>
      <g>
        <path class="cls-11" d="M357.19,810.29h2.88v16.8h-2.88Z" transform="translate(-0.18)"/>
        <path class="cls-11" d="M363.81,810.29h2.76v16.8h-2.76Z" transform="translate(-0.18)"/>
        <path class="cls-11" d="M369.93,810.29h2.76v16.8h-2.76Z" transform="translate(-0.18)"/>
        <path class="cls-11" d="M386.4,827.09h-2.76v-2a3.93,3.93,0,0,1-3.65,2.2c-2.74,0-4.06-1.87-4.06-4.46v-7.78h2.76v7.37c0,1.73.72,2.62,2,2.62H381c1.44,0,2.69-1.42,2.69-3.39v-6.6h2.76Z" transform="translate(-0.18)"/>
        <path class="cls-11" d="M388.87,823.23h2.78a2.08,2.08,0,0,0,2.31,1.92h.19c1.08,0,1.87-.53,1.87-1.34s-.41-1.13-1.42-1.35L393,822.1c-2.28-.53-3.62-1.56-3.62-3.55,0-2.26,2-3.7,4.7-3.7,3.15,0,4.85,1.61,4.85,4.11h-2.76a1.94,1.94,0,0,0-2-1.92h-.22c-1,0-1.77.57-1.77,1.34s.5,1.11,1.58,1.35l1.73.4c2.11.48,3.36,1.54,3.36,3.56s-1.8,3.64-4.85,3.64C390.72,827.33,388.92,825.73,388.87,823.23Z" transform="translate(-0.18)"/>
        <path class="cls-11" d="M408.72,827.09h-3a2.62,2.62,0,0,1-2.9-2.9v-6.82h-2.55v-2.28h2.55v-3.88h2.76v3.88h2.76v2.28H405.6v6.17c0,.94.24,1.18,1.17,1.18h2Z" transform="translate(-0.18)"/>
        <path class="cls-11" d="M411.07,815.09h2.71v2.5a3.47,3.47,0,0,1,3.48-2.62h.82v2.6h-1c-2.08,0-3.21,1.17-3.21,3.36v6.16h-2.76Z" transform="translate(-0.18)"/>
        <path class="cls-11" d="M423.19,827.33a3.64,3.64,0,0,1-3.94-3.52c0-2.67,2.19-3.7,4.37-3.87l3.14-.26v-.34a2.07,2.07,0,0,0-2.18-2.23h-.14a2,2,0,0,0-2.19,1.61h-2.76c.19-2.23,2.14-3.87,5-3.87,3.07,0,5,1.78,5,4.42v5.18a20.34,20.34,0,0,0,.12,2.64H427a14.69,14.69,0,0,1-.14-1.65A4.22,4.22,0,0,1,423.19,827.33Zm.65-2.25a2.87,2.87,0,0,0,2.92-2.64v-.7L424,822c-1.05.1-2,.63-2,1.66a1.54,1.54,0,0,0,1.71,1.44Z" transform="translate(-0.18)"/>
        <path class="cls-11" d="M439.77,827.09h-3a2.62,2.62,0,0,1-2.91-2.9v-6.82h-2.54v-2.28h2.54v-3.88h2.76v3.88h2.76v2.28h-2.76v6.17c0,.94.24,1.18,1.18,1.18h1.94Z" transform="translate(-0.18)"/>
        <path class="cls-11" d="M441.28,821.09c0-3.64,2.45-6.24,5.89-6.24s5.9,2.6,5.9,6.24-2.45,6.24-5.9,6.24S441.28,824.74,441.28,821.09Zm9,0c0-2.52-1.23-4-3-4h-.22c-1.78,0-3,1.46-3,4s1.25,4,3,4h.22C449.06,825.08,450.29,823.61,450.29,821.09Z" transform="translate(-0.18)"/>
        <path class="cls-11" d="M455.71,815.09h2.71v2.5A3.47,3.47,0,0,1,461.9,815h.82v2.6h-1c-2.09,0-3.22,1.17-3.22,3.36v6.16h-2.76Z" transform="translate(-0.18)"/>
      </g>
      <g>
        <path class="cls-11" d="M344.81,922.09l-6.56-16.8h3.17l5.31,13.9,5.13-13.9H355l-6.41,16.8Z" transform="translate(-0.18)"/>
        <path class="cls-11" d="M356.73,905.29h3v3h-3Zm.1,4.8h2.76v12h-2.76Z" transform="translate(-0.18)"/>
        <path class="cls-11" d="M362.06,918.23h2.79a2.07,2.07,0,0,0,2.3,1.92h.19c1.08,0,1.87-.53,1.87-1.34s-.4-1.13-1.41-1.35l-1.63-.36c-2.29-.53-3.63-1.56-3.63-3.55,0-2.26,2-3.7,4.71-3.7,3.14,0,4.84,1.61,4.84,4.11h-2.76a1.94,1.94,0,0,0-2-1.92h-.21c-1,0-1.78.57-1.78,1.34s.51,1.11,1.59,1.35l1.72.4c2.12.48,3.36,1.54,3.36,3.56s-1.8,3.64-4.85,3.64C363.91,922.33,362.11,920.73,362.06,918.23Z" transform="translate(-0.18)"/>
        <path class="cls-11" d="M385.1,922.09h-2.76v-2a3.92,3.92,0,0,1-3.65,2.2c-2.73,0-4.05-1.87-4.05-4.46v-7.78h2.76v7.37c0,1.73.72,2.62,2,2.62h.21c1.44,0,2.69-1.42,2.69-3.39v-6.6h2.76Z" transform="translate(-0.18)"/>
        <path class="cls-11" d="M391.63,922.33a3.64,3.64,0,0,1-3.94-3.52c0-2.67,2.19-3.7,4.37-3.87l3.15-.26v-.34a2.07,2.07,0,0,0-2.19-2.23h-.14a2,2,0,0,0-2.19,1.61h-2.76c.19-2.23,2.14-3.87,5-3.87,3.07,0,5,1.78,5,4.42v5.18a20.34,20.34,0,0,0,.12,2.64h-2.59a14.85,14.85,0,0,1-.15-1.65A4.22,4.22,0,0,1,391.63,922.33Zm.65-2.25a2.88,2.88,0,0,0,2.93-2.64v-.7l-2.76.24c-1.06.1-2.05.63-2.05,1.66a1.54,1.54,0,0,0,1.71,1.44Z" transform="translate(-0.18)"/>
        <path class="cls-11" d="M401.18,905.29h2.76v16.8h-2.76Z" transform="translate(-0.18)"/>
        <path class="cls-11" d="M407.2,905.29h3v3h-3Zm.1,4.8h2.76v12H407.3Z" transform="translate(-0.18)"/>
        <path class="cls-11" d="M412.7,922.09v-2.25l6.5-7.32h-6.38v-2.43h9.77v2.26l-6.51,7.32H423v2.42Z" transform="translate(-0.18)"/>
        <path class="cls-11" d="M428.66,922.33a3.64,3.64,0,0,1-3.94-3.52c0-2.67,2.19-3.7,4.37-3.87l3.15-.26v-.34a2.07,2.07,0,0,0-2.19-2.23h-.14a2,2,0,0,0-2.19,1.61H425c.2-2.23,2.14-3.87,5-3.87,3.07,0,5,1.78,5,4.42v5.18a20.34,20.34,0,0,0,.12,2.64h-2.59a14.85,14.85,0,0,1-.15-1.65A4.22,4.22,0,0,1,428.66,922.33Zm.65-2.25a2.88,2.88,0,0,0,2.93-2.64v-.7l-2.76.24c-1.06.1-2,.63-2,1.66a1.53,1.53,0,0,0,1.7,1.44Z" transform="translate(-0.18)"/>
        <path class="cls-11" d="M445.25,922.09h-3a2.62,2.62,0,0,1-2.91-2.9v-6.82h-2.54v-2.28h2.54v-3.88h2.76v3.88h2.76v2.28h-2.76v6.17c0,.94.24,1.18,1.18,1.18h1.95Z" transform="translate(-0.18)"/>
        <path class="cls-11" d="M447.5,905.29h3v3h-3Zm.1,4.8h2.76v12H447.6Z" transform="translate(-0.18)"/>
        <path class="cls-11" d="M453,916.09c0-3.64,2.44-6.24,5.88-6.24s5.9,2.6,5.9,6.24-2.45,6.24-5.9,6.24S453,919.74,453,916.09Zm9,0c0-2.52-1.23-4-3-4h-.22c-1.78,0-3,1.46-3,4s1.24,4,3,4H459C460.77,920.08,462,918.61,462,916.09Z" transform="translate(-0.18)"/>
        <path class="cls-11" d="M470.18,922.09h-2.76v-12h2.76v1.73a4.27,4.27,0,0,1,3.72-2c2.83,0,4.25,1.83,4.25,4.42v7.82h-2.76v-7.41c0-1.61-.72-2.57-2.11-2.57h-.22a3.06,3.06,0,0,0-2.88,3.29Z" transform="translate(-0.18)"/>
      </g>
      <g>
        <path class="cls-11" d="M354.43,115h2.88v16.8h-2.88Z" transform="translate(-0.18)"/>
        <path class="cls-11" d="M363.81,131.75h-2.76v-12h2.76v1.73a4.26,4.26,0,0,1,3.73-2c2.83,0,4.24,1.82,4.24,4.41v7.83H369v-7.42c0-1.61-.72-2.57-2.11-2.57h-.21a3.07,3.07,0,0,0-2.89,3.29Z" transform="translate(-0.18)"/>
        <path class="cls-11" d="M374.13,127.89h2.79a2.07,2.07,0,0,0,2.3,1.92h.2c1.08,0,1.87-.53,1.87-1.35s-.41-1.13-1.42-1.34l-1.63-.36c-2.28-.53-3.63-1.56-3.63-3.56,0-2.25,2-3.69,4.71-3.69,3.14,0,4.85,1.61,4.85,4.1h-2.76a1.94,1.94,0,0,0-2-1.92h-.22c-1,0-1.78.58-1.78,1.35s.51,1.1,1.59,1.34l1.73.41c2.11.48,3.36,1.54,3.36,3.55s-1.8,3.65-4.85,3.65C376,132,374.18,130.38,374.13,127.89Z" transform="translate(-0.18)"/>
        <path class="cls-11" d="M394,131.75h-3a2.62,2.62,0,0,1-2.91-2.9V122h-2.54v-2.28h2.54v-3.89h2.76v3.89h2.76V122h-2.76v6.17c0,.93.24,1.17,1.18,1.17H394Z" transform="translate(-0.18)"/>
        <path class="cls-11" d="M399.5,132a3.63,3.63,0,0,1-3.93-3.53c0-2.66,2.18-3.69,4.36-3.86l3.15-.27V124a2.07,2.07,0,0,0-2.19-2.24h-.14a2,2,0,0,0-2.18,1.61h-2.76c.19-2.23,2.13-3.86,5-3.86,3.07,0,5,1.77,5,4.41v5.19a20.34,20.34,0,0,0,.12,2.64h-2.59a15.23,15.23,0,0,1-.15-1.66A4.19,4.19,0,0,1,399.5,132Zm.65-2.26a2.87,2.87,0,0,0,2.93-2.64v-.69l-2.76.24c-1.06.09-2,.62-2,1.65a1.53,1.53,0,0,0,1.7,1.44Z" transform="translate(-0.18)"/>
        <path class="cls-11" d="M408.17,133.17h2.76c.19,1,1.27,1.58,2.9,1.58H414a2.86,2.86,0,0,0,3.09-3.17V130a3.94,3.94,0,0,1-3.45,1.78c-2.76,0-5.26-2.06-5.26-6.12s2.45-6.12,5.26-6.12a3.89,3.89,0,0,1,3.45,1.77v-1.53h2.76v12.14c0,2.74-2.08,5.12-6.07,5.12C410.52,137,408.33,135.42,408.17,133.17Zm6.07-3.68c1.51,0,2.85-1.44,2.85-3.86s-1.29-3.87-2.8-3.87h-.22c-1.58,0-2.93,1.28-2.93,3.87s1.3,3.86,2.88,3.86Z" transform="translate(-0.18)"/>
        <path class="cls-11" d="M423.21,119.75h2.72v2.49a3.47,3.47,0,0,1,3.48-2.61h.81v2.59h-1c-2.09,0-3.22,1.18-3.22,3.36v6.17h-2.76Z" transform="translate(-0.18)"/>
        <path class="cls-11" d="M435.33,132a3.64,3.64,0,0,1-3.93-3.53c0-2.66,2.18-3.69,4.37-3.86l3.14-.27V124a2.07,2.07,0,0,0-2.18-2.24h-.15a2,2,0,0,0-2.18,1.61h-2.76c.19-2.23,2.13-3.86,5-3.86,3.08,0,5,1.77,5,4.41v5.19a20.34,20.34,0,0,0,.12,2.64h-2.59a13,13,0,0,1-.14-1.66A4.22,4.22,0,0,1,435.33,132Zm.65-2.26a2.87,2.87,0,0,0,2.93-2.64v-.69l-2.76.24c-1.06.09-2,.62-2,1.65a1.53,1.53,0,0,0,1.7,1.44Z" transform="translate(-0.18)"/>
        <path class="cls-11" d="M447.65,131.75h-2.76v-12h2.76v1.7a4.16,4.16,0,0,1,3.6-1.94,4,4,0,0,1,3.79,2.13,4.45,4.45,0,0,1,4-2.13c3,0,4.3,1.89,4.3,4.46v7.78h-2.76V124.4c0-1.63-.63-2.56-2.12-2.56h-.17a3,3,0,0,0-2.78,3.21v6.7h-2.76V124.4c0-1.63-.62-2.56-2.11-2.56h-.17a3,3,0,0,0-2.78,3.21Z" transform="translate(-0.18)"/>
      </g>
      <g>
        <path class="cls-3" d="M741.11,13.54h3.24v7h7.32v-7h3.24v16.8h-3.24v-7h-7.32v7h-3.24Z" transform="translate(-0.18)"/>
        <path class="cls-3" d="M757.67,24.34c0-3.6,2.4-6.24,6-6.24s6,2.64,6,6.24-2.4,6.24-6,6.24S757.67,27.94,757.67,24.34Zm8.85,0c0-2.36-1.08-3.72-2.76-3.72h-.19c-1.68,0-2.76,1.36-2.76,3.72s1.08,3.72,2.76,3.72h.19C765.44,28.06,766.52,26.69,766.52,24.34Z" transform="translate(-0.18)"/>
        <path class="cls-3" d="M779.82,21.94l-2,8.4h-3.51l-3.67-12h3.14l2.4,8.9,1.95-8.9h3.33l2.09,8.83,2.28-8.83h3l-3.44,12h-3.5Z" transform="translate(-0.18)"/>
        <path class="cls-3" d="M803.07,30.34h-3a2.79,2.79,0,0,1-3.12-3.12V20.86h-2.48V18.34h2.48V14.45H800v3.89h2.68v2.52H800v5.52c0,1.08.24,1.32,1.32,1.32h1.72Z" transform="translate(-0.18)"/>
        <path class="cls-3" d="M804.59,24.34c0-3.6,2.4-6.24,6-6.24s6,2.64,6,6.24-2.4,6.24-6,6.24S804.59,27.94,804.59,24.34Zm8.85,0c0-2.36-1.08-3.72-2.76-3.72h-.19c-1.68,0-2.76,1.36-2.76,3.72s1.08,3.72,2.76,3.72h.19C812.36,28.06,813.44,26.69,813.44,24.34Z" transform="translate(-0.18)"/>
        <path class="cls-3" d="M824.72,18.34h3.12v2.4a3.4,3.4,0,0,1,3.48-2.52h.6V21.1h-1.08c-2,0-3,1-3,3v6.24h-3.12Z" transform="translate(-0.18)"/>
        <path class="cls-3" d="M838.74,30.58c-3,0-5.71-2.28-5.71-6.24,0-3.6,2.11-6.24,5.71-6.24s5.47,2.61,5.47,6.09c0,.36,0,.75-.05,1.13h-8.11a2.85,2.85,0,0,0,2.74,2.74h.14a2.08,2.08,0,0,0,2.14-1.52h3.09A5.17,5.17,0,0,1,838.74,30.58Zm-2.69-7.66h5.14a2.38,2.38,0,0,0-2.5-2.3h-.14A2.38,2.38,0,0,0,836.05,22.92Z" transform="translate(-0.18)"/>
        <path class="cls-3" d="M853.43,28.87a4.23,4.23,0,0,1-3.56,1.71c-2.16,0-3.93-1.37-3.93-3.53,0-2.59,2-3.77,4.39-4l3-.27v-.28a1.84,1.84,0,0,0-1.94-1.92h-.14a1.81,1.81,0,0,0-2,1.44h-3.12c.24-2.26,2.16-4,5.16-4s5,1.51,5,4.32V27.7a20.34,20.34,0,0,0,.12,2.64h-2.93A10.48,10.48,0,0,1,853.43,28.87Zm-2.79-.81a2.63,2.63,0,0,0,2.71-2.62v-.33l-2.59.26c-.79.07-1.75.48-1.75,1.46,0,.75.65,1.23,1.51,1.23Z" transform="translate(-0.18)"/>
        <path class="cls-3" d="M858.8,24.34c0-3.24,1.85-6.24,5.33-6.24a4.09,4.09,0,0,1,3.46,1.8V13.54h3.12v16.8h-3.12V28.78a4.09,4.09,0,0,1-3.46,1.8C860.65,30.58,858.8,27.58,858.8,24.34Zm6.05,3.72c1.44,0,2.74-1.44,2.74-3.72s-1.3-3.72-2.74-3.72h-.19c-1.56,0-2.74,1.41-2.74,3.69s1.18,3.75,2.74,3.75Z" transform="translate(-0.18)"/>
      </g>
      <g>
        <path class="cls-3" d="M772.51,69.89A1.36,1.36,0,0,1,771,68.44V66.78c-2.83-.34-4.83-2.57-4.83-6.07,0-3.82,2.38-6.12,5.61-6.12s5.61,2.3,5.61,6.12c0,3.48-2,5.71-4.78,6.07v.9c0,.51.17.68.68.68h2.64v1.53Zm-.67-4.59c2.21,0,3.83-1.7,3.83-4.59s-1.62-4.59-3.83-4.59h-.17c-2.21,0-3.82,1.7-3.82,4.59s1.61,4.59,3.82,4.59Z" transform="translate(-0.18)"/>
        <path class="cls-3" d="M786.62,66.66H785V65a2.73,2.73,0,0,1-2.72,1.79,2.76,2.76,0,0,1-2.89-3.06V58.16H781v5.27c0,1.36.56,2,1.7,2h.17c1.07,0,2.12-1,2.12-2.72V58.16h1.62Z" transform="translate(-0.18)"/>
        <path class="cls-3" d="M792.67,66.83c-2.11,0-4-1.46-4-4.44s2-4.4,4-4.4a3.46,3.46,0,0,1,3.6,3.74v.94h-6c.1,1.93,1.34,2.8,2.4,2.8h.1a1.71,1.71,0,0,0,1.82-1.33h1.61A3.28,3.28,0,0,1,792.67,66.83Zm-2.3-5.44h4.24a1.87,1.87,0,0,0-1.91-2h-.17A2.23,2.23,0,0,0,790.37,61.39Z" transform="translate(-0.18)"/>
        <path class="cls-3" d="M798.26,58.16h1.53V60a2.51,2.51,0,0,1,2.47-2H803v1.56h-.68c-1.53,0-2.46,1-2.46,2.72v4.3h-1.62Z" transform="translate(-0.18)"/>
        <path class="cls-3" d="M804.23,69.8V68.36h2.38c.51,0,.68-.17.68-.68V66.49l-3.57-8.33h1.71l2.66,6.27,2.55-6.27h1.66l-3.48,8.31V68A1.58,1.58,0,0,1,807,69.8Z" transform="translate(-0.18)"/>
      </g>
      <rect class="cls-12" x="829.72" y="49.62" width="41.68" height="24.48"/>
      <g>
        <path class="cls-3" d="M764.68,90.09h4.25c3.31,0,5.52,2.21,5.52,6s-2.21,5.95-5.52,5.95h-4.25Zm4.08,10.37c2.55,0,4-1.53,4-4.42s-1.44-4.42-4-4.42h-2.38v8.84Z" transform="translate(-0.18)"/>
        <path class="cls-3" d="M780.08,102.16c-2.11,0-4-1.46-4-4.43s1.95-4.41,4-4.41a3.46,3.46,0,0,1,3.6,3.74V98h-6c.1,1.94,1.34,2.8,2.4,2.8h.1A1.71,1.71,0,0,0,782,99.48h1.61A3.28,3.28,0,0,1,780.08,102.16Zm-2.3-5.44H782a1.87,1.87,0,0,0-1.91-2h-.17A2.23,2.23,0,0,0,777.78,96.72Z" transform="translate(-0.18)"/>
        <path class="cls-3" d="M787.63,102l-3.15-8.5h1.67l2.46,6.92,2.47-6.92h1.65l-3.15,8.5Z" transform="translate(-0.18)"/>
        <path class="cls-3" d="M794.19,90.09H796V92h-1.78Zm.08,3.4h1.62V102h-1.62Z" transform="translate(-0.18)"/>
        <path class="cls-3" d="M797.93,97.74c0-2.5,1.46-4.42,4.08-4.42a3.22,3.22,0,0,1,3.48,3h-1.61a1.8,1.8,0,0,0-1.79-1.62h-.17c-1.61,0-2.38,1.45-2.38,3.06s.77,3.06,2.38,3.06h.17a1.8,1.8,0,0,0,1.79-1.61h1.61a3.22,3.22,0,0,1-3.48,3C799.39,102.16,797.93,100.24,797.93,97.74Z" transform="translate(-0.18)"/>
        <path class="cls-3" d="M811,102.16c-2.1,0-4-1.46-4-4.43s2-4.41,4-4.41a3.47,3.47,0,0,1,3.61,3.74V98h-5.95c.1,1.94,1.34,2.8,2.39,2.8h.11a1.71,1.71,0,0,0,1.82-1.32h1.61A3.29,3.29,0,0,1,811,102.16Zm-2.29-5.44h4.23a1.86,1.86,0,0,0-1.9-2h-.17A2.23,2.23,0,0,0,808.69,96.72Z" transform="translate(-0.18)"/>
      </g>
      <rect class="cls-9" x="829.72" y="84.95" width="41.68" height="24.48"/>
      <g>
        <path class="cls-3" d="M787.63,127h-4.25v-1.53h10.2V127h-4.25v10.37h-1.7Z" transform="translate(-0.18)"/>
        <path class="cls-3" d="M792.57,133.08a4.09,4.09,0,1,1,4.08,4.42A4.12,4.12,0,0,1,792.57,133.08Zm6.55,0c0-2-1-3.06-2.38-3.06h-.17c-1.36,0-2.38,1.1-2.38,3.06s1,3.06,2.38,3.06h.17C798.1,136.14,799.12,135,799.12,133.08Z" transform="translate(-0.18)"/>
        <path class="cls-3" d="M802.23,133.08a4.09,4.09,0,1,1,4.08,4.42A4.11,4.11,0,0,1,802.23,133.08Zm6.54,0c0-2-1-3.06-2.38-3.06h-.17c-1.36,0-2.38,1.1-2.38,3.06s1,3.06,2.38,3.06h.17C807.75,136.14,808.77,135,808.77,133.08Z" transform="translate(-0.18)"/>
        <path class="cls-3" d="M812.41,125.43H814v11.9h-1.62Z" transform="translate(-0.18)"/>
      </g>
      <rect class="cls-5" x="829.72" y="120.28" width="41.68" height="24.48"/>
      <g>
        <path class="cls-3" d="M771.88,166.71c0,3.82-2.38,6.12-5.61,6.12s-5.6-2.3-5.6-6.12,2.38-6.12,5.6-6.12S771.88,162.89,771.88,166.71Zm-5.52,4.59c2.21,0,3.82-1.7,3.82-4.59s-1.61-4.59-3.82-4.59h-.17c-2.21,0-3.82,1.7-3.82,4.59s1.61,4.59,3.82,4.59Z" transform="translate(-0.18)"/>
        <path class="cls-3" d="M781.13,172.66h-1.61V171a2.92,2.92,0,0,1-5.61-1.27v-5.61h1.61v5.27c0,1.36.56,2,1.7,2h.17c1.07,0,2.13-1,2.13-2.72v-4.59h1.61Z" transform="translate(-0.18)"/>
        <path class="cls-3" d="M788.48,172.66h-2a1.7,1.7,0,0,1-1.87-1.87v-5.24H782.7v-1.39h1.87v-2.75h1.61v2.75h2v1.39h-2v5c0,.51.17.68.68.68h1.62Z" transform="translate(-0.18)"/>
        <path class="cls-3" d="M798.3,168.41c0,2.8-1.7,4.42-3.82,4.42a3,3,0,0,1-2.64-1.36v4.59h-1.61v-11.9h1.61v1.19a3.37,3.37,0,0,1,2.81-1.36C796.77,164,798.3,165.61,798.3,168.41Zm-6.46,0c0,2,1.19,3.06,2.38,3.06h.17c1.28,0,2.3-1,2.3-3.06s-1-3.06-2.3-3.06h-.17C793,165.35,791.84,166.37,791.84,168.41Z" transform="translate(-0.18)"/>
        <path class="cls-3" d="M807.48,172.66h-1.61V171a2.92,2.92,0,0,1-5.61-1.27v-5.61h1.61v5.27c0,1.36.56,2,1.7,2h.17c1.07,0,2.13-1,2.13-2.72v-4.59h1.61Z" transform="translate(-0.18)"/>
        <path class="cls-3" d="M814.83,172.66h-2a1.7,1.7,0,0,1-1.87-1.87v-5.24h-1.87v-1.39h1.87v-2.75h1.61v2.75h2v1.39h-2v5c0,.51.17.68.68.68h1.62Z" transform="translate(-0.18)"/>
      </g>
      <rect class="cls-7" x="829.72" y="155.62" width="41.68" height="24.48"/>
    </g>
  </g>
</svg>
