<svg xmlns="http://www.w3.org/2000/svg" viewBox="0 0 1920 1080">
  <g id="sfondo">
    <rect width="1920" height="1080" fill="#224"/>
  </g>
  <g id="Layer_57" data-name="Layer 57">
    <g>
      <ellipse cx="595.12763" cy="522.28149" rx="20.11788" ry="25.62947" fill="#31d841"/>
      <g id="nome">
        <rect x="598.66098" y="490.82666" width="93.91271" height="22.80376" fill="#3b663e"/>
        <g>
          <path d="M606.45752,497.08838H607.501v7.208h3.4541v.87549h-4.49756Z"/>
          <path d="M617.17041,502.22168a2.83669,2.83669,0,0,1-2.89014,3.082,2.75985,2.75985,0,0,1-2.78271-2.98633,2.83434,2.83434,0,0,1,2.87842-3.082A2.74841,2.74841,0,0,1,617.17041,502.22168Zm-4.60547.05957c0,1.27148.73194,2.231,1.76318,2.231,1.00733,0,1.76319-.94727,1.76319-2.25489,0-.98339-.4917-2.23046-1.73926-2.23046C613.105,500.02686,612.56494,501.17822,612.56494,502.28125Z"/>
          <path d="M618.50537,501.17822c0-.68359-.01221-1.27148-.04785-1.811h.92334l.03613,1.13916h.04785a1.74137,1.74137,0,0,1,1.60694-1.271,1.14858,1.14858,0,0,1,.30029.03565v.9956a1.59432,1.59432,0,0,0-.35986-.03613,1.48109,1.48109,0,0,0-1.41553,1.35547,2.97538,2.97538,0,0,0-.04785.4917v3.09424h-1.04346Z"/>
          <path d="M622.897,502.46143a1.85914,1.85914,0,0,0,1.99073,2.01464,3.81449,3.81449,0,0,0,1.60693-.2998l.18017.75586a4.70135,4.70135,0,0,1-1.93115.35986,2.69593,2.69593,0,0,1-2.85449-2.92676c0-1.751,1.03174-3.12988,2.72266-3.12988a2.45938,2.45938,0,0,1,2.39892,2.73438,4.0295,4.0295,0,0,1-.03613.4917Zm3.09424-.75586a1.50283,1.50283,0,0,0-1.46338-1.71485,1.74916,1.74916,0,0,0-1.61914,1.71485Z"/>
          <path d="M628.3208,500.938c0-.59961-.01221-1.09131-.04785-1.5708h.92334l.04785.93554h.03613a2.00093,2.00093,0,0,1,1.82325-1.06738,1.71591,1.71591,0,0,1,1.64306,1.16309h.02393a2.3873,2.3873,0,0,1,.64746-.75537,1.97854,1.97854,0,0,1,1.2832-.40772c.76758,0,1.90723.50342,1.90723,2.51856v3.418h-1.03174v-3.28614c0-1.11523-.40771-1.78711-1.25928-1.78711a1.36605,1.36605,0,0,0-1.24707.95948,1.74327,1.74327,0,0,0-.084.52783v3.58594h-1.03125v-3.478c0-.92334-.4082-1.59522-1.21143-1.59522a1.44268,1.44268,0,0,0-1.30761,1.05567,1.46138,1.46138,0,0,0-.084.51562v3.502H628.3208Z"/>
          <path d="M642.04785,497.73584a.65359.65359,0,0,1-1.30713,0,.64328.64328,0,0,1,.65967-.65967A.62661.62661,0,0,1,642.04785,497.73584Zm-1.17529,7.436v-5.80469h1.05566v5.80469Z"/>
          <path d="M643.68115,501.26221c0-.74366-.02392-1.34326-.04785-1.895h.94727l.04834.99511h.02392a2.28145,2.28145,0,0,1,2.0625-1.127c1.40332,0,2.459,1.187,2.459,2.9502,0,2.08691-1.27149,3.11816-2.63868,3.11816a2.03568,2.03568,0,0,1-1.7871-.91162h-.02393v3.1543h-1.04346Zm1.04346,1.54687a2.38215,2.38215,0,0,0,.04785.43164,1.62823,1.62823,0,0,0,1.583,1.23535c1.11572,0,1.76318-.91113,1.76318-2.24267,0-1.16309-.61181-2.15869-1.727-2.15869a1.68421,1.68421,0,0,0-1.59521,1.30713,1.72746,1.72746,0,0,0-.07178.43164Z"/>
          <path d="M650.36426,504.09229a2.76554,2.76554,0,0,0,1.3916.41992c.76758,0,1.12695-.38379,1.12695-.86328,0-.50391-.2998-.77979-1.0791-1.06788-1.04346-.37158-1.53516-.94726-1.53516-1.64306a1.79015,1.79015,0,0,1,2.00293-1.70264,2.89815,2.89815,0,0,1,1.42725.35938l-.26416.76757a2.261,2.261,0,0,0-1.187-.33544c-.624,0-.97168.35986-.97168.7915,0,.47949.34766.69531,1.10351.9834,1.00733.38379,1.523.88769,1.523,1.751,0,1.01954-.7915,1.73926-2.17089,1.73926a3.31168,3.31168,0,0,1-1.63086-.396Z"/>
          <path d="M660.11768,503.58887c0,.59961.01171,1.12744.04785,1.583H659.23l-.06006-.94727H659.146a2.18346,2.18346,0,0,1-1.91895,1.0791c-.91113,0-2.00293-.50342-2.00293-2.54248v-3.394h1.05567v3.21386c0,1.10352.33593,1.84717,1.29541,1.84717a1.484,1.484,0,0,0,1.48681-1.499v-3.562h1.05567Z"/>
          <path d="M661.87256,500.938c0-.59961-.01221-1.09131-.04785-1.5708h.92334l.04785.93554h.03613a2.00092,2.00092,0,0,1,1.82324-1.06738,1.71592,1.71592,0,0,1,1.64307,1.16309h.02393a2.38717,2.38717,0,0,1,.64746-.75537,1.97854,1.97854,0,0,1,1.2832-.40772c.76758,0,1.90723.50342,1.90723,2.51856v3.418h-1.03174v-3.28614c0-1.11523-.40772-1.78711-1.25928-1.78711a1.36605,1.36605,0,0,0-1.24707.95948,1.74327,1.74327,0,0,0-.084.52783v3.58594h-1.03125v-3.478c0-.92334-.40821-1.59522-1.21143-1.59522a1.4427,1.4427,0,0,0-1.30762,1.05567,1.46161,1.46161,0,0,0-.084.51562v3.502h-1.03125Z"/>
        </g>
      </g>
    </g>
    <g>
      <ellipse cx="406.39222" cy="457.76683" rx="20.11788" ry="25.62947" fill="#31d841"/>
      <g id="nome" data-name="nome">
        <rect x="409.92556" y="426.31201" width="93.91271" height="22.80376" fill="#3b663e"/>
        <g>
          <path d="M417.72217,432.57373h1.04345v7.208h3.45411v.87549h-4.49756Z"/>
          <path d="M428.43506,437.707a2.83669,2.83669,0,0,1-2.89014,3.082,2.75984,2.75984,0,0,1-2.78271-2.98633,2.83434,2.83434,0,0,1,2.87841-3.082A2.74841,2.74841,0,0,1,428.43506,437.707Zm-4.60547.05957c0,1.27149.73193,2.231,1.76318,2.231,1.00733,0,1.76319-.94727,1.76319-2.25488,0-.9834-.4917-2.23047-1.73926-2.23047C424.36963,435.51221,423.82959,436.66357,423.82959,437.7666Z"/>
          <path d="M429.77,436.66357c0-.68359-.01221-1.27148-.04785-1.811h.92334l.03613,1.13916h.04785a1.74136,1.74136,0,0,1,1.60694-1.271,1.14858,1.14858,0,0,1,.30029.03565v.9956a1.59432,1.59432,0,0,0-.35986-.03613,1.4811,1.4811,0,0,0-1.41553,1.35547,2.97538,2.97538,0,0,0-.04785.4917v3.09424H429.77Z"/>
          <path d="M434.16162,437.94678a1.85915,1.85915,0,0,0,1.99072,2.01465,3.81452,3.81452,0,0,0,1.60694-.29981l.18017.75586a4.70135,4.70135,0,0,1-1.93115.35986,2.69593,2.69593,0,0,1-2.85449-2.92675c0-1.751,1.03174-3.12989,2.72265-3.12989a2.45939,2.45939,0,0,1,2.39893,2.73438,4.0295,4.0295,0,0,1-.03613.4917Zm3.09424-.75586a1.50283,1.50283,0,0,0-1.46338-1.71485,1.74915,1.74915,0,0,0-1.61914,1.71485Z"/>
          <path d="M439.58545,436.42334c0-.59961-.01221-1.09131-.04785-1.5708h.92334l.04785.93555h.03613a2.00091,2.00091,0,0,1,1.82324-1.06739,1.71593,1.71593,0,0,1,1.64307,1.16309h.02393a2.38729,2.38729,0,0,1,.64746-.75537,1.97854,1.97854,0,0,1,1.2832-.40772c.76758,0,1.90723.50342,1.90723,2.51856v3.418h-1.03174v-3.28614c0-1.11523-.40772-1.78711-1.25928-1.78711a1.36605,1.36605,0,0,0-1.24707.95948,1.74327,1.74327,0,0,0-.084.52783v3.58594h-1.03125v-3.478c0-.92334-.40821-1.59522-1.21143-1.59522a1.44271,1.44271,0,0,0-1.30762,1.05567,1.46161,1.46161,0,0,0-.084.51562v3.502h-1.03125Z"/>
          <path d="M453.3125,433.22119a.65359.65359,0,0,1-1.30713,0,.64328.64328,0,0,1,.65967-.65967A.62661.62661,0,0,1,453.3125,433.22119Zm-1.17529,7.436v-5.80469h1.05566v5.80469Z"/>
          <path d="M454.9458,436.74756c0-.74365-.02392-1.34326-.04785-1.895h.94726l.04834.99512h.02393a2.28143,2.28143,0,0,1,2.0625-1.127c1.40332,0,2.459,1.187,2.459,2.9502,0,2.08691-1.27148,3.11816-2.63867,3.11816a2.0357,2.0357,0,0,1-1.78711-.91162h-.02392v3.1543H454.9458Zm1.04346,1.54687a2.38115,2.38115,0,0,0,.04785.43164,1.62823,1.62823,0,0,0,1.583,1.23536c1.11572,0,1.76318-.91114,1.76318-2.24268,0-1.16309-.61182-2.15869-1.72705-2.15869a1.6842,1.6842,0,0,0-1.59521,1.30713,1.72746,1.72746,0,0,0-.07178.43164Z"/>
          <path d="M461.62891,439.57764a2.76554,2.76554,0,0,0,1.3916.41992c.76758,0,1.127-.38379,1.127-.86328,0-.50391-.2998-.77979-1.0791-1.06787-1.04346-.37159-1.53516-.94727-1.53516-1.64307a1.79015,1.79015,0,0,1,2.00293-1.70264,2.89815,2.89815,0,0,1,1.42725.35938l-.26416.76758a2.26088,2.26088,0,0,0-1.187-.33545c-.624,0-.97168.35986-.97168.7915,0,.47949.34765.69531,1.10351.9834,1.00733.38379,1.52295.88769,1.52295,1.751,0,1.01953-.7915,1.73925-2.1709,1.73925a3.31173,3.31173,0,0,1-1.63086-.396Z"/>
          <path d="M471.38232,439.07422c0,.59961.01172,1.12744.04786,1.583h-.93555l-.06006-.94727h-.02393a2.18343,2.18343,0,0,1-1.91894,1.0791c-.91113,0-2.00293-.50342-2.00293-2.54248v-3.394h1.05566v3.21387c0,1.10351.33594,1.84716,1.29541,1.84716a1.484,1.484,0,0,0,1.48682-1.499v-3.562h1.05566Z"/>
          <path d="M473.13721,436.42334c0-.59961-.01221-1.09131-.04785-1.5708h.92334l.04785.93555h.03613a2.00091,2.00091,0,0,1,1.82324-1.06739,1.71593,1.71593,0,0,1,1.64307,1.16309h.02392a2.38743,2.38743,0,0,1,.64747-.75537,1.97854,1.97854,0,0,1,1.2832-.40772c.76758,0,1.90722.50342,1.90722,2.51856v3.418h-1.03173v-3.28614c0-1.11523-.40772-1.78711-1.25928-1.78711a1.36605,1.36605,0,0,0-1.24707.95948,1.74326,1.74326,0,0,0-.084.52783v3.58594h-1.03125v-3.478c0-.92334-.4082-1.59522-1.21142-1.59522a1.44271,1.44271,0,0,0-1.30762,1.05567,1.46161,1.46161,0,0,0-.084.51562v3.502h-1.03125Z"/>
        </g>
      </g>
    </g>
    <g>
      <ellipse cx="635.36339" cy="403.6707" rx="20.11788" ry="25.62947" fill="#31d841"/>
      <g id="nome" data-name="nome">
        <rect x="638.89674" y="372.21587" width="93.91271" height="22.80376" fill="#3b663e"/>
        <g>
          <path d="M646.69336,378.47754h1.04346v7.208h3.4541v.87549h-4.49756Z"/>
          <path d="M657.40625,383.61084a2.83669,2.83669,0,0,1-2.89014,3.082,2.75985,2.75985,0,0,1-2.78271-2.98633,2.83434,2.83434,0,0,1,2.87842-3.082A2.74841,2.74841,0,0,1,657.40625,383.61084Zm-4.60547.05957c0,1.27148.73193,2.231,1.76318,2.231,1.00733,0,1.76319-.94727,1.76319-2.25489,0-.98339-.4917-2.23046-1.73926-2.23046C653.34082,381.416,652.80078,382.56738,652.80078,383.67041Z"/>
          <path d="M658.74121,382.56738c0-.68359-.01221-1.27148-.04785-1.811h.92334l.03613,1.13916h.04785a1.74137,1.74137,0,0,1,1.60694-1.271,1.14858,1.14858,0,0,1,.30029.03565v.9956a1.59432,1.59432,0,0,0-.35986-.03613,1.48109,1.48109,0,0,0-1.41553,1.35547,2.97538,2.97538,0,0,0-.04785.4917V386.561h-1.04346Z"/>
          <path d="M663.13281,383.85059a1.85914,1.85914,0,0,0,1.99073,2.01464,3.81449,3.81449,0,0,0,1.60693-.2998l.18017.75586a4.70135,4.70135,0,0,1-1.93115.35986,2.69593,2.69593,0,0,1-2.85449-2.92676c0-1.751,1.03174-3.12988,2.72266-3.12988a2.45938,2.45938,0,0,1,2.39892,2.73438,4.0295,4.0295,0,0,1-.03613.4917Zm3.09424-.75586a1.50283,1.50283,0,0,0-1.46338-1.71485,1.74916,1.74916,0,0,0-1.61914,1.71485Z"/>
          <path d="M668.55664,382.32715c0-.59961-.01221-1.09131-.04785-1.5708h.92334l.04785.93554h.03613a2.00093,2.00093,0,0,1,1.82325-1.06738,1.71591,1.71591,0,0,1,1.64306,1.16309h.02393a2.3873,2.3873,0,0,1,.64746-.75537,1.97854,1.97854,0,0,1,1.2832-.40772c.76758,0,1.90723.50342,1.90723,2.51856v3.418H675.8125V383.2749c0-1.11523-.40771-1.78711-1.25928-1.78711a1.36605,1.36605,0,0,0-1.24707.95948,1.74327,1.74327,0,0,0-.084.52783V386.561h-1.03125v-3.478c0-.92334-.40821-1.59522-1.21143-1.59522a1.44268,1.44268,0,0,0-1.30761,1.05567,1.46138,1.46138,0,0,0-.084.51562v3.502h-1.03125Z"/>
          <path d="M682.28369,379.125a.65359.65359,0,0,1-1.30713,0,.64328.64328,0,0,1,.65967-.65967A.62661.62661,0,0,1,682.28369,379.125Zm-1.17529,7.436v-5.80469h1.05566V386.561Z"/>
          <path d="M683.917,382.65137c0-.74366-.02392-1.34326-.04785-1.895h.94727l.04834.99511h.02392a2.28145,2.28145,0,0,1,2.0625-1.127c1.40332,0,2.459,1.187,2.459,2.9502,0,2.08691-1.27149,3.11816-2.63868,3.11816a2.03568,2.03568,0,0,1-1.7871-.91162h-.02393v3.1543H683.917Zm1.04346,1.54687a2.38215,2.38215,0,0,0,.04785.43164,1.62823,1.62823,0,0,0,1.583,1.23535c1.11572,0,1.76318-.91113,1.76318-2.24267,0-1.16309-.61181-2.15869-1.72705-2.15869a1.6842,1.6842,0,0,0-1.59521,1.30713,1.72746,1.72746,0,0,0-.07178.43164Z"/>
          <path d="M690.6001,385.48145a2.76554,2.76554,0,0,0,1.3916.41992c.76758,0,1.12695-.38379,1.12695-.86328,0-.50391-.2998-.77979-1.0791-1.06788-1.04346-.37158-1.53516-.94726-1.53516-1.64306a1.79015,1.79015,0,0,1,2.00293-1.70264,2.89815,2.89815,0,0,1,1.42725.35938l-.26416.76757a2.261,2.261,0,0,0-1.187-.33544c-.624,0-.97168.35986-.97168.7915,0,.47949.34766.69531,1.10351.9834,1.00733.38379,1.523.88769,1.523,1.751,0,1.01954-.7915,1.73926-2.17089,1.73926a3.31168,3.31168,0,0,1-1.63086-.396Z"/>
          <path d="M700.35352,384.978c0,.59961.01171,1.12744.04785,1.583h-.93555l-.06006-.94727h-.02392a2.18346,2.18346,0,0,1-1.91895,1.0791c-.91113,0-2.00293-.50342-2.00293-2.54248v-3.394h1.05566v3.21386c0,1.10352.33594,1.84717,1.29542,1.84717a1.484,1.484,0,0,0,1.48681-1.499v-3.562h1.05567Z"/>
          <path d="M702.1084,382.32715c0-.59961-.01221-1.09131-.04785-1.5708h.92334l.04785.93554h.03613a2.00092,2.00092,0,0,1,1.82324-1.06738,1.71592,1.71592,0,0,1,1.64307,1.16309h.02393a2.38717,2.38717,0,0,1,.64746-.75537,1.97854,1.97854,0,0,1,1.2832-.40772c.76758,0,1.90723.50342,1.90723,2.51856v3.418h-1.03174V383.2749c0-1.11523-.40772-1.78711-1.25928-1.78711a1.36605,1.36605,0,0,0-1.24707.95948,1.74327,1.74327,0,0,0-.084.52783V386.561h-1.03125v-3.478c0-.92334-.40821-1.59522-1.21143-1.59522a1.4427,1.4427,0,0,0-1.30762,1.05567,1.46161,1.46161,0,0,0-.084.51562v3.502H702.1084Z"/>
        </g>
      </g>
    </g>
  </g>
</svg>
