<svg xmlns="http://www.w3.org/2000/svg" xmlns:xlink="http://www.w3.org/1999/xlink" viewBox="0 0 1920 1000">
  <g id="Background">
    <rect width="1920" height="1000" fill="#224"/>
  </g>
  <g id="elementi_base">
    <g id="anni">
      <g id="_2013" data-name="2013">
        <rect x="129.49542" y="365.11833" width="211.05429" height="41.3769" fill="#587ef9" stroke="#587ef9" stroke-miterlimit="10" stroke-width="2" opacity="0.3"/>
        <g>
          <path d="M216.03982,392.70163v-2.1582l4.37305-4.12939c1.38867-1.31348,2.32715-2.083,2.32715-3.32178a1.80759,1.80759,0,0,0-1.95215-1.80176h-.1875a2.171,2.171,0,0,0-2.19629,2.30859h-2.2334a4.16687,4.16687,0,0,1,4.50488-4.22314c2.47754,0,4.2793,1.42676,4.2793,3.62256,0,1.85791-1.12695,3.05908-2.75977,4.56055l-3.45312,3.19042h6.40039v1.95215Z" fill="#587ef9"/>
          <path d="M226.67849,386.13279c0-4.20411,1.9336-6.75684,5.25586-6.75684,3.32129,0,5.27344,2.55273,5.27344,6.75684s-1.89551,6.75634-5.27344,6.75634C228.55545,392.88913,226.67849,390.33689,226.67849,386.13279Zm5.34961,4.84228c1.78223,0,2.96485-1.59521,2.96485-4.84228s-1.18262-4.84229-2.96485-4.84229h-.16894c-1.78321,0-2.96582,1.59522-2.96582,4.84229s1.18261,4.84228,2.96582,4.84228Z" fill="#587ef9"/>
          <path d="M241.39138,392.70163v-9.98486l-2.92871,2.834v-2.74023l3.34082-3.24658H243.531v13.13769Z" fill="#587ef9"/>
          <path d="M245.63162,389.15427h2.21386a2.11785,2.11785,0,0,0,2.3086,1.8208h.18847a2.04966,2.04966,0,0,0,2.28907-1.95215c0-1.21972-.97559-1.9331-2.34571-1.9331h-.99511v-1.91407h.93847a2.067,2.067,0,0,0,2.32715-1.98974,1.96225,1.96225,0,0,0-2.1582-1.89551h-.1875a2.063,2.063,0,0,0-2.13965,1.85791h-2.19629c.05664-2.1958,1.9707-3.77246,4.46777-3.77246,2.6084,0,4.42872,1.63281,4.42872,3.585a3.13962,3.13962,0,0,1-2.29,3.11572,3.13084,3.13084,0,0,1,2.38379,3.09668c0,2.28955-1.95118,3.71582-4.61719,3.71582C247.58279,392.88913,245.74392,391.46286,245.63162,389.15427Z" fill="#587ef9"/>
        </g>
      </g>
      <g id="_2014" data-name="2014">
        <rect x="361.51596" y="365.11833" width="211.05429" height="41.3769" fill="#587ef9" stroke="#587ef9" stroke-miterlimit="10" stroke-width="2" opacity="0.3"/>
        <g>
          <path d="M447.7781,392.70163v-2.1582l4.373-4.12939c1.38867-1.31348,2.32715-2.083,2.32715-3.32178a1.80759,1.80759,0,0,0-1.95215-1.80176h-.1875a2.171,2.171,0,0,0-2.19629,2.30859H447.909a4.16687,4.16687,0,0,1,4.50488-4.22314c2.47754,0,4.2793,1.42676,4.2793,3.62256,0,1.85791-1.127,3.05908-2.75976,4.56055l-3.45313,3.19042h6.40039v1.95215Z" fill="#587ef9"/>
          <path d="M458.41677,386.13279c0-4.20411,1.9336-6.75684,5.25586-6.75684,3.32129,0,5.27344,2.55273,5.27344,6.75684s-1.89551,6.75634-5.27344,6.75634C460.29373,392.88913,458.41677,390.33689,458.41677,386.13279Zm5.34961,4.84228c1.78223,0,2.96485-1.59521,2.96485-4.84228s-1.18262-4.84229-2.96485-4.84229h-.16894c-1.78321,0-2.96582,1.59522-2.96582,4.84229s1.18261,4.84228,2.96582,4.84228Z" fill="#587ef9"/>
          <path d="M473.12966,392.70163v-9.98486l-2.92871,2.834v-2.74023l3.34082-3.24658h1.72754v13.13769Z" fill="#587ef9"/>
          <path d="M483.48806,392.70163v-2.79638h-6.40039V387.728l6.36328-8.16406h2.15821v8.42676H487.617v1.91455h-2.00781v2.79638Zm0-10.15381-4.26074,5.44288h4.26074Z" fill="#587ef9"/>
        </g>
      </g>
      <g id="_2015" data-name="2015">
        <rect x="593.53651" y="365.11833" width="211.05429" height="41.3769" fill="#587ef9" stroke="#587ef9" stroke-miterlimit="10" stroke-width="2" opacity="0.3"/>
        <g>
          <path d="M680.11892,392.70163v-2.1582L684.492,386.414c1.38867-1.31348,2.32715-2.083,2.32715-3.32178a1.80759,1.80759,0,0,0-1.95215-1.80176h-.1875a2.17043,2.17043,0,0,0-2.19629,2.30859h-2.2334a4.16688,4.16688,0,0,1,4.50488-4.22314c2.47754,0,4.2793,1.42676,4.2793,3.62256,0,1.85791-1.126,3.05908-2.75976,4.56055l-3.45313,3.19042h6.40039v1.95215Z" fill="#587ef9"/>
          <path d="M690.75759,386.13279c0-4.20411,1.9336-6.75684,5.25586-6.75684,3.32129,0,5.27344,2.55273,5.27344,6.75684s-1.89551,6.75634-5.27344,6.75634C692.63455,392.88913,690.75759,390.33689,690.75759,386.13279Zm5.34961,4.84228c1.78321,0,2.96485-1.59521,2.96485-4.84228s-1.18164-4.84229-2.96485-4.84229h-.16894c-1.78321,0-2.96582,1.59522-2.96582,4.84229s1.18261,4.84228,2.96582,4.84228Z" fill="#587ef9"/>
          <path d="M705.47048,392.70163v-9.98486l-2.92871,2.834v-2.74023l3.34082-3.24658h1.72657v13.13769Z" fill="#587ef9"/>
          <path d="M709.50369,389.11667h2.21484a2.31635,2.31635,0,0,0,2.4961,1.8584h.13183a2.26043,2.26043,0,0,0,2.38281-2.36475,2.168,2.168,0,0,0-2.32714-2.21484h-.14942a2.85,2.85,0,0,0-2.21484,1.06983h-2.084l1.61426-7.90137h7.24512v1.95166h-5.59278l-.80761,3.86621a3.67047,3.67047,0,0,1,2.4209-.90088,3.91282,3.91282,0,0,1,4.11035,4.03516c0,2.59033-1.89551,4.373-4.67285,4.373C711.68142,392.88913,709.72927,391.44431,709.50369,389.11667Z" fill="#587ef9"/>
        </g>
      </g>
      <g id="_2016" data-name="2016">
        <rect x="825.55705" y="365.11833" width="211.05429" height="41.3769" fill="#587ef9" stroke="#587ef9" stroke-miterlimit="10" stroke-width="2" opacity="0.3"/>
        <g>
          <path d="M911.77322,392.70163v-2.1582l4.373-4.12939c1.38867-1.31348,2.32714-2.083,2.32714-3.32178a1.80758,1.80758,0,0,0-1.95214-1.80176h-.1875a2.17042,2.17042,0,0,0-2.19629,2.30859h-2.2334A4.16687,4.16687,0,0,1,916.409,379.376c2.47754,0,4.2793,1.42676,4.2793,3.62256,0,1.85791-1.126,3.05908-2.75977,4.56055l-3.45312,3.19042h6.40039v1.95215Z" fill="#587ef9"/>
          <path d="M922.41189,386.13279c0-4.20411,1.93359-6.75684,5.25586-6.75684,3.32129,0,5.27344,2.55273,5.27344,6.75684s-1.89551,6.75634-5.27344,6.75634C924.28884,392.88913,922.41189,390.33689,922.41189,386.13279Zm5.34961,4.84228c1.7832,0,2.96484-1.59521,2.96484-4.84228s-1.18164-4.84229-2.96484-4.84229h-.16895c-1.7832,0-2.96582,1.59522-2.96582,4.84229s1.18262,4.84228,2.96582,4.84228Z" fill="#587ef9"/>
          <path d="M937.12478,392.70163v-9.98486l-2.92871,2.834v-2.74023l3.34082-3.24658h1.72656v13.13769Z" fill="#587ef9"/>
          <path d="M946.46951,392.88913c-3.07813,0-4.95508-2.28955-4.95508-6.3247,0-4.29786,2.57129-7.18848,5.74316-7.18848a3.99013,3.99013,0,0,1,4.20411,3.49121h-2.21387a1.88754,1.88754,0,0,0-2.00879-1.5581h-.16895c-1.708,0-3.30273,1.5205-3.585,4.69238a3.80518,3.80518,0,0,1,3.4541-1.93311,4.14018,4.14018,0,0,1,4.24122,4.31641A4.42267,4.42267,0,0,1,946.46951,392.88913Zm-.05664-1.9331h.16894a2.489,2.489,0,0,0,0-4.97364h-.16894a2.48684,2.48684,0,1,0,0,4.97364Z" fill="#587ef9"/>
        </g>
      </g>
      <g id="_2017" data-name="2017">
        <rect x="1057.5776" y="365.11833" width="211.05429" height="41.3769" fill="#587ef9" stroke="#587ef9" stroke-miterlimit="10" stroke-width="2" opacity="0.3"/>
        <g>
          <path d="M1144.52517,392.70163v-2.1582l4.37305-4.12939c1.38867-1.31348,2.32715-2.083,2.32715-3.32178a1.80759,1.80759,0,0,0-1.95215-1.80176h-.1875a2.17043,2.17043,0,0,0-2.19629,2.30859h-2.2334a4.16688,4.16688,0,0,1,4.50488-4.22314c2.47754,0,4.2793,1.42676,4.2793,3.62256,0,1.85791-1.126,3.05908-2.75976,4.56055l-3.45313,3.19042h6.40039v1.95215Z" fill="#587ef9"/>
          <path d="M1155.16384,386.13279c0-4.20411,1.9336-6.75684,5.25586-6.75684,3.32129,0,5.27344,2.55273,5.27344,6.75684s-1.89551,6.75634-5.27344,6.75634C1157.0408,392.88913,1155.16384,390.33689,1155.16384,386.13279Zm5.34961,4.84228c1.78321,0,2.96485-1.59521,2.96485-4.84228s-1.18164-4.84229-2.96485-4.84229h-.16894c-1.78321,0-2.96582,1.59522-2.96582,4.84229s1.18261,4.84228,2.96582,4.84228Z" fill="#587ef9"/>
          <path d="M1169.87673,392.70163v-9.98486l-2.92871,2.834v-2.74023l3.34082-3.24658h1.72657v13.13769Z" fill="#587ef9"/>
          <path d="M1175.93728,392.70163v-.93847c0-5.27393,2.083-8.46436,4.59766-10.19092H1173.741v-2.0083h9.30957v1.95166c-2.96582,1.8584-4.82324,4.936-4.82324,10.32275v.86328Z" fill="#587ef9"/>
        </g>
      </g>
      <g id="_2018" data-name="2018">
        <rect x="1289.59814" y="365.11833" width="211.05429" height="41.3769" fill="#587ef9" stroke="#587ef9" stroke-miterlimit="10" stroke-width="2" opacity="0.3"/>
        <g>
          <path d="M1376.22732,392.70163v-2.1582l4.37305-4.12939c1.38867-1.31348,2.32715-2.083,2.32715-3.32178a1.80759,1.80759,0,0,0-1.95215-1.80176h-.1875a2.171,2.171,0,0,0-2.19629,2.30859h-2.2334a4.16687,4.16687,0,0,1,4.50488-4.22314c2.47754,0,4.2793,1.42676,4.2793,3.62256,0,1.85791-1.127,3.05908-2.75977,4.56055l-3.45312,3.19042h6.40039v1.95215Z" fill="#587ef9"/>
          <path d="M1386.866,386.13279c0-4.20411,1.9336-6.75684,5.25586-6.75684,3.32129,0,5.27344,2.55273,5.27344,6.75684s-1.89551,6.75634-5.27344,6.75634C1388.743,392.88913,1386.866,390.33689,1386.866,386.13279Zm5.34961,4.84228c1.78223,0,2.96485-1.59521,2.96485-4.84228s-1.18262-4.84229-2.96485-4.84229h-.16894c-1.78321,0-2.96582,1.59522-2.96582,4.84229s1.18261,4.84228,2.96582,4.84228Z" fill="#587ef9"/>
          <path d="M1401.57888,392.70163v-9.98486l-2.92871,2.834v-2.74023l3.34082-3.24658h1.72754v13.13769Z" fill="#587ef9"/>
          <path d="M1406.25076,389.36081a3.076,3.076,0,0,1,2.21387-3.02148,3.47121,3.47121,0,0,1-2.47657-3.34082c0-1.95215,1.65137-3.62256,4.4668-3.62256,2.834,0,4.48535,1.67041,4.48535,3.62256a3.47088,3.47088,0,0,1-2.47754,3.34082,3.07566,3.07566,0,0,1,2.21485,3.02148c0,1.95215-1.57618,3.52832-4.22266,3.52832S1406.25076,391.313,1406.25076,389.36081Zm1.95117-6.08105a2.0515,2.0515,0,0,0,2.15918,2.02734h.1875a2.01483,2.01483,0,1,0,0-4.0166h-.1875A2.03313,2.03313,0,0,0,1408.20193,383.27976Zm2.34668,3.9414h-.1875a1.84977,1.84977,0,0,0-1.915,1.89551,1.80883,1.80883,0,0,0,1.915,1.8584h.1875a1.81316,1.81316,0,0,0,1.93262-1.8584A1.85365,1.85365,0,0,0,1410.54861,387.22116Z" fill="#587ef9"/>
        </g>
      </g>
      <g id="_2019" data-name="2019">
        <rect x="1521.61869" y="365.11833" width="211.05429" height="41.3769" fill="#587ef9" stroke="#587ef9" stroke-miterlimit="10" stroke-width="2" opacity="0.3"/>
        <g>
          <path d="M1607.83474,392.70163v-2.1582l4.373-4.12939c1.38867-1.31348,2.32715-2.083,2.32715-3.32178a1.80759,1.80759,0,0,0-1.95215-1.80176h-.1875a2.171,2.171,0,0,0-2.19629,2.30859h-2.2334a4.16688,4.16688,0,0,1,4.50488-4.22314c2.47754,0,4.2793,1.42676,4.2793,3.62256,0,1.85791-1.127,3.05908-2.75976,4.56055l-3.45313,3.19042h6.40039v1.95215Z" fill="#587ef9"/>
          <path d="M1618.47341,386.13279c0-4.20411,1.9336-6.75684,5.25586-6.75684,3.32129,0,5.27344,2.55273,5.27344,6.75684s-1.89551,6.75634-5.27344,6.75634C1620.35037,392.88913,1618.47341,390.33689,1618.47341,386.13279Zm5.34961,4.84228c1.78223,0,2.96485-1.59521,2.96485-4.84228s-1.18262-4.84229-2.96485-4.84229h-.16894c-1.7832,0-2.96582,1.59522-2.96582,4.84229s1.18262,4.84228,2.96582,4.84228Z" fill="#587ef9"/>
          <path d="M1633.1863,392.70163v-9.98486l-2.92871,2.834v-2.74023l3.34082-3.24658h1.72754v13.13769Z" fill="#587ef9"/>
          <path d="M1642.43728,379.376c3.07813,0,4.95508,2.29,4.95508,6.32519,0,4.29786-2.57129,7.188-5.74316,7.188a3.98973,3.98973,0,0,1-4.20411-3.49072h2.21485a1.88546,1.88546,0,0,0,2.00781,1.55762h.16895c1.708,0,3.30371-1.52,3.585-4.6919a3.8036,3.8036,0,0,1-3.45313,1.93311,4.14108,4.14108,0,0,1-4.24219-4.3169A4.423,4.423,0,0,1,1642.43728,379.376Zm.05664,1.93311h-.16894a2.489,2.489,0,0,0,0,4.97363h.16894a2.48683,2.48683,0,1,0,0-4.97363Z" fill="#587ef9"/>
        </g>
      </g>
    </g>
    <g id="rettangoli">
      <g id="rettangoli-2" data-name="rettangoli">
        <rect x="129.49542" y="421.33245" width="211.05429" height="396.94166" fill="none" stroke="#34e0a1" stroke-miterlimit="10" stroke-width="2"/>
      </g>
      <g id="rettangoli-3" data-name="rettangoli">
        <rect x="361.51596" y="421.33245" width="211.05429" height="396.94166" fill="none" stroke="#34e0a1" stroke-miterlimit="10" stroke-width="2"/>
      </g>
      <g id="rettangoli-4" data-name="rettangoli">
        <rect x="1521.61869" y="421.33245" width="211.05429" height="396.94166" fill="none" stroke="#34e0a1" stroke-miterlimit="10" stroke-width="2"/>
      </g>
      <g id="rettangoli-5" data-name="rettangoli">
        <rect x="593.53651" y="421.33245" width="211.05429" height="396.94166" fill="none" stroke="#34e0a1" stroke-miterlimit="10" stroke-width="2"/>
      </g>
      <g id="rettangoli-6" data-name="rettangoli">
        <rect x="1057.5776" y="421.33245" width="211.05429" height="396.94166" fill="none" stroke="#34e0a1" stroke-miterlimit="10" stroke-width="2"/>
      </g>
      <g id="rettangoli-7" data-name="rettangoli">
        <rect x="1289.59814" y="421.33245" width="211.05429" height="396.94166" fill="none" stroke="#34e0a1" stroke-miterlimit="10" stroke-width="2"/>
      </g>
      <g id="rettangoli-8" data-name="rettangoli">
        <rect x="825.55705" y="421.33245" width="211.05429" height="396.94166" fill="none" stroke="#34e0a1" stroke-miterlimit="10" stroke-width="2"/>
      </g>
    </g>
    <g id="instagram">
      <rect x="1752.8139" y="139.22682" width="35.01925" height="211.0543" fill="#c22eff"/>
      <g>
        <path d="M1763.7545,300.726v-2.59014h13.13908V300.726Z" fill="#224"/>
        <path d="M1767.2271,292.40092h9.66648v2.59014H1763.7545V291.634l9.62881-5.27705h-9.62881v-2.59014h13.13908v3.35812Z" fill="#224"/>
        <path d="M1765.81912,275.88608v.19147c0,1.4392.75031,2.30292,1.5953,2.30292.86332,0,1.25731-.47973,1.48332-1.63067l.394-2.01466c.45-2.30293,1.61363-3.72235,3.75359-3.72235,2.253,0,4.03559,1.84192,4.03559,5.16154,0,3.68384-1.87629,5.37175-4.59858,5.46749v-2.59014c1.31432-.09574,2.34663-1.0552,2.34663-3.06987v-.19147c0-1.4392-.75133-2.18741-1.5953-2.18741-.75133,0-1.20131.32571-1.44564,1.5162l-.48765,2.39762c-.48867,2.39866-1.83964,3.45386-3.79228,3.45386-1.971,0-3.94192-1.78469-3.94192-5.08453,0-3.26135,1.82131-5.08454,4.31759-5.08454v2.59014A2.21453,2.21453,0,0,0,1765.81912,275.88608Z" fill="#224"/>
        <path d="M1766.00645,265.35591v4.6433h-2.252V258.10374h2.252v4.662h10.88713v2.59014Z" fill="#224"/>
        <path d="M1773.79664,249.74121v5.64023l3.09694,1.20922V259.315l-13.13908-5.31451v-3.03137l13.13908-5.18027V248.532Zm-7.22721,2.82011,4.97424,1.93766v-3.87532Z" fill="#224"/>
        <path d="M1775.61693,235.01a4.88931,4.88931,0,0,1,1.464,3.64534,6.75881,6.75881,0,0,1-13.51474,0c0-3.45386,1.971-5.56426,4.69325-5.75678v2.59014a2.75039,2.75039,0,0,0-2.44029,3.06986v.19252c0,2.4944,1.78263,3.93359,4.50492,3.93359,2.72127,0,4.50491-1.43919,4.50491-3.93359v-.19252a3.507,3.507,0,0,0-2.534-3.58706v3.68384h-2.253v-4.22185a1.45233,1.45233,0,0,1,1.59632-1.63067h5.25523V235.01Z" fill="#224"/>
        <path d="M1763.7545,230.21685v-6.23548c0-2.30292,1.50164-4.12507,3.56626-4.12507a3.21671,3.21671,0,0,1,3.32193,2.28315c0-1.45792.676-2.09167,1.859-2.09167h4.39191v2.59014H1773.139c-.93763,0-1.21963.28825-1.21963,1.24772v3.74107h4.97424v2.59014Zm5.94954-5.46853c0-1.53493-.675-2.30188-1.89563-2.30188-1.21963,0-1.802.767-1.802,2.30188v2.87839h3.69759Z" fill="#224"/>
        <path d="M1773.79664,209.0972v5.64023l3.09694,1.20922V218.671l-13.13908-5.31451v-3.03137l13.13908-5.18027V207.888Zm-7.22721,2.82011,4.97424,1.93766v-3.87532Z" fill="#224"/>
        <path d="M1766.51344,200.92719h10.38014v2.5329H1763.7545v-4.02933l10.32312-3.37686-10.32312-3.26134V188.782h13.13908v2.5329h-10.36182l10.36182,3.33835v2.83989Z" fill="#224"/>
      </g>
    </g>
    <g id="tripadvisor">
      <rect x="1752.8139" y="421.33245" width="35.01925" height="396.94166" fill="#34e0a1"/>
      <g>
        <path d="M1766.00645,677.82352v4.54258h-2.252V670.72866h2.252v4.56091h10.88713v2.534Z" fill="#224"/>
        <path d="M1763.7545,668.85543v-6.10021a3.74673,3.74673,0,0,1,3.56626-4.03559,3.2143,3.2143,0,0,1,3.32193,2.23362c0-1.4263.676-2.0463,1.859-2.0463h4.39191v2.534H1773.139c-.93763,0-1.21963.282-1.21963,1.22066v3.65992h4.97424v2.534Zm5.94954-5.3499c0-1.50164-.675-2.25195-1.89563-2.25195-1.21963,0-1.802.75031-1.802,2.25195v2.81595h3.69759Z" fill="#224"/>
        <path d="M1763.7545,656.05842v-2.534h13.13908v2.534Z" fill="#224"/>
        <path d="M1763.7545,650.44789V644.535a4.13976,4.13976,0,1,1,8.27784,0v3.37894h4.86124v2.534Zm6.02487-5.63088a1.88827,1.88827,0,1,0-3.77292,0v3.09693h3.77292Z" fill="#224"/>
        <path d="M1773.79664,631.343v5.51788l3.09694,1.183v2.66528l-13.13908-5.19923v-2.9656l13.13908-5.06791V630.16Zm-7.22721,2.75894,4.97424,1.89562V632.2063Z" fill="#224"/>
        <path d="M1763.7545,625.82816v-4.50492c0-3.94193,2.252-6.6632,6.56954-6.6632s6.56954,2.62761,6.56954,6.56954v4.59858Zm10.88713-4.31658c0-2.535-1.03333-4.31759-4.31759-4.31759-3.28528,0-4.31759,1.78262-4.31759,4.31759v1.78263h8.63518Z" fill="#224"/>
        <path d="M1776.89358,609.12689l-13.13908,5.03023v-2.83428l10.4738-3.88491-10.4738-3.73527v-2.77828l13.13908,4.91723Z" fill="#224"/>
        <path d="M1763.7545,599.25782v-2.534h13.13908v2.534Z" fill="#224"/>
        <path d="M1765.81912,589.01105v.18732c0,1.408.75031,2.253,1.5953,2.253.86332,0,1.25731-.46932,1.48332-1.5953l.394-1.971c.45-2.253,1.61363-3.6416,3.75359-3.6416,2.253,0,4.03559,1.802,4.03559,5.04958,0,3.60393-1.87629,5.25522-4.59858,5.34888v-2.534c1.31432-.09366,2.34663-1.03231,2.34663-3.00327v-.18733c0-1.408-.75133-2.14-1.5953-2.14-.75133,0-1.20131.31866-1.44564,1.48332l-.48765,2.3456c-.48867,2.34663-1.83964,3.37895-3.79228,3.37895-1.971,0-3.94192-1.746-3.94192-4.97424,0-3.1906,1.82131-4.97424,4.31759-4.97424v2.534A2.18092,2.18092,0,0,0,1765.81912,589.01105Z" fill="#224"/>
        <path d="M1770.324,582.48223c-4.22393,0-6.75788-2.62761-6.75788-6.38222,0-3.75358,2.534-6.3812,6.75788-6.3812,4.22291,0,6.75686,2.62762,6.75686,6.3812C1777.0809,579.85462,1774.547,582.48223,1770.324,582.48223Zm4.50491-6.47588c0-2.34561-1.69-3.75359-4.50491-3.75359-2.816,0-4.50492,1.408-4.50492,3.75359v.18834c0,2.34561,1.689,3.75359,4.50492,3.75359,2.81493,0,4.50491-1.408,4.50491-3.75359Z" fill="#224"/>
        <path d="M1763.7545,567.37626v-6.10021a3.74673,3.74673,0,0,1,3.56626-4.03559,3.2143,3.2143,0,0,1,3.32193,2.23362c0-1.4263.676-2.0463,1.859-2.0463h4.39191v2.534H1773.139c-.93763,0-1.21963.282-1.21963,1.22065v3.65993h4.97424v2.534Zm5.94954-5.3499c0-1.50164-.675-2.25195-1.89563-2.25195-1.21963,0-1.802.75031-1.802,2.25195v2.816h3.69759Z" fill="#224"/>
      </g>
    </g>
  </g>
  <g id="img_2">
    <image width="1604" height="529" transform="translate(129.51207 139.24539)" xlink:href="finding_4_img.png"/>
  </g>
  <g id="CASA_DEL_ARBOL">
    <g id="Arbol_numbers">
      <path d="M230.81716,850.73093h1.96875a1.88085,1.88085,0,0,0,2.05079,1.61816h.167a1.822,1.822,0,0,0,2.03515-1.73437c0-1.084-.86718-1.71777-2.085-1.71777h-.88379v-1.70118h.834a1.83718,1.83718,0,0,0,2.06738-1.76855,1.74464,1.74464,0,0,0-1.918-1.68457h-.167a1.83342,1.83342,0,0,0-1.90039,1.65137H231.034c.05078-1.95118,1.75195-3.35157,3.96973-3.35157,2.31836,0,3.93554,1.4502,3.93554,3.18457a2.87339,2.87339,0,0,0,.084,5.52051c0,2.03516-1.73438,3.30274-4.10254,3.30274S230.91775,852.78269,230.81716,850.73093Z" fill="#34e0a1"/>
      <g>
        <path d="M1623.91873,854.05027c-2.73535,0-4.40332-2.03516-4.40332-5.6211,0-3.81836,2.28515-6.38672,5.10351-6.38672a3.54459,3.54459,0,0,1,3.73535,3.10157h-1.96777a1.67544,1.67544,0,0,0-1.78418-1.38379h-.15039c-1.51758,0-2.93555,1.35058-3.18555,4.16894a3.38065,3.38065,0,0,1,3.06934-1.71777,3.67929,3.67929,0,0,1,3.76855,3.83594A3.93019,3.93019,0,0,1,1623.91873,854.05027Zm-.05078-1.71778h.15039a2.21195,2.21195,0,0,0,0-4.41992h-.15039a2.21,2.21,0,1,0,0,4.41992Z" fill="#34e0a1"/>
        <path d="M1632.27517,853.88327v-8.873l-2.60156,2.51855v-2.43457l2.96875-2.88574h1.53418v11.6748Z" fill="#34e0a1"/>
      </g>
      <g>
        <path d="M1156.08963,850.91452a2.73243,2.73243,0,0,1,1.96777-2.68457,3.08536,3.08536,0,0,1-2.20117-2.96875c0-1.73535,1.46777-3.21875,3.96972-3.21875,2.51856,0,3.98535,1.4834,3.98535,3.21875a3.08421,3.08421,0,0,1-2.20117,2.96875,2.73244,2.73244,0,0,1,1.96778,2.68457c0,1.73438-1.40039,3.13575-3.752,3.13575S1156.08963,852.6489,1156.08963,850.91452Zm1.73437-5.40332a1.82185,1.82185,0,0,0,1.918,1.80078h.167a1.79048,1.79048,0,1,0,0-3.56933h-.167A1.80659,1.80659,0,0,0,1157.824,845.5112Zm2.085,3.502h-.167a1.64344,1.64344,0,0,0-1.70117,1.68457,1.60731,1.60731,0,0,0,1.70117,1.65136h.167a1.61136,1.61136,0,0,0,1.71777-1.65136A1.64707,1.64707,0,0,0,1159.909,849.01316Z" fill="#34e0a1"/>
        <path d="M1167.866,853.88327v-8.873l-2.60156,2.51855v-2.43457l2.96875-2.88574h1.53418v11.6748Z" fill="#34e0a1"/>
      </g>
      <g>
        <path d="M922.80935,853.88425v-8.873l-2.60156,2.51856v-2.43457l2.96875-2.88574h1.53418v11.6748Z" fill="#34e0a1"/>
        <path d="M929.34744,853.88425v-8.873l-2.60156,2.51856v-2.43457l2.96875-2.88574h1.53417v11.6748Z" fill="#34e0a1"/>
        <path d="M933.26834,850.6987h1.96777a2.05862,2.05862,0,0,0,2.21777,1.65137h.11719a2.00912,2.00912,0,0,0,2.11816-2.10156,1.927,1.927,0,0,0-2.06835-1.96778h-.13379a2.53354,2.53354,0,0,0-1.96778.9502h-1.85156l1.43457-7.02148h6.4375v1.73437h-4.96973l-.71679,3.43652a3.25656,3.25656,0,0,1,2.15136-.80078,3.47716,3.47716,0,0,1,3.65235,3.58594,3.83207,3.83207,0,0,1-4.15332,3.88574C935.20291,854.05124,933.46853,852.76706,933.26834,850.6987Z" fill="#34e0a1"/>
      </g>
      <g>
        <path d="M459.57009,850.73191h1.96875a1.88085,1.88085,0,0,0,2.05079,1.61816h.167a1.822,1.822,0,0,0,2.03515-1.73437c0-1.084-.86718-1.71778-2.085-1.71778H462.823v-1.70117h.834a1.83718,1.83718,0,0,0,2.06738-1.76855,1.74393,1.74393,0,0,0-1.918-1.6836h-.166A1.8329,1.8329,0,0,0,461.739,845.395h-1.95215c.05078-1.95117,1.75195-3.35156,3.96973-3.35156,2.31836,0,3.93554,1.4502,3.93554,3.18457a2.87339,2.87339,0,0,0,.084,5.52051c0,2.03515-1.73438,3.30273-4.10254,3.30273S459.67068,852.78366,459.57009,850.73191Z" fill="#34e0a1"/>
        <path d="M471.87966,853.88425v-8.873l-2.60156,2.51856v-2.43457l2.96875-2.88574H473.781v11.6748Z" fill="#34e0a1"/>
      </g>
      <g>
        <path d="M694.15017,842.04343c2.73535,0,4.40332,2.03418,4.40332,5.62012,0,3.81933-2.28515,6.38769-5.10351,6.38769a3.54537,3.54537,0,0,1-3.73535-3.10254h1.96777a1.67616,1.67616,0,0,0,1.78418,1.38477h.15039c1.51758,0,2.93555-1.35156,3.18555-4.16992a3.38066,3.38066,0,0,1-3.06934,1.71777,3.67929,3.67929,0,0,1-3.76855-3.83594A3.92944,3.92944,0,0,1,694.15017,842.04343Zm.05078,1.71777h-.15039a2.21144,2.21144,0,0,0,0,4.41895h.15039a2.20949,2.20949,0,1,0,0-4.41895Z" fill="#34e0a1"/>
        <path d="M700.239,853.88425v-1.918l3.88574-3.66894c1.23438-1.168,2.06836-1.85157,2.06836-2.95215a1.60617,1.60617,0,0,0-1.73437-1.60059h-.167a1.92813,1.92813,0,0,0-1.95117,2.05078h-1.98535a3.70187,3.70187,0,0,1,4.00293-3.752c2.20117,0,3.80273,1.2666,3.80273,3.21875,0,1.65039-1.001,2.71777-2.45214,4.05273l-3.06836,2.835h5.6875v1.73437Z" fill="#34e0a1"/>
      </g>
      <g>
        <path d="M1387.9949,853.88327v-.834c0-4.68652,1.85156-7.52148,4.08594-9.05566h-6.03711v-1.78516h8.27246v1.73437c-2.63574,1.65137-4.28614,4.38672-4.28614,9.17286v.76757Z" fill="#34e0a1"/>
        <path d="M1395.35134,850.69773h1.96778a2.05861,2.05861,0,0,0,2.21777,1.65136h.11719a2.00912,2.00912,0,0,0,2.11816-2.10156,1.927,1.927,0,0,0-2.06836-1.96777h-.13379a2.53351,2.53351,0,0,0-1.96777.95019h-1.85156l1.43457-7.02148h6.4375v1.73437h-4.96973l-.7168,3.43653a3.25656,3.25656,0,0,1,2.15137-.80078,3.47715,3.47715,0,0,1,3.65235,3.58593,3.83207,3.83207,0,0,1-4.15332,3.88575C1397.28591,854.05027,1395.55154,852.76609,1395.35134,850.69773Z" fill="#34e0a1"/>
      </g>
    </g>
    <g id="Arbol_Instagram_9">
      <rect x="1596.96539" y="214.57047" width="60.36699" height="60.36699" fill="none" stroke="#e33678" stroke-miterlimit="10" stroke-width="3"/>
      <rect x="1672.32068" y="214.57047" width="60.36699" height="60.36699" fill="none" stroke="#e33678" stroke-miterlimit="10" stroke-width="3"/>
      <rect x="1596.96539" y="139.21518" width="60.36699" height="60.36699" fill="none" stroke="#e33678" stroke-miterlimit="10" stroke-width="3"/>
      <rect x="1672.32068" y="139.21518" width="60.36699" height="60.36699" fill="none" stroke="#e33678" stroke-miterlimit="10" stroke-width="3"/>
      <rect x="1521.6101" y="214.57047" width="60.36699" height="60.36699" fill="none" stroke="#e33678" stroke-miterlimit="10" stroke-width="3"/>
      <rect x="1596.96539" y="289.92576" width="60.36699" height="60.36699" fill="none" stroke="#e33678" stroke-miterlimit="10" stroke-width="3"/>
      <rect x="1672.32068" y="289.92576" width="60.36699" height="60.36699" fill="none" stroke="#e33678" stroke-miterlimit="10" stroke-width="3"/>
      <rect x="1521.6101" y="289.92576" width="60.36699" height="60.36699" fill="none" stroke="#e33678" stroke-miterlimit="10" stroke-width="3"/>
      <rect x="1364.94434" y="214.57047" width="60.36699" height="60.36699" fill="none" stroke="#e33678" stroke-miterlimit="10" stroke-width="3"/>
      <rect x="1440.29963" y="214.57047" width="60.36699" height="60.36699" fill="none" stroke="#e33678" stroke-miterlimit="10" stroke-width="3"/>
      <rect x="1364.94434" y="139.21518" width="60.36699" height="60.36699" fill="none" stroke="#e33678" stroke-miterlimit="10" stroke-width="3"/>
      <rect x="1440.29963" y="139.21518" width="60.36699" height="60.36699" fill="none" stroke="#e33678" stroke-miterlimit="10" stroke-width="3"/>
      <rect x="1289.58904" y="214.57047" width="60.36699" height="60.36699" fill="none" stroke="#e33678" stroke-miterlimit="10" stroke-width="3"/>
      <rect x="1289.58904" y="139.21518" width="60.36699" height="60.36699" fill="none" stroke="#e33678" stroke-miterlimit="10" stroke-width="3"/>
      <rect x="1364.94434" y="289.92576" width="60.36699" height="60.36699" fill="none" stroke="#e33678" stroke-miterlimit="10" stroke-width="3"/>
      <rect x="1440.29963" y="289.92576" width="60.36699" height="60.36699" fill="none" stroke="#e33678" stroke-miterlimit="10" stroke-width="3"/>
      <rect x="1289.58904" y="289.92576" width="60.36699" height="60.36699" fill="none" stroke="#e33678" stroke-miterlimit="10" stroke-width="3"/>
      <rect x="1208.27857" y="214.57047" width="60.36699" height="60.36699" fill="none" stroke="#e33678" stroke-miterlimit="10" stroke-width="3"/>
      <rect x="1132.92328" y="139.21518" width="60.36699" height="60.36699" fill="none" stroke="#e33678" stroke-miterlimit="10" stroke-width="3"/>
      <rect x="1208.27857" y="139.21518" width="60.36699" height="60.36699" fill="none" stroke="#e33678" stroke-miterlimit="10" stroke-width="3"/>
      <rect x="1057.56799" y="214.57047" width="60.36699" height="60.36699" fill="none" stroke="#e33678" stroke-miterlimit="10" stroke-width="3"/>
      <rect x="1132.92328" y="214.57047" width="60.36699" height="60.36699" fill="none" stroke="#e33678" stroke-miterlimit="10" stroke-width="3"/>
      <rect x="1057.56799" y="139.21518" width="60.36699" height="60.36699" fill="none" stroke="#e33678" stroke-miterlimit="10" stroke-width="3"/>
      <rect x="1132.92328" y="289.92576" width="60.36699" height="60.36699" fill="none" stroke="#e33678" stroke-miterlimit="10" stroke-width="3"/>
      <rect x="1208.27857" y="289.92576" width="60.36699" height="60.36699" fill="none" stroke="#e33678" stroke-miterlimit="10" stroke-width="3"/>
      <rect x="1057.56799" y="289.92576" width="60.36699" height="60.36699" fill="none" stroke="#e33678" stroke-miterlimit="10" stroke-width="3"/>
      <rect x="976.25752" y="214.57047" width="60.36699" height="60.36699" fill="none" stroke="#e33678" stroke-miterlimit="10" stroke-width="3"/>
      <rect x="900.90223" y="139.21518" width="60.36699" height="60.36699" fill="none" stroke="#e33678" stroke-miterlimit="10" stroke-width="3"/>
      <rect x="976.25752" y="139.21518" width="60.36699" height="60.36699" fill="none" stroke="#e33678" stroke-miterlimit="10" stroke-width="3"/>
      <rect x="825.54694" y="214.57047" width="60.36699" height="60.36699" fill="none" stroke="#e33678" stroke-miterlimit="10" stroke-width="3"/>
      <rect x="900.90223" y="214.57047" width="60.36699" height="60.36699" fill="none" stroke="#e33678" stroke-miterlimit="10" stroke-width="3"/>
      <rect x="825.54694" y="139.21518" width="60.36699" height="60.36699" fill="none" stroke="#e33678" stroke-miterlimit="10" stroke-width="3"/>
      <rect x="900.90223" y="289.92576" width="60.36699" height="60.36699" fill="none" stroke="#e33678" stroke-miterlimit="10" stroke-width="3"/>
      <rect x="976.25752" y="289.92576" width="60.36699" height="60.36699" fill="none" stroke="#e33678" stroke-miterlimit="10" stroke-width="3"/>
      <rect x="825.54694" y="289.92576" width="60.36699" height="60.36699" fill="none" stroke="#e33678" stroke-miterlimit="10" stroke-width="3"/>
      <rect x="744.23647" y="214.57047" width="60.36699" height="60.36699" fill="none" stroke="#e33678" stroke-miterlimit="10" stroke-width="3"/>
      <rect x="668.88117" y="139.21518" width="60.36699" height="60.36699" fill="none" stroke="#e33678" stroke-miterlimit="10" stroke-width="3"/>
      <rect x="744.23647" y="139.21518" width="60.36699" height="60.36699" fill="none" stroke="#e33678" stroke-miterlimit="10" stroke-width="3"/>
      <rect x="593.52588" y="214.57047" width="60.36699" height="60.36699" fill="none" stroke="#e33678" stroke-miterlimit="10" stroke-width="3"/>
      <rect x="668.88117" y="214.57047" width="60.36699" height="60.36699" fill="none" stroke="#e33678" stroke-miterlimit="10" stroke-width="3"/>
      <rect x="593.52588" y="139.21518" width="60.36699" height="60.36699" fill="none" stroke="#e33678" stroke-miterlimit="10" stroke-width="3"/>
      <rect x="668.88117" y="289.92576" width="60.36699" height="60.36699" fill="none" stroke="#e33678" stroke-miterlimit="10" stroke-width="3"/>
      <rect x="744.23647" y="289.92576" width="60.36699" height="60.36699" fill="none" stroke="#e33678" stroke-miterlimit="10" stroke-width="3"/>
      <rect x="593.52588" y="289.92576" width="60.36699" height="60.36699" fill="none" stroke="#e33678" stroke-miterlimit="10" stroke-width="3"/>
      <rect x="361.50483" y="139.21518" width="60.36699" height="60.36699" fill="none" stroke="#e33678" stroke-miterlimit="10" stroke-width="3"/>
      <rect x="436.86012" y="139.21518" width="60.36699" height="60.36699" fill="none" stroke="#e33678" stroke-miterlimit="10" stroke-width="3"/>
      <rect x="512.21541" y="139.21518" width="60.36699" height="60.36699" fill="none" stroke="#e33678" stroke-miterlimit="10" stroke-width="3"/>
      <rect x="361.50483" y="214.57047" width="60.36699" height="60.36699" fill="none" stroke="#e33678" stroke-miterlimit="10" stroke-width="3"/>
      <rect x="436.86012" y="214.57047" width="60.36699" height="60.36699" fill="none" stroke="#e33678" stroke-miterlimit="10" stroke-width="3"/>
      <rect x="512.21541" y="214.57047" width="60.36699" height="60.36699" fill="none" stroke="#e33678" stroke-miterlimit="10" stroke-width="3"/>
      <rect x="361.50483" y="289.92576" width="60.36699" height="60.36699" fill="none" stroke="#e33678" stroke-miterlimit="10" stroke-width="3"/>
      <rect x="436.86012" y="289.92576" width="60.36699" height="60.36699" fill="none" stroke="#e33678" stroke-miterlimit="10" stroke-width="3"/>
      <rect x="512.21541" y="289.92576" width="60.36699" height="60.36699" fill="none" stroke="#e33678" stroke-miterlimit="10" stroke-width="3"/>
      <rect x="129.48377" y="289.92576" width="60.36699" height="60.36699" fill="none" stroke="#e33678" stroke-miterlimit="10" stroke-width="3"/>
      <rect x="204.83907" y="289.92576" width="60.36699" height="60.36699" fill="none" stroke="#e33678" stroke-miterlimit="10" stroke-width="3"/>
      <rect x="280.19436" y="289.92576" width="60.36699" height="60.36699" fill="none" stroke="#e33678" stroke-miterlimit="10" stroke-width="3"/>
      <rect x="129.48377" y="214.57047" width="60.36699" height="60.36699" fill="none" stroke="#e33678" stroke-miterlimit="10" stroke-width="3"/>
      <rect x="204.83907" y="214.57047" width="60.36699" height="60.36699" fill="none" stroke="#e33678" stroke-miterlimit="10" stroke-width="3"/>
      <rect x="280.19436" y="214.57047" width="60.36699" height="60.36699" fill="none" stroke="#e33678" stroke-miterlimit="10" stroke-width="3"/>
      <rect x="280.19436" y="139.21518" width="60.36699" height="60.36699" fill="none" stroke="#e33678" stroke-miterlimit="10" stroke-width="3"/>
    </g>
  </g>
</svg>
