<svg xmlns="http://www.w3.org/2000/svg" xmlns:xlink="http://www.w3.org/1999/xlink" viewBox="0 0 1920 1000">
  <g id="Background">
    <rect width="1920" height="1000" fill="#224"/>
  </g>
  <g id="elementi_base_copia" data-name="elementi_base copia">
    <g id="anni_copia" data-name="anni copia">
      <g id="_2013" data-name="2013">
        <rect x="129.61297" y="365.97834" width="211.27938" height="41.42103" fill="#587ef9" stroke="#587ef9" stroke-miterlimit="10" stroke-width="2" opacity="0.3"/>
        <g>
          <path d="M216.25076,393.59079v-2.16015l4.37695-4.13233c1.38965-1.31494,2.3291-2.085,2.3291-3.3247a1.80845,1.80845,0,0,0-1.95312-1.80323h-.18848a2.17228,2.17228,0,0,0-2.19726,2.31055h-2.23536a4.16953,4.16953,0,0,1,4.50782-4.22656c2.47949,0,4.2832,1.42773,4.2832,3.62549,0,1.85937-1.12695,3.06152-2.76172,4.56445l-3.45605,3.19287h6.40527v1.95361Z" fill="#587ef9"/>
          <path d="M226.90213,387.01657c0-4.20751,1.93457-6.7622,5.25976-6.7622,3.32422,0,5.27832,2.55469,5.27832,6.7622s-1.89746,6.76221-5.27832,6.76221S226.90213,391.22409,226.90213,387.01657Zm5.35351,4.8462c1.78418,0,2.96777-1.59668,2.96777-4.8462s-1.18359-4.84619-2.96777-4.84619h-.16894c-1.78418,0-2.96778,1.59668-2.96778,4.84619s1.1836,4.8462,2.96778,4.8462Z" fill="#587ef9"/>
          <path d="M241.62966,393.59079v-9.99267l-2.93066,2.83594v-2.74219l3.34375-3.24951h1.72754v13.14843Z" fill="#587ef9"/>
          <path d="M245.87478,390.0405h2.2168a2.11894,2.11894,0,0,0,2.31055,1.82227h.1875a2.052,2.052,0,0,0,2.292-1.95362c0-1.2207-.97657-1.93457-2.34864-1.93457h-.99511v-1.916h.93945a2.06924,2.06924,0,0,0,2.3291-1.99121,1.96449,1.96449,0,0,0-2.16015-1.897h-.1875a2.06473,2.06473,0,0,0-2.14161,1.85938h-2.19824c.05664-2.19727,1.97266-3.77539,4.47071-3.77539,2.61132,0,4.43261,1.63427,4.43261,3.58789a3.14252,3.14252,0,0,1-2.291,3.11816,3.13448,3.13448,0,0,1,2.38574,3.09912c0,2.29151-1.9541,3.71924-4.62109,3.71924S245.98806,392.35105,245.87478,390.0405Z" fill="#587ef9"/>
        </g>
      </g>
      <g id="_2014" data-name="2014">
        <rect x="361.88096" y="365.97834" width="211.27938" height="41.42103" fill="#587ef9" stroke="#587ef9" stroke-miterlimit="10" stroke-width="2" opacity="0.3"/>
        <g>
          <path d="M448.23611,393.59079v-2.16015l4.377-4.13233c1.38965-1.31494,2.3291-2.085,2.3291-3.3247a1.80845,1.80845,0,0,0-1.95312-1.80323h-.18848a2.17228,2.17228,0,0,0-2.19726,2.31055H448.368a4.16952,4.16952,0,0,1,4.50781-4.22656c2.47949,0,4.2832,1.42773,4.2832,3.62549,0,1.85937-1.12695,3.06152-2.76172,4.56445l-3.45605,3.19287h6.40527v1.95361Z" fill="#587ef9"/>
          <path d="M458.88748,387.01657c0-4.20751,1.93457-6.7622,5.25976-6.7622,3.32422,0,5.27832,2.55469,5.27832,6.7622s-1.89746,6.76221-5.27832,6.76221S458.88748,391.22409,458.88748,387.01657Zm5.35351,4.8462c1.78418,0,2.96778-1.59668,2.96778-4.8462s-1.1836-4.84619-2.96778-4.84619h-.16894c-1.78418,0-2.96778,1.59668-2.96778,4.84619s1.1836,4.8462,2.96778,4.8462Z" fill="#587ef9"/>
          <path d="M473.615,393.59079v-9.99267l-2.93067,2.83594v-2.74219l3.34375-3.24951h1.72754v13.14843Z" fill="#587ef9"/>
          <path d="M483.98416,393.59079V390.792h-6.40528v-2.17872l6.36719-8.17089h2.16016V388.876H488.116v1.916h-2.00976v2.79882Zm0-10.16211-4.26368,5.44727h4.26368Z" fill="#587ef9"/>
        </g>
      </g>
      <g id="_2015" data-name="2015">
        <rect x="594.14896" y="365.97834" width="211.27938" height="41.42103" fill="#587ef9" stroke="#587ef9" stroke-miterlimit="10" stroke-width="2" opacity="0.3"/>
        <g>
          <path d="M680.824,393.59079v-2.16015l4.377-4.13233c1.38965-1.31494,2.3291-2.085,2.3291-3.3247a1.80845,1.80845,0,0,0-1.95312-1.80323h-.18848a2.17228,2.17228,0,0,0-2.19726,2.31055h-2.23535a4.16952,4.16952,0,0,1,4.50781-4.22656c2.47949,0,4.2832,1.42773,4.2832,3.62549,0,1.85937-1.12695,3.06152-2.76172,4.56445l-3.45605,3.19287h6.40527v1.95361Z" fill="#587ef9"/>
          <path d="M691.47537,387.01657c0-4.20751,1.93457-6.7622,5.25976-6.7622,3.32422,0,5.27832,2.55469,5.27832,6.7622s-1.89746,6.76221-5.27832,6.76221S691.47537,391.22409,691.47537,387.01657Zm5.35351,4.8462c1.78418,0,2.96778-1.59668,2.96778-4.8462s-1.1836-4.84619-2.96778-4.84619h-.16894c-1.78418,0-2.96778,1.59668-2.96778,4.84619s1.1836,4.8462,2.96778,4.8462Z" fill="#587ef9"/>
          <path d="M706.20291,393.59079v-9.99267l-2.93067,2.83594v-2.74219l3.34375-3.24951h1.72754v13.14843Z" fill="#587ef9"/>
          <path d="M710.242,390.0029h2.21582a2.31908,2.31908,0,0,0,2.499,1.85987h.13086a2.26274,2.26274,0,0,0,2.38574-2.3667,2.17018,2.17018,0,0,0-2.3291-2.21631h-.15039a2.85406,2.85406,0,0,0-2.21679,1.07031h-2.085l1.61622-7.90771h7.25V382.396h-5.59766l-.80762,3.86914a3.6735,3.6735,0,0,1,2.42285-.90137,3.91617,3.91617,0,0,1,4.11426,4.03809c0,2.59228-1.89746,4.37695-4.67773,4.37695C712.42068,393.77878,710.46755,392.33249,710.242,390.0029Z" fill="#587ef9"/>
        </g>
      </g>
      <g id="_2016" data-name="2016">
        <rect x="826.41696" y="365.97834" width="211.27938" height="41.42103" fill="#587ef9" stroke="#587ef9" stroke-miterlimit="10" stroke-width="2" opacity="0.3"/>
        <g>
          <path d="M912.72537,393.59079v-2.16015l4.37695-4.13233c1.38965-1.31494,2.3291-2.085,2.3291-3.3247a1.80845,1.80845,0,0,0-1.95312-1.80323h-.18848a2.1723,2.1723,0,0,0-2.19727,2.31055H912.8572a4.16953,4.16953,0,0,1,4.50782-4.22656c2.47949,0,4.2832,1.42773,4.2832,3.62549,0,1.85937-1.127,3.06152-2.76172,4.56445l-3.45605,3.19287h6.40527v1.95361Z" fill="#587ef9"/>
          <path d="M923.37673,387.01657c0-4.20751,1.93457-6.7622,5.25977-6.7622,3.32422,0,5.27832,2.55469,5.27832,6.7622s-1.89746,6.76221-5.27832,6.76221S923.37673,391.22409,923.37673,387.01657Zm5.35352,4.8462c1.78418,0,2.96777-1.59668,2.96777-4.8462s-1.18359-4.84619-2.96777-4.84619h-.16895c-1.78417,0-2.96777,1.59668-2.96777,4.84619s1.1836,4.8462,2.96777,4.8462Z" fill="#587ef9"/>
          <path d="M938.10427,393.59079v-9.99267l-2.93066,2.83594v-2.74219l3.34375-3.24951h1.72754v13.14843Z" fill="#587ef9"/>
          <path d="M947.45877,393.77878c-3.08008,0-4.959-2.292-4.959-6.33008,0-4.30175,2.57324-7.19433,5.74805-7.19433a3.99254,3.99254,0,0,1,4.207,3.49365H950.239a1.88891,1.88891,0,0,0-2.00977-1.55908h-.16894c-1.71,0-3.30664,1.52148-3.58789,4.69629a3.8069,3.8069,0,0,1,3.45605-1.93506,4.144,4.144,0,0,1,4.24512,4.32031A4.42679,4.42679,0,0,1,947.45877,393.77878Zm-.05664-1.93506h.16894a2.491,2.491,0,0,0,0-4.97754h-.16894a2.48879,2.48879,0,1,0,0,4.97754Z" fill="#587ef9"/>
        </g>
      </g>
      <g id="_2017" data-name="2017">
        <rect x="1058.68496" y="365.97834" width="211.27938" height="41.42103" fill="#587ef9" stroke="#587ef9" stroke-miterlimit="10" stroke-width="2" opacity="0.3"/>
        <g>
          <path d="M1145.72732,393.59079v-2.16015l4.377-4.13233c1.38965-1.31494,2.32911-2.085,2.32911-3.3247a1.80845,1.80845,0,0,0-1.95313-1.80323h-.18848a2.17228,2.17228,0,0,0-2.19726,2.31055h-2.23535a4.16952,4.16952,0,0,1,4.50781-4.22656c2.47949,0,4.2832,1.42773,4.2832,3.62549,0,1.85937-1.12695,3.06152-2.76172,4.56445l-3.45605,3.19287h6.40527v1.95361Z" fill="#587ef9"/>
          <path d="M1156.37869,387.01657c0-4.20751,1.93457-6.7622,5.25976-6.7622,3.32422,0,5.27832,2.55469,5.27832,6.7622s-1.89746,6.76221-5.27832,6.76221S1156.37869,391.22409,1156.37869,387.01657Zm5.35351,4.8462c1.78418,0,2.96778-1.59668,2.96778-4.8462s-1.1836-4.84619-2.96778-4.84619h-.16894c-1.78418,0-2.96778,1.59668-2.96778,4.84619s1.1836,4.8462,2.96778,4.8462Z" fill="#587ef9"/>
          <path d="M1171.10623,393.59079v-9.99267l-2.93067,2.83594v-2.74219l3.34375-3.24951h1.72754v13.14843Z" fill="#587ef9"/>
          <path d="M1177.17361,393.59079v-.939c0-5.27832,2.085-8.47168,4.60156-10.19971h-6.79883v-2.00976h9.31641V382.396c-2.96777,1.85937-4.82715,4.93994-4.82715,10.33057v.86425Z" fill="#587ef9"/>
        </g>
      </g>
      <g id="_2018" data-name="2018">
        <rect x="1290.95296" y="365.97834" width="211.27938" height="41.42103" fill="#587ef9" stroke="#587ef9" stroke-miterlimit="10" stroke-width="2" opacity="0.3"/>
        <g>
          <path d="M1377.67556,393.59079v-2.16015l4.377-4.13233c1.38964-1.31494,2.3291-2.085,2.3291-3.3247a1.80845,1.80845,0,0,0-1.95313-1.80323H1382.24a2.17228,2.17228,0,0,0-2.19727,2.31055h-2.23535a4.16952,4.16952,0,0,1,4.50781-4.22656c2.47949,0,4.2832,1.42773,4.2832,3.62549,0,1.85937-1.127,3.06152-2.76171,4.56445l-3.45606,3.19287h6.40527v1.95361Z" fill="#587ef9"/>
          <path d="M1388.32693,387.01657c0-4.20751,1.93457-6.7622,5.25977-6.7622,3.32421,0,5.27832,2.55469,5.27832,6.7622s-1.89747,6.76221-5.27832,6.76221S1388.32693,391.22409,1388.32693,387.01657Zm5.35352,4.8462c1.78418,0,2.96777-1.59668,2.96777-4.8462s-1.18359-4.84619-2.96777-4.84619h-.16895c-1.78418,0-2.96777,1.59668-2.96777,4.84619s1.18359,4.8462,2.96777,4.8462Z" fill="#587ef9"/>
          <path d="M1403.05447,393.59079v-9.99267l-2.93067,2.83594v-2.74219l3.34375-3.24951h1.72754v13.14843Z" fill="#587ef9"/>
          <path d="M1407.7322,390.24753a3.07807,3.07807,0,0,1,2.21582-3.02441,3.47467,3.47467,0,0,1-2.47949-3.34326c0-1.95362,1.65332-3.62549,4.4707-3.62549,2.83692,0,4.48926,1.67187,4.48926,3.62549a3.47351,3.47351,0,0,1-2.47949,3.34326,3.07888,3.07888,0,0,1,2.2168,3.02441c0,1.95313-1.57813,3.53125-4.22657,3.53125S1407.7322,392.20066,1407.7322,390.24753Zm1.95313-6.08594a2.05225,2.05225,0,0,0,2.16015,2.02832h.1875a2.01639,2.01639,0,1,0,0-4.01953h-.1875A2.03434,2.03434,0,0,0,1409.68533,384.16159Zm2.34765,3.94434h-.1875a1.85063,1.85063,0,0,0-1.916,1.897,1.80972,1.80972,0,0,0,1.916,1.85987h.1875a1.81564,1.81564,0,0,0,1.93555-1.85987A1.85612,1.85612,0,0,0,1412.033,388.10593Z" fill="#587ef9"/>
        </g>
      </g>
      <g id="_2019" data-name="2019">
        <rect x="1523.22096" y="365.97834" width="211.27938" height="41.42103" fill="#587ef9" stroke="#587ef9" stroke-miterlimit="10" stroke-width="2" opacity="0.3"/>
        <g>
          <path d="M1609.5281,393.59079v-2.16015l4.377-4.13233c1.38965-1.31494,2.32911-2.085,2.32911-3.3247a1.80845,1.80845,0,0,0-1.95313-1.80323h-.18848a2.17228,2.17228,0,0,0-2.19726,2.31055h-2.23535a4.16952,4.16952,0,0,1,4.50781-4.22656c2.47949,0,4.2832,1.42773,4.2832,3.62549,0,1.85937-1.12695,3.06152-2.76172,4.56445l-3.45605,3.19287h6.40527v1.95361Z" fill="#587ef9"/>
          <path d="M1620.17947,387.01657c0-4.20751,1.93457-6.7622,5.25976-6.7622,3.32422,0,5.27832,2.55469,5.27832,6.7622s-1.89746,6.76221-5.27832,6.76221S1620.17947,391.22409,1620.17947,387.01657Zm5.35351,4.8462c1.78418,0,2.96778-1.59668,2.96778-4.8462s-1.1836-4.84619-2.96778-4.84619h-.16894c-1.78418,0-2.96777,1.59668-2.96777,4.84619s1.18359,4.8462,2.96777,4.8462Z" fill="#587ef9"/>
          <path d="M1634.907,393.59079v-9.99267l-2.93067,2.83594v-2.74219l3.34375-3.24951h1.72754v13.14843Z" fill="#587ef9"/>
          <path d="M1644.16775,380.25437c3.08008,0,4.959,2.2915,4.959,6.33008,0,4.30175-2.57324,7.19433-5.748,7.19433a3.99255,3.99255,0,0,1-4.207-3.49414h2.21582a1.8885,1.8885,0,0,0,2.00976,1.55908h.16895c1.71,0,3.30664-1.52148,3.58789-4.6958a3.80653,3.80653,0,0,1-3.45606,1.93457,4.14361,4.14361,0,0,1-4.24511-4.31982A4.42679,4.42679,0,0,1,1644.16775,380.25437Zm.05664,1.93457h-.16992a2.49129,2.49129,0,0,0,0,4.978h.16992a2.489,2.489,0,1,0,0-4.978Z" fill="#587ef9"/>
        </g>
      </g>
    </g>
    <g id="rettangoli">
      <g id="rettangoli-2" data-name="rettangoli">
        <rect x="129.61297" y="422.25241" width="211.27938" height="397.365" fill="none" stroke="#34e0a1" stroke-miterlimit="10" stroke-width="2"/>
      </g>
      <g id="rettangoli-3" data-name="rettangoli">
        <rect x="361.88096" y="422.25241" width="211.27938" height="397.365" fill="none" stroke="#34e0a1" stroke-miterlimit="10" stroke-width="2"/>
      </g>
      <g id="rettangoli-4" data-name="rettangoli">
        <rect x="1523.22096" y="422.25241" width="211.27938" height="397.365" fill="none" stroke="#34e0a1" stroke-miterlimit="10" stroke-width="2"/>
      </g>
      <g id="rettangoli-5" data-name="rettangoli">
        <rect x="594.14896" y="422.25241" width="211.27938" height="397.365" fill="none" stroke="#34e0a1" stroke-miterlimit="10" stroke-width="2"/>
      </g>
      <g id="rettangoli-6" data-name="rettangoli">
        <rect x="1058.68496" y="422.25241" width="211.27938" height="397.365" fill="none" stroke="#34e0a1" stroke-miterlimit="10" stroke-width="2"/>
      </g>
      <g id="rettangoli-7" data-name="rettangoli">
        <rect x="1290.95296" y="422.25241" width="211.27938" height="397.365" fill="none" stroke="#34e0a1" stroke-miterlimit="10" stroke-width="2"/>
      </g>
      <g id="rettangoli-8" data-name="rettangoli">
        <rect x="826.41696" y="422.25241" width="211.27938" height="397.365" fill="none" stroke="#34e0a1" stroke-miterlimit="10" stroke-width="2"/>
      </g>
    </g>
    <g id="instagram">
      <rect x="1754.66275" y="139.84592" width="35.0566" height="211.27939" fill="#c22eff"/>
      <g>
        <path d="M1765.615,301.51732v-2.5929h13.15309v2.5929Z" fill="#224"/>
        <path d="M1769.09132,293.18338h9.67678v2.5929H1765.615v-3.36067l9.63908-5.28268H1765.615V284.54h13.15309v3.3617Z" fill="#224"/>
        <path d="M1767.68184,276.65092v.19168c0,1.44073.75111,2.30537,1.597,2.30537.86423,0,1.25864-.48024,1.48489-1.63241l.39441-2.01681c.45047-2.30538,1.61535-3.72632,3.75759-3.72632,2.25537,0,4.0399,1.84389,4.0399,5.16705,0,3.68777-1.87829,5.37748-4.60348,5.47332v-2.5929c1.31571-.09584,2.34913-1.05633,2.34913-3.07314v-.19168c0-1.44073-.75213-2.18975-1.597-2.18975-.75213,0-1.2026.32607-1.44719,1.51782l-.48817,2.40018c-.48919,2.40122-1.8416,3.45754-3.79632,3.45754-1.97306,0-3.94613-1.78659-3.94613-5.08995,0-3.26483,1.82325-5.09,4.3222-5.09v2.5929A2.21689,2.21689,0,0,0,1767.68184,276.65092Z" fill="#224"/>
        <path d="M1767.86936,266.10952v4.64826H1765.615V258.84961h2.25435v4.667h10.89874v2.5929Z" fill="#224"/>
        <path d="M1775.66786,250.47816v5.64625l3.10024,1.21051v2.72728L1765.615,254.742v-3.0346l13.15309-5.1858v2.746Zm-7.23491,2.82313,4.97954,1.93972v-3.87945Z" fill="#224"/>
        <path d="M1777.49009,235.73125a4.89449,4.89449,0,0,1,1.46554,3.64923,6.766,6.766,0,0,1-13.52916,0c0-3.45755,1.97307-5.5702,4.69826-5.76293v2.5929a2.75333,2.75333,0,0,0-2.44289,3.07314v.19273c0,2.49705,1.78452,3.93778,4.50972,3.93778,2.72417,0,4.50972-1.44073,4.50972-3.93778v-.19273a3.51072,3.51072,0,0,0-2.53666-3.59088v3.68777h-2.25537v-4.22636a1.45388,1.45388,0,0,1,1.598-1.63241h5.26083v2.20954Z" fill="#224"/>
        <path d="M1765.615,230.933v-6.24212c0-2.30538,1.50324-4.12947,3.57007-4.12947a3.22013,3.22013,0,0,1,3.32547,2.28558c0-1.45948.67671-2.0939,1.861-2.0939h4.39659v2.5929h-3.75861c-.93863,0-1.22093.28856-1.22093,1.24905v3.74506h4.97954v2.5929Zm5.95589-5.47436c0-1.53657-.6757-2.30433-1.89765-2.30433-1.22094,0-1.80389.76776-1.80389,2.30433v2.88146h3.70154Z" fill="#224"/>
        <path d="M1775.66786,209.79081v5.64624l3.10024,1.21051v2.72728l-13.15309-5.32018v-3.0346l13.15309-5.18579v2.746Zm-7.23491,2.82312,4.97954,1.93973V210.6742Z" fill="#224"/>
        <path d="M1768.3769,201.61208h10.3912v2.5356H1765.615v-4.03362l10.33414-3.38046-10.33414-3.26482V189.4539h13.15309v2.5356h-10.37286l10.37286,3.34191v2.84292Z" fill="#224"/>
      </g>
    </g>
    <g id="tripadvisor">
      <rect x="1754.66275" y="422.25241" width="35.0566" height="397.365" fill="#34e0a1"/>
      <g>
        <path d="M1767.86936,679.017v4.54743H1765.615V671.91461h2.25435v4.56577h10.89874V679.017Z" fill="#224"/>
        <path d="M1765.615,670.03938v-6.10672a3.75072,3.75072,0,0,1,3.57007-4.03989,3.21772,3.21772,0,0,1,3.32547,2.236c0-1.42782.67671-2.04848,1.861-2.04848h4.39659v2.53665h-3.75861c-.93863,0-1.22093.28231-1.22093,1.222v3.66383h4.97954v2.53665Zm5.95589-5.35561c0-1.50324-.6757-2.25435-1.89765-2.25435-1.22094,0-1.80389.75111-1.80389,2.25435v2.819h3.70154Z" fill="#224"/>
        <path d="M1765.615,657.22872v-2.53665h13.15309v2.53665Z" fill="#224"/>
        <path d="M1765.615,651.61221V645.693a4.14417,4.14417,0,1,1,8.28667,0v3.38255h4.86642v2.53665Zm6.0313-5.63689a1.89029,1.89029,0,1,0-3.777,0v3.10024h3.777Z" fill="#224"/>
        <path d="M1775.66786,632.48693v5.52377l3.10024,1.18424v2.66813l-13.15309-5.20478v-2.96877l13.15309-5.07331v2.68647Zm-7.23491,2.76188,4.97954,1.89765v-3.7953Z" fill="#224"/>
        <path d="M1765.615,626.96622V622.4565c0-3.94613,2.25435-6.67031,6.57655-6.67031s6.57654,2.63042,6.57654,6.57655v4.60348Zm10.89874-4.32118c0-2.53767-1.03443-4.3222-4.32219-4.3222-3.28879,0-4.3222,1.78453-4.3222,4.3222v1.78452h8.64439Z" fill="#224"/>
        <path d="M1778.7681,610.24714l-13.15309,5.03559v-2.8373l10.485-3.88906-10.485-3.73924v-2.78125l13.15309,4.92247Z" fill="#224"/>
        <path d="M1765.615,600.36754v-2.53665h13.15309v2.53665Z" fill="#224"/>
        <path d="M1767.68184,590.10984v.18752c0,1.40948.75111,2.25537,1.597,2.25537.86423,0,1.25864-.46982,1.48489-1.597l.39441-1.97307c.45047-2.25536,1.61535-3.64548,3.75759-3.64548,2.25537,0,4.0399,1.80389,4.0399,5.055,0,3.60778-1.87829,5.26083-4.60348,5.35459v-2.53665c1.31571-.09376,2.34913-1.03341,2.34913-3.00648v-.18752c0-1.40948-.75213-2.14225-1.597-2.14225-.75213,0-1.2026.319-1.44719,1.4849l-.48817,2.34811c-.48919,2.34913-1.8416,3.38254-3.79632,3.38254-1.97306,0-3.94613-1.74783-3.94613-4.97954,0-3.194,1.82325-4.97955,4.3222-4.97955V587.667A2.18324,2.18324,0,0,0,1767.68184,590.10984Z" fill="#224"/>
        <path d="M1772.19156,583.57406c-4.22844,0-6.76509-2.63041-6.76509-6.389,0-3.75759,2.53665-6.388,6.76509-6.388,4.22741,0,6.76407,2.63042,6.76407,6.388C1778.95563,580.94365,1776.419,583.57406,1772.19156,583.57406Zm4.50972-6.48278c0-2.34812-1.69179-3.75759-4.50972-3.75759-2.819,0-4.50972,1.40947-4.50972,3.75759v.18854c0,2.34811,1.69076,3.75759,4.50972,3.75759,2.81793,0,4.50972-1.40948,4.50972-3.75759Z" fill="#224"/>
        <path d="M1765.615,568.452v-6.10672a3.75072,3.75072,0,0,1,3.57007-4.03989,3.21772,3.21772,0,0,1,3.32547,2.236c0-1.42782.67671-2.04848,1.861-2.04848h4.39659v2.53665h-3.75861c-.93863,0-1.22093.28231-1.22093,1.222v3.66383h4.97954V568.452Zm5.95589-5.35561c0-1.50324-.6757-2.25435-1.89765-2.25435-1.22094,0-1.80389.75111-1.80389,2.25435v2.819h3.70154Z" fill="#224"/>
      </g>
    </g>
  </g>
  <g id="imgs_2">
    <image width="1606" height="367" transform="translate(129.51207 139.74502)" xlink:href="finding_3_img.png"/>
  </g>
  <g id="PIG_ISLAND">
    <g id="Pig_numbers">
      <path d="M230.5613,849.42136c0-3.73926,1.71973-6.00977,4.67383-6.00977,2.95508,0,4.69043,2.27051,4.69043,6.00977s-1.68554,6.00977-4.69043,6.00977S230.5613,853.16062,230.5613,849.42136Zm4.75782,4.30664c1.585,0,2.63672-1.41894,2.63672-4.30664s-1.05176-4.30664-2.63672-4.30664h-.15039c-1.58594,0-2.6377,1.41894-2.6377,4.30664s1.05176,4.30664,2.6377,4.30664Z" fill="#34e0a1"/>
      <path d="M463.31326,852.10886H465.283a1.88319,1.88319,0,0,0,2.05372,1.61914h.167a1.8225,1.8225,0,0,0,2.03613-1.73535c0-1.085-.86816-1.71973-2.08691-1.71973h-.88477V848.5698h.835a1.8389,1.8389,0,0,0,2.07031-1.76953,1.746,1.746,0,0,0-1.91992-1.68555h-.167a1.83628,1.83628,0,0,0-1.90332,1.65234h-1.95313c.05079-1.95312,1.75293-3.35547,3.97364-3.35547,2.32031,0,3.93945,1.45313,3.93945,3.18848a2.87568,2.87568,0,0,0,.083,5.52539c0,2.03711-1.73535,3.30567-4.10645,3.30567C465.04959,855.43113,463.41384,854.16257,463.31326,852.10886Z" fill="#34e0a1"/>
      <path d="M699.7449,843.41159c2.73828,0,4.40723,2.03711,4.40723,5.626,0,3.82227-2.28711,6.39356-5.1084,6.39356a3.54937,3.54937,0,0,1-3.73926-3.1045h1.96973a1.67756,1.67756,0,0,0,1.78613,1.38477h.15039c1.51953,0,2.93848-1.35156,3.18848-4.17285a3.38347,3.38347,0,0,1-3.07129,1.71972,3.68288,3.68288,0,0,1-3.77246-3.83984A3.93378,3.93378,0,0,1,699.7449,843.41159Zm.0498,1.71973h-.14941a2.2139,2.2139,0,0,0,0,4.42383h.14941a2.21193,2.21193,0,1,0,0-4.42383Z" fill="#34e0a1"/>
      <g>
        <path d="M926.72146,855.26413v-8.88086l-2.60449,2.52051v-2.43652l2.97168-2.88867h1.53613v11.68554Z" fill="#34e0a1"/>
        <path d="M935.28689,843.41159c2.73828,0,4.40723,2.03711,4.40723,5.626,0,3.82227-2.28711,6.39356-5.1084,6.39356a3.54937,3.54937,0,0,1-3.73926-3.1045h1.96973a1.67756,1.67756,0,0,0,1.78613,1.38477h.15039c1.51953,0,2.93848-1.35156,3.18848-4.17285a3.38346,3.38346,0,0,1-3.07129,1.71972,3.68288,3.68288,0,0,1-3.77246-3.83984A3.93378,3.93378,0,0,1,935.28689,843.41159Zm.04981,1.71973h-.14942a2.2139,2.2139,0,0,0,0,4.42383h.14942a2.21193,2.21193,0,1,0,0-4.42383Z" fill="#34e0a1"/>
      </g>
      <g>
        <path d="M1155.68435,855.26413v-1.91992l3.88867-3.67187c1.23536-1.16895,2.07032-1.85352,2.07032-2.95508a1.6077,1.6077,0,0,0-1.73633-1.60254h-.167a1.93156,1.93156,0,0,0-1.95313,2.05371h-1.98633a3.70674,3.70674,0,0,1,4.00684-3.75684c2.20312,0,3.80566,1.26954,3.80566,3.22266,0,1.65234-1.00195,2.7207-2.4541,4.05566l-3.07129,2.8379h5.69238v1.73632Z" fill="#34e0a1"/>
        <path d="M1166.97048,855.26413v-.835c0-4.69043,1.85352-7.52832,4.08985-9.06445h-6.043v-1.78613h8.28027v1.73632c-2.63769,1.65235-4.29,4.39063-4.29,9.18165v.76757Z" fill="#34e0a1"/>
      </g>
      <g>
        <path d="M1386.825,852.10886h1.96972a1.88318,1.88318,0,0,0,2.05371,1.61914h.167a1.8225,1.8225,0,0,0,2.03613-1.73535c0-1.085-.86816-1.71973-2.08691-1.71973h-.88477V848.5698h.835a1.8389,1.8389,0,0,0,2.07031-1.76953,1.746,1.746,0,0,0-1.91992-1.68555h-.167a1.83628,1.83628,0,0,0-1.90332,1.65234h-1.95313c.05078-1.95312,1.75293-3.35547,3.97364-3.35547,2.32031,0,3.93945,1.45313,3.93945,3.18848a2.87568,2.87568,0,0,0,.083,5.52539c0,2.03711-1.73535,3.30567-4.10645,3.30567C1388.5613,855.43113,1386.92556,854.16257,1386.825,852.10886Z" fill="#34e0a1"/>
        <path d="M1396.84353,849.42136c0-3.73926,1.71973-6.00977,4.67383-6.00977,2.95508,0,4.69043,2.27051,4.69043,6.00977s-1.68555,6.00977-4.69043,6.00977S1396.84353,853.16062,1396.84353,849.42136Zm4.75781,4.30664c1.58594,0,2.63672-1.41894,2.63672-4.30664s-1.05078-4.30664-2.63672-4.30664h-.15039c-1.58593,0-2.63769,1.41894-2.63769,4.30664s1.05176,4.30664,2.63769,4.30664Z" fill="#34e0a1"/>
      </g>
      <g>
        <path d="M1619.78591,852.10886h1.96973a1.88318,1.88318,0,0,0,2.05371,1.61914h.167a1.82251,1.82251,0,0,0,2.03614-1.73535c0-1.085-.86817-1.71973-2.08692-1.71973h-.88476V848.5698h.835a1.8389,1.8389,0,0,0,2.07031-1.76953,1.746,1.746,0,0,0-1.91992-1.68555h-.167a1.83627,1.83627,0,0,0-1.90332,1.65234h-1.95313c.05078-1.95312,1.75293-3.35547,3.97363-3.35547,2.32032,0,3.93946,1.45313,3.93946,3.18848a2.87568,2.87568,0,0,0,.083,5.52539c0,2.03711-1.73535,3.30567-4.10644,3.30567C1621.52224,855.43113,1619.8865,854.16257,1619.78591,852.10886Z" fill="#34e0a1"/>
        <path d="M1630.05447,852.29245a2.7365,2.7365,0,0,1,1.96973-2.6875,3.08738,3.08738,0,0,1-2.20313-2.9707c0-1.73633,1.46875-3.22266,3.97266-3.22266,2.5205,0,3.99023,1.48633,3.99023,3.22266a3.087,3.087,0,0,1-2.2041,2.9707,2.73539,2.73539,0,0,1,1.96973,2.6875c0,1.73633-1.40137,3.13868-3.75586,3.13868C1631.44021,855.43113,1630.05447,854.02878,1630.05447,852.29245Zm1.73633-5.4082a1.82392,1.82392,0,0,0,1.91992,1.80273h.167a1.792,1.792,0,1,0,0-3.57226h-.167A1.8079,1.8079,0,0,0,1631.7908,846.88425Zm2.08691,3.50586h-.167a1.64473,1.64473,0,0,0-1.70313,1.68555,1.60807,1.60807,0,0,0,1.70313,1.65234h.167a1.61238,1.61238,0,0,0,1.71875-1.65234A1.64867,1.64867,0,0,0,1633.87771,850.39011Z" fill="#34e0a1"/>
      </g>
    </g>
    <g id="pic_rettangoli">
      <g id="Pig_rettangoli_2019">
        <rect x="1530.28675" y="429.35219" width="15.65679" height="15.65679" fill="none" stroke="#e33678" stroke-miterlimit="10" stroke-width="2"/>
        <rect x="1550.44159" y="429.35219" width="15.65679" height="15.65679" fill="none" stroke="#e33678" stroke-miterlimit="10" stroke-width="2"/>
        <rect x="1570.59643" y="429.35219" width="15.65679" height="15.65679" fill="none" stroke="#e33678" stroke-miterlimit="10" stroke-width="2"/>
        <rect x="1570.59643" y="449.71926" width="15.65679" height="15.65679" fill="none" stroke="#e33678" stroke-miterlimit="10" stroke-width="2"/>
        <rect x="1570.59643" y="470.08633" width="15.65679" height="15.65679" fill="none" stroke="#e33678" stroke-miterlimit="10" stroke-width="2"/>
        <rect x="1590.75127" y="429.35219" width="15.65679" height="15.65679" fill="none" stroke="#e33678" stroke-miterlimit="10" stroke-width="2"/>
        <rect x="1610.90612" y="429.35219" width="15.65679" height="15.65679" fill="none" stroke="#e33678" stroke-miterlimit="10" stroke-width="2"/>
        <rect x="1631.06096" y="429.35219" width="15.65679" height="15.65679" fill="none" stroke="#e33678" stroke-miterlimit="10" stroke-width="2"/>
        <rect x="1651.2158" y="429.35219" width="15.65679" height="15.65679" fill="none" stroke="#e33678" stroke-miterlimit="10" stroke-width="2"/>
        <rect x="1671.37064" y="429.35219" width="15.65679" height="15.65679" fill="none" stroke="#e33678" stroke-miterlimit="10" stroke-width="2"/>
        <rect x="1691.52549" y="429.35219" width="15.65679" height="15.65679" fill="none" stroke="#e33678" stroke-miterlimit="10" stroke-width="2"/>
        <rect x="1711.68033" y="429.35219" width="15.65679" height="15.65679" fill="none" stroke="#e33678" stroke-miterlimit="10" stroke-width="2"/>
        <rect x="1530.28675" y="449.71926" width="15.65679" height="15.65679" fill="none" stroke="#e33678" stroke-miterlimit="10" stroke-width="2"/>
        <rect x="1550.44159" y="449.71926" width="15.65679" height="15.65679" fill="none" stroke="#e33678" stroke-miterlimit="10" stroke-width="2"/>
        <rect x="1590.75127" y="449.71926" width="15.65679" height="15.65679" fill="none" stroke="#e33678" stroke-miterlimit="10" stroke-width="2"/>
        <rect x="1610.90612" y="449.71926" width="15.65679" height="15.65679" fill="none" stroke="#e33678" stroke-miterlimit="10" stroke-width="2"/>
        <rect x="1631.06096" y="449.71926" width="15.65679" height="15.65679" fill="none" stroke="#e33678" stroke-miterlimit="10" stroke-width="2"/>
        <rect x="1651.2158" y="449.71926" width="15.65679" height="15.65679" fill="none" stroke="#e33678" stroke-miterlimit="10" stroke-width="2"/>
        <rect x="1671.37064" y="449.71926" width="15.65679" height="15.65679" fill="none" stroke="#e33678" stroke-miterlimit="10" stroke-width="2"/>
        <rect x="1691.52549" y="449.71926" width="15.65679" height="15.65679" fill="none" stroke="#e33678" stroke-miterlimit="10" stroke-width="2"/>
        <rect x="1711.68033" y="449.71926" width="15.65679" height="15.65679" fill="none" stroke="#e33678" stroke-miterlimit="10" stroke-width="2"/>
        <rect x="1530.28675" y="470.08633" width="15.65679" height="15.65679" fill="none" stroke="#e33678" stroke-miterlimit="10" stroke-width="2"/>
        <rect x="1550.44159" y="470.08633" width="15.65679" height="15.65679" fill="none" stroke="#e33678" stroke-miterlimit="10" stroke-width="2"/>
        <rect x="1590.75127" y="470.08633" width="15.65679" height="15.65679" fill="none" stroke="#e33678" stroke-miterlimit="10" stroke-width="2"/>
        <rect x="1610.90612" y="470.08633" width="15.65679" height="15.65679" fill="none" stroke="#e33678" stroke-miterlimit="10" stroke-width="2"/>
        <rect x="1631.06096" y="470.08633" width="15.65679" height="15.65679" fill="none" stroke="#e33678" stroke-miterlimit="10" stroke-width="2"/>
        <rect x="1651.2158" y="470.08633" width="15.65679" height="15.65679" fill="none" stroke="#e33678" stroke-miterlimit="10" stroke-width="2"/>
        <rect x="1671.37064" y="470.08633" width="15.65679" height="15.65679" fill="none" stroke="#e33678" stroke-miterlimit="10" stroke-width="2"/>
        <rect x="1691.52549" y="470.08633" width="15.65679" height="15.65679" fill="none" stroke="#e33678" stroke-miterlimit="10" stroke-width="2"/>
        <rect x="1711.68033" y="470.08633" width="15.65679" height="15.65679" fill="none" stroke="#e33678" stroke-miterlimit="10" stroke-width="2"/>
        <rect x="1590.75127" y="490.45341" width="15.65679" height="15.65679" fill="none" stroke="#e33678" stroke-miterlimit="10" stroke-width="2"/>
        <rect x="1610.90612" y="490.45341" width="15.65679" height="15.65679" fill="none" stroke="#e33678" stroke-miterlimit="10" stroke-width="2"/>
        <rect x="1631.06096" y="490.45341" width="15.65679" height="15.65679" fill="none" stroke="#e33678" stroke-miterlimit="10" stroke-width="2"/>
        <rect x="1651.2158" y="490.45341" width="15.65679" height="15.65679" fill="none" stroke="#e33678" stroke-miterlimit="10" stroke-width="2"/>
        <rect x="1671.37064" y="490.45341" width="15.65679" height="15.65679" fill="none" stroke="#e33678" stroke-miterlimit="10" stroke-width="2"/>
        <rect x="1691.52549" y="490.45341" width="15.65679" height="15.65679" fill="none" stroke="#e33678" stroke-miterlimit="10" stroke-width="2"/>
        <rect x="1711.68033" y="490.45341" width="15.65679" height="15.65679" fill="none" stroke="#e33678" stroke-miterlimit="10" stroke-width="2"/>
      </g>
      <g id="Pig_rettangoli_2018">
        <rect x="1297.85534" y="470.07019" width="15.65679" height="15.65679" fill="none" stroke="#e33678" stroke-miterlimit="10" stroke-width="2"/>
        <rect x="1318.00923" y="470.07019" width="15.65679" height="15.65679" fill="none" stroke="#e33678" stroke-miterlimit="10" stroke-width="2"/>
        <rect x="1338.16313" y="470.07019" width="15.65679" height="15.65679" fill="none" stroke="#e33678" stroke-miterlimit="10" stroke-width="2"/>
        <rect x="1358.31702" y="470.07019" width="15.65679" height="15.65679" fill="none" stroke="#e33678" stroke-miterlimit="10" stroke-width="2"/>
        <rect x="1398.62481" y="470.07019" width="15.65679" height="15.65679" fill="none" stroke="#e33678" stroke-miterlimit="10" stroke-width="2"/>
        <rect x="1418.7787" y="470.07019" width="15.65679" height="15.65679" fill="none" stroke="#e33678" stroke-miterlimit="10" stroke-width="2"/>
        <rect x="1438.9326" y="470.07019" width="15.65679" height="15.65679" fill="none" stroke="#e33678" stroke-miterlimit="10" stroke-width="2"/>
        <rect x="1459.08649" y="470.07019" width="15.65679" height="15.65679" fill="none" stroke="#e33678" stroke-miterlimit="10" stroke-width="2"/>
        <rect x="1479.24038" y="470.07019" width="15.65679" height="15.65679" fill="none" stroke="#e33678" stroke-miterlimit="10" stroke-width="2"/>
        <rect x="1297.85534" y="449.71924" width="15.65679" height="15.65679" fill="none" stroke="#e33678" stroke-miterlimit="10" stroke-width="2"/>
        <rect x="1318.00923" y="449.71924" width="15.65679" height="15.65679" fill="none" stroke="#e33678" stroke-miterlimit="10" stroke-width="2"/>
        <rect x="1338.16313" y="449.71924" width="15.65679" height="15.65679" fill="none" stroke="#e33678" stroke-miterlimit="10" stroke-width="2"/>
        <rect x="1358.31702" y="449.71924" width="15.65679" height="15.65679" fill="none" stroke="#e33678" stroke-miterlimit="10" stroke-width="2"/>
        <rect x="1378.47092" y="449.71924" width="15.65679" height="15.65679" fill="none" stroke="#e33678" stroke-miterlimit="10" stroke-width="2"/>
        <rect x="1398.62481" y="449.71924" width="15.65679" height="15.65679" fill="none" stroke="#e33678" stroke-miterlimit="10" stroke-width="2"/>
        <rect x="1418.7787" y="449.71924" width="15.65679" height="15.65679" fill="none" stroke="#e33678" stroke-miterlimit="10" stroke-width="2"/>
        <rect x="1438.9326" y="449.71924" width="15.65679" height="15.65679" fill="none" stroke="#e33678" stroke-miterlimit="10" stroke-width="2"/>
        <rect x="1459.08649" y="449.71924" width="15.65679" height="15.65679" fill="none" stroke="#e33678" stroke-miterlimit="10" stroke-width="2"/>
        <rect x="1479.24038" y="449.71924" width="15.65679" height="15.65679" fill="none" stroke="#e33678" stroke-miterlimit="10" stroke-width="2"/>
        <rect x="1297.85534" y="429.35216" width="15.65679" height="15.65679" fill="none" stroke="#e33678" stroke-miterlimit="10" stroke-width="2"/>
        <rect x="1318.00923" y="429.35216" width="15.65679" height="15.65679" fill="none" stroke="#e33678" stroke-miterlimit="10" stroke-width="2"/>
        <rect x="1338.16313" y="429.35216" width="15.65679" height="15.65679" fill="none" stroke="#e33678" stroke-miterlimit="10" stroke-width="2"/>
        <rect x="1358.31702" y="429.35216" width="15.65679" height="15.65679" fill="none" stroke="#e33678" stroke-miterlimit="10" stroke-width="2"/>
        <rect x="1378.47092" y="429.35216" width="15.65679" height="15.65679" fill="none" stroke="#e33678" stroke-miterlimit="10" stroke-width="2"/>
        <rect x="1398.62481" y="429.35216" width="15.65679" height="15.65679" fill="none" stroke="#e33678" stroke-miterlimit="10" stroke-width="2"/>
        <rect x="1418.7787" y="429.35216" width="15.65679" height="15.65679" fill="none" stroke="#e33678" stroke-miterlimit="10" stroke-width="2"/>
        <rect x="1438.9326" y="429.35216" width="15.65679" height="15.65679" fill="none" stroke="#e33678" stroke-miterlimit="10" stroke-width="2"/>
        <rect x="1459.08649" y="429.35216" width="15.65679" height="15.65679" fill="none" stroke="#e33678" stroke-miterlimit="10" stroke-width="2"/>
        <rect x="1479.24038" y="429.35216" width="15.65679" height="15.65679" fill="none" stroke="#e33678" stroke-miterlimit="10" stroke-width="2"/>
        <rect x="1378.47092" y="470.07019" width="15.65679" height="15.65679" fill="none" stroke="#e33678" stroke-miterlimit="10" stroke-width="2"/>
      </g>
      <g id="pig_rettangoli_2017">
        <rect x="1166.5732" y="470.07021" width="15.65679" height="15.65679" fill="none" stroke="#e33678" stroke-miterlimit="10" stroke-width="2"/>
        <rect x="1186.72709" y="470.07021" width="15.65679" height="15.65679" fill="none" stroke="#e33678" stroke-miterlimit="10" stroke-width="2"/>
        <rect x="1206.88099" y="470.07021" width="15.65679" height="15.65679" fill="none" stroke="#e33678" stroke-miterlimit="10" stroke-width="2"/>
        <rect x="1227.03488" y="470.07021" width="15.65679" height="15.65679" fill="none" stroke="#e33678" stroke-miterlimit="10" stroke-width="2"/>
        <rect x="1247.18877" y="470.07021" width="15.65679" height="15.65679" fill="none" stroke="#e33678" stroke-miterlimit="10" stroke-width="2"/>
        <rect x="1247.18877" y="449.71845" width="15.65679" height="15.65679" fill="none" stroke="#e33678" stroke-miterlimit="10" stroke-width="2"/>
        <rect x="1247.18877" y="429.36668" width="15.65679" height="15.65679" fill="none" stroke="#e33678" stroke-miterlimit="10" stroke-width="2"/>
        <rect x="1227.03488" y="429.36668" width="15.65679" height="15.65679" fill="none" stroke="#e33678" stroke-miterlimit="10" stroke-width="2"/>
        <rect x="1206.88099" y="429.36668" width="15.65679" height="15.65679" fill="none" stroke="#e33678" stroke-miterlimit="10" stroke-width="2"/>
        <rect x="1186.72709" y="429.36668" width="15.65679" height="15.65679" fill="none" stroke="#e33678" stroke-miterlimit="10" stroke-width="2"/>
        <rect x="1166.5732" y="429.36668" width="15.65679" height="15.65679" fill="none" stroke="#e33678" stroke-miterlimit="10" stroke-width="2"/>
        <rect x="1146.41931" y="429.36668" width="15.65679" height="15.65679" fill="none" stroke="#e33678" stroke-miterlimit="10" stroke-width="2"/>
        <rect x="1126.26541" y="429.36668" width="15.65679" height="15.65679" fill="none" stroke="#e33678" stroke-miterlimit="10" stroke-width="2"/>
        <rect x="1106.11152" y="429.36668" width="15.65679" height="15.65679" fill="none" stroke="#e33678" stroke-miterlimit="10" stroke-width="2"/>
        <rect x="1085.95762" y="429.36668" width="15.65679" height="15.65679" fill="none" stroke="#e33678" stroke-miterlimit="10" stroke-width="2"/>
        <rect x="1065.80373" y="429.36668" width="15.65679" height="15.65679" fill="none" stroke="#e33678" stroke-miterlimit="10" stroke-width="2"/>
        <rect x="1065.80373" y="449.71845" width="15.65679" height="15.65679" fill="none" stroke="#e33678" stroke-miterlimit="10" stroke-width="2"/>
        <rect x="1085.95762" y="449.71845" width="15.65679" height="15.65679" fill="none" stroke="#e33678" stroke-miterlimit="10" stroke-width="2"/>
        <rect x="1106.11152" y="449.71845" width="15.65679" height="15.65679" fill="none" stroke="#e33678" stroke-miterlimit="10" stroke-width="2"/>
        <rect x="1126.26541" y="449.71845" width="15.65679" height="15.65679" fill="none" stroke="#e33678" stroke-miterlimit="10" stroke-width="2"/>
        <rect x="1146.41931" y="449.71845" width="15.65679" height="15.65679" fill="none" stroke="#e33678" stroke-miterlimit="10" stroke-width="2"/>
        <rect x="1166.5732" y="449.71845" width="15.65679" height="15.65679" fill="none" stroke="#e33678" stroke-miterlimit="10" stroke-width="2"/>
        <rect x="1186.72709" y="449.71845" width="15.65679" height="15.65679" fill="none" stroke="#e33678" stroke-miterlimit="10" stroke-width="2"/>
        <rect x="1206.88099" y="449.71845" width="15.65679" height="15.65679" fill="none" stroke="#e33678" stroke-miterlimit="10" stroke-width="2"/>
        <rect x="1227.03488" y="449.71845" width="15.65679" height="15.65679" fill="none" stroke="#e33678" stroke-miterlimit="10" stroke-width="2"/>
      </g>
      <g id="Pig_rettangoli_2016">
        <rect x="873.94547" y="449.71928" width="15.65679" height="15.65675" fill="none" stroke="#e33678" stroke-miterlimit="10" stroke-width="2"/>
        <rect x="894.09936" y="449.71928" width="15.65679" height="15.65675" fill="none" stroke="#e33678" stroke-miterlimit="10" stroke-width="2"/>
        <rect x="914.25325" y="449.71928" width="15.65679" height="15.65675" fill="none" stroke="#e33678" stroke-miterlimit="10" stroke-width="2"/>
        <rect x="934.40715" y="449.71928" width="15.65679" height="15.65675" fill="none" stroke="#e33678" stroke-miterlimit="10" stroke-width="2"/>
        <rect x="954.56104" y="449.71928" width="15.65679" height="15.65675" fill="none" stroke="#e33678" stroke-miterlimit="10" stroke-width="2"/>
        <rect x="974.71493" y="449.71928" width="15.65679" height="15.65675" fill="none" stroke="#e33678" stroke-miterlimit="10" stroke-width="2"/>
        <rect x="994.86883" y="449.71928" width="15.65679" height="15.65675" fill="none" stroke="#e33678" stroke-miterlimit="10" stroke-width="2"/>
        <rect x="1015.02272" y="449.71928" width="15.65679" height="15.65675" fill="none" stroke="#e33678" stroke-miterlimit="10" stroke-width="2"/>
        <rect x="873.94547" y="429.35221" width="15.65679" height="15.65675" fill="none" stroke="#e33678" stroke-miterlimit="10" stroke-width="2"/>
        <rect x="833.61779" y="429.35221" width="15.65679" height="15.65675" fill="none" stroke="#e33678" stroke-miterlimit="10" stroke-width="2"/>
        <rect x="853.77388" y="429.35221" width="15.65679" height="15.65675" fill="none" stroke="#e33678" stroke-miterlimit="10" stroke-width="2"/>
        <rect x="894.09936" y="429.35221" width="15.65679" height="15.65675" fill="none" stroke="#e33678" stroke-miterlimit="10" stroke-width="2"/>
        <rect x="914.25325" y="429.35221" width="15.65679" height="15.65675" fill="none" stroke="#e33678" stroke-miterlimit="10" stroke-width="2"/>
        <rect x="934.40715" y="429.35221" width="15.65679" height="15.65675" fill="none" stroke="#e33678" stroke-miterlimit="10" stroke-width="2"/>
        <rect x="954.56104" y="429.35221" width="15.65679" height="15.65675" fill="none" stroke="#e33678" stroke-miterlimit="10" stroke-width="2"/>
        <rect x="974.71493" y="429.35221" width="15.65679" height="15.65675" fill="none" stroke="#e33678" stroke-miterlimit="10" stroke-width="2"/>
        <rect x="994.86883" y="429.35221" width="15.65679" height="15.65675" fill="none" stroke="#e33678" stroke-miterlimit="10" stroke-width="2"/>
        <rect x="1015.02272" y="429.35221" width="15.65679" height="15.65675" fill="none" stroke="#e33678" stroke-miterlimit="10" stroke-width="2"/>
      </g>
      <g id="Pig_rettangoli_2015">
        <rect x="621.84242" y="429.35221" width="15.65679" height="15.65675" fill="none" stroke="#e33678" stroke-miterlimit="10" stroke-width="2"/>
        <rect x="641.95934" y="429.35221" width="15.65679" height="15.65675" fill="none" stroke="#e33678" stroke-miterlimit="10" stroke-width="2"/>
        <rect x="662.07625" y="429.35221" width="15.65679" height="15.65675" fill="none" stroke="#e33678" stroke-miterlimit="10" stroke-width="2"/>
        <rect x="682.19316" y="429.35221" width="15.65679" height="15.65675" fill="none" stroke="#e33678" stroke-miterlimit="10" stroke-width="2"/>
        <rect x="702.31007" y="429.35221" width="15.65679" height="15.65675" fill="none" stroke="#e33678" stroke-miterlimit="10" stroke-width="2"/>
        <rect x="722.42698" y="429.35221" width="15.65679" height="15.65675" fill="none" stroke="#e33678" stroke-miterlimit="10" stroke-width="2"/>
        <rect x="742.54389" y="429.35221" width="15.65679" height="15.65675" fill="none" stroke="#e33678" stroke-miterlimit="10" stroke-width="2"/>
        <rect x="762.6608" y="429.35221" width="15.65679" height="15.65675" fill="none" stroke="#e33678" stroke-miterlimit="10" stroke-width="2"/>
        <rect x="782.77771" y="429.35221" width="15.65679" height="15.65675" fill="none" stroke="#e33678" stroke-miterlimit="10" stroke-width="2"/>
      </g>
      <g id="Pig_rettangoli_2014">
        <rect x="550.33449" y="429.35221" width="15.65679" height="15.65675" fill="none" stroke="#e33678" stroke-miterlimit="10" stroke-width="2"/>
        <rect x="530.1971" y="429.35221" width="15.65679" height="15.65675" fill="none" stroke="#e33678" stroke-miterlimit="10" stroke-width="2"/>
        <rect x="510.05971" y="429.35221" width="15.65679" height="15.65675" fill="none" stroke="#e33678" stroke-miterlimit="10" stroke-width="2"/>
      </g>
    </g>
    <g id="Pig_Instagram_9">
      <rect x="512.65227" y="215.18105" width="60.60911" height="60.60911" fill="none" stroke="#e33678" stroke-miterlimit="10" stroke-width="3"/>
      <rect x="361.78095" y="290.61671" width="60.60911" height="60.60911" fill="none" stroke="#e33678" stroke-miterlimit="10" stroke-width="3"/>
      <rect x="437.21661" y="290.61671" width="60.60911" height="60.60911" fill="none" stroke="#e33678" stroke-miterlimit="10" stroke-width="3"/>
      <rect x="512.65227" y="290.61671" width="60.60911" height="60.60911" fill="none" stroke="#e33678" stroke-miterlimit="10" stroke-width="3"/>
      <rect x="280.37602" y="290.60897" width="60.62459" height="60.62459" fill="none" stroke="#e33678" stroke-miterlimit="10" stroke-width="3"/>
      <rect x="594.04744" y="215.17904" width="60.61314" height="60.61314" fill="none" stroke="#e33678" stroke-miterlimit="10" stroke-width="3"/>
      <rect x="669.4831" y="215.17904" width="60.61314" height="60.61314" fill="none" stroke="#e33678" stroke-miterlimit="10" stroke-width="3"/>
      <rect x="744.91876" y="215.17904" width="60.61314" height="60.61314" fill="none" stroke="#e33678" stroke-miterlimit="10" stroke-width="3"/>
      <rect x="594.04744" y="290.6147" width="60.61314" height="60.61314" fill="none" stroke="#e33678" stroke-miterlimit="10" stroke-width="3"/>
      <rect x="669.4831" y="290.6147" width="60.61314" height="60.61314" fill="none" stroke="#e33678" stroke-miterlimit="10" stroke-width="3"/>
      <rect x="744.91876" y="290.6147" width="60.61314" height="60.61314" fill="none" stroke="#e33678" stroke-miterlimit="10" stroke-width="3"/>
      <rect x="901.84249" y="139.83426" width="60.43138" height="60.43138" fill="none" stroke="#e33678" stroke-miterlimit="10" stroke-width="3"/>
      <rect x="977.14209" y="139.69819" width="60.70351" height="60.70351" fill="none" stroke="#e33678" stroke-miterlimit="10" stroke-width="3"/>
      <rect x="826.40683" y="215.26992" width="60.43138" height="60.43138" fill="none" stroke="#e33678" stroke-miterlimit="10" stroke-width="3"/>
      <rect x="901.84249" y="215.26992" width="60.43138" height="60.43138" fill="none" stroke="#e33678" stroke-miterlimit="10" stroke-width="3"/>
      <rect x="977.27815" y="215.26992" width="60.43138" height="60.43138" fill="none" stroke="#e33678" stroke-miterlimit="10" stroke-width="3"/>
      <rect x="826.40683" y="290.70558" width="60.43138" height="60.43138" fill="none" stroke="#e33678" stroke-miterlimit="10" stroke-width="3"/>
      <rect x="901.84249" y="290.70558" width="60.43138" height="60.43138" fill="none" stroke="#e33678" stroke-miterlimit="10" stroke-width="3"/>
      <rect x="977.27815" y="290.70558" width="60.43138" height="60.43138" fill="none" stroke="#e33678" stroke-miterlimit="10" stroke-width="3"/>
      <rect x="1058.67534" y="139.83426" width="60.43138" height="60.43138" fill="none" stroke="#e33678" stroke-miterlimit="10" stroke-width="3"/>
      <rect x="1134.111" y="139.83426" width="60.43138" height="60.43138" fill="none" stroke="#e33678" stroke-miterlimit="10" stroke-width="3"/>
      <rect x="1209.54666" y="139.83426" width="60.43138" height="60.43138" fill="none" stroke="#e33678" stroke-miterlimit="10" stroke-width="3"/>
      <rect x="1058.67534" y="215.26992" width="60.43138" height="60.43138" fill="none" stroke="#e33678" stroke-miterlimit="10" stroke-width="3"/>
      <rect x="1134.111" y="215.26992" width="60.43138" height="60.43138" fill="none" stroke="#e33678" stroke-miterlimit="10" stroke-width="3"/>
      <rect x="1209.54666" y="215.26992" width="60.43138" height="60.43138" fill="none" stroke="#e33678" stroke-miterlimit="10" stroke-width="3"/>
      <rect x="1058.67534" y="290.70558" width="60.43138" height="60.43138" fill="none" stroke="#e33678" stroke-miterlimit="10" stroke-width="3"/>
      <rect x="1134.111" y="290.70558" width="60.43138" height="60.43138" fill="none" stroke="#e33678" stroke-miterlimit="10" stroke-width="3"/>
      <rect x="1209.54666" y="290.70558" width="60.43138" height="60.43138" fill="none" stroke="#e33678" stroke-miterlimit="10" stroke-width="3"/>
      <rect x="1290.94385" y="139.83426" width="60.43138" height="60.43138" fill="none" stroke="#e33678" stroke-miterlimit="10" stroke-width="3"/>
      <rect x="1366.37951" y="139.83426" width="60.43138" height="60.43138" fill="none" stroke="#e33678" stroke-miterlimit="10" stroke-width="3"/>
      <rect x="1441.81517" y="139.83426" width="60.43138" height="60.43138" fill="none" stroke="#e33678" stroke-miterlimit="10" stroke-width="3"/>
      <rect x="1290.94385" y="215.26992" width="60.43138" height="60.43138" fill="none" stroke="#e33678" stroke-miterlimit="10" stroke-width="3"/>
      <rect x="1366.37951" y="215.26992" width="60.43138" height="60.43138" fill="none" stroke="#e33678" stroke-miterlimit="10" stroke-width="3"/>
      <rect x="1441.81517" y="215.26992" width="60.43138" height="60.43138" fill="none" stroke="#e33678" stroke-miterlimit="10" stroke-width="3"/>
      <rect x="1290.94385" y="290.70558" width="60.43138" height="60.43138" fill="none" stroke="#e33678" stroke-miterlimit="10" stroke-width="3"/>
      <rect x="1366.37951" y="290.70558" width="60.43138" height="60.43138" fill="none" stroke="#e33678" stroke-miterlimit="10" stroke-width="3"/>
      <rect x="1441.81517" y="290.70558" width="60.43138" height="60.43138" fill="none" stroke="#e33678" stroke-miterlimit="10" stroke-width="3"/>
      <rect x="1598.64802" y="139.83426" width="60.43138" height="60.43138" fill="none" stroke="#e33678" stroke-miterlimit="10" stroke-width="3"/>
      <rect x="1674.08368" y="139.83426" width="60.43138" height="60.43138" fill="none" stroke="#e33678" stroke-miterlimit="10" stroke-width="3"/>
      <rect x="1523.21236" y="215.26992" width="60.43138" height="60.43138" fill="none" stroke="#e33678" stroke-miterlimit="10" stroke-width="3"/>
      <rect x="1598.64802" y="215.26992" width="60.43138" height="60.43138" fill="none" stroke="#e33678" stroke-miterlimit="10" stroke-width="3"/>
      <rect x="1674.08368" y="215.26992" width="60.43138" height="60.43138" fill="none" stroke="#e33678" stroke-miterlimit="10" stroke-width="3"/>
      <rect x="1523.21236" y="290.70558" width="60.43138" height="60.43138" fill="none" stroke="#e33678" stroke-miterlimit="10" stroke-width="3"/>
      <rect x="1598.64802" y="290.70558" width="60.43138" height="60.43138" fill="none" stroke="#e33678" stroke-miterlimit="10" stroke-width="3"/>
      <rect x="1674.08368" y="290.70558" width="60.43138" height="60.43138" fill="none" stroke="#e33678" stroke-miterlimit="10" stroke-width="3"/>
    </g>
  </g>
</svg>
