<svg xmlns="http://www.w3.org/2000/svg" xmlns:xlink="http://www.w3.org/1999/xlink" viewBox="0 0 1920 1080">
  <g id="Background">
    <rect width="1920" height="1080" fill="#224"/>
  </g>
  <g id="elementi_base">
    <g id="anni">
      <g id="_2017" data-name="2017">
        <rect x="502.51094" y="371.79609" width="264.6638" height="51.88697" fill="#587ef9" stroke="#587ef9" stroke-miterlimit="10" stroke-width="2" opacity="0.3"/>
        <g>
          <path d="M611.54373,406.3862v-2.706l5.48144-5.17627c1.74121-1.647,2.918-2.61182,2.918-4.16455a2.2657,2.2657,0,0,0-2.44726-2.25879h-.23536a2.72117,2.72117,0,0,0-2.75293,2.894h-2.7998c.02344-3.27051,2.42383-5.29394,5.64746-5.29394,3.10547,0,5.36426,1.78808,5.36426,4.541,0,2.32959-1.41113,3.83545-3.459,5.71778l-4.3291,3.99951h8.02344v2.44726Z" fill="#587ef9"/>
          <path d="M624.88552,398.15085c0-5.27051,2.42383-8.47021,6.58789-8.47021,4.165,0,6.61133,3.1997,6.61133,8.47021s-2.376,8.47071-6.61133,8.47071S624.88552,403.42136,624.88552,398.15085Zm6.70606,6.0708c2.23437,0,3.7168-2,3.7168-6.0708,0-4.07031-1.48243-6.07031-3.7168-6.07031h-.21192c-2.23535,0-3.71777,2-3.71777,6.07031,0,4.0708,1.48242,6.0708,3.71777,6.0708Z" fill="#587ef9"/>
          <path d="M643.33377,406.3862V393.86863l-3.6709,3.55322V393.9863l4.18847-4.07031h2.16407V406.3862Z" fill="#587ef9"/>
          <path d="M650.93435,406.3862v-1.17627c0-6.61181,2.61231-10.61181,5.76465-12.77636h-8.51758V389.916h11.6709v2.44678c-3.71777,2.32959-6.04687,6.18847-6.04687,12.94091v1.08252Z" fill="#587ef9"/>
        </g>
      </g>
      <g id="_2018" data-name="2018">
        <rect x="793.46659" y="371.79609" width="264.6638" height="51.88697" fill="#587ef9" stroke="#587ef9" stroke-miterlimit="10" stroke-width="2" opacity="0.3"/>
        <g>
          <path d="M902.10037,406.3862v-2.706l5.48144-5.17627c1.74121-1.647,2.918-2.61182,2.918-4.16455a2.26569,2.26569,0,0,0-2.44726-2.25879h-.23536a2.72117,2.72117,0,0,0-2.75293,2.894h-2.7998c.02344-3.27051,2.42383-5.29394,5.64746-5.29394,3.10547,0,5.36426,1.78808,5.36426,4.541,0,2.32959-1.41113,3.83545-3.459,5.71778l-4.3291,3.99951h8.02344v2.44726Z" fill="#587ef9"/>
          <path d="M915.44216,398.15085c0-5.27051,2.42383-8.47021,6.58789-8.47021,4.165,0,6.61133,3.1997,6.61133,8.47021s-2.376,8.47071-6.61133,8.47071S915.44216,403.42136,915.44216,398.15085Zm6.70606,6.0708c2.23437,0,3.7168-2,3.7168-6.0708,0-4.07031-1.48243-6.07031-3.7168-6.07031h-.21192c-2.23535,0-3.71777,2-3.71777,6.07031,0,4.0708,1.48242,6.0708,3.71777,6.0708Z" fill="#587ef9"/>
          <path d="M933.89041,406.3862V393.86863l-3.6709,3.55322V393.9863L934.408,389.916h2.16407V406.3862Z" fill="#587ef9"/>
          <path d="M939.74978,402.19822a3.857,3.857,0,0,1,2.77637-3.78858,4.35184,4.35184,0,0,1-3.10547-4.188c0-2.44677,2.07031-4.541,5.59961-4.541,3.55273,0,5.624,2.09424,5.624,4.541a4.35149,4.35149,0,0,1-3.10644,4.188,3.85584,3.85584,0,0,1,2.77636,3.78858c0,2.44677-1.97656,4.42334-5.29394,4.42334S939.74978,404.645,939.74978,402.19822Zm2.44727-7.62354a2.57082,2.57082,0,0,0,2.70605,2.541h.23535a2.52581,2.52581,0,1,0,0-5.03516h-.23535A2.5482,2.5482,0,0,0,942.19705,394.57468Zm2.9414,4.94092h-.23535a2.31839,2.31839,0,0,0-2.40039,2.37646,2.2674,2.2674,0,0,0,2.40039,2.32959h.23535a2.27359,2.27359,0,0,0,2.42285-2.32959A2.324,2.324,0,0,0,945.13845,399.5156Z" fill="#587ef9"/>
        </g>
      </g>
      <g id="_2019" data-name="2019">
        <rect x="1084.42224" y="371.79609" width="264.6638" height="51.88697" fill="#587ef9" stroke="#587ef9" stroke-miterlimit="10" stroke-width="2" opacity="0.3"/>
        <g>
          <path d="M1192.53787,406.3862v-2.706l5.48144-5.17627c1.74121-1.647,2.918-2.61182,2.918-4.16455a2.26569,2.26569,0,0,0-2.44726-2.25879h-.23536a2.72117,2.72117,0,0,0-2.75293,2.894h-2.7998c.02344-3.27051,2.42383-5.29394,5.64746-5.29394,3.10547,0,5.36426,1.78808,5.36426,4.541,0,2.32959-1.41113,3.83545-3.459,5.71778l-4.3291,3.99951h8.02344v2.44726Z" fill="#587ef9"/>
          <path d="M1205.87966,398.15085c0-5.27051,2.42383-8.47021,6.58789-8.47021,4.165,0,6.61133,3.1997,6.61133,8.47021s-2.376,8.47071-6.61133,8.47071S1205.87966,403.42136,1205.87966,398.15085Zm6.70606,6.0708c2.23437,0,3.7168-2,3.7168-6.0708,0-4.07031-1.48243-6.07031-3.7168-6.07031h-.21192c-2.23535,0-3.71777,2-3.71777,6.07031,0,4.0708,1.48242,6.0708,3.71777,6.0708Z" fill="#587ef9"/>
          <path d="M1224.32791,406.3862V393.86863l-3.6709,3.55322V393.9863l4.18847-4.07031h2.16407V406.3862Z" fill="#587ef9"/>
          <path d="M1235.92849,389.68064c3.85938,0,6.21192,2.8706,6.21192,7.9292,0,5.38818-3.22364,9.01172-7.2002,9.01172a5.00225,5.00225,0,0,1-5.27051-4.37647h2.77637a2.365,2.365,0,0,0,2.51758,1.95313h.21191c2.1416,0,4.1416-1.90625,4.49414-5.88233a4.76848,4.76848,0,0,1-4.3291,2.42334,5.1906,5.1906,0,0,1-5.31738-5.41162A5.5446,5.5446,0,0,1,1235.92849,389.68064Zm.07031,2.42334h-.21093a3.12048,3.12048,0,0,0,0,6.23535h.21093a3.1177,3.1177,0,1,0,0-6.23535Z" fill="#587ef9"/>
        </g>
      </g>
    </g>
    <g id="rettangoli">
      <g id="rettangoli-2" data-name="rettangoli">
        <rect x="1084.42224" y="442.28904" width="264.6638" height="497.76806" fill="none" stroke="#34e0a1" stroke-miterlimit="10" stroke-width="2"/>
      </g>
      <g id="rettangoli-3" data-name="rettangoli">
        <rect x="502.51094" y="442.28904" width="264.6638" height="497.76806" fill="none" stroke="#34e0a1" stroke-miterlimit="10" stroke-width="2"/>
      </g>
      <g id="rettangoli-4" data-name="rettangoli">
        <rect x="793.46659" y="442.28904" width="264.6638" height="497.76806" fill="none" stroke="#34e0a1" stroke-miterlimit="10" stroke-width="2"/>
      </g>
    </g>
    <g id="instagram">
      <rect x="1374.34292" y="88.5263" width="43.91442" height="264.6638" fill="#c22eff"/>
      <g>
        <path d="M1388.06252,291.04756v-3.248H1404.539v3.248Z" fill="#224"/>
        <path d="M1392.41719,280.60786H1404.539v3.248h-16.47651V279.6461l12.0746-6.61746h-12.0746v-3.248H1404.539v4.21111Z" fill="#224"/>
        <path d="M1390.65158,259.89811v.24011c0,1.80476.94089,2.88788,2.00051,2.88788,1.08261,0,1.57667-.60158,1.86009-2.04487l.49407-2.52641c.56428-2.88788,2.02349-4.66785,4.707-4.66785,2.82524,0,5.06066,2.30978,5.06066,6.47261,0,4.61957-2.35287,6.73622-5.76665,6.85628V263.8678c1.64816-.12,2.94269-1.32323,2.94269-3.84964v-.24011c0-1.80476-.94217-2.743-2.00052-2.743-.94217,0-1.50645.40845-1.81285,1.90133l-.61151,3.00663c-.6128,3.00794-2.30692,4.33117-4.75554,4.33117-2.47161,0-4.94321-2.238-4.94321-6.376,0-4.08975,2.28393-6.376,5.41429-6.376v3.248C1391.52225,256.89017,1390.65158,258.16642,1390.65158,259.89811Z" fill="#224"/>
        <path d="M1390.88648,246.69319v5.82275h-2.824v-14.917h2.824v5.84623H1404.539v3.248Z" fill="#224"/>
        <path d="M1400.65544,227.11223v7.0729l3.88359,1.51636v3.4164l-16.47651-6.66445v-3.80135L1404.539,222.156v3.43988Zm-9.063,3.53645,6.23774,2.42984v-4.85968Z" fill="#224"/>
        <path d="M1402.9381,208.63918a6.13118,6.13118,0,0,1,1.83583,4.57129c0,5.05281-3.6474,8.30086-8.47316,8.30086s-8.47443-3.248-8.47443-8.30086c0-4.33117,2.4716-6.97764,5.88538-7.21906v3.24805c-1.76562.24142-3.06014,1.4446-3.06014,3.84964v.24142c0,3.128,2.23542,4.93276,5.64919,4.93276,3.4125,0,5.6492-1.80476,5.6492-4.93276v-.24142a4.39778,4.39778,0,0,0-3.17759-4.4982v4.61957h-2.82524v-5.29424a1.82123,1.82123,0,0,1,2.0018-2.04487h6.59009v2.76782Z" fill="#224"/>
        <path d="M1388.06252,202.62853v-7.81934c0-2.88788,1.88306-5.17287,4.47212-5.17287a4.03378,4.03378,0,0,1,4.16573,2.86309c0-1.82826.8477-2.623,2.33117-2.623h5.50749v3.24805h-4.7083c-1.1758,0-1.52944.36148-1.52944,1.56465v4.69134h6.23774v3.24806Zm7.46077-6.85758c0-1.92482-.84642-2.88658-2.37713-2.88658-1.52943,0-2.25968.96176-2.25968,2.88658v3.60952h4.63681Z" fill="#224"/>
        <path d="M1400.65544,176.14431v7.0729l3.88359,1.51636V188.15l-16.47651-6.66445v-3.80135l16.47651-6.49611V174.628Zm-9.063,3.53645,6.23774,2.42984v-4.85968Z" fill="#224"/>
        <path d="M1391.52225,165.89905H1404.539v3.17628h-16.47651v-5.05281l12.94528-4.23461-12.94528-4.08975v-5.02933H1404.539v3.17628h-12.9938l12.9938,4.18632v3.56125Z" fill="#224"/>
      </g>
    </g>
    <g id="tripadvisor">
      <rect x="1374.34292" y="442.28904" width="43.91442" height="497.76806" fill="#34e0a1"/>
      <g>
        <path d="M1390.88648,763.93093v5.69643h-2.824V755.03392h2.824v5.71941H1404.539v3.1776Z" fill="#224"/>
        <path d="M1388.06252,752.68487v-7.64971c0-2.82524,1.88306-5.06066,4.47212-5.06066a4.03076,4.03076,0,0,1,4.16573,2.801c0-1.7886.8477-2.56608,2.33117-2.56608h5.50749v3.1776h-4.7083c-1.1758,0-1.52944.35363-1.52944,1.5307v4.58958h6.23774v3.17759Zm7.46077-6.70882c0-1.88306-.84642-2.824-2.37713-2.824-1.52943,0-2.25968.9409-2.25968,2.824v3.53123h4.63681Z" fill="#224"/>
        <path d="M1388.06252,736.63732v-3.1776H1404.539v3.1776Z" fill="#224"/>
        <path d="M1388.06252,729.60167v-7.41481c0-3.17759,1.88306-5.29557,5.17811-5.29557s5.20237,2.118,5.20237,5.29557v4.23722h6.096v3.17759Zm7.55524-7.06118a2.36791,2.36791,0,1,0-4.73128,0v3.88359h4.73128Z" fill="#224"/>
        <path d="M1400.65544,705.644v6.91947l3.88359,1.48348v3.34228l-16.47651-6.51988v-3.71889l16.47651-6.35519v3.36526Zm-9.063,3.45974,6.23774,2.37713v-4.75426Z" fill="#224"/>
        <path d="M1388.06252,698.72832v-5.6492c0-4.94321,2.824-8.3557,8.23825-8.3557s8.23826,3.295,8.23826,8.23825v5.76665Zm13.65255-5.413c0-3.17887-1.29581-5.41429-5.4143-5.41429-4.11976,0-5.41429,2.23542-5.41429,5.41429v2.23543h10.82859Z" fill="#224"/>
        <path d="M1404.539,677.78479l-16.47651,6.308v-3.55421l13.13423-4.87172-13.13423-4.684v-3.484L1404.539,673.665Z" fill="#224"/>
        <path d="M1388.06252,665.4089v-3.1776H1404.539v3.1776Z" fill="#224"/>
        <path d="M1390.65158,652.55937v.2349c0,1.76561.94089,2.82524,2.00051,2.82524,1.08261,0,1.57667-.58854,1.86009-2.00052l.49407-2.4716c.56428-2.82524,2.02349-4.5666,4.707-4.5666,2.82524,0,5.06066,2.25968,5.06066,6.33221,0,4.51936-2.35287,6.59009-5.76665,6.70755V656.443c1.64816-.11745,2.94269-1.29453,2.94269-3.76613v-.23491c0-1.76561-.94217-2.68353-2.00052-2.68353-.94217,0-1.50645.3996-1.81285,1.86009l-.61151,2.94141c-.6128,2.94269-2.30692,4.23722-4.75554,4.23722-2.47161,0-4.94321-2.18946-4.94321-6.23773,0-4.001,2.28393-6.23774,5.41429-6.23774v3.17759A2.73489,2.73489,0,0,0,1390.65158,652.55937Z" fill="#224"/>
        <path d="M1396.30077,644.37218c-5.29684,0-8.47443-3.295-8.47443-8.00335,0-4.707,3.17759-8.00208,8.47443-8.00208,5.29557,0,8.47316,3.295,8.47316,8.00208C1404.77393,641.07713,1401.59634,644.37218,1396.30077,644.37218Zm5.6492-8.12081c0-2.94141-2.11924-4.707-5.6492-4.707-3.53122,0-5.64919,1.76561-5.64919,4.707v.23618c0,2.94142,2.118,4.707,5.64919,4.707,3.53,0,5.6492-1.76561,5.6492-4.707Z" fill="#224"/>
        <path d="M1388.06252,625.42917v-7.64972c0-2.82524,1.88306-5.06066,4.47212-5.06066a4.03076,4.03076,0,0,1,4.16573,2.801c0-1.78859.8477-2.56608,2.33117-2.56608h5.50749v3.1776h-4.7083c-1.1758,0-1.52944.35363-1.52944,1.53071v4.58957h6.23774v3.1776Zm7.46077-6.70883c0-1.88306-.84642-2.824-2.37713-2.824-1.52943,0-2.25968.9409-2.25968,2.824v3.53123h4.63681Z" fill="#224"/>
      </g>
    </g>
  </g>
  <g id="Livello_61" data-name="Livello 61">
    <image width="848" height="842" transform="translate(502.5135 88.5263)" xlink:href="finding_2_img.png"/>
  </g>
  <g id="LEMPUYANG">
    <g id="lempuyang_temple_numbers">
      <g>
        <path d="M1203.10623,984.71238V973.58347l-3.26368,3.1582V973.688l3.72364-3.61914h1.9248v14.64356Z" fill="#34e0a1"/>
        <path d="M1213.8367,969.85886c3.43066,0,5.52343,2.55273,5.52343,7.05078,0,4.79-2.86621,8.01172-6.40234,8.01172a4.4468,4.4468,0,0,1-4.68555-3.89063h2.46875a2.102,2.102,0,0,0,2.23828,1.73633h.18848c1.90332,0,3.68164-1.69433,3.99512-5.23047a4.2401,4.2401,0,0,1-3.84864,2.15528,4.616,4.616,0,0,1-4.72851-4.81153A4.93026,4.93026,0,0,1,1213.8367,969.85886Zm.0625,2.15527h-.1875a2.77445,2.77445,0,0,0,0,5.54395h.1875a2.772,2.772,0,1,0,0-5.54395Z" fill="#34e0a1"/>
        <path d="M1221.534,977.39011c0-4.68555,2.1543-7.53125,5.85742-7.53125s5.87891,2.8457,5.87891,7.53125c0,4.68652-2.11328,7.53125-5.87891,7.53125S1221.534,982.07663,1221.534,977.39011Zm5.96192,5.39746c1.9873,0,3.30566-1.77832,3.30566-5.39746s-1.31836-5.39746-3.30566-5.39746h-.18848c-1.98731,0-3.30469,1.77832-3.30469,5.39746s1.31738,5.39746,3.30469,5.39746Z" fill="#34e0a1"/>
      </g>
      <g>
        <path d="M627.95,984.71335v-1.0459c0-5.8789,2.32226-9.43457,5.126-11.35937h-7.57324V970.0698h10.376v2.17578c-3.30469,2.07031-5.376,5.50195-5.376,11.50586v.96191Z" fill="#34e0a1"/>
        <path d="M640.45877,984.71335v-11.1289l-3.26368,3.1582v-3.05371l3.72364-3.61914h1.9248v14.64355Z" fill="#34e0a1"/>
      </g>
      <g>
        <path d="M912.96463,984.71335v-11.1289l-3.26368,3.1582v-3.05371l3.72364-3.61914h1.9248v14.64355Z" fill="#34e0a1"/>
        <path d="M917.87966,980.71726h2.46875a2.58151,2.58151,0,0,0,2.78223,2.07129h.14649a2.51967,2.51967,0,0,0,2.65625-2.63574,2.41645,2.41645,0,0,0-2.59375-2.46875h-.167a3.17657,3.17657,0,0,0-2.46875,1.19238h-2.32226l1.79883-8.80664h8.07519v2.17578h-6.23437l-.89942,4.30859a4.09614,4.09614,0,0,1,2.69922-1.0039,4.36157,4.36157,0,0,1,4.58106,4.498c0,2.88672-2.11231,4.874-5.209,4.874C920.30642,984.92234,918.13064,983.312,917.87966,980.71726Z" fill="#34e0a1"/>
        <path d="M936.09841,984.92234c-3.43066,0-5.52246-2.55176-5.52246-7.04981,0-4.791,2.86621-8.01269,6.40137-8.01269a4.44852,4.44852,0,0,1,4.68652,3.8916h-2.46875a2.10263,2.10263,0,0,0-2.23828-1.73633h-.18847c-1.9043,0-3.68164,1.69434-3.9961,5.22949a4.23979,4.23979,0,0,1,3.84961-2.15429,4.61464,4.61464,0,0,1,4.72754,4.81152A4.92952,4.92952,0,0,1,936.09841,984.92234Zm-.0625-2.1543h.18848a2.7745,2.7745,0,0,0,0-5.54395h-.18848a2.772,2.772,0,1,0,0,5.54395Z" fill="#34e0a1"/>
      </g>
    </g>
    <g id="lempuyang_rettangoli">
      <g id="lempuyang_rettangoli_2019">
        <rect x="1093.41145" y="451.18276" width="19.56952" height="19.61277" fill="none" stroke="#e33678" stroke-miterlimit="10" stroke-width="2"/>
        <rect x="1093.41145" y="476.67196" width="19.56952" height="19.61277" fill="none" stroke="#e33678" stroke-miterlimit="10" stroke-width="2"/>
        <rect x="1093.41145" y="502.16117" width="19.56952" height="19.61277" fill="none" stroke="#e33678" stroke-miterlimit="10" stroke-width="2"/>
        <rect x="1093.41145" y="527.65037" width="19.56952" height="19.61277" fill="none" stroke="#e33678" stroke-miterlimit="10" stroke-width="2"/>
        <rect x="1093.41145" y="553.13957" width="19.56952" height="19.61277" fill="none" stroke="#e33678" stroke-miterlimit="10" stroke-width="2"/>
        <rect x="1118.64654" y="451.18276" width="19.56952" height="19.61277" fill="none" stroke="#e33678" stroke-miterlimit="10" stroke-width="2"/>
        <rect x="1118.64654" y="476.67196" width="19.56952" height="19.61277" fill="none" stroke="#e33678" stroke-miterlimit="10" stroke-width="2"/>
        <rect x="1118.64654" y="502.16117" width="19.56952" height="19.61277" fill="none" stroke="#e33678" stroke-miterlimit="10" stroke-width="2"/>
        <rect x="1118.64654" y="527.65037" width="19.56952" height="19.61277" fill="none" stroke="#e33678" stroke-miterlimit="10" stroke-width="2"/>
        <rect x="1118.64654" y="553.13957" width="19.56952" height="19.61277" fill="none" stroke="#e33678" stroke-miterlimit="10" stroke-width="2"/>
        <rect x="1143.88164" y="451.18276" width="19.56952" height="19.61277" fill="none" stroke="#e33678" stroke-miterlimit="10" stroke-width="2"/>
        <rect x="1143.88164" y="476.67196" width="19.56952" height="19.61277" fill="none" stroke="#e33678" stroke-miterlimit="10" stroke-width="2"/>
        <rect x="1143.88164" y="527.65037" width="19.56952" height="19.61277" fill="none" stroke="#e33678" stroke-miterlimit="10" stroke-width="2"/>
        <rect x="1143.88164" y="553.13957" width="19.56952" height="19.61277" fill="none" stroke="#e33678" stroke-miterlimit="10" stroke-width="2"/>
        <rect x="1169.11674" y="451.18276" width="19.56952" height="19.61277" fill="none" stroke="#e33678" stroke-miterlimit="10" stroke-width="2"/>
        <rect x="1169.11674" y="476.67196" width="19.56952" height="19.61277" fill="none" stroke="#e33678" stroke-miterlimit="10" stroke-width="2"/>
        <rect x="1169.11674" y="502.16117" width="19.56952" height="19.61277" fill="none" stroke="#e33678" stroke-miterlimit="10" stroke-width="2"/>
        <rect x="1169.11674" y="527.65037" width="19.56952" height="19.61277" fill="none" stroke="#e33678" stroke-miterlimit="10" stroke-width="2"/>
        <rect x="1169.11674" y="553.13957" width="19.56952" height="19.61277" fill="none" stroke="#e33678" stroke-miterlimit="10" stroke-width="2"/>
        <rect x="1194.35183" y="451.18276" width="19.56952" height="19.61277" fill="none" stroke="#e33678" stroke-miterlimit="10" stroke-width="2"/>
        <rect x="1194.35183" y="476.67196" width="19.56952" height="19.61277" fill="none" stroke="#e33678" stroke-miterlimit="10" stroke-width="2"/>
        <rect x="1194.35183" y="502.16117" width="19.56952" height="19.61277" fill="none" stroke="#e33678" stroke-miterlimit="10" stroke-width="2"/>
        <rect x="1194.35183" y="527.65037" width="19.56952" height="19.61277" fill="none" stroke="#e33678" stroke-miterlimit="10" stroke-width="2"/>
        <rect x="1194.35183" y="553.13957" width="19.56952" height="19.61277" fill="none" stroke="#e33678" stroke-miterlimit="10" stroke-width="2"/>
        <rect x="1219.58693" y="451.18276" width="19.56952" height="19.61277" fill="none" stroke="#e33678" stroke-miterlimit="10" stroke-width="2"/>
        <rect x="1219.58693" y="476.67196" width="19.56952" height="19.61277" fill="none" stroke="#e33678" stroke-miterlimit="10" stroke-width="2"/>
        <rect x="1219.58693" y="502.16117" width="19.56952" height="19.61277" fill="none" stroke="#e33678" stroke-miterlimit="10" stroke-width="2"/>
        <rect x="1219.58693" y="527.65037" width="19.56952" height="19.61277" fill="none" stroke="#e33678" stroke-miterlimit="10" stroke-width="2"/>
        <rect x="1219.58693" y="553.13957" width="19.56952" height="19.61277" fill="none" stroke="#e33678" stroke-miterlimit="10" stroke-width="2"/>
        <rect x="1244.82202" y="451.18276" width="19.56952" height="19.61277" fill="none" stroke="#e33678" stroke-miterlimit="10" stroke-width="2"/>
        <rect x="1244.82202" y="476.67196" width="19.56952" height="19.61277" fill="none" stroke="#e33678" stroke-miterlimit="10" stroke-width="2"/>
        <rect x="1244.82202" y="502.16117" width="19.56952" height="19.61277" fill="none" stroke="#e33678" stroke-miterlimit="10" stroke-width="2"/>
        <rect x="1244.82202" y="527.65037" width="19.56952" height="19.61277" fill="none" stroke="#e33678" stroke-miterlimit="10" stroke-width="2"/>
        <rect x="1244.82202" y="553.13957" width="19.56952" height="19.61277" fill="none" stroke="#e33678" stroke-miterlimit="10" stroke-width="2"/>
        <rect x="1270.05712" y="451.18276" width="19.56952" height="19.61277" fill="none" stroke="#e33678" stroke-miterlimit="10" stroke-width="2"/>
        <rect x="1270.05712" y="476.67196" width="19.56952" height="19.61277" fill="none" stroke="#e33678" stroke-miterlimit="10" stroke-width="2"/>
        <rect x="1270.05712" y="502.16117" width="19.56952" height="19.61277" fill="none" stroke="#e33678" stroke-miterlimit="10" stroke-width="2"/>
        <rect x="1270.05712" y="527.65037" width="19.56952" height="19.61277" fill="none" stroke="#e33678" stroke-miterlimit="10" stroke-width="2"/>
        <rect x="1270.05712" y="553.13957" width="19.56952" height="19.61277" fill="none" stroke="#e33678" stroke-miterlimit="10" stroke-width="2"/>
        <rect x="1295.29221" y="451.18276" width="19.56952" height="19.61277" fill="none" stroke="#e33678" stroke-miterlimit="10" stroke-width="2"/>
        <rect x="1295.29221" y="476.67196" width="19.56952" height="19.61277" fill="none" stroke="#e33678" stroke-miterlimit="10" stroke-width="2"/>
        <rect x="1295.29221" y="502.16117" width="19.56952" height="19.61277" fill="none" stroke="#e33678" stroke-miterlimit="10" stroke-width="2"/>
        <rect x="1295.29221" y="527.65037" width="19.56952" height="19.61277" fill="none" stroke="#e33678" stroke-miterlimit="10" stroke-width="2"/>
        <rect x="1295.29221" y="553.13957" width="19.56952" height="19.61277" fill="none" stroke="#e33678" stroke-miterlimit="10" stroke-width="2"/>
        <rect x="1320.52731" y="451.18276" width="19.56952" height="19.61277" fill="none" stroke="#e33678" stroke-miterlimit="10" stroke-width="2"/>
        <rect x="1320.52731" y="476.67196" width="19.56952" height="19.61277" fill="none" stroke="#e33678" stroke-miterlimit="10" stroke-width="2"/>
        <rect x="1320.52731" y="502.16117" width="19.56952" height="19.61277" fill="none" stroke="#e33678" stroke-miterlimit="10" stroke-width="2"/>
        <rect x="1320.52731" y="527.65037" width="19.56952" height="19.61277" fill="none" stroke="#e33678" stroke-miterlimit="10" stroke-width="2"/>
        <rect x="1320.52731" y="553.13957" width="19.56952" height="19.61277" fill="none" stroke="#e33678" stroke-miterlimit="10" stroke-width="2"/>
        <rect x="1320.52731" y="578.62878" width="19.56952" height="19.61277" fill="none" stroke="#e33678" stroke-miterlimit="10" stroke-width="2"/>
        <rect x="1093.41145" y="604.11798" width="19.56952" height="19.61277" fill="none" stroke="#e33678" stroke-miterlimit="10" stroke-width="2"/>
        <rect x="1118.64654" y="604.11798" width="19.56952" height="19.61277" fill="none" stroke="#e33678" stroke-miterlimit="10" stroke-width="2"/>
        <rect x="1143.88164" y="604.11798" width="19.56952" height="19.61277" fill="none" stroke="#e33678" stroke-miterlimit="10" stroke-width="2"/>
        <rect x="1169.11674" y="604.11798" width="19.56952" height="19.61277" fill="none" stroke="#e33678" stroke-miterlimit="10" stroke-width="2"/>
        <rect x="1194.35183" y="604.11798" width="19.56952" height="19.61277" fill="none" stroke="#e33678" stroke-miterlimit="10" stroke-width="2"/>
        <rect x="1219.58693" y="604.11798" width="19.56952" height="19.61277" fill="none" stroke="#e33678" stroke-miterlimit="10" stroke-width="2"/>
        <rect x="1244.82202" y="604.11798" width="19.56952" height="19.61277" fill="none" stroke="#e33678" stroke-miterlimit="10" stroke-width="2"/>
        <rect x="1270.05712" y="604.11798" width="19.56952" height="19.61277" fill="none" stroke="#e33678" stroke-miterlimit="10" stroke-width="2"/>
        <rect x="1295.29221" y="604.11798" width="19.56952" height="19.61277" fill="none" stroke="#e33678" stroke-miterlimit="10" stroke-width="2"/>
        <rect x="1320.52731" y="604.11798" width="19.56952" height="19.61277" fill="none" stroke="#e33678" stroke-miterlimit="10" stroke-width="2"/>
        <rect x="1093.41145" y="629.60719" width="19.56952" height="19.61277" fill="none" stroke="#e33678" stroke-miterlimit="10" stroke-width="2"/>
        <rect x="1118.64654" y="629.60719" width="19.56952" height="19.61277" fill="none" stroke="#e33678" stroke-miterlimit="10" stroke-width="2"/>
        <rect x="1143.88164" y="629.60719" width="19.56952" height="19.61277" fill="none" stroke="#e33678" stroke-miterlimit="10" stroke-width="2"/>
        <rect x="1169.11674" y="629.60719" width="19.56952" height="19.61277" fill="none" stroke="#e33678" stroke-miterlimit="10" stroke-width="2"/>
        <rect x="1194.35183" y="629.60719" width="19.56952" height="19.61277" fill="none" stroke="#e33678" stroke-miterlimit="10" stroke-width="2"/>
        <rect x="1219.58693" y="629.60719" width="19.56952" height="19.61277" fill="none" stroke="#e33678" stroke-miterlimit="10" stroke-width="2"/>
        <rect x="1244.82202" y="629.60719" width="19.56952" height="19.61277" fill="none" stroke="#e33678" stroke-miterlimit="10" stroke-width="2"/>
        <rect x="1270.05712" y="629.60719" width="19.56952" height="19.61277" fill="none" stroke="#e33678" stroke-miterlimit="10" stroke-width="2"/>
        <rect x="1295.29221" y="629.60719" width="19.56952" height="19.61277" fill="none" stroke="#e33678" stroke-miterlimit="10" stroke-width="2"/>
        <rect x="1320.52731" y="629.60719" width="19.56952" height="19.61277" fill="none" stroke="#e33678" stroke-miterlimit="10" stroke-width="2"/>
        <rect x="1093.41145" y="655.09641" width="19.56952" height="19.61277" fill="none" stroke="#e33678" stroke-miterlimit="10" stroke-width="2"/>
        <rect x="1118.64654" y="655.09641" width="19.56952" height="19.61277" fill="none" stroke="#e33678" stroke-miterlimit="10" stroke-width="2"/>
        <rect x="1143.88164" y="655.09641" width="19.56952" height="19.61277" fill="none" stroke="#e33678" stroke-miterlimit="10" stroke-width="2"/>
        <rect x="1169.11674" y="655.09641" width="19.56952" height="19.61277" fill="none" stroke="#e33678" stroke-miterlimit="10" stroke-width="2"/>
        <rect x="1194.35183" y="655.09641" width="19.56952" height="19.61277" fill="none" stroke="#e33678" stroke-miterlimit="10" stroke-width="2"/>
        <rect x="1219.58693" y="655.09641" width="19.56952" height="19.61277" fill="none" stroke="#e33678" stroke-miterlimit="10" stroke-width="2"/>
        <rect x="1244.82202" y="655.09641" width="19.56952" height="19.61277" fill="none" stroke="#e33678" stroke-miterlimit="10" stroke-width="2"/>
        <rect x="1270.05712" y="655.09641" width="19.56952" height="19.61277" fill="none" stroke="#e33678" stroke-miterlimit="10" stroke-width="2"/>
        <rect x="1295.29221" y="655.09641" width="19.56952" height="19.61277" fill="none" stroke="#e33678" stroke-miterlimit="10" stroke-width="2"/>
        <rect x="1320.52731" y="655.09641" width="19.56952" height="19.61277" fill="none" stroke="#e33678" stroke-miterlimit="10" stroke-width="2"/>
        <rect x="1093.41145" y="680.58559" width="19.56952" height="19.61277" fill="none" stroke="#e33678" stroke-miterlimit="10" stroke-width="2"/>
        <rect x="1118.64654" y="680.58559" width="19.56952" height="19.61277" fill="none" stroke="#e33678" stroke-miterlimit="10" stroke-width="2"/>
        <rect x="1143.88164" y="680.58559" width="19.56952" height="19.61277" fill="none" stroke="#e33678" stroke-miterlimit="10" stroke-width="2"/>
        <rect x="1169.11674" y="680.58559" width="19.56952" height="19.61277" fill="none" stroke="#e33678" stroke-miterlimit="10" stroke-width="2"/>
        <rect x="1194.35183" y="680.58559" width="19.56952" height="19.61277" fill="none" stroke="#e33678" stroke-miterlimit="10" stroke-width="2"/>
        <rect x="1219.58693" y="680.58559" width="19.56952" height="19.61277" fill="none" stroke="#e33678" stroke-miterlimit="10" stroke-width="2"/>
        <rect x="1244.82202" y="680.58559" width="19.56952" height="19.61277" fill="none" stroke="#e33678" stroke-miterlimit="10" stroke-width="2"/>
        <rect x="1270.05712" y="680.58559" width="19.56952" height="19.61277" fill="none" stroke="#e33678" stroke-miterlimit="10" stroke-width="2"/>
        <rect x="1295.29221" y="680.58559" width="19.56952" height="19.61277" fill="none" stroke="#e33678" stroke-miterlimit="10" stroke-width="2"/>
        <rect x="1320.52731" y="680.58559" width="19.56952" height="19.61277" fill="none" stroke="#e33678" stroke-miterlimit="10" stroke-width="2"/>
        <rect x="1093.41145" y="578.62878" width="19.56952" height="19.61277" fill="none" stroke="#e33678" stroke-miterlimit="10" stroke-width="2"/>
        <rect x="1118.64654" y="578.62878" width="19.56952" height="19.61277" fill="none" stroke="#e33678" stroke-miterlimit="10" stroke-width="2"/>
        <rect x="1143.88164" y="502.16117" width="19.56952" height="19.61277" fill="none" stroke="#e33678" stroke-miterlimit="10" stroke-width="2"/>
        <rect x="1143.88164" y="578.62878" width="19.56952" height="19.61277" fill="none" stroke="#e33678" stroke-miterlimit="10" stroke-width="2"/>
        <rect x="1169.11674" y="578.62878" width="19.56952" height="19.61277" fill="none" stroke="#e33678" stroke-miterlimit="10" stroke-width="2"/>
        <rect x="1194.35183" y="578.62878" width="19.56952" height="19.61277" fill="none" stroke="#e33678" stroke-miterlimit="10" stroke-width="2"/>
        <rect x="1219.58693" y="578.62878" width="19.56952" height="19.61277" fill="none" stroke="#e33678" stroke-miterlimit="10" stroke-width="2"/>
        <rect x="1244.82202" y="578.62878" width="19.56952" height="19.61277" fill="none" stroke="#e33678" stroke-miterlimit="10" stroke-width="2"/>
        <rect x="1270.05712" y="578.62878" width="19.56952" height="19.61277" fill="none" stroke="#e33678" stroke-miterlimit="10" stroke-width="2"/>
        <rect x="1295.29221" y="578.62878" width="19.56952" height="19.61277" fill="none" stroke="#e33678" stroke-miterlimit="10" stroke-width="2"/>
      </g>
      <g id="lempuyang_rettangoli_2018">
        <rect x="802.559" y="451.18276" width="19.56952" height="19.61277" fill="none" stroke="#e33678" stroke-miterlimit="10" stroke-width="2"/>
        <rect x="802.559" y="476.67196" width="19.56952" height="19.61277" fill="none" stroke="#e33678" stroke-miterlimit="10" stroke-width="2"/>
        <rect x="802.559" y="502.16117" width="19.56952" height="19.61277" fill="none" stroke="#e33678" stroke-miterlimit="10" stroke-width="2"/>
        <rect x="802.559" y="527.65037" width="19.56952" height="19.61277" fill="none" stroke="#e33678" stroke-miterlimit="10" stroke-width="2"/>
        <rect x="802.559" y="553.13957" width="19.56952" height="19.61277" fill="none" stroke="#e33678" stroke-miterlimit="10" stroke-width="2"/>
        <rect x="827.79409" y="451.18276" width="19.56952" height="19.61277" fill="none" stroke="#e33678" stroke-miterlimit="10" stroke-width="2"/>
        <rect x="827.79409" y="476.67196" width="19.56952" height="19.61277" fill="none" stroke="#e33678" stroke-miterlimit="10" stroke-width="2"/>
        <rect x="827.79409" y="502.16117" width="19.56952" height="19.61277" fill="none" stroke="#e33678" stroke-miterlimit="10" stroke-width="2"/>
        <rect x="827.79409" y="527.65037" width="19.56952" height="19.61277" fill="none" stroke="#e33678" stroke-miterlimit="10" stroke-width="2"/>
        <rect x="827.79409" y="553.13957" width="19.56952" height="19.61277" fill="none" stroke="#e33678" stroke-miterlimit="10" stroke-width="2"/>
        <rect x="853.02919" y="451.18276" width="19.56952" height="19.61277" fill="none" stroke="#e33678" stroke-miterlimit="10" stroke-width="2"/>
        <rect x="853.02919" y="476.67196" width="19.56952" height="19.61277" fill="none" stroke="#e33678" stroke-miterlimit="10" stroke-width="2"/>
        <rect x="853.02919" y="527.65037" width="19.56952" height="19.61277" fill="none" stroke="#e33678" stroke-miterlimit="10" stroke-width="2"/>
        <rect x="853.02919" y="553.13957" width="19.56952" height="19.61277" fill="none" stroke="#e33678" stroke-miterlimit="10" stroke-width="2"/>
        <rect x="878.26428" y="451.18276" width="19.56952" height="19.61277" fill="none" stroke="#e33678" stroke-miterlimit="10" stroke-width="2"/>
        <rect x="878.26428" y="476.67196" width="19.56952" height="19.61277" fill="none" stroke="#e33678" stroke-miterlimit="10" stroke-width="2"/>
        <rect x="878.26428" y="502.16117" width="19.56952" height="19.61277" fill="none" stroke="#e33678" stroke-miterlimit="10" stroke-width="2"/>
        <rect x="878.26428" y="527.65037" width="19.56952" height="19.61277" fill="none" stroke="#e33678" stroke-miterlimit="10" stroke-width="2"/>
        <rect x="878.26428" y="553.13957" width="19.56952" height="19.61277" fill="none" stroke="#e33678" stroke-miterlimit="10" stroke-width="2"/>
        <rect x="903.49938" y="451.18276" width="19.56952" height="19.61277" fill="none" stroke="#e33678" stroke-miterlimit="10" stroke-width="2"/>
        <rect x="903.49938" y="476.67196" width="19.56952" height="19.61277" fill="none" stroke="#e33678" stroke-miterlimit="10" stroke-width="2"/>
        <rect x="903.49938" y="502.16117" width="19.56952" height="19.61277" fill="none" stroke="#e33678" stroke-miterlimit="10" stroke-width="2"/>
        <rect x="903.49938" y="527.65037" width="19.56952" height="19.61277" fill="none" stroke="#e33678" stroke-miterlimit="10" stroke-width="2"/>
        <rect x="903.49938" y="553.13957" width="19.56952" height="19.61277" fill="none" stroke="#e33678" stroke-miterlimit="10" stroke-width="2"/>
        <rect x="928.73447" y="451.18276" width="19.56952" height="19.61277" fill="none" stroke="#e33678" stroke-miterlimit="10" stroke-width="2"/>
        <rect x="928.73447" y="476.67196" width="19.56952" height="19.61277" fill="none" stroke="#e33678" stroke-miterlimit="10" stroke-width="2"/>
        <rect x="928.73447" y="502.16117" width="19.56952" height="19.61277" fill="none" stroke="#e33678" stroke-miterlimit="10" stroke-width="2"/>
        <rect x="928.73447" y="527.65037" width="19.56952" height="19.61277" fill="none" stroke="#e33678" stroke-miterlimit="10" stroke-width="2"/>
        <rect x="928.73447" y="553.13957" width="19.56952" height="19.61277" fill="none" stroke="#e33678" stroke-miterlimit="10" stroke-width="2"/>
        <rect x="953.96957" y="451.18276" width="19.56952" height="19.61277" fill="none" stroke="#e33678" stroke-miterlimit="10" stroke-width="2"/>
        <rect x="953.96957" y="476.67196" width="19.56952" height="19.61277" fill="none" stroke="#e33678" stroke-miterlimit="10" stroke-width="2"/>
        <rect x="953.96957" y="502.16117" width="19.56952" height="19.61277" fill="none" stroke="#e33678" stroke-miterlimit="10" stroke-width="2"/>
        <rect x="953.96957" y="527.65037" width="19.56952" height="19.61277" fill="none" stroke="#e33678" stroke-miterlimit="10" stroke-width="2"/>
        <rect x="953.96957" y="553.13957" width="19.56952" height="19.61277" fill="none" stroke="#e33678" stroke-miterlimit="10" stroke-width="2"/>
        <rect x="979.20467" y="451.18276" width="19.56952" height="19.61277" fill="none" stroke="#e33678" stroke-miterlimit="10" stroke-width="2"/>
        <rect x="979.20467" y="476.67196" width="19.56952" height="19.61277" fill="none" stroke="#e33678" stroke-miterlimit="10" stroke-width="2"/>
        <rect x="979.20467" y="502.16117" width="19.56952" height="19.61277" fill="none" stroke="#e33678" stroke-miterlimit="10" stroke-width="2"/>
        <rect x="979.20467" y="527.65037" width="19.56952" height="19.61277" fill="none" stroke="#e33678" stroke-miterlimit="10" stroke-width="2"/>
        <rect x="979.20467" y="553.13957" width="19.56952" height="19.61277" fill="none" stroke="#e33678" stroke-miterlimit="10" stroke-width="2"/>
        <rect x="1004.43976" y="451.18276" width="19.56952" height="19.61277" fill="none" stroke="#e33678" stroke-miterlimit="10" stroke-width="2"/>
        <rect x="1004.43976" y="476.67196" width="19.56952" height="19.61277" fill="none" stroke="#e33678" stroke-miterlimit="10" stroke-width="2"/>
        <rect x="1004.43976" y="502.16117" width="19.56952" height="19.61277" fill="none" stroke="#e33678" stroke-miterlimit="10" stroke-width="2"/>
        <rect x="1004.43976" y="527.65037" width="19.56952" height="19.61277" fill="none" stroke="#e33678" stroke-miterlimit="10" stroke-width="2"/>
        <rect x="1004.43976" y="553.13957" width="19.56952" height="19.61277" fill="none" stroke="#e33678" stroke-miterlimit="10" stroke-width="2"/>
        <rect x="1029.67486" y="451.18276" width="19.56952" height="19.61277" fill="none" stroke="#e33678" stroke-miterlimit="10" stroke-width="2"/>
        <rect x="1029.67486" y="476.67196" width="19.56952" height="19.61277" fill="none" stroke="#e33678" stroke-miterlimit="10" stroke-width="2"/>
        <rect x="1029.67486" y="502.16117" width="19.56952" height="19.61277" fill="none" stroke="#e33678" stroke-miterlimit="10" stroke-width="2"/>
        <rect x="1029.67486" y="527.65037" width="19.56952" height="19.61277" fill="none" stroke="#e33678" stroke-miterlimit="10" stroke-width="2"/>
        <rect x="1029.67486" y="553.13957" width="19.56952" height="19.61277" fill="none" stroke="#e33678" stroke-miterlimit="10" stroke-width="2"/>
        <rect x="1029.67486" y="578.62878" width="19.56952" height="19.61277" fill="none" stroke="#e33678" stroke-miterlimit="10" stroke-width="2"/>
        <rect x="802.559" y="604.11798" width="19.56952" height="19.61277" fill="none" stroke="#e33678" stroke-miterlimit="10" stroke-width="2"/>
        <rect x="827.79409" y="604.11798" width="19.56952" height="19.61277" fill="none" stroke="#e33678" stroke-miterlimit="10" stroke-width="2"/>
        <rect x="853.02919" y="604.11798" width="19.56952" height="19.61277" fill="none" stroke="#e33678" stroke-miterlimit="10" stroke-width="2"/>
        <rect x="878.26428" y="604.11798" width="19.56952" height="19.61277" fill="none" stroke="#e33678" stroke-miterlimit="10" stroke-width="2"/>
        <rect x="903.49938" y="604.11798" width="19.56952" height="19.61277" fill="none" stroke="#e33678" stroke-miterlimit="10" stroke-width="2"/>
        <rect x="928.73447" y="604.11798" width="19.56952" height="19.61277" fill="none" stroke="#e33678" stroke-miterlimit="10" stroke-width="2"/>
        <rect x="953.96957" y="604.11798" width="19.56952" height="19.61277" fill="none" stroke="#e33678" stroke-miterlimit="10" stroke-width="2"/>
        <rect x="979.20467" y="604.11798" width="19.56952" height="19.61277" fill="none" stroke="#e33678" stroke-miterlimit="10" stroke-width="2"/>
        <rect x="1004.43976" y="604.11798" width="19.56952" height="19.61277" fill="none" stroke="#e33678" stroke-miterlimit="10" stroke-width="2"/>
        <rect x="1029.67486" y="604.11798" width="19.56952" height="19.61277" fill="none" stroke="#e33678" stroke-miterlimit="10" stroke-width="2"/>
        <rect x="802.559" y="629.60719" width="19.56952" height="19.61277" fill="none" stroke="#e33678" stroke-miterlimit="10" stroke-width="2"/>
        <rect x="827.79409" y="629.60719" width="19.56952" height="19.61277" fill="none" stroke="#e33678" stroke-miterlimit="10" stroke-width="2"/>
        <rect x="853.02919" y="629.60719" width="19.56952" height="19.61277" fill="none" stroke="#e33678" stroke-miterlimit="10" stroke-width="2"/>
        <rect x="878.26428" y="629.60719" width="19.56952" height="19.61277" fill="none" stroke="#e33678" stroke-miterlimit="10" stroke-width="2"/>
        <rect x="903.49938" y="629.60719" width="19.56952" height="19.61277" fill="none" stroke="#e33678" stroke-miterlimit="10" stroke-width="2"/>
        <rect x="928.73447" y="629.60719" width="19.56952" height="19.61277" fill="none" stroke="#e33678" stroke-miterlimit="10" stroke-width="2"/>
        <rect x="953.96957" y="629.60719" width="19.56952" height="19.61277" fill="none" stroke="#e33678" stroke-miterlimit="10" stroke-width="2"/>
        <rect x="979.20467" y="629.60719" width="19.56952" height="19.61277" fill="none" stroke="#e33678" stroke-miterlimit="10" stroke-width="2"/>
        <rect x="1004.43976" y="629.60719" width="19.56952" height="19.61277" fill="none" stroke="#e33678" stroke-miterlimit="10" stroke-width="2"/>
        <rect x="1029.67486" y="629.60719" width="19.56952" height="19.61277" fill="none" stroke="#e33678" stroke-miterlimit="10" stroke-width="2"/>
        <rect x="853.02919" y="655.09641" width="19.56952" height="19.61277" fill="none" stroke="#e33678" stroke-miterlimit="10" stroke-width="2"/>
        <rect x="878.26428" y="655.09641" width="19.56952" height="19.61277" fill="none" stroke="#e33678" stroke-miterlimit="10" stroke-width="2"/>
        <rect x="903.49938" y="655.09641" width="19.56952" height="19.61277" fill="none" stroke="#e33678" stroke-miterlimit="10" stroke-width="2"/>
        <rect x="928.73447" y="655.09641" width="19.56952" height="19.61277" fill="none" stroke="#e33678" stroke-miterlimit="10" stroke-width="2"/>
        <rect x="953.96957" y="655.09641" width="19.56952" height="19.61277" fill="none" stroke="#e33678" stroke-miterlimit="10" stroke-width="2"/>
        <rect x="979.20467" y="655.09641" width="19.56952" height="19.61277" fill="none" stroke="#e33678" stroke-miterlimit="10" stroke-width="2"/>
        <rect x="1004.43976" y="655.09641" width="19.56952" height="19.61277" fill="none" stroke="#e33678" stroke-miterlimit="10" stroke-width="2"/>
        <rect x="1029.67486" y="655.09641" width="19.56952" height="19.61277" fill="none" stroke="#e33678" stroke-miterlimit="10" stroke-width="2"/>
        <rect x="802.559" y="578.62878" width="19.56952" height="19.61277" fill="none" stroke="#e33678" stroke-miterlimit="10" stroke-width="2"/>
        <rect x="827.79409" y="578.62878" width="19.56952" height="19.61277" fill="none" stroke="#e33678" stroke-miterlimit="10" stroke-width="2"/>
        <rect x="853.02919" y="502.16117" width="19.56952" height="19.61277" fill="none" stroke="#e33678" stroke-miterlimit="10" stroke-width="2"/>
        <rect x="853.02919" y="578.62878" width="19.56952" height="19.61277" fill="none" stroke="#e33678" stroke-miterlimit="10" stroke-width="2"/>
        <rect x="878.26428" y="578.62878" width="19.56952" height="19.61277" fill="none" stroke="#e33678" stroke-miterlimit="10" stroke-width="2"/>
        <rect x="903.49938" y="578.62878" width="19.56952" height="19.61277" fill="none" stroke="#e33678" stroke-miterlimit="10" stroke-width="2"/>
        <rect x="928.73447" y="578.62878" width="19.56952" height="19.61277" fill="none" stroke="#e33678" stroke-miterlimit="10" stroke-width="2"/>
        <rect x="953.96957" y="578.62878" width="19.56952" height="19.61277" fill="none" stroke="#e33678" stroke-miterlimit="10" stroke-width="2"/>
        <rect x="979.20467" y="578.62878" width="19.56952" height="19.61277" fill="none" stroke="#e33678" stroke-miterlimit="10" stroke-width="2"/>
        <rect x="1004.43976" y="578.62878" width="19.56952" height="19.61277" fill="none" stroke="#e33678" stroke-miterlimit="10" stroke-width="2"/>
      </g>
    </g>
    <g id="Lempuyang_Instagram_9">
      <rect x="982.44748" y="277.50399" width="75.7007" height="75.7007" fill="none" stroke="#e33678" stroke-miterlimit="10" stroke-width="3"/>
      <rect x="1084.41147" y="277.50399" width="75.7007" height="75.7007" fill="none" stroke="#e33678" stroke-miterlimit="10" stroke-width="3"/>
      <rect x="1178.90762" y="277.50399" width="75.7007" height="75.7007" fill="none" stroke="#e33678" stroke-miterlimit="10" stroke-width="3"/>
      <rect x="1273.40377" y="277.50399" width="75.7007" height="75.7007" fill="none" stroke="#e33678" stroke-miterlimit="10" stroke-width="3"/>
      <rect x="1084.41147" y="183.00784" width="75.7007" height="75.7007" fill="none" stroke="#e33678" stroke-miterlimit="10" stroke-width="3"/>
      <rect x="1178.90762" y="183.00784" width="75.7007" height="75.7007" fill="none" stroke="#e33678" stroke-miterlimit="10" stroke-width="3"/>
      <rect x="1273.40377" y="183.00784" width="75.7007" height="75.7007" fill="none" stroke="#e33678" stroke-miterlimit="10" stroke-width="3"/>
      <rect x="1273.40377" y="88.51169" width="75.7007" height="75.7007" fill="none" stroke="#e33678" stroke-miterlimit="10" stroke-width="3"/>
      <rect x="793.45519" y="277.50399" width="75.7007" height="75.7007" fill="none" stroke="#e33678" stroke-miterlimit="10" stroke-width="3"/>
      <rect x="887.95133" y="277.50399" width="75.7007" height="75.7007" fill="none" stroke="#e33678" stroke-miterlimit="10" stroke-width="3"/>
      <rect x="982.44748" y="183.00784" width="75.7007" height="75.7007" fill="none" stroke="#e33678" stroke-miterlimit="10" stroke-width="3"/>
    </g>
  </g>
</svg>
