<?xml version="1.0" encoding="utf-8"?>
<!-- Generator: Adobe Illustrator 24.3.0, SVG Export Plug-In . SVG Version: 6.00 Build 0)  -->
<svg version="1.1" id="Livello_1" xmlns="http://www.w3.org/2000/svg" xmlns:xlink="http://www.w3.org/1999/xlink" x="0px" y="0px"
	 viewBox="0 0 1920 1000" style="enable-background:new 0 0 1920 1000;" xml:space="preserve">
<style type="text/css">
	.st0{fill:#222145;}
	.st1{fill:none;stroke:#FFFFFF;stroke-width:1.5;stroke-miterlimit:10;}
	.st2{fill:#92E606;}
	.st3{fill:none;stroke:#567AFC;stroke-miterlimit:10;}
	.st4{fill:#567AFC;}
	.st5{fill:none;stroke:#567AFC;stroke-linecap:round;stroke-miterlimit:10;}
	.st6{fill:#FFFFFF;}
	.st7{fill:none;stroke:#FFFFFF;stroke-miterlimit:10;}
	.st8{fill:#92E606;stroke:#92E606;stroke-width:2.5;stroke-miterlimit:10;}
	.st9{fill:#222145;stroke:#92E606;stroke-miterlimit:10;}
</style>
<rect y="-0.1" class="st0" width="1924.6" height="1000.1"/>
<g>
	<circle class="st1" cx="1237.3" cy="526.1" r="174.8"/>
	<circle class="st2" cx="1310.7" cy="540.9" r="70.2"/>
</g>
<g>
	<polygon class="st3" points="489.9,405.4 489.9,876.1 972,876.1 972,708.7 972,708.7 972,380.5 783,380.5 783,32.4 309.5,32.4 
		309.5,406.2 	"/>
	<rect x="203.6" y="32.4" class="st3" width="105.9" height="31"/>
	<g>
		<path class="st4" d="M227.8,40.6h2.5l4.8,12.3h-2.2l-1.2-3h-5.5l-1.2,3h-2.2L227.8,40.6z M229,42.8l-2,5.2h4L229,42.8z"/>
		<path class="st4" d="M238.5,52.9h-2v-8.8h2v1.2c0.6-0.9,1.6-1.4,2.6-1.4c1.2-0.1,2.2,0.5,2.8,1.6c0.6-1,1.7-1.6,2.9-1.6
			c2.2,0,3.1,1.4,3.1,3.3v5.7h-2v-5.4c0-1.2-0.5-1.9-1.5-1.9h-0.1c-1.2,0.1-2.1,1.1-2,2.3c0,0,0,0,0,0.1v4.9h-2v-5.4
			c0-1.2-0.5-1.9-1.5-1.9h-0.1c-1.2,0.1-2.1,1.1-2,2.3c0,0,0,0,0,0.1L238.5,52.9z"/>
		<path class="st4" d="M255.9,53.1c-2.2,0-4.2-1.6-4.2-4.6c0-2.8,1.7-4.6,4.1-4.6c2.5,0,3.9,1.8,3.9,4.2c0,0.2,0,0.7,0,0.9h-6
			c0,1.3,1,2.3,2.2,2.4h0.1c0.8,0.1,1.5-0.5,1.7-1.2h2C259.4,52,257.8,53.2,255.9,53.1z M257.8,47.5c0-1-0.8-1.8-1.8-1.9
			c0,0-0.1,0-0.1,0h-0.1c-1.1,0-2,0.8-2,1.9H257.8z"/>
		<path class="st4" d="M261.7,44.1h2v1.8c0.3-1.2,1.4-2,2.5-1.9h0.6v1.9h-0.8c-1.2-0.1-2.2,0.7-2.4,1.9c0,0.2,0,0.3,0,0.5v4.5h-2
			V44.1z"/>
		<path class="st4" d="M268.4,40.6h2.2v2.2h-2.2V40.6z M268.4,44.1h2v8.8h-2V44.1z"/>
		<path class="st4" d="M280.4,49.9c-0.2,2.1-1.6,3.2-3.8,3.2c-2.5,0-4.2-1.9-4.2-4.6c0-2.7,1.7-4.6,4.2-4.6c2.2,0,3.6,1.1,3.8,3.2
			h-2c-0.1-0.9-0.8-1.6-1.7-1.5h-0.1c-1.5,0-2.1,1.4-2.1,2.9c0,1.6,0.6,2.9,2.1,2.9h0.1c0.9,0,1.7-0.6,1.7-1.5L280.4,49.9z"/>
		<path class="st4" d="M284.6,53.1c-1.5,0.1-2.8-1-2.9-2.4c0,0,0-0.1,0-0.1c0-1.9,1.6-2.7,3.2-2.8l2.3-0.2v-0.2
			c0.1-0.8-0.6-1.6-1.4-1.6c-0.1,0-0.1,0-0.2,0h-0.1c-0.8-0.1-1.5,0.4-1.6,1.2h-2c0.1-1.6,1.6-2.8,3.7-2.8c2.2,0,3.6,1.3,3.6,3.2V51
			c0,0.6,0,1.3,0.1,1.9h-1.9c-0.1-0.4-0.1-0.8-0.1-1.2C286.7,52.6,285.7,53.1,284.6,53.1z M285.1,51.4c1.1,0,2.1-0.8,2.1-1.9V49
			l-2,0.2c-0.8,0.1-1.5,0.5-1.5,1.2c0,0.6,0.6,1.1,1.2,1.1c0,0,0,0,0.1,0H285.1z"/>
	</g>
	<rect x="1041.1" y="845.1" class="st3" width="105.9" height="31"/>
	<g>
		<path class="st4" d="M1081.6,853.2h2.5l4.8,12.3h-2.2l-1.2-3h-5.5l-1.2,3h-2.2L1081.6,853.2z M1082.8,855.4l-2,5.2h4L1082.8,855.4
			z"/>
		<path class="st4" d="M1089.6,862.7h2c0.1,0.8,0.8,1.5,1.6,1.4c0,0,0,0,0.1,0h0.1c0.8,0,1.4-0.4,1.4-1c0-0.5-0.3-0.8-1-1l-1.2-0.3
			c-1.7-0.4-2.7-1.1-2.7-2.6c0-1.7,1.4-2.7,3.4-2.7c2.3,0,3.5,1.2,3.5,3h-2c0-0.8-0.6-1.4-1.4-1.4c0,0,0,0-0.1,0h-0.2
			c-0.8,0-1.3,0.4-1.3,1c0,0.5,0.4,0.8,1.2,1l1.3,0.3c1.5,0.4,2.5,1.1,2.5,2.6c0,1.5-1.3,2.7-3.5,2.7
			C1091,865.7,1089.7,864.5,1089.6,862.7z"/>
		<path class="st4" d="M1098.9,853.2h2.2v2.2h-2.2V853.2z M1098.9,856.8h2v8.8h-2V856.8z"/>
		<path class="st4" d="M1105.7,865.7c-1.5,0.1-2.8-1-2.9-2.4c0,0,0-0.1,0-0.1c0-1.9,1.6-2.7,3.2-2.8l2.3-0.2v-0.2
			c0.1-0.8-0.6-1.6-1.4-1.6c-0.1,0-0.1,0-0.2,0h-0.1c-0.8-0.1-1.5,0.4-1.6,1.2h-2c0.1-1.6,1.6-2.8,3.7-2.8c2.2,0,3.6,1.3,3.6,3.2
			v3.8c0,0.6,0,1.3,0.1,1.9h-1.9c-0.1-0.4-0.1-0.8-0.1-1.2C1107.8,865.2,1106.8,865.7,1105.7,865.7z M1106.2,864.1
			c1.1,0,2.1-0.8,2.1-1.9v-0.5l-2,0.2c-0.8,0.1-1.5,0.5-1.5,1.2c0,0.6,0.6,1.1,1.2,1.1c0,0,0,0,0.1,0H1106.2z"/>
	</g>
	<polyline class="st5" points="1316.2,127.8 1316.2,32 1861,32 1861,845.1 1041.1,845.1 1041.1,552.3 1054.5,552.3 	"/>
	<rect x="1196.1" y="85.6" class="st3" width="105.9" height="31"/>
	<g>
		<path class="st4" d="M1221.6,93.8h9.2v1.9h-7.1v3.2h6v1.9h-6v3.5h7.2v1.9h-9.3V93.8z"/>
		<path class="st4" d="M1240.4,106.1h-2v-1.4c-0.5,1-1.5,1.7-2.7,1.6c-2,0-3-1.4-3-3.3v-5.7h2v5.4c0,1.3,0.5,1.9,1.5,1.9h0.2
			c1.2-0.1,2.1-1.3,2-2.5v-4.8h2V106.1z"/>
		<path class="st4" d="M1242.8,97.3h2v1.8c0.3-1.2,1.4-2,2.5-1.9h0.6v1.9h-0.8c-1.2-0.1-2.2,0.7-2.4,1.9c0,0.2,0,0.3,0,0.5v4.5h-2
			V97.3z"/>
		<path class="st4" d="M1248.8,101.7c0.1-2.4,2.2-4.2,4.6-4.1c2.4,0.1,4.2,2.2,4.1,4.6c-0.1,2.3-2,4.1-4.3,4.1
			c-2.4,0-4.3-1.9-4.3-4.2C1248.8,101.9,1248.8,101.8,1248.8,101.7z M1255.4,101.7c0-1.8-0.9-2.9-2.2-2.9h-0.2
			c-1.3,0-2.2,1.1-2.2,2.9s0.9,2.9,2.2,2.9h0.2C1254.5,104.6,1255.4,103.5,1255.4,101.7z"/>
		<path class="st4" d="M1267.9,101.7c0,2.6-1.5,4.6-3.9,4.6c-1,0-2-0.5-2.6-1.4v4.7h-2V97.3h2v1.2c0.6-0.9,1.6-1.4,2.7-1.4
			C1266.4,97.1,1267.9,99.1,1267.9,101.7z M1261.4,101.7c0,1.9,1.1,2.9,2.2,2.9h0.1c1.2,0,2.2-1.1,2.2-2.9c0-1.9-0.9-2.9-2.2-2.9
			h-0.1C1262.4,98.8,1261.4,99.8,1261.4,101.7z"/>
		<path class="st4" d="M1273.5,106.2c-2.2,0-4.2-1.6-4.2-4.6c0-2.8,1.7-4.6,4.1-4.6c2.5,0,3.9,1.8,3.9,4.2c0,0.2,0,0.7,0,0.9h-6
			c0,1.3,1,2.3,2.2,2.4h0.1c0.8,0.1,1.5-0.5,1.7-1.2h2C1276.9,105.2,1275.3,106.4,1273.5,106.2z M1275.4,100.6c0-1-0.8-1.9-1.8-1.9
			c0,0-0.1,0-0.1,0h-0.1c-1.1,0-2,0.8-2,1.9H1275.4z"/>
	</g>
	<polyline class="st5" points="1302,131.3 1302,116.6 1172.3,116.6 1172.3,32 796.7,32 796.7,365.9 986.6,365.9 986.6,530 
		1053.2,530 	"/>
	<line class="st5" x1="1302" y1="354.7" x2="1302" y2="131.3"/>
	<line class="st5" x1="1317.1" y1="360.9" x2="1316.2" y2="127.8"/>
	<rect x="1597.4" y="861" class="st3" width="105.9" height="31"/>
	<g>
		<path class="st4" d="M1618.4,875.3c0-4,2.5-6.3,5.9-6.3c3.4,0,5.9,2.4,5.9,6.3c0,4-2.5,6.3-5.9,6.3
			C1620.9,881.6,1618.4,879.2,1618.4,875.3z M1624.4,879.7c2.2,0,3.7-1.7,3.7-4.4c0-2.8-1.5-4.4-3.7-4.4h-0.2
			c-2.2,0-3.7,1.7-3.7,4.4c0,2.8,1.5,4.4,3.7,4.4H1624.4z"/>
		<path class="st4" d="M1639.8,878.4c-0.2,2.1-1.6,3.2-3.8,3.2c-2.5,0-4.2-1.9-4.2-4.6s1.7-4.6,4.2-4.6c2.2,0,3.6,1.1,3.8,3.2h-2
			c-0.1-0.9-0.8-1.6-1.7-1.5h-0.1c-1.5,0-2.1,1.4-2.1,2.9s0.6,2.9,2.1,2.9h0.1c0.9,0,1.7-0.6,1.7-1.5L1639.8,878.4z"/>
		<path class="st4" d="M1645.3,881.6c-2.2,0-4.2-1.6-4.2-4.6c0-2.8,1.7-4.6,4.1-4.6c2.5,0,3.9,1.8,3.9,4.2c0,0.2,0,0.7,0,0.9h-6
			c0,1.3,1,2.3,2.2,2.4h0.1c0.8,0.1,1.5-0.5,1.7-1.2h2C1648.8,880.5,1647.1,881.7,1645.3,881.6z M1647.2,876c0-1-0.8-1.9-1.8-1.9
			c0,0-0.1,0-0.1,0h-0.1c-1.1,0-2,0.8-2,1.9H1647.2z"/>
		<path class="st4" d="M1653.4,881.6c-1.5,0.1-2.8-1-2.9-2.4c0,0,0-0.1,0-0.1c0-1.9,1.6-2.7,3.2-2.8l2.3-0.2v-0.2
			c0.1-0.8-0.6-1.6-1.4-1.6c-0.1,0-0.1,0-0.2,0h-0.1c-0.8-0.1-1.5,0.4-1.6,1.2h-2c0.1-1.6,1.6-2.8,3.7-2.8c2.2,0,3.6,1.3,3.6,3.2
			v3.8c0,0.6,0,1.3,0.1,1.9h-1.9c-0.1-0.4-0.1-0.8-0.1-1.2C1655.5,881.1,1654.5,881.6,1653.4,881.6z M1653.9,880
			c1.1,0,2.1-0.8,2.1-1.9v-0.5l-2,0.2c-0.8,0.1-1.5,0.5-1.5,1.2c0,0.6,0.6,1.1,1.2,1.1c0,0,0,0,0.1,0H1653.9z"/>
		<path class="st4" d="M1662.4,881.4h-2v-8.8h2v1.3c0.6-0.9,1.6-1.5,2.7-1.4c1.6-0.1,3,1.1,3.1,2.7c0,0.2,0,0.4,0,0.5v5.7h-2V876
			c0-1.2-0.5-1.9-1.5-1.9h-0.2c-1.2,0.1-2.2,1.1-2.1,2.4c0,0,0,0,0,0V881.4z"/>
		<path class="st4" d="M1670.5,869.1h2.2v2.2h-2.2V869.1z M1670.6,872.7h2v8.8h-2V872.7z"/>
		<path class="st4" d="M1677.4,881.6c-1.5,0.1-2.8-1-2.9-2.4c0,0,0-0.1,0-0.1c0-1.9,1.6-2.7,3.2-2.8l2.3-0.2v-0.2
			c0.1-0.8-0.6-1.6-1.4-1.6c-0.1,0-0.1,0-0.2,0h-0.1c-0.8-0.1-1.5,0.4-1.6,1.2h-2c0.1-1.6,1.6-2.8,3.7-2.8c2.2,0,3.6,1.3,3.6,3.2
			v3.8c0,0.6,0,1.3,0.1,1.9h-1.9c-0.1-0.4-0.1-0.8-0.1-1.2C1679.5,881.1,1678.5,881.6,1677.4,881.6z M1677.9,880
			c1.1,0,2.1-0.8,2.1-1.9v-0.5l-2,0.2c-0.8,0.1-1.5,0.5-1.5,1.2c0,0.6,0.6,1.1,1.2,1.1c0,0,0,0,0.1,0H1677.9z"/>
	</g>
	<rect x="1703.3" y="861" class="st3" width="157.3" height="110.9"/>
</g>
<g>
	<circle class="st1" cx="697.2" cy="692.9" r="112.8"/>
	<g>
		<path class="st6" d="M694.9,819.8c-0.2,1.3-1.2,2.3-3,2.2c-2.1-0.1-3.2-1.6-3.1-3.7c0.1-2.1,1.3-3.5,3.4-3.4
			c1.4-0.1,2.6,1,2.8,2.4c0,0,0,0.1,0,0.1l-1.3-0.1c-0.1-0.7-0.7-1.3-1.4-1.2l-0.1,0c-1.1-0.1-1.9,0.8-2,2.2
			c-0.1,1.5,0.7,2.4,1.8,2.4l0.1,0c0.7,0.1,1.4-0.4,1.6-1.1L694.9,819.8z"/>
		<path class="st6" d="M695.8,818.6c0.1-1.8,1.6-3.3,3.5-3.2s3.3,1.6,3.2,3.5c-0.1,1.8-1.5,3.2-3.3,3.2c-1.8,0.1-3.3-1.3-3.4-3
			C695.8,818.9,695.8,818.7,695.8,818.6z M699.2,820.9c1.2,0,1.9-0.9,1.9-2.4c0-1.5-0.8-2.3-2-2.3l-0.1,0c-1.2,0-1.9,0.9-1.9,2.4
			C697.1,820.1,697.8,820.9,699.2,820.9L699.2,820.9z"/>
		<path class="st6" d="M703.5,815.1l1.3-0.1l0.4,5.6l3.8-0.2l0.1,1.2l-5.2,0.3L703.5,815.1z"/>
		<path class="st6" d="M709.2,818.1c-0.1-1.8,1.3-3.4,3.1-3.5s3.4,1.3,3.5,3.1c0.1,1.8-1.2,3.3-2.9,3.5c-1.7,0.3-3.4-0.9-3.7-2.7
			C709.2,818.4,709.2,818.3,709.2,818.1z M712.8,820.1c1.2-0.1,1.8-1.1,1.7-2.5c-0.2-1.5-1-2.2-2.2-2.1l-0.1,0
			c-1.2,0.1-1.8,1.1-1.7,2.5C710.6,819.4,711.5,820.2,712.8,820.1L712.8,820.1z"/>
		<path class="st6" d="M717.9,815l1,5.3l-1.3,0.2l-1.2-6.7l2-0.4l2.6,5l0.7-5.6l2-0.4l1.2,6.7l-1.3,0.2l-1-5.3l-0.7,5.6l-1.4,0.3
			L717.9,815z"/>
		<path class="st6" d="M726.8,818.8l-1.6-6.6l2.9-0.7c1-0.4,2,0.1,2.4,1.1c0,0.1,0,0.1,0.1,0.2c-0.8,0.5-1,1.5-0.5,2.3
			c0.3,0.5,0.9,0.8,1.4,0.8c0.2,1.1-0.5,2.1-1.5,2.3c0,0-0.1,0-0.1,0L726.8,818.8z M728.5,814.2c0.6-0.2,0.9-0.5,0.8-1
			c-0.1-0.5-0.5-0.7-1.1-0.6l-1.5,0.4l0.4,1.6L728.5,814.2z M729.3,817c0.6-0.2,0.9-0.5,0.8-1.1c-0.1-0.6-0.6-0.7-1.2-0.6l-1.6,0.4
			l0.4,1.7L729.3,817z"/>
		<path class="st6" d="M731.3,810.6l1.3-0.4l1.9,6.6l-1.3,0.4L731.3,810.6z"/>
		<path class="st6" d="M739.6,813.5l-2.7,0.9l-0.1,1.7l-1.3,0.4l0.4-7.3l1.5-0.5l4.6,5.7l-1.3,0.4L739.6,813.5z M737,810.4l-0.1,2.8
			l1.9-0.6L737,810.4z"/>
	</g>
	<circle class="st2" cx="706.1" cy="636.7" r="51.1"/>
</g>
<g>
	<circle class="st1" cx="1664.6" cy="233.6" r="81.5"/>
	<g>
		<path class="st6" d="M1593.7,170.6L1593.7,170.6c-0.6,0.6-0.6,1.2-0.2,1.5c0.3,0.3,0.6,0.3,1.1-0.1l0.8-0.6
			c0.7-0.8,1.9-0.8,2.7-0.1c0.9,0.8,0.9,2.1-0.2,3.4c-1.3,1.4-2.6,1.4-3.6,0.5l0.9-1c0.6,0.5,1.4,0.3,1.9-0.3c0,0,0-0.1,0.1-0.1
			l0.1-0.1c0.5-0.5,0.5-1.1,0.1-1.4c-0.3-0.3-0.6-0.3-1.1,0.1l-1,0.7c-0.7,0.7-1.9,0.7-2.6,0c-0.8-0.7-0.9-2,0.2-3.3
			c1.1-1.2,2.4-1.3,3.4-0.4l-0.9,1C1594.9,170,1594.2,170,1593.7,170.6C1593.7,170.5,1593.7,170.6,1593.7,170.6z"/>
		<path class="st6" d="M1597.8,169.5c-1.2-1.4-1-3.5,0.4-4.7s3.5-1,4.7,0.4c1.1,1.3,1,3.3-0.2,4.6c-1.2,1.3-3.3,1.3-4.5,0.1
			C1598,169.8,1597.9,169.7,1597.8,169.5z M1601.9,168.9c0.9-0.8,0.8-2-0.2-3s-2.1-1.2-3-0.3l-0.1,0.1c-0.9,0.8-0.8,2,0.2,3
			C1599.8,169.7,1600.9,169.8,1601.9,168.9L1601.9,168.9z"/>
		<path class="st6" d="M1604.3,164.9l-2.8-3.4l1-0.8l2.7,3.3c0.7,0.8,1.3,0.9,2,0.3l0.1-0.1c0.7-0.6,0.7-1.2,0.1-2l-2.7-3.3l1-0.8
			l2.8,3.4c1,1.2,0.9,2.5-0.5,3.6C1606.5,166.3,1605.3,166.1,1604.3,164.9z"/>
		<path class="st6" d="M1609.3,156.9l-1.9,1.4l-0.7-1l5-3.5l0.7,1l-1.9,1.4l3.2,4.6l-1.1,0.8L1609.3,156.9z"/>
		<path class="st6" d="M1612.8,153.1l1.1-0.7l1.4,2.4l2.6-1.5l-1.4-2.4l1.1-0.7l3.5,5.9l-1.1,0.7l-1.4-2.4l-2.6,1.5l1.4,2.4
			l-1.1,0.7L1612.8,153.1z"/>
		<path class="st6" d="M1625.2,150.7l-0.4,1.2l0.9,1.9l-1.2,0.6l-2.9-6.2l1.2-0.6l1.3,2.8l1.3-4l1.5-0.7l-1.3,3.7l4.2,2.5l-1.5,0.7
			L1625.2,150.7z"/>
		<path class="st6" d="M1628.5,148.7c-0.5-1.8,0.4-3.6,2.2-4.2s3.6,0.4,4.2,2.2c0.5,1.7-0.4,3.5-2,4.1c-1.6,0.7-3.5-0.1-4.2-1.7
			C1628.6,149,1628.5,148.9,1628.5,148.7z M1632.5,149.7c1.1-0.4,1.5-1.5,1-2.9s-1.5-1.9-2.6-1.5l-0.1,0c-1.1,0.4-1.5,1.5-1,2.9
			C1630.2,149.6,1631.2,150.2,1632.5,149.7L1632.5,149.7z"/>
		<path class="st6" d="M1635.1,142.7l3-0.9c1-0.4,2.1,0.1,2.5,1.1c0,0,0,0,0,0.1c0.3,0.7,0,1.6-0.6,2c0.7-0.2,1.1,0,1.3,0.6l0.6,2.2
			l-1.3,0.4l-0.5-1.9c-0.1-0.5-0.3-0.6-0.8-0.4l-1.8,0.5l0.7,2.5l-1.3,0.4L1635.1,142.7z M1638.6,144.9c0.8-0.2,1-0.7,0.9-1.3
			c-0.2-0.6-0.6-0.8-1.4-0.6l-1.4,0.4l0.5,1.8L1638.6,144.9z"/>
		<path class="st6" d="M1641.9,140.9l5.1-1.1l0.2,1.1l-3.8,0.8l0.3,1.5l3.2-0.7l0.2,1.1l-3.2,0.7l0.4,1.7l3.9-0.8l0.2,1.1l-5.2,1.1
			L1641.9,140.9z"/>
		<path class="st6" d="M1653.3,144.2l-2.8,0.4l-0.4,1.7l-1.4,0.2l1.8-7.1l1.5-0.2l3.5,6.4l-1.4,0.2L1653.3,144.2z M1651.4,140.6
			l-0.6,2.7l2-0.3L1651.4,140.6z"/>
	</g>
	<circle class="st2" cx="1715.3" cy="267.7" r="18.9"/>
	<circle class="st1" cx="1560.1" cy="401.5" r="59.5"/>
	<g>
		<path class="st6" d="M1513,451.6l1,0.9l-4.6,5.1l-1-0.9L1513,451.6z"/>
		<path class="st6" d="M1515,455.6l-3.1,4l-1-0.8l4.2-5.4l1.4,1l-0.9,5.6l3.1-4l1,0.8l-4.2,5.4l-1.4-1L1515,455.6z"/>
		<path class="st6" d="M1520.6,457.6l2,1.2c1.6,0.8,2.2,2.7,1.4,4.2c-0.1,0.2-0.2,0.3-0.3,0.5c-0.8,1.5-2.6,2.2-4.2,1.4
			c-0.2-0.1-0.4-0.2-0.5-0.3l-2-1.3L1520.6,457.6z M1519.6,463.6c1.1,0.7,2.4,0.3,3.1-0.7c0.7-1.1,0.3-2.4-0.7-3.1l-0.8-0.5
			l-2.4,3.8L1519.6,463.6z"/>
		<path class="st6" d="M1526.5,461.1l1.2,0.6l-3.2,6l-1.2-0.6L1526.5,461.1z"/>
		<path class="st6" d="M1530.5,468.9l-2.6-1.2l-1.2,1.2l-1.3-0.6l5.2-5.2l1.4,0.6l-0.4,7.3l-1.3-0.6L1530.5,468.9z M1530.8,464.8
			l-1.9,2l1.8,0.8L1530.8,464.8z"/>
	</g>
	<circle class="st2" cx="1589.4" cy="398.2" r="27.5"/>
	
		<ellipse transform="matrix(0.7071 -0.7071 0.7071 0.7071 191.2129 713.828)" class="st1" cx="957.3" cy="126.1" rx="79.1" ry="79.1"/>
	<g>
		<path class="st6" d="M868.3,120.1l-4.4-0.4l0.1-1.3l4.2,0.4c1.1,0.1,1.5-0.3,1.6-1.2l0-0.1c0.1-0.9-0.3-1.4-1.4-1.5l-4.2-0.4
			l0.1-1.3l4.4,0.4c1.6,0.2,2.4,1.1,2.2,2.9S869.8,120.2,868.3,120.1z"/>
		<path class="st6" d="M866.7,111.3l4.9,0.9l-0.2,1.3l-6.7-1.2l0.3-1.7l5.4-1.7l-4.9-0.9l0.2-1.3l6.7,1.2l-0.3,1.7L866.7,111.3z"/>
		<path class="st6" d="M866.1,104.8l0.3-1.3l6.6,1.6l-0.3,1.3L866.1,104.8z"/>
		<path class="st6" d="M868.5,100.4l-0.7,2.3l-1.1-0.3l1.8-5.8l1.1,0.3l-0.7,2.3l5.4,1.7l-0.4,1.3L868.5,100.4z"/>
		<path class="st6" d="M869,95.2l1.9-4.8l1.1,0.4l-1.4,3.6L872,95l1.2-3l1.1,0.4l-1.2,3l1.6,0.6l1.4-3.7l1.1,0.4l-1.9,4.9L869,95.2z
			"/>
		<path class="st6" d="M871.5,88.9l1-2.1c0.6-1.6,2.4-2.5,4.1-1.9c0.2,0.1,0.4,0.1,0.5,0.2c1.6,0.6,2.4,2.4,1.8,4
			c-0.1,0.2-0.2,0.4-0.3,0.5l-1,2.1L871.5,88.9z M877.6,89.3c0.5-1.1,0.1-2.5-1-3s-2.5-0.1-3,1c0,0,0,0,0,0l-0.4,0.8l4,2L877.6,89.3
			z"/>
		<path class="st6" d="M880.5,80.3l0.3,1.3l1.7,1.1l-0.7,1.1l-5.8-3.6l0.7-1.1l2.6,1.6l-1.1-4.1l0.9-1.4l1,3.8l4.8-0.2l-0.9,1.4
			L880.5,80.3z"/>
		<path class="st6" d="M879.8,74.2l0.8-1.1l5.6,3.9l-0.8,1.1L879.8,74.2z"/>
		<path class="st6" d="M883.9,71.7l3.9,3.1l-0.8,1l-5.3-4.3l1.1-1.3l5.6,1l-3.9-3.1l0.8-1l5.3,4.3l-1.1,1.3L883.9,71.7z"/>
		<path class="st6" d="M894.4,66.3c0,0.7-0.2,1.4-0.7,1.9c-1.4,1.4-3.6,1.3-5-0.1c-1.3-1.3-1.3-3.4-0.1-4.8c0.9-1.2,2.5-1.4,3.7-0.5
			c0,0,0.1,0,0.1,0.1l-0.9,1c-0.6-0.5-1.5-0.4-2,0.2c0,0,0,0,0,0l-0.1,0.1c-0.9,0.9-0.7,2.1,0.3,3.1c1,1,2.2,1.1,3.1,0.2l0.1-0.1
			c0.6-0.6,0.7-1.5,0.3-2.2l-1.3,1.4l-0.9-0.8l1.5-1.6c0.2-0.3,0.7-0.4,1-0.2c0,0,0.1,0.1,0.1,0.1l2,1.9l-0.8,0.8L894.4,66.3z"/>
		<path class="st6" d="M892,60l1.7-1.6c1.2-1.3,3.2-1.4,4.5-0.2c0.1,0.1,0.3,0.3,0.4,0.4c1.3,1.2,1.3,3.2,0.2,4.4
			c-0.1,0.1-0.3,0.3-0.4,0.4l-1.8,1.6L892,60z M897.4,62.8c0.9-0.8,1-2.2,0.2-3.2c-0.8-0.9-2.2-1-3.2-0.2l0,0l-0.7,0.6l3,3.3
			L897.4,62.8z"/>
		<path class="st6" d="M899.3,58.1c-1-1.5-0.6-3.6,0.9-4.6c1.5-1,3.6-0.6,4.6,0.9c1,1.5,0.6,3.4-0.8,4.5c-1.4,1.1-3.4,0.9-4.5-0.5
			C899.5,58.3,899.4,58.2,899.3,58.1z M903.4,57.9c1-0.7,1-1.9,0.1-3c-0.9-1.2-2-1.4-3-0.7l-0.1,0.1c-1,0.7-1,1.9-0.1,3
			C901.3,58.4,902.4,58.7,903.4,57.9L903.4,57.9z"/>
		<path class="st6" d="M905.9,50.9l2.8,4.6l-1.1,0.7l-3.6-5.8l1.7-1.1L910,53l-1.4-5.4l1.7-1.1l3.6,5.8l-1.1,0.7l-2.8-4.6l1.4,5.5
			l-1.2,0.8L905.9,50.9z"/>
	</g>
	<circle class="st2" cx="920.2" cy="116.9" r="20.7"/>
	<g>
		<path class="st6" d="M1056.2,470.9l-0.7,2.3l-1.1-0.3l1.8-5.8l1.1,0.3l-0.7,2.3l5.4,1.6l-0.4,1.3L1056.2,470.9z"/>
		<path class="st6" d="M1060.7,467.4l-4.2-1.5l0.4-1.2l4,1.4c1,0.4,1.6,0.1,1.9-0.7l0-0.1c0.3-0.8,0-1.4-1-1.7l-4-1.4l0.4-1.2
			l4.2,1.5c1.5,0.5,2.1,1.6,1.5,3.4C1063.4,467.5,1062.2,467.9,1060.7,467.4z"/>
		<path class="st6" d="M1058.9,459.3l1.2-3c0.3-1,1.4-1.6,2.4-1.3c0,0,0,0,0.1,0c0.7,0.2,1.2,0.9,1.2,1.7c0.3-0.7,0.7-0.9,1.3-0.6
			l2.1,0.8l-0.5,1.2l-1.8-0.7c-0.5-0.2-0.6-0.1-0.8,0.4l-0.7,1.8l2.4,1l-0.5,1.2L1058.9,459.3z M1062.8,457.8
			c0.3-0.7,0.1-1.2-0.5-1.5c-0.6-0.2-1,0-1.3,0.7l-0.5,1.4l1.8,0.7L1062.8,457.8z"/>
		<path class="st6" d="M1065.9,452.4l0.5,1.2l1.9,0.8l-0.5,1.2l-6.2-2.8l0.5-1.2l2.8,1.2l-1.6-3.9l0.7-1.5l1.5,3.6l4.8-0.9l-0.7,1.5
			L1065.9,452.4z"/>
		<path class="st6" d="M1064.3,446.6l2.3-4.6l1,0.5l-1.7,3.5l1.4,0.7l1.4-2.9l1,0.5l-1.4,2.9l1.6,0.8l1.7-3.5l1.1,0.5l-2.3,4.7
			L1064.3,446.6z"/>
		<path class="st6" d="M1074.1,442.3l-2.4-1.3l-4.8,0.3l0.7-1.3l3.4-0.2l-1.7-2.9l0.7-1.3l2.4,4.2l2.4,1.3L1074.1,442.3z"/>
	</g>
	<circle class="st1" cx="1224.1" cy="269" r="71.5"/>
	<circle class="st2" cx="1236.3" cy="263.3" r="27.5"/>
	<circle class="st1" cx="1769.9" cy="601.3" r="33.9"/>
	<g>
		<path class="st6" d="M1735.9,568.9l2.1-2.2c0.8-0.9,2.2-0.9,3-0.1c0.9,0.8,0.9,2.2,0.1,3c0,0,0,0-0.1,0.1l-1.2,1.3l1.8,1.7l-0.9,1
			L1735.9,568.9z M1740.2,569c0.4-0.4,0.4-1,0-1.4c-0.4-0.4-1-0.4-1.4,0c0,0,0,0-0.1,0.1l-1.1,1.2l1.4,1.4L1740.2,569z"/>
		<path class="st6" d="M1741.1,563.8l1.1-0.8l1.7,2.3l2.4-1.8l-1.7-2.3l1.1-0.8l4.1,5.5l-1.1,0.8l-1.7-2.3l-2.4,1.8l1.7,2.3
			l-1.1,0.8L1741.1,563.8z"/>
		<path class="st6" d="M1747.6,559.3l1.1-0.6l3.3,6l-1.1,0.6L1747.6,559.3z"/>
		<path class="st6" d="M1750.7,557.7l1.2-0.5l2.2,5.2l3.6-1.5l0.5,1.1l-4.8,2L1750.7,557.7z"/>
		<path class="st6" d="M1757,555.3l1.3-0.4l1.9,6.6l-1.3,0.4L1757,555.3z"/>
		<path class="st6" d="M1760.4,554.3l3-0.5c1.2-0.2,2.3,0.6,2.5,1.7c0.2,1.2-0.6,2.3-1.7,2.5c0,0-0.1,0-0.1,0l-1.7,0.3l0.4,2.5
			l-1.3,0.2L1760.4,554.3z M1763.8,556.9c0.5-0.1,0.9-0.5,0.9-1.1c-0.1-0.5-0.5-0.9-1.1-0.9c0,0-0.1,0-0.1,0l-1.6,0.3l0.3,1.9
			L1763.8,556.9z"/>
		<path class="st6" d="M1767.6,553.3l3.1,0c1.2,0,2.2,1,2.2,2.1c0,1.2-1,2.2-2.1,2.2c0,0-0.1,0-0.1,0l-1.8,0l0,2.5l-1.3,0
			L1767.6,553.3z M1770.5,556.5c0.5,0,1-0.4,1-0.9s-0.4-1-0.9-1c0,0-0.1,0-0.1,0l-1.6,0l0,2L1770.5,556.5z"/>
		<path class="st6" d="M1774.5,553.6l1.3,0.2l-0.8,6.8l-1.3-0.2L1774.5,553.6z"/>
		<path class="st6" d="M1778.9,556.1l-1.2,4.9l-1.3-0.3l1.7-6.6l1.7,0.4l1.4,5.5l1.2-4.9l1.3,0.3l-1.7,6.6l-1.7-0.4L1778.9,556.1z"
			/>
		<path class="st6" d="M1786,556.3l4.7,2.1l-0.5,1.1l-3.5-1.6l-0.6,1.4l3,1.3l-0.5,1.1l-3-1.3l-0.7,1.6l3.6,1.6l-0.5,1.1l-4.8-2.2
			L1786,556.3z"/>
		<path class="st6" d="M1793.9,561.7L1793.9,561.7c-0.7-0.5-1.3-0.4-1.5,0c-0.2,0.4-0.2,0.7,0.3,1.1l0.7,0.7
			c0.9,0.6,1.1,1.8,0.5,2.7c-0.6,1-1.9,1.2-3.3,0.3c-1.6-1-1.7-2.3-1-3.5l1.1,0.7c-0.4,0.7-0.1,1.5,0.5,1.8c0,0,0.1,0,0.1,0l0.1,0.1
			c0.6,0.4,1.1,0.3,1.4-0.1c0.2-0.3,0.2-0.6-0.2-1.1l-0.9-0.9c-0.8-0.6-1-1.8-0.4-2.6c0.6-0.9,1.9-1.2,3.3-0.3
			c1.4,0.9,1.6,2.2,0.9,3.3l-1.1-0.7C1794.7,562.8,1794.6,562.1,1793.9,561.7C1794,561.7,1794,561.7,1793.9,561.7z"/>
	</g>
	<circle class="st2" cx="1769.9" cy="601.3" r="27.5"/>
	<circle class="st1" cx="1413.3" cy="320.6" r="59.3"/>
	<circle class="st2" cx="1413" cy="357" r="19.5"/>
	<circle class="st1" cx="878.4" cy="754.4" r="48.5"/>
	<g>
		<path class="st6" d="M894.9,702.5l2.1-6.5l2.9,0.9c1,0.2,1.7,1.1,1.5,2.2c0,0.1,0,0.1,0,0.2c-0.9,0-1.7,0.8-1.7,1.7
			c0,0.6,0.3,1.1,0.8,1.4c-0.4,1-1.5,1.5-2.5,1.1c0,0-0.1,0-0.1,0L894.9,702.5z M898.1,702.3c0.6,0.2,1.1,0,1.2-0.5
			c0.2-0.6-0.1-0.9-0.7-1.1l-1.5-0.5l-0.5,1.6L898.1,702.3z M898.8,699.5c0.6,0.2,1,0,1.2-0.5c0.2-0.5-0.1-0.9-0.7-1.1l-1.4-0.5
			l-0.5,1.6L898.8,699.5z"/>
		<path class="st6" d="M903.8,698.3l2.9,1.3c1,0.4,1.5,1.5,1.1,2.5c0,0,0,0,0,0.1c-0.3,0.7-1,1.2-1.8,1.1c0.7,0.3,0.8,0.8,0.6,1.3
			l-1,2.1l-1.2-0.6l0.8-1.8c0.2-0.4,0.1-0.6-0.3-0.8l-1.7-0.8l-1.1,2.3l-1.2-0.6L903.8,698.3z M905,702.3c0.7,0.3,1.2,0.2,1.5-0.4
			c0.3-0.6,0-1-0.7-1.3l-1.3-0.6l-0.8,1.7L905,702.3z"/>
		<path class="st6" d="M911.1,708.1l-2.4-1.5l-1.4,1l-1.2-0.7l5.9-4.3l1.3,0.8l-1.4,7.2l-1.2-0.7L911.1,708.1z M911.9,704.2
			l-2.2,1.7l1.7,1.1L911.9,704.2z"/>
		<path class="st6" d="M912.1,710.7l0.7-0.9l5.8-1.1l-2.8-2.3l0.7-0.9l4,3.3l-0.7,0.9l-5.8,1.1l3,2.5l-0.7,0.9L912.1,710.7z"/>
		<path class="st6" d="M921.8,710.1l0.9,0.9l-4.8,4.9l-0.9-0.9L921.8,710.1z"/>
		<path class="st6" d="M924.2,712.4l0.9,1l-4.3,3.7l2.5,2.9l-0.9,0.8l-3.4-3.9L924.2,712.4z"/>
	</g>
	<circle class="st2" cx="878.4" cy="754.4" r="40.6"/>
	<circle class="st1" cx="421.2" cy="137.8" r="74.5"/>
	<g>
		<path class="st6" d="M370.2,68.5l-2.3-3.8L369,64l2.2,3.7c0.5,0.9,1.1,1.1,1.9,0.6l0.1,0c0.8-0.4,0.9-1,0.4-2l-2.2-3.7l1.1-0.7
			l2.2,3.8c0.8,1.3,0.5,2.6-1.1,3.5S371,69.9,370.2,68.5z"/>
		<path class="st6" d="M376.2,62.1l2.2,4.5l-1.2,0.6l-3-6.1l1.5-0.8l4.6,3.3l-2.2-4.5l1.2-0.6l3,6.1l-1.5,0.8L376.2,62.1z"/>
		<path class="st6" d="M381.1,57.8l1.2-0.5l2.7,6.3l-1.2,0.5L381.1,57.8z"/>
		<path class="st6" d="M386.1,57l-2.2,0.8l-0.4-1.1l5.7-2.1l0.4,1.1l-2.2,0.8l2,5.3l-1.2,0.5L386.1,57z"/>
		<path class="st6" d="M390.4,54.3l5-1.5l0.3,1.1L392,55l0.4,1.5l3.1-0.9l0.3,1.1l-3.1,0.9l0.5,1.7l3.8-1.1l0.3,1.1l-5.1,1.5
			L390.4,54.3z"/>
		<path class="st6" d="M396.9,52.4l2.3-0.5c1.7-0.5,3.4,0.4,4,2c0.1,0.2,0.1,0.4,0.1,0.6c0.5,1.6-0.4,3.4-2,3.9
			c-0.2,0.1-0.4,0.1-0.6,0.1l-2.3,0.5L396.9,52.4z M400.3,57.4c1.1-0.1,1.9-1,1.8-2.1c0-0.2-0.1-0.4-0.1-0.6c-0.1-1.1-1-1.9-2.1-1.8
			c-0.2,0-0.4,0.1-0.6,0.1l-0.9,0.2l1,4.4L400.3,57.4z"/>
		<path class="st6" d="M409.1,51.2L409.1,51.2c-0.8,0.1-1.2,0.5-1.2,1c0.1,0.4,0.3,0.6,0.9,0.7l1,0.1c1.2,0.1,2,0.6,2.1,1.7
			c0.1,1.2-0.7,2.2-2.3,2.4c-1.9,0.2-2.8-0.6-3.1-2l1.3-0.2c0.1,0.7,0.7,1.1,1.7,1l0.1,0c0.7-0.1,1.1-0.5,1-1c0-0.4-0.2-0.6-0.9-0.6
			l-1.2-0.1c-1,0.1-1.9-0.7-2-1.7c-0.1-1,0.6-2.1,2.3-2.4c1.6-0.2,2.7,0.6,2.8,1.9l-1.3,0.2C410.4,51.5,409.8,51.1,409.1,51.2
			C409.1,51.2,409.1,51.2,409.1,51.2z"/>
		<path class="st6" d="M414.7,50.8l-2.4,0.2l-0.1-1.2l6-0.4l0.1,1.2l-2.4,0.2l0.4,5.6l-1.3,0.1L414.7,50.8z"/>
		<path class="st6" d="M422.8,54.6l-2.9,0l-0.6,1.6l-1.4,0l2.7-6.8l1.5,0l2.7,6.8l-1.4,0L422.8,54.6z M421.4,50.8l-1,2.6l2,0
			L421.4,50.8z"/>
		<path class="st6" d="M426.9,50.6l-2.4-0.1l0.1-1.2l6,0.3l-0.1,1.2l-2.4-0.1l-0.3,5.7l-1.3-0.1L426.9,50.6z"/>
		<path class="st6" d="M431.9,49.8l5.1,0.6l-0.1,1.2l-3.8-0.5l-0.2,1.6l3.2,0.4l-0.1,1.2l-3.2-0.4l-0.2,1.7l3.9,0.5l-0.1,1.2
			l-5.2-0.6L431.9,49.8z"/>
		<path class="st6" d="M440.8,52.2L440.8,52.2c-0.8-0.2-1.3,0.1-1.4,0.6c-0.1,0.4,0.1,0.7,0.7,0.9l1,0.4c1.1,0.4,1.7,1.2,1.5,2.3
			c-0.2,1.1-1.3,1.9-3,1.6c-1.8-0.3-2.5-1.5-2.3-2.9l1.3,0.2c-0.1,0.7,0.3,1.3,1.3,1.5l0.1,0c0.7,0.1,1.2-0.2,1.2-0.6
			c0.1-0.4,0-0.6-0.6-0.9l-1.2-0.5c-1-0.3-1.6-1.3-1.4-2.3c0.2-1,1.3-1.8,2.9-1.5c1.6,0.3,2.4,1.4,2.1,2.7l-1.3-0.2
			C442,52.9,441.5,52.3,440.8,52.2C440.9,52.2,440.9,52.2,440.8,52.2z"/>
	</g>
	<circle class="st2" cx="385.2" cy="178.6" r="18.7"/>
	<circle class="st1" cx="629.6" cy="507.9" r="61"/>
	<g>
		<path class="st6" d="M560.2,541.8c-1.3,0.4-2.6-0.1-3.3-1.7c-0.8-1.9,0-3.6,2-4.4c1.9-0.8,3.7-0.3,4.5,1.7c0.7,1.2,0.3,2.8-1,3.5
			c0,0-0.1,0-0.1,0l-0.5-1.2c0.6-0.4,0.8-1.2,0.5-1.8l0-0.1c-0.4-1-1.5-1.4-2.9-0.9c-1.4,0.6-1.9,1.6-1.4,2.7l0,0.1
			c0.2,0.7,0.9,1.1,1.7,0.9L560.2,541.8z"/>
		<path class="st6" d="M561.6,542.1c1.7-0.8,3.6-0.1,4.4,1.6c0.8,1.7,0.1,3.6-1.6,4.4c-1.6,0.8-3.5,0.1-4.3-1.4
			c-0.9-1.5-0.4-3.5,1.1-4.4C561.4,542.2,561.5,542.2,561.6,542.1z M561.2,546.2c0.6,1.1,1.7,1.3,3,0.6s1.7-1.8,1.1-2.8l0-0.1
			c-0.6-1.1-1.7-1.3-3-0.6C561,544,560.6,545,561.2,546.2L561.2,546.2z"/>
		<path class="st6" d="M568.8,549.7L568.8,549.7c-0.5-0.7-1-0.8-1.4-0.6c-0.4,0.3-0.4,0.6-0.2,1.1l0.4,1c0.6,0.9,0.3,2.1-0.6,2.7
			c-1,0.7-2.3,0.4-3.2-1c-1.1-1.6-0.7-2.8,0.4-3.6l0.7,1.1c-0.6,0.5-0.7,1.3-0.2,1.9c0,0,0,0.1,0.1,0.1l0.1,0.1
			c0.4,0.6,0.9,0.7,1.3,0.5c0.3-0.2,0.4-0.5,0.2-1.1l-0.5-1.2c-0.5-0.9-0.2-2,0.6-2.6c0.8-0.6,2.2-0.4,3.1,1
			c0.9,1.4,0.7,2.7-0.4,3.4l-0.7-1.1C569.1,551,569.2,550.2,568.8,549.7C568.8,549.7,568.8,549.7,568.8,549.7z"/>
		<path class="st6" d="M571.8,553.9l-1.5-1.8l0.9-0.7l3.8,4.7l-0.9,0.7l-1.5-1.8l-4.4,3.6l-0.8-1L571.8,553.9z"/>
		<path class="st6" d="M574.1,562.6l-2-2.1l-1.6,0.7l-1-1l6.8-2.8l1.1,1.1l-3.1,6.6l-1-1L574.1,562.6z M575.8,558.9l-2.5,1.1
			l1.4,1.4L575.8,558.9z"/>
		<path class="st6" d="M581.2,562.1l2.5,2c0.9,0.6,1.1,1.8,0.5,2.7c0,0,0,0,0,0.1c-0.4,0.6-1.3,0.9-2,0.6c0.4,0.2,0.6,0.8,0.4,1.2
			c0,0.1-0.1,0.1-0.1,0.2l-1.4,1.8l-1-0.8l1.2-1.5c0.3-0.4,0.3-0.6-0.1-0.9l-1.5-1.2l-1.6,2l-1-0.8L581.2,562.1z M581.4,566.2
			c0.6,0.5,1.1,0.5,1.5,0c0.4-0.5,0.3-1-0.3-1.5l-1.1-0.9l-1.2,1.5L581.4,566.2z"/>
		<path class="st6" d="M586.3,566l1.1,0.8l-3.9,5.6l-1.1-0.8L586.3,566z"/>
		<path class="st6" d="M591.1,574.5c-0.8,1.1-2.1,1.5-3.7,0.5c-1.8-1.1-2.1-2.9-1-4.7c1.1-1.8,2.8-2.4,4.6-1.3
			c1.3,0.6,1.9,2.1,1.3,3.4c0,0,0,0.1,0,0.1l-1.1-0.7c0.3-0.7,0-1.5-0.7-1.8l-0.1,0c-1-0.6-2.1-0.2-2.8,1c-0.8,1.3-0.5,2.4,0.4,3
			l0.1,0.1c0.6,0.4,1.4,0.3,1.9-0.2L591.1,574.5z"/>
		<path class="st6" d="M595.6,577.4l-2.6-1.2l-1.2,1.2l-1.3-0.6l5.4-5l1.4,0.7l-0.5,7.3l-1.3-0.6L595.6,577.4z M595.9,573.4l-2,1.9
			l1.8,0.8L595.9,573.4z"/>
	</g>
	<circle class="st2" cx="629.5" cy="507.9" r="18.4"/>
</g>
<g>
	<circle class="st1" cx="607" cy="284.1" r="145.7"/>
	<g>
		<path class="st6" d="M712.9,160l-3.7,4l-0.9-0.9l4.6-5l1.5,1.4l-2.4,5.1l4.9-2.8l1.5,1.4l-4.6,5l-0.9-0.9l3.7-4l-4.9,2.8l-1.1-1
			L712.9,160z"/>
		<path class="st6" d="M719.8,164.4l3.6,3.7l-0.8,0.8l-2.7-2.7l-1.1,1.1l2.3,2.3l-0.8,0.8l-2.3-2.3l-1.2,1.2l2.8,2.8l-0.8,0.8
			l-3.7-3.7L719.8,164.4z"/>
		<path class="st6" d="M722.7,173.8l-2.9,0.4l-1-1.1l4.2-0.6l1-3.9l1.1,1.1l-0.6,2.6l2.6-0.4l1,1.1l-3.9,0.6l-1,4.1l-1.1-1.1
			L722.7,173.8z"/>
		<path class="st6" d="M728.7,173.9l0.9,1l-5.1,4.5l-0.9-1L728.7,173.9z"/>
		<path class="st6" d="M730.9,183.6c-1.1,0.8-2.5,0.7-3.6-0.7c-1.3-1.6-1-3.4,0.6-4.8c1.6-1.3,3.5-1.3,4.8,0.3c1,1,1.1,2.6,0.1,3.6
			c0,0,0,0-0.1,0.1l-0.8-1c0.5-0.6,0.5-1.4-0.1-1.9l-0.1-0.1c-0.7-0.9-1.9-0.9-3,0c-1.1,0.9-1.3,2.1-0.6,3l0.1,0.1
			c0.4,0.6,1.2,0.8,1.9,0.4L730.9,183.6z"/>
		<path class="st6" d="M732.3,183.5c1.5-1,3.6-0.6,4.6,0.9c1,1.5,0.6,3.6-0.9,4.6c-1.5,1-3.4,0.7-4.5-0.8c-1.1-1.4-0.9-3.4,0.4-4.5
			C732.1,183.7,732.2,183.6,732.3,183.5z M732.5,187.6c0.7,1,1.9,1,3,0.1s1.4-2,0.7-3l-0.1-0.1c-0.7-1-1.9-1-3-0.1
			C731.9,185.5,731.7,186.6,732.5,187.6L732.5,187.6z"/>
	</g>
	<circle class="st2" cx="582.1" cy="195" r="50.4"/>
</g>
<g>
	<path class="st4" d="M318.5,726.1c0-0.2,0-0.3,0-0.5c0-2.1,0.2-4.1,0.1-6.2c-0.4-7.5-1.6-14.9-1.4-22.4c0.5-12.9-1.5-25.8-5.8-38
		c-0.4-1-0.6-2-0.6-3c1.1-13.5-8-67.9-12.3-76.5c-3.7-7.3-9.1-12.7-17.2-14.5c-4.7-1.1-9.2-3-13.2-5.6c-3.7-2.3-7.4-4.7-11.2-6.7
		c-3.9-1.8-6.7-5.3-7.5-9.5c1.2-1.6,2.8-3.1,3.4-4.8c1.3-3.3,2.4-6.5,3.5-9.9c6-1.3,7.4-11.5,4.4-14.3c-1.5-1.4-2.8-1.2-3.8-0.6
		c0.9-2.7,2.3-12.3,0.2-17.6c-2.9-7.2-11.8-11.5-21-11.7c-9.1-0.2-19.8,3.4-22.8,11.7c-3,8.3-1.4,14-0.5,17.7l0,0
		c-1-0.7-2.4-1.1-4,0.5c-3,2.8-1.5,13.2,4.6,14.4c0.7,2.2,1.5,4.4,2.5,6.5c1.1,2.4,2.4,4.6,3.5,6.9c0.3,0.6,0.9,1.3,0.8,1.8
		c-0.9,3.1-2,6-5.1,7.8c-5.1,2.9-9.9,6.3-15,9.3c-2.3,1.5-4.8,2.6-7.5,3.2c-12.4,2.3-19.2,10.3-22.8,21.6
		c-2.5,7.7-10.9,55.8-9.8,70.2c0,1.1-0.2,2.2-0.6,3.3c-2.9,7.8-4.7,16-5.3,24.3c-0.7,11.3-1.2,22.7-1.7,34c-0.1,2.1-0.3,4.2-0.3,6.2
		c0,0.6,0,1.1,0,1.7h0.1l-0.2,7c0,0,0.2,13.9,1.1,17.8s3.9,9.3,3.9,9.3s3.5,4.5,5.4,5.8c1.9,1.3,4.8,2.8,4,0
		c-0.7-2.7-5.2-6.2-6.1-8.6c1.6,0.6,4.6,1.8,5.3,2c1,0.4,1.1-0.9,1.1-0.9c-0.8-2.5-4.9-5-7.6-6.4c-0.4-2.2-0.3-4.5,0.3-6.7
		c1.2-4.9,2.6-6.9,4.9-6.8c2.3,0.1,2.9,4.7,5.5,6.3s3.3-0.8,3.3-0.8c-2.4-2.6-1.6-8.7-2.4-12.4c-0.5-2.1-1.6-4.1-3.3-5.5
		c0-1.3,0.1-2.5,0.5-3.7c4.1-13.5,8.4-26.9,11.8-40.6c1.7-6.7,1.8-13.9,1.9-20.8c-0.1-2.7,0.2-5.4,1-7.9c2.2-6.3,4.3-12.7,6.4-19.1
		c0.2-0.7,0.5-1.3,0.7-1.9c0.3,0,0.6,0,0.9,0.1c1,13.8,2.3,27.5,3,41.3c0.4,6.8,0.2,13.6-0.5,20.4c-1.7,15.4-4.5,30.8-5.6,46.2
		c-1.5,19.9,1.7,39.6,5.8,58.9c2.7,11.7,4,23.7,3.9,35.7c0,3.5-1,7-1.7,10.6c-0.6,3.3-1.6,6.6-2,10c-1.5,13.2,0.4,26.2,3.8,38.8
		c2.9,10.8,6.7,21.3,10.3,31.9c1.7,5.1,3.5,10.1,3.8,15.4c-1.1,2.9-1.9,5.9-2.2,9c-0.2,3.8-12.1,12.2-13.8,16.8s0.9,5.5,0.9,5.5
		h29.5c3,0,4.7-2.3,4.7-6c0-3.6-3.3-24-3.5-25.7c-1.4-17.5-1.9-35.1,0.6-52.6c1.9-13.3,0.4-26.5-2.5-39.5
		c-1.1-5.2-0.8-10.6,0.9-15.6c1.4-4.2,2.3-8.5,2.7-13c1.9-22.9,3.6-45.9,5.4-68.9c0.2-2.8,0.5-5.7,0.7-8.5c0.4,0.3,0.7,0.8,0.7,1.3
		c1.8,23.4,3.5,46.9,5.4,70.3c0.5,6.2,0.4,12.5,3.1,18.4c2.3,5.2,2.3,10.6,1.1,16.1c-2.8,12.6-4.3,25.4-2.6,38.4
		c0.7,4.3,1.2,8.6,1.4,12.9c0.2,13.5,0.8,27-0.6,40.4l-0.1,0c0,0-3.5,22.1-3.5,25.8s1.6,6,4.7,6h29.5c0,0,2.6-1,0.9-5.5
		c-1.6-4.5-13.5-12.9-13.8-16.8c-0.4-3.1-1.1-6.1-2.2-9l-0.1,0c0.2-5.3,1.9-10.3,3.9-15.3c4.9-12,8.7-24.4,11.5-37.1
		c2.6-12.5,4.3-25.1,1.9-37.8c-0.8-4.5-2.7-9-3-13.5c-0.6-13.1,1.3-25.9,3.8-38.9c4.3-21.9,8.3-44,4.9-66.5
		c-1.4-9.5-2.3-19-3.3-28.5c-0.8-7.8-2.1-15.6-2-23.4c0.1-10.4,1.1-20.8,2-31.2c0.4-5.3,1.3-10.5,2-15.7c3.2,7.8,5.9,15.6,8.5,23.4
		c0.1,0.6,0.1,1.1,0.1,1.7c0.1,5.8-0.4,11.8,0.5,17.5c2.4,16.1,7.6,31.4,12.8,46.8c0.4,1.3,0.6,2.6,0.6,4c-1.7,1.5-3,3.5-3.5,5.7
		c-0.8,3.6,0.1,9.8-2.4,12.4c0,0,0.7,2.4,3.3,0.8s3.2-6.2,5.5-6.3s3.7,2,4.9,6.8c0.5,2.2,0.6,4.5,0.3,6.7c-2.7,1.4-6.8,3.9-7.6,6.4
		c0,0,0,1.3,1.1,0.9c0.8-0.3,3.7-1.4,5.3-2c-0.9,2.4-5.3,5.9-6.1,8.6c-0.8,2.8,2.1,1.3,4,0s5.4-5.8,5.4-5.8s3.1-5.5,3.9-9.3
		c0.9-3.8,1.1-17.8,1.1-17.8L318.5,726.1z"/>
	<circle id="Teeth_2" class="st2" cx="234.6" cy="539.7" r="11.8"/>
	<line class="st7" x1="234.6" y1="539.7" x2="345.8" y2="564.5"/>
	<rect x="345.3" y="550.6" class="st8" width="67.1" height="26.5"/>
	<g>
		<path class="st0" d="M358.9,559.6h-3.4v-1.7h8.7v1.7h-3.4v8.1h-1.9L358.9,559.6z"/>
		<path class="st0" d="M365.6,557.9h7.4v1.7h-5.5v2.3h4.7v1.7h-4.7v2.5h5.7v1.7h-7.6V557.9z"/>
		<path class="st0" d="M374.8,557.9h7.4v1.7h-5.5v2.3h4.7v1.7h-4.7v2.5h5.7v1.7h-7.6V557.9z"/>
		<path class="st0" d="M386.6,559.6h-3.4v-1.7h8.7v1.7h-3.4v8.1h-1.9V559.6z"/>
		<path class="st0" d="M393.3,557.9h1.9v4.1h4.3v-4.1h1.9v9.8h-1.9v-4.1h-4.3v4.1h-1.9V557.9z"/>
	</g>
	<circle class="st6" cx="234.6" cy="539.7" r="2.9"/>
</g>
<g>
	<rect x="815.5" y="739.1" class="st9" width="125.8" height="30.6"/>
	<g>
		<path class="st6" d="M830.1,748.4c-0.1,1.8-1.5,3.1-3.7,3.1c-2.7,0-4.3-1.9-4.3-4.7s1.6-4.7,4.3-4.7c2.2,0,3.6,1.3,3.7,3.1h-1.6
			c-0.1-1-1.1-1.8-2.1-1.7h-0.1c-1.7,0-2.7,1.3-2.7,3.3s1,3.3,2.7,3.3h0.1c1,0.1,2-0.6,2.1-1.7H830.1z"/>
		<path class="st6" d="M837.1,751.3h-1.5v-1.1c-0.6,1.1-1.9,1.5-3,0.9c-0.8-0.4-1.3-1.3-1.2-2.2v-4.2h1.5v4c0,0.9,0.4,1.4,1.1,1.4
			h0.1c0.9-0.1,1.6-0.9,1.5-1.8v-3.6h1.5V751.3z"/>
		<path class="st6" d="M839,744.8h1.5v1.4c0.2-0.9,1-1.4,1.9-1.4h0.4v1.4h-0.6c-0.9-0.1-1.7,0.6-1.8,1.4c0,0.1,0,0.3,0,0.4v3.3H839
			V744.8z"/>
		<path class="st6" d="M843.9,742.2h1.6v1.6h-1.6V742.2z M843.9,744.8h1.5v6.5h-1.5V744.8z"/>
		<path class="st6" d="M851.1,751.3h-1.6c-0.8,0.1-1.5-0.5-1.6-1.2c0-0.1,0-0.2,0-0.3v-3.7h-1.4v-1.2h1.4v-2.1h1.5v2.1h1.5v1.2h-1.5
			v3.3c0,0.5,0.1,0.6,0.6,0.6h1.1V751.3z"/>
		<path class="st6" d="M852.3,742.2h1.6v1.6h-1.6V742.2z M852.4,744.8h1.5v6.5h-1.5L852.4,744.8z"/>
		<path class="st6" d="M859.2,751.5c-0.8,0-1.5-0.4-2-1v0.9h-1.5v-9.1h1.5v3.5c0.4-0.6,1.2-1,1.9-1c1.8,0,2.9,1.5,2.9,3.4
			S861,751.5,859.2,751.5z M858.8,750.3h0.1c0.9,0,1.6-0.8,1.6-2.2c0-1.4-0.7-2.1-1.6-2.1h-0.1c-0.8,0-1.6,0.8-1.6,2.2
			S858,750.3,858.8,750.3z"/>
		<path class="st6" d="M865.2,751.5c-1.1,0.1-2-0.7-2.1-1.8c0,0,0-0.1,0-0.1c0-1.4,1.2-2,2.4-2.1l1.7-0.1v-0.2
			c0.1-0.6-0.4-1.2-1-1.2c-0.1,0-0.1,0-0.2,0h-0.1c-0.6-0.1-1.1,0.3-1.2,0.9h-1.5c0.2-1.3,1.4-2.2,2.7-2.1c1.3-0.2,2.5,0.8,2.7,2.1
			c0,0.1,0,0.2,0,0.3v2.8c0,0.5,0,1,0.1,1.4h-1.4c0-0.3-0.1-0.6-0.1-0.9C866.8,751.1,866,751.5,865.2,751.5z M865.5,750.3
			c0.8,0,1.5-0.6,1.6-1.4v-0.4l-1.5,0.1c-0.6,0.1-1.1,0.3-1.1,0.9c0,0.5,0.4,0.8,0.9,0.8C865.4,750.3,865.4,750.3,865.5,750.3
			L865.5,750.3z"/>
		<path class="st6" d="M869.9,753.2v-0.9h0.5c0.4,0,0.8-0.3,0.8-0.7c0-0.1,0-0.1,0-0.2v-0.2h-0.8v-1.7h1.7v2c0,0.9-0.7,1.6-1.5,1.7
			c0,0-0.1,0-0.1,0H869.9z"/>
		<path class="st6" d="M877.1,742.2h6.5v1.4h-5v2.6h4.3v1.4h-4.3v3.7h-1.6V742.2z"/>
		<path class="st6" d="M884.3,748.1c0.1-1.8,1.6-3.1,3.4-3s3.1,1.6,3,3.4c-0.1,1.7-1.5,3-3.2,3c-1.7,0-3.2-1.4-3.2-3.1
			C884.2,748.3,884.3,748.2,884.3,748.1z M889.1,748.1c0-1.4-0.7-2.2-1.6-2.2h-0.1c-1,0-1.6,0.8-1.6,2.2s0.7,2.2,1.6,2.2h0.1
			C888.5,750.3,889.1,749.5,889.1,748.1z"/>
		<path class="st6" d="M892.1,744.8h1.5v1.4c0.2-0.9,1-1.4,1.9-1.4h0.4v1.4h-0.6c-0.9-0.1-1.7,0.6-1.8,1.4c0,0.1,0,0.3,0,0.4v3.3
			h-1.5V744.8z"/>
		<path class="st6" d="M900.9,751.3h-1.6c-0.8,0.1-1.5-0.5-1.6-1.2c0-0.1,0-0.2,0-0.3v-3.7h-1.4v-1.2h1.4v-2.1h1.5v2.1h1.5v1.2h-1.5
			v3.3c0,0.5,0.1,0.6,0.6,0.6h1.1V751.3z"/>
		<path class="st6" d="M903.9,751.5c-1.1,0.1-2-0.7-2.1-1.8c0,0,0-0.1,0-0.1c0-1.4,1.2-2,2.4-2.1l1.7-0.1v-0.2
			c0.1-0.6-0.4-1.2-1-1.2c-0.1,0-0.1,0-0.2,0h-0.1c-0.6-0.1-1.1,0.3-1.2,0.9h-1.5c0.2-1.3,1.4-2.2,2.7-2.1c1.3-0.2,2.5,0.8,2.7,2.1
			c0,0.1,0,0.2,0,0.3v2.8c0,0.5,0,1,0.1,1.4H906c0-0.3-0.1-0.6-0.1-0.9C905.5,751.1,904.7,751.5,903.9,751.5z M904.2,750.3
			c0.8,0,1.5-0.6,1.6-1.4v-0.4l-1.5,0.1c-0.6,0.1-1.1,0.3-1.1,0.9c0,0.5,0.4,0.8,0.9,0.8C904.1,750.3,904.1,750.3,904.2,750.3
			L904.2,750.3z"/>
		<path class="st6" d="M909.1,742.2h1.5v9.1h-1.5V742.2z"/>
		<path class="st6" d="M915.1,751.5c-1.7,0-3.1-1.4-3.1-3.1c0-0.1,0-0.2,0-0.3c-0.2-1.7,1-3.2,2.7-3.4c0.1,0,0.2,0,0.3,0
			c1.6-0.1,2.9,1.2,2.9,2.7c0,0.1,0,0.3,0,0.4c0,0.1,0,0.5,0,0.7h-4.5c0,0.9,0.7,1.7,1.6,1.8h0.1c0.6,0,1.1-0.3,1.3-0.9h1.5
			C917.7,750.7,916.4,751.6,915.1,751.5z M916.5,747.3c0-0.7-0.6-1.4-1.3-1.4c0,0-0.1,0-0.1,0H915c-0.8,0-1.4,0.6-1.5,1.4H916.5z"/>
		<path class="st6" d="M919,751.3v-1.2l3.5-4H919v-1.3h5.3v1.2l-3.5,4h3.7v1.3H919z"/>
		<path class="st6" d="M927.6,751.5c-1.1,0.1-2-0.7-2.1-1.8c0,0,0-0.1,0-0.1c0-1.4,1.2-2,2.4-2.1l1.7-0.1v-0.2
			c0.1-0.6-0.4-1.2-1-1.2c-0.1,0-0.1,0-0.2,0h-0.1c-0.6-0.1-1.1,0.3-1.2,0.9h-1.5c0.2-1.3,1.4-2.2,2.7-2.1c1.3-0.2,2.5,0.8,2.7,2.1
			c0,0.1,0,0.2,0,0.3v2.8c0,0.5,0,1,0.1,1.4h-1.4c0-0.3-0.1-0.6-0.1-0.9C929.2,751.1,928.4,751.5,927.6,751.5z M928,750.3
			c0.8,0,1.5-0.6,1.6-1.4v-0.4l-1.5,0.1c-0.6,0.1-1.1,0.3-1.1,0.9c0,0.5,0.4,0.8,0.9,0.8C927.9,750.3,927.9,750.3,928,750.3
			L928,750.3z"/>
		<path class="st6" d="M932.3,753.2v-0.9h0.5c0.4,0,0.8-0.3,0.8-0.7c0-0.1,0-0.1,0-0.2v-0.2h-0.8v-1.7h1.7v2c0,0.9-0.7,1.6-1.5,1.7
			c0,0-0.1,0-0.1,0H932.3z"/>
		<path class="st6" d="M830.7,763.6c-0.6,0.8-1.6,1.3-2.7,1.2c-2.6,0-4.3-2-4.3-4.7c-0.2-2.4,1.6-4.5,4-4.7c0.1,0,0.3,0,0.4,0
			c2.3,0,3.7,1.4,3.8,3.2h-1.6c-0.1-1.1-1-1.9-2.1-1.8c0,0-0.1,0-0.1,0h-0.1c-1.7,0-2.8,1.3-2.8,3.3c0,2,1.1,3.3,2.8,3.3h0.1
			c1.2,0.1,2.3-0.7,2.5-1.9l0-0.1h-2.5v-1.4h2.8c0.5-0.1,1,0.3,1.1,0.9c0,0.1,0,0.2,0,0.2v3.6h-1.4V763.6z"/>
		<path class="st6" d="M833.3,761.3c0.1-1.8,1.6-3.1,3.4-3s3.1,1.6,3,3.4c-0.1,1.7-1.5,3-3.2,3c-1.7,0-3.2-1.4-3.2-3.1
			C833.3,761.5,833.3,761.4,833.3,761.3z M838.2,761.3c0-1.4-0.7-2.2-1.6-2.2h-0.1c-1,0-1.6,0.8-1.6,2.2s0.7,2.2,1.6,2.2h0.1
			C837.5,763.5,838.2,762.7,838.2,761.3z"/>
		<path class="st6" d="M841.1,755.5h1.6v1.6h-1.6V755.5z M841.1,758.1h1.5v6.5h-1.5V758.1z"/>
		<path class="st6" d="M846.1,764.7c-1.1,0.1-2-0.7-2.1-1.8c0,0,0-0.1,0-0.1c0-1.4,1.2-2,2.4-2.1l1.7-0.1v-0.2
			c0.1-0.6-0.4-1.2-1-1.2c-0.1,0-0.1,0-0.2,0h-0.1c-0.6-0.1-1.1,0.3-1.2,0.9h-1.5c0.2-1.3,1.4-2.2,2.7-2.1c1.3-0.2,2.5,0.8,2.7,2.1
			c0,0.1,0,0.2,0,0.3v2.8c0,0.5,0,1,0.1,1.4h-1.4c0-0.3-0.1-0.6-0.1-0.9C847.7,764.4,846.9,764.7,846.1,764.7z M846.9,756.4l-1.3,1
			h-1l1.4-1.9h1.8l1.4,1.9h-1L846.9,756.4z M846.5,763.5c0.8,0,1.5-0.6,1.6-1.4v-0.4l-1.5,0.1c-0.6,0.1-1.1,0.3-1.1,0.9
			c0,0.5,0.4,0.8,0.9,0.8C846.4,763.5,846.4,763.5,846.5,763.5L846.5,763.5z"/>
		<path class="st6" d="M852.8,764.6h-1.5v-6.5h1.5v0.9c0.4-0.7,1.2-1.1,2-1.1c1.2-0.1,2.2,0.8,2.3,2c0,0.1,0,0.3,0,0.4v4.2h-1.5v-4
			c0-0.9-0.4-1.4-1.1-1.4h-0.1c-0.9,0.1-1.6,0.8-1.6,1.7c0,0,0,0,0,0L852.8,764.6z"/>
		<path class="st6" d="M858.8,755.5h1.6v1.6h-1.6V755.5z M858.9,758.1h1.5v6.5h-1.5V758.1z"/>
		<path class="st6" d="M863.9,764.7c-1.1,0.1-2-0.7-2.1-1.8c0,0,0-0.1,0-0.1c0-1.4,1.2-2,2.4-2.1l1.7-0.1v-0.2
			c0.1-0.6-0.4-1.2-1-1.2c-0.1,0-0.1,0-0.2,0h-0.1c-0.6-0.1-1.1,0.3-1.2,0.9h-1.5c0.2-1.3,1.4-2.2,2.7-2.1c1.3-0.2,2.5,0.8,2.7,2.1
			c0,0.1,0,0.2,0,0.3v2.8c0,0.5,0,1,0.1,1.4H866c0-0.3-0.1-0.6-0.1-0.9C865.5,764.4,864.7,764.7,863.9,764.7z M864.3,763.5
			c0.8,0,1.5-0.6,1.6-1.4v-0.4l-1.5,0.1c-0.6,0.1-1.1,0.3-1.1,0.9c0,0.5,0.4,0.8,0.9,0.8C864.1,763.5,864.2,763.5,864.3,763.5
			L864.3,763.5z"/>
		<path class="st6" d="M868.6,766.5v-0.9h0.5c0.4,0,0.8-0.3,0.8-0.7c0-0.1,0-0.1,0-0.2v-0.2H869v-1.7h1.7v2c0,0.9-0.7,1.6-1.5,1.7
			c0,0-0.1,0-0.1,0H868.6z"/>
		<path class="st6" d="M879,756.8h-0.1c-1,0-1.7,0.6-1.7,1.2c0,0.7,0.4,1,1.2,1.1l1.4,0.3c1.6,0.3,2.5,1.1,2.5,2.6
			c0,1.6-1.3,2.7-3.4,2.7c-2.4,0-3.6-1.2-3.7-3.1h1.6c0,1.1,0.8,1.7,2.2,1.7h0.1c1.1,0,1.7-0.6,1.7-1.2c0-0.6-0.3-1-1.2-1.2
			l-1.5-0.3c-1.3-0.1-2.4-1.2-2.3-2.6c0-1.4,1.2-2.7,3.4-2.7s3.4,1.2,3.4,2.9h-1.6C880.7,757.4,879.9,756.7,879,756.8
			C879,756.7,879,756.7,879,756.8z"/>
		<path class="st6" d="M885.5,764.7c-1.1,0.1-2-0.7-2.1-1.8c0,0,0-0.1,0-0.1c0-1.4,1.2-2,2.4-2.1l1.7-0.1v-0.2
			c0.1-0.6-0.4-1.2-1-1.2c-0.1,0-0.1,0-0.2,0h-0.1c-0.6-0.1-1.1,0.3-1.2,0.9h-1.5c0.2-1.3,1.4-2.2,2.7-2.1c1.3-0.2,2.5,0.8,2.7,2.1
			c0,0.1,0,0.2,0,0.3v2.8c0,0.5,0,1,0.1,1.4h-1.4c0-0.3-0.1-0.6-0.1-0.9C887.1,764.4,886.3,764.7,885.5,764.7z M887.6,755.6h1.1v0.3
			c0,0.8-0.6,1.4-1.3,1.4c0,0,0,0,0,0c-0.4,0-0.8-0.2-1.1-0.4l-0.3-0.2c-0.2-0.1-0.4-0.2-0.6-0.2c-0.2,0-0.4,0.2-0.4,0.6h-1.1v-0.3
			c0-0.8,0.6-1.4,1.4-1.4c0,0,0,0,0,0c0.4,0,0.7,0.1,1,0.3l0.3,0.1c0.2,0.1,0.4,0.2,0.6,0.3C887.5,756.2,887.6,756,887.6,755.6z
			 M885.9,763.5c0.8,0,1.5-0.6,1.6-1.4v-0.4l-1.5,0.1c-0.6,0.1-1.1,0.3-1.1,0.9c0,0.5,0.4,0.8,0.9,0.8
			C885.7,763.5,885.8,763.5,885.9,763.5L885.9,763.5z"/>
		<path class="st6" d="M890.3,761.3c0.1-1.8,1.6-3.1,3.4-3s3.1,1.6,3,3.4c-0.1,1.7-1.5,3-3.2,3c-1.7,0-3.2-1.4-3.2-3.1
			C890.3,761.5,890.3,761.4,890.3,761.3z M895.2,761.3c0-1.4-0.7-2.2-1.6-2.2h-0.1c-1,0-1.6,0.8-1.6,2.2s0.7,2.2,1.6,2.2h0.1
			C894.5,763.5,895.2,762.7,895.2,761.3z"/>
		<path class="st6" d="M901.4,755.5h4c1.6-0.1,2.9,1.2,2.9,2.7c0.1,1.6-1.2,2.9-2.7,2.9c-0.1,0-0.1,0-0.2,0H903v3.5h-1.6V755.5z
			 M905.2,759.7c0.7,0.1,1.4-0.4,1.5-1.2c0-0.1,0-0.2,0-0.3c0-0.9-0.5-1.4-1.6-1.4H903v2.9H905.2z"/>
		<path class="st6" d="M911.2,764.7c-1.1,0.1-2-0.7-2.1-1.8c0,0,0-0.1,0-0.1c0-1.4,1.2-2,2.4-2.1l1.7-0.1v-0.2
			c0.1-0.6-0.4-1.2-1-1.2c-0.1,0-0.1,0-0.2,0h-0.1c-0.6-0.1-1.1,0.3-1.2,0.9h-1.5c0.2-1.3,1.4-2.2,2.7-2.1c1.3-0.2,2.5,0.8,2.7,2.1
			c0,0.1,0,0.2,0,0.3v2.8c0,0.5,0,1,0.1,1.4h-1.4c0-0.3-0.1-0.6-0.1-0.9C912.7,764.4,912,764.7,911.2,764.7z M911.5,763.5
			c0.8,0,1.5-0.6,1.6-1.4v-0.4l-1.5,0.1c-0.6,0.1-1.1,0.3-1.1,0.9c0,0.5,0.4,0.8,0.9,0.8C911.4,763.5,911.4,763.5,911.5,763.5
			L911.5,763.5z"/>
		<path class="st6" d="M922,764.6h-1.5v-1.1c-0.6,1.1-1.9,1.5-3,0.9c-0.8-0.4-1.3-1.3-1.2-2.2v-4.2h1.5v4c0,0.9,0.4,1.4,1.1,1.4h0.1
			c0.9-0.1,1.6-0.9,1.5-1.8v-3.6h1.5V764.6z"/>
		<path class="st6" d="M923.8,755.5h1.5v9.1h-1.5V755.5z"/>
		<path class="st6" d="M926.7,761.3c0.1-1.8,1.6-3.1,3.4-3s3.1,1.6,3,3.4c-0.1,1.7-1.5,3-3.2,3c-1.7,0-3.2-1.4-3.2-3.1
			C926.7,761.5,926.7,761.4,926.7,761.3z M931.6,761.3c0-1.4-0.7-2.2-1.6-2.2h-0.1c-1,0-1.6,0.8-1.6,2.2s0.7,2.2,1.6,2.2h0.1
			C930.9,763.5,931.6,762.7,931.6,761.3z"/>
	</g>
	<rect x="637" y="621.5" class="st9" width="138.1" height="30.6"/>
	<g>
		<path class="st6" d="M669.3,633.7v-9.1h4c1.3-0.2,2.6,0.8,2.7,2.2c0,0.1,0,0.1,0,0.2c0,1-0.6,1.8-1.5,2.1c1.1,0.2,1.8,1.1,1.7,2.2
			c-0.1,1.4-1.2,2.5-2.6,2.5c0,0-0.1,0-0.1,0H669.3z M673.1,628.4c0.9,0,1.4-0.4,1.4-1.2c0-0.8-0.5-1.2-1.4-1.2h-2.2v2.4
			L673.1,628.4z M673.2,632.3c0.9,0,1.5-0.4,1.5-1.3s-0.6-1.3-1.5-1.3h-2.3v2.5H673.2z"/>
		<path class="st6" d="M677.4,630.5c0.1-1.8,1.6-3.1,3.4-3s3.1,1.6,3,3.4c-0.1,1.7-1.5,3-3.2,3c-1.7,0-3.2-1.4-3.2-3.1
			C677.4,630.6,677.4,630.5,677.4,630.5z M682.2,630.5c0-1.4-0.7-2.2-1.6-2.2h-0.1c-1,0-1.6,0.8-1.6,2.2s0.7,2.2,1.6,2.2h0.1
			C681.6,632.6,682.2,631.8,682.2,630.5z"/>
		<path class="st6" d="M684.7,634.5h1.5c0.1,0.5,0.7,0.9,1.6,0.9h0.1c0.9,0.1,1.6-0.6,1.7-1.4c0-0.1,0-0.2,0-0.3v-0.9
			c-0.4,0.6-1.1,1-1.9,1c-1.5,0-2.8-1.1-2.8-3.3c0-2.2,1.3-3.3,2.8-3.3c0.8,0,1.5,0.3,1.9,1v-0.8h1.5v6.6c0,1.5-1.1,2.8-3.3,2.8
			C686,636.5,684.8,635.7,684.7,634.5z M688,632.5c0.8,0,1.5-0.8,1.5-2.1c0-1.3-0.7-2.1-1.5-2.1h-0.1c-0.9,0-1.6,0.7-1.6,2.1
			c0,1.4,0.7,2.1,1.6,2.1H688z"/>
		<path class="st6" d="M692.5,630.5c0.1-1.8,1.6-3.1,3.4-3s3.1,1.6,3,3.4c-0.1,1.7-1.5,3-3.2,3c-1.7,0-3.2-1.4-3.2-3.1
			C692.5,630.6,692.5,630.5,692.5,630.5z M697.3,630.5c0-1.4-0.7-2.2-1.6-2.2h-0.1c-1,0-1.6,0.8-1.6,2.2s0.7,2.2,1.6,2.2h0.1
			C696.7,632.6,697.3,631.8,697.3,630.5z"/>
		<path class="st6" d="M704,633.7h-1.6c-0.8,0.1-1.5-0.5-1.6-1.2c0-0.1,0-0.2,0-0.3v-3.7h-1.4v-1.2h1.4v-2.1h1.5v2.1h1.5v1.2h-1.5
			v3.3c0,0.5,0.1,0.6,0.6,0.6h1.1V633.7z"/>
		<path class="st6" d="M707,633.8c-1.1,0.1-2-0.7-2.1-1.8c0,0,0-0.1,0-0.1c0-1.4,1.2-2,2.4-2.1l1.7-0.1v-0.2c0.1-0.6-0.4-1.2-1-1.2
			c-0.1,0-0.1,0-0.2,0h-0.1c-0.6-0.1-1.1,0.3-1.2,0.9H705c0.2-1.3,1.4-2.2,2.7-2.1c1.3-0.2,2.5,0.8,2.7,2.1c0,0.1,0,0.2,0,0.3v2.8
			c0,0.5,0,1,0.1,1.4h-1.4c0-0.3-0.1-0.6-0.1-0.9C708.6,633.5,707.8,633.9,707,633.8z M707.4,632.6c0.8,0,1.5-0.6,1.6-1.4v-0.4
			l-1.5,0.1c-0.6,0.1-1.1,0.3-1.1,0.9c0,0.5,0.4,0.8,0.9,0.8C707.3,632.6,707.3,632.6,707.4,632.6L707.4,632.6z M707.7,624.6h1.7
			l-1.2,1.9h-0.9L707.7,624.6z"/>
		<path class="st6" d="M711.7,635.6v-0.9h0.5c0.4,0,0.8-0.3,0.8-0.7c0-0.1,0-0.1,0-0.2v-0.2h-0.8V632h1.7v2c0,0.9-0.7,1.6-1.5,1.7
			c0,0-0.1,0-0.1,0H711.7z"/>
		<path class="st6" d="M726.5,630.8c-0.1,1.8-1.5,3.1-3.7,3.1c-2.7,0-4.3-1.9-4.3-4.7s1.6-4.7,4.3-4.7c2.2,0,3.6,1.3,3.7,3.1h-1.6
			c-0.1-1-1.1-1.8-2.1-1.7h-0.1c-1.7,0-2.7,1.3-2.7,3.3s1,3.3,2.7,3.3h0.1c1,0.1,2-0.6,2.1-1.7H726.5z"/>
		<path class="st6" d="M729.6,633.8c-1.1,0.1-2-0.7-2.1-1.8c0,0,0-0.1,0-0.1c0-1.4,1.2-2,2.4-2.1l1.7-0.1v-0.2
			c0.1-0.6-0.4-1.2-1-1.2c-0.1,0-0.1,0-0.2,0h-0.1c-0.6-0.1-1.1,0.3-1.2,0.9h-1.5c0.2-1.3,1.4-2.2,2.7-2.1c1.3-0.2,2.5,0.8,2.7,2.1
			c0,0.1,0,0.2,0,0.3v2.8c0,0.5,0,1,0.1,1.4h-1.4c0-0.3-0.1-0.6-0.1-0.9C731.2,633.5,730.4,633.9,729.6,633.8z M730,632.6
			c0.8,0,1.5-0.6,1.6-1.4v-0.4l-1.5,0.1c-0.6,0.1-1.1,0.3-1.1,0.9c0,0.5,0.4,0.8,0.9,0.8C729.9,632.6,729.9,632.6,730,632.6
			L730,632.6z"/>
		<path class="st6" d="M734.8,624.6h1.5v9.1h-1.5V624.6z"/>
		<path class="st6" d="M738.1,624.6h1.6v1.6h-1.6V624.6z M738.1,627.2h1.5v6.5h-1.5V627.2z"/>
		<path class="st6" d="M740.9,635.6v-0.9h0.5c0.4,0,0.8-0.3,0.8-0.7c0-0.1,0-0.1,0-0.2v-0.2h-0.8V632h1.7v2c0,0.9-0.7,1.6-1.5,1.7
			c0,0-0.1,0-0.1,0H740.9z"/>
		<path class="st6" d="M654.8,644c-0.1,1.8-1.5,3.1-3.7,3.1c-2.7,0-4.3-1.9-4.3-4.7s1.6-4.7,4.3-4.7c2.2,0,3.6,1.3,3.7,3.1h-1.6
			c-0.1-1-1.1-1.8-2.1-1.7h-0.1c-1.7,0-2.7,1.3-2.7,3.3c0,1.9,1,3.3,2.7,3.3h0.1c1,0.1,2-0.6,2.1-1.7H654.8z"/>
		<path class="st6" d="M657.9,647.1c-1.1,0.1-2-0.7-2.1-1.8c0,0,0-0.1,0-0.1c0-1.4,1.2-2,2.4-2.1l1.7-0.1v-0.2
			c0.1-0.6-0.4-1.2-1-1.2c-0.1,0-0.1,0-0.2,0h-0.1c-0.6-0.1-1.1,0.3-1.2,0.9h-1.5c0.2-1.3,1.4-2.2,2.7-2.1c1.3-0.2,2.5,0.8,2.7,2.1
			c0,0.1,0,0.2,0,0.3v2.8c0,0.5,0,1,0.1,1.4H660c0-0.3-0.1-0.6-0.1-0.9C659.5,646.7,658.7,647.1,657.9,647.1z M658.3,645.9
			c0.8,0,1.5-0.6,1.6-1.4V644l-1.5,0.1c-0.6,0.1-1.1,0.3-1.1,0.9c0,0.5,0.4,0.8,0.9,0.8C658.1,645.9,658.2,645.9,658.3,645.9
			L658.3,645.9z"/>
		<path class="st6" d="M663.1,640.4h1.5v1.4c0.2-0.9,1-1.4,1.9-1.4h0.4v1.4h-0.6c-0.9-0.1-1.7,0.6-1.8,1.4c0,0.1,0,0.3,0,0.4v3.3
			h-1.5V640.4z"/>
		<path class="st6" d="M671.9,646.9h-1.6c-0.8,0.1-1.5-0.5-1.6-1.2c0-0.1,0-0.2,0-0.3v-3.7h-1.4v-1.2h1.4v-2.1h1.5v2.1h1.5v1.2h-1.5
			v3.3c0,0.5,0.1,0.6,0.6,0.6h1.1V646.9z"/>
		<path class="st6" d="M674.9,647.1c-1.1,0.1-2-0.7-2.1-1.8c0,0,0-0.1,0-0.1c0-1.4,1.2-2,2.4-2.1l1.7-0.1v-0.2
			c0.1-0.6-0.4-1.2-1-1.2c-0.1,0-0.1,0-0.2,0h-0.1c-0.6-0.1-1.1,0.3-1.2,0.9h-1.5c0.2-1.3,1.4-2.2,2.7-2.1c1.3-0.2,2.5,0.8,2.7,2.1
			c0,0.1,0,0.2,0,0.3v2.8c0,0.5,0,1,0.1,1.4H677c0-0.3-0.1-0.6-0.1-0.9C676.5,646.7,675.7,647.1,674.9,647.1z M675.3,645.9
			c0.8,0,1.5-0.6,1.6-1.4V644l-1.5,0.1c-0.6,0.1-1.1,0.3-1.1,0.9c0,0.5,0.4,0.8,0.9,0.8C675.1,645.9,675.2,645.9,675.3,645.9
			L675.3,645.9z"/>
		<path class="st6" d="M679.6,647.7h1.5c0.1,0.5,0.7,0.9,1.6,0.9h0.1c0.9,0.1,1.6-0.6,1.7-1.4c0-0.1,0-0.2,0-0.3V646
			c-0.4,0.6-1.1,1-1.9,1c-1.5,0-2.8-1.1-2.8-3.3s1.3-3.3,2.8-3.3c0.8,0,1.5,0.3,1.9,1v-0.8h1.5v6.6c0,1.5-1.1,2.8-3.3,2.8
			C680.9,649.8,679.7,648.9,679.6,647.7z M682.9,645.7c0.8,0,1.5-0.8,1.5-2.1c0-1.3-0.7-2.1-1.5-2.1h-0.1c-0.9,0-1.6,0.7-1.6,2.1
			c0,1.4,0.7,2.1,1.6,2.1H682.9z"/>
		<path class="st6" d="M690.5,647.1c-1.7,0-3.1-1.4-3.1-3.1c0-0.1,0-0.2,0-0.3c-0.2-1.7,1-3.2,2.7-3.4c0.1,0,0.2,0,0.3,0
			c1.6,0,2.9,1.2,2.9,2.7c0,0.1,0,0.3,0,0.4c0,0.1,0,0.5,0,0.7h-4.5c0,0.9,0.7,1.7,1.6,1.8h0.1c0.6,0,1.1-0.3,1.3-0.9h1.5
			C693,646.3,691.8,647.2,690.5,647.1z M691.9,642.9c0-0.7-0.6-1.4-1.3-1.4c0,0-0.1,0-0.1,0h-0.1c-0.8,0-1.4,0.6-1.5,1.4H691.9z"/>
		<path class="st6" d="M696.2,646.9h-1.5v-6.5h1.5v0.9c0.4-0.7,1.2-1.1,2-1.1c1.2-0.1,2.2,0.8,2.3,2c0,0.1,0,0.3,0,0.4v4.2h-1.5v-4
			c0-0.9-0.4-1.4-1.1-1.4h-0.1c-0.9,0.1-1.6,0.8-1.6,1.7c0,0,0,0,0,0L696.2,646.9z"/>
		<path class="st6" d="M704,647.1c-1.1,0.1-2-0.7-2.1-1.8c0,0,0-0.1,0-0.1c0-1.4,1.2-2,2.4-2.1l1.7-0.1v-0.2c0.1-0.6-0.4-1.2-1-1.2
			c-0.1,0-0.1,0-0.2,0h-0.1c-0.6-0.1-1.1,0.3-1.2,0.9H702c0.2-1.3,1.4-2.2,2.7-2.1c1.3-0.2,2.5,0.8,2.7,2.1c0,0.1,0,0.2,0,0.3v2.8
			c0,0.5,0,1,0.1,1.4h-1.4c0-0.3-0.1-0.6-0.1-0.9C705.6,646.7,704.8,647.1,704,647.1z M704.4,645.9c0.8,0,1.5-0.6,1.6-1.4V644
			l-1.5,0.1c-0.6,0.1-1.1,0.3-1.1,0.9c0,0.5,0.4,0.8,0.9,0.8C704.2,645.9,704.3,645.9,704.4,645.9L704.4,645.9z"/>
		<path class="st6" d="M708.7,648.8v-0.9h0.5c0.4,0,0.8-0.3,0.8-0.7c0-0.1,0-0.1,0-0.2v-0.2h-0.8v-1.7h1.7v2c0,0.9-0.7,1.6-1.5,1.7
			c0,0-0.1,0-0.1,0H708.7z"/>
		<path class="st6" d="M717.5,639.4v7.5h-1.5v-9.1h2.5l2.5,7.5l2.4-7.5h2.5v9.1h-1.5v-7.5l-2.4,7.5H720L717.5,639.4z"/>
		<path class="st6" d="M730.4,647.1c-1.7,0-3.1-1.4-3.1-3.1c0-0.1,0-0.2,0-0.3c-0.2-1.7,1-3.2,2.7-3.4c0.1,0,0.2,0,0.3,0
			c1.6-0.1,2.9,1.2,2.9,2.7c0,0.1,0,0.3,0,0.4c0,0.1,0,0.5,0,0.7h-4.5c0,0.9,0.7,1.7,1.6,1.8h0.1c0.6,0,1.1-0.3,1.3-0.9h1.5
			C733,646.3,731.8,647.2,730.4,647.1z M731.8,642.9c0-0.7-0.6-1.4-1.3-1.4c0,0-0.1,0-0.1,0h-0.1c-0.8,0-1.4,0.6-1.5,1.4H731.8z"/>
		<path class="st6" d="M734.3,643.7c0-1.9,1.1-3.4,2.9-3.4c0.8,0,1.5,0.4,1.9,1v-3.5h1.5v9.1h-1.5v-0.9c-0.5,0.6-1.2,1-2,1
			C735.4,647.1,734.3,645.6,734.3,643.7z M739.2,643.7c0-1.4-0.8-2.2-1.6-2.2h-0.1c-0.9,0-1.6,0.8-1.6,2.1c0,1.4,0.7,2.2,1.6,2.2
			h0.1C738.4,645.9,739.2,645.1,739.2,643.7z"/>
		<path class="st6" d="M745.2,647.1c-1.7,0-3.1-1.4-3.1-3.1c0-0.1,0-0.2,0-0.3c-0.2-1.7,1-3.2,2.7-3.4c0.1,0,0.2,0,0.3,0
			c1.6,0,2.9,1.2,2.9,2.7c0,0.1,0,0.3,0,0.4c0,0.1,0,0.5,0,0.7h-4.5c0,0.9,0.7,1.7,1.6,1.8h0.1c0.6,0,1.1-0.3,1.3-0.9h1.5
			C747.7,646.3,746.5,647.2,745.2,647.1z M746.6,642.9c0-0.7-0.6-1.4-1.3-1.4c0,0-0.1,0-0.1,0h-0.1c-0.8,0-1.4,0.6-1.5,1.4H746.6z"
			/>
		<path class="st6" d="M749.5,637.8h1.5v9.1h-1.5V637.8z"/>
		<path class="st6" d="M752.8,637.8h1.5v9.1h-1.5V637.8z"/>
		<path class="st6" d="M756.1,640.4h1.5v6.5h-1.5V640.4z M756.8,637.8h1.7l-1.2,1.9h-0.9L756.8,637.8z"/>
		<path class="st6" d="M760.9,646.9h-1.5v-6.5h1.5v0.9c0.4-0.7,1.2-1.1,2-1.1c1.2-0.1,2.2,0.8,2.3,2c0,0.1,0,0.3,0,0.4v4.2h-1.5v-4
			c0-0.9-0.4-1.4-1.1-1.4h-0.1c-0.9,0.1-1.6,0.8-1.6,1.7c0,0,0,0,0,0V646.9z"/>
	</g>
	<rect x="598.2" y="499.6" class="st9" width="62.6" height="16.6"/>
	<g>
		<path class="st6" d="M607.9,504.1h-0.1c-1,0-1.7,0.6-1.7,1.2c0,0.6,0.4,1,1.2,1.1l1.4,0.3c1.6,0.3,2.5,1.1,2.5,2.6
			c0,1.6-1.3,2.7-3.4,2.7c-2.4,0-3.6-1.2-3.7-3.1h1.6c0,1.1,0.8,1.7,2.2,1.7h0.1c1.1,0,1.7-0.6,1.7-1.2c0-0.6-0.3-1-1.2-1.2
			l-1.5-0.3c-1.3-0.1-2.4-1.2-2.3-2.6c0-1.4,1.2-2.7,3.4-2.7s3.4,1.2,3.4,2.9h-1.6C609.7,504.8,608.9,504.1,607.9,504.1
			C608,504.1,608,504.1,607.9,504.1z"/>
		<path class="st6" d="M614.5,512.1c-1.1,0.1-2-0.7-2.1-1.8c0,0,0-0.1,0-0.1c0-1.4,1.2-2,2.4-2.1l1.7-0.1v-0.2
			c0.1-0.6-0.4-1.2-1-1.2c-0.1,0-0.1,0-0.2,0h-0.1c-0.6-0.1-1.1,0.3-1.2,0.9h-1.5c0.2-1.3,1.4-2.2,2.7-2.1c1.3-0.2,2.5,0.8,2.7,2.1
			c0,0.1,0,0.2,0,0.3v2.8c0,0.5,0,1,0.1,1.4h-1.4c0-0.3-0.1-0.6-0.1-0.9C616,511.7,615.3,512.1,614.5,512.1z M614.8,510.9
			c0.8,0,1.5-0.6,1.6-1.4v-0.4l-1.5,0.1c-0.6,0.1-1.1,0.3-1.1,0.9c0,0.5,0.4,0.8,0.9,0.8C614.7,510.9,614.7,510.9,614.8,510.9
			L614.8,510.9z"/>
		<path class="st6" d="M621.2,512h-1.5v-6.5h1.5v0.9c0.4-0.7,1.2-1.1,2-1.1c1.2-0.1,2.2,0.8,2.3,2c0,0.1,0,0.3,0,0.4v4.2H624v-4
			c0-0.9-0.4-1.4-1.1-1.4h-0.1c-0.9,0.1-1.6,0.8-1.6,1.7c0,0,0,0,0,0L621.2,512z"/>
		<path class="st6" d="M629.5,512v-1.5h1.5c0.7,0,0.9-0.2,0.9-0.9v-6.7h1.6v7.1c0.1,1-0.6,1.9-1.6,2c-0.1,0-0.3,0-0.4,0L629.5,512z"
			/>
		<path class="st6" d="M635.1,508.7c0.1-1.8,1.6-3.1,3.4-3c1.8,0.1,3.1,1.6,3,3.4c-0.1,1.7-1.5,3-3.2,3c-1.7,0-3.2-1.4-3.2-3.1
			C635.1,508.9,635.1,508.8,635.1,508.7z M640,508.7c0-1.4-0.7-2.2-1.6-2.2h-0.1c-1,0-1.6,0.8-1.6,2.2s0.7,2.2,1.6,2.2h0.1
			C639.3,510.9,640,510.1,640,508.7z"/>
		<path class="st6" d="M642.4,509.9h1.5c0,0.6,0.6,1.1,1.2,1c0,0,0,0,0,0h0.1c0.6,0,1-0.3,1-0.7c0-0.4-0.2-0.6-0.8-0.7l-0.9-0.2
			c-1.2-0.3-2-0.8-2-1.9c0-1.2,1.1-2,2.5-2c1.7,0,2.6,0.9,2.6,2.2h-1.5c0-0.6-0.5-1-1.1-1c0,0,0,0,0,0h-0.1c-0.6,0-1,0.3-1,0.7
			c0,0.4,0.3,0.6,0.9,0.7l0.9,0.2c1.1,0.3,1.8,0.8,1.8,1.9c0,1.1-1,2-2.6,2C643.4,512.1,642.4,511.2,642.4,509.9z"/>
		<path class="st6" d="M652,512.1c-1.7,0-3.1-1.4-3.1-3.1c0-0.1,0-0.2,0-0.3c-0.2-1.7,1-3.2,2.7-3.4c0.1,0,0.2,0,0.3,0
			c1.6,0,2.9,1.2,2.9,2.7c0,0.1,0,0.3,0,0.4c0,0.1,0,0.5,0,0.7h-4.5c0,0.9,0.7,1.7,1.6,1.8h0.1c0.6,0,1.1-0.3,1.3-0.9h1.5
			C654.6,511.3,653.3,512.2,652,512.1z M653.4,508c0-0.7-0.6-1.4-1.3-1.4c0,0-0.1,0-0.1,0h-0.1c-0.8,0-1.4,0.6-1.5,1.4H653.4z
			 M651.9,502.9h1.7l-1.2,1.9h-0.9L651.9,502.9z"/>
	</g>
	<rect x="502.7" y="179.7" class="st9" width="158.9" height="30.6"/>
	<g>
		<path class="st6" d="M518.5,189c-0.1,1.8-1.5,3.1-3.7,3.1c-2.7,0-4.3-1.9-4.3-4.7s1.6-4.7,4.3-4.7c2.2,0,3.6,1.3,3.7,3.1h-1.6
			c-0.1-1-1.1-1.8-2.1-1.7h-0.1c-1.7,0-2.7,1.3-2.7,3.3s1,3.3,2.7,3.3h0.1c1,0.1,2-0.6,2.1-1.7L518.5,189z"/>
		<path class="st6" d="M521.4,191.9h-1.5v-9.1h1.5v3.5c0.4-0.7,1.2-1.1,2-1.1c1.2-0.1,2.2,0.8,2.3,2c0,0.1,0,0.3,0,0.4v4.2h-1.5v-4
			c0-0.9-0.4-1.4-1.1-1.4H523c-0.9,0.1-1.6,0.8-1.6,1.7c0,0,0,0,0,0L521.4,191.9z"/>
		<path class="st6" d="M527.4,182.8h1.6v1.6h-1.6V182.8z M527.5,185.4h1.5v6.5h-1.5V185.4z"/>
		<path class="st6" d="M532.3,191.9h-1.5v-9.1h1.5v3.5c0.4-0.7,1.2-1.1,2-1.1c1.2-0.1,2.2,0.8,2.3,2c0,0.1,0,0.3,0,0.4v4.2h-1.5v-4
			c0-0.9-0.4-1.4-1.1-1.4h-0.1c-0.9,0.1-1.6,0.8-1.6,1.7c0,0,0,0,0,0L532.3,191.9z"/>
		<path class="st6" d="M543.9,191.9h-1.5v-1.1c-0.6,1.1-1.9,1.5-3,0.9c-0.8-0.4-1.3-1.3-1.2-2.2v-4.2h1.5v4c0,0.9,0.4,1.4,1.1,1.4
			h0.1c0.9-0.1,1.6-0.9,1.5-1.8v-3.6h1.5V191.9z"/>
		<path class="st6" d="M547.5,192c-1.1,0.1-2-0.7-2.1-1.8c0,0,0-0.1,0-0.1c0-1.4,1.2-2,2.4-2.1l1.7-0.1v-0.2c0.1-0.6-0.4-1.2-1-1.2
			c-0.1,0-0.1,0-0.2,0h-0.1c-0.6-0.1-1.1,0.3-1.2,0.9h-1.5c0.2-1.3,1.4-2.2,2.7-2.1c1.3-0.2,2.5,0.8,2.7,2.1c0,0.1,0,0.2,0,0.3v2.8
			c0,0.5,0,1,0.1,1.4h-1.4c0-0.3-0.1-0.6-0.1-0.9C549,191.7,548.3,192.1,547.5,192z M547.8,190.8c0.8,0,1.5-0.6,1.6-1.4V189
			l-1.5,0.1c-0.6,0.1-1.1,0.3-1.1,0.9c0,0.5,0.4,0.8,0.9,0.8C547.7,190.8,547.7,190.8,547.8,190.8L547.8,190.8z"/>
		<path class="st6" d="M554.2,191.9h-1.5v-9.1h1.5v3.5c0.4-0.7,1.2-1.1,2-1.1c1.2-0.1,2.2,0.8,2.3,2c0,0.1,0,0.3,0,0.4v4.2H557v-4
			c0-0.9-0.4-1.4-1.1-1.4h-0.1c-0.9,0.1-1.6,0.8-1.6,1.7c0,0,0,0,0,0L554.2,191.9z"/>
		<path class="st6" d="M565.8,191.9h-1.5v-1.1c-0.6,1.1-1.9,1.5-3,0.9c-0.8-0.4-1.3-1.3-1.2-2.2v-4.2h1.5v4c0,0.9,0.4,1.4,1.1,1.4
			h0.1c0.9-0.1,1.6-0.9,1.5-1.8v-3.6h1.5V191.9z"/>
		<path class="st6" d="M569.4,192c-1.1,0.1-2-0.7-2.1-1.8c0,0,0-0.1,0-0.1c0-1.4,1.2-2,2.4-2.1l1.7-0.1v-0.2c0.1-0.6-0.4-1.2-1-1.2
			c-0.1,0-0.1,0-0.2,0H570c-0.6-0.1-1.1,0.3-1.2,0.9h-1.5c0.2-1.3,1.4-2.2,2.7-2.1c1.3-0.2,2.5,0.8,2.7,2.1c0,0.1,0,0.2,0,0.3v2.8
			c0,0.5,0,1,0.1,1.4h-1.4c0-0.3-0.1-0.6-0.1-0.9C570.9,191.7,570.2,192.1,569.4,192z M569.7,190.8c0.8,0,1.5-0.6,1.6-1.4V189
			l-1.5,0.1c-0.6,0.1-1.1,0.3-1.1,0.9c0,0.5,0.4,0.8,0.9,0.8C569.6,190.8,569.6,190.8,569.7,190.8L569.7,190.8z"/>
		<path class="st6" d="M574,193.8v-0.9h0.5c0.4,0,0.8-0.3,0.8-0.7c0-0.1,0-0.1,0-0.2v-0.2h-0.8v-1.7h1.7v2c0,0.9-0.7,1.6-1.5,1.7
			c0,0-0.1,0-0.1,0H574z"/>
		<path class="st6" d="M587.7,190.9c-0.6,0.8-1.6,1.3-2.7,1.2c-2.6,0-4.3-2-4.3-4.7c-0.2-2.4,1.6-4.5,4-4.7c0.1,0,0.3,0,0.4,0
			c2.3,0,3.7,1.4,3.8,3.2h-1.6c-0.1-1.1-1-1.9-2.1-1.8c0,0-0.1,0-0.1,0h-0.1c-1.7,0-2.8,1.3-2.8,3.3s1.1,3.3,2.8,3.3h0.1
			c1.2,0.1,2.3-0.7,2.5-1.9l0-0.1h-2.5v-1.4h2.8c0.5-0.1,1,0.3,1.1,0.9c0,0.1,0,0.2,0,0.2v3.6h-1.4V190.9z"/>
		<path class="st6" d="M596.3,191.9h-1.5v-1.1c-0.6,1.1-1.9,1.5-3,0.9c-0.8-0.4-1.3-1.3-1.2-2.2v-4.2h1.5v4c0,0.9,0.4,1.4,1.1,1.4
			h0.1c0.9-0.1,1.6-0.9,1.5-1.8v-3.6h1.5V191.9z"/>
		<path class="st6" d="M599.8,192c-1.1,0.1-2-0.7-2.1-1.8c0,0,0-0.1,0-0.1c0-1.4,1.2-2,2.4-2.1l1.7-0.1v-0.2c0.1-0.6-0.4-1.2-1-1.2
			c-0.1,0-0.1,0-0.2,0h-0.1c-0.6-0.1-1.1,0.3-1.2,0.9h-1.5c0.2-1.3,1.4-2.2,2.7-2.1c1.3-0.2,2.5,0.8,2.7,2.1c0,0.1,0,0.2,0,0.3v2.8
			c0,0.5,0,1,0.1,1.4h-1.4c0-0.3-0.1-0.6-0.1-0.9C601.4,191.7,600.6,192.1,599.8,192z M600.2,190.8c0.8,0,1.5-0.6,1.6-1.4V189
			l-1.5,0.1c-0.6,0.1-1.1,0.3-1.1,0.9c0,0.5,0.4,0.8,0.9,0.8C600.1,190.8,600.1,190.8,600.2,190.8L600.2,190.8z"/>
		<path class="st6" d="M604.6,188.7c0-1.9,1.1-3.4,2.9-3.4c0.8,0,1.5,0.4,1.9,1v-3.5h1.5v9.1h-1.5V191c-0.5,0.6-1.2,1-2,1
			C605.7,192,604.6,190.6,604.6,188.7z M609.5,188.7c0-1.4-0.8-2.2-1.6-2.2h-0.1c-0.9,0-1.6,0.8-1.6,2.1c0,1.4,0.7,2.2,1.6,2.2h0.1
			C608.7,190.8,609.5,190,609.5,188.7z"/>
		<path class="st6" d="M614.5,192c-1.1,0.1-2-0.7-2.1-1.8c0,0,0-0.1,0-0.1c0-1.4,1.2-2,2.4-2.1l1.7-0.1v-0.2c0.1-0.6-0.4-1.2-1-1.2
			c-0.1,0-0.1,0-0.2,0h-0.1c-0.6-0.1-1.1,0.3-1.2,0.9h-1.5c0.2-1.3,1.4-2.2,2.7-2.1c1.3-0.2,2.5,0.8,2.7,2.1c0,0.1,0,0.2,0,0.3v2.8
			c0,0.5,0,1,0.1,1.4h-1.4c0-0.3-0.1-0.6-0.1-0.9C616.1,191.7,615.3,192.1,614.5,192z M614.9,190.8c0.8,0,1.5-0.6,1.6-1.4V189
			l-1.5,0.1c-0.6,0.1-1.1,0.3-1.1,0.9c0,0.5,0.4,0.8,0.9,0.8C614.7,190.8,614.8,190.8,614.9,190.8L614.9,190.8z"/>
		<path class="st6" d="M619.7,182.8h1.5v9.1h-1.5V182.8z"/>
		<path class="st6" d="M624.7,192c-1.1,0.1-2-0.7-2.1-1.8c0,0,0-0.1,0-0.1c0-1.4,1.2-2,2.4-2.1l1.7-0.1v-0.2c0.1-0.6-0.4-1.2-1-1.2
			c-0.1,0-0.1,0-0.2,0h-0.1c-0.6-0.1-1.1,0.3-1.2,0.9h-1.5c0.2-1.3,1.4-2.2,2.7-2.1c1.3-0.2,2.5,0.8,2.7,2.1c0,0.1,0,0.2,0,0.3v2.8
			c0,0.5,0,1,0.1,1.4h-1.4c0-0.3-0.1-0.6-0.1-0.9C626.3,191.7,625.5,192.1,624.7,192z M625.1,190.8c0.8,0,1.5-0.6,1.6-1.4V189
			l-1.5,0.1c-0.6,0.1-1.1,0.3-1.1,0.9c0,0.5,0.4,0.8,0.9,0.8C624.9,190.8,625,190.8,625.1,190.8L625.1,190.8z"/>
		<path class="st6" d="M631.5,192.9c0.1,0.7-0.4,1.4-1.2,1.5c-0.1,0-0.2,0-0.3,0h-2.1v-1.3h1.5c0.5,0,0.6-0.2,0.6-0.6v-7.1h1.5
			V192.9z M629.9,182.8h1.6v1.6h-1.6V182.8z"/>
		<path class="st6" d="M635,192c-1.1,0.1-2-0.7-2.1-1.8c0,0,0-0.1,0-0.1c0-1.4,1.2-2,2.4-2.1l1.7-0.1v-0.2c0.1-0.6-0.4-1.2-1-1.2
			c-0.1,0-0.1,0-0.2,0h-0.1c-0.6-0.1-1.1,0.3-1.2,0.9H633c0.2-1.3,1.4-2.2,2.7-2.1c1.3-0.2,2.5,0.8,2.7,2.1c0,0.1,0,0.2,0,0.3v2.8
			c0,0.5,0,1,0.1,1.4h-1.4c0-0.3-0.1-0.6-0.1-0.9C636.6,191.7,635.8,192.1,635,192z M635.4,190.8c0.8,0,1.5-0.6,1.6-1.4V189
			l-1.5,0.1c-0.6,0.1-1.1,0.3-1.1,0.9c0,0.5,0.4,0.8,0.9,0.8C635.3,190.8,635.3,190.8,635.4,190.8L635.4,190.8z"/>
		<path class="st6" d="M640.2,185.4h1.5v1.4c0.2-0.9,1-1.4,1.9-1.4h0.4v1.4h-0.6c-0.9-0.1-1.7,0.6-1.8,1.4c0,0.1,0,0.3,0,0.4v3.3
			h-1.5V185.4z"/>
		<path class="st6" d="M646.8,192c-1.1,0.1-2-0.7-2.1-1.8c0,0,0-0.1,0-0.1c0-1.4,1.2-2,2.4-2.1l1.7-0.1v-0.2c0.1-0.6-0.4-1.2-1-1.2
			c-0.1,0-0.1,0-0.2,0h-0.1c-0.6-0.1-1.1,0.3-1.2,0.9h-1.5c0.2-1.3,1.4-2.2,2.7-2.1c1.3-0.2,2.5,0.8,2.7,2.1c0,0.1,0,0.2,0,0.3v2.8
			c0,0.5,0,1,0.1,1.4h-1.4c0-0.3-0.1-0.6-0.1-0.9C648.3,191.7,647.6,192.1,646.8,192z M647.1,190.8c0.8,0,1.5-0.6,1.6-1.4V189
			l-1.5,0.1c-0.6,0.1-1.1,0.3-1.1,0.9c0,0.5,0.4,0.8,0.9,0.8C647,190.8,647,190.8,647.1,190.8L647.1,190.8z"/>
		<path class="st6" d="M651.4,193.8v-0.9h0.5c0.4,0,0.8-0.3,0.8-0.7c0-0.1,0-0.1,0-0.2v-0.2h-0.8v-1.7h1.7v2c0,0.9-0.7,1.6-1.5,1.7
			c0,0-0.1,0-0.1,0H651.4z"/>
		<path class="st6" d="M524.5,197.7v7.5h-1.5v-9.1h2.5l2.5,7.5l2.4-7.5h2.5v9.1h-1.5v-7.5l-2.4,7.5H527L524.5,197.7z"/>
		<path class="st6" d="M537.5,205.3c-1.7,0-3.1-1.4-3.1-3.1c0-0.1,0-0.2,0-0.3c-0.2-1.7,1-3.2,2.7-3.4c0.1,0,0.2,0,0.3,0
			c1.6,0,2.9,1.2,2.9,2.7c0,0.1,0,0.3,0,0.4c0,0.1,0,0.5,0,0.7h-4.5c0,0.9,0.7,1.7,1.6,1.8h0.1c0.6,0,1.1-0.3,1.3-0.9h1.5
			C540,204.5,538.8,205.4,537.5,205.3z M538.8,201.1c0-0.7-0.6-1.4-1.3-1.4c0,0-0.1,0-0.1,0h-0.1c-0.8,0-1.4,0.6-1.5,1.4H538.8z"/>
		<path class="st6" d="M544,203l-1.5,2.1h-1.7l2.4-3.3l-2.3-3.2h1.7l1.5,2l1.5-2h1.7l-2.3,3.2l2.4,3.3h-1.7L544,203z"/>
		<path class="st6" d="M548.2,196.1h1.6v1.6h-1.6V196.1z M548.3,198.7h1.5v6.5h-1.5V198.7z"/>
		<path class="st6" d="M557.1,202.9c-0.1,1.4-1.3,2.4-2.6,2.4c-0.1,0-0.1,0-0.2,0c-1.9-0.1-3.3-1.8-3.1-3.7c0.1-1.7,1.5-3,3.1-3.1
			c1.4-0.2,2.6,0.8,2.8,2.2c0,0.1,0,0.1,0,0.2h-1.5c0-0.7-0.6-1.2-1.3-1.1h-0.1c-1.1,0-1.6,1-1.6,2.2c0,1.2,0.5,2.2,1.6,2.2h0.1
			c0.7,0,1.2-0.5,1.3-1.1L557.1,202.9z"/>
		<path class="st6" d="M558.1,201.9c0.1-1.8,1.6-3.1,3.4-3c1.8,0.1,3.1,1.6,3,3.4c-0.1,1.7-1.5,3-3.2,3c-1.7,0-3.2-1.4-3.2-3.1
			C558.1,202.1,558.1,202,558.1,201.9z M563,201.9c0-1.4-0.7-2.2-1.6-2.2h-0.1c-1,0-1.6,0.8-1.6,2.2c0,1.4,0.7,2.2,1.6,2.2h0.1
			C562.3,204.1,563,203.3,563,201.9z"/>
		<path class="st6" d="M576.8,202.2c-0.1,1.8-1.5,3.1-3.7,3.1c-2.7,0-4.3-1.9-4.3-4.7s1.6-4.7,4.3-4.7c2.2,0,3.6,1.3,3.7,3.1h-1.6
			c-0.1-1-1.1-1.8-2.1-1.7H573c-1.7,0-2.7,1.3-2.7,3.3c0,2,1,3.3,2.7,3.3h0.1c1,0.1,2-0.6,2.1-1.7L576.8,202.2z"/>
		<path class="st6" d="M578.2,196.1h1.6v1.6h-1.6V196.1z M578.2,198.7h1.5v6.5h-1.5V198.7z"/>
		<path class="st6" d="M585.4,205.2h-1.6c-0.8,0.1-1.5-0.5-1.6-1.2c0-0.1,0-0.2,0-0.3v-3.7h-1.4v-1.2h1.4v-2.1h1.5v2.1h1.5v1.2h-1.5
			v3.3c0,0.5,0.1,0.6,0.6,0.6h1.1V205.2z"/>
		<path class="st6" d="M586.4,207.7v-1.3h1.8c0.5,0,0.6-0.1,0.6-0.6v-0.9l-2.8-6.2h1.7l1.9,4.3l1.8-4.3h1.6l-2.7,6.1v1.4
			c0.1,0.8-0.4,1.5-1.2,1.6c-0.1,0-0.2,0-0.4,0L586.4,207.7z"/>
		<path class="st6" d="M592.8,207v-0.9h0.5c0.4,0,0.8-0.3,0.8-0.7c0-0.1,0-0.1,0-0.2v-0.2h-0.8v-1.7h1.7v2c0,0.9-0.7,1.6-1.5,1.7
			c0,0-0.1,0-0.1,0L592.8,207z"/>
		<path class="st6" d="M601.9,197.4h-3.2v-1.4h7.9v1.4h-3.2v7.7h-1.6V197.4z"/>
		<path class="st6" d="M607.8,196.1h1.6v1.6h-1.6V196.1z M607.8,198.7h1.5v6.5h-1.5V198.7z"/>
		<path class="st6" d="M612.7,206.2c0.1,0.7-0.4,1.4-1.2,1.5c-0.1,0-0.2,0-0.3,0h-2.1v-1.3h1.5c0.5,0,0.6-0.2,0.6-0.6v-7.1h1.5
			V206.2z M611.2,196.1h1.6v1.6h-1.6V196.1z"/>
		<path class="st6" d="M620.1,205.2h-1.5v-1.1c-0.6,1.1-1.9,1.5-3,0.9c-0.8-0.4-1.3-1.3-1.2-2.2v-4.2h1.5v4c0,0.9,0.4,1.4,1.1,1.4
			h0.1c0.9-0.1,1.6-0.9,1.5-1.8v-3.6h1.5V205.2z"/>
		<path class="st6" d="M623.7,205.3c-1.1,0.1-2-0.7-2.1-1.8c0,0,0-0.1,0-0.1c0-1.4,1.2-2,2.4-2.1l1.7-0.1V201c0.1-0.6-0.4-1.2-1-1.2
			c-0.1,0-0.1,0-0.2,0h-0.1c-0.6-0.1-1.1,0.3-1.2,0.9h-1.5c0.2-1.3,1.4-2.2,2.7-2.1c1.3-0.2,2.5,0.8,2.7,2.1c0,0.1,0,0.2,0,0.3v2.8
			c0,0.5,0,1,0.1,1.4h-1.4c0-0.3-0.1-0.6-0.1-0.9C625.2,204.9,624.5,205.3,623.7,205.3z M624,204.1c0.8,0,1.5-0.6,1.6-1.4v-0.4
			l-1.5,0.1c-0.6,0.1-1.1,0.3-1.1,0.9c0,0.5,0.4,0.8,0.9,0.8C623.9,204.1,623.9,204.1,624,204.1L624,204.1z"/>
		<path class="st6" d="M630.4,205.2h-1.5v-6.5h1.5v0.9c0.4-0.7,1.2-1.1,2-1.1c1.2-0.1,2.2,0.8,2.3,2c0,0.1,0,0.3,0,0.4v4.2h-1.5v-4
			c0-0.9-0.4-1.4-1.1-1.4h-0.1c-0.9,0.1-1.6,0.8-1.6,1.7c0,0,0,0,0,0L630.4,205.2z"/>
		<path class="st6" d="M638.1,205.3c-1.1,0.1-2-0.7-2.1-1.8c0,0,0-0.1,0-0.1c0-1.4,1.2-2,2.4-2.1l1.7-0.1V201c0.1-0.6-0.4-1.2-1-1.2
			c-0.1,0-0.1,0-0.2,0h-0.1c-0.6-0.1-1.1,0.3-1.2,0.9h-1.5c0.2-1.3,1.4-2.2,2.7-2.1c1.3-0.2,2.5,0.8,2.7,2.1c0,0.1,0,0.2,0,0.3v2.8
			c0,0.5,0,1,0.1,1.4h-1.4c0-0.3-0.1-0.6-0.1-0.9C639.7,204.9,638.9,205.3,638.1,205.3z M638.5,204.1c0.8,0,1.5-0.6,1.6-1.4v-0.4
			l-1.5,0.1c-0.6,0.1-1.1,0.3-1.1,0.9c0,0.5,0.4,0.8,0.9,0.8C638.4,204.1,638.4,204.1,638.5,204.1L638.5,204.1z"/>
	</g>
	<rect x="355.8" y="170.3" class="st9" width="58.8" height="16.6"/>
	<g>
		<path class="st6" d="M369.2,175.5v7.5h-1.5v-9.1h2.5l2.5,7.5l2.4-7.5h2.5v9.1H376v-7.5l-2.4,7.5h-1.8L369.2,175.5z"/>
		<path class="st6" d="M379.5,173.9h1.6v1.6h-1.6V173.9z M379.5,176.5h1.5v6.5h-1.5V176.5z"/>
		<path class="st6" d="M384.5,183.2c-1.1,0.1-2-0.7-2.1-1.8c0,0,0-0.1,0-0.1c0-1.4,1.2-2,2.4-2.1l1.7-0.1v-0.2
			c0.1-0.6-0.4-1.2-1-1.2c-0.1,0-0.1,0-0.2,0h-0.1c-0.6-0.1-1.1,0.3-1.2,0.9h-1.5c0.2-1.3,1.4-2.2,2.7-2.1c1.3-0.2,2.5,0.8,2.7,2.1
			c0,0.1,0,0.2,0,0.3v2.8c0,0.5,0,1,0.1,1.4h-1.4c0-0.3-0.1-0.6-0.1-0.9C386.1,182.8,385.3,183.2,384.5,183.2z M384.9,181.9
			c0.8,0,1.5-0.6,1.6-1.4v-0.4l-1.5,0.1c-0.6,0.1-1.1,0.3-1.1,0.9c0,0.5,0.4,0.8,0.9,0.8C384.8,182,384.8,182,384.9,181.9
			L384.9,181.9z"/>
		<path class="st6" d="M391.2,183h-1.5v-6.5h1.5v0.9c0.4-0.7,1.2-1.1,1.9-1.1c0.9-0.1,1.7,0.4,2.1,1.2c0.5-0.7,1.3-1.2,2.1-1.2
			c1.2-0.1,2.2,0.8,2.3,2c0,0.1,0,0.3,0,0.4v4.2h-1.5v-4c0-0.9-0.3-1.4-1.1-1.4H397c-0.9,0.1-1.6,0.8-1.5,1.7c0,0,0,0,0,0v3.6H394
			v-4c0-0.9-0.3-1.4-1.1-1.4h-0.1c-0.9,0.1-1.6,0.8-1.5,1.7c0,0,0,0,0,0V183z"/>
		<path class="st6" d="M401.4,173.9h1.6v1.6h-1.6V173.9z M401.4,176.5h1.5v6.5h-1.5V176.5z"/>
	</g>
	<rect x="884.8" y="108.6" class="st9" width="70.8" height="16.6"/>
	<g>
		<path class="st6" d="M891.9,113.8v7.1h-1.6v-9.1h2.1l3.9,7v-7h1.6v9.1h-2.1L891.9,113.8z"/>
		<path class="st6" d="M902.5,121c-1.7,0-3.1-1.4-3.1-3.1c0-0.1,0-0.2,0-0.3c-0.2-1.7,1-3.2,2.7-3.4c0.1,0,0.2,0,0.3,0
			c1.6,0,2.9,1.2,2.9,2.7c0,0.1,0,0.3,0,0.4c0,0.1,0,0.5,0,0.7h-4.5c0,0.9,0.7,1.7,1.6,1.8h0.1c0.6,0,1.1-0.3,1.3-0.9h1.5
			C905,120.2,903.8,121.2,902.5,121z M903.9,116.9c0-0.7-0.6-1.4-1.3-1.4c0,0-0.1,0-0.1,0h-0.1c-0.8,0-1.4,0.6-1.5,1.4H903.9z"/>
		<path class="st6" d="M910.8,116.1l-1.2,4.8h-1.7l-2-6.5h1.5l1.4,5l1.2-5h1.6l1.3,5l1.3-5h1.5l-1.9,6.5h-1.7L910.8,116.1z"/>
		<path class="st6" d="M922.2,118.7c-0.1,1.4-1.3,2.4-2.6,2.4c-0.1,0-0.1,0-0.2,0c-1.9-0.1-3.3-1.8-3.1-3.7c0.1-1.7,1.5-3,3.1-3.1
			c1.4-0.2,2.6,0.8,2.8,2.2c0,0.1,0,0.1,0,0.2h-1.5c0-0.7-0.6-1.2-1.3-1.1h-0.1c-1.1,0-1.6,1-1.6,2.2s0.5,2.2,1.6,2.2h0.1
			c0.7,0,1.2-0.5,1.3-1.1H922.2z"/>
		<path class="st6" d="M925.3,121c-1.1,0.1-2-0.7-2.1-1.8c0,0,0-0.1,0-0.1c0-1.4,1.2-2,2.4-2.1l1.7-0.1v-0.2c0.1-0.6-0.4-1.2-1-1.2
			c-0.1,0-0.1,0-0.2,0H926c-0.6-0.1-1.1,0.3-1.2,0.9h-1.5c0.2-1.3,1.4-2.2,2.7-2.1c1.3-0.2,2.5,0.8,2.7,2.1c0,0.1,0,0.2,0,0.3v2.8
			c0,0.5,0,1,0.1,1.4h-1.4c0-0.3-0.1-0.6-0.1-0.9C926.9,120.7,926.1,121.1,925.3,121z M925.7,119.8c0.8,0,1.5-0.6,1.6-1.4V118
			l-1.5,0.1c-0.6,0.1-1.1,0.3-1.1,0.9c0,0.5,0.4,0.8,0.9,0.8C925.6,119.8,925.6,119.8,925.7,119.8L925.7,119.8z"/>
		<path class="st6" d="M930,118.8h1.5c0,0.6,0.6,1.1,1.2,1c0,0,0,0,0.1,0h0.1c0.6,0,1-0.3,1-0.7c0-0.4-0.2-0.6-0.8-0.7l-0.9-0.2
			c-1.2-0.3-2-0.8-2-1.9c0-1.2,1.1-2,2.5-2c1.7,0,2.6,0.9,2.6,2.2H934c0-0.6-0.5-1-1.1-1c0,0,0,0,0,0h-0.1c-0.6,0-1,0.3-1,0.7
			c0,0.4,0.3,0.6,0.9,0.7l0.9,0.2c1.1,0.3,1.8,0.8,1.8,1.9c0,1.1-1,2-2.6,2C931,121,930.1,120.2,930,118.8z"/>
		<path class="st6" d="M940.8,120.9h-1.6c-0.8,0.1-1.5-0.5-1.6-1.2c0-0.1,0-0.2,0-0.3v-3.7h-1.4v-1.2h1.4v-2.1h1.5v2.1h1.5v1.2h-1.5
			v3.3c0,0.5,0.1,0.6,0.6,0.6h1.1V120.9z"/>
		<path class="st6" d="M942.1,111.8h1.5v9.1h-1.5V111.8z"/>
		<path class="st6" d="M948.1,121c-1.7,0-3.1-1.4-3.1-3.1c0-0.1,0-0.2,0-0.3c-0.2-1.7,1-3.2,2.7-3.4c0.1,0,0.2,0,0.3,0
			c1.6,0,2.9,1.2,2.9,2.7c0,0.1,0,0.3,0,0.4c0,0.1,0,0.5,0,0.7h-4.5c0,0.9,0.7,1.7,1.6,1.8h0.1c0.6,0,1.1-0.3,1.3-0.9h1.5
			C950.6,120.2,949.4,121.2,948.1,121z M949.5,116.9c0-0.7-0.6-1.4-1.3-1.4c0,0-0.1,0-0.1,0H948c-0.8,0-1.4,0.6-1.5,1.4H949.5z"/>
	</g>
	<rect x="1194.1" y="255" class="st9" width="84.5" height="16.6"/>
	<g>
		<path class="st6" d="M1199.2,262.6c0-2.9,1.8-4.7,4.4-4.7c2.5,0,4.4,1.8,4.4,4.7c0,2.9-1.8,4.7-4.4,4.7
			C1201,267.3,1199.2,265.6,1199.2,262.6z M1203.6,265.9c1.7,0,2.7-1.2,2.7-3.3c0-2.1-1.1-3.3-2.7-3.3h-0.1c-1.7,0-2.7,1.2-2.7,3.3
			c0,2.1,1.1,3.3,2.7,3.3H1203.6z"/>
		<path class="st6" d="M1209.1,263.9c0-1.9,1.1-3.4,2.9-3.4c0.8,0,1.5,0.4,1.9,1v-3.5h1.5v9.1h-1.5v-0.9c-0.5,0.6-1.2,1-2,1
			C1210.1,267.3,1209.1,265.9,1209.1,263.9z M1213.9,263.9c0-1.4-0.8-2.2-1.6-2.2h-0.1c-0.9,0-1.6,0.8-1.6,2.1
			c0,1.4,0.7,2.2,1.6,2.2h0.1C1213.1,266.1,1213.9,265.3,1213.9,263.9z"/>
		<path class="st6" d="M1219.9,267.3c-1.7,0-3.1-1.4-3.1-3.1c0-0.1,0-0.2,0-0.3c-0.2-1.7,1-3.2,2.7-3.4c0.1,0,0.2,0,0.3,0
			c1.6,0,2.9,1.2,2.9,2.7c0,0.1,0,0.3,0,0.4c0,0.1,0,0.5,0,0.7h-4.5c0,0.9,0.7,1.7,1.6,1.8h0.1c0.6,0,1.1-0.3,1.3-0.9h1.5
			C1222.5,266.5,1221.3,267.4,1219.9,267.3z M1221.3,263.2c0-0.7-0.6-1.4-1.3-1.4c0,0-0.1,0-0.1,0h-0.1c-0.8,0-1.4,0.6-1.5,1.4
			H1221.3z"/>
		<path class="st6" d="M1223.7,265.1h1.5c0,0.6,0.6,1.1,1.2,1c0,0,0,0,0,0h0.1c0.6,0,1-0.3,1-0.7c0-0.4-0.2-0.6-0.8-0.7l-0.9-0.2
			c-1.2-0.3-2-0.8-2-1.9c0-1.2,1.1-2,2.5-2c1.7,0,2.6,0.9,2.6,2.2h-1.5c0-0.6-0.5-1-1.1-1c0,0,0,0,0,0h-0.1c-0.6,0-1,0.3-1,0.7
			c0,0.4,0.3,0.6,0.9,0.7l0.9,0.2c1.1,0.3,1.8,0.8,1.8,1.9c0,1.1-1,2-2.6,2C1224.7,267.3,1223.8,266.5,1223.7,265.1z"/>
		<path class="st6" d="M1230.1,265.1h1.5c0,0.6,0.6,1.1,1.2,1c0,0,0,0,0.1,0h0.1c0.6,0,1-0.3,1-0.7c0-0.4-0.2-0.6-0.8-0.7l-0.9-0.2
			c-1.2-0.3-2-0.8-2-1.9c0-1.2,1.1-2,2.5-2c1.7,0,2.6,0.9,2.6,2.2h-1.5c0-0.6-0.5-1-1.1-1c0,0,0,0,0,0h-0.1c-0.6,0-1,0.3-1,0.7
			c0,0.4,0.3,0.6,0.9,0.7l0.9,0.2c1.1,0.3,1.8,0.8,1.8,1.9c0,1.1-1,2-2.6,2C1231.1,267.3,1230.1,266.5,1230.1,265.1z"/>
		<path class="st6" d="M1238.7,267.3c-1.1,0.1-2-0.7-2.1-1.8c0,0,0-0.1,0-0.1c0-1.4,1.2-2,2.4-2.1l1.7-0.1V263
			c0.1-0.6-0.4-1.2-1-1.2c-0.1,0-0.1,0-0.2,0h-0.1c-0.6-0.1-1.1,0.3-1.2,0.9h-1.5c0.2-1.3,1.4-2.2,2.7-2.1c1.3-0.2,2.5,0.8,2.7,2.1
			c0,0.1,0,0.2,0,0.3v2.8c0,0.5,0,1,0.1,1.4h-1.4c0-0.3-0.1-0.6-0.1-0.9C1240.3,267,1239.5,267.4,1238.7,267.3z M1239.1,266.1
			c0.8,0,1.5-0.6,1.6-1.4v-0.4l-1.5,0.1c-0.6,0.1-1.1,0.3-1.1,0.9c0,0.5,0.4,0.8,0.9,0.8C1238.9,266.1,1239,266.1,1239.1,266.1
			L1239.1,266.1z"/>
		<path class="st6" d="M1243.4,269.1v-0.9h0.5c0.4,0,0.8-0.3,0.8-0.7c0-0.1,0-0.1,0-0.2v-0.2h-0.8v-1.7h1.7v2c0,0.9-0.7,1.6-1.5,1.7
			c0,0-0.1,0-0.1,0L1243.4,269.1z"/>
		<path class="st6" d="M1250.6,258.1h1.6v7.7h5.2v1.4h-6.8V258.1z"/>
		<path class="st6" d="M1259.3,267.2l-2.3-6.5h1.6l1.8,5.3l1.8-5.3h1.5l-2.3,6.5H1259.3z"/>
		<path class="st6" d="M1264.7,258.1h1.6v1.6h-1.6V258.1z M1264.8,260.7h1.5v6.5h-1.5V260.7z"/>
		<path class="st6" d="M1269.7,267.2l-2.3-6.5h1.6l1.8,5.3l1.8-5.3h1.5l-2.3,6.5H1269.7z"/>
	</g>
	<rect x="1229.6" y="525.8" class="st9" width="162.1" height="30"/>
	<g>
		<path class="st6" d="M1260.7,528.7h1.9l3.5,9.1h-1.6l-0.9-2.2h-4l-0.9,2.2h-1.6L1260.7,528.7z M1261.6,530.3l-1.5,3.8h3
			L1261.6,530.3z"/>
		<path class="st6" d="M1268.6,537.8h-1.5v-6.5h1.5v0.9c0.4-0.7,1.2-1.1,2-1.1c1.2-0.1,2.2,0.8,2.3,2c0,0.1,0,0.3,0,0.4v4.2h-1.5v-4
			c0-0.9-0.4-1.4-1.1-1.4h-0.1c-0.9,0.1-1.6,0.8-1.6,1.7c0,0,0,0,0,0V537.8z"/>
		<path class="st6" d="M1278.5,537.8h-1.6c-0.8,0.1-1.5-0.5-1.6-1.2c0-0.1,0-0.2,0-0.3v-3.7h-1.4v-1.2h1.4v-2.1h1.5v2.1h1.5v1.2
			h-1.5v3.3c0,0.5,0.1,0.6,0.6,0.6h1.1V537.8z"/>
		<path class="st6" d="M1281.5,538c-1.1,0.1-2-0.7-2.1-1.8c0,0,0-0.1,0-0.1c0-1.4,1.2-2,2.4-2.1l1.7-0.1v-0.2c0.1-0.6-0.4-1.2-1-1.2
			c-0.1,0-0.1,0-0.2,0h-0.1c-0.6-0.1-1.1,0.3-1.2,0.9h-1.5c0.2-1.3,1.4-2.2,2.7-2.1c1.3-0.2,2.5,0.8,2.7,2.1c0,0.1,0,0.2,0,0.3v2.8
			c0,0.5,0,1,0.1,1.4h-1.4c0-0.3-0.1-0.6-0.1-0.9C1283,537.6,1282.3,538,1281.5,538z M1281.8,536.7c0.8,0,1.5-0.6,1.6-1.4v-0.4
			l-1.5,0.1c-0.6,0.1-1.1,0.3-1.1,0.9c0,0.5,0.4,0.8,0.9,0.8C1281.7,536.7,1281.7,536.7,1281.8,536.7L1281.8,536.7z"/>
		<path class="st6" d="M1286.7,528.7h1.5v9.1h-1.5V528.7z"/>
		<path class="st6" d="M1289.7,540.4V539h1.8c0.5,0,0.6-0.1,0.6-0.6v-0.9l-2.8-6.2h1.7l1.9,4.3l1.8-4.3h1.6l-2.7,6.1v1.4
			c0.1,0.8-0.4,1.5-1.2,1.6c-0.1,0-0.2,0-0.4,0H1289.7z"/>
		<path class="st6" d="M1298.7,538c-1.1,0.1-2-0.7-2.1-1.8c0,0,0-0.1,0-0.1c0-1.4,1.2-2,2.4-2.1l1.7-0.1v-0.2c0.1-0.6-0.4-1.2-1-1.2
			c-0.1,0-0.1,0-0.2,0h-0.1c-0.6-0.1-1.1,0.3-1.2,0.9h-1.5c0.2-1.3,1.4-2.2,2.7-2.1c1.3-0.2,2.5,0.8,2.7,2.1c0,0.1,0,0.2,0,0.3v2.8
			c0,0.5,0,1,0.1,1.4h-1.4c0-0.3-0.1-0.6-0.1-0.9C1300.3,537.6,1299.5,538,1298.7,538z M1299.1,536.7c0.8,0,1.5-0.6,1.6-1.4v-0.4
			l-1.5,0.1c-0.6,0.1-1.1,0.3-1.1,0.9c0,0.5,0.4,0.8,0.9,0.8C1299,536.7,1299,536.7,1299.1,536.7L1299.1,536.7z"/>
		<path class="st6" d="M1303.4,539.7v-0.9h0.5c0.4,0,0.8-0.3,0.8-0.7c0-0.1,0-0.1,0-0.2v-0.2h-0.8v-1.7h1.7v2c0,0.9-0.7,1.6-1.5,1.7
			c0,0-0.1,0-0.1,0L1303.4,539.7z"/>
		<path class="st6" d="M1310.6,528.7h1.6v9.1h-1.6V528.7z"/>
		<path class="st6" d="M1313.7,535.7h1.5c0,0.6,0.6,1.1,1.2,1c0,0,0,0,0,0h0.1c0.6,0,1-0.3,1-0.7c0-0.4-0.2-0.6-0.8-0.7l-0.9-0.2
			c-1.2-0.3-2-0.8-2-1.9c0-1.2,1.1-2,2.5-2c1.7,0,2.6,0.9,2.6,2.2h-1.5c0-0.6-0.5-1-1.1-1c0,0,0,0,0,0h-0.1c-0.6,0-1,0.3-1,0.7
			c0,0.4,0.3,0.6,0.9,0.7l0.9,0.2c1.1,0.3,1.8,0.8,1.8,1.9c0,1.1-1,2-2.6,2C1314.7,538,1313.8,537.1,1313.7,535.7z"/>
		<path class="st6" d="M1324.5,537.8h-1.6c-0.8,0.1-1.5-0.5-1.6-1.2c0-0.1,0-0.2,0-0.3v-3.7h-1.4v-1.2h1.4v-2.1h1.5v2.1h1.5v1.2
			h-1.5v3.3c0,0.5,0.1,0.6,0.6,0.6h1.1V537.8z"/>
		<path class="st6" d="M1327.5,538c-1.1,0.1-2-0.7-2.1-1.8c0,0,0-0.1,0-0.1c0-1.4,1.2-2,2.4-2.1l1.7-0.1v-0.2c0.1-0.6-0.4-1.2-1-1.2
			c-0.1,0-0.1,0-0.2,0h-0.1c-0.6-0.1-1.1,0.3-1.2,0.9h-1.5c0.2-1.3,1.4-2.2,2.7-2.1c1.3-0.2,2.5,0.8,2.7,2.1c0,0.1,0,0.2,0,0.3v2.8
			c0,0.5,0,1,0.1,1.4h-1.4c0-0.3-0.1-0.6-0.1-0.9C1329,537.6,1328.3,538,1327.5,538z M1327.8,536.7c0.8,0,1.5-0.6,1.6-1.4v-0.4
			l-1.5,0.1c-0.6,0.1-1.1,0.3-1.1,0.9c0,0.5,0.4,0.8,0.9,0.8C1327.7,536.7,1327.7,536.7,1327.8,536.7L1327.8,536.7z"/>
		<path class="st6" d="M1334.2,537.8h-1.5v-6.5h1.5v0.9c0.4-0.7,1.2-1.1,2-1.1c1.2-0.1,2.2,0.8,2.3,2c0,0.1,0,0.3,0,0.4v4.2h-1.5v-4
			c0-0.9-0.4-1.4-1.1-1.4h-0.1c-0.9,0.1-1.6,0.8-1.6,1.7c0,0,0,0,0,0V537.8z"/>
		<path class="st6" d="M1343.7,538c-0.8,0-1.5-0.4-2-1v0.9h-1.5v-9.1h1.5v3.5c0.4-0.6,1.2-1,1.9-1c1.8,0,2.9,1.5,2.9,3.4
			S1345.5,538,1343.7,538z M1343.4,536.7h0.1c0.9,0,1.6-0.8,1.6-2.2c0-1.4-0.7-2.1-1.6-2.1h-0.1c-0.8,0-1.6,0.8-1.6,2.2
			S1342.5,536.7,1343.4,536.7z"/>
		<path class="st6" d="M1353.6,537.8h-1.5v-1.1c-0.6,1.1-1.9,1.5-3,0.9c-0.8-0.4-1.3-1.3-1.2-2.2v-4.2h1.5v4c0,0.9,0.4,1.4,1.1,1.4
			h0.1c0.9-0.1,1.6-0.9,1.5-1.8v-3.6h1.5V537.8z"/>
		<path class="st6" d="M1355.4,528.7h1.5v9.1h-1.5V528.7z"/>
		<path class="st6" d="M1358.2,539.7v-0.9h0.5c0.4,0,0.8-0.3,0.8-0.7c0-0.1,0-0.1,0-0.2v-0.2h-0.8v-1.7h1.7v2c0,0.9-0.7,1.6-1.5,1.7
			c0,0-0.1,0-0.1,0L1358.2,539.7z"/>
		<path class="st6" d="M1261,543.6v7.5h-1.5V542h2.5l2.5,7.5l2.4-7.5h2.5v9.1h-1.5v-7.5l-2.4,7.5h-1.8L1261,543.6z"/>
		<path class="st6" d="M1273,551.2c-1.1,0.1-2-0.7-2.1-1.8c0,0,0-0.1,0-0.1c0-1.4,1.2-2,2.4-2.1l1.7-0.1v-0.2c0.1-0.6-0.4-1.2-1-1.2
			c-0.1,0-0.1,0-0.2,0h-0.1c-0.6-0.1-1.1,0.3-1.2,0.9h-1.5c0.2-1.3,1.4-2.2,2.7-2.1c1.3-0.2,2.5,0.8,2.7,2.1c0,0.1,0,0.2,0,0.3v2.8
			c0,0.5,0,1,0.1,1.4h-1.4c0-0.3-0.1-0.6-0.1-0.9C1274.6,550.8,1273.8,551.2,1273,551.2z M1273.4,550c0.8,0,1.5-0.6,1.6-1.4v-0.4
			l-1.5,0.1c-0.6,0.1-1.1,0.3-1.1,0.9c0,0.5,0.4,0.8,0.9,0.8C1273.3,550,1273.3,550,1273.4,550L1273.4,550z"/>
		<path class="st6" d="M1278.2,544.6h1.5v1.4c0.2-0.9,1-1.4,1.9-1.4h0.4v1.4h-0.6c-0.9-0.1-1.7,0.6-1.8,1.4c0,0.1,0,0.3,0,0.4v3.3
			h-1.5V544.6z"/>
		<path class="st6" d="M1284.7,551.1h-1.5v-6.5h1.5v0.9c0.4-0.7,1.2-1.1,2-1.1c0.9-0.1,1.7,0.4,2.1,1.2c0.5-0.7,1.3-1.2,2.1-1.2
			c1.2-0.1,2.2,0.8,2.3,2c0,0.1,0,0.3,0,0.4v4.2h-1.5v-4c0-0.9-0.3-1.4-1.1-1.4h-0.1c-0.9,0.1-1.6,0.8-1.5,1.7c0,0,0,0,0,0v3.6h-1.5
			v-4c0-0.9-0.3-1.4-1.1-1.4h-0.1c-0.9,0.1-1.6,0.8-1.5,1.7c0,0,0,0,0,0V551.1z"/>
		<path class="st6" d="M1296.6,551.2c-1.1,0.1-2-0.7-2.1-1.8c0,0,0-0.1,0-0.1c0-1.4,1.2-2,2.4-2.1l1.7-0.1v-0.2
			c0.1-0.6-0.4-1.2-1-1.2c-0.1,0-0.1,0-0.2,0h-0.1c-0.6-0.1-1.1,0.3-1.2,0.9h-1.5c0.2-1.3,1.4-2.2,2.7-2.1c1.3-0.2,2.5,0.8,2.7,2.1
			c0,0.1,0,0.2,0,0.3v2.8c0,0.5,0,1,0.1,1.4h-1.4c0-0.3-0.1-0.6-0.1-0.9C1298.2,550.8,1297.4,551.2,1296.6,551.2z M1297,550
			c0.8,0,1.5-0.6,1.6-1.4v-0.4l-1.5,0.1c-0.6,0.1-1.1,0.3-1.1,0.9c0,0.5,0.4,0.8,0.9,0.8C1296.9,550,1296.9,550,1297,550L1297,550z"
			/>
		<path class="st6" d="M1301.8,544.6h1.5v1.4c0.2-0.9,1-1.4,1.9-1.4h0.4v1.4h-0.6c-0.9-0.1-1.7,0.6-1.8,1.4c0,0.1,0,0.3,0,0.4v3.3
			h-1.5V544.6z"/>
		<path class="st6" d="M1306.7,542h1.6v1.6h-1.6V542z M1306.8,544.6h1.5v6.5h-1.5V544.6z"/>
		<path class="st6" d="M1309.6,549h1.5c0,0.6,0.6,1.1,1.2,1c0,0,0,0,0,0h0.1c0.6,0,1-0.3,1-0.7c0-0.4-0.2-0.6-0.8-0.7l-0.9-0.2
			c-1.2-0.3-2-0.8-2-1.9c0-1.2,1.1-2,2.5-2c1.7,0,2.6,0.9,2.6,2.2h-1.5c0-0.6-0.5-1-1.1-1c0,0,0,0,0,0h-0.1c-0.6,0-1,0.3-1,0.7
			c0,0.4,0.3,0.6,0.9,0.7l0.9,0.2c1.1,0.3,1.8,0.8,1.8,1.9c0,1.1-1,2-2.6,2C1310.6,551.2,1309.6,550.3,1309.6,549z"/>
		<path class="st6" d="M1316,553V552h0.5c0.4,0,0.8-0.3,0.8-0.7c0-0.1,0-0.1,0-0.2v-0.2h-0.8v-1.7h1.7v2c0,0.9-0.7,1.6-1.5,1.7
			c0,0-0.1,0-0.1,0L1316,553z"/>
		<path class="st6" d="M1323.2,542h4c1.6-0.1,2.9,1.2,2.9,2.7c0.1,1.6-1.2,2.9-2.7,2.9c-0.1,0-0.1,0-0.2,0h-2.4v3.5h-1.6V542z
			 M1327,546.2c0.7,0.1,1.4-0.4,1.5-1.2c0-0.1,0-0.2,0-0.3c0-0.9-0.5-1.4-1.6-1.4h-2.2v2.9H1327z"/>
		<path class="st6" d="M1333.9,551.2c-1.7,0-3.1-1.4-3.1-3.1c0-0.1,0-0.2,0-0.3c-0.2-1.7,1-3.2,2.7-3.4c0.1,0,0.2,0,0.3,0
			c1.6-0.1,2.9,1.2,2.9,2.7c0,0.1,0,0.3,0,0.4c0,0.1,0,0.5,0,0.7h-4.5c0,0.9,0.7,1.7,1.6,1.8h0.1c0.6,0,1.1-0.3,1.3-0.9h1.5
			C1336.5,550.4,1335.3,551.3,1333.9,551.2z M1335.3,547c0-0.7-0.6-1.4-1.3-1.4c0,0-0.1,0-0.1,0h-0.1c-0.8,0-1.4,0.6-1.5,1.4H1335.3
			z"/>
		<path class="st6" d="M1339.7,551.1h-1.5v-6.5h1.5v0.9c0.4-0.7,1.2-1.1,2-1.1c1.2-0.1,2.2,0.8,2.3,2c0,0.1,0,0.3,0,0.4v4.2h-1.5v-4
			c0-0.9-0.4-1.4-1.1-1.4h-0.1c-0.9,0.1-1.6,0.8-1.6,1.7c0,0,0,0,0,0V551.1z"/>
		<path class="st6" d="M1345.4,547.8c0-1.9,1.1-3.4,2.9-3.4c0.8,0,1.5,0.4,1.9,1V542h1.5v9.1h-1.5v-0.9c-0.5,0.6-1.2,1-2,1
			C1346.5,551.2,1345.4,549.7,1345.4,547.8z M1350.2,547.8c0-1.4-0.8-2.2-1.6-2.2h-0.1c-0.9,0-1.6,0.8-1.6,2.1
			c0,1.4,0.7,2.2,1.6,2.2h0.1C1349.4,550,1350.2,549.2,1350.2,547.8z"/>
		<path class="st6" d="M1353.5,542h1.6v1.6h-1.6V542z M1353.6,544.6h1.5v6.5h-1.5V544.6z"/>
		<path class="st6" d="M1359.2,548.2l-0.8,0.8v2h-1.5V542h1.5v5.2l2.6-2.6h1.9l-2.6,2.6l2.7,3.9h-1.8L1359.2,548.2z"/>
	</g>
	<rect x="1381.7" y="348.7" class="st9" width="62.6" height="16.6"/>
	<g>
		<path class="st6" d="M1392.5,353.3h-3.2v-1.4h7.9v1.4h-3.2v7.7h-1.6V353.3z"/>
		<path class="st6" d="M1399.6,361.1c-1.7,0-3.1-1.4-3.1-3.1c0-0.1,0-0.2,0-0.3c-0.2-1.7,1-3.2,2.7-3.4c0.1,0,0.2,0,0.3,0
			c1.6-0.1,2.9,1.2,2.9,2.7c0,0.1,0,0.3,0,0.4c0,0.1,0,0.5,0,0.7h-4.5c0,0.9,0.7,1.7,1.6,1.8h0.1c0.6,0,1.1-0.3,1.3-0.9h1.5
			C1402.1,360.3,1400.9,361.2,1399.6,361.1z M1401,357c0-0.7-0.6-1.4-1.3-1.4c0,0-0.1,0-0.1,0h-0.1c-0.8,0-1.4,0.6-1.5,1.4H1401z"/>
		<path class="st6" d="M1405.3,361h-1.5v-9.1h1.5v3.5c0.4-0.7,1.2-1.1,2-1.1c1.2-0.1,2.2,0.8,2.3,2c0,0.1,0,0.3,0,0.4v4.2h-1.5v-4
			c0-0.9-0.4-1.4-1.1-1.4h-0.1c-0.9,0.1-1.6,0.8-1.6,1.7c0,0,0,0,0,0V361z"/>
		<path class="st6" d="M1414.1,361.1c-1.7,0-3.1-1.4-3.1-3.1c0-0.1,0-0.2,0-0.3c-0.2-1.7,1-3.2,2.7-3.4c0.1,0,0.2,0,0.3,0
			c1.6-0.1,2.9,1.2,2.9,2.7c0,0.1,0,0.3,0,0.4c0,0.1,0,0.5,0,0.7h-4.5c0,0.9,0.7,1.7,1.6,1.8h0.1c0.6,0,1.1-0.3,1.3-0.9h1.5
			C1416.7,360.3,1415.5,361.2,1414.1,361.1z M1415.5,357c0-0.7-0.6-1.4-1.3-1.4c0,0-0.1,0-0.1,0h-0.1c-0.8,0-1.4,0.6-1.5,1.4H1415.5
			z"/>
		<path class="st6" d="M1418.4,354.5h1.5v1.4c0.2-0.9,1-1.4,1.9-1.4h0.4v1.4h-0.6c-0.9-0.1-1.7,0.6-1.8,1.4c0,0.1,0,0.3,0,0.4v3.3
			h-1.5V354.5z"/>
		<path class="st6" d="M1424.9,361.1c-1.1,0.1-2-0.7-2.1-1.8c0,0,0-0.1,0-0.1c0-1.4,1.2-2,2.4-2.1l1.7-0.1v-0.2
			c0.1-0.6-0.4-1.2-1-1.2c-0.1,0-0.1,0-0.2,0h-0.1c-0.6-0.1-1.1,0.3-1.2,0.9h-1.5c0.2-1.3,1.4-2.2,2.7-2.1c1.3-0.2,2.5,0.8,2.7,2.1
			c0,0.1,0,0.2,0,0.3v2.8c0,0.5,0,1,0.1,1.4h-1.4c0-0.3-0.1-0.6-0.1-0.9C1426.5,360.7,1425.7,361.1,1424.9,361.1z M1425.3,359.9
			c0.8,0,1.5-0.6,1.6-1.4v-0.4l-1.5,0.1c-0.6,0.1-1.1,0.3-1.1,0.9c0,0.5,0.4,0.8,0.9,0.8C1425.2,359.9,1425.2,359.9,1425.3,359.9
			L1425.3,359.9z"/>
		<path class="st6" d="M1431.6,361h-1.5v-6.5h1.5v0.9c0.4-0.7,1.2-1.1,2-1.1c1.2-0.1,2.2,0.8,2.3,2c0,0.1,0,0.3,0,0.4v4.2h-1.5v-4
			c0-0.9-0.4-1.4-1.1-1.4h-0.1c-0.9,0.1-1.6,0.8-1.6,1.7c0,0,0,0,0,0V361z"/>
	</g>
	<rect x="1548.6" y="383.2" class="st9" width="81.5" height="30"/>
	<g>
		<path class="st6" d="M1557.8,386.1h4c1.6-0.1,2.9,1.2,2.9,2.7c0.1,1.6-1.2,2.9-2.7,2.9c-0.1,0-0.1,0-0.2,0h-2.4v3.5h-1.6V386.1z
			 M1561.6,390.3c0.7,0.1,1.4-0.4,1.5-1.2c0-0.1,0-0.2,0-0.3c0-0.9-0.5-1.4-1.6-1.4h-2.2v2.9H1561.6z"/>
		<path class="st6" d="M1567.6,395.3c-1.1,0.1-2-0.7-2.1-1.8c0,0,0-0.1,0-0.1c0-1.4,1.2-2,2.4-2.1l1.7-0.1V391
			c0.1-0.6-0.4-1.2-1-1.2c-0.1,0-0.1,0-0.2,0h-0.1c-0.6-0.1-1.1,0.3-1.2,0.9h-1.5c0.2-1.3,1.4-2.2,2.7-2.1c1.3-0.2,2.5,0.8,2.7,2.1
			c0,0.1,0,0.2,0,0.3v2.8c0,0.5,0,1,0.1,1.4h-1.4c0-0.3-0.1-0.6-0.1-0.9C1569.2,394.9,1568.4,395.3,1567.6,395.3z M1568,394.1
			c0.8,0,1.5-0.6,1.6-1.4v-0.4l-1.5,0.1c-0.6,0.1-1.1,0.3-1.1,0.9c0,0.5,0.4,0.8,0.9,0.8C1567.8,394.1,1567.8,394.1,1568,394.1
			L1568,394.1z"/>
		<path class="st6" d="M1574.3,395.2h-1.5v-6.5h1.5v0.9c0.4-0.7,1.2-1.1,2-1.1c1.2-0.1,2.2,0.8,2.3,2c0,0.1,0,0.3,0,0.4v4.2h-1.5v-4
			c0-0.9-0.4-1.4-1.1-1.4h-0.1c-0.9,0.1-1.6,0.8-1.6,1.7c0,0,0,0,0,0V395.2z"/>
		<path class="st6" d="M1585.9,393c-0.1,1.4-1.3,2.4-2.6,2.4c-0.1,0-0.1,0-0.2,0c-1.9-0.1-3.3-1.8-3.1-3.7c0.1-1.7,1.5-3,3.1-3.1
			c1.4-0.2,2.6,0.8,2.8,2.2c0,0.1,0,0.1,0,0.2h-1.5c0-0.7-0.6-1.2-1.3-1.1h-0.1c-1.1,0-1.6,1-1.6,2.2c0,1.2,0.5,2.2,1.6,2.2h0.1
			c0.7,0,1.2-0.5,1.3-1.1H1585.9z"/>
		<path class="st6" d="M1588.8,395.2h-1.5v-9.1h1.5v3.5c0.4-0.7,1.2-1.1,2-1.1c1.2-0.1,2.2,0.8,2.3,2c0,0.1,0,0.3,0,0.4v4.2h-1.5v-4
			c0-0.9-0.4-1.4-1.1-1.4h-0.1c-0.9,0.1-1.6,0.8-1.6,1.7c0,0,0,0,0,0V395.2z"/>
		<path class="st6" d="M1597.2,392.3l-0.8,0.8v2h-1.5v-9.1h1.5v5.2l2.6-2.6h1.9l-2.6,2.6l2.7,3.9h-1.8L1597.2,392.3z"/>
		<path class="st6" d="M1607.5,395.2h-1.5v-1.1c-0.6,1.1-1.9,1.5-3,0.9c-0.8-0.4-1.3-1.3-1.2-2.2v-4.2h1.5v4c0,0.9,0.4,1.4,1.1,1.4
			h0.1c0.9-0.1,1.6-0.9,1.5-1.8v-3.6h1.5V395.2z"/>
		<path class="st6" d="M1609.3,386.1h1.5v9.1h-1.5V386.1z"/>
		<path class="st6" d="M1614.4,395.3c-1.1,0.1-2-0.7-2.1-1.8c0,0,0-0.1,0-0.1c0-1.4,1.2-2,2.4-2.1l1.7-0.1V391
			c0.1-0.6-0.4-1.2-1-1.2c-0.1,0-0.1,0-0.2,0h-0.1c-0.6-0.1-1.1,0.3-1.2,0.9h-1.5c0.2-1.3,1.4-2.2,2.7-2.1c1.3-0.2,2.5,0.8,2.7,2.1
			c0,0.1,0,0.2,0,0.3v2.8c0,0.5,0,1,0.1,1.4h-1.4c0-0.3-0.1-0.6-0.1-0.9C1615.9,394.9,1615.2,395.3,1614.4,395.3z M1614.7,394.1
			c0.8,0,1.5-0.6,1.6-1.4v-0.4l-1.5,0.1c-0.6,0.1-1.1,0.3-1.1,0.9c0,0.5,0.4,0.8,0.9,0.8C1614.6,394.1,1614.6,394.1,1614.7,394.1
			L1614.7,394.1z"/>
		<path class="st6" d="M1619,397.1v-0.9h0.5c0.4,0,0.8-0.3,0.8-0.7c0-0.1,0-0.1,0-0.2v-0.2h-0.8v-1.7h1.7v2c0,0.9-0.7,1.6-1.5,1.7
			c0,0-0.1,0-0.1,0H1619z"/>
		<path class="st6" d="M1562.9,400.7h-3.2v-1.4h7.9v1.4h-3.2v7.7h-1.6V400.7z"/>
		<path class="st6" d="M1570.3,408.4h-1.5v-9.1h1.5v3.5c0.4-0.7,1.2-1.1,2-1.1c1.2-0.1,2.2,0.8,2.3,2c0,0.1,0,0.3,0,0.4v4.2h-1.5v-4
			c0-0.9-0.4-1.4-1.1-1.4h-0.1c-0.9,0.1-1.6,0.8-1.6,1.7c0,0,0,0,0,0V408.4z"/>
		<path class="st6" d="M1578.1,408.5c-1.1,0.1-2-0.7-2.1-1.8c0,0,0-0.1,0-0.1c0-1.4,1.2-2,2.4-2.1l1.7-0.1v-0.2
			c0.1-0.6-0.4-1.2-1-1.2c-0.1,0-0.1,0-0.2,0h-0.1c-0.6-0.1-1.1,0.3-1.2,0.9h-1.5c0.2-1.3,1.4-2.2,2.7-2.1c1.3-0.2,2.5,0.8,2.7,2.1
			c0,0.1,0,0.2,0,0.3v2.8c0,0.5,0,1,0.1,1.4h-1.4c0-0.3-0.1-0.6-0.1-0.9C1579.6,408.2,1578.9,408.6,1578.1,408.5z M1578.4,407.3
			c0.8,0,1.5-0.6,1.6-1.4v-0.4l-1.5,0.1c-0.6,0.1-1.1,0.3-1.1,0.9c0,0.5,0.4,0.8,0.9,0.8C1578.3,407.3,1578.3,407.3,1578.4,407.3
			L1578.4,407.3z"/>
		<path class="st6" d="M1584.8,408.4h-1.5v-6.5h1.5v0.9c0.4-0.7,1.2-1.1,2-1.1c1.2-0.1,2.2,0.8,2.3,2c0,0.1,0,0.3,0,0.4v4.2h-1.5v-4
			c0-0.9-0.4-1.4-1.1-1.4h-0.1c-0.9,0.1-1.6,0.8-1.6,1.7c0,0,0,0,0,0V408.4z"/>
		<path class="st6" d="M1592.4,409.4c0.1,0.7-0.4,1.4-1.2,1.5c-0.1,0-0.2,0-0.3,0h-2.1v-1.3h1.5c0.5,0,0.6-0.2,0.6-0.6v-7.1h1.5
			V409.4z M1590.9,399.3h1.6v1.6h-1.6V399.3z"/>
		<path class="st6" d="M1596,408.5c-1.1,0.1-2-0.7-2.1-1.8c0,0,0-0.1,0-0.1c0-1.4,1.2-2,2.4-2.1l1.7-0.1v-0.2c0.1-0.6-0.4-1.2-1-1.2
			c-0.1,0-0.1,0-0.2,0h-0.1c-0.6-0.1-1.1,0.3-1.2,0.9h-1.5c0.2-1.3,1.4-2.2,2.7-2.1c1.3-0.2,2.5,0.8,2.7,2.1c0,0.1,0,0.2,0,0.3v2.8
			c0,0.5,0,1,0.1,1.4h-1.4c0-0.3-0.1-0.6-0.1-0.9C1597.5,408.2,1596.8,408.6,1596,408.5z M1596.3,407.3c0.8,0,1.5-0.6,1.6-1.4v-0.4
			l-1.5,0.1c-0.6,0.1-1.1,0.3-1.1,0.9c0,0.5,0.4,0.8,0.9,0.8C1596.2,407.3,1596.2,407.3,1596.3,407.3L1596.3,407.3z"/>
		<path class="st6" d="M1602.6,408.4l-2.3-6.5h1.6l1.8,5.3l1.8-5.3h1.5l-2.3,6.5H1602.6z"/>
		<path class="st6" d="M1613.6,408.4h-1.5v-1.1c-0.6,1.1-1.9,1.5-3,0.9c-0.8-0.4-1.3-1.3-1.2-2.2v-4.2h1.5v4c0,0.9,0.4,1.4,1.1,1.4
			h0.1c0.9-0.1,1.6-0.9,1.5-1.8v-3.6h1.5V408.4z"/>
		<path class="st6" d="M1615.5,401.9h1.5v1.4c0.2-0.9,1-1.4,1.9-1.4h0.4v1.4h-0.6c-0.9-0.1-1.7,0.6-1.8,1.4c0,0.1,0,0.3,0,0.4v3.3
			h-1.5V401.9z"/>
	</g>
	<rect x="1708.3" y="586.3" class="st9" width="123.2" height="30"/>
	<g>
		<path class="st6" d="M1736.5,590.8v7.5h-1.5v-9.1h2.5l2.5,7.5l2.4-7.5h2.5v9.1h-1.5v-7.5l-2.4,7.5h-1.8L1736.5,590.8z"/>
		<path class="st6" d="M1748.5,598.4c-1.1,0.1-2-0.7-2.1-1.8c0,0,0-0.1,0-0.1c0-1.4,1.2-2,2.4-2.1l1.7-0.1v-0.2
			c0.1-0.6-0.4-1.2-1-1.2c-0.1,0-0.1,0-0.2,0h-0.1c-0.6-0.1-1.1,0.3-1.2,0.9h-1.5c0.2-1.3,1.4-2.2,2.7-2.1c1.3-0.2,2.5,0.8,2.7,2.1
			c0,0.1,0,0.2,0,0.3v2.8c0,0.5,0,1,0.1,1.4h-1.4c0-0.3-0.1-0.6-0.1-0.9C1750.1,598.1,1749.3,598.5,1748.5,598.4z M1748.9,597.2
			c0.8,0,1.5-0.6,1.6-1.4v-0.4l-1.5,0.1c-0.6,0.1-1.1,0.3-1.1,0.9c0,0.5,0.4,0.8,0.9,0.8C1748.8,597.2,1748.8,597.2,1748.9,597.2
			L1748.9,597.2z"/>
		<path class="st6" d="M1756,595.4l-0.8,0.8v2h-1.5v-9.1h1.5v5.2l2.6-2.6h1.9l-2.6,2.6l2.7,3.9h-1.8L1756,595.4z"/>
		<path class="st6" d="M1762.3,598.4c-1.1,0.1-2-0.7-2.1-1.8c0,0,0-0.1,0-0.1c0-1.4,1.2-2,2.4-2.1l1.7-0.1v-0.2
			c0.1-0.6-0.4-1.2-1-1.2c-0.1,0-0.1,0-0.2,0h-0.1c-0.6-0.1-1.1,0.3-1.2,0.9h-1.5c0.2-1.3,1.4-2.2,2.7-2.1c1.3-0.2,2.5,0.8,2.7,2.1
			c0,0.1,0,0.2,0,0.3v2.8c0,0.5,0,1,0.1,1.4h-1.4c0-0.3-0.1-0.6-0.1-0.9C1763.8,598.1,1763.1,598.5,1762.3,598.4z M1762.6,597.2
			c0.8,0,1.5-0.6,1.6-1.4v-0.4l-1.5,0.1c-0.6,0.1-1.1,0.3-1.1,0.9c0,0.5,0.4,0.8,0.9,0.8C1762.5,597.2,1762.5,597.2,1762.6,597.2
			L1762.6,597.2z"/>
		<path class="st6" d="M1771.3,598.3h-1.6c-0.8,0.1-1.5-0.5-1.6-1.2c0-0.1,0-0.2,0-0.3V593h-1.4v-1.2h1.4v-2.1h1.5v2.1h1.5v1.2h-1.5
			v3.3c0,0.5,0.1,0.6,0.6,0.6h1.1V598.3z"/>
		<path class="st6" d="M1772.5,589.2h1.6v1.6h-1.6V589.2z M1772.5,591.8h1.5v6.5h-1.5V591.8z"/>
		<path class="st6" d="M1786.7,595.4c-0.1,1.8-1.5,3.1-3.7,3.1c-2.7,0-4.3-1.9-4.3-4.7s1.6-4.7,4.3-4.7c2.2,0,3.6,1.3,3.7,3.1h-1.6
			c-0.1-1-1.1-1.8-2.1-1.7h-0.1c-1.7,0-2.7,1.3-2.7,3.3s1,3.3,2.7,3.3h0.1c1,0.1,2-0.6,2.1-1.7H1786.7z"/>
		<path class="st6" d="M1788.1,589.2h1.6v1.6h-1.6V589.2z M1788.1,591.8h1.5v6.5h-1.5V591.8z"/>
		<path class="st6" d="M1795.3,598.3h-1.6c-0.8,0.1-1.5-0.5-1.6-1.2c0-0.1,0-0.2,0-0.3V593h-1.4v-1.2h1.4v-2.1h1.5v2.1h1.5v1.2h-1.5
			v3.3c0,0.5,0.1,0.6,0.6,0.6h1.1V598.3z"/>
		<path class="st6" d="M1796.3,600.8v-1.3h1.8c0.5,0,0.6-0.1,0.6-0.6V598l-2.8-6.2h1.7l1.9,4.3l1.8-4.3h1.6l-2.7,6.1v1.4
			c0.1,0.8-0.4,1.5-1.2,1.6c-0.1,0-0.2,0-0.4,0H1796.3z"/>
		<path class="st6" d="M1802.7,600.2v-0.9h0.5c0.4,0,0.8-0.3,0.8-0.7c0-0.1,0-0.1,0-0.2v-0.2h-0.8v-1.7h1.7v2c0,0.9-0.7,1.6-1.5,1.7
			c0,0-0.1,0-0.1,0H1802.7z"/>
		<path class="st6" d="M1717.8,604v7.5h-1.5v-9.1h2.5l2.5,7.5l2.4-7.5h2.5v9.1h-1.5V604l-2.4,7.5h-1.8L1717.8,604z"/>
		<path class="st6" d="M1729.8,611.7c-1.1,0.1-2-0.7-2.1-1.8c0,0,0-0.1,0-0.1c0-1.4,1.2-2,2.4-2.1l1.7-0.1v-0.2
			c0.1-0.6-0.4-1.2-1-1.2c-0.1,0-0.1,0-0.2,0h-0.1c-0.6-0.1-1.1,0.3-1.2,0.9h-1.5c0.2-1.3,1.4-2.2,2.7-2.1c1.3-0.2,2.5,0.8,2.7,2.1
			c0,0.1,0,0.2,0,0.3v2.8c0,0.5,0,1,0.1,1.4h-1.4c0-0.3-0.1-0.6-0.1-0.9C1731.4,611.3,1730.6,611.7,1729.8,611.7z M1730.2,610.5
			c0.8,0,1.5-0.6,1.6-1.4v-0.4l-1.5,0.1c-0.6,0.1-1.1,0.3-1.1,0.9c0,0.5,0.4,0.8,0.9,0.8C1730,610.5,1730.1,610.5,1730.2,610.5
			L1730.2,610.5z"/>
		<path class="st6" d="M1736.5,611.5h-1.5V605h1.5v0.9c0.4-0.7,1.2-1.1,2-1.1c1.2-0.1,2.2,0.8,2.3,2c0,0.1,0,0.3,0,0.4v4.2h-1.5v-4
			c0-0.9-0.4-1.4-1.1-1.4h-0.1c-0.9,0.1-1.6,0.8-1.6,1.7c0,0,0,0,0,0V611.5z"/>
		<path class="st6" d="M1742.2,608.3c0-1.9,1.1-3.4,2.9-3.4c0.8,0,1.5,0.4,1.9,1v-3.5h1.5v9.1h-1.5v-0.9c-0.5,0.6-1.2,1-2,1
			C1743.2,611.7,1742.2,610.2,1742.2,608.3z M1747,608.3c0-1.4-0.8-2.2-1.6-2.2h-0.1c-0.9,0-1.6,0.8-1.6,2.1c0,1.4,0.7,2.2,1.6,2.2
			h0.1C1746.2,610.5,1747,609.7,1747,608.3z"/>
		<path class="st6" d="M1752,611.7c-1.1,0.1-2-0.7-2.1-1.8c0,0,0-0.1,0-0.1c0-1.4,1.2-2,2.4-2.1l1.7-0.1v-0.2c0.1-0.6-0.4-1.2-1-1.2
			c-0.1,0-0.1,0-0.2,0h-0.1c-0.6-0.1-1.1,0.3-1.2,0.9h-1.5c0.2-1.3,1.4-2.2,2.7-2.1c1.3-0.2,2.5,0.8,2.7,2.1c0,0.1,0,0.2,0,0.3v2.8
			c0,0.5,0,1,0.1,1.4h-1.4c0-0.3-0.1-0.6-0.1-0.9C1753.6,611.3,1752.8,611.7,1752,611.7z M1752.4,610.5c0.8,0,1.5-0.6,1.6-1.4v-0.4
			l-1.5,0.1c-0.6,0.1-1.1,0.3-1.1,0.9c0,0.5,0.4,0.8,0.9,0.8C1752.3,610.5,1752.3,610.5,1752.4,610.5L1752.4,610.5z"/>
		<path class="st6" d="M1757.2,602.4h1.5v9.1h-1.5V602.4z"/>
		<path class="st6" d="M1766.1,611.5h-1.5v-1.1c-0.6,1.1-1.9,1.5-3,0.9c-0.8-0.4-1.3-1.3-1.2-2.2V605h1.5v4c0,0.9,0.4,1.4,1.1,1.4
			h0.1c0.9-0.1,1.6-0.9,1.5-1.8V605h1.5V611.5z"/>
		<path class="st6" d="M1767.6,614.1v-1.3h1.8c0.5,0,0.6-0.1,0.6-0.6v-0.9l-2.8-6.2h1.7l1.9,4.3l1.8-4.3h1.6l-2.7,6.1v1.4
			c0.1,0.8-0.4,1.5-1.2,1.6c-0.1,0-0.2,0-0.4,0H1767.6z"/>
		<path class="st6" d="M1774.6,608.3c0.1-1.8,1.6-3.1,3.4-3c1.8,0.1,3.1,1.6,3,3.4c-0.1,1.7-1.5,3-3.2,3c-1.7,0-3.2-1.4-3.2-3.1
			C1774.6,608.5,1774.6,608.4,1774.6,608.3z M1779.5,608.3c0-1.4-0.7-2.2-1.6-2.2h-0.1c-1,0-1.6,0.8-1.6,2.2s0.7,2.2,1.6,2.2h0.1
			C1778.8,610.5,1779.5,609.7,1779.5,608.3z"/>
		<path class="st6" d="M1783.9,611.5h-1.5V605h1.5v0.9c0.4-0.7,1.2-1.1,2-1.1c1.2-0.1,2.2,0.8,2.3,2c0,0.1,0,0.3,0,0.4v4.2h-1.5v-4
			c0-0.9-0.4-1.4-1.1-1.4h-0.1c-0.9,0.1-1.6,0.8-1.6,1.7c0,0,0,0,0,0V611.5z"/>
		<path class="st6" d="M1789.5,612.3h1.5c0.1,0.5,0.7,0.9,1.6,0.9h0.1c0.9,0.1,1.6-0.6,1.7-1.4c0-0.1,0-0.2,0-0.3v-0.9
			c-0.4,0.6-1.1,1-1.9,1c-1.5,0-2.8-1.1-2.8-3.3s1.3-3.3,2.8-3.3c0.8,0,1.5,0.3,1.9,1V605h1.5v6.6c0,1.5-1.1,2.8-3.3,2.8
			C1790.8,614.4,1789.6,613.5,1789.5,612.3z M1792.8,610.3c0.8,0,1.5-0.8,1.5-2.1c0-1.3-0.7-2.1-1.5-2.1h-0.1
			c-0.9,0-1.6,0.7-1.6,2.1c0,1.4,0.7,2.1,1.6,2.1H1792.8z"/>
		<path class="st6" d="M1808.5,608.6c-0.1,1.8-1.5,3.1-3.7,3.1c-2.7,0-4.3-1.9-4.3-4.7s1.6-4.7,4.3-4.7c2.2,0,3.6,1.3,3.7,3.1h-1.6
			c-0.1-1-1.1-1.8-2.1-1.7h-0.1c-1.7,0-2.7,1.3-2.7,3.3c0,1.9,1,3.3,2.7,3.3h0.1c1,0.1,2-0.6,2.1-1.7H1808.5z"/>
		<path class="st6" d="M1809.9,602.4h1.6v1.6h-1.6V602.4z M1809.9,605h1.5v6.5h-1.5V605z"/>
		<path class="st6" d="M1817.1,611.5h-1.6c-0.8,0.1-1.5-0.5-1.6-1.2c0-0.1,0-0.2,0-0.3v-3.7h-1.4V605h1.4v-2.1h1.5v2.1h1.5v1.2h-1.5
			v3.3c0,0.5,0.1,0.6,0.6,0.6h1.1V611.5z"/>
		<path class="st6" d="M1818.1,614.1v-1.3h1.8c0.5,0,0.6-0.1,0.6-0.6v-0.9l-2.8-6.2h1.7l1.9,4.3l1.8-4.3h1.6l-2.7,6.1v1.4
			c0.1,0.8-0.4,1.5-1.2,1.6c-0.1,0-0.2,0-0.4,0H1818.1z"/>
	</g>
	<rect x="1685.9" y="259.4" class="st9" width="58.9" height="16.6"/>
	<g>
		<path class="st6" d="M1702.9,264.1h-0.1c-1,0-1.7,0.6-1.7,1.2c0,0.7,0.4,1,1.2,1.1l1.4,0.3c1.6,0.3,2.5,1.1,2.5,2.6
			c0,1.6-1.3,2.7-3.4,2.7c-2.4,0-3.6-1.2-3.7-3.1h1.6c0,1.1,0.8,1.7,2.2,1.7h0.1c1.1,0,1.7-0.6,1.7-1.2c0-0.6-0.3-1-1.2-1.2
			l-1.5-0.3c-1.3-0.1-2.4-1.2-2.3-2.6c0-1.4,1.2-2.7,3.4-2.7s3.4,1.2,3.4,2.9h-1.6C1704.7,264.7,1703.9,264,1702.9,264.1
			C1703,264.1,1702.9,264.1,1702.9,264.1z"/>
		<path class="st6" d="M1710.5,272.1c-1.7,0-3.1-1.4-3.1-3.1c0-0.1,0-0.2,0-0.3c-0.2-1.7,1-3.2,2.7-3.4c0.1,0,0.2,0,0.3,0
			c1.6,0,2.9,1.2,2.9,2.7c0,0.1,0,0.3,0,0.4c0,0.1,0,0.5,0,0.7h-4.5c0,0.9,0.7,1.7,1.6,1.8h0.1c0.6,0,1.1-0.3,1.3-0.9h1.5
			C1713,271.2,1711.8,272.2,1710.5,272.1z M1711.9,267.9c0-0.7-0.6-1.4-1.3-1.4c0,0-0.1,0-0.1,0h-0.1c-0.8,0-1.4,0.6-1.5,1.4H1711.9
			z"/>
		<path class="st6" d="M1714.4,268.7c0.1-1.8,1.6-3.1,3.4-3s3.1,1.6,3,3.4c-0.1,1.7-1.5,3-3.2,3c-1.7,0-3.2-1.4-3.2-3.1
			C1714.3,268.8,1714.3,268.8,1714.4,268.7z M1719.2,268.7c0-1.4-0.7-2.2-1.6-2.2h-0.1c-1,0-1.6,0.8-1.6,2.2c0,1.4,0.7,2.2,1.6,2.2
			h0.1C1718.6,270.8,1719.2,270,1719.2,268.7z"/>
		<path class="st6" d="M1727.8,271.9h-1.5v-1.1c-0.6,1.1-1.9,1.5-3,0.9c-0.8-0.4-1.3-1.3-1.2-2.2v-4.2h1.5v4c0,0.9,0.4,1.4,1.1,1.4
			h0.1c0.9-0.1,1.6-0.9,1.5-1.8v-3.6h1.5V271.9z"/>
		<path class="st6" d="M1729.6,262.8h1.5v9.1h-1.5V262.8z"/>
	</g>
</g>
</svg>
