<?xml version="1.0" encoding="utf-8"?>
<!-- Generator: Adobe Illustrator 24.3.0, SVG Export Plug-In . SVG Version: 6.00 Build 0)  -->
<svg version="1.1" id="Livello_1" xmlns="http://www.w3.org/2000/svg" xmlns:xlink="http://www.w3.org/1999/xlink" x="0px" y="0px"
	 viewBox="0 0 1920 1000" style="enable-background:new 0 0 1920 1000;" xml:space="preserve">
<style type="text/css">
	.st0{fill:#222145;}
	.st1{fill:#567AFC;}
	.st2{fill:#EE3E1C;}
	.st3{fill:none;stroke:#FFFFFF;stroke-miterlimit:10;}
	.st4{fill:#EE3E1C;stroke:#EE3E1C;stroke-width:2.5;stroke-miterlimit:10;}
	.st5{fill:#FFFFFF;}
	.st6{fill:none;stroke:#FFFFFF;stroke-width:1.5;stroke-miterlimit:10;}
	.st7{fill:none;stroke:#567AFC;stroke-miterlimit:10;}
	.st8{fill:none;stroke:#567AFC;stroke-linecap:round;stroke-miterlimit:10;}
	.st9{fill:#222145;stroke:#EE3E1C;stroke-miterlimit:10;}
</style>
<rect y="0" class="st0" width="1924.6" height="1000.1"/>
<g>
	<path class="st1" d="M318.5,726.1c0-0.2,0-0.3,0-0.5c0-2.1,0.2-4.1,0.1-6.2c-0.4-7.5-1.6-14.9-1.4-22.4c0.5-12.9-1.5-25.8-5.8-38
		c-0.4-1-0.6-2-0.6-3c1.1-13.5-8-67.9-12.3-76.5c-3.7-7.3-9.1-12.7-17.2-14.5c-4.7-1.1-9.2-3-13.2-5.6c-3.7-2.3-7.4-4.7-11.2-6.7
		c-3.9-1.8-6.7-5.3-7.5-9.5c1.2-1.6,2.8-3.1,3.4-4.8c1.3-3.3,2.4-6.5,3.5-9.9c6-1.3,7.4-11.5,4.4-14.3c-1.5-1.4-2.8-1.2-3.8-0.6
		c0.9-2.7,2.3-12.3,0.2-17.6c-2.9-7.2-11.8-11.5-21-11.7c-9.1-0.2-19.8,3.4-22.8,11.7c-3,8.3-1.4,14-0.5,17.7l0,0
		c-1-0.7-2.4-1.1-4,0.5c-3,2.8-1.5,13.2,4.6,14.4c0.7,2.2,1.5,4.4,2.5,6.5c1.1,2.4,2.4,4.6,3.5,6.9c0.3,0.6,0.9,1.3,0.8,1.8
		c-0.9,3.1-2,6-5.1,7.8c-5.1,2.9-9.9,6.3-15,9.3c-2.3,1.5-4.8,2.6-7.5,3.2c-12.4,2.3-19.2,10.3-22.8,21.6
		c-2.5,7.7-10.9,55.8-9.8,70.2c0,1.1-0.2,2.2-0.6,3.3c-2.9,7.8-4.7,16-5.3,24.3c-0.7,11.3-1.2,22.7-1.7,34c-0.1,2.1-0.3,4.2-0.3,6.2
		c0,0.6,0,1.1,0,1.7h0.1l-0.2,7c0,0,0.2,13.9,1.1,17.8s3.9,9.3,3.9,9.3s3.5,4.5,5.4,5.8c1.9,1.3,4.8,2.8,4,0
		c-0.7-2.7-5.2-6.2-6.1-8.6c1.6,0.6,4.6,1.8,5.3,2c1,0.4,1.1-0.9,1.1-0.9c-0.8-2.5-4.9-5-7.6-6.4c-0.4-2.2-0.3-4.5,0.3-6.7
		c1.2-4.9,2.6-6.9,4.9-6.8c2.3,0.1,2.9,4.7,5.5,6.3s3.3-0.8,3.3-0.8c-2.4-2.6-1.6-8.7-2.4-12.4c-0.5-2.1-1.6-4.1-3.3-5.5
		c0-1.3,0.1-2.5,0.5-3.7c4.1-13.5,8.4-26.9,11.8-40.6c1.7-6.7,1.8-13.9,1.9-20.8c-0.1-2.7,0.2-5.4,1-7.9c2.2-6.3,4.3-12.7,6.4-19.1
		c0.2-0.7,0.5-1.3,0.7-1.9c0.3,0,0.6,0,0.9,0.1c1,13.8,2.3,27.5,3,41.3c0.4,6.8,0.2,13.6-0.5,20.4c-1.7,15.4-4.5,30.8-5.6,46.2
		c-1.5,19.9,1.7,39.6,5.8,58.9c2.7,11.7,4,23.7,3.9,35.7c0,3.5-1,7-1.7,10.6c-0.6,3.3-1.6,6.6-2,10c-1.5,13.2,0.4,26.2,3.8,38.8
		c2.9,10.8,6.7,21.3,10.3,31.9c1.7,5.1,3.5,10.1,3.8,15.4c-1.1,2.9-1.9,5.9-2.2,9c-0.2,3.8-12.1,12.2-13.8,16.8s0.9,5.5,0.9,5.5
		h29.5c3,0,4.7-2.3,4.7-6c0-3.6-3.3-24-3.5-25.7c-1.4-17.5-1.9-35.1,0.6-52.6c1.9-13.3,0.4-26.5-2.5-39.5
		c-1.1-5.2-0.8-10.6,0.9-15.6c1.4-4.2,2.3-8.5,2.7-13c1.9-22.9,3.6-45.9,5.4-68.9c0.2-2.8,0.5-5.7,0.7-8.5c0.4,0.3,0.7,0.8,0.7,1.3
		c1.8,23.4,3.5,46.9,5.4,70.3c0.5,6.2,0.4,12.5,3.1,18.4c2.3,5.2,2.3,10.6,1.1,16.1c-2.8,12.6-4.3,25.4-2.6,38.4
		c0.7,4.3,1.2,8.6,1.4,12.9c0.2,13.5,0.8,27-0.6,40.4l-0.1,0c0,0-3.5,22.1-3.5,25.8s1.6,6,4.7,6h29.5c0,0,2.6-1,0.9-5.5
		c-1.6-4.5-13.5-12.9-13.8-16.8c-0.4-3.1-1.1-6.1-2.2-9l-0.1,0c0.2-5.3,1.9-10.3,3.9-15.3c4.9-12,8.7-24.4,11.5-37.1
		c2.6-12.5,4.3-25.1,1.9-37.8c-0.8-4.5-2.7-9-3-13.5c-0.6-13.1,1.3-25.9,3.8-38.9c4.3-21.9,8.3-44,4.9-66.5
		c-1.4-9.5-2.3-19-3.3-28.5c-0.8-7.8-2.1-15.6-2-23.4c0.1-10.4,1.1-20.8,2-31.2c0.4-5.3,1.3-10.5,2-15.7c3.2,7.8,5.9,15.6,8.5,23.4
		c0.1,0.6,0.1,1.1,0.1,1.7c0.1,5.8-0.4,11.8,0.5,17.5c2.4,16.1,7.6,31.4,12.8,46.8c0.4,1.3,0.6,2.6,0.6,4c-1.7,1.5-3,3.5-3.5,5.7
		c-0.8,3.6,0.1,9.8-2.4,12.4c0,0,0.7,2.4,3.3,0.8s3.2-6.2,5.5-6.3s3.7,2,4.9,6.8c0.5,2.2,0.6,4.5,0.3,6.7c-2.7,1.4-6.8,3.9-7.6,6.4
		c0,0,0,1.3,1.1,0.9c0.8-0.3,3.7-1.4,5.3-2c-0.9,2.4-5.3,5.9-6.1,8.6c-0.8,2.8,2.1,1.3,4,0s5.4-5.8,5.4-5.8s3.1-5.5,3.9-9.3
		c0.9-3.8,1.1-17.8,1.1-17.8L318.5,726.1z"/>
	<circle id="Hair_2" class="st2" cx="230.3" cy="487.1" r="11.8"/>
	<line class="st3" x1="230.8" y1="487.4" x2="177.4" y2="452.1"/>
	<rect x="123.7" y="438.9" class="st4" width="54.5" height="26.5"/>
	<g>
		<path class="st0" d="M135.1,446.2h1.9v4.1h4.3v-4.1h1.9v9.8h-1.9V452H137v4.1h-1.9V446.2z"/>
		<path class="st0" d="M151.3,453.7h-4.1l-0.9,2.3h-2l3.9-9.8h2.2l3.8,9.8h-2L151.3,453.7z M149.3,448.3l-1.4,3.7h2.8L149.3,448.3z"
			/>
		<path class="st0" d="M155.4,446.2h1.9v9.8h-1.9V446.2z"/>
		<path class="st0" d="M159.6,446.2h4.6c1.5-0.1,2.9,1,3,2.6c0,0,0,0.1,0,0.1c0.1,1.1-0.6,2.1-1.7,2.5c1.1,0,1.5,0.5,1.5,1.4v3.3
			h-1.9v-2.8c0-0.7-0.2-0.9-0.9-0.9h-2.7v3.7h-1.9L159.6,446.2z M163.6,450.7c1.1,0,1.7-0.5,1.7-1.4c0-0.9-0.6-1.3-1.7-1.3h-2.1v2.8
			L163.6,450.7z"/>
	</g>
	<circle class="st5" cx="230.3" cy="487.1" r="2.9"/>
</g>
<g>
	<circle class="st6" cx="1237.3" cy="526.1" r="174.8"/>
	<circle class="st2" cx="1164.1" cy="540.9" r="73.1"/>
</g>
<g>
	<polygon class="st7" points="489.9,405.4 489.9,876.1 972,876.1 972,708.8 972,708.8 972,380.5 783,380.5 783,32.5 309.5,32.5 
		309.5,406.3 	"/>
	<rect x="203.6" y="32.5" class="st7" width="105.9" height="31"/>
	<g>
		<path class="st1" d="M227.8,40.7h2.5l4.8,12.3h-2.2l-1.2-3h-5.5l-1.2,3h-2.2L227.8,40.7z M229,42.9l-2,5.2h4L229,42.9z"/>
		<path class="st1" d="M238.5,53h-2v-8.8h2v1.2c0.6-0.9,1.6-1.4,2.6-1.4c1.2-0.1,2.2,0.5,2.8,1.6c0.6-1,1.7-1.6,2.9-1.6
			c2.2,0,3.1,1.4,3.1,3.3V53h-2v-5.4c0-1.2-0.5-1.9-1.5-1.9h-0.1c-1.2,0.1-2.1,1.1-2,2.3c0,0,0,0,0,0.1V53h-2v-5.4
			c0-1.2-0.5-1.9-1.5-1.9h-0.1c-1.2,0.1-2.1,1.1-2,2.3c0,0,0,0,0,0.1L238.5,53z"/>
		<path class="st1" d="M255.9,53.1c-2.2,0-4.2-1.6-4.2-4.6c0-2.8,1.7-4.6,4.1-4.6c2.5,0,3.9,1.8,3.9,4.2c0,0.2,0,0.7,0,0.9h-6
			c0,1.3,1,2.3,2.2,2.4h0.1c0.8,0.1,1.5-0.5,1.7-1.2h2C259.4,52,257.8,53.3,255.9,53.1z M257.8,47.5c0-1-0.8-1.9-1.8-1.9
			c0,0-0.1,0-0.1,0h-0.1c-1.1,0-2,0.8-2,1.9H257.8z"/>
		<path class="st1" d="M261.7,44.2h2V46c0.3-1.2,1.4-2,2.5-1.9h0.6V46h-0.8c-1.2-0.1-2.2,0.7-2.4,1.9c0,0.2,0,0.3,0,0.5V53h-2V44.2z
			"/>
		<path class="st1" d="M268.4,40.7h2.2v2.2h-2.2V40.7z M268.4,44.2h2V53h-2V44.2z"/>
		<path class="st1" d="M280.4,50c-0.2,2.1-1.6,3.2-3.8,3.2c-2.5,0-4.2-1.9-4.2-4.6c0-2.7,1.7-4.6,4.2-4.6c2.2,0,3.6,1.1,3.8,3.2h-2
			c-0.1-0.9-0.8-1.6-1.7-1.5h-0.1c-1.5,0-2.1,1.4-2.1,2.9c0,1.6,0.6,2.9,2.1,2.9h0.1c0.9,0,1.7-0.6,1.7-1.5L280.4,50z"/>
		<path class="st1" d="M284.6,53.1c-1.5,0.1-2.8-1-2.9-2.4c0,0,0-0.1,0-0.1c0-1.9,1.6-2.7,3.2-2.8l2.3-0.2v-0.2
			c0.1-0.8-0.6-1.6-1.4-1.6c-0.1,0-0.1,0-0.2,0h-0.1c-0.8-0.1-1.5,0.4-1.6,1.2h-2c0.1-1.6,1.6-2.8,3.7-2.8c2.2,0,3.6,1.3,3.6,3.2V51
			c0,0.6,0,1.3,0.1,1.9h-1.9c-0.1-0.4-0.1-0.8-0.1-1.2C286.7,52.6,285.7,53.2,284.6,53.1z M285.1,51.5c1.1,0,2.1-0.8,2.1-1.9V49
			l-2,0.2c-0.8,0.1-1.5,0.5-1.5,1.2c0,0.6,0.6,1.1,1.2,1.1c0,0,0,0,0.1,0H285.1z"/>
	</g>
	<rect x="1041.1" y="845.1" class="st7" width="105.9" height="31"/>
	<g>
		<path class="st1" d="M1081.6,853.3h2.5l4.8,12.3h-2.2l-1.2-3h-5.5l-1.2,3h-2.2L1081.6,853.3z M1082.8,855.5l-2,5.2h4L1082.8,855.5
			z"/>
		<path class="st1" d="M1089.6,862.8h2c0.1,0.8,0.8,1.5,1.6,1.4c0,0,0,0,0.1,0h0.1c0.8,0,1.4-0.4,1.4-1c0-0.5-0.3-0.8-1-1l-1.2-0.3
			c-1.7-0.4-2.7-1.1-2.7-2.6c0-1.7,1.4-2.7,3.4-2.7c2.3,0,3.5,1.2,3.5,3h-2c0-0.8-0.6-1.4-1.4-1.4c0,0,0,0-0.1,0h-0.2
			c-0.8,0-1.3,0.4-1.3,1c0,0.5,0.4,0.8,1.2,1l1.3,0.3c1.5,0.4,2.5,1.1,2.5,2.6c0,1.5-1.3,2.7-3.5,2.7
			C1091,865.8,1089.7,864.6,1089.6,862.8z"/>
		<path class="st1" d="M1098.9,853.3h2.2v2.2h-2.2V853.3z M1098.9,856.8h2v8.8h-2V856.8z"/>
		<path class="st1" d="M1105.7,865.8c-1.5,0.1-2.8-1-2.9-2.4c0,0,0-0.1,0-0.1c0-1.9,1.6-2.7,3.2-2.8l2.3-0.2v-0.2
			c0.1-0.8-0.6-1.6-1.4-1.6c-0.1,0-0.1,0-0.2,0h-0.1c-0.8-0.1-1.5,0.4-1.6,1.2h-2c0.1-1.6,1.6-2.8,3.7-2.8c2.2,0,3.6,1.3,3.6,3.2
			v3.8c0,0.6,0,1.3,0.1,1.9h-1.9c-0.1-0.4-0.1-0.8-0.1-1.2C1107.8,865.3,1106.8,865.8,1105.7,865.8z M1106.2,864.1
			c1.1,0,2.1-0.8,2.1-1.9v-0.5l-2,0.2c-0.8,0.1-1.5,0.5-1.5,1.2c0,0.6,0.6,1.1,1.2,1.1c0,0,0,0,0.1,0H1106.2z"/>
	</g>
	<polyline class="st8" points="1316.2,127.9 1316.2,32.1 1861,32.1 1861,845.1 1041.1,845.1 1041.1,552.4 1054.5,552.4 	"/>
	<rect x="1196.1" y="85.7" class="st7" width="105.9" height="31"/>
	<g>
		<path class="st1" d="M1221.6,93.8h9.2v1.9h-7.1v3.2h6v1.9h-6v3.5h7.2v1.9h-9.3V93.8z"/>
		<path class="st1" d="M1240.4,106.1h-2v-1.4c-0.5,1-1.5,1.7-2.7,1.6c-2,0-3-1.4-3-3.3v-5.7h2v5.4c0,1.3,0.5,1.9,1.5,1.9h0.2
			c1.2-0.1,2.1-1.3,2-2.5v-4.8h2V106.1z"/>
		<path class="st1" d="M1242.8,97.4h2v1.8c0.3-1.2,1.4-2,2.5-1.9h0.6v1.9h-0.8c-1.2-0.1-2.2,0.7-2.4,1.9c0,0.2,0,0.3,0,0.5v4.5h-2
			V97.4z"/>
		<path class="st1" d="M1248.8,101.7c0.1-2.4,2.2-4.2,4.6-4.1s4.2,2.2,4.1,4.6c-0.1,2.3-2,4.1-4.3,4.1c-2.4,0-4.3-1.9-4.3-4.2
			C1248.8,102,1248.8,101.9,1248.8,101.7z M1255.4,101.7c0-1.8-0.9-2.9-2.2-2.9h-0.2c-1.3,0-2.2,1.1-2.2,2.9c0,1.8,0.9,2.9,2.2,2.9
			h0.2C1254.5,104.7,1255.4,103.6,1255.4,101.7z"/>
		<path class="st1" d="M1267.9,101.7c0,2.6-1.5,4.6-3.9,4.6c-1,0-2-0.5-2.6-1.4v4.7h-2V97.4h2v1.2c0.6-0.9,1.6-1.4,2.7-1.4
			C1266.4,97.2,1267.9,99.1,1267.9,101.7z M1261.4,101.7c0,1.9,1.1,2.9,2.2,2.9h0.1c1.2,0,2.2-1.1,2.2-2.9c0-1.9-0.9-2.9-2.2-2.9
			h-0.1C1262.4,98.8,1261.4,99.9,1261.4,101.7z"/>
		<path class="st1" d="M1273.5,106.3c-2.2,0-4.2-1.6-4.2-4.6c0-2.8,1.7-4.6,4.1-4.6c2.5,0,3.9,1.8,3.9,4.2c0,0.2,0,0.7,0,0.9h-6
			c0,1.3,1,2.3,2.2,2.4h0.1c0.8,0.1,1.5-0.5,1.7-1.2h2C1276.9,105.2,1275.3,106.5,1273.5,106.3z M1275.4,100.7c0-1-0.8-1.8-1.8-1.9
			c0,0-0.1,0-0.1,0h-0.1c-1.1,0-2,0.8-2,1.9H1275.4z"/>
	</g>
	<polyline class="st8" points="1302,131.3 1302,116.7 1172.3,116.7 1172.3,32.1 796.7,32.1 796.7,365.9 986.6,365.9 986.6,530.1 
		1053.2,530.1 	"/>
	<line class="st8" x1="1302" y1="354.8" x2="1302" y2="131.3"/>
	<line class="st8" x1="1317.1" y1="361" x2="1316.2" y2="127.9"/>
	<rect x="1597.4" y="861" class="st7" width="105.9" height="31"/>
	<g>
		<path class="st1" d="M1618.4,875.3c0-4,2.5-6.3,5.9-6.3c3.4,0,5.9,2.4,5.9,6.3c0,4-2.5,6.3-5.9,6.3
			C1620.9,881.7,1618.4,879.3,1618.4,875.3z M1624.4,879.8c2.2,0,3.7-1.7,3.7-4.4c0-2.8-1.5-4.4-3.7-4.4h-0.2
			c-2.2,0-3.7,1.7-3.7,4.4c0,2.8,1.5,4.4,3.7,4.4H1624.4z"/>
		<path class="st1" d="M1639.8,878.5c-0.2,2.1-1.6,3.2-3.8,3.2c-2.5,0-4.2-1.9-4.2-4.6s1.7-4.6,4.2-4.6c2.2,0,3.6,1.1,3.8,3.2h-2
			c-0.1-0.9-0.8-1.6-1.7-1.5h-0.1c-1.5,0-2.1,1.4-2.1,2.9s0.6,2.9,2.1,2.9h0.1c0.9,0,1.7-0.6,1.7-1.5L1639.8,878.5z"/>
		<path class="st1" d="M1645.3,881.7c-2.2,0-4.2-1.6-4.2-4.6c0-2.8,1.7-4.6,4.1-4.6c2.5,0,3.9,1.8,3.9,4.2c0,0.2,0,0.7,0,0.9h-6
			c0,1.3,1,2.3,2.2,2.4h0.1c0.8,0.1,1.5-0.5,1.7-1.2h2C1648.8,880.6,1647.1,881.8,1645.3,881.7z M1647.2,876.1c0-1-0.8-1.9-1.8-1.9
			c0,0-0.1,0-0.1,0h-0.1c-1.1,0-2,0.8-2,1.9H1647.2z"/>
		<path class="st1" d="M1653.4,881.7c-1.5,0.1-2.8-1-2.9-2.4c0,0,0-0.1,0-0.1c0-1.9,1.6-2.7,3.2-2.8l2.3-0.2v-0.2
			c0.1-0.8-0.6-1.6-1.4-1.6c-0.1,0-0.1,0-0.2,0h-0.1c-0.8-0.1-1.5,0.4-1.6,1.2h-2c0.1-1.6,1.6-2.8,3.7-2.8c2.2,0,3.6,1.3,3.6,3.2
			v3.8c0,0.6,0,1.3,0.1,1.9h-1.9c-0.1-0.4-0.1-0.8-0.1-1.2C1655.5,881.2,1654.5,881.7,1653.4,881.7z M1653.9,880
			c1.1,0,2.1-0.8,2.1-1.9v-0.5l-2,0.2c-0.8,0.1-1.5,0.5-1.5,1.2c0,0.6,0.6,1.1,1.2,1.1c0,0,0,0,0.1,0H1653.9z"/>
		<path class="st1" d="M1662.4,881.5h-2v-8.8h2v1.3c0.6-0.9,1.6-1.5,2.7-1.4c1.6-0.1,3,1.1,3.1,2.7c0,0.2,0,0.4,0,0.5v5.7h-2v-5.4
			c0-1.2-0.5-1.9-1.5-1.9h-0.2c-1.2,0.1-2.2,1.1-2.1,2.4c0,0,0,0,0,0V881.5z"/>
		<path class="st1" d="M1670.5,869.2h2.2v2.2h-2.2V869.2z M1670.6,872.7h2v8.8h-2V872.7z"/>
		<path class="st1" d="M1677.4,881.7c-1.5,0.1-2.8-1-2.9-2.4c0,0,0-0.1,0-0.1c0-1.9,1.6-2.7,3.2-2.8l2.3-0.2v-0.2
			c0.1-0.8-0.6-1.6-1.4-1.6c-0.1,0-0.1,0-0.2,0h-0.1c-0.8-0.1-1.5,0.4-1.6,1.2h-2c0.1-1.6,1.6-2.8,3.7-2.8c2.2,0,3.6,1.3,3.6,3.2
			v3.8c0,0.6,0,1.3,0.1,1.9h-1.9c-0.1-0.4-0.1-0.8-0.1-1.2C1679.5,881.2,1678.5,881.7,1677.4,881.7z M1677.9,880
			c1.1,0,2.1-0.8,2.1-1.9v-0.5l-2,0.2c-0.8,0.1-1.5,0.5-1.5,1.2c0,0.6,0.6,1.1,1.2,1.1c0,0,0,0,0.1,0H1677.9z"/>
	</g>
	<rect x="1703.3" y="861" class="st7" width="157.3" height="110.9"/>
</g>
<g>
	<circle class="st6" cx="1618.8" cy="569.5" r="55.9"/>
	<g>
		<path class="st5" d="M1649.3,507.5l-2.6,4.8l-1.1-0.6l3.2-6l1.8,1l-1,5.5l4-3.9l1.8,1l-3.2,6l-1.1-0.6l2.6-4.7l-4,3.9l-1.3-0.7
			L1649.3,507.5z"/>
		<path class="st5" d="M1657.4,516.9l-2.3-1.7l-1.4,1l-1.1-0.8l6.1-4l1.3,0.9l-1.8,7.1l-1.1-0.8L1657.4,516.9z M1658.4,513l-2.3,1.5
			l1.6,1.1L1658.4,513z"/>
		<path class="st5" d="M1662.9,514.5l1,0.9l-3.7,4.3l2.9,2.5l-0.8,0.9l-3.9-3.4L1662.9,514.5z"/>
		<path class="st5" d="M1666.9,525.4l-2-2.1l-1.6,0.7l-1-1l6.8-2.8l1.1,1.1l-3.1,6.6l-1-1L1666.9,525.4z M1668.6,521.7l-2.6,1.1
			l1.4,1.4L1668.6,521.7z"/>
		<path class="st5" d="M1668,529.1l2.1-1.7l1.6-4.5l0.9,1.2l-1.2,3.2l3.3-0.5l0.9,1.1l-4.8,0.6l-2.1,1.7L1668,529.1z"/>
		<path class="st5" d="M1676.6,531.1L1676.6,531.1c-0.5-0.7-1-0.8-1.4-0.6c-0.4,0.2-0.4,0.6-0.2,1.1l0.4,1c0.5,0.9,0.3,2.1-0.6,2.7
			c-1,0.6-2.3,0.4-3.2-1c-1-1.6-0.7-2.8,0.5-3.6l0.7,1.1c-0.6,0.5-0.7,1.3-0.2,1.9c0,0,0,0.1,0.1,0.1l0.1,0.1
			c0.4,0.6,0.9,0.7,1.3,0.5c0.3-0.2,0.4-0.5,0.2-1.1l-0.5-1.2c-0.5-0.9-0.2-2,0.7-2.6c0.9-0.6,2.2-0.4,3.1,1
			c0.9,1.4,0.6,2.7-0.4,3.4l-0.7-1.1C1676.9,532.4,1677,531.7,1676.6,531.1C1676.6,531.1,1676.6,531.1,1676.6,531.1z"/>
		<path class="st5" d="M1679.5,533.8l0.7,1.1l-5.9,3.4l-0.7-1.1L1679.5,533.8z"/>
		<path class="st5" d="M1678.1,542.4l-1.2-2.6l-1.7,0.1l-0.6-1.2l7.3-0.5l0.7,1.4l-5,5.3l-0.6-1.3L1678.1,542.4z M1680.8,539.5
			l-2.8,0.2l0.8,1.8L1680.8,539.5z"/>
	</g>
	<circle class="st2" cx="1650.3" cy="569.5" r="21"/>
	<g>
		<path class="st5" d="M1056.2,471l-0.7,2.3l-1.1-0.3l1.8-5.8l1.1,0.3l-0.7,2.3l5.4,1.6l-0.4,1.3L1056.2,471z"/>
		<path class="st5" d="M1060.7,467.5l-4.2-1.5l0.4-1.2l4,1.4c1,0.4,1.6,0.1,1.9-0.7l0-0.1c0.3-0.8,0-1.4-1-1.7l-4-1.4l0.4-1.2
			l4.2,1.5c1.5,0.5,2.1,1.6,1.5,3.4C1063.4,467.5,1062.2,468,1060.7,467.5z"/>
		<path class="st5" d="M1058.9,459.3l1.2-3c0.3-1,1.4-1.6,2.4-1.3c0,0,0,0,0.1,0c0.7,0.2,1.2,0.9,1.2,1.7c0.3-0.7,0.7-0.9,1.3-0.6
			l2.1,0.8l-0.5,1.2l-1.8-0.7c-0.5-0.2-0.6-0.1-0.8,0.4l-0.7,1.8l2.4,1l-0.5,1.2L1058.9,459.3z M1062.8,457.9
			c0.3-0.7,0.1-1.2-0.5-1.5c-0.6-0.2-1,0-1.3,0.7l-0.5,1.4l1.8,0.7L1062.8,457.9z"/>
		<path class="st5" d="M1065.9,452.5l0.5,1.2l1.9,0.8l-0.5,1.2l-6.2-2.8l0.5-1.2l2.8,1.2l-1.6-3.9l0.7-1.5l1.5,3.6l4.8-0.9l-0.7,1.5
			L1065.9,452.5z"/>
		<path class="st5" d="M1064.3,446.7l2.3-4.6l1.1,0.5l-1.7,3.5l1.4,0.7l1.4-2.9l1.1,0.5l-1.4,2.9l1.6,0.8l1.7-3.5l1,0.5l-2.3,4.7
			L1064.3,446.7z"/>
		<path class="st5" d="M1074.2,442.4l-2.4-1.3l-4.8,0.3l0.7-1.3l3.4-0.2l-1.7-2.9l0.7-1.3l2.4,4.2l2.4,1.3L1074.2,442.4z"/>
	</g>
</g>
<rect x="1079.2" y="525.3" class="st9" width="169.7" height="31.1"/>
<g>
	<path class="st5" d="M1115.6,528.7h1.9l3.5,9.1h-1.6l-0.9-2.2h-4l-0.9,2.2h-1.6L1115.6,528.7z M1116.5,530.3l-1.5,3.8h3
		L1116.5,530.3z"/>
	<path class="st5" d="M1123.5,537.8h-1.5v-6.5h1.5v0.9c0.4-0.7,1.2-1.1,2-1.1c1.2-0.1,2.2,0.8,2.3,2c0,0.1,0,0.3,0,0.4v4.2h-1.5v-4
		c0-0.9-0.4-1.4-1.1-1.4h-0.1c-0.9,0.1-1.6,0.8-1.6,1.7c0,0,0,0,0,0V537.8z"/>
	<path class="st5" d="M1133.4,537.8h-1.6c-0.8,0.1-1.5-0.5-1.6-1.2c0-0.1,0-0.2,0-0.3v-3.7h-1.4v-1.2h1.4v-2.1h1.5v2.1h1.5v1.2h-1.5
		v3.3c0,0.5,0.1,0.6,0.6,0.6h1.1V537.8z"/>
	<path class="st5" d="M1136.4,538c-1.1,0.1-2-0.7-2.1-1.8c0,0,0-0.1,0-0.1c0-1.4,1.2-2,2.4-2.1l1.7-0.1v-0.2c0.1-0.6-0.4-1.2-1-1.2
		c-0.1,0-0.1,0-0.2,0h-0.1c-0.6-0.1-1.1,0.3-1.2,0.9h-1.5c0.2-1.3,1.4-2.2,2.7-2.1c1.3-0.2,2.5,0.8,2.7,2.1c0,0.1,0,0.2,0,0.3v2.8
		c0,0.5,0,1,0.1,1.4h-1.4c0-0.3-0.1-0.6-0.1-0.9C1138,537.6,1137.2,538,1136.4,538z M1136.8,536.7c0.8,0,1.5-0.6,1.6-1.4v-0.4
		l-1.5,0.1c-0.6,0.1-1.1,0.3-1.1,0.9c0,0.5,0.4,0.8,0.9,0.8C1136.6,536.7,1136.7,536.7,1136.8,536.7L1136.8,536.7z"/>
	<path class="st5" d="M1141.6,528.7h1.5v9.1h-1.5V528.7z"/>
	<path class="st5" d="M1144.6,540.4V539h1.8c0.5,0,0.6-0.1,0.6-0.6v-0.9l-2.8-6.2h1.7l1.9,4.3l1.8-4.3h1.6l-2.7,6.1v1.4
		c0.1,0.8-0.4,1.5-1.2,1.6c-0.1,0-0.2,0-0.4,0H1144.6z"/>
	<path class="st5" d="M1153.7,538c-1.1,0.1-2-0.7-2.1-1.8c0,0,0-0.1,0-0.1c0-1.4,1.2-2,2.4-2.1l1.7-0.1v-0.2c0.1-0.6-0.4-1.2-1-1.2
		c-0.1,0-0.1,0-0.2,0h-0.1c-0.6-0.1-1.1,0.3-1.2,0.9h-1.5c0.2-1.3,1.4-2.2,2.7-2.1c1.3-0.2,2.5,0.8,2.7,2.1c0,0.1,0,0.2,0,0.3v2.8
		c0,0.5,0,1,0.1,1.4h-1.4c0-0.3-0.1-0.6-0.1-0.9C1155.2,537.6,1154.5,538,1153.7,538z M1154,536.7c0.8,0,1.5-0.6,1.6-1.4v-0.4
		l-1.5,0.1c-0.6,0.1-1.1,0.3-1.1,0.9c0,0.5,0.4,0.8,0.9,0.8C1153.9,536.7,1153.9,536.7,1154,536.7L1154,536.7z"/>
	<path class="st5" d="M1158.3,539.7v-0.9h0.5c0.4,0,0.8-0.3,0.8-0.7c0-0.1,0-0.1,0-0.2v-0.2h-0.8v-1.7h1.7v2c0,0.9-0.7,1.6-1.5,1.7
		c0,0-0.1,0-0.1,0H1158.3z"/>
	<path class="st5" d="M1162.5,528.7h1.6v9.1h-1.6V528.7z"/>
	<path class="st5" d="M1165.6,535.7h1.5c0,0.6,0.6,1.1,1.2,1c0,0,0,0,0,0h0.1c0.6,0,1-0.3,1-0.7c0-0.4-0.2-0.6-0.8-0.7l-0.9-0.2
		c-1.2-0.3-2-0.8-2-1.9c0-1.2,1.1-2,2.5-2c1.7,0,2.6,0.9,2.6,2.2h-1.5c0-0.6-0.5-1-1.1-1c0,0,0,0,0,0h-0.1c-0.6,0-1,0.3-1,0.7
		c0,0.4,0.3,0.6,0.9,0.7l0.9,0.2c1.1,0.3,1.8,0.8,1.8,1.9c0,1.1-1,2-2.6,2C1166.6,538,1165.6,537.1,1165.6,535.7z"/>
	<path class="st5" d="M1176.3,537.8h-1.6c-0.8,0.1-1.5-0.5-1.6-1.2c0-0.1,0-0.2,0-0.3v-3.7h-1.4v-1.2h1.4v-2.1h1.5v2.1h1.5v1.2h-1.5
		v3.3c0,0.5,0.1,0.6,0.6,0.6h1.1V537.8z"/>
	<path class="st5" d="M1179.3,538c-1.1,0.1-2-0.7-2.1-1.8c0,0,0-0.1,0-0.1c0-1.4,1.2-2,2.4-2.1l1.7-0.1v-0.2c0.1-0.6-0.4-1.2-1-1.2
		c-0.1,0-0.1,0-0.2,0h-0.1c-0.6-0.1-1.1,0.3-1.2,0.9h-1.5c0.2-1.3,1.4-2.2,2.7-2.1c1.3-0.2,2.5,0.8,2.7,2.1c0,0.1,0,0.2,0,0.3v2.8
		c0,0.5,0,1,0.1,1.4h-1.4c0-0.3-0.1-0.6-0.1-0.9C1180.9,537.6,1180.1,538,1179.3,538z M1179.7,536.7c0.8,0,1.5-0.6,1.6-1.4v-0.4
		l-1.5,0.1c-0.6,0.1-1.1,0.3-1.1,0.9c0,0.5,0.4,0.8,0.9,0.8C1179.6,536.7,1179.6,536.7,1179.7,536.7L1179.7,536.7z"/>
	<path class="st5" d="M1186,537.8h-1.5v-6.5h1.5v0.9c0.4-0.7,1.2-1.1,2-1.1c1.2-0.1,2.2,0.8,2.3,2c0,0.1,0,0.3,0,0.4v4.2h-1.5v-4
		c0-0.9-0.4-1.4-1.1-1.4h-0.1c-0.9,0.1-1.6,0.8-1.6,1.7c0,0,0,0,0,0V537.8z"/>
	<path class="st5" d="M1195.5,538c-0.8,0-1.5-0.4-2-1v0.9h-1.5v-9.1h1.5v3.5c0.4-0.6,1.2-1,1.9-1c1.8,0,2.9,1.5,2.9,3.4
		S1197.3,538,1195.5,538z M1195.2,536.7h0.1c0.9,0,1.6-0.8,1.6-2.2c0-1.4-0.7-2.1-1.6-2.1h-0.1c-0.8,0-1.6,0.8-1.6,2.2
		S1194.4,536.7,1195.2,536.7L1195.2,536.7z"/>
	<path class="st5" d="M1205.4,537.8h-1.5v-1.1c-0.6,1.1-1.9,1.5-3,0.9c-0.8-0.4-1.3-1.3-1.2-2.2v-4.2h1.5v4c0,0.9,0.4,1.4,1.1,1.4
		h0.1c0.9-0.1,1.6-0.9,1.5-1.8v-3.6h1.5V537.8z"/>
	<path class="st5" d="M1207.3,528.7h1.5v9.1h-1.5V528.7z"/>
	<path class="st5" d="M1210.1,539.7v-0.9h0.5c0.4,0,0.8-0.3,0.8-0.7c0-0.1,0-0.1,0-0.2v-0.2h-0.8v-1.7h1.7v2c0,0.9-0.7,1.6-1.5,1.7
		c0,0-0.1,0-0.1,0H1210.1z"/>
	<path class="st5" d="M1129.1,543.6v7.5h-1.5V542h2.5l2.5,7.5l2.4-7.5h2.5v9.1h-1.5v-7.5l-2.4,7.5h-1.8L1129.1,543.6z"/>
	<path class="st5" d="M1142.1,551.2c-1.7,0-3.1-1.4-3.1-3.1c0-0.1,0-0.2,0-0.3c-0.2-1.7,1-3.2,2.7-3.4c0.1,0,0.2,0,0.3,0
		c1.6-0.1,2.9,1.2,2.9,2.7c0,0.1,0,0.3,0,0.4c0,0.1,0,0.5,0,0.7h-4.5c0,0.9,0.7,1.7,1.6,1.8h0.1c0.6,0,1.1-0.3,1.3-0.9h1.5
		C1144.6,550.4,1143.4,551.3,1142.1,551.2z M1143.5,547c0-0.7-0.6-1.4-1.3-1.4c0,0-0.1,0-0.1,0h-0.1c-0.8,0-1.4,0.6-1.5,1.4H1143.5z
		"/>
	<path class="st5" d="M1151.9,548.8c-0.1,1.4-1.3,2.4-2.6,2.4c-0.1,0-0.1,0-0.2,0c-1.9-0.1-3.3-1.8-3.1-3.7c0.1-1.7,1.5-3,3.1-3.1
		c1.4-0.2,2.6,0.8,2.8,2.2c0,0.1,0,0.1,0,0.2h-1.5c0-0.7-0.6-1.2-1.3-1.1h-0.1c-1.1,0-1.6,1-1.6,2.2s0.5,2.2,1.6,2.2h0.1
		c0.7,0,1.2-0.5,1.3-1.1H1151.9z"/>
	<path class="st5" d="M1153.3,542h1.6v1.6h-1.6V542z M1153.3,544.6h1.5v6.5h-1.5V544.6z"/>
	<path class="st5" d="M1156.2,547.8c0-1.9,1.1-3.4,2.9-3.4c0.8,0,1.5,0.4,1.9,1V542h1.5v9.1h-1.5v-0.9c-0.5,0.6-1.2,1-2,1
		C1157.3,551.2,1156.2,549.7,1156.2,547.8z M1161.1,547.8c0-1.4-0.8-2.2-1.6-2.2h-0.1c-0.9,0-1.6,0.8-1.6,2.1c0,1.4,0.7,2.2,1.6,2.2
		h0.1C1160.3,550,1161.1,549.2,1161.1,547.8z"/>
	<path class="st5" d="M1164.3,542h1.6v1.6h-1.6V542z M1164.4,544.6h1.5v6.5h-1.5V544.6z"/>
	<path class="st5" d="M1167.4,553.6v-1.3h1.8c0.5,0,0.6-0.1,0.6-0.6v-0.9l-2.8-6.2h1.7l1.9,4.3l1.8-4.3h1.6l-2.7,6.1v1.4
		c0.1,0.8-0.4,1.5-1.2,1.6c-0.1,0-0.2,0-0.4,0H1167.4z"/>
	<path class="st5" d="M1177.4,551.2c-1.7,0-3.1-1.4-3.1-3.1c0-0.1,0-0.2,0-0.3c-0.2-1.7,1-3.2,2.7-3.4c0.1,0,0.2,0,0.3,0
		c1.6-0.1,2.9,1.2,2.9,2.7c0,0.1,0,0.3,0,0.4c0,0.1,0,0.5,0,0.7h-4.5c0,0.9,0.7,1.7,1.6,1.8h0.1c0.6,0,1.1-0.3,1.3-0.9h1.5
		C1180,550.4,1178.8,551.3,1177.4,551.2z M1178.8,547c0-0.7-0.6-1.4-1.3-1.4c0,0-0.1,0-0.1,0h-0.1c-0.8,0-1.4,0.6-1.5,1.4H1178.8z"
		/>
	<path class="st5" d="M1184,548.2l-0.8,0.8v2h-1.5V542h1.5v5.2l2.6-2.6h1.9l-2.6,2.6l2.7,3.9h-1.8L1184,548.2z"/>
	<path class="st5" d="M1188,547.8c0.1-1.8,1.6-3.1,3.4-3c1.8,0.1,3.1,1.6,3,3.4c-0.1,1.7-1.5,3-3.2,3c-1.7,0-3.2-1.4-3.2-3.1
		C1188,548,1188,547.9,1188,547.8z M1189.2,542h1.4v1.5h-1.4V542z M1192.9,547.8c0-1.4-0.7-2.2-1.6-2.2h-0.1c-1,0-1.6,0.8-1.6,2.2
		s0.7,2.2,1.6,2.2h0.1C1192.2,550,1192.9,549.2,1192.9,547.8z M1191.8,542h1.4v1.5h-1.4V542z"/>
	<path class="st5" d="M1195.3,553.6v-1.3h1.8c0.5,0,0.6-0.1,0.6-0.6v-0.9l-2.8-6.2h1.7l1.9,4.3l1.8-4.3h1.6l-2.7,6.1v1.4
		c0.1,0.8-0.4,1.5-1.2,1.6c-0.1,0-0.2,0-0.4,0H1195.3z"/>
</g>
<rect x="1603.5" y="561.2" class="st9" width="93.5" height="16.6"/>
<g>
	<path class="st5" d="M1612.6,568.8l-1.4,1.4v2.8h-1.6v-9.1h1.6v4.3l4.1-4.3h2l-3.6,3.7l3.7,5.4h-1.9L1612.6,568.8z"/>
	<path class="st5" d="M1623.7,573h-1.5V572c-0.6,1.1-1.9,1.5-3,0.9c-0.8-0.4-1.3-1.3-1.2-2.2v-4.2h1.5v4c0,0.9,0.4,1.4,1.1,1.4h0.1
		c0.9-0.1,1.6-0.9,1.5-1.8v-3.6h1.5V573z"/>
	<path class="st5" d="M1627.3,573.2c-1.1,0.1-2-0.7-2.1-1.8c0,0,0-0.1,0-0.1c0-1.4,1.2-2,2.4-2.1l1.7-0.1v-0.2
		c0.1-0.6-0.4-1.2-1-1.2c-0.1,0-0.1,0-0.2,0h-0.1c-0.6-0.1-1.1,0.3-1.2,0.9h-1.5c0.2-1.3,1.4-2.2,2.7-2.1c1.3-0.2,2.5,0.8,2.7,2.1
		c0,0.1,0,0.2,0,0.3v2.8c0,0.5,0,1,0.1,1.4h-1.4c0-0.3-0.1-0.6-0.1-0.9C1628.8,572.8,1628.1,573.2,1627.3,573.2z M1627.6,571.9
		c0.8,0,1.5-0.6,1.6-1.4v-0.4l-1.5,0.1c-0.6,0.1-1.1,0.3-1.1,0.9c0,0.5,0.4,0.8,0.9,0.8C1627.5,571.9,1627.5,571.9,1627.6,571.9
		L1627.6,571.9z"/>
	<path class="st5" d="M1632.4,563.9h1.5v9.1h-1.5V563.9z"/>
	<path class="st5" d="M1637.5,573.2c-1.1,0.1-2-0.7-2.1-1.8c0,0,0-0.1,0-0.1c0-1.4,1.2-2,2.4-2.1l1.7-0.1v-0.2
		c0.1-0.6-0.4-1.2-1-1.2c-0.1,0-0.1,0-0.2,0h-0.1c-0.6-0.1-1.1,0.3-1.2,0.9h-1.5c0.2-1.3,1.4-2.2,2.7-2.1c1.3-0.2,2.5,0.8,2.7,2.1
		c0,0.1,0,0.2,0,0.3v2.8c0,0.5,0,1,0.1,1.4h-1.4c0-0.3-0.1-0.6-0.1-0.9C1639,572.8,1638.3,573.2,1637.5,573.2z M1637.8,571.9
		c0.8,0,1.5-0.6,1.6-1.4v-0.4l-1.5,0.1c-0.6,0.1-1.1,0.3-1.1,0.9c0,0.5,0.4,0.8,0.9,0.8C1637.7,571.9,1637.7,571.9,1637.8,571.9
		L1637.8,571.9z"/>
	<path class="st5" d="M1645.9,563.9h1.6v7.7h5.2v1.4h-6.8V563.9z"/>
	<path class="st5" d="M1659.5,573h-1.5V572c-0.6,1.1-1.9,1.5-3,0.9c-0.8-0.4-1.3-1.3-1.2-2.2v-4.2h1.5v4c0,0.9,0.4,1.4,1.1,1.4h0.1
		c0.9-0.1,1.6-0.9,1.5-1.8v-3.6h1.5V573z"/>
	<path class="st5" d="M1662.8,573h-1.5v-6.5h1.5v0.9c0.4-0.7,1.2-1.1,2-1.1c0.9-0.1,1.7,0.4,2.1,1.2c0.5-0.7,1.3-1.2,2.1-1.2
		c1.2-0.1,2.2,0.8,2.3,2c0,0.1,0,0.3,0,0.4v4.2h-1.5v-4c0-0.9-0.3-1.4-1.1-1.4h-0.1c-0.9,0.1-1.6,0.8-1.5,1.7c0,0,0,0,0,0v3.6h-1.5
		v-4c0-0.9-0.3-1.4-1.1-1.4h-0.1c-0.9,0.1-1.6,0.8-1.5,1.7c0,0,0,0,0,0V573z"/>
	<path class="st5" d="M1679.3,569.8c0,1.9-1.1,3.4-2.9,3.4c-0.8,0-1.5-0.4-1.9-1v3.5h-1.5v-9.1h1.5v0.9c0.5-0.6,1.2-1,2-1
		C1678.3,566.4,1679.3,567.9,1679.3,569.8z M1674.5,569.8c0,1.4,0.8,2.2,1.6,2.2h0.1c0.9,0,1.6-0.8,1.6-2.1c0-1.4-0.7-2.2-1.6-2.2
		h-0.1C1675.3,567.6,1674.5,568.4,1674.5,569.8z"/>
	<path class="st5" d="M1686.4,573h-1.5V572c-0.6,1.1-1.9,1.5-3,0.9c-0.8-0.4-1.3-1.3-1.2-2.2v-4.2h1.5v4c0,0.9,0.4,1.4,1.1,1.4h0.1
		c0.9-0.1,1.6-0.9,1.5-1.8v-3.6h1.5V573z"/>
	<path class="st5" d="M1688.2,566.5h1.5v1.4c0.2-0.9,1-1.4,1.9-1.4h0.4v1.4h-0.6c-0.9-0.1-1.7,0.6-1.8,1.4c0,0.1,0,0.3,0,0.4v3.3
		h-1.5V566.5z"/>
</g>
</svg>
