<?xml version="1.0" encoding="utf-8"?>
<!-- Generator: Adobe Illustrator 24.3.0, SVG Export Plug-In . SVG Version: 6.00 Build 0)  -->
<svg version="1.1" id="Livello_1" xmlns="http://www.w3.org/2000/svg" xmlns:xlink="http://www.w3.org/1999/xlink" x="0px" y="0px"
	 viewBox="0 0 1920 1000" style="enable-background:new 0 0 1920 1000;" xml:space="preserve">
<style type="text/css">
	.st0{fill:#222145;}
	.st1{fill:none;stroke:#FFFFFF;stroke-width:1.5;stroke-miterlimit:10;}
	.st2{fill:#FFFFFF;}
	.st3{fill:#EE3E1C;}
	.st4{fill:#92E606;}
	.st5{fill:#E4156D;}
	.st6{fill:#59D7FC;}
	.st7{fill:#C314FF;}
	.st8{fill:#F08422;}
	.st9{fill:#360DFF;}
	.st10{fill:#DBB500;}
	.st11{opacity:0.2;}
	.st12{fill:none;stroke:#567AFC;stroke-miterlimit:10;}
	.st13{fill:#567AFC;}
	.st14{fill:none;stroke:#567AFC;stroke-linecap:round;stroke-miterlimit:10;}
	.st15{opacity:0.3;}
	.st16{fill:#FF00F5;}
	.st17{fill:#9579F6;}
	.st18{fill:#FFF090;}
	.st19{fill:none;stroke:#FFFFFF;stroke-miterlimit:10;}
	.st20{fill:#222145;stroke:#9579F6;stroke-width:2.5;stroke-miterlimit:10;}
	.st21{fill:#222145;stroke:#FFF090;stroke-width:2.5;stroke-miterlimit:10;}
	.st22{fill:#222145;stroke:#FF00F5;stroke-width:2.5;stroke-miterlimit:10;}
	.st23{fill:#222145;stroke:#360DFF;stroke-width:2.5;stroke-miterlimit:10;}
	.st24{fill:#222145;stroke:#59D7FC;stroke-width:2.5;stroke-miterlimit:10;}
	.st25{fill:#222145;stroke:#DBB500;stroke-width:2.5;stroke-miterlimit:10;}
	.st26{fill:none;stroke:#F08422;stroke-width:2.5;stroke-miterlimit:10;}
	.st27{fill:#222145;stroke:#92E606;stroke-width:2.5;stroke-miterlimit:10;}
	.st28{fill:#222145;stroke:#C314FF;stroke-width:2.5;stroke-miterlimit:10;}
	.st29{fill:#222145;stroke:#E4156D;stroke-width:2.5;stroke-miterlimit:10;}
	.st30{fill:#222145;stroke:#EE3E1C;stroke-width:2.5;stroke-miterlimit:10;}
</style>
<rect y="-0.1" class="st0" width="1924.6" height="1000.1"/>
<g>
	<circle class="st1" cx="1237.3" cy="526.1" r="174.8"/>
	<g>
		<path class="st2" d="M1056.2,471l-0.7,2.3l-1.1-0.3l1.8-5.8l1.1,0.3l-0.7,2.3l5.4,1.6l-0.4,1.3L1056.2,471z"/>
		<path class="st2" d="M1060.7,467.5l-4.2-1.5l0.4-1.2l4,1.4c1,0.4,1.6,0.1,1.9-0.7l0-0.1c0.3-0.8,0-1.4-1-1.7l-4-1.4l0.4-1.2
			l4.2,1.5c1.5,0.5,2.1,1.6,1.5,3.4C1063.4,467.5,1062.2,468,1060.7,467.5z"/>
		<path class="st2" d="M1058.9,459.3l1.2-2.9c0.3-1,1.4-1.6,2.4-1.3c0,0,0,0,0.1,0c0.7,0.2,1.2,0.9,1.2,1.7c0.3-0.7,0.7-0.9,1.3-0.6
			l2.1,0.8l-0.5,1.2l-1.8-0.7c-0.5-0.2-0.6-0.1-0.8,0.4l-0.7,1.8l2.4,1l-0.5,1.2L1058.9,459.3z M1062.8,457.9
			c0.3-0.7,0.1-1.2-0.5-1.5s-1,0-1.3,0.7l-0.5,1.4l1.8,0.7L1062.8,457.9z"/>
		<path class="st2" d="M1065.9,452.5l0.5,1.2l1.9,0.8l-0.5,1.2l-6.2-2.8l0.5-1.2l2.8,1.2l-1.6-3.9l0.7-1.5l1.5,3.6l4.8-0.9l-0.7,1.5
			L1065.9,452.5z"/>
		<path class="st2" d="M1064.3,446.7l2.3-4.6l1.1,0.5l-1.7,3.5l1.4,0.7l1.4-2.9l1.1,0.5l-1.4,2.9l1.6,0.8l1.7-3.5l1,0.5l-2.3,4.7
			L1064.3,446.7z"/>
		<path class="st2" d="M1074.2,442.4l-2.4-1.3l-4.8,0.3l0.7-1.3l3.4-0.2l-1.7-2.9l0.7-1.3l2.4,4.2l2.4,1.3L1074.2,442.4z"/>
	</g>
	<circle class="st3" cx="1164.1" cy="540.9" r="73.1"/>
	<circle class="st4" cx="1310.7" cy="540.9" r="70.2"/>
	<circle class="st5" cx="1239.7" cy="636.2" r="45.3"/>
	<circle class="st6" cx="1239.4" cy="467.6" r="28.7"/>
	<circle class="st7" cx="1178.5" cy="420" r="45.3"/>
	<circle class="st8" cx="1302" cy="422.3" r="45.3"/>
	<circle class="st9" cx="1163" cy="645.9" r="28.7"/>
	<circle class="st10" cx="1308.6" cy="634.6" r="20.3"/>
</g>
<g class="st11">
	<polygon class="st12" points="489.9,405.4 489.9,876.1 972,876.1 972,708.7 972,708.7 972,380.5 783,380.5 783,32.4 309.5,32.4 
		309.5,406.2 	"/>
	<rect x="203.6" y="32.4" class="st12" width="105.9" height="31"/>
	<g>
		<path class="st13" d="M227.8,40.6h2.5l4.8,12.3h-2.2l-1.2-3h-5.5l-1.2,3h-2.2L227.8,40.6z M229,42.8l-2,5.2h4L229,42.8z"/>
		<path class="st13" d="M238.5,52.9h-2v-8.8h2v1.2c0.6-0.9,1.6-1.4,2.6-1.4c1.2-0.1,2.2,0.5,2.8,1.6c0.6-1,1.7-1.6,2.9-1.6
			c2.2,0,3.1,1.4,3.1,3.3v5.7h-2v-5.4c0-1.2-0.5-1.9-1.5-1.9h-0.1c-1.2,0.1-2.1,1.1-2,2.3c0,0,0,0,0,0.1v4.9h-2v-5.4
			c0-1.2-0.5-1.9-1.5-1.9h-0.1c-1.2,0.1-2.1,1.1-2,2.3c0,0,0,0,0,0.1L238.5,52.9z"/>
		<path class="st13" d="M255.9,53.1c-2.2,0-4.2-1.6-4.2-4.6c0-2.8,1.7-4.6,4.1-4.6c2.5,0,3.9,1.8,3.9,4.2c0,0.2,0,0.7,0,0.9h-6
			c0,1.3,1,2.3,2.2,2.4h0.1c0.8,0.1,1.5-0.5,1.7-1.2h2C259.4,52,257.8,53.2,255.9,53.1z M257.8,47.5c0-1-0.8-1.8-1.8-1.9
			c0,0-0.1,0-0.1,0h-0.1c-1.1,0-2,0.8-2,1.9H257.8z"/>
		<path class="st13" d="M261.7,44.1h2v1.8c0.3-1.2,1.4-2,2.5-1.9h0.6v1.9h-0.8c-1.2-0.1-2.2,0.7-2.4,1.9c0,0.2,0,0.3,0,0.5v4.5h-2
			V44.1z"/>
		<path class="st13" d="M268.4,40.6h2.2v2.2h-2.2V40.6z M268.4,44.1h2v8.8h-2V44.1z"/>
		<path class="st13" d="M280.4,49.9c-0.2,2.1-1.6,3.2-3.8,3.2c-2.5,0-4.2-1.9-4.2-4.6s1.7-4.6,4.2-4.6c2.2,0,3.6,1.1,3.8,3.2h-2
			c-0.1-0.9-0.8-1.6-1.7-1.5h-0.1c-1.5,0-2.1,1.4-2.1,2.9s0.6,2.9,2.1,2.9h0.1c0.9,0,1.7-0.6,1.7-1.5L280.4,49.9z"/>
		<path class="st13" d="M284.6,53.1c-1.5,0.1-2.8-1-2.9-2.4c0,0,0-0.1,0-0.1c0-1.9,1.6-2.7,3.2-2.8l2.3-0.2v-0.2
			c0.1-0.8-0.6-1.6-1.4-1.6c-0.1,0-0.1,0-0.2,0h-0.1c-0.8-0.1-1.5,0.4-1.6,1.2h-2c0.1-1.6,1.6-2.8,3.7-2.8c2.2,0,3.6,1.3,3.6,3.2V51
			c0,0.6,0,1.3,0.1,1.9h-1.9c-0.1-0.4-0.1-0.8-0.1-1.2C286.7,52.6,285.7,53.1,284.6,53.1z M285.1,51.4c1.1,0,2.1-0.8,2.1-1.9V49
			l-2,0.2c-0.8,0.1-1.5,0.5-1.5,1.2c0,0.6,0.6,1.1,1.2,1.1c0,0,0,0,0.1,0L285.1,51.4z"/>
	</g>
	<rect x="1041.1" y="845.1" class="st12" width="105.9" height="31"/>
	<g>
		<path class="st13" d="M1081.6,853.2h2.5l4.8,12.3h-2.2l-1.2-3h-5.5l-1.2,3h-2.2L1081.6,853.2z M1082.8,855.4l-2,5.2h4
			L1082.8,855.4z"/>
		<path class="st13" d="M1089.6,862.7h2c0.1,0.8,0.8,1.5,1.6,1.4c0,0,0,0,0.1,0h0.1c0.8,0,1.4-0.4,1.4-1c0-0.5-0.3-0.8-1-1l-1.2-0.3
			c-1.7-0.4-2.7-1.1-2.7-2.6c0-1.7,1.4-2.7,3.4-2.7c2.3,0,3.5,1.2,3.5,3h-2c0-0.8-0.6-1.4-1.4-1.4c0,0,0,0-0.1,0h-0.2
			c-0.8,0-1.3,0.4-1.3,1c0,0.5,0.4,0.8,1.2,1l1.3,0.3c1.5,0.4,2.5,1.1,2.5,2.6c0,1.5-1.3,2.7-3.5,2.7
			C1091,865.7,1089.7,864.5,1089.6,862.7z"/>
		<path class="st13" d="M1098.9,853.2h2.2v2.2h-2.2V853.2z M1098.9,856.8h2v8.8h-2V856.8z"/>
		<path class="st13" d="M1105.7,865.7c-1.5,0.1-2.8-1-2.9-2.4c0,0,0-0.1,0-0.1c0-1.9,1.6-2.7,3.2-2.8l2.3-0.2v-0.2
			c0.1-0.8-0.6-1.6-1.4-1.6c-0.1,0-0.1,0-0.2,0h-0.1c-0.8-0.1-1.5,0.4-1.6,1.2h-2c0.1-1.6,1.6-2.8,3.7-2.8c2.2,0,3.6,1.3,3.6,3.2
			v3.8c0,0.6,0,1.3,0.1,1.9h-1.9c-0.1-0.4-0.1-0.8-0.1-1.2C1107.8,865.2,1106.8,865.7,1105.7,865.7z M1106.2,864.1
			c1.1,0,2.1-0.8,2.1-1.9v-0.5l-2,0.2c-0.8,0.1-1.5,0.5-1.5,1.2c0,0.6,0.6,1.1,1.2,1.1c0,0,0,0,0.1,0H1106.2z"/>
	</g>
	<polyline class="st14" points="1316.2,127.8 1316.2,32 1861,32 1861,845.1 1041.1,845.1 1041.1,552.3 1054.5,552.3 	"/>
	<rect x="1196.1" y="85.6" class="st12" width="105.9" height="31"/>
	<g>
		<path class="st13" d="M1221.6,93.8h9.2v1.9h-7.1v3.2h6v1.9h-6v3.5h7.2v1.9h-9.3V93.8z"/>
		<path class="st13" d="M1240.4,106.1h-2v-1.4c-0.5,1-1.5,1.7-2.7,1.6c-2,0-3-1.4-3-3.3v-5.7h2v5.4c0,1.3,0.5,1.9,1.5,1.9h0.2
			c1.2-0.1,2.1-1.3,2-2.5v-4.8h2V106.1z"/>
		<path class="st13" d="M1242.8,97.3h2v1.8c0.3-1.2,1.4-2,2.5-1.9h0.6v1.9h-0.8c-1.2-0.1-2.2,0.7-2.4,1.9c0,0.2,0,0.3,0,0.5v4.5h-2
			V97.3z"/>
		<path class="st13" d="M1248.8,101.7c0.1-2.4,2.2-4.2,4.6-4.1s4.2,2.2,4.1,4.6c-0.1,2.3-2,4.1-4.3,4.1c-2.4,0-4.3-1.9-4.3-4.2
			C1248.8,101.9,1248.8,101.8,1248.8,101.7z M1255.4,101.7c0-1.8-0.9-2.9-2.2-2.9h-0.2c-1.3,0-2.2,1.1-2.2,2.9s0.9,2.9,2.2,2.9h0.2
			C1254.5,104.6,1255.4,103.5,1255.4,101.7z"/>
		<path class="st13" d="M1267.9,101.7c0,2.6-1.5,4.6-3.9,4.6c-1,0-2-0.5-2.6-1.4v4.7h-2V97.3h2v1.2c0.6-0.9,1.6-1.4,2.7-1.4
			C1266.4,97.1,1267.9,99.1,1267.9,101.7z M1261.4,101.7c0,1.9,1.1,2.9,2.2,2.9h0.1c1.2,0,2.2-1.1,2.2-2.9c0-1.9-0.9-2.9-2.2-2.9
			h-0.1C1262.4,98.8,1261.4,99.8,1261.4,101.7z"/>
		<path class="st13" d="M1273.5,106.2c-2.2,0-4.2-1.6-4.2-4.6c0-2.8,1.7-4.6,4.1-4.6c2.5,0,3.9,1.8,3.9,4.2c0,0.2,0,0.7,0,0.9h-6
			c0,1.3,1,2.3,2.2,2.4h0.1c0.8,0.1,1.5-0.5,1.7-1.2h2C1276.9,105.2,1275.3,106.4,1273.5,106.2z M1275.4,100.6c0-1-0.8-1.8-1.8-1.9
			c0,0-0.1,0-0.1,0h-0.1c-1.1,0-2,0.8-2,1.9H1275.4z"/>
	</g>
	<polyline class="st14" points="1302,131.3 1302,116.6 1172.3,116.6 1172.3,32 796.7,32 796.7,365.9 986.6,365.9 986.6,530 
		1053.2,530 	"/>
	<line class="st14" x1="1302" y1="354.7" x2="1302" y2="224.9"/>
	<line class="st14" x1="1317.1" y1="360.9" x2="1316.5" y2="230.2"/>
	<rect x="1597.4" y="861" class="st12" width="105.9" height="31"/>
	<g>
		<path class="st13" d="M1618.4,875.3c0-4,2.5-6.3,5.9-6.3c3.4,0,5.9,2.4,5.9,6.3c0,4-2.5,6.3-5.9,6.3
			C1620.9,881.6,1618.4,879.2,1618.4,875.3z M1624.4,879.7c2.2,0,3.7-1.7,3.7-4.4c0-2.8-1.5-4.4-3.7-4.4h-0.2
			c-2.2,0-3.7,1.7-3.7,4.4c0,2.8,1.5,4.4,3.7,4.4H1624.4z"/>
		<path class="st13" d="M1639.8,878.4c-0.2,2.1-1.6,3.2-3.8,3.2c-2.5,0-4.2-1.9-4.2-4.6s1.7-4.6,4.2-4.6c2.2,0,3.6,1.1,3.8,3.2h-2
			c-0.1-0.9-0.8-1.6-1.7-1.5h-0.1c-1.5,0-2.1,1.4-2.1,2.9s0.6,2.9,2.1,2.9h0.1c0.9,0,1.7-0.6,1.7-1.5L1639.8,878.4z"/>
		<path class="st13" d="M1645.3,881.6c-2.2,0-4.2-1.6-4.2-4.6c0-2.8,1.7-4.6,4.1-4.6c2.5,0,3.9,1.8,3.9,4.2c0,0.2,0,0.7,0,0.9h-6
			c0,1.3,1,2.3,2.2,2.4h0.1c0.8,0.1,1.5-0.5,1.7-1.2h2C1648.8,880.5,1647.1,881.7,1645.3,881.6z M1647.2,876c0-1-0.8-1.9-1.8-1.9
			c0,0-0.1,0-0.1,0h-0.1c-1.1,0-2,0.8-2,1.9H1647.2z"/>
		<path class="st13" d="M1653.4,881.6c-1.5,0.1-2.8-1-2.9-2.4c0,0,0-0.1,0-0.1c0-1.9,1.6-2.7,3.2-2.8l2.3-0.2v-0.2
			c0.1-0.8-0.6-1.6-1.4-1.6c-0.1,0-0.1,0-0.2,0h-0.1c-0.8-0.1-1.5,0.4-1.6,1.2h-2c0.1-1.6,1.6-2.8,3.7-2.8c2.2,0,3.6,1.3,3.6,3.2
			v3.8c0,0.6,0,1.3,0.1,1.9h-1.9c-0.1-0.4-0.1-0.8-0.1-1.2C1655.5,881.1,1654.5,881.6,1653.4,881.6z M1653.9,880
			c1.1,0,2.1-0.8,2.1-1.9v-0.5l-2,0.2c-0.8,0.1-1.5,0.5-1.5,1.2c0,0.6,0.6,1.1,1.2,1.1c0,0,0,0,0.1,0H1653.9z"/>
		<path class="st13" d="M1662.4,881.4h-2v-8.8h2v1.3c0.6-0.9,1.6-1.5,2.7-1.4c1.6-0.1,3,1.1,3.1,2.7c0,0.2,0,0.4,0,0.5v5.7h-2V876
			c0-1.2-0.5-1.9-1.5-1.9h-0.2c-1.2,0.1-2.2,1.1-2.1,2.4c0,0,0,0,0,0V881.4z"/>
		<path class="st13" d="M1670.5,869.1h2.2v2.2h-2.2V869.1z M1670.6,872.7h2v8.8h-2V872.7z"/>
		<path class="st13" d="M1677.4,881.6c-1.5,0.1-2.8-1-2.9-2.4c0,0,0-0.1,0-0.1c0-1.9,1.6-2.7,3.2-2.8l2.3-0.2v-0.2
			c0.1-0.8-0.6-1.6-1.4-1.6c-0.1,0-0.1,0-0.2,0h-0.1c-0.8-0.1-1.5,0.4-1.6,1.2h-2c0.1-1.6,1.6-2.8,3.7-2.8c2.2,0,3.6,1.3,3.6,3.2
			v3.8c0,0.6,0,1.3,0.1,1.9h-1.9c-0.1-0.4-0.1-0.8-0.1-1.2C1679.5,881.1,1678.5,881.6,1677.4,881.6z M1677.9,880
			c1.1,0,2.1-0.8,2.1-1.9v-0.5l-2,0.2c-0.8,0.1-1.5,0.5-1.5,1.2c0,0.6,0.6,1.1,1.2,1.1c0,0,0,0,0.1,0H1677.9z"/>
	</g>
	<rect x="1703.3" y="861" class="st12" width="157.3" height="110.9"/>
</g>
<g>
	<circle class="st1" cx="697.2" cy="692.9" r="112.8"/>
	<g>
		<path class="st2" d="M694.9,819.7c-0.2,1.3-1.2,2.3-3,2.2c-2.1-0.1-3.2-1.6-3.1-3.7c0.1-2.1,1.3-3.5,3.4-3.4
			c1.4-0.1,2.6,1,2.8,2.4c0,0,0,0.1,0,0.1l-1.3-0.1c-0.1-0.7-0.7-1.3-1.4-1.2l-0.1,0c-1.1-0.1-1.9,0.8-2,2.2
			c-0.1,1.5,0.7,2.4,1.8,2.4l0.1,0c0.7,0.1,1.4-0.4,1.6-1.1L694.9,819.7z"/>
		<path class="st2" d="M695.8,818.6c0.1-1.8,1.6-3.3,3.5-3.2s3.3,1.6,3.2,3.5c-0.1,1.8-1.5,3.2-3.3,3.2c-1.8,0.1-3.3-1.3-3.4-3
			C695.7,818.9,695.7,818.7,695.8,818.6z M699.1,820.9c1.2,0,1.9-0.9,1.9-2.4c0-1.5-0.8-2.3-2-2.3H699c-1.2,0-1.9,0.9-1.9,2.4
			C697.1,820,697.8,820.9,699.1,820.9L699.1,820.9z"/>
		<path class="st2" d="M703.4,815l1.3-0.1l0.4,5.6l3.8-0.2l0.1,1.2l-5.2,0.3L703.4,815z"/>
		<path class="st2" d="M709.2,818.1c-0.1-1.8,1.3-3.4,3.1-3.5c1.8-0.1,3.4,1.3,3.5,3.1c0.1,1.8-1.2,3.3-2.9,3.5
			c-1.7,0.3-3.4-0.9-3.7-2.7C709.2,818.4,709.2,818.3,709.2,818.1z M712.8,820c1.2-0.1,1.8-1.1,1.7-2.5c-0.2-1.5-1-2.2-2.2-2.1
			l-0.1,0c-1.2,0.1-1.8,1.1-1.7,2.5C710.6,819.4,711.5,820.2,712.8,820L712.8,820z"/>
		<path class="st2" d="M717.9,815l1,5.3l-1.3,0.2l-1.2-6.7l2-0.4l2.7,5l0.7-5.6l2-0.4l1.2,6.7l-1.3,0.2l-1-5.3l-0.7,5.6l-1.4,0.3
			L717.9,815z"/>
		<path class="st2" d="M726.8,818.8l-1.6-6.6l2.9-0.7c1-0.4,2,0.1,2.4,1.1c0,0.1,0,0.1,0.1,0.2c-0.8,0.5-1,1.5-0.5,2.3
			c0.3,0.5,0.9,0.8,1.4,0.8c0.2,1.1-0.5,2.1-1.6,2.3c0,0-0.1,0-0.1,0L726.8,818.8z M728.5,814.2c0.6-0.2,0.9-0.5,0.8-1
			c-0.1-0.5-0.5-0.7-1.1-0.6l-1.5,0.4l0.4,1.6L728.5,814.2z M729.3,816.9c0.6-0.2,0.9-0.5,0.8-1.1c-0.1-0.6-0.6-0.7-1.2-0.6
			l-1.6,0.4l0.4,1.7L729.3,816.9z"/>
		<path class="st2" d="M731.3,810.6l1.3-0.4l1.9,6.6l-1.3,0.4L731.3,810.6z"/>
		<path class="st2" d="M739.5,813.5l-2.7,0.9l-0.1,1.7l-1.3,0.4l0.4-7.3l1.5-0.5l4.6,5.7l-1.3,0.4L739.5,813.5z M737,810.3l-0.1,2.8
			l1.9-0.6L737,810.3z"/>
	</g>
	<circle class="st9" cx="698.7" cy="727" r="36.2"/>
	<circle class="st7" cx="748.2" cy="754.5" r="18.1"/>
	<circle class="st5" cx="718.6" cy="780" r="18.1"/>
	<circle class="st8" cx="770" cy="701.2" r="36.2"/>
	<circle class="st6" cx="628.2" cy="730.5" r="31.3"/>
	<circle class="st4" cx="706.1" cy="636.7" r="51.1"/>
</g>
<g class="st15">
	<circle class="st1" cx="1768.8" cy="754.8" r="53.3"/>
	<g>
		<path class="st2" d="M1752.3,690.8l1.3-0.3l1.6,6.6l-1.3,0.3L1752.3,690.8z"/>
		<path class="st2" d="M1757.1,691.5l0.8,5l-1.3,0.2l-1.1-6.8l1.7-0.3l3.4,4.5l-0.8-4.9l1.3-0.2l1.1,6.8l-1.7,0.3L1757.1,691.5z"/>
		<path class="st2" d="M1763.4,688.8l2.3-0.1c1.7-0.2,3.3,1,3.6,2.7c0,0.2,0,0.4,0,0.6c0.2,1.7-1,3.3-2.7,3.5c-0.2,0-0.4,0-0.6,0
			l-2.4,0.1L1763.4,688.8z M1765.9,694.4c1.2-0.1,2.2-1.1,2.2-2.3s-1.1-2.2-2.3-2.2l0,0l-0.9,0l0.2,4.5L1765.9,694.4z"/>
		<path class="st2" d="M1770.4,692c0.2-1.8,1.9-3.1,3.7-2.9c1.8,0.2,3.1,1.9,2.9,3.7c-0.2,1.7-1.8,3-3.5,2.9
			c-1.8-0.1-3.2-1.6-3.1-3.3C1770.4,692.3,1770.4,692.2,1770.4,692z M1773.6,694.6c1.2,0.1,2-0.7,2.1-2.2c0.1-1.5-0.6-2.4-1.8-2.5
			l-0.1,0c-1.2-0.1-2,0.7-2.1,2.2C1771.6,693.6,1772.3,694.5,1773.6,694.6L1773.6,694.6z"/>
		<path class="st2" d="M1780,691.4l-1,4.9l-1.3-0.3l1.3-6.7l1.7,0.3l1.6,5.4l1-4.9l1.3,0.3l-1.3,6.7l-1.7-0.3L1780,691.4z"/>
		<path class="st2" d="M1786.8,691.1l4.9,1.6l-0.4,1.1l-3.7-1.2l-0.5,1.5l3.1,1l-0.4,1.1l-3.1-1l-0.5,1.7l3.8,1.2l-0.4,1.1l-5-1.6
			L1786.8,691.1z"/>
		<path class="st2" d="M1795.2,695.3L1795.2,695.3c-0.8-0.3-1.3-0.2-1.5,0.2c-0.2,0.4,0,0.7,0.4,1l0.9,0.6c0.9,0.5,1.4,1.6,0.9,2.6
			c-0.5,1.1-1.7,1.5-3.3,0.9c-1.7-0.8-2.1-2-1.6-3.3l1.2,0.5c-0.2,0.6,0,1.3,0.9,1.7l0.1,0c0.7,0.3,1.2,0.1,1.4-0.3
			c0.2-0.4,0.1-0.6-0.4-1l-1-0.7c-0.9-0.5-1.3-1.6-0.8-2.5c0.4-0.9,1.7-1.5,3.2-0.8c1.5,0.7,2,1.9,1.5,3.1l-1.2-0.5
			C1796.2,696.2,1795.9,695.6,1795.2,695.3C1795.3,695.3,1795.2,695.3,1795.2,695.3z"/>
		<path class="st2" d="M1799.4,696.2l1.2,0.6l-3.2,6l-1.2-0.6L1799.4,696.2z"/>
		<path class="st2" d="M1803,704.3l-2.4-1.6l-1.4,1l-1.2-0.8l6-4.3l1.3,0.8l-1.5,7.2l-1.2-0.8L1803,704.3z M1803.8,700.4l-2.2,1.6
			l1.7,1.1L1803.8,700.4z"/>
	</g>
	<circle class="st10" cx="1748" cy="745.2" r="27.5"/>
	<circle class="st16" cx="1798.2" cy="745.2" r="19.5"/>
	<circle class="st9" cx="1780.5" cy="783.4" r="19.5"/>
	<circle class="st1" cx="1664.6" cy="233.6" r="81.5"/>
	<g>
		<path class="st2" d="M1593.7,170.6L1593.7,170.6c-0.6,0.6-0.6,1.2-0.2,1.5c0.3,0.3,0.6,0.3,1.1-0.1l0.8-0.6
			c0.7-0.8,1.9-0.8,2.7-0.1c0.9,0.8,0.9,2.1-0.2,3.4c-1.3,1.4-2.6,1.4-3.6,0.5l0.9-1c0.6,0.5,1.4,0.3,1.9-0.3c0,0,0-0.1,0.1-0.1
			l0.1-0.1c0.5-0.5,0.5-1.1,0.1-1.4c-0.3-0.3-0.6-0.3-1.1,0.1l-1,0.7c-0.7,0.7-1.9,0.7-2.6,0c-0.8-0.7-0.9-2,0.2-3.3
			c1.1-1.2,2.4-1.3,3.4-0.4l-0.9,1C1594.9,170,1594.2,170,1593.7,170.6C1593.7,170.5,1593.7,170.6,1593.7,170.6z"/>
		<path class="st2" d="M1597.8,169.5c-1.2-1.4-1-3.5,0.4-4.7s3.5-1,4.7,0.4c1.1,1.3,1,3.3-0.2,4.6c-1.2,1.3-3.3,1.3-4.5,0.1
			C1598,169.8,1597.9,169.7,1597.8,169.5z M1601.9,168.9c0.9-0.8,0.8-2-0.2-3s-2.1-1.2-3-0.3l-0.1,0.1c-0.9,0.8-0.8,2,0.2,3
			C1599.8,169.7,1600.9,169.8,1601.9,168.9L1601.9,168.9z"/>
		<path class="st2" d="M1604.3,164.9l-2.8-3.4l1-0.8l2.7,3.3c0.7,0.8,1.3,0.9,2,0.3l0.1-0.1c0.7-0.6,0.7-1.2,0.1-2l-2.7-3.3l1-0.8
			l2.8,3.4c1,1.2,0.9,2.5-0.5,3.6C1606.5,166.3,1605.3,166.1,1604.3,164.9z"/>
		<path class="st2" d="M1609.3,156.9l-1.9,1.4l-0.7-1l5-3.5l0.7,1l-1.9,1.4l3.2,4.6l-1.1,0.8L1609.3,156.9z"/>
		<path class="st2" d="M1612.8,153.1l1.1-0.7l1.4,2.4l2.6-1.5l-1.4-2.4l1.1-0.7l3.5,5.9l-1.1,0.7l-1.4-2.4l-2.6,1.5l1.4,2.4
			l-1.1,0.7L1612.8,153.1z"/>
		<path class="st2" d="M1625.2,150.7l-0.4,1.2l0.9,1.9l-1.2,0.6l-2.9-6.2l1.2-0.6l1.3,2.8l1.3-4l1.5-0.7l-1.3,3.7l4.2,2.5l-1.5,0.7
			L1625.2,150.7z"/>
		<path class="st2" d="M1628.5,148.7c-0.5-1.8,0.4-3.6,2.2-4.2c1.8-0.5,3.6,0.4,4.2,2.2c0.5,1.7-0.4,3.5-2,4.1
			c-1.6,0.7-3.5-0.1-4.2-1.7C1628.6,149,1628.5,148.9,1628.5,148.7z M1632.5,149.7c1.1-0.4,1.5-1.5,1-2.9c-0.5-1.4-1.5-1.9-2.6-1.5
			l-0.1,0c-1.1,0.4-1.5,1.5-1,2.9C1630.2,149.6,1631.2,150.2,1632.5,149.7L1632.5,149.7z"/>
		<path class="st2" d="M1635.1,142.7l3-0.9c1-0.4,2.1,0.1,2.5,1.1c0,0,0,0,0,0.1c0.3,0.7,0,1.6-0.6,2c0.7-0.2,1.1,0,1.3,0.6l0.6,2.2
			l-1.3,0.4l-0.5-1.9c-0.1-0.5-0.3-0.6-0.8-0.4l-1.8,0.5l0.7,2.5l-1.3,0.4L1635.1,142.7z M1638.6,144.9c0.8-0.2,1-0.7,0.9-1.3
			c-0.2-0.6-0.6-0.8-1.4-0.6l-1.4,0.4l0.5,1.8L1638.6,144.9z"/>
		<path class="st2" d="M1641.9,140.9l5.1-1.1l0.2,1.1l-3.8,0.8l0.3,1.5l3.2-0.7l0.2,1.1l-3.2,0.7l0.4,1.7l3.9-0.8l0.2,1.1l-5.2,1.1
			L1641.9,140.9z"/>
		<path class="st2" d="M1653.3,144.2l-2.8,0.4l-0.4,1.7l-1.4,0.2l1.8-7.1l1.5-0.2l3.5,6.4l-1.4,0.2L1653.3,144.2z M1651.4,140.6
			l-0.6,2.7l2-0.3L1651.4,140.6z"/>
	</g>
	<circle class="st16" cx="1605.2" cy="241.9" r="18.9"/>
	<circle class="st10" cx="1700.1" cy="215.3" r="32.7"/>
	<circle class="st7" cx="1656" cy="274" r="37.7"/>
	<circle class="st5" cx="1639.9" cy="205.5" r="26.7"/>
	<circle class="st4" cx="1715.3" cy="267.7" r="18.9"/>
	<circle class="st1" cx="1791.5" cy="919.3" r="25.5"/>
	<g>
		<path class="st2" d="M1768.8,895.4l-1.7,2l0.8,1.5l-0.8,1l-3.5-6.4l0.9-1.1l6.7,2.7l-0.8,1L1768.8,895.4z M1765.1,893.9l1.4,2.4
			l1.2-1.4L1765.1,893.9z"/>
		<path class="st2" d="M1770,893l-2.7-3.5l1-0.8l2.6,3.3c0.7,0.8,1.3,0.9,1.9,0.4l0.1-0.1c0.6-0.5,0.7-1.1,0-1.9l-2.6-3.3l1-0.8
			l2.8,3.5c0.9,1.1,0.7,2.6-0.4,3.5S1770.9,894.1,1770,893C1770.1,893.1,1770,893,1770,893L1770,893z"/>
		<path class="st2" d="M1775.7,885.1L1775.7,885.1c-0.7,0.4-0.9,0.9-0.7,1.3c0.2,0.4,0.5,0.5,1,0.3l0.9-0.3c0.9-0.4,2,0,2.4,0.9
			c0.5,1.1,0.1,2.3-1,2.9c-0.1,0-0.2,0.1-0.2,0.1c-1,0.7-2.5,0.5-3.2-0.6c-0.1-0.1-0.1-0.2-0.2-0.4l1.1-0.6c0.3,0.6,1.1,0.8,1.7,0.5
			c0,0,0.1,0,0.1-0.1l0.1,0c0.5-0.2,0.7-0.7,0.6-1.1c0,0,0-0.1,0-0.1c-0.2-0.3-0.4-0.5-1-0.3l-1.1,0.3c-0.9,0.3-2-0.1-2.3-1
			c-0.4-1.3,0.2-2.6,1.5-3c1.1-0.4,2.2,0.1,2.8,1l-1.1,0.6C1777,885,1776.3,884.8,1775.7,885.1
			C1775.8,885.1,1775.7,885.1,1775.7,885.1z"/>
		<path class="st2" d="M1781,883l-2.1,0.6l-0.3-1.1l5.3-1.6l0.3,1.1l-2.1,0.6l1.6,5.4l-1.2,0.3L1781,883z"/>
		<path class="st2" d="M1785.9,880.6l2.9-0.3c1-0.1,1.9,0.6,2.1,1.6c0,0,0,0.1,0,0.1c0.1,0.7-0.2,1.5-0.9,1.8c0.5-0.1,0.9,0.2,1,0.6
			c0,0.1,0,0.2,0,0.2l0.2,2.3l-1.2,0.1l-0.2-1.9c0-0.5-0.2-0.6-0.6-0.6l-1.7,0.2l0.2,2.6l-1.2,0.1L1785.9,880.6z M1788.7,883.5
			c0.7-0.1,1-0.4,1-1.1s-0.4-0.9-1.2-0.8l-1.3,0.1l0.2,1.9L1788.7,883.5z"/>
		<path class="st2" d="M1796.2,885.9l-2.6-0.3l-0.8,1.5l-1.3-0.2l3.3-6.5l1.4,0.2l1.6,7.1l-1.3-0.2L1796.2,885.9z M1795.4,882
			l-1.2,2.5l1.8,0.2L1795.4,882z"/>
		<path class="st2" d="M1800.5,881.4l1.2,0.4l-1.8,5.4l3.4,1.1l-0.4,1.1l-4.5-1.5L1800.5,881.4z"/>
		<path class="st2" d="M1806.4,883.7l1.1,0.5l-3,6.1l-1.1-0.5L1806.4,883.7z"/>
		<path class="st2" d="M1809.7,891.7l-2.2-1.5l-1.4,1l-1.1-0.7l5.9-4.2l1.2,0.8l-1.9,7l-1.1-0.7L1809.7,891.7z M1810.7,887.8
			l-2.2,1.6l1.5,1L1810.7,887.8z"/>
	</g>
	<circle class="st10" cx="1791.5" cy="919.3" r="19.5"/>
	<circle class="st1" cx="1618.8" cy="569.4" r="55.9"/>
	<g>
		<path class="st2" d="M1649.3,507.4l-2.6,4.8l-1.1-0.6l3.2-6l1.8,1l-1,5.5l4-3.9l1.8,1l-3.2,6l-1.1-0.6l2.6-4.7l-4,3.9l-1.3-0.7
			L1649.3,507.4z"/>
		<path class="st2" d="M1657.4,516.8l-2.3-1.7l-1.4,1l-1.1-0.8l6.1-4l1.3,0.9l-1.8,7.1l-1.1-0.8L1657.4,516.8z M1658.4,512.9
			l-2.3,1.5l1.6,1.1L1658.4,512.9z"/>
		<path class="st2" d="M1662.9,514.4l1,0.9l-3.7,4.3l2.9,2.5l-0.8,0.9l-3.9-3.4L1662.9,514.4z"/>
		<path class="st2" d="M1666.9,525.3l-2-2.1l-1.6,0.7l-1-1l6.8-2.8l1.1,1.1l-3.1,6.6l-1-1L1666.9,525.3z M1668.6,521.7l-2.6,1.1
			l1.4,1.4L1668.6,521.7z"/>
		<path class="st2" d="M1668,529l2.1-1.7l1.6-4.5l0.9,1.2l-1.2,3.2l3.3-0.5l0.9,1.1l-4.8,0.6l-2.1,1.7L1668,529z"/>
		<path class="st2" d="M1676.6,531L1676.6,531c-0.5-0.7-1-0.8-1.4-0.6c-0.4,0.2-0.4,0.6-0.2,1.1l0.4,1c0.5,0.9,0.3,2.1-0.6,2.7
			c-1,0.6-2.3,0.4-3.2-1c-1-1.6-0.7-2.8,0.5-3.6l0.7,1.1c-0.6,0.5-0.7,1.3-0.2,1.9c0,0,0,0.1,0.1,0.1l0.1,0.1
			c0.4,0.6,0.9,0.7,1.3,0.5c0.3-0.2,0.4-0.5,0.2-1.1l-0.5-1.2c-0.5-0.9-0.2-2,0.7-2.6c0.9-0.6,2.2-0.4,3.1,1
			c0.9,1.4,0.6,2.7-0.4,3.4l-0.7-1.1C1676.9,532.3,1677,531.6,1676.6,531C1676.6,531.1,1676.6,531,1676.6,531z"/>
		<path class="st2" d="M1679.5,533.7l0.7,1.1l-5.9,3.4l-0.7-1.1L1679.5,533.7z"/>
		<path class="st2" d="M1678.1,542.3l-1.2-2.6l-1.7,0.1l-0.6-1.2l7.3-0.5l0.7,1.4l-5,5.3l-0.6-1.3L1678.1,542.3z M1680.8,539.4
			l-2.8,0.2l0.8,1.8L1680.8,539.4z"/>
	</g>
	<circle class="st17" cx="1596.1" cy="569.4" r="29.7"/>
	<circle class="st3" cx="1650.3" cy="569.4" r="21"/>
	<circle class="st1" cx="1560.1" cy="401.5" r="59.5"/>
	<g>
		<path class="st2" d="M1513,451.6l1,0.9l-4.6,5.1l-1-0.9L1513,451.6z"/>
		<path class="st2" d="M1515,455.6l-3.1,4l-1-0.8l4.2-5.4l1.4,1l-0.9,5.6l3.1-4l1,0.8l-4.2,5.4l-1.4-1L1515,455.6z"/>
		<path class="st2" d="M1520.6,457.6l2,1.2c1.6,0.8,2.2,2.7,1.4,4.2c-0.1,0.2-0.2,0.3-0.3,0.5c-0.8,1.5-2.6,2.2-4.2,1.4
			c-0.2-0.1-0.4-0.2-0.5-0.3l-2-1.3L1520.6,457.6z M1519.6,463.6c1.1,0.7,2.4,0.3,3.1-0.7c0.7-1.1,0.3-2.4-0.7-3.1c0,0,0,0,0,0
			l-0.8-0.5l-2.4,3.8L1519.6,463.6z"/>
		<path class="st2" d="M1526.5,461.1l1.2,0.6l-3.2,6l-1.2-0.6L1526.5,461.1z"/>
		<path class="st2" d="M1530.5,468.9l-2.6-1.2l-1.2,1.2l-1.3-0.6l5.2-5.2l1.4,0.6l-0.4,7.3l-1.3-0.6L1530.5,468.9z M1530.8,464.8
			l-1.9,2l1.8,0.8L1530.8,464.8z"/>
	</g>
	<circle class="st10" cx="1531.2" cy="398.2" r="27.5"/>
	<circle class="st4" cx="1589.4" cy="398.2" r="27.5"/>
	<circle class="st16" cx="1560.3" cy="439" r="19.5"/>
	<circle class="st1" cx="1650.9" cy="461.2" r="25.5"/>
	<g>
		<path class="st2" d="M1641.7,426.2l-2.3,0.7l-0.3-1.1l5.8-1.8l0.3,1.1l-2.3,0.7l1.6,5.4l-1.3,0.4L1641.7,426.2z"/>
		<path class="st2" d="M1647,423.6l1.3-0.1l0.2,2.8l3-0.2l-0.2-2.8l1.3-0.1l0.5,6.8l-1.3,0.1l-0.2-2.8l-3,0.2l0.2,2.8l-1.3,0.1
			L1647,423.6z"/>
		<path class="st2" d="M1658.7,429.1l-2.8-0.4l-0.9,1.5l-1.4-0.2l3.7-6.3l1.5,0.2l1.5,7.2l-1.4-0.2L1658.7,429.1z M1657.9,425.2
			l-1.4,2.4l1.9,0.3L1657.9,425.2z"/>
		<path class="st2" d="M1663.1,424.9l1.3,0.4l-2.1,6.5l-1.3-0.4L1663.1,424.9z"/>
		<path class="st2" d="M1666.6,426.1l1.2,0.6l-2.5,5.1l3.4,1.7l-0.5,1l-4.6-2.3L1666.6,426.1z"/>
		<path class="st2" d="M1672.9,436.3l-2.2-1.8l-1.5,0.9l-1.1-0.9l6.4-3.6l1.2,1l-2.2,7l-1.1-0.9L1672.9,436.3z M1674.2,432.4
			l-2.4,1.4l1.5,1.2L1674.2,432.4z"/>
		<path class="st2" d="M1678.6,437.1l-4,3.1l-0.8-1l5.4-4.2l1,1.4l-2.3,5.2l4-3.1l0.8,1l-5.4,4.2l-1-1.4L1678.6,437.1z"/>
		<path class="st2" d="M1684.1,442l1,2.1c0.9,1.5,0.4,3.5-1.2,4.3c-0.2,0.1-0.3,0.2-0.5,0.2c-1.5,0.9-3.4,0.3-4.3-1.2
			c-0.1-0.2-0.2-0.4-0.2-0.5l-1-2.2L1684.1,442z M1679.9,446.3c0.5,1.1,1.8,1.6,3,1.1s1.6-1.8,1.1-3l-0.4-0.8l-4.1,1.9L1679.9,446.3
			z"/>
	</g>
	<circle class="st5" cx="1650.9" cy="461.2" r="19.5"/>
	<circle class="st1" cx="1125.7" cy="323.3" r="24.8"/>
	<g>
		<path class="st2" d="M1105.5,354.6c-0.7,0.1-1.4-0.1-1.9-0.6c-1.5-1.3-1.6-3.5-0.3-5c1.2-1.4,3.3-1.6,4.7-0.5
			c1.2,0.8,1.6,2.4,0.8,3.7c0,0,0,0.1-0.1,0.1l-1-0.8c0.4-0.6,0.2-1.5-0.4-2c0,0,0,0,0,0l-0.1-0.1c-1-0.8-2.1-0.5-3,0.6
			c-0.9,1.1-0.9,2.3,0.1,3.1l0.1,0.1c0.6,0.6,1.6,0.6,2.2,0.1l-1.5-1.2l0.7-0.9l1.7,1.3c0.3,0.2,0.5,0.7,0.2,1c0,0-0.1,0.1-0.1,0.1
			l-1.7,2.1l-0.9-0.7L1105.5,354.6z"/>
		<path class="st2" d="M1110.9,350.8l2.9,1.4c1,0.4,1.5,1.5,1.1,2.5c0,0,0,0,0,0.1c-0.3,0.7-1,1.2-1.8,1.1c0.7,0.3,0.8,0.8,0.5,1.3
			l-1,2.1l-1.2-0.6l0.8-1.8c0.2-0.4,0.1-0.6-0.3-0.8l-1.7-0.8l-1.1,2.3l-1.2-0.6L1110.9,350.8z M1112,354.8c0.7,0.3,1.2,0.2,1.5-0.4
			c0.3-0.6,0.1-1-0.7-1.3l-1.3-0.6l-0.8,1.7L1112,354.8z"/>
		<path class="st2" d="M1116.4,353.3l5,1.2l-0.3,1.1l-3.8-0.9l-0.4,1.5l3.2,0.7l-0.3,1.1l-3.2-0.7l-0.4,1.7l3.8,0.9l-0.3,1.1
			l-5.1-1.2L1116.4,353.3z"/>
		<path class="st2" d="M1122.1,354.5l5.2,0.1l0,1.2l-3.9-0.1l0,1.6l3.3,0l0,1.2l-3.3,0l0,1.7l3.9,0.1l0,1.2l-5.3-0.1L1122.1,354.5z"
			/>
		<path class="st2" d="M1134.5,357.9c0.2,1.3-0.6,2.5-2.3,2.9c-2.1,0.4-3.5-0.7-3.9-2.8c-0.4-2.1,0.4-3.7,2.5-4.1
			c1.3-0.4,2.8,0.3,3.2,1.6c0,0,0,0.1,0,0.1l-1.3,0.3c-0.3-0.7-1-1.1-1.7-0.8l-0.1,0c-1.1,0.2-1.7,1.2-1.4,2.7
			c0.3,1.4,1.2,2.1,2.3,1.9l0.1,0c0.7-0.1,1.3-0.7,1.2-1.4L1134.5,357.9z"/>
		<path class="st2" d="M1134.1,353.1l4.7-2.1l0.5,1.1l-3.5,1.6l0.6,1.4l3-1.3l0.5,1.1l-3,1.3l0.7,1.6l3.6-1.6l0.5,1.1l-4.8,2.2
			L1134.1,353.1z"/>
	</g>
	<circle class="st16" cx="1125.7" cy="323.3" r="19.5"/>
	<circle class="st1" cx="845.6" cy="175.1" r="22.3"/>
	<g>
		<path class="st2" d="M819.7,190.7l0.7,1.1l-5.7,3.8l-0.7-1.1L819.7,190.7z"/>
		<path class="st2" d="M821.1,192.8l2.1,2.4c0.8,0.7,0.8,2,0.1,2.8c0,0,0,0,0,0c-0.5,0.6-1.4,0.7-2.1,0.3c0.4,0.3,0.5,0.9,0.2,1.3
			c-0.1,0.1-0.1,0.1-0.2,0.2l-1.7,1.5l-0.9-1l1.4-1.3c0.4-0.3,0.4-0.5,0-0.9l-1.3-1.4l-1.9,1.7l-0.9-1L821.1,192.8z M820.6,197
			c0.5,0.6,1,0.6,1.5,0.2s0.4-0.9-0.1-1.5l-1-1.1l-1.4,1.3L820.6,197z"/>
		<path class="st2" d="M825.2,197.3l4.2,3.1l-0.7,0.9l-3.1-2.3l-0.9,1.3l2.6,1.9l-0.7,0.9l-2.6-1.9l-1,1.4l3.2,2.3l-0.7,0.9
			l-4.2-3.1L825.2,197.3z"/>
		<path class="st2" d="M830.1,200.7l1.2,0.6l-2.4,5.1l3.5,1.6l-0.5,1.1l-4.7-2.2L830.1,200.7z"/>
		<path class="st2" d="M838,209.1l-2.8-0.7l-1,1.4l-1.3-0.3l4.2-6l1.5,0.4l1,7.3l-1.4-0.3L838,209.1z M837.5,205.1l-1.6,2.3l1.9,0.5
			L837.5,205.1z"/>
		<path class="st2" d="M842.7,206.2l-0.1,5l-1.3,0l0.1-6.8l1.7,0l2.6,5l0.1-5l1.3,0l-0.1,6.8l-1.7,0L842.7,206.2z"/>
		<path class="st2" d="M848.2,204.4l2.3-0.5c1.7-0.5,3.4,0.4,4,2.1c0.1,0.2,0.1,0.4,0.1,0.6c0.5,1.7-0.4,3.4-2.1,3.9
			c-0.2,0.1-0.4,0.1-0.6,0.1l-2.3,0.5L848.2,204.4z M851.5,209.5c1.2-0.2,2-1.4,1.8-2.6c-0.2-1.2-1.4-2-2.6-1.8c0,0,0,0,0,0
			l-0.9,0.2l0.9,4.4L851.5,209.5z"/>
	</g>
	<circle class="st6" cx="845.7" cy="175.1" r="16.6"/>
	<circle class="st1" cx="1065.3" cy="292.9" r="25.5"/>
	<g>
		<path class="st2" d="M1032.6,310.6l-0.9-2.7l-1.7-0.1l-0.4-1.3l7.3,0.4l0.5,1.5l-5.6,4.7l-0.4-1.3L1032.6,310.6z M1035.7,308
			l-2.8-0.1l0.6,1.9L1035.7,308z"/>
		<path class="st2" d="M1038.5,311.2l0.7,1.1l-4.8,2.9l2,3.3l-1,0.6l-2.7-4.4L1038.5,311.2z"/>
		<path class="st2" d="M1036.7,320.8l5-4.7l2.1,2.2c0.8,0.6,0.9,1.8,0.3,2.6c0,0-0.1,0.1-0.1,0.1c-0.8-0.4-1.9-0.1-2.3,0.7
			c-0.3,0.5-0.3,1.1,0,1.6c-0.8,0.7-2,0.6-2.7-0.2c0,0,0-0.1-0.1-0.1L1036.7,320.8z M1039.5,322.1c0.4,0.5,0.9,0.5,1.3,0.1
			c0.4-0.4,0.4-0.9-0.1-1.3l-1.1-1.2l-1.3,1.2L1039.5,322.1z M1041.5,320c0.4,0.5,0.9,0.5,1.3,0.1c0.4-0.4,0.4-0.8-0.1-1.3l-1-1.1
			l-1.2,1.1L1041.5,320z"/>
		<path class="st2" d="M1046.3,326.9l-2.4-1.6l-1.4,1l-1.2-0.8l6-4.2l1.3,0.9l-1.6,7.1l-1.2-0.8L1046.3,326.9z M1047.2,323l-2.3,1.6
			l1.6,1.1L1047.2,323z"/>
		<path class="st2" d="M1052,326l-1.7,4.7l-1.2-0.4l2.3-6.4l1.6,0.6l0.8,5.6l1.7-4.7l1.2,0.4l-2.3,6.4l-1.6-0.6L1052,326z"/>
		<path class="st2" d="M1057.9,326l1.3,0.2l-1.2,6.7l-1.3-0.2L1057.9,326z"/>
		<path class="st2" d="M1064.5,331.7l-2.9,0l-0.6,1.6l-1.4,0l2.8-6.8l1.5,0l2.6,6.9l-1.4,0L1064.5,331.7z M1063.1,328l-1,2.6l2,0
			L1063.1,328z"/>
	</g>
	<circle class="st7" cx="1065.3" cy="292.9" r="19.5"/>
	
		<ellipse transform="matrix(0.7071 -0.7071 0.7071 0.7071 191.2129 713.828)" class="st1" cx="957.3" cy="126.1" rx="79.1" ry="79.1"/>
	<g>
		<path class="st2" d="M868.3,120.1l-4.4-0.4l0.1-1.3l4.2,0.4c1.1,0.1,1.5-0.3,1.6-1.2l0-0.1c0.1-0.9-0.3-1.4-1.4-1.5l-4.2-0.4
			l0.1-1.3l4.4,0.4c1.6,0.2,2.4,1.1,2.2,2.9S869.8,120.2,868.3,120.1z"/>
		<path class="st2" d="M866.7,111.3l4.9,0.9l-0.2,1.3l-6.7-1.2l0.3-1.7l5.4-1.7l-4.9-0.9l0.2-1.3l6.7,1.2l-0.3,1.7L866.7,111.3z"/>
		<path class="st2" d="M866.1,104.8l0.3-1.3l6.6,1.6l-0.3,1.3L866.1,104.8z"/>
		<path class="st2" d="M868.5,100.4l-0.7,2.3l-1.1-0.3l1.8-5.8l1.1,0.3l-0.7,2.3l5.4,1.7l-0.4,1.3L868.5,100.4z"/>
		<path class="st2" d="M869,95.2l1.9-4.8l1.1,0.4l-1.4,3.6L872,95l1.2-3l1.1,0.4l-1.2,3l1.6,0.6l1.4-3.7l1.1,0.4l-1.9,4.9L869,95.2z
			"/>
		<path class="st2" d="M871.5,88.9l1-2.1c0.6-1.6,2.4-2.5,4.1-1.9c0.2,0.1,0.4,0.1,0.5,0.2c1.6,0.6,2.4,2.4,1.8,4
			c-0.1,0.2-0.2,0.4-0.3,0.5l-1,2.1L871.5,88.9z M877.6,89.3c0.5-1.1,0.1-2.5-1-3s-2.5-0.1-3,1c0,0,0,0,0,0l-0.4,0.8l4,2L877.6,89.3
			z"/>
		<path class="st2" d="M880.5,80.3l0.3,1.3l1.7,1.1l-0.7,1.1l-5.8-3.6l0.7-1.1l2.6,1.6l-1.1-4.1l0.9-1.4l1,3.8l4.8-0.2l-0.9,1.4
			L880.5,80.3z"/>
		<path class="st2" d="M879.8,74.2l0.8-1.1l5.6,3.9l-0.8,1.1L879.8,74.2z"/>
		<path class="st2" d="M883.9,71.7l3.9,3.1l-0.8,1l-5.3-4.3l1.1-1.3l5.6,1l-3.9-3.1l0.8-1l5.3,4.3l-1.1,1.3L883.9,71.7z"/>
		<path class="st2" d="M894.4,66.3c0,0.7-0.2,1.4-0.7,1.9c-1.4,1.4-3.6,1.3-5-0.1c-1.3-1.3-1.3-3.4-0.1-4.8c0.9-1.2,2.5-1.4,3.7-0.5
			c0,0,0.1,0,0.1,0.1l-0.9,1c-0.6-0.5-1.5-0.4-2,0.2c0,0,0,0,0,0l-0.1,0.1c-0.9,0.9-0.7,2.1,0.3,3.1c1,1,2.2,1.1,3.1,0.2l0.1-0.1
			c0.6-0.6,0.7-1.5,0.3-2.2l-1.3,1.4l-0.9-0.8l1.5-1.6c0.2-0.3,0.7-0.4,1-0.2c0,0,0.1,0.1,0.1,0.1l2,1.9l-0.8,0.8L894.4,66.3z"/>
		<path class="st2" d="M892,60l1.7-1.6c1.2-1.3,3.2-1.4,4.5-0.2c0.1,0.1,0.3,0.3,0.4,0.4c1.3,1.2,1.3,3.2,0.2,4.4
			c-0.1,0.1-0.3,0.3-0.4,0.4l-1.8,1.6L892,60z M897.4,62.8c0.9-0.8,1-2.2,0.2-3.2c-0.8-0.9-2.2-1-3.2-0.2l0,0l-0.7,0.6l3,3.3
			L897.4,62.8z"/>
		<path class="st2" d="M899.3,58.1c-1-1.5-0.6-3.6,0.9-4.6c1.5-1,3.6-0.6,4.6,0.9c1,1.5,0.6,3.4-0.8,4.5c-1.4,1.1-3.4,0.9-4.5-0.5
			C899.5,58.3,899.4,58.2,899.3,58.1z M903.4,57.9c1-0.7,1-1.9,0.1-3c-0.9-1.2-2-1.4-3-0.7l-0.1,0.1c-1,0.7-1,1.9-0.1,3
			C901.3,58.4,902.4,58.7,903.4,57.9L903.4,57.9z"/>
		<path class="st2" d="M905.9,50.9l2.8,4.6l-1.1,0.7l-3.6-5.8l1.7-1.1L910,53l-1.4-5.4l1.7-1.1l3.6,5.8l-1.1,0.7l-2.8-4.6l1.4,5.5
			l-1.2,0.8L905.9,50.9z"/>
	</g>
	<circle class="st4" cx="920.2" cy="116.9" r="20.7"/>
	<circle class="st16" cx="980" cy="116.9" r="35.8"/>
	<circle class="st8" cx="936.9" cy="158.4" r="20.7"/>
	<circle class="st18" cx="936.9" cy="75.5" r="20.7"/>
	<circle class="st7" cx="977.7" cy="176.7" r="20.7"/>
	<circle class="st1" cx="847.8" cy="309.2" r="25.2"/>
	<g>
		<path class="st2" d="M821.7,329.6L821.7,329.6c-0.5-0.7-1.1-0.8-1.4-0.5c-0.4,0.3-0.4,0.6-0.1,1.1l0.5,0.9c0.6,0.9,0.4,2-0.4,2.7
			c-0.9,0.7-2.2,0.5-3.3-0.8c-1.1-1.5-0.9-2.8,0.2-3.7l0.8,1.1c-0.6,0.5-0.6,1.3-0.1,1.9c0,0,0,0.1,0.1,0.1l0.1,0.1
			c0.4,0.6,1,0.7,1.3,0.4c0.3-0.2,0.4-0.5,0.1-1.1l-0.5-1.1c-0.6-0.9-0.3-2,0.5-2.6c0.8-0.6,2.2-0.5,3.2,0.8c1,1.3,0.8,2.6-0.2,3.4
			l-0.8-1.1C822.1,330.9,822.1,330.2,821.7,329.6C821.7,329.7,821.7,329.6,821.7,329.6z"/>
		<path class="st2" d="M824.6,331.5l2.3,2.1c0.9,0.8,1,2.1,0.2,3c-0.8,0.9-2.1,1-3,0.2c0,0,0,0-0.1-0.1l-1.3-1.2l-1.7,1.9l-1-0.9
			L824.6,331.5z M824.6,335.8c0.4,0.4,1,0.4,1.4,0c0.4-0.4,0.4-1,0-1.4c0,0,0,0-0.1-0.1l-1.2-1.1l-1.3,1.5L824.6,335.8z"/>
		<path class="st2" d="M829.3,341.7l-2.5-1.5l-1.4,1.1l-1.2-0.7l5.8-4.5l1.3,0.8l-1.3,7.2l-1.2-0.7L829.3,341.7z M830.1,337.7
			l-2.2,1.7l1.7,1L830.1,337.7z"/>
		<path class="st2" d="M834.3,338.2l1.2,0.5l-2.6,6.3l-1.2-0.5L834.3,338.2z"/>
		<path class="st2" d="M837.4,341.3l-1.1,4.9l-1.3-0.3l1.6-6.6l1.7,0.4l1.5,5.5l1.1-4.9l1.3,0.3l-1.6,6.6l-1.7-0.4L837.4,341.3z"/>
	</g>
	<circle class="st6" cx="847.8" cy="309.2" r="19.2"/>
	<circle class="st1" cx="1074.4" cy="91.2" r="22.8"/>
	<g>
		<path class="st2" d="M1056,61.6l4.3-2.5l0.6,1l-3.2,1.8l0.9,1.5l2.8-1.6l0.6,1l-2.8,1.6l1.3,2.4l-1.1,0.7L1056,61.6z"/>
		<path class="st2" d="M1062.1,58.4l1.2-0.5l2.4,6.4l-1.2,0.5L1062.1,58.4z"/>
		<path class="st2" d="M1067.4,58.7l0.9,5l-1.3,0.2l-1.2-6.7l1.7-0.3l3.5,4.5l-0.9-4.9l1.3-0.2l1.2,6.7l-1.7,0.3L1067.4,58.7z"/>
		<path class="st2" d="M1074.3,56l1.3,0.1l-0.4,5.6l3.8,0.2l-0.1,1.2l-5.2-0.3L1074.3,56z"/>
		<path class="st2" d="M1084,63l-2.7-0.8l-1.1,1.4l-1.3-0.4l4.6-5.7l1.5,0.5l0.5,7.3l-1.3-0.4L1084,63z M1083.8,59l-1.7,2.2l1.9,0.6
			L1083.8,59z"/>
		<path class="st2" d="M1089.7,61.8l-2.6,4.3l-1.1-0.7l3.6-5.8l1.5,0.9l-0.3,5.7l2.6-4.3l1.1,0.7l-3.6,5.8l-1.5-0.9L1089.7,61.8z"/>
		<path class="st2" d="M1096.6,64.5l1.6,1.7c1.3,1.1,1.5,3.1,0.3,4.5c-0.1,0.1-0.3,0.3-0.4,0.4c-1.1,1.3-3.1,1.5-4.4,0.3
			c-0.2-0.1-0.3-0.3-0.4-0.4l-1.7-1.7L1096.6,64.5z M1094.1,70c0.9,0.9,2.3,0.9,3.2,0.1c0.9-0.9,0.9-2.3,0.1-3.2l-0.6-0.7l-3.2,3.1
			L1094.1,70z"/>
	</g>
	<circle class="st10" cx="1074.4" cy="91.2" r="17.2"/>
	<circle class="st1" cx="1120.3" cy="180.4" r="59"/>
	<g>
		<path class="st2" d="M1128.6,109.4l1.3,0.2l-0.9,5.6l3.8,0.6l-0.2,1.2l-5.1-0.8L1128.6,109.4z"/>
		<path class="st2" d="M1135,110.6l1.3,0.3l-1.5,6.7l-1.3-0.3L1135,110.6z"/>
		<path class="st2" d="M1139.5,112.9l-2.3-0.7l0.3-1.1l5.8,1.8l-0.3,1.1l-2.3-0.7l-1.6,5.4l-1.3-0.4L1139.5,112.9z"/>
		<path class="st2" d="M1144.8,113.4l1.2,0.5l-1.1,2.6l2.7,1.2l1.1-2.6l1.2,0.5l-2.6,6.3l-1.2-0.5l1.1-2.6l-2.7-1.2l-1.1,2.6
			l-1.2-0.5L1144.8,113.4z"/>
		<path class="st2" d="M1149.7,120.4l2.2-3.9l1.2,0.6l-2.1,3.7c-0.5,0.9-0.3,1.5,0.4,2l0.1,0c0.8,0.4,1.4,0.3,1.9-0.7l2.1-3.7
			l1.2,0.6l-2.2,3.9c-0.8,1.4-1.9,1.8-3.6,0.9C1149.2,123,1149,121.8,1149.7,120.4z"/>
		<path class="st2" d="M1158.6,126.7l-2.4-1.6l-1.4,1l-1.1-0.8l6.1-4.1l1.3,0.9l-1.7,7.1l-1.1-0.8L1158.6,126.7z M1159.5,122.8
			l-2.3,1.6l1.6,1.1L1159.5,122.8z"/>
		<path class="st2" d="M1164.1,126.7l-3.3,3.8l-1-0.9l4.5-5.1l1.3,1.1l-1.3,5.5l3.3-3.8l1,0.9l-4.5,5.1l-1.3-1.1L1164.1,126.7z"/>
		<path class="st2" d="M1170,129.7l0.9,0.9l-4.9,4.8l-0.9-0.9L1170,129.7z"/>
		<path class="st2" d="M1171,138.5l-1.9-2.2l-1.6,0.6l-0.9-1.1l7-2.3l1,1.2l-3.5,6.4l-0.9-1.1L1171,138.5z M1172.9,135l-2.6,0.9
			l1.3,1.5L1172.9,135z"/>
	</g>
	<circle class="st8" cx="1097.2" cy="169.4" r="30.6"/>
	<circle class="st9" cx="1152.9" cy="169.4" r="21.6"/>
	<circle class="st6" cx="1133.3" cy="211.8" r="21.6"/>
	<circle class="st1" cx="1024" cy="241.3" r="25.6"/>
	<g>
		<path class="st2" d="M998.6,219.3c1.1,0.8,1.5,2.1,0.5,3.8c-1,1.6-3.2,2.1-4.8,1.1c-1.6-1-2.1-3-1.2-4.6c1-1.6,2.4-1.9,3.5-1.4
			l-0.7,1.2c-0.7-0.3-1.5,0.1-1.8,0.8l-0.1,0.1c-0.6,1-0.2,2.1,1,2.9c1.3,0.7,2.4,0.5,3-0.5l0.1-0.1c0.5-0.6,0.4-1.5-0.2-1.9
			L998.6,219.3z"/>
		<path class="st2" d="M1000.8,220.2l-0.8-0.8l-0.2-6L997,216l-0.8-0.9l4-3.7l0.8,0.8l0.2,6l2.9-2.8l0.8,0.9L1000.8,220.2z"/>
		<path class="st2" d="M1002.3,209.9l4.7-2.6l0.6,1l-3.5,1.9l0.8,1.4l3-1.6l0.6,1l-3,1.6l0.8,1.5l3.6-2l0.6,1l-4.8,2.6L1002.3,209.9
			z"/>
		<path class="st2" d="M1016.3,209.2c0.3,1.3-0.4,2.6-2.2,3.1c-1.9,0.5-3.8-0.7-4.3-2.5c-0.5-1.8,0.5-3.6,2.3-4.2
			c1.8-0.5,3.1,0.2,3.5,1.4l-1.3,0.4c-0.3-0.7-1.1-1-1.8-0.7l-0.1,0c-1.1,0.3-1.6,1.4-1.2,2.8s1.4,2,2.6,1.7l0.1,0
			c0.7-0.1,1.3-0.8,1.2-1.6L1016.3,209.2z"/>
		<path class="st2" d="M1017.2,204.4l1.4-0.1l0.2,2.8l3.1-0.3l-0.2-2.8l1.4-0.1l0.6,6.8l-1.4,0.1l-0.2-2.8l-3.1,0.3l0.2,2.8
			l-1.4,0.1L1017.2,204.4z"/>
		<path class="st2" d="M1028.4,204.1l3.3,0.5c1.1,0.1,1.9,1,1.9,2.1c0,0,0,0,0,0.1c-0.1,0.8-0.7,1.4-1.5,1.5c0.8,0.1,1,0.5,0.9,1.1
			l-0.4,2.3l-1.4-0.2l0.3-1.9c0.1-0.5,0-0.6-0.6-0.7l-2-0.3l-0.4,2.6l-1.4-0.2L1028.4,204.1z M1030.7,207.6c0.8,0.1,1.3-0.2,1.4-0.8
			c0.1-0.6-0.3-1-1.1-1.1l-1.5-0.2l-0.3,1.9L1030.7,207.6z"/>
		<path class="st2" d="M1036.2,205.6l5,1.9l-0.4,1.1l-3.8-1.4l-0.5,1.5l3.2,1.2l-0.4,1.1l-3.2-1.2l-0.6,1.6l3.8,1.4l-0.4,1.1
			l-5.1-1.9L1036.2,205.6z"/>
		<path class="st2" d="M1043.4,208.7l2.7,1.7c1,0.6,1.4,1.9,0.8,2.9c-0.6,1-1.9,1.4-2.9,0.8c-0.1,0-0.1-0.1-0.2-0.1l-1.5-1l-1.4,2.1
			l-1.1-0.7L1043.4,208.7z M1044.3,212.9c0.4,0.3,1,0.3,1.4-0.2c0.3-0.4,0.3-1-0.2-1.4c0,0-0.1-0.1-0.1-0.1l-1.4-0.9l-1.1,1.6
			L1044.3,212.9z"/>
		<path class="st2" d="M1044.9,216.3l1.1,1l-0.9,1.1l-1.1-1L1044.9,216.3z"/>
	</g>
	<circle class="st16" cx="1024" cy="241.3" r="19.5"/>
	<circle class="st1" cx="1326.2" cy="177.5" r="45.3"/>
	<g>
		<path class="st2" d="M1332.1,120.7l3.1,0.4c1.1,0.1,1.9,1,1.8,2.1c0,0,0,0,0,0.1c0,0.8-0.6,1.4-1.4,1.6c0.7,0.1,1,0.5,0.9,1.1
			l-0.3,2.3l-1.3-0.2l0.3-1.9c0.1-0.5-0.1-0.6-0.5-0.7l-1.9-0.3l-0.3,2.6l-1.3-0.2L1332.1,120.7z M1334.4,124.2
			c0.8,0.1,1.2-0.2,1.3-0.8c0.1-0.6-0.3-1-1-1.1l-1.5-0.2l-0.3,1.9L1334.4,124.2z"/>
		<path class="st2" d="M1338.1,126.1l1.2-4.3l1.3,0.3l-1.1,4.1c-0.3,1,0,1.6,0.9,1.8l0.1,0c0.8,0.2,1.4-0.1,1.7-1.1l1.1-4.1l1.3,0.3
			l-1.2,4.3c-0.4,1.5-1.5,2.2-3.2,1.7C1338.2,128.7,1337.7,127.6,1338.1,126.1z"/>
		<path class="st2" d="M1348.4,125.9L1348.4,125.9c-0.8-0.3-1.3-0.1-1.5,0.3c-0.2,0.4,0,0.7,0.5,1l0.9,0.6c1,0.4,1.4,1.6,1,2.5
			c-0.5,1.1-1.7,1.6-3.2,0.9c-1.7-0.7-2.1-2-1.6-3.3l1.2,0.5c-0.2,0.6,0,1.3,1,1.7l0.1,0c0.7,0.3,1.2,0.1,1.3-0.3
			c0.2-0.4,0.1-0.6-0.4-1l-1-0.7c-0.9-0.5-1.3-1.6-0.9-2.5c0.4-0.9,1.6-1.5,3.2-0.9c1.5,0.6,2,1.9,1.5,3.1l-1.2-0.5
			C1349.3,126.8,1349,126.2,1348.4,125.9C1348.4,125.9,1348.4,125.9,1348.4,125.9z"/>
		<path class="st2" d="M1354.3,128.9L1354.3,128.9c-0.7-0.4-1.3-0.3-1.5,0.1c-0.2,0.4-0.1,0.7,0.3,1.1l0.8,0.7
			c0.9,0.6,1.2,1.7,0.7,2.6c-0.6,1-1.9,1.4-3.3,0.5c-1.6-0.9-1.9-2.2-1.2-3.5l1.1,0.7c-0.3,0.7,0,1.5,0.7,1.8c0,0,0.1,0,0.1,0l0.1,0
			c0.6,0.4,1.2,0.2,1.4-0.2c0.2-0.3,0.2-0.6-0.3-1l-0.9-0.8c-0.8-0.6-1.1-1.7-0.5-2.6c0.5-0.9,1.8-1.3,3.3-0.5
			c1.4,0.8,1.8,2.1,1.1,3.2l-1.1-0.7C1355.2,129.9,1355,129.2,1354.3,128.9C1354.4,128.9,1354.4,128.9,1354.3,128.9z"/>
		<path class="st2" d="M1358.5,130.2l1.1,0.8l-3.9,5.6l-1.1-0.8L1358.5,130.2z"/>
		<path class="st2" d="M1361,138.8l-2.2-1.9l-1.5,0.8l-1.1-0.9l6.5-3.4l1.2,1l-2.4,6.9l-1.1-0.9L1361,138.8z M1362.4,135l-2.4,1.3
			l1.5,1.3L1362.4,135z"/>
	</g>
	<circle class="st7" cx="1305.6" cy="177.2" r="19.5"/>
	<circle class="st16" cx="1347.7" cy="177.2" r="19.5"/>
	<circle class="st1" cx="1693.1" cy="652.2" r="25.5"/>
	<g>
		<path class="st2" d="M1667.8,675.6L1667.8,675.6c-0.5-0.6-1.1-0.7-1.5-0.4c-0.3,0.3-0.3,0.6-0.1,1.1l0.5,0.9
			c0.6,0.8,0.5,2-0.3,2.7c-0.9,0.8-2.2,0.6-3.3-0.7c-1.2-1.4-1-2.7,0.1-3.7l0.8,1c-0.5,0.5-0.5,1.4,0,1.9c0,0,0.1,0,0.1,0.1l0.1,0.1
			c0.5,0.6,1,0.6,1.4,0.3c0.3-0.2,0.4-0.5,0.1-1.1l-0.6-1.1c-0.6-0.8-0.4-2,0.4-2.6c0.8-0.7,2.2-0.6,3.2,0.7
			c1.1,1.3,0.9,2.6-0.1,3.4l-0.8-1C1668.2,676.8,1668.3,676.1,1667.8,675.6C1667.8,675.6,1667.8,675.6,1667.8,675.6z"/>
		<path class="st2" d="M1670.9,677.4l1,0.9l-4.6,5l-1-0.9L1670.9,677.4z"/>
		<path class="st2" d="M1672.8,681.4l-2.8,4.1l-1.1-0.7l3.9-5.6l1.4,1l-0.6,5.6l2.8-4.1l1.1,0.7l-3.9,5.6l-1.4-1L1672.8,681.4z"/>
		<path class="st2" d="M1680.5,690.4c-0.6,0.3-1.4,0.3-2,0c-1.8-0.8-2.5-2.9-1.7-4.7c0.8-1.7,2.7-2.4,4.4-1.8
			c1.4,0.4,2.2,1.9,1.8,3.3c0,0,0,0.1,0,0.1l-1.2-0.5c0.2-0.7-0.2-1.5-0.9-1.8c0,0,0,0,0,0l-0.1,0c-1.2-0.5-2.2,0.1-2.7,1.4
			c-0.5,1.3-0.2,2.4,1,2.9l0.1,0c0.8,0.4,1.7,0.2,2.2-0.5l-1.7-0.7l0.4-1.1l2,0.8c0.4,0.1,0.6,0.5,0.5,0.9c0,0.1,0,0.1-0.1,0.2
			l-1,2.5l-1-0.4L1680.5,690.4z"/>
		<path class="st2" d="M1687.7,691.2l-2.8-0.5l-0.9,1.5l-1.4-0.3l3.9-6.2l1.5,0.3l1.3,7.2l-1.4-0.3L1687.7,691.2z M1687,687.3
			l-1.5,2.4l1.9,0.4L1687,687.3z"/>
		<path class="st2" d="M1691,686.4l3.1,0c1.2,0,2.2,0.9,2.2,2.1c0,1.2-0.9,2.2-2.1,2.2c0,0-0.1,0-0.1,0l-1.8,0l0,2.5l-1.3,0
			L1691,686.4z M1693.9,689.6c0.5,0,1-0.4,1-0.9c0-0.5-0.4-1-0.9-1c0,0-0.1,0-0.1,0l-1.6,0l0,2L1693.9,689.6z"/>
		<path class="st2" d="M1697.1,689.8c-0.2-1.8,1-3.5,2.8-3.7c1.8-0.2,3.5,1,3.7,2.8c0.2,1.7-0.9,3.4-2.7,3.7
			c-1.7,0.4-3.5-0.7-3.9-2.4C1697.1,690.1,1697.1,690,1697.1,689.8z M1700.8,691.5c1.2-0.2,1.7-1.2,1.5-2.7
			c-0.3-1.4-1.2-2.2-2.4-1.9l-0.1,0c-1.2,0.2-1.7,1.2-1.5,2.7C1698.6,691,1699.5,691.7,1700.8,691.5L1700.8,691.5z"/>
		<path class="st2" d="M1703.6,684.9l2.9-1.2c1-0.5,2.1-0.1,2.6,0.8c0,0,0,0,0,0.1c0.4,0.7,0.2,1.5-0.4,2c0.7-0.3,1.1-0.1,1.4,0.5
			l0.9,2.1l-1.2,0.5l-0.7-1.8c-0.2-0.5-0.4-0.5-0.8-0.3l-1.8,0.7l1,2.4l-1.2,0.5L1703.6,684.9z M1707.3,686.7
			c0.7-0.3,0.9-0.8,0.7-1.4c-0.2-0.6-0.7-0.7-1.4-0.4l-1.4,0.6l0.7,1.8L1707.3,686.7z"/>
		<path class="st2" d="M1709.2,682.5l4.3-2.8l0.6,1l-3.2,2.1l0.9,1.3l2.7-1.8l0.6,1l-2.7,1.8l1,1.5l3.3-2.2l0.6,1l-4.4,2.9
			L1709.2,682.5z"/>
	</g>
	<circle class="st17" cx="1693.1" cy="652.2" r="19.5"/>
	<circle class="st1" cx="1528.3" cy="306" r="23.4"/>
	<g>
		<path class="st2" d="M1510.2,276.1l2.7-1.5c1-0.6,2.3-0.2,2.9,0.8c0.6,1,0.2,2.3-0.8,2.9c0,0-0.1,0-0.1,0l-1.5,0.8l1.2,2.2
			l-1.2,0.6L1510.2,276.1z M1514.3,277.5c0.5-0.2,0.7-0.8,0.5-1.3c-0.2-0.5-0.8-0.7-1.3-0.5c0,0-0.1,0-0.1,0l-1.4,0.8l0.9,1.7
			L1514.3,277.5z"/>
		<path class="st2" d="M1521.9,276.9l-2.8,0.8l-0.2,1.7l-1.3,0.4l0.7-7.3l1.5-0.4l4.4,5.9l-1.3,0.4L1521.9,276.9z M1519.5,273.7
			l-0.2,2.8l1.9-0.5L1519.5,273.7z"/>
		<path class="st2" d="M1526.8,274.8l-0.8,1l0.1,2.1l-1.3,0.1l-0.4-6.8l1.3-0.1l0.2,3.1l2.7-3.2l1.6-0.1l-2.5,3l3,3.8l-1.6,0.1
			L1526.8,274.8z"/>
		<path class="st2" d="M1531.9,271l1.3,0.1l-0.7,6.8l-1.3-0.1L1531.9,271z"/>
		<path class="st2" d="M1537.7,273.1L1537.7,273.1c-0.8-0.2-1.3,0.1-1.4,0.5c-0.1,0.4,0.1,0.7,0.6,1l0.9,0.5c1,0.3,1.6,1.4,1.3,2.4
			c-0.3,1.1-1.4,1.8-3.1,1.4c-1.8-0.5-2.4-1.6-2.1-3l1.3,0.3c-0.1,0.7,0.2,1.3,1.2,1.6l0.1,0c0.7,0.2,1.2-0.1,1.3-0.5
			c0.1-0.4,0-0.6-0.6-0.9l-1.1-0.6c-1-0.3-1.5-1.4-1.2-2.4c0.3-1,1.4-1.8,3-1.3c1.6,0.4,2.3,1.6,1.9,2.8l-1.3-0.3
			C1538.8,273.8,1538.4,273.2,1537.7,273.1C1537.7,273.1,1537.7,273.1,1537.7,273.1z"/>
		<path class="st2" d="M1543.5,275.4l-2.1-1.1l0.5-1l5.3,2.8l-0.6,1l-2.1-1.1l-2.7,5l-1.2-0.6L1543.5,275.4z"/>
		<path class="st2" d="M1548.1,283.6l-2.1-1.9l-1.5,0.8l-1-0.9l6.6-3.3l1.2,1l-2.6,6.9l-1-0.9L1548.1,283.6z M1549.5,279.8l-2.5,1.3
			l1.5,1.3L1549.5,279.8z"/>
		<path class="st2" d="M1553.7,285.1l-4.3,2.5l-0.7-1.1l5.9-3.5l0.9,1.5l-3,4.9l4.3-2.5l0.7,1.1l-5.9,3.5l-0.9-1.5L1553.7,285.1z"/>
	</g>
	<circle class="st5" cx="1528.1" cy="305.8" r="18.1"/>
	<circle class="st1" cx="1122.6" cy="740.7" r="24.8"/>
	<g>
		<path class="st2" d="M1095.7,759.6l0.7,1.1l-4.8,3l2.1,3.2l-1,0.6l-2.8-4.4L1095.7,759.6z"/>
		<path class="st2" d="M1098.8,764.3l3.6,3.7l-0.8,0.8l-2.7-2.8l-1.1,1.1l2.3,2.4l-0.8,0.8l-2.3-2.4l-1.3,1.2l2.7,2.9l-0.8,0.8
			l-3.7-3.8L1098.8,764.3z"/>
		<path class="st2" d="M1099.1,774.1l3.9-5.6l2.5,1.7c0.9,0.5,1.3,1.6,0.8,2.5c0,0-0.1,0.1-0.1,0.1c-0.9-0.3-1.8,0.3-2.1,1.2
			c-0.2,0.6,0,1.2,0.4,1.6c-0.7,0.8-1.9,1-2.7,0.3c0,0-0.1,0-0.1-0.1L1099.1,774.1z M1102.2,774.8c0.5,0.4,1,0.3,1.3-0.1
			c0.3-0.5,0.2-0.9-0.4-1.3l-1.3-0.9l-1,1.4L1102.2,774.8z M1103.7,772.4c0.5,0.4,1,0.3,1.3-0.1c0.3-0.4,0.2-0.9-0.3-1.2l-1.2-0.9
			l-0.9,1.3L1103.7,772.4z"/>
		<path class="st2" d="M1109.6,778.1l-2.6-1.1l-1.2,1.2l-1.3-0.5l5.1-5.3l1.4,0.6l-0.2,7.3l-1.3-0.5L1109.6,778.1z M1109.7,774.1
			l-1.9,2l1.8,0.8L1109.7,774.1z"/>
		<path class="st2" d="M1114.7,776.1l-0.8,5l-1.3-0.2l1.2-6.7l1.7,0.3l1.8,5.4l0.8-4.9l1.3,0.2l-1.2,6.7l-1.7-0.3L1114.7,776.1z"/>
		<path class="st2" d="M1120.2,778.6c0-1.8,1.5-3.3,3.3-3.3c1.8,0,3.3,1.5,3.3,3.3c0,1.8-1.4,3.2-3.1,3.3c-1.8,0.2-3.3-1.1-3.5-2.9
			C1120.2,778.9,1120.2,778.7,1120.2,778.6z M1123.7,780.7c1.2-0.1,1.9-1,1.8-2.5c-0.1-1.5-0.9-2.3-2.1-2.2l-0.1,0
			c-1.2,0.1-1.9,1-1.8,2.5C1121.6,779.9,1122.4,780.8,1123.7,780.7L1123.7,780.7z"/>
		<path class="st2" d="M1129,775.9l1.5,4.8l-1.3,0.4l-2-6.5l1.6-0.5l4,4l-1.4-4.8l1.3-0.4l2,6.5l-1.6,0.5L1129,775.9z"/>
	</g>
	<circle class="st10" cx="1122.6" cy="740.7" r="19.5"/>
	<circle class="st1" cx="1435.4" cy="431.9" r="25.5"/>
	<g>
		<path class="st2" d="M1437.5,468.6l-0.6-4.4l1.3-0.2l0.6,4.2c0.1,1.1,0.6,1.4,1.5,1.3l0.1,0c0.9-0.1,1.2-0.6,1.1-1.7l-0.6-4.2
			l1.3-0.2l0.6,4.4c0.2,1.5-0.5,2.6-2.3,2.8C1438.6,471,1437.7,470.2,1437.5,468.6z"/>
		<path class="st2" d="M1448.6,466.9l-2.7,0.9l-0.1,1.7l-1.3,0.4l0.4-7.3l1.5-0.5l4.7,5.6l-1.3,0.4L1448.6,466.9z M1446,463.8
			l-0.1,2.8l1.9-0.6L1446,463.8z"/>
		<path class="st2" d="M1449.1,461.1l4.5-2.5l0.6,1l-3.4,1.9l0.8,1.4l2.8-1.6l0.6,1l-2.8,1.6l0.9,1.5l3.4-1.9l0.6,1l-4.6,2.6
			L1449.1,461.1z"/>
	</g>
	<circle class="st10" cx="1435.4" cy="431.9" r="19.5"/>
	<circle class="st1" cx="1224.1" cy="269" r="71.5"/>
	<g>
		<path class="st2" d="M1211.6,189.5l-0.6-4.4l1.3-0.2l0.5,4.2c0.1,1.1,0.6,1.4,1.5,1.3l0.1,0c0.9-0.1,1.3-0.6,1.1-1.7l-0.5-4.2
			l1.3-0.2l0.6,4.4c0.2,1.6-0.5,2.6-2.4,2.8S1211.7,191.1,1211.6,189.5z"/>
		<path class="st2" d="M1220.7,188l-0.9,1l0.1,2.1l-1.3,0.1l-0.3-6.8l1.3-0.1l0.1,3.1l2.8-3.2l1.6-0.1l-2.6,2.9l2.9,3.9l-1.6,0.1
			L1220.7,188z"/>
		<path class="st2" d="M1225.5,184.1l3.2,0.1c1.1,0,2,0.8,2,1.9c0,0,0,0,0,0.1c0,0.8-0.5,1.5-1.2,1.7c0.7,0,1,0.4,1,1l-0.1,2.3
			l-1.3-0.1l0.1-1.9c0-0.5-0.1-0.6-0.6-0.7l-1.9-0.1l-0.1,2.6l-1.3-0.1L1225.5,184.1z M1228.1,187.3c0.8,0,1.2-0.3,1.2-0.9
			c0-0.6-0.3-1-1.1-1l-1.5-0.1l-0.1,1.9L1228.1,187.3z"/>
		<path class="st2" d="M1235.9,190.2l-2.8-0.4l-0.8,1.5l-1.4-0.2l3.6-6.4l1.5,0.2l1.7,7.1l-1.4-0.2L1235.9,190.2z M1235,186.3
			l-1.3,2.4l2,0.3L1235,186.3z"/>
		<path class="st2" d="M1239.8,185.6l1.3,0.3l-1.3,6.7l-1.3-0.3L1239.8,185.6z"/>
		<path class="st2" d="M1243.8,188.3l-1.3,4.9l-1.3-0.3l1.8-6.6l1.7,0.4l1.3,5.5l1.3-4.8l1.3,0.3l-1.8,6.6l-1.7-0.4L1243.8,188.3z"
			/>
		<path class="st2" d="M1250.4,188.4l4.9,1.8l-0.4,1.1l-3.6-1.3l-0.5,1.5l3.1,1.1l-0.4,1.1l-3.1-1.1l-0.6,1.6l3.7,1.4l-0.4,1.1
			l-4.9-1.8L1250.4,188.4z"/>
	</g>
	<circle class="st9" cx="1186.2" cy="263.3" r="19.5"/>
	<circle class="st4" cx="1236.3" cy="263.3" r="27.5"/>
	<circle class="st7" cx="1203.8" cy="301.5" r="19.5"/>
	<circle class="st8" cx="1203.8" cy="225.1" r="19.5"/>
	<circle class="st10" cx="1244.4" cy="312.8" r="19.5"/>
	<circle class="st1" cx="1769.9" cy="601.3" r="33.9"/>
	<g>
		<path class="st2" d="M1735.9,568.9l2.1-2.2c0.8-0.9,2.2-0.9,3-0.1c0.9,0.8,0.9,2.2,0.1,3c0,0,0,0-0.1,0.1l-1.2,1.3l1.8,1.7l-0.9,1
			L1735.9,568.9z M1740.2,569c0.4-0.4,0.4-1,0-1.4c-0.4-0.4-1-0.4-1.4,0c0,0,0,0-0.1,0.1l-1.1,1.2l1.4,1.4L1740.2,569z"/>
		<path class="st2" d="M1741.1,563.8l1.1-0.8l1.7,2.3l2.4-1.8l-1.7-2.3l1.1-0.8l4.1,5.5l-1.1,0.8l-1.7-2.3l-2.4,1.8l1.7,2.3
			l-1.1,0.8L1741.1,563.8z"/>
		<path class="st2" d="M1747.6,559.3l1.1-0.6l3.3,6l-1.1,0.6L1747.6,559.3z"/>
		<path class="st2" d="M1750.7,557.7l1.2-0.5l2.2,5.2l3.6-1.5l0.5,1.1l-4.8,2L1750.7,557.7z"/>
		<path class="st2" d="M1757,555.3l1.3-0.4l1.9,6.6l-1.3,0.4L1757,555.3z"/>
		<path class="st2" d="M1760.4,554.3l3-0.5c1.2-0.2,2.3,0.6,2.5,1.7c0.2,1.2-0.6,2.3-1.7,2.5c0,0-0.1,0-0.1,0l-1.7,0.3l0.4,2.5
			l-1.3,0.2L1760.4,554.3z M1763.8,556.9c0.5-0.1,0.9-0.5,0.9-1.1c-0.1-0.5-0.5-0.9-1.1-0.9c0,0-0.1,0-0.1,0l-1.6,0.3l0.3,1.9
			L1763.8,556.9z"/>
		<path class="st2" d="M1767.6,553.3l3.1,0c1.2,0,2.2,1,2.2,2.1c0,1.2-1,2.2-2.1,2.2c0,0-0.1,0-0.1,0l-1.8,0l0,2.5l-1.3,0
			L1767.6,553.3z M1770.5,556.5c0.5,0,1-0.4,1-0.9s-0.4-1-0.9-1c0,0-0.1,0-0.1,0l-1.6,0l0,2L1770.5,556.5z"/>
		<path class="st2" d="M1774.5,553.6l1.3,0.2l-0.8,6.8l-1.3-0.2L1774.5,553.6z"/>
		<path class="st2" d="M1778.9,556.1l-1.2,4.9l-1.3-0.3l1.7-6.6l1.7,0.4l1.4,5.5l1.2-4.9l1.3,0.3l-1.7,6.6l-1.7-0.4L1778.9,556.1z"
			/>
		<path class="st2" d="M1786,556.3l4.7,2.1l-0.5,1.1l-3.5-1.6l-0.6,1.4l3,1.3l-0.5,1.1l-3-1.3l-0.7,1.6l3.6,1.6l-0.5,1.1l-4.8-2.2
			L1786,556.3z"/>
		<path class="st2" d="M1793.9,561.7L1793.9,561.7c-0.7-0.5-1.3-0.4-1.5,0c-0.2,0.4-0.2,0.7,0.3,1.1l0.7,0.7
			c0.9,0.6,1.1,1.8,0.5,2.7c-0.6,1-1.9,1.2-3.3,0.3c-1.6-1-1.7-2.3-1-3.5l1.1,0.7c-0.4,0.7-0.1,1.5,0.5,1.8c0,0,0.1,0,0.1,0l0.1,0.1
			c0.6,0.4,1.1,0.3,1.4-0.1c0.2-0.3,0.2-0.6-0.2-1.1l-0.9-0.9c-0.8-0.6-1-1.8-0.4-2.6c0.6-0.9,1.9-1.2,3.3-0.3
			c1.4,0.9,1.6,2.2,0.9,3.3l-1.1-0.7C1794.7,562.8,1794.6,562.1,1793.9,561.7C1794,561.7,1794,561.7,1793.9,561.7z"/>
	</g>
	<circle class="st4" cx="1769.9" cy="601.3" r="27.5"/>
	<circle class="st1" cx="1413.3" cy="320.6" r="59.3"/>
	<g>
		<path class="st2" d="M1377.3,259.6l1.1-0.7l3.4,5.9l-1.1,0.7L1377.3,259.6z"/>
		<path class="st2" d="M1380.1,257.9l2.9-1.4c0.9-0.5,2.1-0.2,2.7,0.7c0,0,0,0,0,0.1c0.4,0.7,0.3,1.5-0.3,2.1
			c0.7-0.3,1.1-0.1,1.4,0.4l1,2.1l-1.2,0.6l-0.9-1.8c-0.2-0.4-0.4-0.5-0.8-0.3l-1.7,0.8l1.1,2.3l-1.2,0.6L1380.1,257.9z M1384,259.5
			c0.7-0.3,0.9-0.8,0.6-1.4c-0.3-0.6-0.8-0.7-1.5-0.3l-1.3,0.6l0.8,1.7L1384,259.5z"/>
		<path class="st2" d="M1392.3,258.4l-2.7,1l0,1.7l-1.3,0.5l0.2-7.3l1.4-0.5l4.8,5.5l-1.3,0.5L1392.3,258.4z M1389.6,255.3l0,2.8
			l1.9-0.7L1389.6,255.3z"/>
		<path class="st2" d="M1395.5,253.8l1.2,4.9l-1.3,0.3l-1.6-6.6l1.7-0.4l3.8,4.2l-1.2-4.9l1.3-0.3l1.6,6.6l-1.7,0.4L1395.5,253.8z"
			/>
	</g>
	<circle class="st10" cx="1391.9" cy="320.6" r="19.5"/>
	<circle class="st18" cx="1434" cy="320.6" r="19.5"/>
	<circle class="st4" cx="1413" cy="357" r="19.5"/>
	<circle class="st5" cx="1413" cy="284.1" r="19.5"/>
	<circle class="st1" cx="568.1" cy="823.8" r="24.9"/>
	<g>
		<path class="st2" d="M556.8,859.7c-0.7,1.2-2,1.7-3.6,0.9c-1.9-0.9-2.4-2.7-1.5-4.6c0.9-1.9,2.5-2.7,4.4-1.8
			c1.4,0.4,2.1,1.9,1.6,3.2c0,0,0,0.1,0,0.1l-1.2-0.6c0.2-0.7-0.2-1.4-0.9-1.7l-0.1,0c-1-0.5-2.1,0-2.7,1.3
			c-0.6,1.3-0.3,2.5,0.7,2.9l0.1,0c0.6,0.4,1.5,0.2,1.9-0.4L556.8,859.7z"/>
		<path class="st2" d="M559.2,855.7l1.3,0.3l-0.6,2.8l2.9,0.6l0.6-2.8l1.3,0.3l-1.3,6.7l-1.3-0.3l0.6-2.8l-2.9-0.6l-0.6,2.8
			l-1.3-0.3L559.2,855.7z"/>
		<path class="st2" d="M565.9,856.7l1.3,0l-0.2,6.8l-1.3,0L565.9,856.7z"/>
		<path class="st2" d="M568.4,856.8l1.3-0.2l0.7,5.6l3.8-0.5l0.1,1.2l-5.1,0.6L568.4,856.8z"/>
		<path class="st2" d="M573.9,856l4.9-1.7l0.4,1.1l-3.6,1.3l0.5,1.5l3.1-1.1l0.4,1.1l-3.1,1.1l0.6,1.7l3.7-1.3l0.4,1.1l-5,1.7
			L573.9,856z"/>
	</g>
	<circle class="st6" cx="568.1" cy="823.8" r="19.5"/>
	<circle class="st1" cx="878.4" cy="754.4" r="48.5"/>
	<g>
		<path class="st2" d="M894.9,702.5l2.1-6.5l2.9,0.9c1,0.2,1.7,1.1,1.5,2.2c0,0.1,0,0.1,0,0.2c-0.9,0-1.7,0.8-1.7,1.7
			c0,0.6,0.3,1.1,0.8,1.4c-0.4,1-1.5,1.5-2.5,1.1c0,0-0.1,0-0.1,0L894.9,702.5z M898.1,702.3c0.6,0.2,1.1,0,1.2-0.5
			c0.2-0.6-0.1-0.9-0.7-1.1l-1.5-0.5l-0.5,1.6L898.1,702.3z M898.8,699.5c0.6,0.2,1,0,1.2-0.5c0.2-0.5-0.1-0.9-0.7-1.1l-1.4-0.5
			l-0.5,1.6L898.8,699.5z"/>
		<path class="st2" d="M903.8,698.3l2.9,1.3c1,0.4,1.5,1.5,1.1,2.5c0,0,0,0,0,0.1c-0.3,0.7-1,1.2-1.8,1.1c0.7,0.3,0.8,0.8,0.6,1.3
			l-1,2.1l-1.2-0.6l0.8-1.8c0.2-0.4,0.1-0.6-0.3-0.8l-1.7-0.8l-1.1,2.3l-1.2-0.6L903.8,698.3z M905,702.3c0.7,0.3,1.2,0.2,1.5-0.4
			c0.3-0.6,0-1-0.7-1.3l-1.3-0.6l-0.8,1.7L905,702.3z"/>
		<path class="st2" d="M911.1,708.1l-2.4-1.5l-1.4,1l-1.2-0.7l5.9-4.3l1.3,0.8l-1.4,7.2l-1.2-0.7L911.1,708.1z M911.9,704.2
			l-2.2,1.7l1.7,1.1L911.9,704.2z"/>
		<path class="st2" d="M912.1,710.7l0.7-0.9l5.8-1.1l-2.8-2.3l0.7-0.9l4,3.3l-0.7,0.9l-5.8,1.1l3,2.5l-0.7,0.9L912.1,710.7z"/>
		<path class="st2" d="M921.8,710.1l0.9,0.9l-4.8,4.9l-0.9-0.9L921.8,710.1z"/>
		<path class="st2" d="M924.2,712.4l0.9,1l-4.3,3.7l2.5,2.9l-0.9,0.8l-3.4-3.9L924.2,712.4z"/>
	</g>
	<circle class="st4" cx="878.4" cy="754.4" r="40.6"/>
	<circle class="st1" cx="421.2" cy="137.8" r="74.5"/>
	<g>
		<path class="st2" d="M370.1,68.5l-2.2-3.8L369,64l2.2,3.7c0.5,0.9,1.1,1.1,1.9,0.6l0.1,0c0.8-0.4,0.9-1,0.4-2l-2.2-3.7l1.1-0.7
			l2.2,3.8c0.8,1.3,0.5,2.6-1.1,3.5C372.1,70.2,370.9,69.8,370.1,68.5z"/>
		<path class="st2" d="M376.2,62.1l2.2,4.5l-1.2,0.6l-3-6.1l1.5-0.8l4.6,3.3l-2.2-4.5l1.2-0.6l3,6.1l-1.5,0.8L376.2,62.1z"/>
		<path class="st2" d="M381.1,57.8l1.2-0.5l2.7,6.3l-1.2,0.5L381.1,57.8z"/>
		<path class="st2" d="M386,57l-2.2,0.8l-0.4-1.1l5.7-2.1l0.4,1.1l-2.2,0.8l2,5.3l-1.2,0.5L386,57z"/>
		<path class="st2" d="M390.3,54.2l5-1.5l0.3,1.1l-3.7,1.1l0.4,1.5l3.1-0.9l0.3,1.1l-3.1,0.9l0.5,1.7l3.8-1.1l0.3,1.1l-5.1,1.5
			L390.3,54.2z"/>
		<path class="st2" d="M396.9,52.4l2.3-0.5c1.7-0.5,3.5,0.4,4,2c0.1,0.2,0.1,0.4,0.1,0.6c0.5,1.6-0.4,3.4-2,3.9
			c-0.2,0.1-0.4,0.1-0.6,0.1l-2.3,0.5L396.9,52.4z M400.3,57.4c1.1-0.1,1.9-1,1.8-2.1c0-0.2-0.1-0.4-0.1-0.6c-0.1-1.1-1-1.9-2.1-1.8
			c-0.2,0-0.4,0.1-0.6,0.1l-0.9,0.2l1,4.4L400.3,57.4z"/>
		<path class="st2" d="M409,51.2L409,51.2c-0.8,0.1-1.2,0.5-1.2,1c0.1,0.4,0.3,0.6,0.9,0.7l1,0.1c1.2,0.1,2,0.6,2.1,1.7
			c0.1,1.2-0.7,2.2-2.3,2.4c-1.9,0.2-2.8-0.6-3.1-2l1.3-0.2c0.1,0.7,0.7,1.1,1.7,1l0.1,0c0.7-0.1,1.1-0.5,1-1c0-0.4-0.2-0.6-0.9-0.6
			l-1.2-0.1c-1,0.1-1.9-0.7-2-1.7c-0.1-1,0.6-2.1,2.3-2.4c1.6-0.2,2.7,0.6,2.8,1.9l-1.3,0.2C410.3,51.5,409.7,51.1,409,51.2
			C409.1,51.2,409.1,51.2,409,51.2z"/>
		<path class="st2" d="M414.6,50.7l-2.4,0.2l-0.1-1.2l6-0.4l0.1,1.2l-2.4,0.2l0.4,5.6l-1.3,0.1L414.6,50.7z"/>
		<path class="st2" d="M422.8,54.5l-2.9,0l-0.6,1.6l-1.4,0l2.7-6.8l1.5,0l2.7,6.8l-1.4,0L422.8,54.5z M421.4,50.8l-1,2.6l2,0
			L421.4,50.8z"/>
		<path class="st2" d="M426.9,50.6l-2.4-0.1l0.1-1.2l6,0.3l-0.1,1.2l-2.4-0.1l-0.3,5.7l-1.3-0.1L426.9,50.6z"/>
		<path class="st2" d="M431.9,49.8l5.1,0.6l-0.1,1.2l-3.8-0.5l-0.2,1.6l3.2,0.4l-0.1,1.2l-3.2-0.4l-0.2,1.7l3.9,0.5l-0.1,1.2
			l-5.2-0.6L431.9,49.8z"/>
		<path class="st2" d="M440.8,52.2L440.8,52.2c-0.8-0.2-1.3,0.1-1.4,0.6c-0.1,0.4,0.1,0.7,0.7,0.9l1,0.4c1.1,0.4,1.7,1.2,1.5,2.3
			c-0.2,1.1-1.3,1.9-3,1.6c-1.8-0.3-2.5-1.5-2.3-2.9l1.3,0.2c-0.1,0.7,0.3,1.3,1.3,1.5l0.1,0c0.7,0.1,1.2-0.2,1.2-0.6
			c0.1-0.4,0-0.6-0.6-0.9l-1.2-0.5c-1-0.3-1.6-1.3-1.4-2.3c0.2-1,1.3-1.8,2.9-1.5c1.6,0.3,2.4,1.4,2.1,2.7l-1.3-0.2
			C441.9,52.8,441.5,52.3,440.8,52.2C440.9,52.2,440.8,52.2,440.8,52.2z"/>
	</g>
	<circle class="st7" cx="411" cy="139.6" r="26.5"/>
	<circle class="st17" cx="406" cy="93.2" r="18.7"/>
	<circle class="st6" cx="423.3" cy="189.2" r="18.7"/>
	<circle class="st18" cx="372.6" cy="113.1" r="18.7"/>
	<circle class="st10" cx="450.5" cy="115.2" r="18.7"/>
	<circle class="st4" cx="385.2" cy="178.6" r="18.7"/>
	<circle class="st9" cx="461.3" cy="161.3" r="26.5"/>
	<circle class="st1" cx="629.6" cy="507.9" r="61"/>
	<g>
		<path class="st2" d="M560.2,541.8c-1.3,0.4-2.6-0.1-3.3-1.7c-0.8-1.9,0-3.6,2-4.4c1.9-0.8,3.7-0.3,4.5,1.7c0.7,1.2,0.3,2.8-1,3.5
			c0,0-0.1,0-0.1,0l-0.5-1.2c0.6-0.4,0.8-1.2,0.5-1.8l0-0.1c-0.4-1-1.5-1.4-2.9-0.9c-1.4,0.6-1.9,1.6-1.4,2.7l0,0.1
			c0.2,0.7,0.9,1.1,1.7,0.9L560.2,541.8z"/>
		<path class="st2" d="M561.7,542.1c1.7-0.8,3.6-0.1,4.4,1.6c0.8,1.7,0.1,3.6-1.6,4.4c-1.6,0.8-3.5,0.1-4.3-1.4
			c-0.9-1.5-0.4-3.5,1.1-4.4C561.4,542.3,561.5,542.2,561.7,542.1z M561.2,546.2c0.6,1.1,1.7,1.3,3,0.6c1.3-0.7,1.7-1.8,1.1-2.8
			l0-0.1c-0.6-1.1-1.7-1.3-3-0.6C561,544,560.6,545.1,561.2,546.2L561.2,546.2z"/>
		<path class="st2" d="M568.8,549.7L568.8,549.7c-0.5-0.7-1-0.8-1.4-0.6c-0.4,0.3-0.4,0.6-0.2,1.1l0.4,1c0.6,0.9,0.3,2.1-0.6,2.7
			c-1,0.7-2.3,0.4-3.2-1c-1.1-1.6-0.7-2.8,0.4-3.6l0.7,1.1c-0.6,0.5-0.7,1.3-0.2,1.9c0,0,0,0.1,0.1,0.1l0.1,0.1
			c0.4,0.6,0.9,0.7,1.3,0.5c0.3-0.2,0.4-0.5,0.2-1.1l-0.5-1.2c-0.5-0.9-0.2-2,0.6-2.6c0.8-0.6,2.2-0.4,3.1,1
			c0.9,1.4,0.7,2.7-0.4,3.4l-0.7-1.1C569.2,551,569.3,550.3,568.8,549.7C568.9,549.8,568.9,549.7,568.8,549.7z"/>
		<path class="st2" d="M571.9,554l-1.5-1.8l0.9-0.7l3.8,4.7l-0.9,0.7l-1.5-1.8l-4.4,3.6l-0.8-1L571.9,554z"/>
		<path class="st2" d="M574.1,562.6l-2-2.1l-1.6,0.7l-1-1l6.8-2.8l1.1,1.1l-3.1,6.6l-1-1L574.1,562.6z M575.8,559l-2.5,1.1l1.4,1.4
			L575.8,559z"/>
		<path class="st2" d="M581.2,562.1l2.5,2c0.9,0.6,1.1,1.8,0.5,2.7c0,0,0,0,0,0.1c-0.4,0.6-1.3,0.9-2,0.6c0.4,0.2,0.6,0.8,0.4,1.2
			c0,0.1-0.1,0.1-0.1,0.2l-1.4,1.8l-1-0.8l1.2-1.5c0.3-0.4,0.3-0.6-0.1-0.9l-1.5-1.2l-1.6,2l-1-0.8L581.2,562.1z M581.4,566.2
			c0.6,0.5,1.1,0.5,1.5,0c0.4-0.5,0.3-1-0.3-1.5l-1.1-0.9l-1.2,1.5L581.4,566.2z"/>
		<path class="st2" d="M586.3,566.1l1.1,0.8l-3.9,5.6l-1.1-0.8L586.3,566.1z"/>
		<path class="st2" d="M591.1,574.5c-0.8,1.1-2.1,1.5-3.7,0.5c-1.8-1.1-2.1-2.9-1-4.7c1.1-1.8,2.8-2.4,4.6-1.3
			c1.3,0.6,1.9,2.1,1.3,3.4c0,0,0,0.1,0,0.1l-1.1-0.7c0.3-0.7,0-1.5-0.7-1.8l-0.1,0c-1-0.6-2.1-0.2-2.8,1c-0.8,1.3-0.5,2.4,0.4,3
			l0.1,0c0.6,0.4,1.4,0.3,1.9-0.2L591.1,574.5z"/>
		<path class="st2" d="M595.6,577.4l-2.6-1.2l-1.2,1.2l-1.3-0.6l5.4-5l1.4,0.7l-0.5,7.3l-1.3-0.6L595.6,577.4z M595.9,573.4l-2,1.9
			l1.8,0.8L595.9,573.4z"/>
	</g>
	<circle class="st4" cx="629.5" cy="507.9" r="18.4"/>
	<circle class="st9" cx="669.3" cy="507.9" r="18.4"/>
	<circle class="st16" cx="649.4" cy="542.3" r="18.4"/>
	<circle class="st5" cx="649.4" cy="473.5" r="18.4"/>
	<circle class="st8" cx="609.6" cy="473.5" r="18.4"/>
	<circle class="st1" cx="819.3" cy="498" r="81.4"/>
	<g>
		<path class="st2" d="M837.2,400.8l2.3,0.6c1.7,0.3,2.9,1.9,2.6,3.7c0,0.2-0.1,0.4-0.1,0.6c-0.3,1.7-1.9,2.8-3.6,2.5
			c-0.2,0-0.4-0.1-0.6-0.2l-2.3-0.6L837.2,400.8z M837.8,406.8c1.2,0.3,2.4-0.4,2.8-1.6s-0.4-2.4-1.6-2.8l0,0l-0.9-0.2l-1.2,4.3
			L837.8,406.8z"/>
		<path class="st2" d="M842.8,405.9c0.7-1.7,2.6-2.5,4.3-1.8c1.7,0.7,2.5,2.6,1.8,4.3c-0.7,1.6-2.5,2.5-4.2,1.9
			c-1.7-0.5-2.7-2.3-2.2-4C842.7,406.1,842.7,406,842.8,405.9z M845.2,409.2c1.2,0.4,2.1-0.2,2.6-1.6s0.1-2.5-1.1-2.8l-0.1,0
			c-1.2-0.4-2.1,0.2-2.6,1.6C843.5,407.7,843.9,408.7,845.2,409.2L845.2,409.2z"/>
		<path class="st2" d="M852.3,407.2l-2.1,5l-1.2-0.5l2.7-6.3l1.9,0.8l-0.5,5.6l3.6-4.3l1.9,0.8l-2.7,6.3l-1.2-0.5l2.1-5l-3.7,4.3
			l-1.3-0.6L852.3,407.2z"/>
		<path class="st2" d="M860.2,409.2l1.2,0.6l-3,6.1l-1.2-0.6L860.2,409.2z"/>
		<path class="st2" d="M863.3,412.8l-2.5,4.4l-1.1-0.6l3.3-6l1.5,0.8l-0.1,5.7l2.4-4.4l1.1,0.6l-3.3,6l-1.5-0.8L863.3,412.8z"/>
		<path class="st2" d="M869.6,414.3l1.1,0.7l-3.6,5.8l-1.1-0.7L869.6,414.3z"/>
		<path class="st2" d="M874.4,423.1c-0.8,1-2.2,1.3-3.7,0.3c-1.7-1.2-1.9-3-0.7-4.8s3-2.2,4.7-1c1.3,0.7,1.7,2.2,1.1,3.5
			c0,0,0,0.1,0,0.1l-1.1-0.8c0.3-0.7,0.1-1.5-0.6-1.8l-0.1-0.1c-0.9-0.6-2.1-0.4-2.9,0.8c-0.8,1.2-0.7,2.4,0.2,3l0.1,0.1
			c0.6,0.5,1.4,0.4,1.9-0.1L874.4,423.1z"/>
		<path class="st2" d="M878.1,426.8l-2.2-1.8l-1.5,0.9l-1.1-0.9l6.4-3.6l1.2,1l-2.2,7l-1.1-0.9L878.1,426.8z M879.3,423l-2.4,1.4
			l1.5,1.2L879.3,423z"/>
		<path class="st2" d="M883.6,427.1l-3.4,3.7l-1-0.9l4.7-5l1.2,1.2l-1.5,5.5l3.4-3.6l1,0.9l-4.7,5l-1.2-1.2L883.6,427.1z"/>
		<path class="st2" d="M891.1,432l2.1,2.4c0.8,0.8,0.8,2,0,2.8c0,0,0,0,0,0c-0.5,0.6-1.4,0.7-2.1,0.3c0.4,0.3,0.5,0.9,0.2,1.3
			c-0.1,0.1-0.1,0.1-0.2,0.2l-1.7,1.5l-0.9-1l1.5-1.3c0.4-0.3,0.4-0.5,0.1-0.9l-1.3-1.4l-1.9,1.7l-0.9-1L891.1,432z M890.6,436.1
			c0.5,0.6,1,0.7,1.5,0.2s0.4-0.9-0.1-1.5l-1-1.1l-1.4,1.3L890.6,436.1z"/>
		<path class="st2" d="M895.6,437.3l3.1,4.1l-0.9,0.7l-2.3-3.1l-1.3,0.9l2,2.6l-0.9,0.7l-2-2.6l-1.4,1.1l2.4,3.2l-0.9,0.7l-3.2-4.2
			L895.6,437.3z"/>
		<path class="st2" d="M899.7,442.7l1.7,2.6c0.7,1,0.4,2.3-0.6,3c-1,0.7-2.3,0.4-3-0.6c0,0,0,0,0-0.1l-1-1.5l-2.1,1.4l-0.7-1.1
			L899.7,442.7z M898.7,446.9c0.3,0.5,0.9,0.6,1.3,0.3c0.5-0.3,0.6-0.9,0.3-1.3c0,0,0,0,0-0.1l-0.9-1.3l-1.6,1.1L898.7,446.9z"/>
		<path class="st2" d="M899.4,450.5l3.9-2.2l0.6,1.1l-3.7,2.1c-0.9,0.5-1.1,1.1-0.7,1.9l0,0.1c0.4,0.8,1,0.9,2,0.4l3.7-2.1l0.6,1.1
			l-3.9,2.2c-1.4,0.8-2.6,0.5-3.5-1.1C897.6,452.5,898,451.3,899.4,450.5z"/>
		<path class="st2" d="M900.6,457.7l6.2-2.9l1.3,2.7c0.6,0.9,0.3,2-0.6,2.6c0,0-0.1,0.1-0.1,0.1c-0.6-0.7-1.7-0.7-2.4,0
			c-0.4,0.4-0.6,1-0.5,1.6c-1,0.4-2.1-0.1-2.5-1.1c0,0,0-0.1,0-0.1L900.6,457.7z M902.9,459.8c0.3,0.6,0.7,0.8,1.2,0.6
			c0.5-0.2,0.6-0.7,0.3-1.3l-0.7-1.5l-1.6,0.7L902.9,459.8z M905.4,458.5c0.3,0.6,0.7,0.8,1.2,0.5c0.5-0.2,0.6-0.7,0.3-1.2l-0.6-1.4
			l-1.5,0.7L905.4,458.5z"/>
		<path class="st2" d="M909.6,461l0.5,1.2l-5.3,2.1l1.4,3.6l-1.1,0.4l-1.9-4.8L909.6,461z"/>
		<path class="st2" d="M911.9,466.9l0.4,1.2l-6.5,2.2l-0.4-1.2L911.9,466.9z"/>
		<path class="st2" d="M910.2,476.7c-1.3,0.3-2.5-0.4-3.1-2.1c-0.6-2,0.4-3.5,2.4-4.1c2-0.6,3.7,0.1,4.3,2.1c0.6,1.3,0,2.8-1.3,3.4
			c0,0-0.1,0-0.1,0l-0.4-1.3c0.7-0.3,1-1.1,0.7-1.8l0-0.1c-0.3-1.1-1.4-1.6-2.8-1.2c-1.4,0.4-2,1.4-1.7,2.5l0,0.1
			c0.1,0.7,0.8,1.2,1.5,1.1L910.2,476.7z"/>
	</g>
	<circle class="st9" cx="775" cy="467.9" r="26.1"/>
	<circle class="st7" cx="870.5" cy="513.4" r="26.1"/>
	<circle class="st18" cx="845.5" cy="552.9" r="18.4"/>
	<circle class="st8" cx="837.8" cy="458.7" r="36.9"/>
	<circle class="st6" cx="803.9" cy="519.3" r="31.9"/>
</g>
<g>
	<circle class="st1" cx="607" cy="284.1" r="145.7"/>
	<g>
		<path class="st2" d="M712.9,160l-3.7,4l-0.9-0.9l4.6-5l1.5,1.4l-2.4,5.1l4.9-2.8l1.5,1.4l-4.6,5l-0.9-0.9l3.7-4l-4.9,2.8l-1.1-1
			L712.9,160z"/>
		<path class="st2" d="M719.8,164.4l3.6,3.7l-0.8,0.8l-2.7-2.7l-1.1,1.1l2.3,2.3l-0.8,0.8l-2.3-2.3l-1.2,1.2l2.8,2.8l-0.8,0.8
			l-3.7-3.7L719.8,164.4z"/>
		<path class="st2" d="M722.7,173.9l-2.9,0.4l-1-1.1l4.2-0.6l1-3.9l1.1,1.1l-0.6,2.6l2.6-0.4l1,1.1l-3.9,0.6l-1,4.1l-1.1-1.1
			L722.7,173.9z"/>
		<path class="st2" d="M728.7,173.9l0.9,1l-5.1,4.5l-0.9-1L728.7,173.9z"/>
		<path class="st2" d="M730.9,183.6c-1.1,0.8-2.5,0.7-3.6-0.7c-1.3-1.6-1-3.4,0.6-4.8c1.6-1.3,3.5-1.3,4.8,0.3c1,1,1.1,2.6,0.1,3.6
			c0,0,0,0-0.1,0.1l-0.8-1c0.5-0.6,0.5-1.4-0.1-1.9l-0.1-0.1c-0.7-0.9-1.9-0.9-3,0c-1.1,0.9-1.3,2.1-0.6,3l0.1,0.1
			c0.4,0.6,1.2,0.8,1.9,0.4L730.9,183.6z"/>
		<path class="st2" d="M732.3,183.5c1.5-1,3.6-0.6,4.6,0.9c1,1.5,0.6,3.6-0.9,4.6c-1.5,1-3.4,0.7-4.5-0.8c-1.1-1.4-0.9-3.4,0.4-4.5
			C732.1,183.7,732.2,183.6,732.3,183.5z M732.5,187.6c0.7,1,1.9,1,3,0.1c1.2-0.9,1.4-2,0.7-3l-0.1-0.1c-0.7-1-1.9-1-3-0.1
			C731.9,185.5,731.7,186.6,732.5,187.6L732.5,187.6z"/>
	</g>
	<circle class="st6" cx="557.2" cy="286.7" r="41.5"/>
	<circle class="st10" cx="636" cy="285.6" r="33"/>
	<circle class="st9" cx="522" cy="354.8" r="33"/>
	<circle class="st5" cx="668.9" cy="218.2" r="38.1"/>
	<circle class="st8" cx="598.9" cy="361.7" r="42.6"/>
	<circle class="st4" cx="582.1" cy="195" r="50.4"/>
	<circle class="st7" cx="684.8" cy="347.9" r="42.6"/>
	<circle class="st17" cx="699.4" cy="278.3" r="27"/>
	
		<ellipse transform="matrix(0.1602 -0.9871 0.9871 0.1602 207.5058 708.3472)" class="st16" cx="520" cy="232.2" rx="19.1" ry="19.1"/>
</g>
<g class="st15">
	<path class="st13" d="M318.5,726.1c0-0.2,0-0.3,0-0.5c0-2.1,0.2-4.1,0.1-6.2c-0.4-7.5-1.6-14.9-1.4-22.4c0.5-12.9-1.5-25.8-5.8-38
		c-0.4-1-0.6-2-0.6-3c1.1-13.5-8-67.9-12.3-76.5c-3.7-7.3-9.1-12.7-17.2-14.5c-4.7-1.1-9.2-3-13.2-5.6c-3.7-2.3-7.4-4.7-11.2-6.7
		c-3.9-1.8-6.7-5.3-7.5-9.5c1.2-1.6,2.8-3.1,3.4-4.8c1.3-3.3,2.4-6.5,3.5-9.9c6-1.3,7.4-11.5,4.4-14.3c-1.5-1.4-2.8-1.2-3.8-0.6
		c0.9-2.7,2.3-12.3,0.2-17.6c-2.9-7.2-11.8-11.5-21-11.7c-9.1-0.2-19.8,3.4-22.8,11.7c-3,8.3-1.4,14-0.5,17.7l0,0
		c-1-0.7-2.4-1.1-4,0.5c-3,2.8-1.5,13.2,4.6,14.4c0.7,2.2,1.5,4.4,2.5,6.5c1.1,2.4,2.4,4.6,3.5,6.9c0.3,0.6,0.9,1.3,0.8,1.8
		c-0.9,3.1-2,6-5.1,7.8c-5.1,2.9-9.9,6.3-15,9.3c-2.3,1.5-4.8,2.6-7.5,3.2c-12.4,2.3-19.2,10.3-22.8,21.6
		c-2.5,7.7-10.9,55.8-9.8,70.2c0,1.1-0.2,2.2-0.6,3.3c-2.9,7.8-4.7,16-5.3,24.3c-0.7,11.3-1.2,22.7-1.7,34c-0.1,2.1-0.3,4.2-0.3,6.2
		c0,0.6,0,1.1,0,1.7h0.1l-0.2,7c0,0,0.2,13.9,1.1,17.8s3.9,9.3,3.9,9.3s3.5,4.5,5.4,5.8c1.9,1.3,4.8,2.8,4,0
		c-0.7-2.7-5.2-6.2-6.1-8.6c1.6,0.6,4.6,1.8,5.3,2c1,0.4,1.1-0.9,1.1-0.9c-0.8-2.5-4.9-5-7.6-6.4c-0.4-2.2-0.3-4.5,0.3-6.7
		c1.2-4.9,2.6-6.9,4.9-6.8c2.3,0.1,2.9,4.7,5.5,6.3s3.3-0.8,3.3-0.8c-2.4-2.6-1.6-8.7-2.4-12.4c-0.5-2.1-1.6-4.1-3.3-5.5
		c0-1.3,0.1-2.5,0.5-3.7c4.1-13.5,8.4-26.9,11.8-40.6c1.7-6.7,1.8-13.9,1.9-20.8c-0.1-2.7,0.2-5.4,1-7.9c2.2-6.3,4.3-12.7,6.4-19.1
		c0.2-0.7,0.5-1.3,0.7-1.9c0.3,0,0.6,0,0.9,0.1c1,13.8,2.3,27.5,3,41.3c0.4,6.8,0.2,13.6-0.5,20.4c-1.7,15.4-4.5,30.8-5.6,46.2
		c-1.5,19.9,1.7,39.6,5.8,58.9c2.7,11.7,4,23.7,3.9,35.7c0,3.5-1,7-1.7,10.6c-0.6,3.3-1.6,6.6-2,10c-1.5,13.2,0.4,26.2,3.8,38.8
		c2.9,10.8,6.7,21.3,10.3,31.9c1.7,5.1,3.5,10.1,3.8,15.4c-1.1,2.9-1.9,5.9-2.2,9c-0.2,3.8-12.1,12.2-13.8,16.8s0.9,5.5,0.9,5.5
		h29.5c3,0,4.7-2.3,4.7-6c0-3.6-3.3-24-3.5-25.7c-1.4-17.5-1.9-35.1,0.6-52.6c1.9-13.3,0.4-26.5-2.5-39.5
		c-1.1-5.2-0.8-10.6,0.9-15.6c1.4-4.2,2.3-8.5,2.7-13c1.9-22.9,3.6-45.9,5.4-68.9c0.2-2.8,0.5-5.7,0.7-8.5c0.4,0.3,0.7,0.8,0.7,1.3
		c1.8,23.4,3.5,46.9,5.4,70.3c0.5,6.2,0.4,12.5,3.1,18.4c2.3,5.2,2.3,10.6,1.1,16.1c-2.8,12.6-4.3,25.4-2.6,38.4
		c0.7,4.3,1.2,8.6,1.4,12.9c0.2,13.5,0.8,27-0.6,40.4l-0.1,0c0,0-3.5,22.1-3.5,25.8s1.6,6,4.7,6h29.5c0,0,2.6-1,0.9-5.5
		c-1.6-4.5-13.5-12.9-13.8-16.8c-0.4-3.1-1.1-6.1-2.2-9l-0.1,0c0.2-5.3,1.9-10.3,3.9-15.3c4.9-12,8.7-24.4,11.5-37.1
		c2.6-12.5,4.3-25.1,1.9-37.8c-0.8-4.5-2.7-9-3-13.5c-0.6-13.1,1.3-25.9,3.8-38.9c4.3-21.9,8.3-44,4.9-66.5
		c-1.4-9.5-2.3-19-3.3-28.5c-0.8-7.8-2.1-15.6-2-23.4c0.1-10.4,1.1-20.8,2-31.2c0.4-5.3,1.3-10.5,2-15.7c3.2,7.8,5.9,15.6,8.5,23.4
		c0.1,0.6,0.1,1.1,0.1,1.7c0.1,5.8-0.4,11.8,0.5,17.5c2.4,16.1,7.6,31.4,12.8,46.8c0.4,1.3,0.6,2.6,0.6,4c-1.7,1.5-3,3.5-3.5,5.7
		c-0.8,3.6,0.1,9.8-2.4,12.4c0,0,0.7,2.4,3.3,0.8s3.2-6.2,5.5-6.3s3.7,2,4.9,6.8c0.5,2.2,0.6,4.5,0.3,6.7c-2.7,1.4-6.8,3.9-7.6,6.4
		c0,0,0,1.3,1.1,0.9c0.8-0.3,3.7-1.4,5.3-2c-0.9,2.4-5.3,5.9-6.1,8.6c-0.8,2.8,2.1,1.3,4,0s5.4-5.8,5.4-5.8s3.1-5.5,3.9-9.3
		c0.9-3.8,1.1-17.8,1.1-17.8L318.5,726.1z"/>
	<circle id="Skin_2" class="st17" cx="273.2" cy="879.2" r="11.8"/>
	<line class="st19" x1="273.2" y1="879.2" x2="345.8" y2="930.8"/>
	<rect x="344.7" y="917.5" class="st20" width="48.6" height="26.5"/>
	<g>
		<path class="st2" d="M357.1,926.9h-0.1c-1.1,0-1.8,0.6-1.8,1.3c0,0.7,0.4,1.1,1.3,1.2l1.5,0.3c1.7,0.3,2.7,1.2,2.7,2.8
			c0,1.7-1.4,2.9-3.7,2.9c-2.5,0-3.9-1.3-3.9-3.4h1.7c0,1.1,0.9,1.9,2.4,1.9h0.1c1.2,0,1.8-0.6,1.8-1.3c0-0.7-0.4-1-1.3-1.2
			l-1.7-0.3c-1.5-0.1-2.6-1.3-2.5-2.8c0-1.5,1.3-2.9,3.6-2.9s3.6,1.3,3.7,3.2H359C359,927.6,358.1,926.9,357.1,926.9
			C357.1,926.9,357.1,926.9,357.1,926.9z"/>
		<path class="st2" d="M365.7,930.9l-1.5,1.5v3h-1.7v-9.8h1.7v4.6l4.5-4.6h2.1l-3.9,4l4,5.8h-2.1L365.7,930.9z"/>
		<path class="st2" d="M372.1,925.6h1.7v9.8h-1.7V925.6z"/>
		<path class="st2" d="M377.9,927.8v7.6h-1.7v-9.8h2.2l4.2,7.6v-7.6h1.7v9.8H382L377.9,927.8z"/>
	</g>
	<circle class="st2" cx="273.2" cy="879.2" r="2.9"/>
	<circle id="Legs_2" class="st18" cx="208.5" cy="846.5" r="11.8"/>
	<line class="st19" x1="208.5" y1="846.5" x2="148.8" y2="897"/>
	<rect x="94.5" y="882.2" class="st21" width="56.5" height="26.5"/>
	<g>
		<path class="st2" d="M105.4,890.4h1.7v8.3h5.6v1.5h-7.3L105.4,890.4z"/>
		<path class="st2" d="M114.1,890.4h7.3v1.5h-5.6v2.5h4.8v1.5h-4.8v2.8h5.8v1.5h-7.5L114.1,890.4z"/>
		<path class="st2" d="M130.1,899.1c-0.7,0.9-1.8,1.4-2.9,1.3c-2.8,0-4.7-2.1-4.7-5s1.9-5.1,4.8-5.1c2.5,0,4,1.5,4.1,3.5h-1.7
			c-0.1-1.2-1.1-2-2.3-2c0,0-0.1,0-0.1,0h-0.1c-1.9,0-3.1,1.4-3.1,3.5c0,2.2,1.2,3.5,3.1,3.5h0.1c1.3,0.1,2.5-0.8,2.7-2.1l0-0.1
			h-2.7v-1.5h3c0.6-0.1,1.1,0.3,1.2,0.9c0,0.1,0,0.2,0,0.3v3.9h-1.5L130.1,899.1z"/>
		<path class="st2" d="M136.9,891.8h-0.1c-1.1,0-1.8,0.6-1.8,1.3c0,0.7,0.4,1.1,1.3,1.2l1.5,0.3c1.7,0.3,2.7,1.2,2.7,2.8
			c0,1.7-1.4,2.9-3.7,2.9c-2.5,0-3.9-1.3-3.9-3.4h1.7c0,1.1,0.9,1.9,2.4,1.9h0.1c1.2,0,1.8-0.6,1.8-1.3c0-0.7-0.4-1-1.3-1.2
			l-1.7-0.3c-1.5-0.1-2.6-1.3-2.5-2.8c0-1.5,1.3-2.9,3.6-2.9s3.6,1.3,3.7,3.2h-1.7C138.9,892.5,138,891.7,136.9,891.8
			C137,891.8,137,891.8,136.9,891.8z"/>
	</g>
	<circle class="st2" cx="208.5" cy="846.5" r="2.9"/>
	<circle id="Fertility_2" class="st16" cx="234.8" cy="748.3" r="11.8"/>
	<line class="st19" x1="234.8" y1="748.3" x2="160.5" y2="805.2"/>
	<rect x="64.3" y="791.1" class="st22" width="97.9" height="26.5"/>
	<g>
		<path class="st2" d="M78.9,799.2h7v1.5h-5.4v2.8h4.7v1.5h-4.7v4h-1.7V799.2z"/>
		<path class="st2" d="M87.5,799.2h7.3v1.5h-5.6v2.5H94v1.5h-4.8v2.8H95v1.5h-7.5V799.2z"/>
		<path class="st2" d="M96.7,799.2h4.4c1.5-0.1,2.9,1,3,2.5c0,0,0,0.1,0,0.1c0.1,1.1-0.6,2.1-1.6,2.5c1.1,0,1.5,0.5,1.5,1.4v3.3
			h-1.7v-2.9c0-0.7-0.2-0.9-0.9-0.9h-3v3.8h-1.7V799.2z M100.7,803.7c1.2,0,1.8-0.6,1.8-1.6c0-1-0.6-1.5-1.8-1.5h-2.3v3L100.7,803.7
			z"/>
		<path class="st2" d="M108.5,800.7h-3.4v-1.5h8.6v1.5h-3.4v8.3h-1.7V800.7z"/>
		<path class="st2" d="M115.1,799.2h1.7v9.8h-1.7V799.2z"/>
		<path class="st2" d="M119.2,799.2h1.7v8.3h5.6v1.5h-7.3L119.2,799.2z"/>
		<path class="st2" d="M127.9,799.2h1.7v9.8h-1.7V799.2z"/>
		<path class="st2" d="M134.5,800.7H131v-1.5h8.6v1.5h-3.4v8.3h-1.7V800.7z"/>
		<path class="st2" d="M143.5,809v-4l-3.6-5.8h1.9l2.5,4.2l2.5-4.2h1.9l-3.6,5.8v4H143.5z"/>
	</g>
	<circle class="st2" cx="234.8" cy="748.3" r="2.9"/>
	<circle id="Butt_Cerchio_Rosso" class="st9" cx="279.8" cy="743.9" r="11.8"/>
	<line class="st19" x1="279.8" y1="743.9" x2="318.1" y2="837.2"/>
	<rect x="317.3" y="823.8" class="st23" width="57.4" height="26.5"/>
	<g>
		<path class="st2" d="M328.8,841.8V832h4.3c1.4-0.2,2.7,0.9,2.9,2.3c0,0.1,0,0.2,0,0.2c0.1,1-0.6,2-1.6,2.3c1.1,0.2,2,1.2,1.8,2.4
			c-0.1,1.5-1.3,2.7-2.8,2.6c-0.1,0-0.1,0-0.2,0H328.8z M332.8,836.1c1,0,1.5-0.5,1.5-1.3c0-0.8-0.5-1.3-1.5-1.3h-2.4v2.6H332.8z
			 M332.9,840.3c1,0,1.6-0.5,1.6-1.4s-0.6-1.4-1.6-1.4h-2.5v2.7H332.9z"/>
		<path class="st2" d="M338,838.3V832h1.7v6.1c0,1.6,0.7,2.3,2,2.3h0.1c1.4,0,2-0.8,2-2.3V832h1.7v6.3c0,2.2-1.2,3.6-3.8,3.6
			C339.2,841.9,338,840.5,338,838.3z"/>
		<path class="st2" d="M350.4,833.5h-3.4V832h8.6v1.5H352v8.3h-1.7V833.5z"/>
		<path class="st2" d="M359.4,833.5H356V832h8.6v1.5h-3.4v8.3h-1.7V833.5z"/>
	</g>
	<circle class="st2" cx="279.8" cy="743.9" r="2.9"/>
	<circle id="Weight_Loss_2" class="st6" cx="235.4" cy="681.7" r="11.8"/>
	<line class="st19" x1="235.7" y1="682.2" x2="201.1" y2="707.8"/>
	<rect x="73.6" y="695.5" class="st24" width="128.2" height="26.5"/>
	<g>
		<path class="st2" d="M96.4,705.8l-1.7,7.6h-2.2l-2.4-9.8h1.7l1.8,8l1.8-8h2.1l1.7,8l1.8-8h1.8l-2.4,9.8h-2.2L96.4,705.8z"/>
		<path class="st2" d="M104.3,703.6h7.3v1.5h-5.6v2.5h4.8v1.5h-4.8v2.8h5.8v1.5h-7.5V703.6z"/>
		<path class="st2" d="M113.5,703.6h1.7v9.8h-1.7L113.5,703.6z"/>
		<path class="st2" d="M124.5,712.3c-0.7,0.9-1.8,1.4-2.9,1.3c-2.8,0-4.7-2.1-4.7-5s1.9-5.1,4.8-5.1c2.5,0,4,1.5,4.1,3.5h-1.7
			c-0.1-1.2-1.1-2-2.3-2c0,0-0.1,0-0.1,0h-0.1c-1.9,0-3.1,1.4-3.1,3.5c0,2.2,1.2,3.5,3.1,3.5h0.1c1.3,0.1,2.5-0.8,2.7-2.1l0-0.1
			h-2.7v-1.5h3c0.6-0.1,1.1,0.3,1.2,0.9c0,0.1,0,0.2,0,0.3v3.9h-1.5V712.3z"/>
		<path class="st2" d="M128,703.6h1.7v4.1h4.6v-4.1h1.7v9.8h-1.7v-4.1h-4.6v4.1H128L128,703.6z"/>
		<path class="st2" d="M140.8,705.1h-3.4v-1.5h8.6v1.5h-3.4v8.3h-1.7L140.8,705.1z"/>
		<path class="st2" d="M150.3,703.6h1.7v8.3h5.6v1.5h-7.3L150.3,703.6z"/>
		<path class="st2" d="M157.9,708.5c0-3.2,2-5,4.7-5c2.7,0,4.7,1.9,4.7,5c0,3.2-2,5-4.7,5C159.9,713.5,157.9,711.6,157.9,708.5z
			 M162.7,712c1.8,0,3-1.3,3-3.5c0-2.2-1.2-3.5-3-3.5h-0.1c-1.8,0-2.9,1.3-2.9,3.5c0,2.2,1.2,3.5,2.9,3.5H162.7z"/>
		<path class="st2" d="M172.6,704.9h-0.1c-1.1,0-1.8,0.6-1.8,1.3c0,0.7,0.4,1.1,1.3,1.2l1.5,0.3c1.7,0.3,2.7,1.2,2.7,2.8
			c0,1.7-1.4,2.9-3.7,2.9c-2.5,0-3.9-1.3-3.9-3.4h1.7c0,1.1,0.9,1.9,2.4,1.9h0.1c1.2,0,1.8-0.6,1.8-1.3c0-0.7-0.4-1-1.3-1.2
			l-1.7-0.3c-1.5-0.1-2.6-1.3-2.5-2.8c0-1.5,1.3-2.9,3.6-2.9s3.6,1.3,3.7,3.2h-1.7C174.5,705.6,173.6,704.9,172.6,704.9
			C172.6,704.9,172.6,704.9,172.6,704.9z"/>
		<path class="st2" d="M181.4,704.9h-0.1c-1.1,0-1.8,0.6-1.8,1.3c0,0.7,0.4,1.1,1.3,1.2l1.5,0.3c1.7,0.3,2.7,1.2,2.7,2.8
			c0,1.7-1.4,2.9-3.7,2.9c-2.5,0-3.9-1.3-3.9-3.4h1.7c0,1.1,0.9,1.9,2.4,1.9h0.1c1.2,0,1.8-0.6,1.8-1.3c0-0.7-0.4-1-1.3-1.2
			l-1.7-0.3c-1.5-0.1-2.6-1.3-2.5-2.8c0-1.5,1.3-2.9,3.6-2.9s3.6,1.3,3.7,3.2h-1.7C183.3,705.6,182.5,704.9,181.4,704.9
			C181.4,704.9,181.4,704.9,181.4,704.9z"/>
	</g>
	<circle class="st2" cx="235.4" cy="681.7" r="2.9"/>
	
		<ellipse id="General_Medicine_2" transform="matrix(7.088894e-02 -0.9975 0.9975 7.088894e-02 -363.5395 832.4979)" class="st10" cx="265.1" cy="611.4" rx="11.8" ry="11.8"/>
	<line class="st19" x1="265.1" y1="611.4" x2="362.5" y2="696.4"/>
	<rect x="357.6" y="671" class="st25" width="96" height="48.4"/>
	<g>
		<path class="st2" d="M380.1,689.5c-0.7,0.9-1.8,1.4-2.9,1.3c-2.8,0-4.7-2.1-4.7-5s1.9-5.1,4.8-5.1c2.5,0,4,1.5,4.1,3.5h-1.7
			c-0.1-1.2-1.1-2-2.3-2c0,0-0.1,0-0.1,0h-0.1c-1.9,0-3.1,1.4-3.1,3.5c0,2.2,1.2,3.5,3.1,3.5h0.1c1.3,0.1,2.5-0.8,2.7-2.1l0-0.1
			h-2.7v-1.5h3c0.6-0.1,1.1,0.3,1.2,0.9c0,0.1,0,0.2,0,0.3v3.9h-1.5V689.5z"/>
		<path class="st2" d="M383.6,680.8h7.3v1.5h-5.6v2.5h4.8v1.5h-4.8v2.8h5.8v1.5h-7.5V680.8z"/>
		<path class="st2" d="M394.5,683v7.6h-1.7v-9.8h2.2l4.2,7.6v-7.6h1.7v9.8h-2.2L394.5,683z"/>
		<path class="st2" d="M403.3,680.8h7.3v1.5h-5.6v2.5h4.8v1.5h-4.8v2.8h5.8v1.5h-7.5V680.8z"/>
		<path class="st2" d="M412.5,680.8h4.4c1.5-0.1,2.9,1,3,2.5c0,0,0,0.1,0,0.1c0.1,1.1-0.6,2.1-1.6,2.5c1.1,0,1.5,0.5,1.5,1.4v3.3
			h-1.7v-2.9c0-0.7-0.2-0.9-0.9-0.9h-3v3.8h-1.7V680.8z M416.5,685.3c1.2,0,1.8-0.6,1.8-1.6c0-1-0.6-1.5-1.8-1.5h-2.3v3L416.5,685.3
			z"/>
		<path class="st2" d="M424.8,680.8h2l3.8,9.8h-1.8l-0.9-2.4h-4.4l-0.9,2.4h-1.8L424.8,680.8z M425.7,682.6l-1.6,4.1h3.2
			L425.7,682.6z"/>
		<path class="st2" d="M431.9,680.8h1.7v8.3h5.6v1.5h-7.3V680.8z"/>
		<path class="st2" d="M377.3,699h-0.1c-1.1,0-1.8,0.6-1.8,1.3c0,0.7,0.4,1.1,1.3,1.2l1.5,0.3c1.7,0.3,2.7,1.2,2.7,2.8
			c0,1.7-1.4,2.9-3.7,2.9c-2.5,0-3.9-1.3-3.9-3.4h1.7c0,1.1,0.9,1.9,2.4,1.9h0.1c1.2,0,1.8-0.6,1.8-1.3c0-0.7-0.4-1-1.3-1.2
			l-1.7-0.3c-1.5-0.1-2.6-1.3-2.5-2.8c0-1.5,1.3-2.9,3.6-2.9s3.6,1.3,3.7,3.2h-1.7C379.2,699.7,378.4,698.9,377.3,699
			C377.4,699,377.3,699,377.3,699z"/>
		<path class="st2" d="M382.7,704v-6.3h1.7v6.1c0,1.6,0.7,2.3,2,2.3h0.1c1.4,0,2-0.8,2-2.3v-6.1h1.7v6.3c0,2.2-1.2,3.6-3.8,3.6
			C383.8,707.6,382.7,706.2,382.7,704z"/>
		<path class="st2" d="M392.6,697.6h4.4c1.5-0.1,2.9,1,3,2.5c0,0,0,0.1,0,0.1c0.1,1.1-0.6,2.1-1.6,2.5c1.1,0,1.5,0.5,1.5,1.4v3.3
			h-1.7v-2.9c0-0.7-0.2-0.9-0.9-0.9h-3v3.8h-1.7V697.6z M396.5,702.1c1.2,0,1.8-0.6,1.8-1.6c0-1-0.6-1.5-1.8-1.5h-2.3v3L396.5,702.1
			z"/>
		<path class="st2" d="M409.1,706.3c-0.7,0.9-1.8,1.4-2.9,1.3c-2.8,0-4.7-2.1-4.7-5s1.9-5.1,4.8-5.1c2.5,0,4,1.5,4.1,3.5h-1.7
			c-0.1-1.2-1.1-2-2.3-2c0,0-0.1,0-0.1,0h-0.1c-1.9,0-3.1,1.4-3.1,3.5c0,2.2,1.2,3.5,3.1,3.5h0.1c1.3,0.1,2.5-0.8,2.7-2.1l0-0.1
			h-2.7v-1.5h3c0.6-0.1,1.1,0.3,1.2,0.9c0,0.1,0,0.2,0,0.3v3.9h-1.5L409.1,706.3z"/>
		<path class="st2" d="M412.5,697.6h7.3v1.5h-5.6v2.5h4.8v1.5h-4.8v2.8h5.8v1.5h-7.5V697.6z"/>
		<path class="st2" d="M421.7,697.6h4.4c1.5-0.1,2.9,1,3,2.5c0,0,0,0.1,0,0.1c0.1,1.1-0.6,2.1-1.6,2.5c1.1,0,1.5,0.5,1.5,1.4v3.3
			h-1.7v-2.9c0-0.7-0.2-0.9-0.9-0.9h-3v3.8h-1.7V697.6z M425.7,702.1c1.2,0,1.8-0.6,1.8-1.6c0-1-0.6-1.5-1.8-1.5h-2.3v3L425.7,702.1
			z"/>
		<path class="st2" d="M433.4,707.4v-4l-3.6-5.8h1.9l2.5,4.2l2.5-4.2h1.9l-3.6,5.8v4H433.4z"/>
	</g>
	<circle id="Breast_2" class="st8" cx="211.6" cy="606.6" r="11.8"/>
	<line class="st19" x1="211.6" y1="606.6" x2="141" y2="597.9"/>
	<rect x="61.3" y="584.2" class="st26" width="79.1" height="26.5"/>
	<g>
		<path class="st2" d="M74.5,601.3v-9.8h4.3c1.4-0.2,2.7,0.9,2.9,2.3c0,0.1,0,0.2,0,0.2c0.1,1-0.6,2-1.6,2.3c1.1,0.2,2,1.2,1.8,2.4
			c-0.1,1.5-1.3,2.7-2.8,2.6c-0.1,0-0.1,0-0.2,0H74.5z M78.6,595.6c1,0,1.5-0.5,1.5-1.3c0-0.8-0.5-1.3-1.5-1.3h-2.4v2.6H78.6z
			 M78.7,599.8c1,0,1.6-0.5,1.6-1.4s-0.6-1.4-1.6-1.4h-2.5v2.7L78.7,599.8z"/>
		<path class="st2" d="M83.8,591.5h4.4c1.5-0.1,2.9,1,3,2.5c0,0,0,0.1,0,0.1c0.1,1.1-0.6,2.1-1.6,2.5c1.1,0,1.5,0.5,1.5,1.4v3.3
			h-1.7v-2.9c0-0.7-0.2-0.9-0.9-0.9h-3v3.8h-1.7V591.5z M87.8,596c1.2,0,1.8-0.6,1.8-1.6c0-1-0.6-1.5-1.8-1.5h-2.3v3L87.8,596z"/>
		<path class="st2" d="M93.4,591.5h7.3v1.5h-5.6v2.5h4.8v1.5h-4.8v2.8h5.8v1.5h-7.5V591.5z"/>
		<path class="st2" d="M105.3,591.5h2l3.8,9.8h-1.8l-0.9-2.4h-4.4l-0.9,2.4h-1.8L105.3,591.5z M106.3,593.2l-1.6,4.1h3.2
			L106.3,593.2z"/>
		<path class="st2" d="M115.7,592.8h-0.1c-1.1,0-1.8,0.6-1.8,1.3c0,0.7,0.4,1.1,1.3,1.2l1.5,0.3c1.7,0.3,2.7,1.2,2.7,2.8
			c0,1.7-1.4,2.9-3.7,2.9c-2.5,0-3.9-1.3-3.9-3.4h1.7c0,1.1,0.9,1.9,2.4,1.9h0.1c1.2,0,1.8-0.6,1.8-1.3c0-0.7-0.4-1-1.3-1.2
			l-1.7-0.3c-1.5-0.1-2.6-1.3-2.5-2.8c0-1.5,1.3-2.9,3.6-2.9s3.6,1.3,3.7,3.2h-1.7C117.6,593.5,116.8,592.8,115.7,592.8
			C115.8,592.8,115.8,592.8,115.7,592.8z"/>
		<path class="st2" d="M123.4,593h-3.4v-1.5h8.6v1.5h-3.4v8.3h-1.7V593z"/>
	</g>
	<circle class="st2" cx="211.6" cy="606.6" r="2.9"/>
	<circle id="Teeth_2" class="st4" cx="234.6" cy="539.7" r="11.8"/>
	<line class="st19" x1="234.6" y1="539.7" x2="345.8" y2="564.5"/>
	<rect x="345.3" y="550.6" class="st27" width="67.1" height="26.5"/>
	<g>
		<path class="st2" d="M359.1,559.4h-3.4v-1.5h8.6v1.5h-3.4v8.3h-1.7L359.1,559.4z"/>
		<path class="st2" d="M365.7,557.9h7.3v1.5h-5.6v2.5h4.8v1.5h-4.8v2.8h5.8v1.5h-7.5V557.9z"/>
		<path class="st2" d="M374.9,557.9h7.3v1.5h-5.6v2.5h4.8v1.5h-4.8v2.8h5.8v1.5h-7.5V557.9z"/>
		<path class="st2" d="M386.6,559.4h-3.4v-1.5h8.6v1.5h-3.4v8.3h-1.7V559.4z"/>
		<path class="st2" d="M393.1,557.9h1.7v4.1h4.6v-4.1h1.7v9.8h-1.7v-4.1h-4.6v4.1h-1.7V557.9z"/>
	</g>
	<circle class="st2" cx="234.6" cy="539.7" r="2.9"/>
	<circle id="Face_2" class="st7" cx="215.3" cy="521.4" r="11.8"/>
	<line class="st19" x1="215.3" y1="521.4" x2="124.3" y2="515.8"/>
	<rect x="64.2" y="502.3" class="st28" width="60.8" height="26.5"/>
	<g>
		<path class="st2" d="M77.6,510.7h7v1.5h-5.4v2.8h4.7v1.5h-4.7v4h-1.7V510.7z"/>
		<path class="st2" d="M88.2,510.7h2l3.8,9.8h-1.8l-0.9-2.4h-4.4l-0.9,2.4h-1.8L88.2,510.7z M89.1,512.4l-1.6,4.1h3.2L89.1,512.4z"
			/>
		<path class="st2" d="M103.1,517.3c-0.1,1.9-1.7,3.3-4,3.3c-3,0-4.7-2.1-4.7-5c0-3,1.7-5,4.7-5c2.4,0,3.9,1.4,4,3.3h-1.7
			c-0.2-1.1-1.2-1.9-2.3-1.8H99c-1.8,0-2.9,1.4-2.9,3.5c0,2.1,1.1,3.5,2.9,3.5h0.1c1.1,0.1,2.1-0.7,2.3-1.8L103.1,517.3z"/>
		<path class="st2" d="M104.9,510.7h7.3v1.5h-5.6v2.5h4.8v1.5h-4.8v2.8h5.8v1.5h-7.5V510.7z"/>
	</g>
	<circle class="st2" cx="215.3" cy="521.4" r="2.9"/>
	<circle id="Nose_2" class="st5" cx="238.7" cy="515.2" r="11.8"/>
	<line class="st19" x1="238.3" y1="515.5" x2="347.2" y2="471.3"/>
	<rect x="345.8" y="458" class="st29" width="67.1" height="26.5"/>
	<g>
		<path class="st2" d="M362.6,467.5v7.6h-1.7v-9.8h2.2l4.2,7.6v-7.6h1.7v9.8h-2.2L362.6,467.5z"/>
		<path class="st2" d="M370.9,470.2c0-3.2,2-5,4.7-5c2.7,0,4.7,1.9,4.7,5c0,3.2-2,5-4.7,5C372.8,475.3,370.9,473.4,370.9,470.2z
			 M375.6,473.8c1.8,0,3-1.3,3-3.5c0-2.2-1.2-3.5-3-3.5h-0.1c-1.8,0-2.9,1.3-2.9,3.5c0,2.2,1.2,3.5,2.9,3.5H375.6z"/>
		<path class="st2" d="M385.5,466.7h-0.1c-1.1,0-1.8,0.6-1.8,1.3c0,0.7,0.4,1.1,1.3,1.2l1.5,0.3c1.7,0.3,2.7,1.2,2.7,2.8
			c0,1.7-1.4,2.9-3.7,2.9c-2.5,0-3.9-1.3-3.9-3.4h1.7c0,1.1,0.9,1.9,2.4,1.9h0.1c1.2,0,1.8-0.6,1.8-1.3c0-0.7-0.4-1.1-1.3-1.2
			l-1.7-0.3c-1.5-0.1-2.6-1.3-2.5-2.8c0-1.5,1.3-2.9,3.6-2.9s3.6,1.3,3.7,3.2h-1.7C387.4,467.4,386.6,466.6,385.5,466.7
			C385.5,466.7,385.5,466.7,385.5,466.7z"/>
		<path class="st2" d="M390.9,465.3h7.3v1.5h-5.6v2.5h4.8v1.5h-4.8v2.8h5.8v1.5h-7.5V465.3z"/>
	</g>
	<circle class="st2" cx="238.7" cy="515.2" r="2.9"/>
	<circle id="Hair_2" class="st3" cx="230.3" cy="487.1" r="11.8"/>
	<line class="st19" x1="230.8" y1="487.4" x2="177.4" y2="452.1"/>
	<rect x="123.7" y="438.9" class="st30" width="54.5" height="26.5"/>
	<g>
		<path class="st2" d="M135.3,446.2h1.7v4.1h4.6v-4.1h1.7v9.8h-1.7v-4.1h-4.6v4.1h-1.7V446.2z"/>
		<path class="st2" d="M148.4,446.2h2l3.8,9.8h-1.8l-0.9-2.4h-4.4l-0.9,2.4h-1.8L148.4,446.2z M149.3,448l-1.6,4.1h3.2L149.3,448z"
			/>
		<path class="st2" d="M155.5,446.2h1.7v9.8h-1.7V446.2z"/>
		<path class="st2" d="M159.6,446.2h4.4c1.5-0.1,2.9,1,3,2.5c0,0,0,0.1,0,0.1c0.1,1.1-0.6,2.1-1.6,2.5c1.1,0,1.5,0.5,1.5,1.4v3.3
			h-1.7v-2.9c0-0.7-0.2-0.9-0.9-0.9h-3v3.8h-1.7V446.2z M163.6,450.7c1.2,0,1.8-0.6,1.8-1.6c0-1-0.6-1.5-1.8-1.5h-2.3v3L163.6,450.7
			z"/>
	</g>
	<circle class="st2" cx="265.1" cy="611.4" r="2.9"/>
	<circle class="st2" cx="265.1" cy="611.4" r="2.9"/>
	<circle class="st2" cx="230.3" cy="487.1" r="2.9"/>
</g>
</svg>
