<svg xmlns="http://www.w3.org/2000/svg" viewBox="0 0 854 1085">
  <g id="Sfondi">
    <rect x="-167" y="-428" width="1080" height="1920" fill="#ccc"/>
  </g>
  <g id="P3_DarkTourism">
    <g>
      <line x1="388.00049" y1="139" x2="388.00049" y2="174.9155" fill="none" stroke="#383838" stroke-miterlimit="10"/>
      <polygon points="383.911 171.602 384.643 170.92 388 174.532 391.357 170.92 392.089 171.602 388 176 383.911 171.602" fill="#383838"/>
    </g>
    <g>
      <line x1="465.5" y1="302.5" x2="576.91553" y2="302.5" fill="none" stroke="#2b2b2b" stroke-miterlimit="10"/>
      <polygon points="573.602 306.59 572.92 305.857 576.532 302.501 572.92 299.144 573.602 298.411 578 302.501 573.602 306.59" fill="#2b2b2b"/>
    </g>
    <g>
      <line x1="388.00049" y1="528" x2="388.00049" y2="563.91553" fill="none" stroke="#383838" stroke-miterlimit="10"/>
      <polygon points="383.911 560.602 384.643 559.92 388 563.532 391.357 559.92 392.089 560.602 388 565 383.911 560.602" fill="#383838"/>
    </g>
    <g>
      <line x1="388.00049" y1="373" x2="388.00049" y2="474.9155" fill="none" stroke="#2b2b2b" stroke-miterlimit="10"/>
      <polygon points="383.911 471.602 384.643 470.92 388 474.532 391.357 470.92 392.089 471.602 388 476 383.911 471.602" fill="#2b2b2b"/>
    </g>
    <g>
      <line x1="324.50049" y1="643.99987" x2="324.50049" y2="668.99985" fill="none" stroke="#383838" stroke-miterlimit="10"/>
      <line x1="453.00001" y1="668.49991" x2="325.00001" y2="668.49991" fill="none" stroke="#2b2b2b" stroke-miterlimit="10"/>
      <line x1="452.50049" y1="643.99987" x2="452.50049" y2="668.99985" fill="none" stroke="#383838" stroke-miterlimit="10"/>
      <g>
        <line x1="388.00049" y1="668" x2="388.00049" y2="769.91553" fill="none" stroke="#2b2b2b" stroke-miterlimit="10"/>
        <polygon points="383.911 766.602 384.643 765.92 388 769.532 391.357 765.92 392.089 766.602 388 771 383.911 766.602" fill="#2b2b2b"/>
      </g>
    </g>
    <g>
      <line x1="388.00049" y1="830" x2="388.00049" y2="865.91553" fill="none" stroke="#2b2b2b" stroke-miterlimit="10"/>
      <polygon points="383.911 862.602 384.643 861.92 388 865.532 391.357 861.92 392.089 862.602 388 867 383.911 862.602" fill="#2b2b2b"/>
    </g>
    <g>
      <line x1="388.00049" y1="925" x2="388.00049" y2="960.91553" fill="none" stroke="#2b2b2b" stroke-miterlimit="10"/>
      <polygon points="383.911 957.602 384.643 956.92 388 960.532 391.357 956.92 392.089 957.602 388 962 383.911 957.602" fill="#2b2b2b"/>
    </g>
    <g>
      <line x1="387.85669" y1="230.65468" x2="387.85669" y2="266.57019" fill="none" stroke="#383838" stroke-miterlimit="10"/>
      <polygon points="383.767 263.257 384.499 262.575 387.856 266.186 391.213 262.575 391.946 263.257 387.856 267.655 383.767 263.257" fill="#383838"/>
    </g>
    <rect x="269.83382" y="99.9011" width="236.33333" height="38.6978" fill="#fff" stroke="#f5718d" stroke-miterlimit="10"/>
    <rect x="311.08378" y="280.9011" width="153.83341" height="38.6978" fill="#fff" stroke="#2b2b2b" stroke-miterlimit="10"/>
    <rect x="302.95876" y="488.9011" width="170.08346" height="38.6978" fill="#fff" stroke="#2b2b2b" stroke-miterlimit="10"/>
    <rect x="300.33382" y="790.9011" width="175.33333" height="38.6978" fill="#fff" stroke="#2b2b2b" stroke-miterlimit="10"/>
    <g>
      <rect x="333.41724" y="577.9011" width="109.1665" height="38.6978" fill="#fff" stroke="#56e19d" stroke-miterlimit="10"/>
      <rect x="260.00061" y="616.5" width="127.99976" height="28" fill="#fff" stroke="#56e19d" stroke-miterlimit="10"/>
      <rect x="388.00061" y="616.5" width="127.99976" height="28" fill="#fff" stroke="#56e19d" stroke-miterlimit="10"/>
    </g>
    <rect x="300.33382" y="886.9011" width="175.33333" height="38.6978" fill="#fff" stroke="#2b2b2b" stroke-miterlimit="10"/>
    <rect x="300.33382" y="981.9011" width="175.33333" height="38.6978" fill="#fff" stroke="#56e19d" stroke-miterlimit="10"/>
    <rect x="310.77326" y="191.55578" width="153.83341" height="38.6978" fill="#fff" stroke="#0073ff" stroke-miterlimit="10"/>
    <polyline points="166.039 415.5 124.5 415.5 124.5 50 166.039 50" fill="none" stroke="#383838" stroke-miterlimit="10"/>
    <polyline points="166.039 706 124.5 706 124.5 436 166.039 436" fill="none" stroke="#383838" stroke-miterlimit="10"/>
    <polyline points="166.039 1043 124.5 1043 124.5 727.5 166.039 727.5" fill="none" stroke="#383838" stroke-miterlimit="10"/>
    <g>
      <path d="M51.27051,264.27393v-5.88086c0-4.87207,2.97558-8.2085,8.40039-8.2085s8.40039,3.26416,8.40039,8.13672v5.95264Zm14.23242-5.64063c0-3.38428-1.67969-5.56836-5.832-5.56836s-5.833,2.18408-5.833,5.56836v2.76025h11.665Z"/>
      <path d="M51.27051,242.793V239.3125l16.80078-6.52832v3.02393l-4.10449,1.58447v7.46435l4.10449,1.58448v3Zm3-1.65625,7.10449,2.73633v-5.47266Z"/>
      <path d="M53.83789,228.32129v5.88037H51.27051v-14.665h2.56738v5.9043h14.2334v2.88037Z"/>
      <path d="M51.27051,214.35352v-3.48047l16.80078-6.52832v3.02392l-4.10449,1.58448v7.46435l4.10449,1.58447v3Zm3-1.65625,7.10449,2.73632v-5.47265Z"/>
      <path d="M91.44727,294.752c3.33593.21582,5.66406,2.832,5.66406,6.9126,0,5.06445-3.57617,7.99268-8.64063,7.99268s-8.64062-2.92823-8.64062-7.99268c0-4.08057,2.376-6.69678,5.66406-6.9126v2.88037a3.61516,3.61516,0,0,0-3.0957,3.91211v.24024c0,3.07226,2.47168,4.99219,6.07226,4.99219s6.07227-1.91993,6.07227-4.99219v-.24024a3.59678,3.59678,0,0,0-3.0957-3.91211Z"/>
      <path d="M88.4707,292.66553c-5.40039,0-8.64062-3.36035-8.64062-8.041,0-4.7041,3.24023-8.06445,8.64062-8.06445s8.64063,3.36035,8.64063,8.06445C97.11133,289.30518,93.87109,292.66553,88.4707,292.66553Zm6.07227-8.16065c0-3.04834-2.25586-5.06445-6.07227-5.06445s-6.07226,2.01611-6.07226,5.06445v.23975c0,3.04834,2.25586,5.04053,6.07226,5.04053S94.543,287.793,94.543,284.74463Z"/>
      <path d="M80.07031,273.394v-2.88037H94.30273v-9.64892h2.56836V273.394Z"/>
      <path d="M80.07031,258.394v-2.88037H94.30273v-9.64892h2.56836V258.394Z"/>
      <path d="M80.07031,243.394V230.86475H82.6377v9.64892H86.958v-8.209h2.56836v8.209h4.77636v-9.88916h2.56836V243.394Z"/>
      <path d="M91.44727,213.96826c3.33593.21582,5.66406,2.832,5.66406,6.9126,0,5.06445-3.57617,7.99268-8.64063,7.99268s-8.64062-2.92823-8.64062-7.99268c0-4.08057,2.376-6.69678,5.66406-6.9126v2.88037a3.61516,3.61516,0,0,0-3.0957,3.91211v.24024c0,3.07226,2.47168,4.99218,6.07226,4.99218S94.543,224.07324,94.543,221.001v-.24024a3.59678,3.59678,0,0,0-3.0957-3.91211Z"/>
      <path d="M82.6377,207.2251v5.88037H80.07031v-14.665H82.6377v5.9043H96.87109v2.88037Z"/>
      <path d="M80.07031,195.96973v-2.88037H96.87109v2.88037Z"/>
      <path d="M88.4707,189.92188c-5.40039,0-8.64062-3.36036-8.64062-8.041,0-4.7041,3.24023-8.06445,8.64062-8.06445s8.64063,3.36035,8.64063,8.06445C97.11133,186.56152,93.87109,189.92188,88.4707,189.92188Zm6.07227-8.16065c0-3.04834-2.25586-5.06445-6.07227-5.06445s-6.07226,2.01611-6.07226,5.06445v.23975c0,3.04834,2.25586,5.04052,6.07226,5.04052S94.543,185.04932,94.543,182.001Z"/>
      <path d="M83.81445,167.77H96.87109v2.88037H80.07031v-3.84033l13.00879-7.12891H80.07031v-2.88037H96.87109v3.84033Z"/>
    </g>
    <g>
      <path d="M51.27246,625.61523v-5.88085c0-4.8711,2.97656-8.208,8.40137-8.208,5.42383,0,8.40039,3.26465,8.40039,8.13672v5.95214Zm14.2334-5.64062c0-3.38379-1.67969-5.56836-5.832-5.56836s-5.833,2.18457-5.833,5.56836v2.76074h11.665Z"/>
      <path d="M51.27246,604.13477V600.6543L68.07422,594.126v3.02441l-4.10449,1.584v7.46484l4.10449,1.584v3Zm3.001-1.65625,7.10449,2.73632v-5.47265Z"/>
      <path d="M53.84082,589.66309V595.543H51.27246V580.87891h2.56836v5.90429h14.2334v2.87989Z"/>
      <path d="M51.27246,575.69531v-3.48047l16.80176-6.52832v3.02442l-4.10449,1.584v7.46485l4.10449,1.584v3Zm3.001-1.65625,7.10449,2.73633v-5.47266Z"/>
      <path d="M53.60059,557.88672v.24023c0,1.91993,1.03222,3.14453,2.28027,3.14453,1.20019,0,1.82422-.7207,2.1123-2.16015l.50391-2.5918c.57617-2.88086,2.08887-4.60937,4.8252-4.60937,2.90332,0,4.99218,2.37695,4.99218,6.33691,0,4.34473-2.18457,6.624-5.78515,6.74512v-2.88086c1.94433-.07227,3.21679-1.51172,3.21679-4.03223v-.24023c0-1.99219-1.03222-3.04785-2.25586-3.04785-1.1289,0-1.80078.59961-2.13671,2.208l-.57618,2.85645c-.59961,2.87988-2.23242,4.29687-4.7998,4.29687-2.56836,0-4.94434-2.30468-4.94434-6.21679s2.208-6.24121,5.42383-6.28907v2.88086A3.05245,3.05245,0,0,0,53.60059,557.88672Z"/>
      <path d="M51.27246,548.55176v-12.5293h2.56836v9.64942h4.32031v-8.209h2.56836v8.209h4.77637v-9.88965h2.56836v12.76953Z"/>
      <path d="M53.84082,528.53564V534.416H51.27246V519.751h2.56836v5.90429h14.2334v2.88037Z"/>
      <path d="M96.874,626.37109H80.07227v-7.39257c0-3,1.82421-5.01563,4.39257-5.01563a3.81324,3.81324,0,0,1,3.86426,2.7832c.24024-1.82421,1.68067-3.14453,4.03223-3.14453,2.64062,0,4.51269,2.209,4.51269,5.13672Zm-9.76855-6.96093c0-1.63086-.81641-2.56739-2.23242-2.56739-1.44043,0-2.23243.93653-2.23243,2.56739v4.08105h4.46485Zm7.20019-.19141c0-1.67969-.8164-2.73633-2.35254-2.73633s-2.35156,1.05664-2.35156,2.73633v4.27246h4.7041Z"/>
      <path d="M90.94531,610.55664h-10.873v-2.88086H90.56152c2.68848,0,3.98438-1.20019,3.98438-3.5039v-.24024c0-2.32812-1.2959-3.50391-3.98438-3.50391H80.07227v-2.88085h10.873c3.793,0,6.16895,2.08789,6.16895,6.5039C97.11426,608.51563,94.73828,610.55664,90.94531,610.55664Z"/>
      <path d="M80.07227,593.58789V590.707H96.874v2.88086Z"/>
      <path d="M80.07227,586.58008v-2.88086H94.30566v-9.64844H96.874v12.5293Z"/>
      <path d="M80.07227,571.58008v-5.88086c0-4.87207,2.97656-8.209,8.40136-8.209,5.42383,0,8.40039,3.26465,8.40039,8.13672v5.95313Zm14.23339-5.64063c0-3.38476-1.67968-5.56836-5.832-5.56836s-5.833,2.1836-5.833,5.56836v2.75977h11.665Z"/>
      <path d="M80.07227,554.32422v-2.88086H96.874v2.88086Z"/>
      <path d="M83.81641,544.43555H96.874v2.88086H80.07227v-3.83985l13.00976-7.1289H80.07227V533.4668H96.874v3.83984Z"/>
      <path d="M94.9541,517.41162c.74414.38379,2.16016,2.01611,2.16016,4.89649,0,4.75244-3.67285,7.99267-8.64063,7.99267-4.96875,0-8.665-3.19238-8.665-8.23291,0-4.32031,2.544-6.79248,5.92871-7.03271v2.88037c-2.0166.24023-3.33691,1.58447-3.33691,4.03222v.24024c0,3.21631,2.32813,5.23242,6.07324,5.23242,3.74414,0,6.07227-2.01611,6.07227-5.23242v-.24024c0-2.49609-1.46387-4.272-3.57617-4.56005l-.19239.02392v4.65625H88.209v-5.1123a1.83644,1.83644,0,0,1,2.04-2.04h6.625v2.49609Z"/>
    </g>
    <g>
      <path d="M51.26953,916.77539v-5.88086c0-4.87305,2.97656-8.209,8.40137-8.209,5.42383,0,8.40039,3.26367,8.40039,8.13672v5.95312Zm14.2334-5.64062c0-3.38477-1.67969-5.56836-5.832-5.56836s-5.833,2.18359-5.833,5.56836v2.75976h11.665Z"/>
      <path d="M51.26953,895.294v-3.48047l16.80176-6.52832v3.02343l-4.10449,1.585v7.46387l4.10449,1.585v3Zm3.001-1.65625L61.375,896.374v-5.47265Z"/>
      <path d="M53.83789,880.82227v5.88086H51.26953v-14.666h2.56836v5.9043h14.2334v2.88086Z"/>
      <path d="M51.26953,866.85449V863.374l16.80176-6.52832v3.02344l-4.10449,1.585V868.918l4.10449,1.585v3Zm3.001-1.65625,7.10449,2.73633v-5.47266Z"/>
      <path d="M96.87109,970.22168l-16.80175,6.55176v-3.168l13.89746-5.30469L80.06934,963.165v-3.09668l16.80175,6.4082Z"/>
      <path d="M80.06934,957.81445v-2.88086H96.87109v2.88086Z"/>
      <path d="M82.39746,944.99805v.23925c0,1.9209,1.03223,3.14454,2.28027,3.14454,1.2002,0,1.82422-.71973,2.11231-2.16016l.50391-2.59277c.57617-2.87989,2.08886-4.60743,4.82519-4.60743,2.90332,0,4.99219,2.375,4.99219,6.33594,0,4.34375-2.18457,6.625-5.78516,6.74414v-2.87988c1.94434-.07129,3.2168-1.5127,3.2168-4.03223v-.24023c0-1.99219-1.03223-3.04785-2.25586-3.04785-1.12891,0-1.80078.59961-2.13672,2.208l-.57617,2.85644c-.59961,2.87988-2.23242,4.2959-4.79981,4.2959-2.56836,0-4.94433-2.30371-4.94433-6.2168,0-3.91211,2.208-6.24023,5.42383-6.28808v2.87988A3.05476,3.05476,0,0,0,82.39746,944.99805Z"/>
      <path d="M90.94238,935.83008h-10.873V932.9502H90.55859c2.68848,0,3.98438-1.2002,3.98438-3.50489v-.23926c0-2.3291-1.2959-3.50488-3.98438-3.50488H80.06934v-2.87988h10.873c3.793,0,6.16895,2.08887,6.16895,6.50488C97.11133,933.79,94.73535,935.83008,90.94238,935.83008Z"/>
      <path d="M80.06934,914.541v-3.48047l16.80175-6.52735v3.02344l-4.10449,1.584v7.46484l4.10449,1.584v3Zm3.001-1.65625,7.10449,2.73632v-5.47265Z"/>
      <path d="M80.06934,902.30273v-2.88085H94.30273v-9.64844h2.56836v12.52929Z"/>
      <path d="M80.06934,887.30273v-2.88085H96.87109v2.88085Z"/>
      <path d="M96.87109,881.39844H94.375l-11.7373-9.5293v9.28906H80.06934v-12.625h2.49609l11.7373,9.5293V868.293h2.56836Z"/>
      <path d="M80.06934,860.56641v-3.48047l16.80175-6.52832V853.582l-4.10449,1.584v7.46484l4.10449,1.584v3Zm3.001-1.65625,7.10449,2.73632v-5.47265Z"/>
      <path d="M82.6377,846.09375v5.88086H80.06934v-14.665H82.6377v5.9043H96.87109v2.87988Z"/>
      <path d="M80.06934,834.83887V831.959H96.87109v2.87989Z"/>
      <path d="M88.4707,828.791c-5.40039,0-8.64062-3.36036-8.64062-8.041,0-4.7041,3.24023-8.06445,8.64062-8.06445s8.64063,3.36035,8.64063,8.06445C97.11133,825.43066,93.87109,828.791,88.4707,828.791Zm6.07227-8.16016c0-3.04883-2.25586-5.06445-6.07227-5.06445s-6.07324,2.01562-6.07324,5.06445v.23926c0,3.04785,2.25684,5.04,6.07324,5.04s6.07227-1.99219,6.07227-5.04Z"/>
      <path d="M83.81348,806.63867H96.87109v2.88086H80.06934v-3.83984l13.00976-7.12891H80.06934v-2.88086H96.87109v3.83985Z"/>
    </g>
    <g>
      <path d="M322.21777,123.39453H318.666l-.91211,4.2002h-2.16016l.91211-4.2002h-2.52051V121.354h2.95215l.91211-4.32031h-2.832v-2.04h3.28808l.8877-4.20019h2.16016l-.8877,4.20019h3.50488l.86328-4.20019h2.16016l-.86328,4.20019h2.51953v2.04h-2.95215l-.88769,4.32031h2.832v2.04053h-3.26465l-.86426,4.2002h-2.16015Zm1.32032-6.36084h-3.52832l-.91211,4.32031h3.55273Z"/>
      <path d="M330.71289,121.59424c0-3.96045,2.40039-6.24072,5.40039-6.24072a4.26334,4.26334,0,0,1,3.7207,1.92041v-6.48047h2.28028v16.80127H339.834v-1.68018a4.71626,4.71626,0,0,1-3.96093,1.92041C332.87305,127.835,330.71289,125.55469,330.71289,121.59424Zm9.12109,0c0-2.88037-1.67968-4.32031-3.36035-4.32031h-.24023c-1.79981,0-3.24024,1.43994-3.24024,4.32031s1.44043,4.32031,3.24024,4.32031h.24023C338.1543,125.91455,339.834,124.47461,339.834,121.59424Z"/>
      <path d="M352.8418,127.59473a13.24681,13.24681,0,0,1-.12012-1.91993,4.18772,4.18772,0,0,1-3.84082,2.16016,3.66733,3.66733,0,0,1-3.96-3.55273c0-2.73584,2.42383-3.55225,4.36816-3.72022l3.3125-.26416v-.38379a2.36841,2.36841,0,0,0-2.52051-2.64013h-.12011c-1.2959,0-2.376.60009-2.51953,1.80029h-2.28125c.14453-2.2085,2.13671-3.7207,4.84863-3.7207,3.19238,0,4.87305,2.1123,4.87305,4.56054v5.04053a20.32144,20.32144,0,0,0,.12011,2.64014ZM349.60156,122.29c-1.39258.12012-2.40039.79248-2.40039,1.89648a1.7861,1.7861,0,0,0,1.91992,1.728h.24024c1.43945,0,3.24023-1.20019,3.24023-2.64014v-1.22412Z"/>
      <path d="M358.36035,115.59375h2.16113v2.64014a3.54379,3.54379,0,0,1,3.4795-2.76026h1.08007v2.208h-.96c-2.16015,0-3.48047,1.44043-3.48047,3.84033v6.07276h-2.28027Z"/>
      <path d="M371.32129,121.93018l-1.65625,1.60839v4.05616h-2.28027V110.79346H369.665v9.98486l5.28027-5.18457h3l-4.99219,4.77637,5.23243,7.22461H375.377Z"/>
      <path d="M386.94531,127.59473h-2.88086a2.40176,2.40176,0,0,1-2.64062-2.64014V117.562h-2.63965v-1.96826h2.63965v-3.88818h2.28027v3.88818H386.585V117.562H383.7041v7.03223c0,.72021.24024.96045.96.96045h2.28125Z"/>
      <path d="M388.55273,121.59424c0-3.72022,2.51954-6.24072,5.75977-6.24072s5.76074,2.5205,5.76074,6.24072-2.52051,6.24072-5.76074,6.24072S388.55273,125.31445,388.55273,121.59424Zm9.24024,0c0-2.76026-1.44043-4.32031-3.36035-4.32031h-.24024c-1.91992,0-3.36035,1.56005-3.36035,4.32031s1.44043,4.32031,3.36035,4.32031h.24024C396.35254,125.91455,397.793,124.35449,397.793,121.59424Z"/>
      <path d="M413.00879,127.59473h-2.28027v-2.28028a3.86152,3.86152,0,0,1-3.83985,2.52051c-2.68847,0-4.08008-1.80029-4.08008-4.3208v-7.92041h2.2793v7.44043c0,1.92041.793,2.88037,2.40039,2.88037h.24024c1.51171,0,3-1.43994,3-3.84033v-6.48047h2.28027Z"/>
      <path d="M416.60742,115.59375h2.16113v2.64014a3.54379,3.54379,0,0,1,3.4795-2.76026h1.08007v2.208h-.96c-2.16015,0-3.47949,1.44043-3.47949,3.84033v6.07276h-2.28125Z"/>
      <path d="M425.51172,110.79346h2.52051v2.64013h-2.52051Zm.12012,4.80029h2.28027v12.001h-2.28027Z"/>
      <path d="M430.5752,123.87451h2.28027a2.37227,2.37227,0,0,0,2.64062,2.04h.24024c1.22363,0,2.208-.6001,2.208-1.56006,0-.76806-.43262-1.29638-1.63184-1.53613l-1.75293-.33594c-1.94434-.38428-3.50391-1.39209-3.50391-3.43262,0-2.3999,2.13575-3.69628,4.53614-3.69628,3.14453,0,4.752,1.68017,4.752,3.96044h-2.2793a2.20818,2.20818,0,0,0-2.32812-2.04h-.24024c-1.32031,0-2.16015.6958-2.16015,1.53613,0,.72021.47949,1.2959,1.67968,1.53613l1.89649.38379c1.82422.36035,3.3125,1.34424,3.3125,3.5044s-1.94434,3.60058-4.72852,3.60058C432.30371,127.835,430.69531,126.15479,430.5752,123.87451Z"/>
      <path d="M445.47949,127.59473h-2.28027v-12.001h2.28027v1.68018a4.20137,4.20137,0,0,1,3.60059-1.92041,4.13027,4.13027,0,0,1,3.96094,2.23242,4.35409,4.35409,0,0,1,3.96-2.23242,3.94205,3.94205,0,0,1,4.32031,4.20068v8.04053H459.041v-7.56055c0-1.68018-.72071-2.76025-2.4004-2.76025h-.24023c-1.43945,0-3,1.31982-3,3.60009v6.72071h-2.28027v-7.56055c0-1.68018-.71973-2.76025-2.40039-2.76025h-.23926c-1.44043,0-3.001,1.31982-3.001,3.60009Z"/>
    </g>
    <g>
      <path d="M329.15332,291.79346h2.40039v16.80127h-2.40039Z"/>
      <path d="M337.794,308.59473h-2.28028v-12.001H337.794v1.68018a4.33225,4.33225,0,0,1,3.83984-1.92041,3.94158,3.94158,0,0,1,4.32031,4.20068v8.04053h-2.28027v-7.56055c0-1.68018-.71973-2.76025-2.40039-2.76025h-.23926A3.32348,3.32348,0,0,0,337.794,301.874Z"/>
      <path d="M348.49707,304.87451h2.28027a2.37227,2.37227,0,0,0,2.64063,2.04h.23926c1.22461,0,2.208-.6001,2.208-1.56006,0-.76806-.43164-1.29638-1.63183-1.53613l-1.752-.33594c-1.94434-.38428-3.50489-1.39209-3.50489-3.43262,0-2.3999,2.13672-3.69628,4.53711-3.69628,3.14453,0,4.752,1.68017,4.752,3.96044h-2.27929a2.20913,2.20913,0,0,0-2.3291-2.04H353.418c-1.32031,0-2.16016.6958-2.16016,1.53613,0,.72021.47949,1.2959,1.67969,1.53613l1.89648.38379c1.82422.36035,3.3125,1.34424,3.3125,3.5044s-1.94433,3.60058-4.72851,3.60058C350.22559,308.835,348.61719,307.15479,348.49707,304.87451Z"/>
      <path d="M367.88965,308.59473h-2.87988a2.40132,2.40132,0,0,1-2.64063-2.64014V298.562h-2.64062v-1.96826h2.64062v-3.88818h2.28027v3.88818h2.87989V298.562h-2.87989v7.03223c0,.72021.24024.96045.96.96045h2.28028Z"/>
      <path d="M377.49023,308.59473a13.2479,13.2479,0,0,1-.12011-1.91993,4.18772,4.18772,0,0,1-3.84082,2.16016,3.66732,3.66732,0,0,1-3.96-3.55273c0-2.73584,2.42382-3.55225,4.36816-3.72022l3.3125-.26416v-.38379a2.36841,2.36841,0,0,0-2.52051-2.64013h-.12012c-1.29589,0-2.376.60009-2.51953,1.80029h-2.28125c.14453-2.2085,2.13672-3.7207,4.84864-3.7207,3.19238,0,4.873,2.1123,4.873,4.56054v5.04053a20.31976,20.31976,0,0,0,.12012,2.64014ZM374.25,303.29c-1.39258.12012-2.40039.79248-2.40039,1.89648a1.7861,1.7861,0,0,0,1.91992,1.728h.24024c1.43945,0,3.24023-1.20019,3.24023-2.64014v-1.22412Z"/>
      <path d="M383.00879,291.79346h2.28027v16.80127h-2.28027Z"/>
      <path d="M388.14453,302.59424c0-3.72022,2.52051-6.24072,5.76074-6.24072s5.76075,2.5205,5.76075,6.24072-2.52051,6.24072-5.76075,6.24072S388.14453,306.31445,388.14453,302.59424Zm9.24121,0c0-2.76026-1.44043-4.32031-3.36035-4.32031h-.24023c-1.91993,0-3.36036,1.56-3.36036,4.32031s1.44043,4.32031,3.36036,4.32031h.24023C395.94531,306.91455,397.38574,305.35449,397.38574,302.59424Z"/>
      <path d="M409.64941,308.59473a13.2479,13.2479,0,0,1-.12011-1.91993,4.18607,4.18607,0,0,1-3.83985,2.16016,3.66763,3.66763,0,0,1-3.96093-3.55273c0-2.73584,2.42382-3.55225,4.36816-3.72022l3.3125-.26416v-.38379a2.36841,2.36841,0,0,0-2.52051-2.64013h-.11914c-1.29687,0-2.37695.60009-2.52051,1.80029h-2.28027c.14355-2.2085,2.13574-3.7207,4.84766-3.7207,3.19336,0,4.873,2.1123,4.873,4.56054v5.04053a20.31976,20.31976,0,0,0,.12012,2.64014ZM406.40918,303.29c-1.39258.12012-2.40039.79248-2.40039,1.89648a1.7861,1.7861,0,0,0,1.91992,1.728h.24024c1.44042,0,3.24023-1.20019,3.24023-2.64014v-1.22412Z"/>
      <path d="M414.44824,302.59424c0-3.96045,2.40039-6.24072,5.40039-6.24072a4.26459,4.26459,0,0,1,3.72071,1.92041v-6.48047h2.28027v16.80127h-2.28027v-1.68018a4.71762,4.71762,0,0,1-3.96094,1.92041C416.6084,308.835,414.44824,306.55469,414.44824,302.59424Zm9.1211,0c0-2.88037-1.68067-4.32031-3.36036-4.32031h-.24023c-1.80078,0-3.24023,1.43994-3.24023,4.32031s1.43945,4.32031,3.24023,4.32031h.24023C421.88867,306.91455,423.56934,305.47461,423.56934,302.59424Z"/>
      <path d="M434.39258,308.835c-2.97656,0-5.66406-2.06445-5.66406-6.26465,0-4.15234,2.75976-6.21679,5.59179-6.21679,3.1211,0,5.08887,2.16015,5.08887,5.28076v1.31982h-8.40137c.14453,2.73633,1.89649,3.96045,3.38477,3.96045h.14453a2.41083,2.41083,0,0,0,2.56738-1.87207h2.28028C439.001,307.51465,436.88867,308.835,434.39258,308.835Zm-3.24024-7.68066h5.97657c-.09571-2.08838-1.34375-2.88037-2.68848-2.88037h-.24023C432.97656,298.27393,431.584,299.01807,431.15234,301.1543Z"/>
      <path d="M442.28809,296.59375h2.16015v2.64014a3.544,3.544,0,0,1,3.48047-2.76026h1.08008v2.208h-.96c-2.16016,0-3.48047,1.44043-3.48047,3.84033v6.07276h-2.28027Z"/>
    </g>
    <g>
      <path d="M324.05664,340.04834h-5.00977l-1.05078,2.69971H316.4668l4.15429-10.49951H322.541l4.125,10.49951h-1.55957Zm-2.50488-6.41992-1.98047,5.06982h3.96Z"/>
      <path d="M334.21094,342.74805h-1.42481v-1.42481a2.57815,2.57815,0,0,1-4.95019-1.125v-4.9497h1.42578V339.898c0,1.20019.49414,1.80029,1.499,1.80029h.15039c.94532,0,1.875-.8999,1.875-2.3999v-4.0498h1.42481Z"/>
      <path d="M340.69141,342.74805h-1.80079a1.50038,1.50038,0,0,1-1.64941-1.64991v-4.61962h-1.65039v-1.23h1.65039v-2.43018H338.666v2.43018h1.7998v1.23H338.666v4.39453c0,.45019.15039.60009.5996.60009h1.42579Z"/>
      <path d="M341.69629,338.99805a3.61162,3.61162,0,1,1,3.59961,3.8999A3.63376,3.63376,0,0,1,341.69629,338.99805Zm5.77441,0c0-1.72461-.89941-2.69971-2.09961-2.69971h-.14941c-1.2002,0-2.10059.9751-2.10059,2.69971,0,1.72509.90039,2.70019,2.10059,2.70019h.14941C346.57129,341.69824,347.4707,340.72314,347.4707,338.99805Z"/>
      <path d="M352.10645,342.74805h-1.42481v-7.49951h1.42481v1.0498a2.62618,2.62618,0,0,1,2.25-1.2002,2.58025,2.58025,0,0,1,2.4746,1.395,2.72162,2.72162,0,0,1,2.47461-1.395,2.46341,2.46341,0,0,1,2.7002,2.625v5.02491h-1.42481v-4.72461c0-1.0503-.45019-1.7251-1.5-1.7251h-.15039a2.06166,2.06166,0,0,0-1.875,2.25v4.19971h-1.4248v-4.72461c0-1.0503-.44922-1.7251-1.5-1.7251h-.14941a2.061,2.061,0,0,0-1.875,2.25Z"/>
      <path d="M368.63574,342.74805a8.37279,8.37279,0,0,1-.07422-1.2002,2.617,2.617,0,0,1-2.40039,1.3501,2.29167,2.29167,0,0,1-2.47461-2.21973c0-1.71,1.51465-2.22021,2.7295-2.32519l2.07031-.16455v-.24024a1.48051,1.48051,0,0,0-1.5752-1.6499h-.07519c-.80957,0-1.48438.375-1.57422,1.125h-1.42578c.09082-1.37988,1.335-2.3252,3.03027-2.3252a2.79427,2.79427,0,0,1,3.04492,2.8501v3.1499a12.6795,12.6795,0,0,0,.0752,1.64991Zm-2.02441-3.31494c-.87012.07519-1.5.49511-1.5,1.185a1.11661,1.11661,0,0,0,1.20019,1.08008h.14942c.90039,0,2.02539-.75,2.02539-1.6499v-.76514Z"/>
      <path d="M376.21094,342.74805h-1.79981a1.50111,1.50111,0,0,1-1.65039-1.64991v-4.61962h-1.64941v-1.23h1.64941v-2.43018h1.42578v2.43018h1.79981v1.23h-1.79981v4.39453c0,.45019.14942.60009.59961.60009h1.42481Z"/>
      <path d="M380.77148,342.898c-1.86035,0-3.54-1.29-3.54-3.91455a3.5321,3.5321,0,0,1,3.49511-3.88526,3.05623,3.05623,0,0,1,3.17969,3.3003v.8247h-5.25a2.30366,2.30366,0,0,0,2.11523,2.4751h.08985a1.50618,1.50618,0,0,0,1.60449-1.16992h1.4248A2.90044,2.90044,0,0,1,380.77148,342.898Zm-2.02539-4.79981h3.73536a1.6425,1.6425,0,0,0-1.68067-1.7998h-.14941A1.96051,1.96051,0,0,0,378.74609,338.09814Z"/>
      <path d="M385.25586,338.99805c0-2.47461,1.5-3.89991,3.375-3.89991a2.66574,2.66574,0,0,1,2.32519,1.2002v-4.0498h1.42481v10.49951h-1.42481v-1.04981a2.94718,2.94718,0,0,1-2.4746,1.19971C386.60645,342.898,385.25586,341.47314,385.25586,338.99805Zm5.70019,0c0-1.79981-1.0498-2.69971-2.0996-2.69971h-.1504c-1.125,0-2.02441.8999-2.02441,2.69971,0,1.80029.89941,2.70019,2.02441,2.70019h.1504C389.90625,341.69824,390.95605,340.79834,390.95605,338.99805Z"/>
      <path d="M397.70605,340.42334h1.42481a1.48226,1.48226,0,0,0,1.64941,1.2749h.15039c.76465,0,1.37989-.375,1.37989-.9751,0-.48-.26953-.81-1.01953-.96l-1.09571-.21c-1.21484-.24023-2.18945-.87011-2.18945-2.145,0-1.5,1.335-2.31006,2.835-2.31006,1.96484,0,2.96973,1.0503,2.96973,2.4751h-1.42481a1.37979,1.37979,0,0,0-1.45508-1.2749h-.15039c-.82422,0-1.34961.43506-1.34961.96,0,.44971.29981.81006,1.04981.96l1.18555.23975a2.19049,2.19049,0,0,1,2.06933,2.18994c0,1.3501-1.21484,2.25-2.95508,2.25C398.78613,342.898,397.78027,341.84814,397.70605,340.42334Z"/>
      <path d="M405.14551,338.99805c0-2.20459,1.29-3.89991,3.60058-3.89991a2.84617,2.84617,0,0,1,3.07422,2.625h-1.4248a1.589,1.589,0,0,0-1.5752-1.4248h-.14941c-1.42481,0-2.09961,1.2749-2.09961,2.69971,0,1.42529.6748,2.70019,2.09961,2.70019h.14941a1.58905,1.58905,0,0,0,1.5752-1.42529h1.4248a2.84583,2.84583,0,0,1-3.07422,2.625C406.43555,342.898,405.14551,341.20313,405.14551,338.99805Z"/>
      <path d="M413.57617,335.24854h1.34961v1.6499a2.21534,2.21534,0,0,1,2.17481-1.7251h.6748v1.37988h-.59961a2.11569,2.11569,0,0,0-2.1748,2.39991v3.79492h-1.42481Z"/>
      <path d="M423.53516,342.74805a8.37279,8.37279,0,0,1-.07422-1.2002,2.617,2.617,0,0,1-2.40039,1.3501,2.29166,2.29166,0,0,1-2.47461-2.21973c0-1.71,1.51465-2.22021,2.72949-2.32519l2.07031-.16455v-.24024a1.48051,1.48051,0,0,0-1.57519-1.6499h-.0752c-.80957,0-1.48437.375-1.57422,1.125h-1.42578c.09082-1.37988,1.335-2.3252,3.03027-2.3252a2.79428,2.79428,0,0,1,3.04493,2.8501v3.1499a12.68117,12.68117,0,0,0,.07519,1.64991Zm-2.02442-3.31494c-.87012.07519-1.5.49511-1.5,1.185a1.11662,1.11662,0,0,0,1.2002,1.08008h.14941c.90039,0,2.02539-.75,2.02539-1.6499v-.76514Z"/>
      <path d="M434.11035,338.99805c0,2.47509-1.5,3.8999-3.375,3.8999a2.6654,2.6654,0,0,1-2.32519-1.19971v4.04981h-1.42481V335.24854h1.42481v1.0498a2.94809,2.94809,0,0,1,2.47558-1.2002C432.76074,335.09814,434.11035,336.52344,434.11035,338.99805Zm-5.70019,0c0,1.80029,1.05078,2.70019,2.10058,2.70019h.14942c1.125,0,2.02539-.8999,2.02539-2.70019,0-1.79981-.90039-2.69971-2.02539-2.69971h-.14942C429.46094,336.29834,428.41016,337.19824,428.41016,338.99805Z"/>
      <path d="M435.835,332.24854h1.5752v1.6499H435.835Zm.0752,3h1.4248v7.49951h-1.4248Z"/>
      <path d="M441.00977,342.74805H439.585v-7.49951h1.42481v1.0498a2.70921,2.70921,0,0,1,2.40039-1.2002,2.46388,2.46388,0,0,1,2.70019,2.625v5.02491h-1.42578v-4.72461c0-1.0503-.44922-1.7251-1.5-1.7251h-.14941a2.07758,2.07758,0,0,0-2.02539,2.25Z"/>
      <path d="M447.7002,343.72314h1.4248c.15039.75.96,1.125,1.98047,1.125h.14941a1.99641,1.99641,0,0,0,2.17481-2.25v-1.05029a2.59336,2.59336,0,0,1-2.249,1.2002c-1.72558,0-3.33007-1.2002-3.33007-3.82471,0-2.625,1.55957-3.8252,3.33007-3.8252a2.497,2.497,0,0,1,2.249,1.2002v-1.0498h1.42578v7.49951c0,1.875-1.35059,3.2998-3.67481,3.2998C449.08008,346.04785,447.85059,345.07275,447.7002,343.72314Zm3.6748-2.17529c1.02051,0,2.05469-.97461,2.05469-2.62451s-.96-2.625-1.97949-2.625h-.1504c-1.0498,0-2.02441.75-2.02441,2.625s.89941,2.62451,1.9502,2.62451Z"/>
      <path d="M288.88965,356.99805a3.61162,3.61162,0,1,1,3.59961,3.8999A3.63376,3.63376,0,0,1,288.88965,356.99805Zm5.77441,0c0-1.72461-.89941-2.69971-2.09961-2.69971H292.415c-1.2002,0-2.10059.9751-2.10059,2.69971,0,1.72509.90039,2.70019,2.10059,2.70019h.14941C293.76465,359.69824,294.66406,358.72314,294.66406,356.99805Z"/>
      <path d="M298.58008,354.47852h-1.65039v-1.23h1.65039v-1.4253a1.39151,1.39151,0,0,1,1.57422-1.5747h2.10058v1.24511h-1.65039c-.45019,0-.59961.1499-.59961.59961v1.15528h1.875v1.23h-1.875v6.26953h-1.4248Z"/>
      <path d="M310.63965,360.74805h-1.79981a1.50111,1.50111,0,0,1-1.65039-1.64991v-4.61962H305.54v-1.23h1.64941v-2.43018h1.42578v2.43018H310.415v1.23h-1.79981v4.39453c0,.45019.14942.60009.59961.60009h1.42481Z"/>
      <path d="M313.60937,360.74805h-1.4248V350.24854h1.4248v4.0498a2.70924,2.70924,0,0,1,2.4004-1.2002,2.46388,2.46388,0,0,1,2.70019,2.625v5.02491h-1.42578v-4.72461c0-1.0503-.44922-1.7251-1.5-1.7251h-.14941a2.07758,2.07758,0,0,0-2.0254,2.25Z"/>
      <path d="M323.97461,360.898c-1.86035,0-3.54-1.29-3.54-3.91455a3.5321,3.5321,0,0,1,3.49512-3.88526,3.05623,3.05623,0,0,1,3.17968,3.3003v.8247h-5.25a2.30367,2.30367,0,0,0,2.11524,2.4751h.08984a1.5062,1.5062,0,0,0,1.6045-1.16992h1.4248A2.90044,2.90044,0,0,1,323.97461,360.898Zm-2.02539-4.79981h3.73535a1.6425,1.6425,0,0,0-1.68066-1.7998h-.14942A1.9605,1.9605,0,0,0,321.94922,356.09814Z"/>
      <path d="M331.98437,357.97314h1.46973a1.97757,1.97757,0,0,0,2.16016,1.64991h.14941a2.07593,2.07593,0,0,0,2.12988-2.17481,1.98017,1.98017,0,0,0-2.05468-1.99511h-.15039a2.2554,2.2554,0,0,0-1.874,1.02h-1.45508l1.27442-6.2246h5.625v1.35009h-4.53027l-.73438,3.40479a3.0215,3.0215,0,0,1,2.09961-.8252,3.12511,3.12511,0,0,1,3.27051,3.19483,3.50244,3.50244,0,0,1-3.67578,3.5249C333.76855,360.898,332.13379,359.89307,331.98437,357.97314Z"/>
      <path d="M341.01367,355.49805c0-3.52442,1.53028-5.39942,4.125-5.39942s4.125,1.875,4.125,5.39942c0,3.5249-1.53027,5.3999-4.125,5.3999S341.01367,359.023,341.01367,355.49805Zm4.2002,4.125c1.125,0,2.58008-.88477,2.58008-4.125,0-3.23975-1.45508-4.12451-2.58008-4.12451h-.15039c-1.125,0-2.57911.88476-2.57911,4.12451,0,3.24023,1.45411,4.125,2.57911,4.125Z"/>
      <path d="M350.94336,355.49805c0-3.52442,1.53027-5.39942,4.125-5.39942s4.125,1.875,4.125,5.39942c0,3.5249-1.53027,5.3999-4.125,5.3999S350.94336,359.023,350.94336,355.49805Zm4.20019,4.125c1.125,0,2.58008-.88477,2.58008-4.125,0-3.23975-1.45508-4.12451-2.58008-4.12451h-.15039c-1.125,0-2.5791.88476-2.5791,4.12451,0,3.24023,1.4541,4.125,2.5791,4.125Z"/>
      <path d="M366.24316,360.74805h-1.4248v-7.49951h1.4248v1.0498a2.6262,2.6262,0,0,1,2.25-1.2002,2.5817,2.5817,0,0,1,2.47559,1.395,2.72161,2.72161,0,0,1,2.47461-1.395,2.46388,2.46388,0,0,1,2.70019,2.625v5.02491h-1.42578v-4.72461c0-1.0503-.44922-1.7251-1.5-1.7251h-.14941a2.061,2.061,0,0,0-1.875,2.25v4.19971h-1.42481v-4.72461c0-1.0503-.45019-1.7251-1.5-1.7251h-.15039a2.06166,2.06166,0,0,0-1.875,2.25Z"/>
      <path d="M377.85352,356.99805a3.61117,3.61117,0,1,1,3.5996,3.8999A3.6332,3.6332,0,0,1,377.85352,356.99805Zm5.77441,0c0-1.72461-.90039-2.69971-2.09961-2.69971h-.15039c-1.2002,0-2.09961.9751-2.09961,2.69971,0,1.72509.89941,2.70019,2.09961,2.70019h.15039C382.72754,359.69824,383.62793,358.72314,383.62793,356.99805Z"/>
      <path d="M386.25293,358.42334h1.4248a1.48266,1.48266,0,0,0,1.65039,1.2749h.14942c.76562,0,1.38086-.375,1.38086-.9751,0-.48-.27051-.81-1.02051-.96l-1.09473-.21c-1.21484-.24023-2.19043-.87011-2.19043-2.145,0-1.5,1.335-2.31006,2.835-2.31006,1.96484,0,2.96972,1.0503,2.96972,2.4751h-1.4248a1.37916,1.37916,0,0,0-1.45508-1.2749h-.14942c-.82519,0-1.3496.43506-1.3496.96,0,.44971.2998.81006,1.0498.96l1.18457.23975a2.19132,2.19132,0,0,1,2.07031,2.18994c0,1.3501-1.21484,2.25-2.95508,2.25C387.333,360.898,386.32812,359.84814,386.25293,358.42334Z"/>
      <path d="M398.37305,360.74805h-1.79981a1.50111,1.50111,0,0,1-1.65039-1.64991v-4.61962h-1.64941v-1.23h1.64941v-2.43018h1.42578v2.43018h1.79981v1.23h-1.79981v4.39453c0,.45019.14942.60009.59961.60009h1.42481Z"/>
      <path d="M403.57812,353.24854h1.34961v1.6499a2.21534,2.21534,0,0,1,2.17481-1.7251h.6748v1.37988h-.59961a2.11569,2.11569,0,0,0-2.1748,2.39991v3.79492h-1.42481Z"/>
      <path d="M412.05273,360.898c-1.86035,0-3.54-1.29-3.54-3.91455a3.5321,3.5321,0,0,1,3.49511-3.88526,3.05623,3.05623,0,0,1,3.17969,3.3003v.8247h-5.25a2.30366,2.30366,0,0,0,2.11523,2.4751h.08985a1.50618,1.50618,0,0,0,1.60449-1.16992h1.4248A2.90044,2.90044,0,0,1,412.05273,360.898Zm-2.02539-4.79981h3.73536a1.6425,1.6425,0,0,0-1.68067-1.7998h-.14941A1.96051,1.96051,0,0,0,410.02734,356.09814Z"/>
      <path d="M416.53711,356.99805c0-2.20459,1.29-3.89991,3.60059-3.89991a2.84616,2.84616,0,0,1,3.07421,2.625h-1.4248a1.589,1.589,0,0,0-1.5752-1.4248h-.14941c-1.4248,0-2.09961,1.2749-2.09961,2.69971,0,1.42529.67481,2.70019,2.09961,2.70019h.14941a1.58905,1.58905,0,0,0,1.5752-1.42529h1.4248a2.84583,2.84583,0,0,1-3.07421,2.625C417.82715,360.898,416.53711,359.20313,416.53711,356.99805Z"/>
      <path d="M428.05762,360.898c-1.86035,0-3.54-1.29-3.54-3.91455a3.5321,3.5321,0,0,1,3.49512-3.88526,3.05623,3.05623,0,0,1,3.17968,3.3003v.8247h-5.25a2.30366,2.30366,0,0,0,2.11524,2.4751h.08984a1.50618,1.50618,0,0,0,1.60449-1.16992h1.42481A2.90044,2.90044,0,0,1,428.05762,360.898Zm-2.02539-4.79981h3.73535a1.6425,1.6425,0,0,0-1.68067-1.7998h-.14941A1.9605,1.9605,0,0,0,426.03223,356.09814Z"/>
      <path d="M434.417,360.74805h-1.4248v-7.49951h1.4248v1.0498a2.70924,2.70924,0,0,1,2.40039-1.2002,2.46389,2.46389,0,0,1,2.7002,2.625v5.02491H438.0918v-4.72461c0-1.0503-.44922-1.7251-1.5-1.7251h-.14942a2.07758,2.07758,0,0,0-2.02539,2.25Z"/>
      <path d="M445.8623,360.74805h-1.7998a1.50111,1.50111,0,0,1-1.65039-1.64991v-4.61962H440.7627v-1.23h1.64941v-2.43018h1.42578v2.43018h1.79981v1.23h-1.79981v4.39453c0,.45019.14941.60009.59961.60009h1.4248Z"/>
      <path d="M458.19141,356.99805c0,2.47509-1.5,3.8999-3.374,3.8999a2.66416,2.66416,0,0,1-2.32519-1.19971v4.04981h-1.42481V353.24854h1.42481v1.0498a2.94752,2.94752,0,0,1,2.47461-1.2002C456.8418,353.09814,458.19141,354.52344,458.19141,356.99805Zm-5.69922,0c0,1.80029,1.0498,2.70019,2.09961,2.70019h.15039c1.125,0,2.02441-.8999,2.02441-2.70019,0-1.79981-.89941-2.69971-2.02441-2.69971h-.15039C453.542,354.29834,452.49219,355.19824,452.49219,356.99805Z"/>
      <path d="M459.52734,356.99805a3.61117,3.61117,0,1,1,3.59961,3.8999A3.6332,3.6332,0,0,1,459.52734,356.99805Zm5.77442,0c0-1.72461-.90039-2.69971-2.09961-2.69971h-.15039c-1.2002,0-2.09961.9751-2.09961,2.69971,0,1.72509.89941,2.70019,2.09961,2.70019h.15039C464.40137,359.69824,465.30176,358.72314,465.30176,356.99805Z"/>
      <path d="M467.92676,358.42334h1.4248a1.48266,1.48266,0,0,0,1.65039,1.2749h.14942c.76562,0,1.38086-.375,1.38086-.9751,0-.48-.27051-.81-1.02051-.96l-1.09473-.21c-1.21484-.24023-2.19043-.87011-2.19043-2.145,0-1.5,1.335-2.31006,2.835-2.31006,1.96485,0,2.96973,1.0503,2.96973,2.4751h-1.4248a1.37916,1.37916,0,0,0-1.45508-1.2749H471.002c-.82519,0-1.34961.43506-1.34961.96,0,.44971.29981.81006,1.04981.96l1.18457.23975A2.19132,2.19132,0,0,1,473.957,358.648c0,1.3501-1.21484,2.25-2.95508,2.25C469.00684,360.898,468.002,359.84814,467.92676,358.42334Z"/>
      <path d="M480.04687,360.74805h-1.80078a1.50038,1.50038,0,0,1-1.64941-1.64991v-4.61962h-1.65039v-1.23h1.65039v-2.43018h1.4248v2.43018h1.79981v1.23h-1.79981v4.39453c0,.45019.15039.60009.59961.60009h1.42578Z"/>
      <path d="M481.00684,358.42334h1.4248a1.48226,1.48226,0,0,0,1.64941,1.2749h.1504c.76464,0,1.37988-.375,1.37988-.9751,0-.48-.26953-.81-1.01953-.96l-1.09571-.21c-1.21484-.24023-2.18945-.87011-2.18945-2.145,0-1.5,1.335-2.31006,2.835-2.31006,1.96485,0,2.96973,1.0503,2.96973,2.4751h-1.42481a1.37978,1.37978,0,0,0-1.45507-1.2749h-.1504c-.82421,0-1.3496.43506-1.3496.96,0,.44971.2998.81006,1.0498.96l1.18555.23975a2.19048,2.19048,0,0,1,2.06933,2.18994c0,1.3501-1.21484,2.25-2.95508,2.25C482.08691,360.898,481.08105,359.84814,481.00684,358.42334Z"/>
    </g>
    <g>
      <path d="M590.36426,304.938h1.875l-.38965,1.7998h-1.875Z"/>
      <path d="M595.11914,308.10254a1.585,1.585,0,0,1-1.65039,1.41016h-2.35449l.27051-1.27491h1.76953c.2998,0,.53906-.1499.62988-.585l1.78418-8.41455h1.42578Zm.97461-11.86426h1.5752l-.34473,1.6499H595.749Z"/>
      <path d="M600.59375,306.8877c-1.875,0-3.04492-.92969-3.10547-2.47461h1.45508c.06055.91455.79492,1.2749,1.69531,1.2749.8252,0,1.42578-.40528,1.42578-1.03516,0-.43506-.33008-.75-.85547-.915l-.85546-.27c-1.125-.35986-1.84473-.97461-1.84473-2.0249,0-1.29,1.125-2.355,2.86523-2.355a2.60607,2.60607,0,0,1,2.89453,2.4751h-1.44043a1.38217,1.38217,0,0,0-1.54492-1.2749c-.80957,0-1.3789.41992-1.3789,1.0498,0,.43506.2998.75.82422.915l.90039.28516c.88476.28466,1.85937.79492,1.85937,2.085C603.48828,305.97266,602.24414,306.8877,600.59375,306.8877Z"/>
      <path d="M605.21387,303.42285a4.1462,4.1462,0,0,1,4.03515-4.335c2.17481,0,3.28418,1.43994,3.28418,3.46484a4.14513,4.14513,0,0,1-4.03418,4.335C606.32422,306.8877,605.21387,305.44775,605.21387,303.42285Zm3.94433-3.13476a2.81045,2.81045,0,0,0-2.51953,3.06c0,1.34961.67578,2.33985,1.9502,2.33985a2.81049,2.81049,0,0,0,2.5205-3.06006C611.10937,301.27783,610.43359,300.28809,609.1582,300.28809Z"/>
      <path d="M614.93359,306.73779h-1.4248l1.59082-7.49951h1.42383l-.22461,1.09473a2.84549,2.84549,0,0,1,2.37012-1.24512,2.23679,2.23679,0,0,1,2.28027,2.29492,4.39046,4.39046,0,0,1-.07617.75l-.97461,4.605h-1.42481l.96-4.48486a4.43384,4.43384,0,0,0,.06055-.62988,1.19014,1.19014,0,0,0-1.33594-1.335c-1.03418,0-2.02441.76513-2.39941,2.5498Z"/>
      <path d="M632.60352,300.46826h-3.59961l-1.33594,6.26953h-1.42383l1.334-6.26953h-1.63476l.25586-1.23H627.834l.34473-1.59033a1.54706,1.54706,0,0,1,1.62012-1.40967h2.35449l-.27051,1.24512h-1.73926c-.38964,0-.55566.21-.6455.61474l-.24024,1.14014h5.02539l-1.58984,7.49951h-1.42481Zm.79492-4.23h1.57422l-.34375,1.6499h-1.57618Z"/>
      <path d="M637.17773,296.23828h1.42579l-2.23438,10.49951h-1.42578Z"/>
      <path d="M642.24805,306.8877a3.1873,3.1873,0,0,1-3.29883-3.46485,4.093,4.093,0,0,1,4.08008-4.335,2.77745,2.77745,0,0,1,2.86425,3.0752,5.33665,5.33665,0,0,1-.165,1.0498h-5.42969v.21a2.04906,2.04906,0,0,0,2.02539,2.26514,1.90248,1.90248,0,0,0,1.88867-1.16992h1.42578A3.23371,3.23371,0,0,1,642.24805,306.8877Zm-1.73926-4.79981h4.02051a2.78232,2.78232,0,0,0,.01367-.34473,1.48406,1.48406,0,0,0-1.64942-1.45507A2.4407,2.4407,0,0,0,640.50879,302.08789Z"/>
      <path d="M649.74805,306.8877c-1.875,0-3.04493-.92969-3.10547-2.47461h1.45508c.06054.91455.79492,1.2749,1.69531,1.2749.82519,0,1.42578-.40528,1.42578-1.03516,0-.43506-.33008-.75-.85547-.915l-.85547-.27c-1.125-.35986-1.84472-.97461-1.84472-2.0249,0-1.29,1.125-2.355,2.86523-2.355a2.60607,2.60607,0,0,1,2.89453,2.4751h-1.44043a1.38217,1.38217,0,0,0-1.54492-1.2749c-.80957,0-1.37891.41992-1.37891,1.0498,0,.43506.29981.75.82422.915l.90039.28516c.88477.28466,1.85938.79492,1.85938,2.085C652.64258,305.97266,651.39844,306.8877,649.74805,306.8877Z"/>
    </g>
    <g>
      <path d="M336.97852,508.19385c0,5.40039-3.35938,8.64111-7.91993,8.64111s-7.92089-3.24072-7.92089-8.64111,3.36035-8.64063,7.92089-8.64063S336.97852,502.79346,336.97852,508.19385Zm-7.80079,6.481c3.1211,0,5.40039-2.40039,5.40039-6.481,0-4.08008-2.27929-6.48047-5.40039-6.48047h-.23925c-3.12012,0-5.40039,2.40039-5.40039,6.48047,0,4.08056,2.28027,6.481,5.40039,6.481Z"/>
      <path d="M351.35449,510.59424c0,3.96045-2.40039,6.24072-5.40039,6.24072a4.26458,4.26458,0,0,1-3.7207-1.92041V521.395h-2.28028V504.59375h2.28028v1.68018a4.71759,4.71759,0,0,1,3.96094-1.92041C349.19434,504.35352,351.35449,506.63379,351.35449,510.59424Zm-9.12109,0c0,2.88037,1.68066,4.32031,3.36035,4.32031h.24023c1.79981,0,3.24024-1.43994,3.24024-4.32031s-1.44043-4.32031-3.24024-4.32031h-.24023C343.91406,506.27393,342.2334,507.71387,342.2334,510.59424Z"/>
      <path d="M359.17773,516.835c-2.97656,0-5.66406-2.06445-5.66406-6.26465,0-4.15234,2.75977-6.21679,5.5918-6.21679,3.12109,0,5.08887,2.16015,5.08887,5.28076v1.31982H355.793c.14453,2.73633,1.89648,3.96045,3.38476,3.96045h.14454a2.41084,2.41084,0,0,0,2.56738-1.87207h2.28027C363.78613,515.51465,361.67383,516.835,359.17773,516.835Zm-3.24023-7.68066h5.97656c-.0957-2.08838-1.34375-2.88037-2.68847-2.88037h-.24024C357.76172,506.27393,356.36914,507.01807,355.9375,509.1543Z"/>
      <path d="M369.35352,516.59473h-2.28125v-12.001h2.28125v1.68018a4.33225,4.33225,0,0,1,3.83984-1.92041,3.94205,3.94205,0,0,1,4.32031,4.20068v8.04053H375.2334v-7.56055c0-1.68018-.71973-2.76025-2.40039-2.76025h-.23926a3.32348,3.32348,0,0,0-3.24023,3.60009Z"/>
      <path d="M387.208,499.79346h7.20117c3.12012,0,5.28027,1.91992,5.28027,4.56006a4.244,4.244,0,0,1-2.75976,4.24853c1.91992,0,2.51953.67188,2.51953,2.352v5.64063h-2.40039V511.5542c0-1.31982-.35938-1.68018-1.67969-1.68018H389.6084v6.72071H387.208Zm6.84082,7.92041a2.96687,2.96687,0,0,0,3.24023-3c0-1.8003-1.20019-2.76026-3.24023-2.76026H389.6084v5.76026Z"/>
      <path d="M408.1123,516.835c-2.97558,0-5.66406-2.06445-5.66406-6.26465,0-4.15234,2.75977-6.21679,5.59278-6.21679,3.11914,0,5.08789,2.16015,5.08789,5.28076v1.31982h-8.40039c.14355,2.73633,1.8955,3.96045,3.38378,3.96045h.14454a2.41018,2.41018,0,0,0,2.56738-1.87207h2.28125C412.7207,515.51465,410.6084,516.835,408.1123,516.835Zm-3.24023-7.68066h5.97656c-.0957-2.08838-1.34375-2.88037-2.68847-2.88037h-.24024C406.69629,506.27393,405.30469,507.01807,404.87207,509.1543Z"/>
      <path d="M417.16016,516.59473V506.562h-2.64063v-1.96826h2.64063v-2.28027a2.22712,2.22712,0,0,1,2.51953-2.52H423.041v1.99218h-2.64063c-.7207,0-.96.23975-.96.96v1.84814h8.04v12.001h-2.2793V506.562h-5.76074v10.03272Zm7.92089-16.80127h2.52051v2.64013h-2.52051Z"/>
      <path d="M433.35937,516.59473H431.0791v-12.001h2.28027v1.68018a4.33408,4.33408,0,0,1,3.84083-1.92041,3.94205,3.94205,0,0,1,4.32031,4.20068v8.04053h-2.28028v-7.56055c0-1.68018-.7207-2.76025-2.40039-2.76025h-.24023a3.324,3.324,0,0,0-3.24024,3.60009Z"/>
      <path d="M449.94336,516.835c-2.97559,0-5.66406-2.06445-5.66406-6.26465,0-4.15234,2.75976-6.21679,5.59277-6.21679,3.12012,0,5.08789,2.16015,5.08789,5.28076v1.31982h-8.40039c.14355,2.73633,1.89551,3.96045,3.38379,3.96045h.14453a2.41188,2.41188,0,0,0,2.56836-1.87207h2.28027C454.55273,515.51465,452.43945,516.835,449.94336,516.835Zm-3.24024-7.68066h5.97657c-.09571-2.08838-1.34375-2.88037-2.6875-2.88037H449.752C448.52734,506.27393,447.13574,507.01807,446.70312,509.1543Z"/>
    </g>
    <g>
      <path d="M369.82227,816.69922a5.76552,5.76552,0,0,1-4.79981,2.13574c-4.9209,0-8.16113-3.60058-8.16113-8.6416,0-5.04,3.12012-8.64063,8.16113-8.64063,4.32031,0,6.60059,2.4961,6.84082,5.76172h-2.40039c-.24023-2.30468-1.80078-3.60156-4.32031-3.60156h-.24024c-3.36035,0-5.64062,2.40039-5.64062,6.48047,0,4.08105,2.28027,6.48144,5.64062,6.48144h.24024c3,0,4.67969-1.84863,4.67969-4.00878V812.21h-4.79981v-2.13574h4.91992a1.836,1.836,0,0,1,2.04,2.04v6.48047h-2.16015Z"/>
      <path d="M380.1416,818.835c-2.97656,0-5.665-2.06445-5.665-6.26465,0-4.15234,2.76074-6.21679,5.59278-6.21679,3.12011,0,5.08886,2.16015,5.08886,5.28125v1.31933h-8.40039c.14356,2.73633,1.89551,3.96,3.38379,3.96h.14356a2.41158,2.41158,0,0,0,2.56836-1.87109h2.28027C384.75,817.51465,382.6377,818.835,380.1416,818.835Zm-3.24023-7.68066h5.97656c-.09668-2.08789-1.34473-2.88086-2.68848-2.88086h-.24023C378.72559,808.27344,377.333,809.01758,376.90137,811.1543Z"/>
      <path d="M399.4375,812.59375c0,3.96094-2.39941,6.24121-5.40039,6.24121a4.26314,4.26314,0,0,1-3.71973-1.9209v6.48047h-2.28027V806.59375h2.28027v1.67969a4.71539,4.71539,0,0,1,3.96-1.91992C397.27734,806.35352,399.4375,808.63379,399.4375,812.59375Zm-9.12012,0c0,2.88086,1.67969,4.32031,3.36035,4.32031h.24024c1.7998,0,3.24023-1.43945,3.24023-4.32031,0-2.87988-1.44043-4.32031-3.24023-4.32031h-.24024C391.99707,808.27344,390.31738,809.71387,390.31738,812.59375Z"/>
      <path d="M404.59668,818.59473h-2.28027V801.793h2.28027v6.48047a4.33378,4.33378,0,0,1,3.84082-1.91992,3.94194,3.94194,0,0,1,4.32031,4.20117v8.04h-2.28027v-7.56055c0-1.68066-.71973-2.76074-2.40039-2.76074h-.24024a3.32449,3.32449,0,0,0-3.24023,3.60058Z"/>
      <path d="M416.11621,801.793h2.52051v2.64062h-2.52051Zm.12012,4.80078h2.28027v12.001h-2.28027Z"/>
    </g>
    <g>
      <path d="M360.71289,588.793h12.24023v2.16016h-9.83984V595.874h8.40039v2.16016h-8.40039v5.40039h10.08008v2.16016H360.71289Z"/>
      <path d="M380.34473,601.29883l-3.14453,4.2959h-2.5918l4.44043-6.04785-4.32031-5.95313h2.66406l3,4.12891,3.02441-4.12891h2.59278l-4.32032,5.9043,4.43946,6.09668h-2.66407Z"/>
      <path d="M387.041,599.59375c0-3.52734,2.06347-6.24023,5.75976-6.24023,2.73633,0,4.68067,1.60839,4.9209,4.20117h-2.28027a2.54392,2.54392,0,0,0-2.52051-2.28125h-.23926c-2.28125,0-3.36133,2.041-3.36133,4.32031,0,2.28125,1.08008,4.32031,3.36133,4.32031h.23926a2.54219,2.54219,0,0,0,2.52051-2.27929h2.28027c-.24023,2.59179-2.18457,4.20019-4.9209,4.20019C389.10449,605.835,387.041,603.12305,387.041,599.59375Z"/>
      <path d="M405.47266,605.835c-2.97559,0-5.66407-2.06445-5.66407-6.26465,0-4.15234,2.75977-6.21679,5.59278-6.21679,3.12011,0,5.08789,2.16015,5.08789,5.28125v1.31933h-8.40039c.14355,2.73633,1.8955,3.96,3.38379,3.96h.14453a2.41158,2.41158,0,0,0,2.56836-1.87109h2.28027C410.082,604.51465,407.96875,605.835,405.47266,605.835Zm-3.24024-7.68066H408.209c-.0957-2.08789-1.34375-2.88086-2.6875-2.88086h-.24023C404.05664,595.27344,402.665,596.01758,402.23242,598.1543Z"/>
      <path d="M413.36816,588.793h2.28028v16.80176h-2.28028Z"/>
    </g>
    <g>
      <path d="M422.71289,629.71289h-1.4248c0-.97461-.69043-1.4248-1.65039-1.4248-1.46973,0-2.59473,1.36425-2.59473,3.22461a2.02856,2.02856,0,0,0,3.96.75h1.4248a3.358,3.358,0,0,1-3.43457,2.625,3.10639,3.10639,0,0,1-3.375-3.29981c.01465-2.79,1.875-4.5,4.10938-4.5A2.684,2.684,0,0,1,422.71289,629.71289Z"/>
      <path d="M423.85254,631.42285a4.1459,4.1459,0,0,1,4.03516-4.335c2.1748,0,3.28515,1.43945,3.28515,3.46484a4.14591,4.14591,0,0,1-4.03515,4.335C424.96289,634.8877,423.85254,633.44727,423.85254,631.42285Zm3.94531-3.13476a2.81,2.81,0,0,0-2.52051,3.05957c0,1.34961.67578,2.33984,1.9502,2.33984a2.81,2.81,0,0,0,2.52051-3.05957C429.74805,629.27734,429.07227,628.28809,427.79785,628.28809Z"/>
      <path d="M433.57227,634.73828h-1.42383l2.23437-10.5h1.42481l-.87012,4.08008a2.89054,2.89054,0,0,1,2.37012-1.23047,2.224,2.224,0,0,1,2.26465,2.29492,4.39287,4.39287,0,0,1-.07422.75l-.97559,4.60547h-1.4248l.96-4.48535a4.46827,4.46827,0,0,0,.07519-.62988,1.18984,1.18984,0,0,0-1.335-1.335c-1.03515,0-2.02539.76464-2.40039,2.5498Z"/>
      <path d="M447.29785,628.58789l.29981-1.34961h1.4248l-1.58984,7.5h-1.41016l.21-.96094a2.84172,2.84172,0,0,1-2.29492,1.11036,2.921,2.921,0,0,1-2.9248-3.19434c0-2.791,1.67968-4.60547,3.75-4.60547A2.699,2.699,0,0,1,447.29785,628.58789Zm-3.06055,5.09961c1.62012,0,2.61036-1.58984,2.61036-3.34473a1.89941,1.89941,0,0,0-1.93555-2.05468c-1.21484,0-2.47461,1.16992-2.47461,3.2998A1.86128,1.86128,0,0,0,444.2373,633.6875Z"/>
      <path d="M452.62207,634.8877c-1.874,0-3.04395-.92969-3.10449-2.47461h1.45508c.05957.915.79492,1.27441,1.69531,1.27441.82422,0,1.42383-.4043,1.42383-1.03516,0-.43457-.3291-.75-.8545-.91406l-.85449-.27051c-1.125-.36035-1.8457-.97461-1.8457-2.02441,0-1.291,1.125-2.35547,2.86523-2.35547a2.60548,2.60548,0,0,1,2.89453,2.47461h-1.43945a1.38287,1.38287,0,0,0-1.54492-1.27441c-.81055,0-1.37988.41992-1.37988,1.0498,0,.43555.2998.75.82519.915l.89942.28516c.88476.28418,1.86035.79492,1.86035,2.085C455.51758,633.97266,454.27246,634.8877,452.62207,634.8877Z"/>
      <path d="M458.33789,634.73828h-1.42578l2.23535-10.5h1.42481l-.87012,4.08008a2.89184,2.89184,0,0,1,2.37012-1.23047,2.224,2.224,0,0,1,2.26464,2.29492,4.39657,4.39657,0,0,1-.07519.75l-.97461,4.60547H461.8623l.96-4.48535a4.46827,4.46827,0,0,0,.07519-.62988,1.18984,1.18984,0,0,0-1.335-1.335c-1.03516,0-2.02539.76464-2.40039,2.5498Z"/>
      <path d="M466.4375,633.46289a1.72553,1.72553,0,0,1,.04492-.39062l.96-4.60352h-1.71l.25488-1.23047h1.74024l.52441-2.42969h1.37989l-.52442,2.42969h1.875l-.25586,1.23047h-1.88965l-.915,4.34961a1.17064,1.17064,0,0,0-.02929.22461c0,.28516.26953.41992.55469.41992h1.60449l-.26953,1.27539h-1.875C466.96191,634.73828,466.4375,634.24219,466.4375,633.46289Z"/>
      <path d="M477.77734,628.58789l.29981-1.34961h1.4248l-1.58984,7.5H476.502l.21094-.96094a2.84454,2.84454,0,0,1-2.29492,1.11036,2.92176,2.92176,0,0,1-2.92578-3.19434c0-2.791,1.67968-4.60547,3.75-4.60547A2.6979,2.6979,0,0,1,477.77734,628.58789Zm-3.06054,5.09961c1.62109,0,2.61035-1.58984,2.61035-3.34473a1.8992,1.8992,0,0,0-1.93457-2.05468c-1.21485,0-2.47461,1.16992-2.47461,3.2998A1.86058,1.86058,0,0,0,474.7168,633.6875Z"/>
      <path d="M479.72754,635.71289h1.4248c.12012.73438.8252,1.10938,1.88965,1.10938a2.38149,2.38149,0,0,0,2.415-2.17383l.21-.90039a2.9026,2.9026,0,0,1-2.19043.99023,2.93236,2.93236,0,0,1-2.9541-3.27051c0-2.71484,1.75488-4.37988,3.67481-4.37988a2.60668,2.60668,0,0,1,2.5498,1.53027v.01465l.28516-1.39453h1.4248l-1.65039,7.72461a3.61288,3.61288,0,0,1-3.92969,3.04492C481.25781,638.00781,479.877,637.30273,479.72754,635.71289Zm2.21973-4.30469a1.86035,1.86035,0,0,0,1.85937,2.12891c1.54492,0,2.47559-1.46875,2.47559-3.04395a1.95725,1.95725,0,0,0-1.98047-2.20507C483.10156,628.28809,481.94727,629.5332,481.94727,631.4082Z"/>
    </g>
    <g>
      <path d="M293.80566,624.23828h4.42481a3.18534,3.18534,0,1,1,0,6.35938h-2.92481v4.13964h-1.5Zm4.2002,5.00977c1.34961,0,2.09961-.62989,2.09961-1.83008s-.75-1.83008-2.09961-1.83008h-2.7002v3.66016Z"/>
      <path d="M303.15039,624.23828h1.5752v1.64942h-1.5752Zm.0752,3h1.4248v7.499h-1.4248Z"/>
      <path d="M306.45117,630.9873c0-2.2041,1.28906-3.89941,3.59961-3.89941a2.84583,2.84583,0,0,1,3.07422,2.625h-1.4248a1.58933,1.58933,0,0,0-1.5752-1.4248h-.14941c-1.42481,0-2.10059,1.27441-2.10059,2.69921,0,1.42579.67578,2.7002,2.10059,2.7002h.14941a1.58933,1.58933,0,0,0,1.5752-1.4248h1.4248a2.84584,2.84584,0,0,1-3.07422,2.625C307.74023,634.8877,306.45117,633.19238,306.45117,630.9873Z"/>
      <path d="M319.96484,634.7373H318.54v-7.499h1.4248v1.04981a2.70922,2.70922,0,0,1,2.40039-1.2002,2.46288,2.46288,0,0,1,2.69922,2.625v5.02441h-1.42383v-4.7246c0-1.04981-.45117-1.72461-1.5-1.72461h-.15039a2.07729,2.07729,0,0,0-2.02539,2.25Z"/>
      <path d="M331.69531,634.7373a8.26608,8.26608,0,0,1-.07519-1.20019,2.61474,2.61474,0,0,1-2.39942,1.35059,2.29227,2.29227,0,0,1-2.47558-2.21973c0-1.71,1.51465-2.2207,2.72949-2.3252l2.07031-.165v-.24023a1.47967,1.47967,0,0,0-1.57519-1.64941h-.0752c-.80957,0-1.48437.375-1.57422,1.125h-1.4248c.08984-1.37989,1.335-2.3252,3.02929-2.3252a2.79417,2.79417,0,0,1,3.04493,2.84961v3.15039a12.67361,12.67361,0,0,0,.07519,1.64941Zm-2.02539-3.31445c-.87012.0752-1.5.49512-1.5,1.18457a1.11632,1.11632,0,0,0,1.2002,1.08008h.14941c.90039,0,2.02539-.75,2.02539-1.64941v-.76563Z"/>
      <path d="M336.57031,634.7373h-1.42578v-7.499h1.42578v1.04981a2.62364,2.62364,0,0,1,2.25-1.2002,2.57988,2.57988,0,0,1,2.47461,1.39453,2.722,2.722,0,0,1,2.47461-1.39453,2.46365,2.46365,0,0,1,2.7002,2.625v5.02441h-1.42481v-4.7246c0-1.04981-.45019-1.72461-1.5-1.72461h-.15039a2.06071,2.06071,0,0,0-1.875,2.25v4.19921h-1.4248v-4.7246c0-1.04981-.4502-1.72461-1.5-1.72461h-.14942a2.06071,2.06071,0,0,0-1.875,2.25Z"/>
      <path d="M351.73437,634.8877c-1.85937,0-3.53906-1.29-3.53906-3.915a3.53178,3.53178,0,0,1,3.49414-3.88477,3.05533,3.05533,0,0,1,3.17969,3.29981v.82519h-5.249a2.3031,2.3031,0,0,0,2.11425,2.47461h.09083a1.5075,1.5075,0,0,0,1.60449-1.16992h1.4248A2.9012,2.9012,0,0,1,351.73437,634.8877ZM349.71,630.08789h3.73535a1.643,1.643,0,0,0-1.68066-1.7998h-.14942A1.95985,1.95985,0,0,0,349.71,630.08789Z"/>
    </g>
    <g>
      <path d="M337.33691,897.793h2.40039v16.80176h-2.40039Z"/>
      <path d="M343.69727,897.793h2.27929v16.80176h-2.27929Z"/>
      <path d="M349.57617,897.793h2.28125v16.80176h-2.28125Z"/>
      <path d="M365.53711,914.59473h-2.2793v-2.28028A3.86376,3.86376,0,0,1,359.417,914.835c-2.68847,0-4.08008-1.7998-4.08008-4.32129v-7.91992h2.28028v7.44043c0,1.9209.792,2.87988,2.40039,2.87988h.23926c1.51269,0,3.001-1.43945,3.001-3.83984v-6.48047h2.2793Z"/>
      <path d="M368.2002,910.875h2.28027a2.37191,2.37191,0,0,0,2.64062,2.03906h.24024c1.22363,0,2.208-.59961,2.208-1.55957,0-.76855-.43262-1.2959-1.63184-1.53613l-1.75293-.33594c-1.94434-.38476-3.50391-1.39258-3.50391-3.43262,0-2.39941,2.13575-3.69628,4.53614-3.69628,3.14453,0,4.752,1.67968,4.752,3.96093h-2.2793a2.20892,2.20892,0,0,0-2.32812-2.041h-.24024c-1.32031,0-2.16015.69629-2.16015,1.53711,0,.71972.47949,1.29492,1.67968,1.53515l1.89649.38477c1.82422.35937,3.3125,1.34375,3.3125,3.50391s-1.94434,3.60058-4.72852,3.60058C369.92871,914.835,368.32031,913.1543,368.2002,910.875Z"/>
      <path d="M387.59375,914.59473h-2.88086a2.40161,2.40161,0,0,1-2.64062-2.63965V904.5625h-2.63965v-1.96875h2.63965v-3.88867h2.28027v3.88867h2.88086v1.96875h-2.88086v7.03125c0,.7207.24023.96094.96.96094h2.28125Z"/>
      <path d="M390.06445,902.59375h2.16016v2.64063a3.54476,3.54476,0,0,1,3.48047-2.76075h1.08008v2.208h-.96094c-2.16016,0-3.47949,1.44043-3.47949,3.83984v6.07325h-2.28028Z"/>
      <path d="M406.001,914.59473a13.24681,13.24681,0,0,1-.12012-1.91993A4.18606,4.18606,0,0,1,402.041,914.835a3.66848,3.66848,0,0,1-3.96094-3.55273c0-2.73535,2.4248-3.55176,4.36914-3.71973l3.31152-.26465v-.38379a2.369,2.369,0,0,0-2.52051-2.64062h-.11914c-1.29687,0-2.37695.60058-2.5205,1.80078h-2.28028c.14453-2.209,2.13672-3.7207,4.84864-3.7207,3.19238,0,4.87207,2.1123,4.87207,4.56054v5.041a20.31784,20.31784,0,0,0,.12011,2.63965ZM402.76074,909.29c-1.3916.12012-2.40039.792-2.40039,1.89648a1.7869,1.7869,0,0,0,1.9209,1.72754h.23926c1.44043,0,3.24023-1.19922,3.24023-2.63965v-1.22363Z"/>
      <path d="M418.12109,914.59473h-2.88086a2.40089,2.40089,0,0,1-2.63964-2.63965V904.5625H409.96v-1.96875h2.64063v-3.88867h2.28027v3.88867h2.87988v1.96875h-2.87988v7.03125c0,.7207.24023.96094.96.96094h2.28027Z"/>
      <path d="M419.72852,908.59375c0-3.71973,2.5205-6.24023,5.76074-6.24023s5.76074,2.5205,5.76074,6.24023c0,3.7207-2.52051,6.24121-5.76074,6.24121S419.72852,912.31445,419.72852,908.59375Zm9.24023,0c0-2.75977-1.43945-4.32031-3.35938-4.32031h-.24023c-1.91992,0-3.36035,1.56054-3.36035,4.32031,0,2.76074,1.44043,4.32031,3.36035,4.32031h.24023C427.5293,912.91406,428.96875,911.35449,428.96875,908.59375Z"/>
      <path d="M434.10449,902.59375h2.16016v2.64063a3.544,3.544,0,0,1,3.48047-2.76075h1.08008v2.208h-.96c-2.16015,0-3.48046,1.44043-3.48046,3.83984v6.07325h-2.28028Z"/>
    </g>
    <g>
      <path d="M318.42578,992.793h2.544l5.80859,14.61719,5.56836-14.61719h2.52051l-6.60157,16.80176h-3.12011Z"/>
      <path d="M336.7373,992.793h2.52051v2.64062H336.7373Zm.12012,4.80078h2.28028v12.001h-2.28028Z"/>
      <path d="M341.80078,1005.875h2.28027a2.37192,2.37192,0,0,0,2.64063,2.03906h.23926c1.22461,0,2.209-.59961,2.209-1.55957,0-.76855-.43164-1.2959-1.63281-1.53613l-1.75195-.33594c-1.94336-.38476-3.50391-1.39258-3.50391-3.43262,0-2.39941,2.13574-3.69628,4.53613-3.69628,3.14453,0,4.75293,1.67968,4.75293,3.96093H349.29a2.20924,2.20924,0,0,0-2.3291-2.041h-.23926c-1.32031,0-2.16016.69629-2.16016,1.53711,0,.71972.4795,1.29492,1.67969,1.53515l1.89649.38477c1.82421.35937,3.3125,1.34375,3.3125,3.50391s-1.94434,3.60058-4.72852,3.60058C343.5293,1009.835,341.9209,1008.1543,341.80078,1005.875Z"/>
      <path d="M364.50586,1009.59473h-2.28027v-2.28028a3.86152,3.86152,0,0,1-3.83985,2.52051c-2.68847,0-4.08105-1.7998-4.08105-4.32129v-7.91992h2.28125v7.44043c0,1.9209.791,2.87988,2.39941,2.87988h.24024c1.51269,0,3-1.43945,3-3.83984v-6.48047h2.28027Z"/>
      <path d="M375.2334,1009.59473a13.24681,13.24681,0,0,1-.12012-1.91993,4.18606,4.18606,0,0,1-3.83984,2.16016,3.66848,3.66848,0,0,1-3.96094-3.55273c0-2.73535,2.4248-3.55176,4.36914-3.71973l3.31152-.26465v-.38379a2.369,2.369,0,0,0-2.5205-2.64062h-.11914c-1.29688,0-2.377.60058-2.52051,1.80078h-2.28028c.14454-2.209,2.13672-3.7207,4.84864-3.7207,3.19238,0,4.87207,2.1123,4.87207,4.56054v5.041a20.31784,20.31784,0,0,0,.12011,2.63965Zm-3.24024-5.30469c-1.3916.12012-2.40039.792-2.40039,1.89648a1.7869,1.7869,0,0,0,1.9209,1.72754h.23926c1.44043,0,3.24023-1.19922,3.24023-2.63965v-1.22363Z"/>
      <path d="M380.75293,992.793h2.28027v16.80176h-2.28027Z"/>
      <path d="M386.5127,992.793h2.5205v2.64062h-2.5205Zm.12011,4.80078h2.28028v12.001h-2.28028Z"/>
      <path d="M391.7207,1009.59473v-2.04l6.91211-7.99219h-6.792v-1.96875h9.48047v2.04l-6.91309,7.99316h7.27344v1.96778Z"/>
      <path d="M411.49609,1009.59473a13.35439,13.35439,0,0,1-.11914-1.91993,4.18657,4.18657,0,0,1-3.84082,2.16016,3.66761,3.66761,0,0,1-3.96-3.55273c0-2.73535,2.42383-3.55176,4.36817-3.71973l3.3125-.26465v-.38379a2.369,2.369,0,0,0-2.52051-2.64062h-.12012c-1.2959,0-2.376.60058-2.52051,1.80078h-2.27929c.14355-2.209,2.13574-3.7207,4.84765-3.7207,3.19239,0,4.873,2.1123,4.873,4.56054v5.041a20.48192,20.48192,0,0,0,.11914,2.63965Zm-3.24023-5.30469c-1.3916.12012-2.39941.792-2.39941,1.89648a1.786,1.786,0,0,0,1.91992,1.72754h.24023c1.44043,0,3.24024-1.19922,3.24024-2.63965v-1.22363Z"/>
      <path d="M423.61719,1009.59473h-2.88086a2.40089,2.40089,0,0,1-2.63965-2.63965V999.5625h-2.64063v-1.96875h2.64063v-3.88867H420.377v3.88867h2.87989v1.96875H420.377v7.03125c0,.7207.24024.96094.96.96094h2.28028Z"/>
      <path d="M425.96875,992.793h2.51953v2.64062h-2.51953Zm.11914,4.80078h2.28027v12.001h-2.28027Z"/>
      <path d="M431.22461,1003.59375c0-3.71973,2.51953-6.24023,5.75976-6.24023s5.76075,2.5205,5.76075,6.24023c0,3.7207-2.52051,6.24121-5.76075,6.24121S431.22461,1007.31445,431.22461,1003.59375Zm9.24023,0c0-2.75977-1.44043-4.32031-3.36035-4.32031h-.24023c-1.91992,0-3.36035,1.56054-3.36035,4.32031,0,2.76074,1.44043,4.32031,3.36035,4.32031h.24023C439.02441,1007.91406,440.46484,1006.35449,440.46484,1003.59375Z"/>
      <path d="M447.87988,1009.59473h-2.28027v-12.001h2.28027v1.67969a4.33378,4.33378,0,0,1,3.84082-1.91992,3.942,3.942,0,0,1,4.32032,4.20117v8.04h-2.28028v-7.56055c0-1.68066-.71972-2.76074-2.40039-2.76074h-.24023a3.32449,3.32449,0,0,0-3.24024,3.60058Z"/>
    </g>
    <g>
      <path d="M334.1582,202.44824h2.40039v16.80127H334.1582Z"/>
      <path d="M342.79883,219.24951h-2.28028v-12.001h2.28028v1.68017a4.33346,4.33346,0,0,1,3.83984-1.92041A3.94158,3.94158,0,0,1,350.959,211.209v8.04053h-2.27929V211.689c0-1.68017-.72071-2.76025-2.40039-2.76025h-.24024a3.324,3.324,0,0,0-3.24023,3.6001Z"/>
      <path d="M353.502,215.5293h2.28028a2.37226,2.37226,0,0,0,2.64062,2.04h.23926c1.22461,0,2.209-.6001,2.209-1.56006,0-.76807-.43164-1.29639-1.63281-1.53614l-1.75195-.33593c-1.94336-.38428-3.50391-1.39209-3.50391-3.43262,0-2.3999,2.13574-3.69629,4.53613-3.69629,3.14454,0,4.75293,1.68018,4.75293,3.96045h-2.28027a2.20849,2.20849,0,0,0-2.3291-2.04h-.23926c-1.32031,0-2.16015.6958-2.16015,1.53613,0,.72022.47949,1.2959,1.67968,1.53614l1.89649.38379c1.82422.36035,3.3125,1.34423,3.3125,3.50439s-1.94434,3.60059-4.72852,3.60059C355.23047,219.48975,353.62207,217.80957,353.502,215.5293Z"/>
      <path d="M372.89453,219.24951h-2.87988a2.40059,2.40059,0,0,1-2.63965-2.64013V209.2168h-2.64063v-1.96826H367.375v-3.88819h2.2793v3.88819h2.88086v1.96826H369.6543V216.249c0,.72022.24023.96045.96093.96045h2.2793Z"/>
      <path d="M382.49414,219.24951a13.35427,13.35427,0,0,1-.11914-1.91992,4.18657,4.18657,0,0,1-3.84082,2.16016,3.66733,3.66733,0,0,1-3.96-3.55274c0-2.73584,2.42383-3.55224,4.36816-3.72021l3.3125-.26416v-.38379a2.36841,2.36841,0,0,0-2.52051-2.64014h-.12011c-1.2959,0-2.376.6001-2.52051,1.80029h-2.2793c.14356-2.20849,2.13575-3.7207,4.84766-3.7207,3.19238,0,4.87305,2.11231,4.87305,4.56055v5.04053a20.48533,20.48533,0,0,0,.11914,2.64013Zm-3.24023-5.30469c-1.39161.12012-2.39942.79248-2.39942,1.89649a1.7861,1.7861,0,0,0,1.91992,1.728h.24024c1.44043,0,3.24023-1.2002,3.24023-2.64014v-1.22412Z"/>
      <path d="M387.07812,220.80957h2.28028c.23926,1.2002,1.53613,1.80029,3.168,1.80029h.24023c2.04,0,3.48047-1.08007,3.48047-3.60058v-1.67969a4.15458,4.15458,0,0,1-3.60059,1.91992c-2.75976,0-5.32812-1.91992-5.32812-6.1206,0-4.2002,2.49609-6.12061,5.32812-6.12061a4.00075,4.00075,0,0,1,3.60059,1.92041v-1.68017h2.28027v12.001c0,3.00049-2.16015,5.28028-5.88086,5.28028C389.28613,224.52979,387.31836,222.96973,387.07812,220.80957Zm5.88086-3.48c1.63184,0,3.28809-1.56055,3.28809-4.20068s-1.53613-4.2002-3.16895-4.2002h-.24023c-1.67969,0-3.24023,1.2002-3.24023,4.2002,0,3.00048,1.44043,4.20068,3.12109,4.20068Z"/>
      <path d="M402.126,207.24854h2.16015v2.64013a3.54405,3.54405,0,0,1,3.48047-2.76025h1.08008v2.208h-.96c-2.16016,0-3.48047,1.44043-3.48047,3.84033v6.07275H402.126Z"/>
      <path d="M418.0625,219.24951a13.24669,13.24669,0,0,1-.12012-1.91992,4.1849,4.1849,0,0,1-3.83984,2.16016,3.6682,3.6682,0,0,1-3.96094-3.55274c0-2.73584,2.42481-3.55224,4.36817-3.72021l3.3125-.26416v-.38379a2.36817,2.36817,0,0,0-2.51954-2.64014h-.12011c-1.2959,0-2.376.6001-2.52051,1.80029h-2.28027c.14355-2.20849,2.13574-3.7207,4.84863-3.7207,3.19238,0,4.87207,2.11231,4.87207,4.56055v5.04053a20.31953,20.31953,0,0,0,.12012,2.64013Zm-3.24023-5.30469c-1.39258.12012-2.4004.79248-2.4004,1.89649a1.78667,1.78667,0,0,0,1.91993,1.728h.24023c1.44043,0,3.24024-1.2002,3.24024-2.64014v-1.22412Z"/>
      <path d="M425.8623,219.24951H423.582v-12.001h2.28027v1.68017a4.20011,4.20011,0,0,1,3.60059-1.92041,4.12883,4.12883,0,0,1,3.96,2.23242,4.35509,4.35509,0,0,1,3.96-2.23242,3.94158,3.94158,0,0,1,4.32031,4.20068v8.04053h-2.27929V211.689c0-1.68017-.72071-2.76025-2.40039-2.76025h-.24024c-1.44043,0-3,1.31983-3,3.6001v6.7207h-2.28027V211.689c0-1.68017-.7207-2.76025-2.40039-2.76025h-.24024c-1.44043,0-3,1.31983-3,3.6001Z"/>
    </g>
    <g>
      <path d="M605.66016,58.79346h2.40039v7.32031h8.5205V58.79346h2.4004V75.59473h-2.4004v-7.3208h-8.5205v7.3208h-2.40039Z"/>
      <path d="M638.15723,67.19385c0,5.40039-3.36036,8.64111-7.9209,8.64111s-7.9209-3.24072-7.9209-8.64111,3.36035-8.64063,7.9209-8.64063S638.15723,61.79346,638.15723,67.19385Zm-7.80078,6.481c3.12011,0,5.40039-2.40039,5.40039-6.481,0-4.08008-2.28028-6.48047-5.40039-6.48047h-.24024c-3.12012,0-5.40039,2.40039-5.40039,6.48047,0,4.08056,2.28027,6.481,5.40039,6.481Z"/>
      <path d="M650.32422,61.55371l-3.36035,14.041h-3.24024l-4.08008-16.80127h2.4961l3.28808,14.18506,3.43262-14.18506h3.14356l3.33691,14.30517,3.168-14.30517h2.49609L656.9248,75.59473h-3.24023Z"/>
      <path d="M672.45117,60.95361h-6V58.79346h14.40137v2.16015h-6.001V75.59473h-2.40039Z"/>
      <path d="M697.31641,67.19385c0,5.40039-3.36036,8.64111-7.9209,8.64111s-7.9209-3.24072-7.9209-8.64111,3.36035-8.64063,7.9209-8.64063S697.31641,61.79346,697.31641,67.19385Zm-7.80079,6.481c3.12012,0,5.4004-2.40039,5.4004-6.481,0-4.08008-2.28028-6.48047-5.4004-6.48047h-.24023c-3.12012,0-5.40039,2.40039-5.40039,6.48047,0,4.08056,2.28027,6.481,5.40039,6.481Z"/>
      <path d="M706.50684,58.79346H713.707c3.12109,0,5.28125,1.91992,5.28125,4.56006a4.2435,4.2435,0,0,1-2.76074,4.24853c1.9209,0,2.52051.67188,2.52051,2.352v5.64063h-2.40039V70.5542c0-1.31982-.35938-1.68018-1.67969-1.68018h-5.76074v6.72071h-2.40039Zm6.84082,7.92041a2.96687,2.96687,0,0,0,3.24023-3c0-1.8003-1.20019-2.76026-3.24023-2.76026h-4.44043v5.76026Z"/>
      <path d="M722.82617,58.79346h12.24219v2.16015h-9.8418V65.874h8.40137v2.16016h-8.40137v5.40039h10.08106v2.16016H722.82617Z"/>
      <path d="M748.627,71.27441h-8.0166l-1.67969,4.32032h-2.44824l6.64844-16.80127h3.07226l6.60059,16.80127h-2.49609Zm-4.00781-10.273-3.168,8.1128h6.33594Z"/>
      <path d="M755.1543,58.79346h6c4.68066,0,7.80078,3.12011,7.80078,8.40039,0,5.28076-3.12012,8.40088-7.80078,8.40088h-6ZM760.915,73.43457c3.60058,0,5.64062-2.16016,5.64062-6.24072,0-4.08008-2.04-6.24024-5.64062-6.24024h-3.36035v12.481Z"/>
    </g>
    <g>
      <path d="M639.84473,111.08789a1.20464,1.20464,0,0,1-1.35059-1.27539v-1.46973c-2.48926-.2998-4.25977-2.26464-4.25977-5.35547,0-3.374,2.10059-5.39941,4.9502-5.39941,2.85059,0,4.9502,2.02539,4.9502,5.39941,0,3.0752-1.74024,5.04-4.21485,5.35547v.79493c0,.45019.15039.5996.59961.5996h2.3252v1.35059Zm-.585-4.0498c1.94921,0,3.375-1.5,3.375-4.05079,0-2.5498-1.42579-4.0498-3.375-4.0498h-.1504c-1.94921,0-3.375,1.5-3.375,4.0498,0,2.55079,1.42579,4.05079,3.375,4.05079Z"/>
      <path d="M652.29492,108.2373h-1.4248v-1.4248a2.578,2.578,0,0,1-4.9502-1.125v-4.94922h1.42578v4.64942c0,1.20019.49414,1.7998,1.499,1.7998h.15039c.94433,0,1.875-.89941,1.875-2.39941v-4.04981h1.4248Z"/>
      <path d="M657.63477,108.3877c-1.85938,0-3.54-1.29-3.54-3.915a3.53246,3.53246,0,0,1,3.49511-3.88477,3.05584,3.05584,0,0,1,3.17969,3.29981v.82519h-5.25a2.30377,2.30377,0,0,0,2.11524,2.47461h.08984a1.5079,1.5079,0,0,0,1.60547-1.16992h1.42383A2.90019,2.90019,0,0,1,657.63477,108.3877Zm-2.0254-4.79981h3.73536a1.642,1.642,0,0,0-1.68067-1.7998h-.14941A1.96051,1.96051,0,0,0,655.60937,103.58789Z"/>
      <path d="M662.57031,100.73828h1.34961v1.64942a2.2141,2.2141,0,0,1,2.17481-1.72461h.6748V102.043h-.59961a2.116,2.116,0,0,0-2.17578,2.39941v3.79492h-1.42383Z"/>
      <path d="M667.834,111.0127v-1.2754h2.10059c.4502,0,.59961-.14941.59961-.5996v-1.04981l-3.14941-7.34961h1.51464l2.33985,5.53418,2.25-5.53418H674.959l-3.07421,7.334v1.36523a1.39256,1.39256,0,0,1-1.5752,1.5752Z"/>
    </g>
    <rect x="606.5" y="95.5" width="17" height="17" fill="#fff" stroke="#f5718d" stroke-miterlimit="10"/>
    <g>
      <path d="M742.84961,97.73828h3.75c2.92578,0,4.875,1.94922,4.875,5.249,0,3.30079-1.94922,5.25-4.875,5.25h-3.75Zm3.59961,9.14942c2.25,0,3.52539-1.34961,3.52539-3.9004,0-2.5498-1.27539-3.89941-3.52539-3.89941h-2.09961v7.79981Z"/>
      <path d="M756.43945,108.3877c-1.85937,0-3.53906-1.29-3.53906-3.915a3.53178,3.53178,0,0,1,3.49414-3.88477,3.05533,3.05533,0,0,1,3.17969,3.29981v.82519h-5.249a2.3031,2.3031,0,0,0,2.11425,2.47461h.08985a1.50791,1.50791,0,0,0,1.60547-1.16992h1.4248A2.9012,2.9012,0,0,1,756.43945,108.3877Zm-2.02441-4.79981h3.73535a1.64249,1.64249,0,0,0-1.68066-1.7998h-.14942A1.95985,1.95985,0,0,0,754.415,103.58789Z"/>
      <path d="M763.09961,108.2373l-2.77441-7.499h1.46972l2.17481,6.10449,2.1748-6.10449h1.45508l-2.77539,7.499Z"/>
      <path d="M768.88965,97.73828h1.57519V99.3877h-1.57519Zm.07519,3h1.42481v7.499h-1.42481Z"/>
      <path d="M772.18945,104.4873c0-2.2041,1.29-3.89941,3.59961-3.89941a2.84617,2.84617,0,0,1,3.0752,2.625h-1.42481a1.5886,1.5886,0,0,0-1.57519-1.4248h-.14942c-1.42578,0-2.09961,1.27441-2.09961,2.69921,0,1.42579.67383,2.7002,2.09961,2.7002h.14942a1.5886,1.5886,0,0,0,1.57519-1.4248h1.42481a2.84618,2.84618,0,0,1-3.0752,2.625C773.47949,108.3877,772.18945,106.69238,772.18945,104.4873Z"/>
      <path d="M783.709,108.3877c-1.85937,0-3.53906-1.29-3.53906-3.915a3.53178,3.53178,0,0,1,3.49414-3.88477,3.05533,3.05533,0,0,1,3.17969,3.29981v.82519h-5.249a2.3031,2.3031,0,0,0,2.11425,2.47461h.08985a1.5079,1.5079,0,0,0,1.60547-1.16992h1.4248A2.9012,2.9012,0,0,1,783.709,108.3877Zm-2.02441-4.79981h3.73535a1.64249,1.64249,0,0,0-1.68066-1.7998h-.14942A1.95985,1.95985,0,0,0,781.68457,103.58789Z"/>
    </g>
    <rect x="714.5" y="95.5" width="17" height="17" fill="#fff" stroke="#0073ff" stroke-miterlimit="10"/>
    <g>
      <path d="M637.50488,132.08789h-3.75v-1.34961h8.999v1.34961h-3.749v9.14941h-1.5Z"/>
      <path d="M641.87012,137.4873a3.61166,3.61166,0,1,1,3.59961,3.9004A3.63361,3.63361,0,0,1,641.87012,137.4873Zm5.77441,0c0-1.7246-.90039-2.69921-2.09961-2.69921h-.15039c-1.19922,0-2.09961.97461-2.09961,2.69921,0,1.72559.90039,2.7002,2.09961,2.7002h.15039C646.74414,140.1875,647.64453,139.21289,647.64453,137.4873Z"/>
      <path d="M650.39062,137.4873a3.61121,3.61121,0,1,1,3.59961,3.9004A3.63305,3.63305,0,0,1,650.39062,137.4873Zm5.77344,0c0-1.7246-.89941-2.69921-2.09961-2.69921H653.915c-1.2002,0-2.10059.97461-2.10059,2.69921,0,1.72559.90039,2.7002,2.10059,2.7002h.14941C655.26465,140.1875,656.16406,139.21289,656.16406,137.4873Z"/>
      <path d="M659.375,130.73828h1.42383v10.499H659.375Z"/>
    </g>
    <rect x="606.5" y="128.5" width="17" height="17" fill="#fff" stroke="#2b2b2b" stroke-miterlimit="10"/>
    <g>
      <path d="M752.13477,135.9873c0,3.375-2.09961,5.4004-4.9502,5.4004-2.84961,0-4.9502-2.0254-4.9502-5.4004,0-3.374,2.10059-5.39941,4.9502-5.39941C750.03516,130.58789,752.13477,132.61328,752.13477,135.9873Zm-4.875,4.05079c1.94921,0,3.375-1.5,3.375-4.05079,0-2.5498-1.42579-4.0498-3.375-4.0498h-.1504c-1.94921,0-3.375,1.5-3.375,4.0498,0,2.55079,1.42579,4.05079,3.375,4.05079Z"/>
      <path d="M760.29492,141.2373h-1.4248v-1.4248a2.578,2.578,0,0,1-4.9502-1.125v-4.94922h1.42578v4.64942c0,1.20019.49414,1.7998,1.499,1.7998h.15039c.94433,0,1.875-.89941,1.875-2.39941v-4.04981h1.4248Z"/>
      <path d="M766.77539,141.2373h-1.80078a1.50073,1.50073,0,0,1-1.65039-1.64941v-4.62012H761.6748v-1.22949h1.64942v-2.43066H764.75v2.43066h1.7998v1.22949H764.75v4.39453c0,.4502.15039.60059.59961.60059h1.42578Z"/>
      <path d="M775.44434,137.4873c0,2.47559-1.5,3.9004-3.374,3.9004a2.66629,2.66629,0,0,1-2.32617-1.2002v4.0498h-1.42383v-10.499h1.42383v1.04981a2.94941,2.94941,0,0,1,2.47559-1.2002C774.09473,133.58789,775.44434,135.0127,775.44434,137.4873Zm-5.7002,0c0,1.80079,1.05078,2.7002,2.10059,2.7002h.14941c1.125,0,2.02539-.89941,2.02539-2.7002,0-1.7998-.90039-2.69921-2.02539-2.69921h-.14941C770.79492,134.78809,769.74414,135.6875,769.74414,137.4873Z"/>
      <path d="M783.54492,141.2373h-1.42578v-1.4248a2.57748,2.57748,0,0,1-4.94922-1.125v-4.94922h1.42481v4.64942c0,1.20019.49511,1.7998,1.499,1.7998h.15039c.94531,0,1.875-.89941,1.875-2.39941v-4.04981h1.42578Z"/>
      <path d="M790.02441,141.2373h-1.7998a1.50029,1.50029,0,0,1-1.65039-1.64941v-4.62012h-1.65039v-1.22949h1.65039v-2.43066H788v2.43066h1.79883v1.22949H788v4.39453c0,.4502.14941.60059.59961.60059h1.4248Z"/>
    </g>
    <rect x="714.5" y="128.5" width="17" height="17" fill="#fff" stroke="#56e19d" stroke-miterlimit="10"/>
  </g>
</svg>
