<svg xmlns="http://www.w3.org/2000/svg" viewBox="0 0 892.4 1012.5"><defs><style>.cls-1,.cls-19,.cls-20,.cls-21,.cls-22,.cls-24,.cls-60,.cls-61{fill:none;}.cls-1{stroke:#587ef9;}.cls-1,.cls-14,.cls-19,.cls-20,.cls-21,.cls-22,.cls-24,.cls-26,.cls-60,.cls-61{stroke-miterlimit:10;}.cls-2,.cls-62{fill:#95e52e;}.cls-3,.cls-5{font-size:24px;}.cls-26,.cls-3{fill:#fff;}.cls-3{font-family:Favorit-Medium, Favorit;font-weight:500;}.cls-4{letter-spacing:0em;}.cls-12,.cls-23,.cls-39,.cls-5{fill:#224;}.cls-5,.cls-58{font-family:Favorit-Bold, Favorit;font-weight:700;}.cls-6{letter-spacing:-0.01em;}.cls-7{letter-spacing:-0.02em;}.cls-8{letter-spacing:-0.02em;}.cls-9{letter-spacing:-0.01em;}.cls-10{letter-spacing:-0.01em;}.cls-11{letter-spacing:0em;}.cls-12{font-size:17px;}.cls-12,.cls-33,.cls-39{font-family:Favorit-Regular, Favorit;}.cls-13{letter-spacing:-0.02em;}.cls-14,.cls-25{fill:#e21e6e;}.cls-14{stroke:#fff;}.cls-15{letter-spacing:-0.01em;}.cls-16{fill:#3829ff;}.cls-17{letter-spacing:-0.12em;}.cls-18{fill:#ef8532;}.cls-19,.cls-20,.cls-21,.cls-26,.cls-60,.cls-61{stroke:#95e52e;}.cls-20{stroke-dasharray:10.06 10.06 10.06 10.06;}.cls-21{stroke-dasharray:10.06 10.06 10.06 10.06 10.06 10.06;}.cls-22{stroke:#224;}.cls-24{stroke:#383838;}.cls-27{letter-spacing:-0.01em;}.cls-28{letter-spacing:-0.01em;}.cls-29{letter-spacing:0em;}.cls-30{letter-spacing:-0.02em;}.cls-31{letter-spacing:0em;}.cls-32{letter-spacing:-0.01em;}.cls-33,.cls-39,.cls-58,.cls-62{font-size:15px;}.cls-34{letter-spacing:-0.01em;}.cls-35{letter-spacing:-0.01em;}.cls-36{letter-spacing:-0.02em;}.cls-37{letter-spacing:-0.02em;}.cls-38{letter-spacing:0em;}.cls-40{letter-spacing:0em;}.cls-41{letter-spacing:-0.01em;}.cls-42{letter-spacing:-0.01em;}.cls-43{letter-spacing:-0.01em;}.cls-44{letter-spacing:-0.02em;}.cls-45{letter-spacing:-0.01em;}.cls-46,.cls-47,.cls-48,.cls-49,.cls-62{font-family:Favorit-RegularItalic, Favorit;font-style:italic;}.cls-46{letter-spacing:-0.07em;}.cls-47,.cls-55{letter-spacing:0em;}.cls-48{letter-spacing:-0.05em;}.cls-49{letter-spacing:0em;}.cls-50{letter-spacing:-0.02em;}.cls-51{letter-spacing:-0.03em;}.cls-52{letter-spacing:-0.02em;}.cls-53{letter-spacing:-0.02em;}.cls-54{letter-spacing:-0.09em;}.cls-56{letter-spacing:-0.01em;}.cls-57{letter-spacing:0em;}.cls-58{fill:#587ef9;}.cls-59{letter-spacing:-0.01em;}.cls-60{stroke-dasharray:10.41 10.41 10.41 10.41;}.cls-61{stroke-dasharray:10.41 10.41 10.41 10.41 10.41 10.41;}.cls-63{letter-spacing:-0.02em;}</style></defs><g id="Layer_2" data-name="Layer 2"><g id="P1_TypeOfTourism"><polyline class="cls-1" points="125.44 241 106.9 241 106.9 0.5 125.44 0.5"/><polyline class="cls-1" points="125.44 694 106.9 694 106.9 249.5 125.44 249.5"/><polyline class="cls-1" points="125.44 1012 106.9 1012 106.9 703.5 125.44 703.5"/></g><g id="P3_DarkTourism"><rect class="cls-2" x="301.73" y="950.4" width="175.33" height="38.7"/><text class="cls-3" transform="translate(318.61 978.09)">Visualiz<tspan class="cls-4" x="85.68" y="0">a</tspan><tspan x="98.28" y="0">tion</tspan></text><text class="cls-5" transform="translate(735.62 30.34)"><tspan class="cls-4">H</tspan><tspan class="cls-6" x="17.62" y="0">o</tspan><tspan class="cls-7" x="31.18" y="0">w</tspan><tspan class="cls-8" x="49.73" y="0"> </tspan><tspan class="cls-9" x="54.89" y="0">t</tspan><tspan x="64.54" y="0">o </tspan><tspan class="cls-10" x="83.98" y="0">r</tspan><tspan class="cls-11" x="92.95" y="0">ead</tspan></text><text class="cls-12" transform="translate(761.8 66.66)">Quer<tspan class="cls-13" x="38.06" y="0">y</tspan></text><rect class="cls-14" x="826.38" y="49.62" width="41.68" height="24.48"/><text class="cls-12" transform="translate(759.63 101.99)">D<tspan class="cls-15" x="12.15" y="0">e</tspan><tspan x="21.06" y="0">vice</tspan></text><rect class="cls-16" x="826.38" y="84.95" width="41.68" height="24.48"/><text class="cls-12" transform="translate(779.57 137.33)"><tspan class="cls-17">T</tspan><tspan x="8.74" y="0">ool</tspan></text><rect class="cls-18" x="826.38" y="120.28" width="41.68" height="24.48"/><text class="cls-12" transform="translate(756.31 172.66)">Output</text><rect class="cls-2" x="826.38" y="155.62" width="41.68" height="24.48"/></g><g id="P4_MedicalTourism"><line class="cls-19" x1="442.9" y1="571.75" x2="447.9" y2="571.75"/><line class="cls-20" x1="457.96" y1="571.75" x2="493.18" y2="571.75"/><line class="cls-21" x1="498.21" y1="571.75" x2="674.29" y2="571.75"/><line class="cls-19" x1="679.32" y1="571.75" x2="684.32" y2="571.75"/><polygon class="cls-2" points="681 575.84 680.32 575.11 683.93 571.75 680.32 568.39 681 567.66 685.4 571.75 681 575.84"/><line class="cls-22" x1="388.4" y1="815.25" x2="388.4" y2="851.17"/><polygon class="cls-23" points="384.31 847.85 385.04 847.17 388.4 850.78 391.76 847.17 392.49 847.85 388.4 852.25 384.31 847.85"/><line class="cls-22" x1="388.4" y1="907.25" x2="388.4" y2="943.17"/><polygon class="cls-23" points="384.31 939.85 385.04 939.17 388.4 942.78 391.76 939.17 392.49 939.85 388.4 944.25 384.31 939.85"/><line class="cls-22" x1="388.4" y1="50.5" x2="388.4" y2="86.42"/><polygon class="cls-23" points="384.31 83.1 385.04 82.42 388.4 86.03 391.76 82.42 392.49 83.1 388.4 87.5 384.31 83.1"/><line class="cls-22" x1="388.9" y1="465.5" x2="388.9" y2="501.42"/><polygon class="cls-23" points="384.81 498.1 385.54 497.42 388.9 501.03 392.26 497.42 392.99 498.1 388.9 502.5 384.81 498.1"/><line class="cls-22" x1="388.4" y1="204.5" x2="388.4" y2="306.42"/><polygon class="cls-23" points="384.31 303.1 385.04 302.42 388.4 306.03 391.76 302.42 392.49 303.1 388.4 307.5 384.31 303.1"/><line class="cls-24" x1="212.9" y1="627.5" x2="212.9" y2="652.5"/><line class="cls-22" x1="570.9" y1="652" x2="212.9" y2="652"/><line class="cls-22" x1="341.4" y1="627.5" x2="341.4" y2="652.5"/><line class="cls-22" x1="462.4" y1="627.5" x2="462.4" y2="652.5"/><line class="cls-22" x1="571.9" y1="627.5" x2="571.9" y2="652.5"/><line class="cls-22" x1="388.9" y1="651.5" x2="388.9" y2="753.42"/><polygon class="cls-23" points="384.81 750.1 385.54 749.42 388.9 753.03 392.26 749.42 392.99 750.1 388.9 754.5 384.81 750.1"/><rect class="cls-18" x="300.73" y="766.4" width="175.33" height="38.7"/><rect class="cls-18" x="300.73" y="862.4" width="175.33" height="38.7"/><rect class="cls-25" x="270.23" y="11.4" width="236.33" height="38.7"/><rect class="cls-16" x="311.48" y="111.4" width="153.83" height="38.7"/><rect class="cls-2" x="333.65" y="347.4" width="109.17" height="38.7"/><rect class="cls-26" x="178.9" y="395" width="133" height="28"/><rect class="cls-26" x="465.9" y="395" width="133" height="28"/><rect class="cls-26" x="311.9" y="395" width="154" height="28"/><rect class="cls-26" x="279.9" y="423" width="109" height="28"/><rect class="cls-26" x="388.9" y="423" width="109" height="28"/><rect class="cls-2" x="333.82" y="552.4" width="109.17" height="38.7"/><rect class="cls-26" x="274.9" y="600" width="133" height="28"/><rect class="cls-26" x="150.9" y="600" width="124" height="28"/><rect class="cls-26" x="407.9" y="600" width="109" height="28"/><rect class="cls-26" x="516.9" y="600" width="109" height="28"/><text class="cls-3" transform="translate(332.54 794.09)">R<tspan class="cls-27" x="16.39" y="0">a</tspan><tspan class="cls-28" x="28.97" y="0">w</tspan><tspan class="cls-29" x="47.57" y="0">g</tspan><tspan class="cls-28" x="61.73" y="0">r</tspan><tspan x="70.68" y="0">aph</tspan></text><text class="cls-3" transform="translate(334.61 890.09)">Illust<tspan class="cls-28" x="54.26" y="0">r</tspan><tspan class="cls-4" x="63.21" y="0">at</tspan><tspan x="85.2" y="0">o</tspan><tspan class="cls-30" x="98.9" y="0">r</tspan></text><text class="cls-3" transform="translate(293.87 39.09)">#medical<tspan class="cls-31" x="103.53" y="0">t</tspan><tspan x="112.92" y="0">ourism</tspan></text><text class="cls-3" transform="translate(332.16 139.09)">Instag<tspan class="cls-32" x="69.17" y="0">r</tspan><tspan class="cls-11" x="78.12" y="0">am</tspan></text><text class="cls-33" transform="translate(330.03 173.25)">Manual sc<tspan class="cls-34" x="69.55" y="0">r</tspan><tspan x="75.06" y="0">aping </tspan><tspan class="cls-35" x="-11.53" y="18">o</tspan><tspan class="cls-36" x="-3.17" y="18">f</tspan><tspan class="cls-37" x="2.17" y="18"> </tspan><tspan x="5.53" y="18">the</tspan><tspan class="cls-37" x="28.03" y="18"> </tspan><tspan class="cls-38" x="31.39" y="18">t</tspan><tspan x="37.09" y="18">op 500 posts</tspan></text><text class="cls-39" transform="translate(308.82 335.46)">Ide<tspan class="cls-40" x="21.15" y="0">n</tspan><tspan x="29.79" y="0">tif</tspan><tspan class="cls-13" x="44.89" y="0">y</tspan><tspan x="52.6" y="0" xml:space="preserve"> 5 d</tspan><tspan class="cls-41" x="77.58" y="0">a</tspan><tspan x="85.38" y="0">ta pe</tspan><tspan class="cls-13" x="119.67" y="0">r</tspan><tspan x="124.98" y="0" xml:space="preserve"> post</tspan></text><text class="cls-39" transform="translate(283.6 522.46)">R<tspan class="cls-42" x="10.2" y="0">e</tspan><tspan x="18.07" y="0">fining d</tspan><tspan class="cls-43" x="70.12" y="0">a</tspan><tspan x="77.92" y="0">ta collapsing posts </tspan><tspan class="cls-35" x="16.06" y="18">o</tspan><tspan class="cls-36" x="24.42" y="18">f</tspan><tspan class="cls-37" x="29.76" y="18"> </tspan><tspan x="33.12" y="18">the same p</tspan><tspan class="cls-44" x="108.6" y="18">r</tspan><tspan class="cls-45" x="113.98" y="18">o</tspan><tspan x="122.34" y="18">file </tspan><tspan class="cls-46" x="147.27" y="18">(</tspan><tspan class="cls-47" x="152.28" y="18">clini</tspan><tspan class="cls-48" x="180.09" y="18">c</tspan><tspan class="cls-49" x="187.53" y="18">)</tspan></text><text class="cls-3" transform="translate(358.49 375.09)">E<tspan class="cls-50" x="15.79" y="0">x</tspan><tspan x="27.67" y="0">cel</tspan></text><text class="cls-33" transform="translate(349.91 413.24)">P<tspan class="cls-44" x="9.65" y="0">r</tspan><tspan class="cls-35" x="15.03" y="0">o</tspan><tspan x="23.38" y="0">file UR</tspan><tspan class="cls-51" x="68.98" y="0">L</tspan></text><text class="cls-33" transform="translate(319.54 441.24)">Cit<tspan class="cls-52" x="20.01" y="0">y</tspan></text><text class="cls-33" transform="translate(213.23 413.97)"><tspan class="cls-53">P</tspan><tspan x="9.42" y="0">ost UR</tspan><tspan class="cls-51" x="55.35" y="0">L</tspan></text><text class="cls-33" transform="translate(476.59 413.97)"><tspan class="cls-54">T</tspan><tspan x="8.19" y="0">ype </tspan><tspan class="cls-35" x="36.84" y="0">o</tspan><tspan class="cls-30" x="45.19" y="0">f</tspan><tspan class="cls-55" x="50.53" y="0" xml:space="preserve"> Su</tspan><tspan class="cls-56" x="72.13" y="0">r</tspan><tspan x="77.56" y="0">ger</tspan><tspan class="cls-52" x="100.05" y="0">y</tspan><tspan x="107.76" y="0"> </tspan></text><text class="cls-33" transform="translate(414.7 441.24)">Cou<tspan class="cls-57" x="27.63" y="0">n</tspan><tspan x="36.27" y="0">tr</tspan><tspan class="cls-52" x="47.68" y="0">y</tspan></text><text class="cls-3" transform="translate(358.65 580.09)">E<tspan class="cls-50" x="15.79" y="0">x</tspan><tspan x="27.67" y="0">cel</tspan></text><text class="cls-33" transform="translate(173.91 618.24)">P<tspan class="cls-44" x="9.65" y="0">r</tspan><tspan class="cls-35" x="15.03" y="0">o</tspan><tspan x="23.38" y="0">file UR</tspan><tspan class="cls-51" x="68.98" y="0">L</tspan></text><text class="cls-33" transform="translate(447.54 618.24)">Cit<tspan class="cls-52" x="20.01" y="0">y</tspan></text><text class="cls-33" transform="translate(285.59 618.97)"><tspan class="cls-54">T</tspan><tspan x="8.19" y="0">ype </tspan><tspan class="cls-35" x="36.84" y="0">o</tspan><tspan class="cls-30" x="45.19" y="0">f</tspan><tspan class="cls-55" x="50.53" y="0" xml:space="preserve"> Su</tspan><tspan class="cls-56" x="72.13" y="0">r</tspan><tspan x="77.56" y="0">ger</tspan><tspan class="cls-52" x="100.05" y="0">y</tspan><tspan x="107.76" y="0"> </tspan></text><text class="cls-33" transform="translate(542.7 618.24)">Cou<tspan class="cls-57" x="27.63" y="0">n</tspan><tspan x="36.27" y="0">tr</tspan><tspan class="cls-52" x="47.68" y="0">y</tspan></text><text class="cls-58" transform="translate(0 116.8)">D<tspan class="cls-57" x="10.81" y="0">a</tspan><tspan x="18.76" y="0">ta </tspan><tspan x="0" y="16">collection</tspan></text><text class="cls-58" transform="translate(0 467.8)">D<tspan class="cls-57" x="10.81" y="0">a</tspan><tspan x="18.76" y="0">tas</tspan><tspan class="cls-59" x="40.33" y="0">e</tspan><tspan x="48.33" y="0">t </tspan><tspan x="0" y="16">building</tspan></text><text class="cls-58" transform="translate(0 853.8)">D<tspan class="cls-57" x="10.81" y="0">a</tspan><tspan x="18.76" y="0">ta</tspan><tspan x="0" y="16">visualiz</tspan><tspan class="cls-57" x="51.99" y="16">a</tspan><tspan x="59.94" y="16">tion</tspan></text><line class="cls-19" x1="497.4" y1="437" x2="502.4" y2="437"/><line class="cls-60" x1="512.81" y1="437" x2="549.23" y2="437"/><line class="cls-61" x1="554.43" y1="437" x2="674.11" y2="437"/><line class="cls-19" x1="679.32" y1="437" x2="684.32" y2="437"/><polygon class="cls-2" points="681 441.09 680.32 440.36 683.93 437 680.32 433.64 681 432.91 685.4 437 681 441.09"/><text class="cls-62" transform="translate(697.24 418.24)">Da<tspan class="cls-38" x="19.75" y="0">t</tspan><tspan x="25.62" y="0">a </tspan><tspan class="cls-34" x="38.31" y="0">r</tspan><tspan x="43.76" y="0">eached</tspan><tspan class="cls-52" x="95.02" y="0"> </tspan><tspan x="98.38" y="0">f</tspan><tspan class="cls-34" x="103.77" y="0">r</tspan><tspan x="109.21" y="0">om </tspan><tspan x="0" y="18">the po</tspan><tspan class="cls-42" x="44.1" y="18">s</tspan><tspan x="51.18" y="18">t o</tspan><tspan class="cls-30" x="69.43" y="18">r</tspan><tspan x="74.7" y="18"> </tspan><tspan class="cls-63" x="78.39" y="18">b</tspan><tspan class="cls-30" x="87.03" y="18">y</tspan><tspan x="94.78" y="18" xml:space="preserve"> analyzing </tspan><tspan x="0" y="36">the bio.</tspan></text><path class="cls-2" d="M700.27,541l2-9.15h-3.75l.29-1.35h9l-.28,1.35h-3.75l-2,9.15Z"/><path class="cls-2" d="M705,543.76l.27-1.27h1.93a.68.68,0,0,0,.68-.59l.25-1.26-1.56-7.15H708l1.13,5.32,3.41-5.32h1.61l-4.66,7.24-.35,1.62a1.59,1.59,0,0,1-1.65,1.41Z"/><path class="cls-2" d="M715.62,539.7l-.93,4.29h-1.43l2.24-10.5h1.42l-.23,1a2.66,2.66,0,0,1,2.25-1.15,3.07,3.07,0,0,1,3.06,3.34c0,2.61-1.56,4.46-3.75,4.46A2.89,2.89,0,0,1,715.62,539.7Zm3.07-5.13c-1.59,0-2.61,1.57-2.61,3.4a2,2,0,0,0,2,1.94c1.4,0,2.49-1.4,2.49-3.12C720.53,535.56,720,534.57,718.69,534.57Z"/><path class="cls-2" d="M726.62,541.14a3.19,3.19,0,0,1-3.3-3.47,4.09,4.09,0,0,1,4.08-4.33,2.78,2.78,0,0,1,2.87,3.07,5.38,5.38,0,0,1-.17,1.05h-5.43v.21a2.05,2.05,0,0,0,2,2.27,1.91,1.91,0,0,0,1.89-1.17H730A3.23,3.23,0,0,1,726.62,541.14Zm-1.74-4.8h4a1.94,1.94,0,0,0,0-.35,1.48,1.48,0,0,0-1.65-1.45A2.44,2.44,0,0,0,724.88,536.34Z"/><path class="cls-2" d="M735.2,537.67a4.14,4.14,0,0,1,4-4.33c2.17,0,3.28,1.44,3.28,3.46a4.15,4.15,0,0,1-4,4.34C736.31,541.14,735.2,539.7,735.2,537.67Zm3.95-3.13a2.81,2.81,0,0,0-2.52,3.06c0,1.35.67,2.34,2,2.34a2.81,2.81,0,0,0,2.52-3.06C741.1,535.53,740.42,534.54,739.15,534.54Z"/><path class="cls-2" d="M746.8,534.72,745.46,541H744l1.33-6.27h-1.63l.25-1.23h1.64l.34-1.59a1.55,1.55,0,0,1,1.62-1.41H750l-.27,1.24h-1.74c-.39,0-.56.21-.65.62l-.24,1.14h1.65l-.25,1.23Z"/><path class="cls-2" d="M754.93,541.14c-1.88,0-3-.93-3.11-2.48h1.46c.06.92.79,1.28,1.69,1.28s1.43-.41,1.43-1c0-.43-.33-.75-.86-.91l-.85-.27c-1.13-.36-1.85-1-1.85-2,0-1.29,1.13-2.35,2.87-2.35a2.6,2.6,0,0,1,2.89,2.47h-1.44a1.37,1.37,0,0,0-1.54-1.27c-.81,0-1.38.42-1.38,1.05,0,.43.3.75.82.91l.9.29c.89.28,1.86.79,1.86,2.08S756.58,541.14,754.93,541.14Z"/><path class="cls-2" d="M762.14,533.49l-1,4.57a3.07,3.07,0,0,0-.06.51,1.28,1.28,0,0,0,1.41,1.37c1,0,2-1,2.32-2.55l.83-3.9h1.42L765.5,541h-1.42l.27-1.26a2.62,2.62,0,0,1-2.34,1.41,2.21,2.21,0,0,1-2.34-2.33,4.61,4.61,0,0,1,.07-.72l1-4.6Z"/><path class="cls-2" d="M767.75,541l1.59-7.5h1.43l-.32,1.5a2.6,2.6,0,0,1,2.55-1.58h.48l-.3,1.43h-.46c-1.26,0-2.36.64-2.76,2.5l-.78,3.65Z"/><path class="cls-2" d="M772.78,542h1.42c.12.74.83,1.11,1.89,1.11a2.38,2.38,0,0,0,2.42-2.17l.21-.9a3,3,0,0,1-5.15-2.28c0-2.72,1.76-4.38,3.68-4.38a2.61,2.61,0,0,1,2.55,1.53h0l.28-1.39h1.43l-1.65,7.72a3.61,3.61,0,0,1-3.93,3C774.31,544.26,772.93,543.55,772.78,542Zm2.22-4.3a1.86,1.86,0,0,0,1.86,2.13c1.54,0,2.47-1.47,2.47-3a2,2,0,0,0-2-2.2C776.15,534.54,775,535.78,775,537.66Z"/><path class="cls-2" d="M785.78,541.14a3.19,3.19,0,0,1-3.3-3.47,4.09,4.09,0,0,1,4.08-4.33,2.78,2.78,0,0,1,2.87,3.07,5.38,5.38,0,0,1-.17,1.05h-5.43v.21a2.05,2.05,0,0,0,2,2.27,1.91,1.91,0,0,0,1.89-1.17h1.42A3.23,3.23,0,0,1,785.78,541.14Zm-1.74-4.8h4a1.94,1.94,0,0,0,0-.35,1.48,1.48,0,0,0-1.65-1.45A2.44,2.44,0,0,0,784,536.34Z"/><path class="cls-2" d="M790.34,541l1.59-7.5h1.43L793,535a2.6,2.6,0,0,1,2.55-1.58h.48l-.3,1.43h-.46c-1.26,0-2.36.64-2.76,2.5l-.78,3.65Z"/><path class="cls-2" d="M795.08,543.76l.27-1.27h1.94a.67.67,0,0,0,.67-.59l.26-1.26-1.56-7.15h1.5l1.12,5.32,3.42-5.32h1.61l-4.67,7.24-.34,1.62a1.59,1.59,0,0,1-1.65,1.41Z"/><path class="cls-2" d="M809,533.49h1.42l-1.59,7.5h-1.42Zm.54-3h1.57l-.34,1.65h-1.58Z"/><path class="cls-2" d="M814,541.14c-1.87,0-3-.93-3.1-2.48h1.45c.06.92.8,1.28,1.7,1.28s1.42-.41,1.42-1c0-.43-.33-.75-.85-.91l-.86-.27c-1.12-.36-1.84-1-1.84-2,0-1.29,1.12-2.35,2.86-2.35a2.61,2.61,0,0,1,2.9,2.47h-1.44a1.38,1.38,0,0,0-1.55-1.27c-.81,0-1.38.42-1.38,1.05,0,.43.3.75.83.91l.9.29c.88.28,1.86.79,1.86,2.08S815.63,541.14,814,541.14Z"/><path class="cls-2" d="M822,541l1.59-7.5H825l-.32,1.5a2.6,2.6,0,0,1,2.55-1.58h.48l-.3,1.43h-.46c-1.26,0-2.36.64-2.76,2.5l-.78,3.65Z"/><path class="cls-2" d="M831,541.14a3.19,3.19,0,0,1-3.3-3.47,4.09,4.09,0,0,1,4.08-4.33,2.77,2.77,0,0,1,2.86,3.07,5.27,5.27,0,0,1-.16,1.05h-5.43v.21a2,2,0,0,0,2,2.27,1.9,1.9,0,0,0,1.89-1.17h1.43A3.25,3.25,0,0,1,831,541.14Zm-1.74-4.8h4c0-.09,0-.24,0-.35a1.48,1.48,0,0,0-1.65-1.45A2.43,2.43,0,0,0,829.3,536.34Z"/><path class="cls-2" d="M837.83,530.49h1.43L837,541H835.6Z"/><path class="cls-2" d="M845.89,534.84l.3-1.35h1.42L846,541h-1.41l.21-1a2.85,2.85,0,0,1-2.29,1.11,2.92,2.92,0,0,1-2.93-3.2c0-2.79,1.68-4.6,3.75-4.6A2.71,2.71,0,0,1,845.89,534.84Zm-3.06,5.1c1.62,0,2.61-1.59,2.61-3.35a1.9,1.9,0,0,0-1.94-2.05c-1.21,0-2.47,1.17-2.47,3.3A1.86,1.86,0,0,0,842.83,539.94Z"/><path class="cls-2" d="M849.25,535.81h4l-.27,1.28h-4Z"/><path class="cls-2" d="M698.58,557.71a1.72,1.72,0,0,1,0-.39l1-4.6h-1.71l.25-1.23h1.75l.52-2.43h1.38l-.52,2.43h1.87l-.25,1.23H701l-.92,4.35a.83.83,0,0,0,0,.22c0,.29.27.42.55.42h1.61l-.27,1.28H700C699.1,559,698.58,558.49,698.58,557.71Z"/><path class="cls-2" d="M706.92,559.14a3.19,3.19,0,0,1-3.3-3.47,4.09,4.09,0,0,1,4.08-4.33,2.77,2.77,0,0,1,2.86,3.07,6.12,6.12,0,0,1-.16,1.05H705v.21a2,2,0,0,0,2,2.27,1.9,1.9,0,0,0,1.89-1.17h1.43A3.25,3.25,0,0,1,706.92,559.14Zm-1.74-4.8h4c0-.09,0-.24,0-.35a1.48,1.48,0,0,0-1.65-1.45A2.43,2.43,0,0,0,705.18,554.34Z"/><path class="cls-2" d="M718.23,552.76l.91-4.27h1.47L718.33,559h-1.42l.19-.89a2.86,2.86,0,0,1-2.22,1,3,3,0,0,1-3.06-3.35c0-2.67,1.78-4.54,3.83-4.54A2.74,2.74,0,0,1,718.23,552.76Zm-3.09,5.15c1.61,0,2.61-1.58,2.61-3.41a1.92,1.92,0,0,0-2-2c-1.39,0-2.49,1.44-2.49,3.21A2,2,0,0,0,715.14,557.91Z"/><path class="cls-2" d="M725.09,557.71a1.74,1.74,0,0,1,0-.39l1-4.6h-1.71l.25-1.23h1.74l.53-2.43h1.38l-.53,2.43h1.88l-.26,1.23h-1.89l-.91,4.35a.83.83,0,0,0,0,.22c0,.29.27.42.55.42h1.61l-.27,1.28h-1.88C725.62,559,725.09,558.49,725.09,557.71Z"/><path class="cls-2" d="M730.13,555.67a4.14,4.14,0,0,1,4-4.33c2.17,0,3.28,1.44,3.28,3.46a4.15,4.15,0,0,1-4,4.34C731.24,559.14,730.13,557.7,730.13,555.67Zm4-3.13a2.81,2.81,0,0,0-2.52,3.06c0,1.35.67,2.34,2,2.34a2.81,2.81,0,0,0,2.52-3.06C736,553.53,735.35,552.54,734.08,552.54Z"/><path class="cls-2" d="M742.93,557.71a1.74,1.74,0,0,1,.05-.39l1-4.6h-1.71l.25-1.23h1.74l.53-2.43h1.37l-.52,2.43h1.88l-.26,1.23h-1.89l-.91,4.35a.83.83,0,0,0,0,.22c0,.29.27.42.55.42h1.6l-.27,1.28H744.4C743.46,559,742.93,558.49,742.93,557.71Z"/><path class="cls-2" d="M749.16,559h-1.43l2.23-10.5h1.43l-.87,4.08a2.89,2.89,0,0,1,2.37-1.23,2.22,2.22,0,0,1,2.26,2.29,4.87,4.87,0,0,1-.07.75l-1,4.61h-1.42l1-4.49a4.34,4.34,0,0,0,.07-.63,1.18,1.18,0,0,0-1.33-1.33c-1,0-2,.76-2.4,2.55Z"/><path class="cls-2" d="M759.89,559.14a3.19,3.19,0,0,1-3.3-3.47,4.09,4.09,0,0,1,4.08-4.33,2.78,2.78,0,0,1,2.87,3.07,5.38,5.38,0,0,1-.17,1.05h-5.43v.21a2.05,2.05,0,0,0,2,2.27,1.91,1.91,0,0,0,1.89-1.17h1.42A3.23,3.23,0,0,1,759.89,559.14Zm-1.74-4.8h4a1.94,1.94,0,0,0,0-.35,1.48,1.48,0,0,0-1.65-1.45A2.44,2.44,0,0,0,758.15,554.34Z"/><path class="cls-2" d="M769.88,557.7,769,562h-1.42l2.23-10.5h1.43l-.23,1a2.66,2.66,0,0,1,2.25-1.15,3.07,3.07,0,0,1,3.06,3.34c0,2.61-1.56,4.46-3.75,4.46A2.92,2.92,0,0,1,769.88,557.7Zm3.08-5.13c-1.59,0-2.61,1.57-2.61,3.4a2,2,0,0,0,2,1.94c1.4,0,2.49-1.4,2.49-3.12C774.8,553.56,774.25,552.57,773,552.57Z"/><path class="cls-2" d="M777.59,555.67a4.14,4.14,0,0,1,4-4.33c2.17,0,3.28,1.44,3.28,3.46a4.15,4.15,0,0,1-4,4.34C778.7,559.14,777.59,557.7,777.59,555.67Zm3.95-3.13A2.81,2.81,0,0,0,779,555.6c0,1.35.67,2.34,2,2.34a2.81,2.81,0,0,0,2.52-3.06C783.49,553.53,782.81,552.54,781.54,552.54Z"/><path class="cls-2" d="M788.83,559.14c-1.88,0-3.05-.93-3.11-2.48h1.46c.06.92.79,1.28,1.69,1.28s1.43-.41,1.43-1c0-.43-.33-.75-.86-.91l-.85-.27c-1.13-.36-1.85-1-1.85-2,0-1.29,1.13-2.35,2.87-2.35a2.6,2.6,0,0,1,2.89,2.47h-1.44a1.37,1.37,0,0,0-1.54-1.27c-.81,0-1.38.42-1.38,1.05,0,.43.3.75.82.91l.9.29c.89.28,1.86.79,1.86,2.08S790.48,559.14,788.83,559.14Z"/><path class="cls-2" d="M794.11,557.71a1.72,1.72,0,0,1,0-.39l1-4.6H793.4l.26-1.23h1.74l.52-2.43h1.38l-.52,2.43h1.87l-.25,1.23h-1.89l-.92,4.35a1.66,1.66,0,0,0,0,.22c0,.29.27.42.56.42h1.6l-.27,1.28h-1.87C794.63,559,794.11,558.49,794.11,557.71Z"/><path class="cls-2" d="M801.85,559.14c-1.88,0-3.05-.93-3.11-2.48h1.46c.06.92.79,1.28,1.69,1.28s1.43-.41,1.43-1c0-.43-.33-.75-.86-.91l-.85-.27c-1.13-.36-1.85-1-1.85-2,0-1.29,1.13-2.35,2.87-2.35a2.6,2.6,0,0,1,2.89,2.47h-1.44a1.37,1.37,0,0,0-1.54-1.27c-.81,0-1.38.42-1.38,1.05,0,.43.3.75.82.91l.9.29c.89.28,1.86.79,1.86,2.08S803.5,559.14,801.85,559.14Z"/><path class="cls-2" d="M697.77,573.67a4.14,4.14,0,0,1,4-4.33c2.18,0,3.28,1.44,3.28,3.46a4.14,4.14,0,0,1-4,4.34C698.88,577.14,697.77,575.7,697.77,573.67Zm3.94-3.13a2.81,2.81,0,0,0-2.52,3.06c0,1.35.68,2.34,1.95,2.34a2.81,2.81,0,0,0,2.52-3.06C703.66,571.53,703,570.54,701.71,570.54Z"/><path class="cls-2" d="M709.36,570.72,708,577H706.6l1.34-6.27H706.3l.26-1.23h1.63l.35-1.59a1.54,1.54,0,0,1,1.61-1.41h2.36l-.27,1.24H710.5c-.39,0-.56.21-.65.62l-.24,1.14h1.65l-.25,1.23Z"/><path class="cls-2" d="M715.36,575.71a1.74,1.74,0,0,1,0-.39l1-4.6h-1.71l.25-1.23h1.74l.53-2.43h1.38l-.53,2.43h1.88l-.26,1.23h-1.89l-.91,4.35a.83.83,0,0,0,0,.22c0,.29.27.42.55.42H719l-.27,1.28h-1.88C715.89,577,715.36,576.49,715.36,575.71Z"/><path class="cls-2" d="M721.59,577h-1.43l2.24-10.5h1.42l-.87,4.08a2.89,2.89,0,0,1,2.37-1.23,2.22,2.22,0,0,1,2.26,2.29,3.88,3.88,0,0,1-.07.75l-1,4.61h-1.43l1-4.49a4.34,4.34,0,0,0,.08-.63,1.19,1.19,0,0,0-1.34-1.33c-1,0-2,.76-2.4,2.55Z"/><path class="cls-2" d="M732.32,577.14a3.19,3.19,0,0,1-3.3-3.47,4.1,4.1,0,0,1,4.08-4.33,2.78,2.78,0,0,1,2.87,3.07,5.38,5.38,0,0,1-.17,1.05h-5.42v.21a2,2,0,0,0,2,2.27,1.91,1.91,0,0,0,1.89-1.17h1.42A3.23,3.23,0,0,1,732.32,577.14Zm-1.74-4.8h4a1.94,1.94,0,0,0,0-.35,1.48,1.48,0,0,0-1.65-1.45A2.44,2.44,0,0,0,730.58,572.34Z"/><path class="cls-2" d="M743.51,577.14c-1.87,0-3-.93-3.1-2.48h1.45c.06.92.8,1.28,1.7,1.28s1.42-.41,1.42-1c0-.43-.33-.75-.85-.91l-.86-.27c-1.12-.36-1.84-1-1.84-2,0-1.29,1.12-2.35,2.86-2.35a2.61,2.61,0,0,1,2.9,2.47h-1.44a1.38,1.38,0,0,0-1.55-1.27c-.81,0-1.38.42-1.38,1.05,0,.43.3.75.83.91l.9.29c.88.28,1.86.79,1.86,2.08S745.16,577.14,743.51,577.14Z"/><path class="cls-2" d="M754.42,570.84l.3-1.35h1.42l-1.59,7.5h-1.41l.21-1a2.85,2.85,0,0,1-2.29,1.11,2.92,2.92,0,0,1-2.93-3.2c0-2.79,1.68-4.6,3.75-4.6A2.71,2.71,0,0,1,754.42,570.84Zm-3.06,5.1c1.62,0,2.61-1.59,2.61-3.35a1.9,1.9,0,0,0-1.94-2.05c-1.21,0-2.47,1.17-2.47,3.3A1.86,1.86,0,0,0,751.36,575.94Z"/><path class="cls-2" d="M758.23,577H756.8l1.6-7.5h1.42l-.27,1.26a2.8,2.8,0,0,1,2.43-1.41,2.1,2.1,0,0,1,2.13,1.65,3.46,3.46,0,0,1,2.76-1.65,2.21,2.21,0,0,1,2.34,2.26,4.28,4.28,0,0,1-.09.83l-1,4.56h-1.41l1-4.52a2.69,2.69,0,0,0,.08-.61,1.28,1.28,0,0,0-1.4-1.32,2.66,2.66,0,0,0-2.28,2.19l-.9,4.26h-1.42l1-4.49a2.73,2.73,0,0,0,.06-.49,1.34,1.34,0,0,0-1.4-1.47c-1,0-2,1-2.34,2.55Z"/><path class="cls-2" d="M773.93,577.14a3.19,3.19,0,0,1-3.3-3.47,4.1,4.1,0,0,1,4.08-4.33,2.78,2.78,0,0,1,2.87,3.07,5.38,5.38,0,0,1-.17,1.05H772v.21a2.05,2.05,0,0,0,2,2.27,1.91,1.91,0,0,0,1.89-1.17h1.42A3.23,3.23,0,0,1,773.93,577.14Zm-1.74-4.8h4a1.94,1.94,0,0,0,0-.35,1.48,1.48,0,0,0-1.65-1.45A2.44,2.44,0,0,0,772.19,572.34Z"/><path class="cls-2" d="M783.92,575.7,783,580h-1.42l2.23-10.5h1.43l-.23,1a2.66,2.66,0,0,1,2.25-1.15,3.07,3.07,0,0,1,3.06,3.34c0,2.61-1.56,4.46-3.75,4.46A2.92,2.92,0,0,1,783.92,575.7Zm3.08-5.13c-1.59,0-2.61,1.57-2.61,3.4a2,2,0,0,0,2,1.94c1.4,0,2.49-1.4,2.49-3.12C788.84,571.56,788.29,570.57,787,570.57Z"/><path class="cls-2" d="M791.3,577l1.59-7.5h1.43L794,571a2.6,2.6,0,0,1,2.55-1.58H797l-.3,1.43h-.46c-1.26,0-2.36.64-2.76,2.5l-.78,3.65Z"/><path class="cls-2" d="M797.08,573.67a4.14,4.14,0,0,1,4-4.33c2.18,0,3.29,1.44,3.29,3.46a4.15,4.15,0,0,1-4,4.34C798.19,577.14,797.08,575.7,797.08,573.67Zm3.94-3.13a2.81,2.81,0,0,0-2.52,3.06c0,1.35.68,2.34,2,2.34a2.81,2.81,0,0,0,2.52-3.06C803,571.53,802.3,570.54,801,570.54Z"/><path class="cls-2" d="M812.27,570.72h-3.6L807.34,577h-1.43l1.34-6.27h-1.64l.26-1.23h1.63l.35-1.59a1.54,1.54,0,0,1,1.62-1.41h2.35l-.27,1.24h-1.74c-.39,0-.55.21-.64.62l-.24,1.14h5l-1.59,7.5h-1.42Zm.8-4.23h1.57l-.34,1.65h-1.58Z"/><path class="cls-2" d="M816.85,566.49h1.42L816,577h-1.43Z"/><path class="cls-2" d="M821.92,577.14a3.19,3.19,0,0,1-3.3-3.47,4.09,4.09,0,0,1,4.08-4.33,2.77,2.77,0,0,1,2.86,3.07,5.27,5.27,0,0,1-.16,1.05H820v.21a2,2,0,0,0,2,2.27,1.9,1.9,0,0,0,1.89-1.17h1.43A3.25,3.25,0,0,1,821.92,577.14Zm-1.74-4.8h4c0-.09,0-.24,0-.35a1.48,1.48,0,0,0-1.65-1.45A2.43,2.43,0,0,0,820.18,572.34Z"/><path class="cls-2" d="M704.05,588.84l.3-1.35h1.42l-1.58,7.5h-1.42l.21-1a2.85,2.85,0,0,1-2.29,1.11,2.92,2.92,0,0,1-2.92-3.2c0-2.79,1.68-4.6,3.75-4.6A2.69,2.69,0,0,1,704.05,588.84Zm-3.06,5.1c1.62,0,2.61-1.59,2.61-3.35a1.9,1.9,0,0,0-1.93-2.05c-1.22,0-2.48,1.17-2.48,3.3A1.86,1.86,0,0,0,701,593.94Z"/><path class="cls-2" d="M707.86,595h-1.42l1.59-7.5h1.42l-.22,1.09a2.84,2.84,0,0,1,2.37-1.24,2.24,2.24,0,0,1,2.28,2.29,4.9,4.9,0,0,1-.08.75l-1,4.61H711.4l1-4.49a4.34,4.34,0,0,0,.06-.63,1.19,1.19,0,0,0-1.34-1.33c-1,0-2,.76-2.39,2.55Z"/><path class="cls-2" d="M721.73,588.76l.92-4.27h1.47L721.84,595h-1.42l.19-.89a2.86,2.86,0,0,1-2.22,1,3,3,0,0,1-3.06-3.35c0-2.67,1.78-4.54,3.82-4.54A2.72,2.72,0,0,1,721.73,588.76Zm-3.08,5.15c1.61,0,2.6-1.58,2.6-3.41a1.91,1.91,0,0,0-2-2c-1.39,0-2.49,1.44-2.49,3.21A2,2,0,0,0,718.65,593.91Z"/><path class="cls-2" d="M729.22,595h-1.43l1.59-7.5h1.43l-.27,1.26a2.8,2.8,0,0,1,2.43-1.41A2.1,2.1,0,0,1,735.1,589a3.46,3.46,0,0,1,2.76-1.65,2.21,2.21,0,0,1,2.34,2.26,4.28,4.28,0,0,1-.09.83l-1,4.56h-1.41l1-4.52a2.69,2.69,0,0,0,.08-.61,1.28,1.28,0,0,0-1.4-1.32,2.66,2.66,0,0,0-2.28,2.19l-.9,4.26h-1.42l1-4.49a2.73,2.73,0,0,0,.06-.49,1.34,1.34,0,0,0-1.4-1.47c-1,0-2,1-2.34,2.55Z"/><path class="cls-2" d="M747.91,588.84l.3-1.35h1.42L748,595h-1.41l.21-1a2.85,2.85,0,0,1-2.29,1.11,2.92,2.92,0,0,1-2.93-3.2c0-2.79,1.68-4.6,3.75-4.6A2.71,2.71,0,0,1,747.91,588.84Zm-3.06,5.1c1.62,0,2.61-1.59,2.61-3.35a1.9,1.9,0,0,0-1.94-2.05c-1.21,0-2.47,1.17-2.47,3.3A1.86,1.86,0,0,0,744.85,593.94Z"/><path class="cls-2" d="M749.45,597.76l.27-1.27h1.94a.67.67,0,0,0,.67-.59l.26-1.26L751,587.49h1.5l1.12,5.32,3.42-5.32h1.61L754,594.73l-.34,1.62a1.59,1.59,0,0,1-1.65,1.41Z"/><path class="cls-2" d="M763.46,593.64l-.3,1.35h-1.42l2.23-10.5h1.43l-.83,3.9a2.84,2.84,0,0,1,2.25-1,2.92,2.92,0,0,1,2.93,3.19c0,2.79-1.68,4.61-3.75,4.61A2.71,2.71,0,0,1,763.46,593.64Zm3.06-5.1c-1.62,0-2.61,1.59-2.61,3.34a1.9,1.9,0,0,0,1.94,2.06c1.21,0,2.47-1.17,2.47-3.3A1.86,1.86,0,0,0,766.52,588.54Z"/><path class="cls-2" d="M774.37,595.14a3.19,3.19,0,0,1-3.3-3.47,4.09,4.09,0,0,1,4.08-4.33,2.77,2.77,0,0,1,2.86,3.07,5.27,5.27,0,0,1-.16,1.05h-5.43v.21a2,2,0,0,0,2,2.27,1.9,1.9,0,0,0,1.89-1.17h1.43A3.25,3.25,0,0,1,774.37,595.14Zm-1.74-4.8h4c0-.09,0-.24,0-.35a1.48,1.48,0,0,0-1.65-1.45A2.43,2.43,0,0,0,772.63,590.34Z"/><path class="cls-2" d="M784,595h-1.42l1.59-7.5h1.42l-.27,1.26a2.8,2.8,0,0,1,2.43-1.41,2.08,2.08,0,0,1,2.13,1.65,3.49,3.49,0,0,1,2.76-1.65A2.21,2.21,0,0,1,795,589.6a4.28,4.28,0,0,1-.09.83L794,595h-1.41l1-4.52a3.36,3.36,0,0,0,.07-.61,1.27,1.27,0,0,0-1.39-1.32,2.65,2.65,0,0,0-2.28,2.19L789,595h-1.43l1-4.49a2.73,2.73,0,0,0,.06-.49,1.33,1.33,0,0,0-1.39-1.47c-1,0-2,1-2.34,2.55Z"/><path class="cls-2" d="M796.45,591.67a4.14,4.14,0,0,1,4-4.33c2.18,0,3.29,1.44,3.29,3.46a4.15,4.15,0,0,1-4,4.34C797.56,595.14,796.45,593.7,796.45,591.67Zm3.94-3.13a2.81,2.81,0,0,0-2.52,3.06c0,1.35.68,2.34,2,2.34a2.81,2.81,0,0,0,2.52-3.06C802.34,589.53,801.67,588.54,800.39,588.54Z"/><path class="cls-2" d="M804.74,595l1.59-7.5h1.43l-.32,1.5a2.6,2.6,0,0,1,2.55-1.58h.48l-.3,1.43h-.46c-1.26,0-2.36.64-2.76,2.5l-.78,3.65Z"/><path class="cls-2" d="M813.82,595.14a3.19,3.19,0,0,1-3.3-3.47,4.09,4.09,0,0,1,4.08-4.33,2.77,2.77,0,0,1,2.86,3.07,5.27,5.27,0,0,1-.16,1.05h-5.43v.21a2,2,0,0,0,2,2.27,1.9,1.9,0,0,0,1.89-1.17h1.43A3.25,3.25,0,0,1,813.82,595.14Zm-1.74-4.8h4c0-.09,0-.24,0-.35a1.48,1.48,0,0,0-1.65-1.45A2.43,2.43,0,0,0,812.08,590.34Z"/><path class="cls-2" d="M698.58,611.71a1.72,1.72,0,0,1,0-.39l1-4.6h-1.71l.25-1.23h1.75l.52-2.43h1.38l-.52,2.43h1.87l-.25,1.23H701l-.92,4.35a.83.83,0,0,0,0,.22c0,.29.27.42.55.42h1.61l-.27,1.28H700C699.1,613,698.58,612.49,698.58,611.71Z"/><path class="cls-2" d="M704.8,613h-1.42l2.23-10.5H707l-.87,4.08a2.86,2.86,0,0,1,2.37-1.23,2.22,2.22,0,0,1,2.26,2.29,4.87,4.87,0,0,1-.07.75l-1,4.61h-1.42l1-4.49c0-.16.07-.46.07-.63a1.19,1.19,0,0,0-1.34-1.33c-1,0-2,.76-2.4,2.55Z"/><path class="cls-2" d="M718.52,606.84l.3-1.35h1.43l-1.59,7.5h-1.41l.21-1a2.87,2.87,0,0,1-2.3,1.11,2.92,2.92,0,0,1-2.92-3.2c0-2.79,1.68-4.6,3.75-4.6A2.69,2.69,0,0,1,718.52,606.84Zm-3.06,5.1c1.62,0,2.61-1.59,2.61-3.35a1.9,1.9,0,0,0-1.93-2.05c-1.22,0-2.48,1.17-2.48,3.3A1.86,1.86,0,0,0,715.46,611.94Z"/><path class="cls-2" d="M722.33,613h-1.42l1.59-7.5h1.42l-.22,1.09a2.84,2.84,0,0,1,2.37-1.24,2.24,2.24,0,0,1,2.28,2.29,3.91,3.91,0,0,1-.08.75l-1,4.61h-1.43l1-4.49a4.34,4.34,0,0,0,.06-.63,1.18,1.18,0,0,0-1.33-1.33c-1,0-2,.76-2.4,2.55Z"/><path class="cls-2" d="M733.48,609.67a4.14,4.14,0,0,1,4-4.33c2.18,0,3.29,1.44,3.29,3.46a4.15,4.15,0,0,1-4,4.34C734.59,613.14,733.48,611.7,733.48,609.67Zm3.94-3.13a2.81,2.81,0,0,0-2.52,3.06c0,1.35.68,2.34,2,2.34a2.81,2.81,0,0,0,2.52-3.06C739.37,607.53,738.7,606.54,737.42,606.54Z"/><path class="cls-2" d="M743.2,613h-1.43l1.59-7.5h1.43l-.23,1.09a2.85,2.85,0,0,1,2.37-1.24,2.23,2.23,0,0,1,2.28,2.29,4.87,4.87,0,0,1-.07.75l-1,4.61h-1.42l1-4.49a4.34,4.34,0,0,0,.06-.63,1.19,1.19,0,0,0-1.34-1.33c-1,0-2,.76-2.4,2.55Z"/><path class="cls-2" d="M754,613.14a3.19,3.19,0,0,1-3.3-3.47,4.09,4.09,0,0,1,4.08-4.33,2.78,2.78,0,0,1,2.87,3.07,5.38,5.38,0,0,1-.17,1.05H752v.21a2.05,2.05,0,0,0,2,2.27,1.91,1.91,0,0,0,1.89-1.17h1.42A3.23,3.23,0,0,1,754,613.14Zm-1.74-4.8h4a1.94,1.94,0,0,0,0-.35,1.48,1.48,0,0,0-1.65-1.45A2.44,2.44,0,0,0,752.21,608.34Z"/><path class="cls-2" d="M763.94,611.7,763,616h-1.42l2.23-10.5h1.43l-.23,1a2.66,2.66,0,0,1,2.25-1.15,3.07,3.07,0,0,1,3.06,3.34c0,2.61-1.56,4.46-3.75,4.46A2.92,2.92,0,0,1,763.94,611.7Zm3.08-5.13c-1.59,0-2.61,1.57-2.61,3.4a2,2,0,0,0,2,1.94c1.4,0,2.49-1.4,2.49-3.12C768.86,607.56,768.31,606.57,767,606.57Z"/><path class="cls-2" d="M775,613.14a3.19,3.19,0,0,1-3.3-3.47,4.09,4.09,0,0,1,4.08-4.33,2.78,2.78,0,0,1,2.87,3.07,5.38,5.38,0,0,1-.17,1.05H773v.21a2.05,2.05,0,0,0,2,2.27,1.91,1.91,0,0,0,1.89-1.17h1.42A3.23,3.23,0,0,1,775,613.14Zm-1.74-4.8h4a1.94,1.94,0,0,0,0-.35,1.48,1.48,0,0,0-1.65-1.45A2.44,2.44,0,0,0,773.21,608.34Z"/><path class="cls-2" d="M779.51,613l1.59-7.5h1.43l-.32,1.5a2.6,2.6,0,0,1,2.55-1.58h.48l-.3,1.43h-.46c-1.26,0-2.36.64-2.76,2.5l-.78,3.65Z"/><path class="cls-2" d="M789,609.24c0-2.21,1.29-3.9,3.6-3.9a2.84,2.84,0,0,1,3.07,2.62H794.2a1.6,1.6,0,0,0-1.58-1.42h-.15c-1.42,0-2.1,1.27-2.1,2.7s.68,2.7,2.1,2.7h.15a1.6,1.6,0,0,0,1.58-1.43h1.42a2.85,2.85,0,0,1-3.07,2.63C790.24,613.14,789,611.44,789,609.24Z"/><path class="cls-2" d="M797.38,602.49h1.42V613h-1.42Z"/><path class="cls-2" d="M801,602.49h1.57v1.65H801Zm.07,3h1.43V613h-1.43Z"/><path class="cls-2" d="M806.15,613h-1.42v-7.5h1.42v1a2.7,2.7,0,0,1,2.4-1.2,2.46,2.46,0,0,1,2.7,2.62v5h-1.42v-4.73c0-1-.45-1.72-1.5-1.72h-.15a2.08,2.08,0,0,0-2,2.25Z"/><path class="cls-2" d="M813.35,602.49h1.58v1.65h-1.58Zm.08,3h1.42V613h-1.42Z"/><path class="cls-2" d="M816.65,609.24c0-2.21,1.29-3.9,3.6-3.9a2.85,2.85,0,0,1,3.08,2.62H821.9a1.58,1.58,0,0,0-1.57-1.42h-.15c-1.43,0-2.1,1.27-2.1,2.7s.67,2.7,2.1,2.7h.15a1.58,1.58,0,0,0,1.57-1.43h1.43a2.86,2.86,0,0,1-3.08,2.63C817.94,613.14,816.65,611.44,816.65,609.24Z"/><path class="cls-2" d="M824.48,611.19h1.88L826,613h-1.88Z"/></g></g></svg>